G04 EAGLE Gerber RS-274X export*
G75*
%MOMM*%
%FSLAX34Y34*%
%LPD*%
%INBottom Copper*%
%IPPOS*%
%AMOC8*
5,1,8,0,0,1.08239X$1,22.5*%
G01*
%ADD10C,1.219200*%
%ADD11C,5.842000*%
%ADD12C,6.350000*%
%ADD13C,1.879600*%
%ADD14C,0.635000*%
%ADD15C,0.127000*%
%ADD16C,0.508000*%
%ADD17C,0.609600*%
%ADD18C,0.254000*%
%ADD19C,1.016000*%
%ADD20C,0.604000*%
%ADD21C,0.812800*%
%ADD22C,0.406400*%
%ADD23C,0.177800*%
%ADD24C,0.304800*%
%ADD25C,0.152400*%

G36*
X995020Y4242D02*
X995020Y4242D01*
X995039Y4240D01*
X995141Y4262D01*
X995243Y4279D01*
X995260Y4288D01*
X995280Y4292D01*
X995369Y4345D01*
X995460Y4394D01*
X995474Y4408D01*
X995491Y4418D01*
X995558Y4497D01*
X995630Y4572D01*
X995638Y4590D01*
X995651Y4605D01*
X995690Y4701D01*
X995733Y4795D01*
X995735Y4815D01*
X995743Y4833D01*
X995761Y5000D01*
X995761Y745000D01*
X995758Y745020D01*
X995760Y745039D01*
X995738Y745141D01*
X995722Y745243D01*
X995712Y745260D01*
X995708Y745280D01*
X995655Y745369D01*
X995606Y745460D01*
X995592Y745474D01*
X995582Y745491D01*
X995503Y745558D01*
X995428Y745630D01*
X995410Y745638D01*
X995395Y745651D01*
X995299Y745690D01*
X995205Y745733D01*
X995185Y745735D01*
X995167Y745743D01*
X995000Y745761D01*
X5000Y745761D01*
X4980Y745758D01*
X4961Y745760D01*
X4859Y745738D01*
X4757Y745722D01*
X4740Y745712D01*
X4720Y745708D01*
X4631Y745655D01*
X4540Y745606D01*
X4526Y745592D01*
X4509Y745582D01*
X4442Y745503D01*
X4371Y745428D01*
X4362Y745410D01*
X4349Y745395D01*
X4310Y745299D01*
X4267Y745205D01*
X4265Y745185D01*
X4257Y745167D01*
X4239Y745000D01*
X4239Y5000D01*
X4242Y4980D01*
X4240Y4961D01*
X4262Y4859D01*
X4279Y4757D01*
X4288Y4740D01*
X4292Y4720D01*
X4345Y4631D01*
X4394Y4540D01*
X4408Y4526D01*
X4418Y4509D01*
X4497Y4442D01*
X4572Y4371D01*
X4590Y4362D01*
X4605Y4349D01*
X4701Y4310D01*
X4795Y4267D01*
X4815Y4265D01*
X4833Y4257D01*
X5000Y4239D01*
X995000Y4239D01*
X995020Y4242D01*
G37*
%LPC*%
G36*
X713484Y192379D02*
X713484Y192379D01*
X710683Y193539D01*
X708539Y195683D01*
X707379Y198484D01*
X707379Y476528D01*
X707365Y476618D01*
X707357Y476709D01*
X707345Y476739D01*
X707340Y476771D01*
X707297Y476852D01*
X707261Y476935D01*
X707235Y476968D01*
X707224Y476988D01*
X707201Y477010D01*
X707156Y477066D01*
X683351Y500871D01*
X683335Y500883D01*
X683323Y500898D01*
X683235Y500955D01*
X683152Y501015D01*
X683133Y501021D01*
X683116Y501031D01*
X683015Y501057D01*
X682917Y501087D01*
X682897Y501087D01*
X682877Y501091D01*
X682774Y501083D01*
X682671Y501081D01*
X682652Y501074D01*
X682632Y501072D01*
X682537Y501032D01*
X682440Y500996D01*
X682424Y500984D01*
X682406Y500976D01*
X682275Y500871D01*
X676345Y494941D01*
X674666Y493262D01*
X672612Y492411D01*
X652595Y492411D01*
X652530Y492401D01*
X652465Y492400D01*
X652385Y492377D01*
X652352Y492372D01*
X652335Y492362D01*
X652304Y492353D01*
X652137Y492284D01*
X649863Y492284D01*
X647762Y493154D01*
X646154Y494762D01*
X645284Y496863D01*
X645284Y499137D01*
X646154Y501238D01*
X647762Y502846D01*
X649863Y503716D01*
X652137Y503716D01*
X652304Y503647D01*
X652367Y503632D01*
X652428Y503607D01*
X652511Y503598D01*
X652543Y503591D01*
X652562Y503592D01*
X652595Y503589D01*
X668870Y503589D01*
X668960Y503603D01*
X669051Y503611D01*
X669081Y503623D01*
X669112Y503628D01*
X669193Y503671D01*
X669277Y503707D01*
X669309Y503733D01*
X669330Y503744D01*
X669352Y503767D01*
X669408Y503812D01*
X674371Y508775D01*
X674383Y508791D01*
X674398Y508804D01*
X674454Y508891D01*
X674515Y508975D01*
X674521Y508994D01*
X674531Y509010D01*
X674557Y509111D01*
X674587Y509210D01*
X674587Y509230D01*
X674591Y509249D01*
X674583Y509352D01*
X674581Y509456D01*
X674574Y509474D01*
X674572Y509494D01*
X674532Y509589D01*
X674496Y509687D01*
X674484Y509702D01*
X674476Y509720D01*
X674371Y509851D01*
X669621Y514601D01*
X669547Y514654D01*
X669478Y514714D01*
X669448Y514726D01*
X669422Y514745D01*
X669335Y514772D01*
X669250Y514806D01*
X669209Y514810D01*
X669187Y514817D01*
X669154Y514816D01*
X669083Y514824D01*
X653185Y514824D01*
X652408Y515601D01*
X652334Y515654D01*
X652264Y515714D01*
X652234Y515726D01*
X652208Y515745D01*
X652121Y515772D01*
X652036Y515806D01*
X651995Y515810D01*
X651973Y515817D01*
X651941Y515816D01*
X651869Y515824D01*
X516631Y515824D01*
X516541Y515810D01*
X516450Y515802D01*
X516420Y515790D01*
X516388Y515785D01*
X516307Y515742D01*
X516223Y515706D01*
X516191Y515680D01*
X516171Y515669D01*
X516148Y515646D01*
X516147Y515645D01*
X516145Y515644D01*
X516143Y515642D01*
X516092Y515601D01*
X472315Y471824D01*
X276185Y471824D01*
X274101Y473908D01*
X268908Y479101D01*
X268907Y479101D01*
X266824Y481185D01*
X266824Y502815D01*
X277185Y513176D01*
X460869Y513176D01*
X460959Y513190D01*
X461050Y513198D01*
X461080Y513210D01*
X461112Y513215D01*
X461193Y513258D01*
X461277Y513294D01*
X461309Y513320D01*
X461329Y513331D01*
X461352Y513354D01*
X461408Y513399D01*
X486185Y538176D01*
X645903Y538176D01*
X645974Y538187D01*
X646046Y538189D01*
X646095Y538207D01*
X646146Y538215D01*
X646209Y538249D01*
X646277Y538274D01*
X646317Y538306D01*
X646363Y538331D01*
X646413Y538382D01*
X646469Y538427D01*
X646497Y538471D01*
X646533Y538509D01*
X646563Y538574D01*
X646602Y538634D01*
X646614Y538685D01*
X646636Y538732D01*
X646644Y538803D01*
X646662Y538873D01*
X646658Y538925D01*
X646663Y538976D01*
X646648Y539047D01*
X646643Y539118D01*
X646622Y539166D01*
X646611Y539217D01*
X646574Y539278D01*
X646546Y539344D01*
X646502Y539400D01*
X646485Y539428D01*
X646467Y539443D01*
X646441Y539475D01*
X646181Y539735D01*
X645311Y541836D01*
X645311Y544110D01*
X646181Y546211D01*
X647789Y547819D01*
X649890Y548689D01*
X652164Y548689D01*
X653524Y548125D01*
X653638Y548099D01*
X653751Y548070D01*
X653757Y548071D01*
X653763Y548069D01*
X653880Y548080D01*
X653996Y548089D01*
X654002Y548092D01*
X654008Y548092D01*
X654115Y548140D01*
X654222Y548186D01*
X654228Y548190D01*
X654233Y548192D01*
X654246Y548205D01*
X654353Y548291D01*
X655628Y549566D01*
X655681Y549640D01*
X655741Y549709D01*
X655753Y549739D01*
X655772Y549765D01*
X655799Y549852D01*
X655833Y549937D01*
X655837Y549978D01*
X655844Y550000D01*
X655843Y550033D01*
X655851Y550104D01*
X655851Y552342D01*
X655848Y552361D01*
X655850Y552378D01*
X655835Y552446D01*
X655829Y552523D01*
X655817Y552553D01*
X655811Y552585D01*
X655801Y552605D01*
X655798Y552619D01*
X655766Y552672D01*
X655733Y552750D01*
X655707Y552782D01*
X655696Y552802D01*
X655677Y552821D01*
X655672Y552830D01*
X655663Y552837D01*
X655628Y552881D01*
X616434Y592074D01*
X616361Y592127D01*
X616291Y592187D01*
X616261Y592199D01*
X616235Y592218D01*
X616148Y592245D01*
X616063Y592279D01*
X616022Y592283D01*
X616000Y592290D01*
X615967Y592289D01*
X615896Y592297D01*
X550712Y592297D01*
X526448Y616561D01*
X526374Y616614D01*
X526304Y616674D01*
X526274Y616686D01*
X526248Y616705D01*
X526161Y616732D01*
X526076Y616766D01*
X526035Y616770D01*
X526013Y616777D01*
X525981Y616776D01*
X525909Y616784D01*
X523863Y616784D01*
X521762Y617654D01*
X520154Y619262D01*
X519284Y621363D01*
X519284Y623637D01*
X520154Y625738D01*
X521762Y627346D01*
X523863Y628216D01*
X526137Y628216D01*
X528238Y627346D01*
X529871Y625713D01*
X529908Y625686D01*
X529939Y625652D01*
X530007Y625615D01*
X530070Y625569D01*
X530114Y625556D01*
X530155Y625533D01*
X530231Y625520D01*
X530305Y625497D01*
X530351Y625498D01*
X530397Y625490D01*
X530473Y625501D01*
X530551Y625503D01*
X530595Y625519D01*
X530640Y625526D01*
X530709Y625561D01*
X530782Y625588D01*
X530818Y625616D01*
X530859Y625637D01*
X530914Y625693D01*
X530974Y625741D01*
X530999Y625780D01*
X531031Y625813D01*
X531050Y625848D01*
X532523Y627321D01*
X532576Y627394D01*
X532636Y627464D01*
X532648Y627494D01*
X532667Y627520D01*
X532694Y627607D01*
X532728Y627692D01*
X532732Y627733D01*
X532739Y627755D01*
X532738Y627788D01*
X532746Y627859D01*
X532746Y656947D01*
X532732Y657037D01*
X532724Y657128D01*
X532712Y657158D01*
X532707Y657190D01*
X532664Y657271D01*
X532628Y657355D01*
X532602Y657387D01*
X532591Y657407D01*
X532568Y657430D01*
X532523Y657486D01*
X528448Y661561D01*
X528374Y661614D01*
X528304Y661674D01*
X528274Y661686D01*
X528248Y661705D01*
X528161Y661732D01*
X528076Y661766D01*
X528035Y661770D01*
X528013Y661777D01*
X527981Y661776D01*
X527909Y661784D01*
X526363Y661784D01*
X524262Y662654D01*
X522654Y664262D01*
X521784Y666363D01*
X521784Y668637D01*
X522654Y670738D01*
X524262Y672346D01*
X526363Y673216D01*
X528637Y673216D01*
X530738Y672346D01*
X532346Y670738D01*
X533216Y668637D01*
X533216Y666321D01*
X533212Y666304D01*
X533183Y666190D01*
X533184Y666184D01*
X533182Y666178D01*
X533193Y666062D01*
X533202Y665945D01*
X533205Y665939D01*
X533205Y665933D01*
X533253Y665826D01*
X533298Y665719D01*
X533303Y665713D01*
X533305Y665708D01*
X533318Y665695D01*
X533403Y665588D01*
X539098Y659893D01*
X539098Y627859D01*
X539112Y627769D01*
X539120Y627678D01*
X539132Y627648D01*
X539137Y627616D01*
X539180Y627535D01*
X539216Y627451D01*
X539242Y627419D01*
X539253Y627399D01*
X539276Y627376D01*
X539321Y627321D01*
X540768Y625874D01*
X541638Y623773D01*
X541638Y621499D01*
X540768Y619398D01*
X539585Y618216D01*
X539573Y618200D01*
X539558Y618187D01*
X539502Y618100D01*
X539441Y618016D01*
X539436Y617997D01*
X539425Y617980D01*
X539400Y617880D01*
X539369Y617781D01*
X539370Y617761D01*
X539365Y617742D01*
X539373Y617639D01*
X539375Y617535D01*
X539382Y617516D01*
X539384Y617496D01*
X539424Y617402D01*
X539460Y617304D01*
X539472Y617288D01*
X539480Y617270D01*
X539585Y617139D01*
X554566Y602158D01*
X554640Y602105D01*
X554710Y602045D01*
X554740Y602033D01*
X554766Y602014D01*
X554853Y601988D01*
X554938Y601953D01*
X554979Y601949D01*
X555001Y601942D01*
X555033Y601943D01*
X555105Y601935D01*
X613387Y601935D01*
X613458Y601946D01*
X613529Y601948D01*
X613578Y601966D01*
X613630Y601975D01*
X613693Y602008D01*
X613760Y602033D01*
X613801Y602065D01*
X613847Y602090D01*
X613896Y602142D01*
X613952Y602186D01*
X613980Y602230D01*
X614016Y602268D01*
X614047Y602333D01*
X614085Y602393D01*
X614098Y602444D01*
X614120Y602491D01*
X614128Y602562D01*
X614145Y602632D01*
X614141Y602684D01*
X614147Y602736D01*
X614132Y602806D01*
X614126Y602877D01*
X614106Y602925D01*
X614095Y602976D01*
X614058Y603038D01*
X614030Y603103D01*
X613985Y603159D01*
X613969Y603187D01*
X613951Y603202D01*
X613925Y603234D01*
X584866Y632294D01*
X582901Y634259D01*
X582809Y634480D01*
X582785Y634519D01*
X582769Y634562D01*
X582721Y634623D01*
X582680Y634689D01*
X582644Y634718D01*
X582615Y634754D01*
X582550Y634796D01*
X582490Y634846D01*
X582447Y634862D01*
X582409Y634887D01*
X582333Y634906D01*
X582260Y634934D01*
X582215Y634936D01*
X582170Y634947D01*
X582092Y634941D01*
X582015Y634945D01*
X581971Y634932D01*
X581925Y634928D01*
X581853Y634898D01*
X581778Y634876D01*
X581741Y634850D01*
X581698Y634832D01*
X581592Y634746D01*
X581576Y634736D01*
X581573Y634732D01*
X581567Y634727D01*
X581241Y634401D01*
X578814Y633395D01*
X564186Y633395D01*
X561759Y634401D01*
X559901Y636259D01*
X558895Y638686D01*
X558895Y641314D01*
X559901Y643741D01*
X561759Y645599D01*
X564186Y646605D01*
X574449Y646605D01*
X574539Y646619D01*
X574630Y646627D01*
X574660Y646639D01*
X574692Y646644D01*
X574772Y646687D01*
X574856Y646723D01*
X574888Y646749D01*
X574909Y646760D01*
X574931Y646783D01*
X574987Y646828D01*
X582794Y654634D01*
X584866Y656706D01*
X593172Y665013D01*
X593225Y665087D01*
X593285Y665156D01*
X593297Y665186D01*
X593316Y665213D01*
X593343Y665300D01*
X593377Y665384D01*
X593381Y665425D01*
X593388Y665448D01*
X593387Y665480D01*
X593395Y665551D01*
X593395Y701134D01*
X593392Y701154D01*
X593394Y701173D01*
X593372Y701275D01*
X593356Y701377D01*
X593346Y701394D01*
X593342Y701414D01*
X593289Y701503D01*
X593240Y701594D01*
X593226Y701608D01*
X593216Y701625D01*
X593137Y701692D01*
X593062Y701764D01*
X593044Y701772D01*
X593029Y701785D01*
X592933Y701824D01*
X592839Y701867D01*
X592819Y701869D01*
X592801Y701877D01*
X592634Y701895D01*
X521524Y701895D01*
X521434Y701881D01*
X521343Y701873D01*
X521313Y701861D01*
X521281Y701856D01*
X521201Y701813D01*
X521117Y701777D01*
X521085Y701751D01*
X521064Y701740D01*
X521042Y701717D01*
X520986Y701672D01*
X511214Y691901D01*
X508787Y690895D01*
X506159Y690895D01*
X503732Y691901D01*
X501874Y693759D01*
X500868Y696186D01*
X500868Y698814D01*
X501874Y701241D01*
X514732Y714099D01*
X517159Y715105D01*
X598328Y715105D01*
X598392Y715115D01*
X598458Y715116D01*
X598538Y715139D01*
X598570Y715144D01*
X598588Y715154D01*
X598619Y715163D01*
X599686Y715605D01*
X619314Y715605D01*
X621741Y714599D01*
X623599Y712741D01*
X624605Y710314D01*
X624605Y707686D01*
X623599Y705259D01*
X621741Y703401D01*
X619314Y702395D01*
X607366Y702395D01*
X607346Y702392D01*
X607327Y702394D01*
X607225Y702372D01*
X607123Y702356D01*
X607106Y702346D01*
X607086Y702342D01*
X606997Y702289D01*
X606906Y702240D01*
X606892Y702226D01*
X606875Y702216D01*
X606808Y702137D01*
X606736Y702062D01*
X606728Y702044D01*
X606715Y702029D01*
X606676Y701933D01*
X606633Y701839D01*
X606631Y701819D01*
X606623Y701801D01*
X606605Y701634D01*
X606605Y661186D01*
X605599Y658759D01*
X595328Y648487D01*
X595275Y648413D01*
X595215Y648344D01*
X595203Y648314D01*
X595184Y648287D01*
X595157Y648200D01*
X595123Y648116D01*
X595119Y648075D01*
X595112Y648052D01*
X595113Y648020D01*
X595105Y647949D01*
X595105Y641051D01*
X595119Y640961D01*
X595127Y640870D01*
X595139Y640840D01*
X595144Y640808D01*
X595187Y640728D01*
X595223Y640644D01*
X595249Y640612D01*
X595260Y640591D01*
X595283Y640569D01*
X595328Y640513D01*
X674599Y561241D01*
X675605Y558814D01*
X675605Y534202D01*
X675619Y534112D01*
X675627Y534021D01*
X675639Y533991D01*
X675644Y533959D01*
X675687Y533878D01*
X675723Y533794D01*
X675749Y533762D01*
X675760Y533742D01*
X675783Y533719D01*
X675828Y533663D01*
X676093Y533399D01*
X678176Y531315D01*
X678176Y527917D01*
X678190Y527827D01*
X678198Y527736D01*
X678210Y527706D01*
X678215Y527674D01*
X678258Y527593D01*
X678294Y527510D01*
X678320Y527477D01*
X678331Y527457D01*
X678354Y527435D01*
X678399Y527379D01*
X690817Y514960D01*
X690818Y514960D01*
X719210Y486568D01*
X721461Y484317D01*
X722621Y481516D01*
X722621Y379686D01*
X722635Y379596D01*
X722643Y379505D01*
X722655Y379475D01*
X722660Y379443D01*
X722703Y379362D01*
X722739Y379278D01*
X722765Y379246D01*
X722776Y379226D01*
X722799Y379203D01*
X722844Y379147D01*
X723399Y378593D01*
X723399Y378592D01*
X726092Y375899D01*
X728176Y373815D01*
X728176Y366185D01*
X722844Y360853D01*
X722791Y360779D01*
X722731Y360709D01*
X722719Y360679D01*
X722700Y360653D01*
X722673Y360566D01*
X722639Y360481D01*
X722635Y360440D01*
X722628Y360418D01*
X722629Y360386D01*
X722621Y360314D01*
X722621Y198484D01*
X721461Y195683D01*
X719317Y193539D01*
X716516Y192379D01*
X713484Y192379D01*
G37*
%LPD*%
G36*
X471042Y474373D02*
X471042Y474373D01*
X471084Y474371D01*
X471151Y474393D01*
X471221Y474405D01*
X471257Y474427D01*
X471298Y474440D01*
X471371Y474494D01*
X471414Y474520D01*
X471427Y474536D01*
X471448Y474552D01*
X515263Y518366D01*
X653237Y518366D01*
X653592Y518012D01*
X653626Y517987D01*
X653655Y517956D01*
X653718Y517924D01*
X653776Y517883D01*
X653817Y517873D01*
X653855Y517853D01*
X653944Y517840D01*
X653993Y517827D01*
X654014Y517830D01*
X654040Y517826D01*
X659486Y517826D01*
X659760Y517552D01*
X659795Y517527D01*
X659824Y517496D01*
X659886Y517464D01*
X659944Y517423D01*
X659985Y517413D01*
X660023Y517393D01*
X660113Y517380D01*
X660162Y517368D01*
X660182Y517370D01*
X660209Y517366D01*
X670500Y517366D01*
X670542Y517373D01*
X670584Y517371D01*
X670651Y517393D01*
X670721Y517405D01*
X670757Y517427D01*
X670798Y517440D01*
X670871Y517494D01*
X670914Y517520D01*
X670927Y517536D01*
X670948Y517552D01*
X675448Y522052D01*
X675473Y522086D01*
X675504Y522115D01*
X675536Y522178D01*
X675577Y522236D01*
X675587Y522277D01*
X675607Y522315D01*
X675620Y522404D01*
X675633Y522453D01*
X675630Y522474D01*
X675634Y522500D01*
X675634Y530000D01*
X675627Y530042D01*
X675629Y530084D01*
X675607Y530151D01*
X675595Y530221D01*
X675573Y530257D01*
X675560Y530298D01*
X675506Y530371D01*
X675480Y530414D01*
X675464Y530427D01*
X675448Y530448D01*
X670448Y535448D01*
X670414Y535473D01*
X670385Y535504D01*
X670322Y535536D01*
X670264Y535577D01*
X670223Y535587D01*
X670185Y535607D01*
X670096Y535620D01*
X670047Y535633D01*
X670026Y535630D01*
X670000Y535634D01*
X487500Y535634D01*
X487458Y535627D01*
X487416Y535629D01*
X487349Y535607D01*
X487279Y535595D01*
X487243Y535573D01*
X487202Y535560D01*
X487129Y535506D01*
X487086Y535480D01*
X487073Y535464D01*
X487052Y535448D01*
X462237Y510634D01*
X278500Y510634D01*
X278458Y510627D01*
X278416Y510629D01*
X278349Y510607D01*
X278279Y510595D01*
X278243Y510573D01*
X278202Y510560D01*
X278129Y510506D01*
X278086Y510480D01*
X278073Y510464D01*
X278052Y510448D01*
X269552Y501948D01*
X269527Y501914D01*
X269496Y501885D01*
X269464Y501822D01*
X269423Y501764D01*
X269413Y501723D01*
X269393Y501685D01*
X269380Y501596D01*
X269368Y501547D01*
X269370Y501526D01*
X269366Y501500D01*
X269366Y482500D01*
X269373Y482458D01*
X269371Y482416D01*
X269393Y482349D01*
X269405Y482279D01*
X269427Y482243D01*
X269440Y482202D01*
X269494Y482129D01*
X269520Y482086D01*
X269536Y482073D01*
X269552Y482052D01*
X277052Y474552D01*
X277086Y474527D01*
X277115Y474496D01*
X277178Y474464D01*
X277236Y474423D01*
X277277Y474413D01*
X277315Y474393D01*
X277404Y474380D01*
X277453Y474368D01*
X277474Y474370D01*
X277500Y474366D01*
X471000Y474366D01*
X471042Y474373D01*
G37*
%LPC*%
G36*
X848896Y420338D02*
X848896Y420338D01*
X845722Y421653D01*
X843292Y424083D01*
X842404Y426227D01*
X842342Y426327D01*
X842282Y426427D01*
X842277Y426431D01*
X842274Y426436D01*
X842184Y426511D01*
X842095Y426587D01*
X842090Y426589D01*
X842085Y426593D01*
X841976Y426635D01*
X841867Y426679D01*
X841860Y426680D01*
X841855Y426681D01*
X841837Y426682D01*
X841700Y426697D01*
X830534Y426697D01*
X830419Y426678D01*
X830303Y426661D01*
X830298Y426659D01*
X830292Y426658D01*
X830189Y426603D01*
X830084Y426550D01*
X830080Y426545D01*
X830074Y426542D01*
X829994Y426458D01*
X829912Y426374D01*
X829908Y426368D01*
X829905Y426364D01*
X829897Y426347D01*
X829856Y426273D01*
X828238Y424654D01*
X826137Y423784D01*
X823863Y423784D01*
X821762Y424654D01*
X820154Y426262D01*
X819284Y428363D01*
X819284Y430637D01*
X820154Y432738D01*
X821762Y434346D01*
X823863Y435216D01*
X826137Y435216D01*
X828238Y434346D01*
X829058Y433526D01*
X829132Y433473D01*
X829201Y433413D01*
X829231Y433401D01*
X829257Y433382D01*
X829344Y433355D01*
X829429Y433321D01*
X829470Y433317D01*
X829492Y433310D01*
X829525Y433311D01*
X829596Y433303D01*
X842550Y433303D01*
X842664Y433322D01*
X842781Y433339D01*
X842786Y433341D01*
X842792Y433342D01*
X842895Y433397D01*
X843000Y433450D01*
X843004Y433455D01*
X843010Y433458D01*
X843090Y433542D01*
X843172Y433626D01*
X843176Y433632D01*
X843179Y433636D01*
X843187Y433653D01*
X843253Y433773D01*
X843292Y433867D01*
X844823Y435398D01*
X844864Y435456D01*
X844914Y435508D01*
X844936Y435555D01*
X844966Y435597D01*
X844987Y435666D01*
X845017Y435731D01*
X845023Y435783D01*
X845038Y435833D01*
X845037Y435904D01*
X845044Y435975D01*
X845033Y436026D01*
X845032Y436078D01*
X845007Y436146D01*
X844992Y436216D01*
X844966Y436261D01*
X844948Y436309D01*
X844903Y436365D01*
X844866Y436427D01*
X844826Y436461D01*
X844794Y436501D01*
X844734Y436540D01*
X844679Y436587D01*
X844631Y436606D01*
X844587Y436634D01*
X844518Y436652D01*
X844451Y436679D01*
X844380Y436687D01*
X844348Y436695D01*
X844325Y436693D01*
X844284Y436697D01*
X836132Y436697D01*
X824745Y448085D01*
X824728Y448096D01*
X824716Y448112D01*
X824628Y448168D01*
X824545Y448228D01*
X824526Y448234D01*
X824509Y448245D01*
X824408Y448270D01*
X824310Y448301D01*
X824290Y448300D01*
X824270Y448305D01*
X824167Y448297D01*
X824064Y448294D01*
X824045Y448287D01*
X824025Y448286D01*
X823930Y448245D01*
X823833Y448210D01*
X823817Y448197D01*
X823799Y448189D01*
X823774Y448169D01*
X821637Y447284D01*
X819363Y447284D01*
X817262Y448154D01*
X815654Y449762D01*
X814784Y451863D01*
X814784Y454137D01*
X815654Y456238D01*
X817262Y457846D01*
X819363Y458716D01*
X821637Y458716D01*
X823738Y457846D01*
X825058Y456526D01*
X825132Y456473D01*
X825201Y456413D01*
X825231Y456401D01*
X825257Y456382D01*
X825344Y456355D01*
X825429Y456321D01*
X825470Y456317D01*
X825492Y456310D01*
X825525Y456311D01*
X825596Y456303D01*
X825868Y456303D01*
X827052Y455119D01*
X827089Y455092D01*
X827120Y455058D01*
X827162Y455036D01*
X827192Y455009D01*
X827220Y454998D01*
X827251Y454975D01*
X827295Y454962D01*
X827336Y454940D01*
X827388Y454930D01*
X827421Y454917D01*
X827452Y454914D01*
X827487Y454903D01*
X827532Y454904D01*
X827578Y454896D01*
X827655Y454907D01*
X827732Y454909D01*
X827776Y454925D01*
X827821Y454932D01*
X827890Y454967D01*
X827963Y454994D01*
X827999Y455023D01*
X828040Y455043D01*
X828049Y455052D01*
X828051Y455054D01*
X828085Y455089D01*
X828095Y455099D01*
X828156Y455148D01*
X828180Y455186D01*
X828212Y455219D01*
X828218Y455229D01*
X828221Y455232D01*
X828227Y455245D01*
X828278Y455339D01*
X828289Y455355D01*
X828290Y455359D01*
X828293Y455366D01*
X828654Y456238D01*
X829378Y456962D01*
X829390Y456978D01*
X829406Y456990D01*
X829462Y457078D01*
X829522Y457161D01*
X829528Y457180D01*
X829539Y457197D01*
X829564Y457298D01*
X829594Y457397D01*
X829594Y457416D01*
X829599Y457436D01*
X829591Y457539D01*
X829588Y457642D01*
X829581Y457661D01*
X829580Y457681D01*
X829539Y457776D01*
X829504Y457873D01*
X829491Y457889D01*
X829483Y457907D01*
X829378Y458038D01*
X828431Y458985D01*
X827561Y461086D01*
X827561Y463360D01*
X828431Y465461D01*
X830039Y467069D01*
X832140Y467939D01*
X834414Y467939D01*
X836515Y467069D01*
X837835Y465749D01*
X837908Y465696D01*
X837978Y465636D01*
X838008Y465624D01*
X838034Y465605D01*
X838121Y465578D01*
X838206Y465544D01*
X838247Y465540D01*
X838269Y465533D01*
X838302Y465534D01*
X838373Y465526D01*
X843191Y465526D01*
X843262Y465537D01*
X843334Y465539D01*
X843383Y465557D01*
X843434Y465566D01*
X843497Y465599D01*
X843565Y465624D01*
X843605Y465656D01*
X843651Y465681D01*
X843701Y465733D01*
X843757Y465777D01*
X843785Y465821D01*
X843821Y465859D01*
X843851Y465924D01*
X843890Y465984D01*
X843902Y466035D01*
X843924Y466082D01*
X843932Y466153D01*
X843950Y466223D01*
X843946Y466275D01*
X843951Y466326D01*
X843936Y466397D01*
X843931Y466468D01*
X843910Y466516D01*
X843899Y466567D01*
X843862Y466628D01*
X843834Y466694D01*
X843789Y466750D01*
X843773Y466778D01*
X843755Y466793D01*
X843730Y466825D01*
X843292Y467263D01*
X842776Y468509D01*
X842714Y468609D01*
X842654Y468709D01*
X842650Y468713D01*
X842646Y468718D01*
X842556Y468793D01*
X842467Y468869D01*
X842461Y468871D01*
X842457Y468875D01*
X842348Y468917D01*
X842239Y468961D01*
X842232Y468962D01*
X842227Y468963D01*
X842209Y468964D01*
X842072Y468979D01*
X841030Y468979D01*
X838946Y471062D01*
X838946Y471063D01*
X822908Y487101D01*
X822907Y487101D01*
X820824Y489185D01*
X820824Y500996D01*
X820810Y501086D01*
X820802Y501177D01*
X820790Y501207D01*
X820785Y501239D01*
X820742Y501320D01*
X820706Y501404D01*
X820680Y501436D01*
X820669Y501456D01*
X820646Y501479D01*
X820601Y501535D01*
X819286Y502850D01*
X818439Y504894D01*
X818439Y507106D01*
X819286Y509150D01*
X820850Y510714D01*
X822894Y511561D01*
X825179Y511561D01*
X825249Y511544D01*
X825269Y511546D01*
X825289Y511543D01*
X825391Y511558D01*
X825494Y511567D01*
X825513Y511575D01*
X825532Y511578D01*
X825624Y511625D01*
X825719Y511667D01*
X825734Y511681D01*
X825752Y511690D01*
X825824Y511764D01*
X825900Y511833D01*
X825910Y511851D01*
X825924Y511865D01*
X826005Y512012D01*
X826786Y513898D01*
X828350Y515462D01*
X830394Y516309D01*
X832606Y516309D01*
X834650Y515462D01*
X836214Y513898D01*
X837061Y511854D01*
X837061Y509642D01*
X836214Y507598D01*
X835592Y506976D01*
X835580Y506960D01*
X835565Y506947D01*
X835509Y506860D01*
X835448Y506776D01*
X835443Y506757D01*
X835432Y506740D01*
X835406Y506640D01*
X835376Y506541D01*
X835377Y506521D01*
X835372Y506502D01*
X835380Y506399D01*
X835382Y506295D01*
X835389Y506276D01*
X835391Y506257D01*
X835431Y506162D01*
X835467Y506064D01*
X835479Y506048D01*
X835487Y506030D01*
X835592Y505899D01*
X842535Y498956D01*
X842551Y498945D01*
X842563Y498929D01*
X842651Y498873D01*
X842734Y498813D01*
X842753Y498807D01*
X842770Y498796D01*
X842871Y498771D01*
X842970Y498741D01*
X842989Y498741D01*
X843009Y498736D01*
X843112Y498744D01*
X843215Y498747D01*
X843234Y498754D01*
X843254Y498755D01*
X843349Y498796D01*
X843446Y498831D01*
X843462Y498844D01*
X843480Y498852D01*
X843611Y498956D01*
X845722Y501067D01*
X848896Y502382D01*
X864524Y502382D01*
X867698Y501067D01*
X870128Y498637D01*
X871443Y495463D01*
X871443Y492027D01*
X870128Y488853D01*
X867698Y486423D01*
X864524Y485108D01*
X848896Y485108D01*
X845722Y486423D01*
X843292Y488853D01*
X842776Y490099D01*
X842714Y490199D01*
X842654Y490299D01*
X842650Y490303D01*
X842646Y490308D01*
X842556Y490383D01*
X842467Y490459D01*
X842461Y490461D01*
X842457Y490465D01*
X842348Y490507D01*
X842239Y490551D01*
X842232Y490552D01*
X842227Y490553D01*
X842209Y490554D01*
X842072Y490569D01*
X841940Y490569D01*
X839856Y492653D01*
X829725Y502784D01*
X829709Y502796D01*
X829696Y502811D01*
X829609Y502867D01*
X829525Y502928D01*
X829506Y502933D01*
X829489Y502944D01*
X829389Y502970D01*
X829290Y503000D01*
X829270Y502999D01*
X829251Y503004D01*
X829148Y502996D01*
X829044Y502994D01*
X829025Y502987D01*
X829005Y502985D01*
X828911Y502945D01*
X828813Y502909D01*
X828797Y502897D01*
X828779Y502889D01*
X828648Y502784D01*
X827399Y501535D01*
X827346Y501461D01*
X827286Y501391D01*
X827274Y501361D01*
X827255Y501335D01*
X827228Y501248D01*
X827194Y501163D01*
X827190Y501122D01*
X827183Y501100D01*
X827184Y501068D01*
X827176Y500996D01*
X827176Y492131D01*
X827190Y492041D01*
X827198Y491950D01*
X827210Y491920D01*
X827215Y491888D01*
X827258Y491807D01*
X827294Y491723D01*
X827320Y491691D01*
X827331Y491671D01*
X827354Y491648D01*
X827399Y491592D01*
X842092Y476900D01*
X842129Y476873D01*
X842160Y476839D01*
X842229Y476801D01*
X842291Y476756D01*
X842335Y476742D01*
X842376Y476720D01*
X842452Y476706D01*
X842526Y476684D01*
X842573Y476685D01*
X842618Y476677D01*
X842695Y476688D01*
X842772Y476690D01*
X842816Y476706D01*
X842861Y476713D01*
X842930Y476748D01*
X843003Y476774D01*
X843040Y476803D01*
X843081Y476824D01*
X843135Y476880D01*
X843195Y476928D01*
X843220Y476967D01*
X843253Y477000D01*
X843262Y477018D01*
X845722Y479477D01*
X848896Y480792D01*
X864524Y480792D01*
X867698Y479477D01*
X870128Y477047D01*
X871443Y473873D01*
X871443Y470437D01*
X870204Y467446D01*
X870181Y467351D01*
X870153Y467258D01*
X870153Y467231D01*
X870147Y467206D01*
X870157Y467109D01*
X870159Y467012D01*
X870168Y466987D01*
X870171Y466961D01*
X870210Y466872D01*
X870244Y466781D01*
X870260Y466760D01*
X870271Y466736D01*
X870336Y466665D01*
X870397Y466589D01*
X870419Y466575D01*
X870437Y466555D01*
X870522Y466508D01*
X870604Y466456D01*
X870630Y466449D01*
X870652Y466437D01*
X870748Y466419D01*
X870843Y466396D01*
X870869Y466398D01*
X870895Y466393D01*
X870991Y466407D01*
X871088Y466415D01*
X871112Y466425D01*
X871138Y466429D01*
X871225Y466473D01*
X871314Y466511D01*
X871340Y466532D01*
X871357Y466540D01*
X871380Y466564D01*
X871445Y466616D01*
X873974Y469145D01*
X874027Y469219D01*
X874087Y469288D01*
X874099Y469319D01*
X874118Y469345D01*
X874145Y469432D01*
X874179Y469517D01*
X874183Y469558D01*
X874190Y469580D01*
X874189Y469612D01*
X874197Y469683D01*
X874197Y481368D01*
X876355Y483526D01*
X884934Y492105D01*
X884987Y492179D01*
X885047Y492248D01*
X885059Y492279D01*
X885078Y492305D01*
X885105Y492392D01*
X885139Y492477D01*
X885143Y492518D01*
X885150Y492540D01*
X885149Y492572D01*
X885157Y492643D01*
X885157Y495463D01*
X886472Y498637D01*
X888902Y501067D01*
X892076Y502382D01*
X907704Y502382D01*
X910878Y501067D01*
X913308Y498637D01*
X914623Y495463D01*
X914623Y492027D01*
X913308Y488853D01*
X910878Y486423D01*
X907704Y485108D01*
X892076Y485108D01*
X889154Y486319D01*
X889040Y486345D01*
X888927Y486374D01*
X888921Y486373D01*
X888914Y486375D01*
X888798Y486364D01*
X888682Y486355D01*
X888676Y486352D01*
X888670Y486352D01*
X888562Y486304D01*
X888455Y486258D01*
X888449Y486254D01*
X888445Y486252D01*
X888431Y486239D01*
X888324Y486154D01*
X881026Y478855D01*
X880973Y478781D01*
X880913Y478712D01*
X880901Y478681D01*
X880882Y478655D01*
X880855Y478568D01*
X880821Y478483D01*
X880817Y478442D01*
X880810Y478420D01*
X880811Y478388D01*
X880803Y478317D01*
X880803Y466632D01*
X873091Y458920D01*
X868503Y458920D01*
X868432Y458909D01*
X868360Y458907D01*
X868311Y458889D01*
X868260Y458881D01*
X868197Y458847D01*
X868129Y458822D01*
X868089Y458790D01*
X868043Y458765D01*
X867993Y458714D01*
X867937Y458669D01*
X867909Y458625D01*
X867873Y458587D01*
X867843Y458522D01*
X867804Y458462D01*
X867792Y458411D01*
X867770Y458364D01*
X867762Y458293D01*
X867744Y458223D01*
X867748Y458171D01*
X867742Y458120D01*
X867758Y458049D01*
X867763Y457978D01*
X867784Y457930D01*
X867795Y457879D01*
X867832Y457818D01*
X867860Y457752D01*
X867904Y457696D01*
X867921Y457668D01*
X867939Y457653D01*
X867964Y457621D01*
X870128Y455457D01*
X871443Y452283D01*
X871443Y448847D01*
X870128Y445673D01*
X869057Y444602D01*
X869016Y444544D01*
X868966Y444492D01*
X868944Y444445D01*
X868914Y444403D01*
X868893Y444334D01*
X868863Y444269D01*
X868857Y444217D01*
X868842Y444167D01*
X868843Y444096D01*
X868836Y444025D01*
X868847Y443974D01*
X868848Y443922D01*
X868873Y443854D01*
X868888Y443784D01*
X868914Y443739D01*
X868932Y443691D01*
X868977Y443635D01*
X869014Y443573D01*
X869054Y443539D01*
X869086Y443499D01*
X869146Y443460D01*
X869201Y443413D01*
X869249Y443394D01*
X869293Y443366D01*
X869362Y443348D01*
X869429Y443321D01*
X869500Y443313D01*
X869531Y443305D01*
X869555Y443307D01*
X869596Y443303D01*
X873317Y443303D01*
X873407Y443317D01*
X873498Y443325D01*
X873527Y443337D01*
X873559Y443342D01*
X873640Y443385D01*
X873724Y443421D01*
X873756Y443447D01*
X873777Y443458D01*
X873799Y443481D01*
X873855Y443526D01*
X876474Y446145D01*
X876527Y446219D01*
X876587Y446288D01*
X876599Y446319D01*
X876618Y446345D01*
X876645Y446432D01*
X876679Y446517D01*
X876683Y446558D01*
X876690Y446580D01*
X876689Y446612D01*
X876697Y446683D01*
X876697Y458868D01*
X878855Y461026D01*
X885708Y467879D01*
X885776Y467973D01*
X885846Y468068D01*
X885848Y468074D01*
X885852Y468079D01*
X885886Y468190D01*
X885922Y468301D01*
X885922Y468308D01*
X885924Y468314D01*
X885921Y468431D01*
X885920Y468547D01*
X885918Y468555D01*
X885918Y468560D01*
X885911Y468577D01*
X885873Y468709D01*
X885157Y470437D01*
X885157Y473873D01*
X886472Y477047D01*
X888902Y479477D01*
X892076Y480792D01*
X907704Y480792D01*
X910878Y479477D01*
X913308Y477047D01*
X914623Y473873D01*
X914623Y470437D01*
X913308Y467263D01*
X910878Y464833D01*
X907704Y463518D01*
X892076Y463518D01*
X891565Y463730D01*
X891452Y463756D01*
X891338Y463785D01*
X891332Y463785D01*
X891326Y463786D01*
X891209Y463775D01*
X891093Y463766D01*
X891087Y463764D01*
X891081Y463763D01*
X890973Y463715D01*
X890867Y463670D01*
X890861Y463665D01*
X890856Y463663D01*
X890842Y463650D01*
X890736Y463565D01*
X883526Y456355D01*
X883473Y456281D01*
X883413Y456212D01*
X883401Y456181D01*
X883382Y456155D01*
X883355Y456068D01*
X883321Y455983D01*
X883317Y455942D01*
X883310Y455920D01*
X883311Y455888D01*
X883303Y455817D01*
X883303Y443632D01*
X876368Y436697D01*
X869136Y436697D01*
X869065Y436686D01*
X868993Y436684D01*
X868944Y436666D01*
X868893Y436658D01*
X868830Y436624D01*
X868762Y436599D01*
X868722Y436567D01*
X868676Y436542D01*
X868626Y436490D01*
X868570Y436446D01*
X868542Y436402D01*
X868506Y436364D01*
X868476Y436299D01*
X868437Y436239D01*
X868425Y436188D01*
X868403Y436141D01*
X868395Y436070D01*
X868377Y436000D01*
X868381Y435948D01*
X868376Y435897D01*
X868391Y435826D01*
X868396Y435755D01*
X868417Y435707D01*
X868428Y435656D01*
X868465Y435595D01*
X868493Y435529D01*
X868537Y435473D01*
X868554Y435445D01*
X868572Y435430D01*
X868597Y435398D01*
X870128Y433867D01*
X871443Y430693D01*
X871443Y427257D01*
X870128Y424083D01*
X867698Y421653D01*
X864524Y420338D01*
X848896Y420338D01*
G37*
%LPD*%
%LPC*%
G36*
X367863Y599284D02*
X367863Y599284D01*
X365762Y600154D01*
X364154Y601762D01*
X363284Y603863D01*
X363284Y606137D01*
X364154Y608238D01*
X365762Y609846D01*
X366564Y610178D01*
X366664Y610239D01*
X366764Y610299D01*
X366768Y610304D01*
X366773Y610307D01*
X366848Y610397D01*
X366924Y610486D01*
X366926Y610492D01*
X366930Y610497D01*
X366972Y610605D01*
X367016Y610714D01*
X367017Y610722D01*
X367018Y610726D01*
X367019Y610745D01*
X367034Y610881D01*
X367034Y613126D01*
X367904Y615227D01*
X369512Y616835D01*
X371613Y617705D01*
X373887Y617705D01*
X375988Y616835D01*
X377596Y615227D01*
X377772Y614801D01*
X377806Y614746D01*
X377832Y614685D01*
X377884Y614620D01*
X377901Y614592D01*
X377916Y614580D01*
X377937Y614554D01*
X378592Y613899D01*
X378667Y613845D01*
X378736Y613786D01*
X378766Y613774D01*
X378792Y613755D01*
X378879Y613728D01*
X378964Y613694D01*
X379005Y613690D01*
X379027Y613683D01*
X379059Y613684D01*
X379131Y613676D01*
X417344Y613676D01*
X417389Y613683D01*
X417435Y613681D01*
X417510Y613703D01*
X417587Y613715D01*
X417627Y613737D01*
X417671Y613750D01*
X417735Y613794D01*
X417804Y613831D01*
X417836Y613864D01*
X417873Y613890D01*
X417920Y613953D01*
X417973Y614009D01*
X417993Y614051D01*
X418020Y614087D01*
X418044Y614161D01*
X418077Y614232D01*
X418082Y614278D01*
X418096Y614321D01*
X418096Y614399D01*
X418104Y614476D01*
X418094Y614521D01*
X418094Y614567D01*
X418056Y614698D01*
X418052Y614717D01*
X418049Y614721D01*
X418047Y614728D01*
X417784Y615363D01*
X417784Y616135D01*
X417781Y616155D01*
X417783Y616174D01*
X417761Y616276D01*
X417745Y616378D01*
X417735Y616395D01*
X417731Y616415D01*
X417678Y616504D01*
X417629Y616595D01*
X417615Y616609D01*
X417605Y616626D01*
X417526Y616693D01*
X417451Y616765D01*
X417433Y616773D01*
X417418Y616786D01*
X417322Y616825D01*
X417228Y616868D01*
X417208Y616870D01*
X417190Y616878D01*
X417023Y616896D01*
X416863Y616896D01*
X414762Y617766D01*
X413154Y619374D01*
X412284Y621475D01*
X412284Y623749D01*
X413154Y625850D01*
X414762Y627458D01*
X416863Y628328D01*
X419137Y628328D01*
X421238Y627458D01*
X422868Y625828D01*
X422942Y625775D01*
X423011Y625715D01*
X423041Y625703D01*
X423067Y625684D01*
X423154Y625657D01*
X423239Y625623D01*
X423280Y625619D01*
X423302Y625612D01*
X423335Y625613D01*
X423406Y625605D01*
X445706Y625605D01*
X445796Y625619D01*
X445887Y625627D01*
X445917Y625639D01*
X445949Y625644D01*
X446030Y625687D01*
X446113Y625723D01*
X446146Y625749D01*
X446166Y625760D01*
X446188Y625783D01*
X446244Y625828D01*
X447691Y627275D01*
X449792Y628145D01*
X452066Y628145D01*
X454167Y627275D01*
X455775Y625667D01*
X456645Y623566D01*
X456645Y622477D01*
X456648Y622457D01*
X456646Y622438D01*
X456668Y622336D01*
X456684Y622234D01*
X456694Y622217D01*
X456698Y622197D01*
X456751Y622108D01*
X456800Y622017D01*
X456814Y622003D01*
X456824Y621986D01*
X456903Y621919D01*
X456978Y621847D01*
X456996Y621839D01*
X457011Y621826D01*
X457107Y621787D01*
X457201Y621744D01*
X457221Y621742D01*
X457239Y621734D01*
X457406Y621716D01*
X459137Y621716D01*
X461238Y620846D01*
X462846Y619238D01*
X463716Y617137D01*
X463716Y614863D01*
X462846Y612762D01*
X461622Y611538D01*
X461610Y611522D01*
X461594Y611510D01*
X461538Y611422D01*
X461478Y611339D01*
X461472Y611320D01*
X461461Y611303D01*
X461436Y611202D01*
X461406Y611103D01*
X461406Y611084D01*
X461401Y611064D01*
X461409Y610961D01*
X461412Y610858D01*
X461419Y610839D01*
X461420Y610819D01*
X461461Y610724D01*
X461496Y610627D01*
X461509Y610611D01*
X461517Y610593D01*
X461622Y610462D01*
X462846Y609238D01*
X463716Y607137D01*
X463716Y604863D01*
X462846Y602762D01*
X461238Y601154D01*
X459137Y600284D01*
X456863Y600284D01*
X454762Y601154D01*
X453815Y602101D01*
X453741Y602154D01*
X453672Y602214D01*
X453642Y602226D01*
X453616Y602245D01*
X453529Y602272D01*
X453444Y602306D01*
X453403Y602310D01*
X453381Y602317D01*
X453348Y602316D01*
X453277Y602324D01*
X374587Y602324D01*
X374472Y602306D01*
X374356Y602288D01*
X374350Y602286D01*
X374344Y602285D01*
X374242Y602230D01*
X374137Y602177D01*
X374132Y602172D01*
X374127Y602169D01*
X374047Y602085D01*
X373965Y602001D01*
X373961Y601995D01*
X373957Y601991D01*
X373950Y601974D01*
X373884Y601854D01*
X373846Y601762D01*
X372238Y600154D01*
X370137Y599284D01*
X367863Y599284D01*
G37*
%LPD*%
%LPC*%
G36*
X256363Y623784D02*
X256363Y623784D01*
X254262Y624654D01*
X252654Y626262D01*
X251784Y628363D01*
X251784Y630637D01*
X252654Y632738D01*
X254262Y634346D01*
X256363Y635216D01*
X258637Y635216D01*
X258804Y635147D01*
X258867Y635132D01*
X258928Y635107D01*
X259011Y635098D01*
X259043Y635091D01*
X259062Y635092D01*
X259095Y635089D01*
X384698Y635089D01*
X384763Y635099D01*
X384828Y635100D01*
X384908Y635123D01*
X384941Y635128D01*
X384958Y635138D01*
X384989Y635147D01*
X386363Y635716D01*
X388637Y635716D01*
X390738Y634846D01*
X392346Y633238D01*
X393216Y631137D01*
X393216Y628863D01*
X392346Y626762D01*
X390738Y625154D01*
X390571Y625085D01*
X390515Y625051D01*
X390455Y625025D01*
X390390Y624973D01*
X390362Y624956D01*
X390350Y624941D01*
X390324Y624920D01*
X390166Y624762D01*
X388112Y623911D01*
X259095Y623911D01*
X259030Y623901D01*
X258965Y623900D01*
X258885Y623877D01*
X258852Y623872D01*
X258835Y623862D01*
X258804Y623853D01*
X258637Y623784D01*
X256363Y623784D01*
G37*
%LPD*%
%LPC*%
G36*
X848896Y269208D02*
X848896Y269208D01*
X845722Y270523D01*
X843292Y272953D01*
X842828Y274072D01*
X842767Y274172D01*
X842707Y274272D01*
X842702Y274276D01*
X842699Y274281D01*
X842609Y274356D01*
X842520Y274432D01*
X842514Y274434D01*
X842509Y274438D01*
X842401Y274480D01*
X842292Y274524D01*
X842284Y274525D01*
X842280Y274526D01*
X842261Y274527D01*
X842125Y274542D01*
X838287Y274542D01*
X818855Y293974D01*
X818781Y294027D01*
X818712Y294087D01*
X818681Y294099D01*
X818655Y294118D01*
X818568Y294145D01*
X818483Y294179D01*
X818442Y294183D01*
X818420Y294190D01*
X818388Y294189D01*
X818317Y294197D01*
X815096Y294197D01*
X815006Y294183D01*
X814915Y294175D01*
X814885Y294163D01*
X814853Y294158D01*
X814772Y294115D01*
X814689Y294079D01*
X814656Y294053D01*
X814636Y294042D01*
X814614Y294019D01*
X814558Y293974D01*
X813238Y292654D01*
X811137Y291784D01*
X808863Y291784D01*
X806762Y292654D01*
X805154Y294262D01*
X804284Y296363D01*
X804284Y298637D01*
X805154Y300738D01*
X806378Y301962D01*
X806390Y301978D01*
X806406Y301990D01*
X806462Y302078D01*
X806522Y302161D01*
X806528Y302180D01*
X806539Y302197D01*
X806564Y302298D01*
X806594Y302397D01*
X806594Y302416D01*
X806599Y302436D01*
X806591Y302539D01*
X806588Y302642D01*
X806581Y302661D01*
X806580Y302681D01*
X806539Y302776D01*
X806504Y302873D01*
X806491Y302889D01*
X806483Y302907D01*
X806378Y303038D01*
X805154Y304262D01*
X804284Y306363D01*
X804284Y308637D01*
X805154Y310738D01*
X806762Y312346D01*
X808863Y313216D01*
X811137Y313216D01*
X813238Y312346D01*
X814558Y311026D01*
X814632Y310973D01*
X814701Y310913D01*
X814731Y310901D01*
X814757Y310882D01*
X814844Y310855D01*
X814929Y310821D01*
X814970Y310817D01*
X814992Y310810D01*
X815025Y310811D01*
X815096Y310803D01*
X833868Y310803D01*
X841623Y303048D01*
X841660Y303021D01*
X841691Y302987D01*
X841760Y302950D01*
X841823Y302904D01*
X841866Y302891D01*
X841907Y302869D01*
X841983Y302855D01*
X842058Y302832D01*
X842104Y302833D01*
X842149Y302825D01*
X842226Y302836D01*
X842304Y302838D01*
X842347Y302854D01*
X842392Y302861D01*
X842461Y302896D01*
X842535Y302923D01*
X842570Y302951D01*
X842611Y302972D01*
X842666Y303028D01*
X842727Y303077D01*
X842751Y303115D01*
X842784Y303148D01*
X842850Y303268D01*
X842860Y303283D01*
X842861Y303288D01*
X842864Y303295D01*
X843292Y304327D01*
X845722Y306757D01*
X848896Y308072D01*
X864524Y308072D01*
X867698Y306757D01*
X870128Y304327D01*
X871443Y301153D01*
X871443Y297717D01*
X870128Y294543D01*
X867698Y292113D01*
X864524Y290798D01*
X848896Y290798D01*
X845722Y292113D01*
X843292Y294543D01*
X842828Y295662D01*
X842767Y295762D01*
X842707Y295862D01*
X842702Y295866D01*
X842699Y295871D01*
X842609Y295946D01*
X842520Y296022D01*
X842514Y296024D01*
X842509Y296028D01*
X842401Y296070D01*
X842292Y296114D01*
X842284Y296115D01*
X842280Y296116D01*
X842261Y296117D01*
X842125Y296132D01*
X839197Y296132D01*
X831355Y303974D01*
X831281Y304027D01*
X831212Y304087D01*
X831181Y304099D01*
X831155Y304118D01*
X831068Y304145D01*
X830983Y304179D01*
X830942Y304183D01*
X830920Y304190D01*
X830888Y304189D01*
X830817Y304197D01*
X815096Y304197D01*
X815006Y304183D01*
X814915Y304175D01*
X814885Y304163D01*
X814853Y304158D01*
X814772Y304115D01*
X814689Y304079D01*
X814656Y304053D01*
X814636Y304042D01*
X814614Y304019D01*
X814611Y304017D01*
X814610Y304016D01*
X814608Y304015D01*
X814558Y303974D01*
X813622Y303038D01*
X813610Y303022D01*
X813594Y303010D01*
X813538Y302922D01*
X813478Y302839D01*
X813472Y302820D01*
X813461Y302803D01*
X813436Y302702D01*
X813406Y302603D01*
X813406Y302584D01*
X813401Y302564D01*
X813409Y302461D01*
X813412Y302358D01*
X813419Y302339D01*
X813420Y302319D01*
X813461Y302224D01*
X813496Y302127D01*
X813509Y302111D01*
X813517Y302093D01*
X813622Y301962D01*
X814558Y301026D01*
X814632Y300973D01*
X814701Y300913D01*
X814731Y300901D01*
X814757Y300882D01*
X814844Y300855D01*
X814929Y300821D01*
X814970Y300817D01*
X814992Y300810D01*
X815025Y300811D01*
X815096Y300803D01*
X821368Y300803D01*
X840800Y281371D01*
X840874Y281318D01*
X840943Y281258D01*
X840974Y281246D01*
X841000Y281227D01*
X841087Y281200D01*
X841172Y281166D01*
X841213Y281162D01*
X841235Y281155D01*
X841267Y281156D01*
X841338Y281148D01*
X842125Y281148D01*
X842240Y281167D01*
X842356Y281184D01*
X842362Y281186D01*
X842368Y281187D01*
X842470Y281242D01*
X842575Y281295D01*
X842580Y281300D01*
X842585Y281303D01*
X842665Y281387D01*
X842747Y281471D01*
X842751Y281477D01*
X842755Y281481D01*
X842762Y281498D01*
X842828Y281618D01*
X843292Y282737D01*
X845722Y285167D01*
X848896Y286482D01*
X864524Y286482D01*
X867698Y285167D01*
X870128Y282737D01*
X871443Y279563D01*
X871443Y276127D01*
X870128Y272953D01*
X867698Y270523D01*
X864524Y269208D01*
X848896Y269208D01*
G37*
%LPD*%
%LPC*%
G36*
X518863Y541784D02*
X518863Y541784D01*
X516762Y542654D01*
X515154Y544262D01*
X514284Y546363D01*
X514284Y548409D01*
X514270Y548499D01*
X514262Y548590D01*
X514250Y548620D01*
X514245Y548652D01*
X514202Y548733D01*
X514166Y548817D01*
X514140Y548849D01*
X514129Y548869D01*
X514106Y548892D01*
X514061Y548948D01*
X507324Y555685D01*
X507324Y633023D01*
X507321Y633043D01*
X507323Y633062D01*
X507301Y633164D01*
X507285Y633266D01*
X507275Y633283D01*
X507271Y633303D01*
X507218Y633392D01*
X507169Y633483D01*
X507155Y633497D01*
X507145Y633514D01*
X507066Y633581D01*
X506991Y633653D01*
X506973Y633661D01*
X506958Y633674D01*
X506862Y633713D01*
X506768Y633756D01*
X506748Y633758D01*
X506730Y633766D01*
X506563Y633784D01*
X504863Y633784D01*
X502762Y634654D01*
X501154Y636262D01*
X500284Y638363D01*
X500284Y640637D01*
X501154Y642738D01*
X502172Y643756D01*
X502184Y643772D01*
X502200Y643784D01*
X502256Y643872D01*
X502316Y643955D01*
X502322Y643974D01*
X502333Y643991D01*
X502358Y644092D01*
X502388Y644191D01*
X502388Y644210D01*
X502393Y644230D01*
X502385Y644333D01*
X502382Y644436D01*
X502375Y644455D01*
X502374Y644475D01*
X502333Y644570D01*
X502298Y644667D01*
X502285Y644683D01*
X502277Y644701D01*
X502172Y644832D01*
X501242Y645762D01*
X500372Y647863D01*
X500372Y650137D01*
X501242Y652238D01*
X502850Y653846D01*
X504951Y654716D01*
X507225Y654716D01*
X509326Y653846D01*
X510934Y652238D01*
X511804Y650137D01*
X511804Y648091D01*
X511818Y648001D01*
X511826Y647910D01*
X511838Y647880D01*
X511843Y647848D01*
X511886Y647767D01*
X511922Y647683D01*
X511948Y647651D01*
X511959Y647631D01*
X511982Y647608D01*
X512027Y647552D01*
X516764Y642815D01*
X516764Y565543D01*
X516778Y565453D01*
X516786Y565362D01*
X516798Y565332D01*
X516803Y565300D01*
X516846Y565219D01*
X516882Y565135D01*
X516908Y565103D01*
X516919Y565083D01*
X516942Y565060D01*
X516987Y565004D01*
X528552Y553439D01*
X528626Y553386D01*
X528696Y553326D01*
X528726Y553314D01*
X528752Y553295D01*
X528839Y553268D01*
X528924Y553234D01*
X528965Y553230D01*
X528987Y553223D01*
X529019Y553224D01*
X529091Y553216D01*
X531137Y553216D01*
X533238Y552346D01*
X534846Y550738D01*
X535716Y548637D01*
X535716Y546363D01*
X534846Y544262D01*
X533238Y542654D01*
X531137Y541784D01*
X528863Y541784D01*
X526762Y542654D01*
X525538Y543878D01*
X525522Y543890D01*
X525510Y543906D01*
X525422Y543962D01*
X525339Y544022D01*
X525320Y544028D01*
X525303Y544039D01*
X525202Y544064D01*
X525103Y544094D01*
X525084Y544094D01*
X525064Y544099D01*
X524961Y544091D01*
X524858Y544088D01*
X524839Y544081D01*
X524819Y544080D01*
X524724Y544039D01*
X524627Y544004D01*
X524611Y543991D01*
X524593Y543983D01*
X524462Y543878D01*
X523238Y542654D01*
X521137Y541784D01*
X518863Y541784D01*
G37*
%LPD*%
%LPC*%
G36*
X951523Y701523D02*
X951523Y701523D01*
X951523Y734291D01*
X951685Y734291D01*
X955038Y733960D01*
X958342Y733303D01*
X961566Y732325D01*
X964679Y731036D01*
X967650Y729448D01*
X970452Y727576D01*
X973056Y725438D01*
X975438Y723056D01*
X977576Y720452D01*
X979448Y717650D01*
X981036Y714679D01*
X982325Y711566D01*
X983303Y708342D01*
X983960Y705038D01*
X984291Y701685D01*
X984291Y701523D01*
X951523Y701523D01*
G37*
%LPD*%
%LPC*%
G36*
X51523Y701523D02*
X51523Y701523D01*
X51523Y734291D01*
X51685Y734291D01*
X55038Y733960D01*
X58342Y733303D01*
X61566Y732325D01*
X64679Y731036D01*
X67650Y729448D01*
X70452Y727576D01*
X73056Y725438D01*
X75438Y723056D01*
X77576Y720452D01*
X79448Y717650D01*
X81036Y714679D01*
X82325Y711566D01*
X83303Y708342D01*
X83960Y705038D01*
X84291Y701685D01*
X84291Y701523D01*
X51523Y701523D01*
G37*
%LPD*%
%LPC*%
G36*
X51523Y51523D02*
X51523Y51523D01*
X51523Y84291D01*
X51685Y84291D01*
X55038Y83960D01*
X58342Y83303D01*
X61566Y82325D01*
X64679Y81036D01*
X67650Y79448D01*
X70452Y77576D01*
X73056Y75438D01*
X75438Y73056D01*
X77576Y70452D01*
X79448Y67650D01*
X81036Y64679D01*
X82325Y61566D01*
X83303Y58342D01*
X83960Y55038D01*
X84291Y51685D01*
X84291Y51523D01*
X51523Y51523D01*
G37*
%LPD*%
%LPC*%
G36*
X951523Y51523D02*
X951523Y51523D01*
X951523Y84291D01*
X951685Y84291D01*
X955038Y83960D01*
X958342Y83303D01*
X961566Y82325D01*
X964679Y81036D01*
X967650Y79448D01*
X970452Y77576D01*
X973056Y75438D01*
X975438Y73056D01*
X977576Y70452D01*
X979448Y67650D01*
X981036Y64679D01*
X982325Y61566D01*
X983303Y58342D01*
X983960Y55038D01*
X984291Y51685D01*
X984291Y51523D01*
X951523Y51523D01*
G37*
%LPD*%
%LPC*%
G36*
X51523Y15709D02*
X51523Y15709D01*
X51523Y48477D01*
X84291Y48477D01*
X84291Y48315D01*
X83960Y44962D01*
X83303Y41658D01*
X82325Y38434D01*
X81036Y35321D01*
X79448Y32350D01*
X77576Y29548D01*
X75438Y26944D01*
X73056Y24562D01*
X70452Y22424D01*
X67650Y20552D01*
X64679Y18964D01*
X61566Y17675D01*
X58342Y16697D01*
X55038Y16040D01*
X51685Y15709D01*
X51523Y15709D01*
G37*
%LPD*%
%LPC*%
G36*
X915709Y51523D02*
X915709Y51523D01*
X915709Y51685D01*
X916040Y55038D01*
X916697Y58342D01*
X917675Y61566D01*
X918964Y64679D01*
X920552Y67650D01*
X922424Y70452D01*
X924562Y73056D01*
X926944Y75438D01*
X929548Y77576D01*
X932350Y79448D01*
X935321Y81036D01*
X938434Y82325D01*
X941658Y83303D01*
X944962Y83960D01*
X948315Y84291D01*
X948477Y84291D01*
X948477Y51523D01*
X915709Y51523D01*
G37*
%LPD*%
%LPC*%
G36*
X951523Y15709D02*
X951523Y15709D01*
X951523Y48477D01*
X984291Y48477D01*
X984291Y48315D01*
X983960Y44962D01*
X983303Y41658D01*
X982325Y38434D01*
X981036Y35321D01*
X979448Y32350D01*
X977576Y29548D01*
X975438Y26944D01*
X973056Y24562D01*
X970452Y22424D01*
X967650Y20552D01*
X964679Y18964D01*
X961566Y17675D01*
X958342Y16697D01*
X955038Y16040D01*
X951685Y15709D01*
X951523Y15709D01*
G37*
%LPD*%
%LPC*%
G36*
X15709Y51523D02*
X15709Y51523D01*
X15709Y51685D01*
X16040Y55038D01*
X16697Y58342D01*
X17675Y61566D01*
X18964Y64679D01*
X20552Y67650D01*
X22424Y70452D01*
X24562Y73056D01*
X26944Y75438D01*
X29548Y77576D01*
X32350Y79448D01*
X35321Y81036D01*
X38434Y82325D01*
X41658Y83303D01*
X44962Y83960D01*
X48315Y84291D01*
X48477Y84291D01*
X48477Y51523D01*
X15709Y51523D01*
G37*
%LPD*%
%LPC*%
G36*
X915709Y701523D02*
X915709Y701523D01*
X915709Y701685D01*
X916040Y705038D01*
X916697Y708342D01*
X917675Y711566D01*
X918964Y714679D01*
X920552Y717650D01*
X922424Y720452D01*
X924562Y723056D01*
X926944Y725438D01*
X929548Y727576D01*
X932350Y729448D01*
X935321Y731036D01*
X938434Y732325D01*
X941658Y733303D01*
X944962Y733960D01*
X948315Y734291D01*
X948477Y734291D01*
X948477Y701523D01*
X915709Y701523D01*
G37*
%LPD*%
%LPC*%
G36*
X15709Y701523D02*
X15709Y701523D01*
X15709Y701685D01*
X16040Y705038D01*
X16697Y708342D01*
X17675Y711566D01*
X18964Y714679D01*
X20552Y717650D01*
X22424Y720452D01*
X24562Y723056D01*
X26944Y725438D01*
X29548Y727576D01*
X32350Y729448D01*
X35321Y731036D01*
X38434Y732325D01*
X41658Y733303D01*
X44962Y733960D01*
X48315Y734291D01*
X48477Y734291D01*
X48477Y701523D01*
X15709Y701523D01*
G37*
%LPD*%
%LPC*%
G36*
X51523Y665709D02*
X51523Y665709D01*
X51523Y698477D01*
X84291Y698477D01*
X84291Y698315D01*
X83960Y694962D01*
X83303Y691658D01*
X82325Y688434D01*
X81036Y685321D01*
X79448Y682350D01*
X77576Y679548D01*
X75438Y676944D01*
X73056Y674562D01*
X70452Y672424D01*
X67650Y670552D01*
X64679Y668964D01*
X61566Y667675D01*
X58342Y666697D01*
X55038Y666040D01*
X51685Y665709D01*
X51523Y665709D01*
G37*
%LPD*%
%LPC*%
G36*
X951523Y665709D02*
X951523Y665709D01*
X951523Y698477D01*
X984291Y698477D01*
X984291Y698315D01*
X983960Y694962D01*
X983303Y691658D01*
X982325Y688434D01*
X981036Y685321D01*
X979448Y682350D01*
X977576Y679548D01*
X975438Y676944D01*
X973056Y674562D01*
X970452Y672424D01*
X967650Y670552D01*
X964679Y668964D01*
X961566Y667675D01*
X958342Y666697D01*
X955038Y666040D01*
X951685Y665709D01*
X951523Y665709D01*
G37*
%LPD*%
%LPC*%
G36*
X948315Y15709D02*
X948315Y15709D01*
X944962Y16040D01*
X941658Y16697D01*
X938434Y17675D01*
X935321Y18964D01*
X932350Y20552D01*
X929548Y22424D01*
X926944Y24562D01*
X924562Y26944D01*
X922424Y29548D01*
X920552Y32350D01*
X918964Y35321D01*
X917675Y38434D01*
X916697Y41658D01*
X916040Y44962D01*
X915709Y48315D01*
X915709Y48477D01*
X948477Y48477D01*
X948477Y15709D01*
X948315Y15709D01*
G37*
%LPD*%
%LPC*%
G36*
X948315Y665709D02*
X948315Y665709D01*
X944962Y666040D01*
X941658Y666697D01*
X938434Y667675D01*
X935321Y668964D01*
X932350Y670552D01*
X929548Y672424D01*
X926944Y674562D01*
X924562Y676944D01*
X922424Y679548D01*
X920552Y682350D01*
X918964Y685321D01*
X917675Y688434D01*
X916697Y691658D01*
X916040Y694962D01*
X915709Y698315D01*
X915709Y698477D01*
X948477Y698477D01*
X948477Y665709D01*
X948315Y665709D01*
G37*
%LPD*%
%LPC*%
G36*
X48315Y665709D02*
X48315Y665709D01*
X44962Y666040D01*
X41658Y666697D01*
X38434Y667675D01*
X35321Y668964D01*
X32350Y670552D01*
X29548Y672424D01*
X26944Y674562D01*
X24562Y676944D01*
X22424Y679548D01*
X20552Y682350D01*
X18964Y685321D01*
X17675Y688434D01*
X16697Y691658D01*
X16040Y694962D01*
X15709Y698315D01*
X15709Y698477D01*
X48477Y698477D01*
X48477Y665709D01*
X48315Y665709D01*
G37*
%LPD*%
%LPC*%
G36*
X48315Y15709D02*
X48315Y15709D01*
X44962Y16040D01*
X41658Y16697D01*
X38434Y17675D01*
X35321Y18964D01*
X32350Y20552D01*
X29548Y22424D01*
X26944Y24562D01*
X24562Y26944D01*
X22424Y29548D01*
X20552Y32350D01*
X18964Y35321D01*
X17675Y38434D01*
X16697Y41658D01*
X16040Y44962D01*
X15709Y48315D01*
X15709Y48477D01*
X48477Y48477D01*
X48477Y15709D01*
X48315Y15709D01*
G37*
%LPD*%
%LPC*%
G36*
X879823Y610457D02*
X879823Y610457D01*
X879823Y640685D01*
X879860Y640685D01*
X882964Y640379D01*
X886024Y639770D01*
X889009Y638865D01*
X891892Y637671D01*
X894643Y636200D01*
X897237Y634467D01*
X899648Y632488D01*
X901854Y630282D01*
X903833Y627871D01*
X905566Y625277D01*
X907037Y622526D01*
X908231Y619643D01*
X909136Y616658D01*
X909745Y613598D01*
X910051Y610494D01*
X910051Y610457D01*
X879823Y610457D01*
G37*
%LPD*%
%LPC*%
G36*
X879823Y142589D02*
X879823Y142589D01*
X879823Y172817D01*
X879860Y172817D01*
X882964Y172511D01*
X886024Y171902D01*
X889009Y170997D01*
X891892Y169803D01*
X894643Y168332D01*
X897237Y166599D01*
X899648Y164620D01*
X901854Y162414D01*
X903833Y160003D01*
X905566Y157409D01*
X907037Y154658D01*
X908231Y151775D01*
X909136Y148790D01*
X909745Y145730D01*
X910051Y142626D01*
X910051Y142589D01*
X879823Y142589D01*
G37*
%LPD*%
%LPC*%
G36*
X879823Y577183D02*
X879823Y577183D01*
X879823Y607411D01*
X910051Y607411D01*
X910051Y607374D01*
X909745Y604270D01*
X909136Y601210D01*
X908231Y598225D01*
X907037Y595342D01*
X905566Y592591D01*
X903833Y589997D01*
X901854Y587586D01*
X899648Y585380D01*
X897237Y583401D01*
X894643Y581668D01*
X891892Y580197D01*
X889009Y579003D01*
X886024Y578098D01*
X882964Y577489D01*
X879860Y577183D01*
X879823Y577183D01*
G37*
%LPD*%
%LPC*%
G36*
X846549Y142589D02*
X846549Y142589D01*
X846549Y142626D01*
X846855Y145730D01*
X847464Y148790D01*
X848369Y151775D01*
X849563Y154658D01*
X851034Y157409D01*
X852767Y160003D01*
X854746Y162414D01*
X856952Y164620D01*
X859363Y166599D01*
X861957Y168332D01*
X864708Y169803D01*
X867591Y170997D01*
X870576Y171902D01*
X873636Y172511D01*
X876740Y172817D01*
X876777Y172817D01*
X876777Y142589D01*
X846549Y142589D01*
G37*
%LPD*%
%LPC*%
G36*
X879823Y109315D02*
X879823Y109315D01*
X879823Y139543D01*
X910051Y139543D01*
X910051Y139506D01*
X909745Y136402D01*
X909136Y133342D01*
X908231Y130357D01*
X907037Y127474D01*
X905566Y124723D01*
X903833Y122129D01*
X901854Y119718D01*
X899648Y117512D01*
X897237Y115533D01*
X894643Y113800D01*
X891892Y112329D01*
X889009Y111135D01*
X886024Y110230D01*
X882964Y109621D01*
X879860Y109315D01*
X879823Y109315D01*
G37*
%LPD*%
%LPC*%
G36*
X846549Y610457D02*
X846549Y610457D01*
X846549Y610494D01*
X846855Y613598D01*
X847464Y616658D01*
X848369Y619643D01*
X849563Y622526D01*
X851034Y625277D01*
X852767Y627871D01*
X854746Y630282D01*
X856952Y632488D01*
X859363Y634467D01*
X861957Y636200D01*
X864708Y637671D01*
X867591Y638865D01*
X870576Y639770D01*
X873636Y640379D01*
X876740Y640685D01*
X876777Y640685D01*
X876777Y610457D01*
X846549Y610457D01*
G37*
%LPD*%
%LPC*%
G36*
X876740Y577183D02*
X876740Y577183D01*
X873636Y577489D01*
X870576Y578098D01*
X867591Y579003D01*
X864708Y580197D01*
X861957Y581668D01*
X859363Y583401D01*
X856952Y585380D01*
X854746Y587586D01*
X852767Y589997D01*
X851034Y592591D01*
X849563Y595342D01*
X848369Y598225D01*
X847464Y601210D01*
X846855Y604270D01*
X846549Y607374D01*
X846549Y607411D01*
X876777Y607411D01*
X876777Y577183D01*
X876740Y577183D01*
G37*
%LPD*%
%LPC*%
G36*
X876740Y109315D02*
X876740Y109315D01*
X873636Y109621D01*
X870576Y110230D01*
X867591Y111135D01*
X864708Y112329D01*
X861957Y113800D01*
X859363Y115533D01*
X856952Y117512D01*
X854746Y119718D01*
X852767Y122129D01*
X851034Y124723D01*
X849563Y127474D01*
X848369Y130357D01*
X847464Y133342D01*
X846855Y136402D01*
X846549Y139506D01*
X846549Y139543D01*
X876777Y139543D01*
X876777Y109315D01*
X876740Y109315D01*
G37*
%LPD*%
%LPC*%
G36*
X892076Y441928D02*
X892076Y441928D01*
X888902Y443243D01*
X886472Y445673D01*
X885157Y448847D01*
X885157Y452283D01*
X886472Y455457D01*
X888902Y457887D01*
X892076Y459202D01*
X907704Y459202D01*
X910878Y457887D01*
X913308Y455457D01*
X913772Y454338D01*
X913833Y454238D01*
X913893Y454138D01*
X913898Y454134D01*
X913901Y454129D01*
X913991Y454054D01*
X914080Y453978D01*
X914086Y453976D01*
X914091Y453972D01*
X914199Y453930D01*
X914308Y453886D01*
X914316Y453885D01*
X914320Y453884D01*
X914339Y453883D01*
X914475Y453868D01*
X927123Y453868D01*
X927213Y453882D01*
X927304Y453890D01*
X927334Y453902D01*
X927366Y453907D01*
X927447Y453950D01*
X927531Y453986D01*
X927563Y454012D01*
X927583Y454023D01*
X927606Y454046D01*
X927662Y454091D01*
X928850Y455279D01*
X930894Y456126D01*
X933106Y456126D01*
X935150Y455279D01*
X936714Y453715D01*
X937561Y451671D01*
X937561Y449459D01*
X936714Y447415D01*
X935150Y445851D01*
X933106Y445004D01*
X930894Y445004D01*
X928850Y445851D01*
X927662Y447039D01*
X927588Y447092D01*
X927518Y447152D01*
X927488Y447164D01*
X927462Y447183D01*
X927375Y447210D01*
X927290Y447244D01*
X927249Y447248D01*
X927227Y447255D01*
X927195Y447254D01*
X927123Y447262D01*
X914475Y447262D01*
X914360Y447243D01*
X914244Y447226D01*
X914238Y447224D01*
X914232Y447223D01*
X914130Y447168D01*
X914025Y447115D01*
X914020Y447110D01*
X914015Y447107D01*
X913935Y447023D01*
X913853Y446939D01*
X913849Y446933D01*
X913845Y446929D01*
X913838Y446912D01*
X913772Y446792D01*
X913308Y445673D01*
X910878Y443243D01*
X907704Y441928D01*
X892076Y441928D01*
G37*
%LPD*%
%LPC*%
G36*
X637625Y410561D02*
X637625Y410561D01*
X633237Y412379D01*
X629879Y415737D01*
X628061Y420125D01*
X628061Y424875D01*
X629879Y429263D01*
X633237Y432621D01*
X637625Y434439D01*
X642375Y434439D01*
X646763Y432621D01*
X650121Y429263D01*
X651228Y426590D01*
X651290Y426490D01*
X651350Y426390D01*
X651355Y426386D01*
X651358Y426381D01*
X651448Y426306D01*
X651537Y426230D01*
X651543Y426228D01*
X651548Y426224D01*
X651656Y426182D01*
X651765Y426138D01*
X651773Y426137D01*
X651777Y426136D01*
X651795Y426135D01*
X651932Y426120D01*
X660643Y426120D01*
X660733Y426134D01*
X660824Y426142D01*
X660854Y426154D01*
X660886Y426159D01*
X660967Y426202D01*
X661050Y426238D01*
X661083Y426264D01*
X661103Y426275D01*
X661125Y426298D01*
X661181Y426343D01*
X662374Y427536D01*
X664475Y428406D01*
X666749Y428406D01*
X668850Y427536D01*
X670458Y425928D01*
X671328Y423827D01*
X671328Y421553D01*
X670458Y419452D01*
X668850Y417844D01*
X666749Y416974D01*
X664475Y416974D01*
X662374Y417844D01*
X661181Y419037D01*
X661107Y419090D01*
X661038Y419150D01*
X661008Y419162D01*
X660982Y419181D01*
X660895Y419208D01*
X660810Y419242D01*
X660769Y419246D01*
X660747Y419253D01*
X660714Y419252D01*
X660643Y419260D01*
X652089Y419260D01*
X651974Y419241D01*
X651858Y419224D01*
X651853Y419222D01*
X651846Y419221D01*
X651744Y419166D01*
X651639Y419113D01*
X651634Y419108D01*
X651629Y419105D01*
X651549Y419021D01*
X651467Y418937D01*
X651463Y418931D01*
X651460Y418927D01*
X651452Y418910D01*
X651386Y418790D01*
X650121Y415737D01*
X646763Y412379D01*
X642375Y410561D01*
X637625Y410561D01*
G37*
%LPD*%
%LPC*%
G36*
X637625Y435961D02*
X637625Y435961D01*
X633237Y437779D01*
X629879Y441137D01*
X628061Y445525D01*
X628061Y450275D01*
X629879Y454663D01*
X633237Y458021D01*
X637625Y459839D01*
X642375Y459839D01*
X646763Y458021D01*
X650121Y454663D01*
X651426Y451512D01*
X651488Y451412D01*
X651548Y451312D01*
X651553Y451308D01*
X651556Y451303D01*
X651646Y451228D01*
X651735Y451152D01*
X651741Y451150D01*
X651746Y451146D01*
X651854Y451104D01*
X651963Y451060D01*
X651971Y451059D01*
X651975Y451058D01*
X651993Y451057D01*
X652130Y451042D01*
X660031Y451042D01*
X660121Y451056D01*
X660212Y451064D01*
X660242Y451076D01*
X660274Y451081D01*
X660355Y451124D01*
X660438Y451160D01*
X660471Y451186D01*
X660491Y451197D01*
X660513Y451220D01*
X660569Y451265D01*
X662262Y452958D01*
X664363Y453828D01*
X666637Y453828D01*
X668738Y452958D01*
X670346Y451350D01*
X671216Y449249D01*
X671216Y446975D01*
X670346Y444874D01*
X668738Y443266D01*
X666637Y442396D01*
X664363Y442396D01*
X662262Y443266D01*
X661569Y443959D01*
X661495Y444012D01*
X661426Y444072D01*
X661396Y444084D01*
X661370Y444103D01*
X661283Y444130D01*
X661198Y444164D01*
X661157Y444168D01*
X661135Y444175D01*
X661102Y444174D01*
X661031Y444182D01*
X651891Y444182D01*
X651776Y444163D01*
X651660Y444146D01*
X651655Y444144D01*
X651648Y444143D01*
X651546Y444088D01*
X651441Y444035D01*
X651436Y444030D01*
X651431Y444027D01*
X651351Y443943D01*
X651269Y443859D01*
X651265Y443853D01*
X651262Y443849D01*
X651254Y443832D01*
X651188Y443712D01*
X650121Y441137D01*
X646763Y437779D01*
X642375Y435961D01*
X637625Y435961D01*
G37*
%LPD*%
%LPC*%
G36*
X658863Y229284D02*
X658863Y229284D01*
X656762Y230154D01*
X655154Y231762D01*
X654284Y233863D01*
X654284Y234523D01*
X654281Y234543D01*
X654283Y234562D01*
X654261Y234664D01*
X654245Y234766D01*
X654235Y234783D01*
X654231Y234803D01*
X654178Y234892D01*
X654129Y234983D01*
X654115Y234997D01*
X654105Y235014D01*
X654026Y235081D01*
X653951Y235153D01*
X653933Y235161D01*
X653918Y235174D01*
X653822Y235213D01*
X653728Y235256D01*
X653708Y235258D01*
X653690Y235266D01*
X653523Y235284D01*
X651363Y235284D01*
X649262Y236154D01*
X647654Y237762D01*
X646784Y239863D01*
X646784Y242137D01*
X647654Y244238D01*
X649101Y245685D01*
X649154Y245759D01*
X649214Y245828D01*
X649226Y245858D01*
X649245Y245884D01*
X649272Y245971D01*
X649306Y246056D01*
X649310Y246097D01*
X649317Y246119D01*
X649316Y246152D01*
X649324Y246223D01*
X649324Y255913D01*
X649306Y256028D01*
X649288Y256144D01*
X649286Y256150D01*
X649285Y256156D01*
X649230Y256258D01*
X649177Y256363D01*
X649172Y256368D01*
X649169Y256373D01*
X649085Y256453D01*
X649001Y256535D01*
X648995Y256539D01*
X648991Y256543D01*
X648974Y256550D01*
X648854Y256616D01*
X648762Y256654D01*
X647154Y258262D01*
X646284Y260363D01*
X646284Y262637D01*
X647154Y264738D01*
X647878Y265462D01*
X647890Y265478D01*
X647906Y265490D01*
X647962Y265578D01*
X648022Y265661D01*
X648028Y265680D01*
X648039Y265697D01*
X648064Y265798D01*
X648094Y265897D01*
X648094Y265917D01*
X648099Y265936D01*
X648091Y266039D01*
X648088Y266142D01*
X648081Y266161D01*
X648080Y266181D01*
X648039Y266276D01*
X648004Y266373D01*
X647991Y266389D01*
X647983Y266407D01*
X647878Y266538D01*
X647654Y266762D01*
X646784Y268863D01*
X646784Y271137D01*
X647654Y273238D01*
X649262Y274846D01*
X651363Y275716D01*
X653637Y275716D01*
X655738Y274846D01*
X657346Y273238D01*
X658216Y271137D01*
X658216Y269091D01*
X658230Y269001D01*
X658238Y268910D01*
X658250Y268880D01*
X658255Y268848D01*
X658298Y268767D01*
X658334Y268683D01*
X658360Y268651D01*
X658371Y268631D01*
X658394Y268608D01*
X658439Y268552D01*
X661176Y265815D01*
X661176Y241208D01*
X661195Y241094D01*
X661212Y240977D01*
X661214Y240972D01*
X661215Y240966D01*
X661270Y240863D01*
X661323Y240758D01*
X661328Y240754D01*
X661331Y240748D01*
X661415Y240668D01*
X661499Y240586D01*
X661505Y240582D01*
X661509Y240579D01*
X661526Y240571D01*
X661646Y240505D01*
X663238Y239846D01*
X664846Y238238D01*
X665716Y236137D01*
X665716Y233863D01*
X664846Y231762D01*
X663238Y230154D01*
X661137Y229284D01*
X658863Y229284D01*
G37*
%LPD*%
%LPC*%
G36*
X85794Y576699D02*
X85794Y576699D01*
X81126Y578633D01*
X77553Y582206D01*
X75619Y586874D01*
X75619Y591926D01*
X77553Y596594D01*
X81126Y600167D01*
X85794Y602101D01*
X90846Y602101D01*
X95514Y600167D01*
X99087Y596594D01*
X101021Y591926D01*
X101021Y586874D01*
X99087Y582206D01*
X95514Y578633D01*
X90846Y576699D01*
X85794Y576699D01*
G37*
%LPD*%
%LPC*%
G36*
X40074Y576699D02*
X40074Y576699D01*
X35406Y578633D01*
X31833Y582206D01*
X29899Y586874D01*
X29899Y591926D01*
X31833Y596594D01*
X35406Y600167D01*
X40074Y602101D01*
X45126Y602101D01*
X49794Y600167D01*
X53367Y596594D01*
X55301Y591926D01*
X55301Y586874D01*
X53367Y582206D01*
X49794Y578633D01*
X45126Y576699D01*
X40074Y576699D01*
G37*
%LPD*%
%LPC*%
G36*
X438863Y681784D02*
X438863Y681784D01*
X436762Y682654D01*
X435154Y684262D01*
X434859Y684976D01*
X434848Y684993D01*
X434843Y685012D01*
X434784Y685097D01*
X434729Y685185D01*
X434714Y685198D01*
X434703Y685214D01*
X434620Y685275D01*
X434540Y685342D01*
X434521Y685349D01*
X434505Y685361D01*
X434407Y685393D01*
X434310Y685430D01*
X434290Y685431D01*
X434271Y685437D01*
X434168Y685436D01*
X434064Y685440D01*
X434045Y685435D01*
X434025Y685435D01*
X433864Y685388D01*
X432137Y684672D01*
X429863Y684672D01*
X427762Y685542D01*
X426154Y687150D01*
X425284Y689251D01*
X425284Y691525D01*
X426154Y693626D01*
X427762Y695234D01*
X427854Y695272D01*
X427953Y695333D01*
X428054Y695393D01*
X428058Y695398D01*
X428063Y695401D01*
X428137Y695490D01*
X428214Y695580D01*
X428216Y695586D01*
X428220Y695591D01*
X428262Y695699D01*
X428306Y695808D01*
X428307Y695816D01*
X428308Y695820D01*
X428309Y695839D01*
X428324Y695975D01*
X428324Y698777D01*
X428310Y698867D01*
X428302Y698958D01*
X428290Y698988D01*
X428285Y699020D01*
X428242Y699101D01*
X428206Y699184D01*
X428180Y699217D01*
X428169Y699237D01*
X428146Y699259D01*
X428101Y699315D01*
X426654Y700762D01*
X425784Y702863D01*
X425784Y705137D01*
X426654Y707238D01*
X428262Y708846D01*
X430363Y709716D01*
X432637Y709716D01*
X434738Y708846D01*
X435406Y708178D01*
X435422Y708166D01*
X435434Y708150D01*
X435522Y708094D01*
X435605Y708034D01*
X435624Y708028D01*
X435641Y708017D01*
X435742Y707992D01*
X435841Y707962D01*
X435860Y707962D01*
X435880Y707957D01*
X435983Y707965D01*
X436086Y707968D01*
X436105Y707975D01*
X436125Y707976D01*
X436220Y708017D01*
X436317Y708052D01*
X436333Y708065D01*
X436351Y708073D01*
X436482Y708178D01*
X436762Y708458D01*
X438863Y709328D01*
X441137Y709328D01*
X443238Y708458D01*
X444846Y706850D01*
X445716Y704749D01*
X445716Y702475D01*
X444846Y700374D01*
X443399Y698927D01*
X443346Y698853D01*
X443286Y698784D01*
X443274Y698754D01*
X443255Y698728D01*
X443228Y698641D01*
X443194Y698556D01*
X443190Y698515D01*
X443183Y698493D01*
X443184Y698460D01*
X443176Y698389D01*
X443176Y692723D01*
X443190Y692633D01*
X443198Y692542D01*
X443210Y692512D01*
X443215Y692480D01*
X443258Y692399D01*
X443294Y692316D01*
X443320Y692283D01*
X443331Y692263D01*
X443354Y692241D01*
X443399Y692185D01*
X444846Y690738D01*
X445716Y688637D01*
X445716Y686363D01*
X444846Y684262D01*
X443238Y682654D01*
X441137Y681784D01*
X438863Y681784D01*
G37*
%LPD*%
%LPC*%
G36*
X637625Y461361D02*
X637625Y461361D01*
X633237Y463179D01*
X629879Y466537D01*
X628061Y470925D01*
X628061Y475675D01*
X629879Y480063D01*
X633237Y483421D01*
X637625Y485239D01*
X642375Y485239D01*
X646763Y483421D01*
X650121Y480063D01*
X651939Y475675D01*
X651939Y470925D01*
X650121Y466537D01*
X646763Y463179D01*
X642375Y461361D01*
X637625Y461361D01*
G37*
%LPD*%
%LPC*%
G36*
X225125Y503061D02*
X225125Y503061D01*
X220737Y504879D01*
X217379Y508237D01*
X215561Y512625D01*
X215561Y517375D01*
X217379Y521763D01*
X220737Y525121D01*
X225125Y526939D01*
X229875Y526939D01*
X234263Y525121D01*
X237621Y521763D01*
X239439Y517375D01*
X239439Y512625D01*
X237621Y508237D01*
X234263Y504879D01*
X229875Y503061D01*
X225125Y503061D01*
G37*
%LPD*%
%LPC*%
G36*
X115125Y290561D02*
X115125Y290561D01*
X110737Y292379D01*
X107379Y295737D01*
X105561Y300125D01*
X105561Y304875D01*
X107379Y309263D01*
X110737Y312621D01*
X115125Y314439D01*
X119875Y314439D01*
X124263Y312621D01*
X127621Y309263D01*
X129439Y304875D01*
X129439Y300125D01*
X127621Y295737D01*
X124263Y292379D01*
X119875Y290561D01*
X115125Y290561D01*
G37*
%LPD*%
%LPC*%
G36*
X255125Y243061D02*
X255125Y243061D01*
X250737Y244879D01*
X247379Y248237D01*
X245561Y252625D01*
X245561Y257375D01*
X247379Y261763D01*
X250737Y265121D01*
X255125Y266939D01*
X259875Y266939D01*
X264263Y265121D01*
X267621Y261763D01*
X269439Y257375D01*
X269439Y252625D01*
X267621Y248237D01*
X264263Y244879D01*
X259875Y243061D01*
X255125Y243061D01*
G37*
%LPD*%
%LPC*%
G36*
X848896Y333978D02*
X848896Y333978D01*
X845722Y335293D01*
X843292Y337723D01*
X841977Y340897D01*
X841977Y344333D01*
X843292Y347507D01*
X845722Y349937D01*
X848896Y351252D01*
X864524Y351252D01*
X867698Y349937D01*
X870128Y347507D01*
X871443Y344333D01*
X871443Y340897D01*
X870128Y337723D01*
X867698Y335293D01*
X864524Y333978D01*
X848896Y333978D01*
G37*
%LPD*%
%LPC*%
G36*
X892076Y398748D02*
X892076Y398748D01*
X888902Y400063D01*
X886472Y402493D01*
X885157Y405667D01*
X885157Y409103D01*
X886472Y412277D01*
X888902Y414707D01*
X892076Y416022D01*
X907704Y416022D01*
X910878Y414707D01*
X913308Y412277D01*
X914623Y409103D01*
X914623Y405667D01*
X913308Y402493D01*
X910878Y400063D01*
X907704Y398748D01*
X892076Y398748D01*
G37*
%LPD*%
%LPC*%
G36*
X848896Y377158D02*
X848896Y377158D01*
X845722Y378473D01*
X843292Y380903D01*
X841977Y384077D01*
X841977Y387513D01*
X843292Y390687D01*
X845722Y393117D01*
X848896Y394432D01*
X864524Y394432D01*
X867698Y393117D01*
X870128Y390687D01*
X871443Y387513D01*
X871443Y384077D01*
X870128Y380903D01*
X867698Y378473D01*
X864524Y377158D01*
X848896Y377158D01*
G37*
%LPD*%
%LPC*%
G36*
X892076Y420338D02*
X892076Y420338D01*
X888902Y421653D01*
X886472Y424083D01*
X885157Y427257D01*
X885157Y430693D01*
X886472Y433867D01*
X888902Y436297D01*
X892076Y437612D01*
X907704Y437612D01*
X910878Y436297D01*
X913308Y433867D01*
X914623Y430693D01*
X914623Y427257D01*
X913308Y424083D01*
X910878Y421653D01*
X907704Y420338D01*
X892076Y420338D01*
G37*
%LPD*%
%LPC*%
G36*
X848896Y312388D02*
X848896Y312388D01*
X845722Y313703D01*
X843292Y316133D01*
X841977Y319307D01*
X841977Y322743D01*
X843292Y325917D01*
X845722Y328347D01*
X848896Y329662D01*
X864524Y329662D01*
X867698Y328347D01*
X870128Y325917D01*
X871443Y322743D01*
X871443Y319307D01*
X870128Y316133D01*
X867698Y313703D01*
X864524Y312388D01*
X848896Y312388D01*
G37*
%LPD*%
%LPC*%
G36*
X848896Y398748D02*
X848896Y398748D01*
X845722Y400063D01*
X843292Y402493D01*
X841977Y405667D01*
X841977Y409103D01*
X843292Y412277D01*
X845722Y414707D01*
X848896Y416022D01*
X864524Y416022D01*
X867698Y414707D01*
X870128Y412277D01*
X871443Y409103D01*
X871443Y405667D01*
X870128Y402493D01*
X867698Y400063D01*
X864524Y398748D01*
X848896Y398748D01*
G37*
%LPD*%
%LPC*%
G36*
X848896Y355568D02*
X848896Y355568D01*
X845722Y356883D01*
X843292Y359313D01*
X841977Y362487D01*
X841977Y365923D01*
X843292Y369097D01*
X845722Y371527D01*
X848896Y372842D01*
X864524Y372842D01*
X867698Y371527D01*
X870128Y369097D01*
X871443Y365923D01*
X871443Y362487D01*
X870128Y359313D01*
X867698Y356883D01*
X864524Y355568D01*
X848896Y355568D01*
G37*
%LPD*%
%LPC*%
G36*
X487863Y440172D02*
X487863Y440172D01*
X485762Y441042D01*
X484154Y442650D01*
X483284Y444751D01*
X483284Y447025D01*
X484154Y449126D01*
X485762Y450734D01*
X487863Y451604D01*
X490137Y451604D01*
X492238Y450734D01*
X493573Y449399D01*
X493647Y449346D01*
X493716Y449286D01*
X493746Y449274D01*
X493772Y449255D01*
X493859Y449228D01*
X493944Y449194D01*
X493985Y449190D01*
X494007Y449183D01*
X494040Y449184D01*
X494111Y449176D01*
X519277Y449176D01*
X519367Y449190D01*
X519458Y449198D01*
X519488Y449210D01*
X519520Y449215D01*
X519601Y449258D01*
X519684Y449294D01*
X519717Y449320D01*
X519737Y449331D01*
X519759Y449354D01*
X519815Y449399D01*
X521262Y450846D01*
X523363Y451716D01*
X525637Y451716D01*
X527738Y450846D01*
X529346Y449238D01*
X530216Y447137D01*
X530216Y444863D01*
X529346Y442762D01*
X527738Y441154D01*
X525637Y440284D01*
X523363Y440284D01*
X521262Y441154D01*
X519815Y442601D01*
X519741Y442654D01*
X519672Y442714D01*
X519642Y442726D01*
X519616Y442745D01*
X519529Y442772D01*
X519444Y442806D01*
X519403Y442810D01*
X519381Y442817D01*
X519348Y442816D01*
X519277Y442824D01*
X494335Y442824D01*
X494245Y442810D01*
X494154Y442802D01*
X494124Y442790D01*
X494092Y442785D01*
X494011Y442742D01*
X493928Y442706D01*
X493895Y442680D01*
X493875Y442669D01*
X493853Y442646D01*
X493797Y442601D01*
X492238Y441042D01*
X490137Y440172D01*
X487863Y440172D01*
G37*
%LPD*%
%LPC*%
G36*
X409363Y352784D02*
X409363Y352784D01*
X407262Y353654D01*
X405654Y355262D01*
X404784Y357363D01*
X404784Y359637D01*
X405369Y361049D01*
X405384Y361113D01*
X405409Y361174D01*
X405418Y361257D01*
X405425Y361289D01*
X405424Y361308D01*
X405427Y361341D01*
X405427Y381174D01*
X405413Y381264D01*
X405405Y381355D01*
X405393Y381385D01*
X405388Y381417D01*
X405345Y381498D01*
X405309Y381581D01*
X405283Y381614D01*
X405272Y381634D01*
X405249Y381656D01*
X405204Y381712D01*
X405154Y381762D01*
X404284Y383863D01*
X404284Y386137D01*
X405154Y388238D01*
X406762Y389846D01*
X408863Y390716D01*
X411137Y390716D01*
X413238Y389846D01*
X414846Y388238D01*
X415716Y386137D01*
X415716Y383863D01*
X414846Y381762D01*
X414796Y381712D01*
X414743Y381638D01*
X414683Y381569D01*
X414671Y381539D01*
X414652Y381513D01*
X414625Y381426D01*
X414591Y381341D01*
X414587Y381300D01*
X414580Y381278D01*
X414581Y381245D01*
X414573Y381174D01*
X414573Y362826D01*
X414587Y362736D01*
X414595Y362645D01*
X414607Y362615D01*
X414612Y362583D01*
X414655Y362502D01*
X414691Y362419D01*
X414717Y362386D01*
X414728Y362366D01*
X414751Y362344D01*
X414796Y362288D01*
X415346Y361738D01*
X416216Y359637D01*
X416216Y357363D01*
X415346Y355262D01*
X413738Y353654D01*
X411637Y352784D01*
X409363Y352784D01*
G37*
%LPD*%
%LPC*%
G36*
X353353Y55909D02*
X353353Y55909D01*
X349571Y57476D01*
X346676Y60371D01*
X345109Y64153D01*
X345109Y68247D01*
X346676Y72029D01*
X349571Y74924D01*
X353353Y76491D01*
X357447Y76491D01*
X361229Y74924D01*
X364124Y72029D01*
X365691Y68247D01*
X365691Y64153D01*
X364124Y60371D01*
X361229Y57476D01*
X357447Y55909D01*
X353353Y55909D01*
G37*
%LPD*%
%LPC*%
G36*
X595953Y55909D02*
X595953Y55909D01*
X592171Y57476D01*
X589276Y60371D01*
X587709Y64153D01*
X587709Y68247D01*
X589276Y72029D01*
X592171Y74924D01*
X595953Y76491D01*
X600047Y76491D01*
X603829Y74924D01*
X606724Y72029D01*
X608291Y68247D01*
X608291Y64153D01*
X606724Y60371D01*
X603829Y57476D01*
X600047Y55909D01*
X595953Y55909D01*
G37*
%LPD*%
%LPC*%
G36*
X148863Y260784D02*
X148863Y260784D01*
X146762Y261654D01*
X145154Y263262D01*
X144284Y265363D01*
X144284Y267637D01*
X144861Y269030D01*
X144876Y269094D01*
X144901Y269155D01*
X144910Y269237D01*
X144917Y269270D01*
X144916Y269289D01*
X144919Y269321D01*
X144919Y277179D01*
X144909Y277243D01*
X144908Y277309D01*
X144885Y277389D01*
X144880Y277421D01*
X144870Y277439D01*
X144861Y277470D01*
X144284Y278863D01*
X144284Y281137D01*
X145154Y283238D01*
X146762Y284846D01*
X148863Y285716D01*
X151137Y285716D01*
X153238Y284846D01*
X154846Y283238D01*
X155716Y281137D01*
X155716Y278863D01*
X155139Y277470D01*
X155124Y277406D01*
X155099Y277345D01*
X155090Y277263D01*
X155083Y277230D01*
X155084Y277211D01*
X155081Y277179D01*
X155081Y269321D01*
X155091Y269257D01*
X155092Y269191D01*
X155115Y269111D01*
X155120Y269079D01*
X155130Y269061D01*
X155139Y269030D01*
X155716Y267637D01*
X155716Y265363D01*
X154846Y263262D01*
X153238Y261654D01*
X151137Y260784D01*
X148863Y260784D01*
G37*
%LPD*%
%LPC*%
G36*
X653363Y289284D02*
X653363Y289284D01*
X651262Y290154D01*
X649654Y291762D01*
X648784Y293863D01*
X648784Y296137D01*
X649654Y298238D01*
X651262Y299846D01*
X653363Y300716D01*
X655679Y300716D01*
X655696Y300712D01*
X655810Y300683D01*
X655816Y300683D01*
X655822Y300682D01*
X655939Y300693D01*
X656055Y300702D01*
X656060Y300705D01*
X656067Y300705D01*
X656174Y300753D01*
X656281Y300798D01*
X656287Y300803D01*
X656291Y300805D01*
X656305Y300817D01*
X656412Y300903D01*
X659061Y303552D01*
X659114Y303626D01*
X659174Y303696D01*
X659186Y303726D01*
X659205Y303752D01*
X659232Y303839D01*
X659266Y303924D01*
X659270Y303965D01*
X659277Y303987D01*
X659276Y304019D01*
X659284Y304091D01*
X659284Y306137D01*
X660154Y308238D01*
X661762Y309846D01*
X663863Y310716D01*
X666137Y310716D01*
X668238Y309846D01*
X669846Y308238D01*
X670716Y306137D01*
X670716Y303863D01*
X669846Y301762D01*
X668238Y300154D01*
X666137Y299284D01*
X664091Y299284D01*
X664001Y299270D01*
X663910Y299262D01*
X663880Y299250D01*
X663848Y299245D01*
X663767Y299202D01*
X663683Y299166D01*
X663651Y299140D01*
X663631Y299129D01*
X663608Y299106D01*
X663552Y299061D01*
X660439Y295948D01*
X660386Y295874D01*
X660326Y295804D01*
X660314Y295774D01*
X660295Y295748D01*
X660268Y295661D01*
X660234Y295576D01*
X660230Y295535D01*
X660223Y295513D01*
X660224Y295481D01*
X660216Y295409D01*
X660216Y293863D01*
X659346Y291762D01*
X657738Y290154D01*
X655637Y289284D01*
X653363Y289284D01*
G37*
%LPD*%
G36*
X720042Y361873D02*
X720042Y361873D01*
X720084Y361871D01*
X720151Y361893D01*
X720221Y361905D01*
X720257Y361927D01*
X720298Y361940D01*
X720371Y361994D01*
X720414Y362020D01*
X720427Y362036D01*
X720448Y362052D01*
X725448Y367052D01*
X725473Y367086D01*
X725504Y367115D01*
X725536Y367178D01*
X725577Y367236D01*
X725587Y367277D01*
X725607Y367315D01*
X725620Y367404D01*
X725633Y367453D01*
X725630Y367474D01*
X725634Y367500D01*
X725634Y372500D01*
X725627Y372542D01*
X725629Y372584D01*
X725607Y372651D01*
X725595Y372721D01*
X725573Y372757D01*
X725560Y372798D01*
X725506Y372871D01*
X725480Y372914D01*
X725464Y372927D01*
X725448Y372948D01*
X720448Y377948D01*
X720414Y377973D01*
X720385Y378004D01*
X720322Y378036D01*
X720264Y378077D01*
X720223Y378087D01*
X720185Y378107D01*
X720096Y378120D01*
X720047Y378133D01*
X720026Y378130D01*
X720000Y378134D01*
X717500Y378134D01*
X717458Y378127D01*
X717416Y378129D01*
X717349Y378107D01*
X717279Y378095D01*
X717243Y378073D01*
X717202Y378060D01*
X717129Y378006D01*
X717086Y377980D01*
X717073Y377964D01*
X717052Y377948D01*
X712052Y372948D01*
X712027Y372914D01*
X711996Y372885D01*
X711964Y372822D01*
X711923Y372764D01*
X711913Y372723D01*
X711893Y372685D01*
X711880Y372596D01*
X711868Y372547D01*
X711870Y372526D01*
X711866Y372500D01*
X711866Y367500D01*
X711873Y367458D01*
X711871Y367416D01*
X711893Y367349D01*
X711905Y367279D01*
X711927Y367243D01*
X711940Y367202D01*
X711994Y367129D01*
X712020Y367086D01*
X712036Y367073D01*
X712052Y367052D01*
X717052Y362052D01*
X717086Y362027D01*
X717115Y361996D01*
X717178Y361964D01*
X717236Y361923D01*
X717277Y361913D01*
X717315Y361893D01*
X717404Y361880D01*
X717453Y361868D01*
X717474Y361870D01*
X717500Y361866D01*
X720000Y361866D01*
X720042Y361873D01*
G37*
%LPC*%
G36*
X53600Y138459D02*
X53600Y138459D01*
X51012Y139531D01*
X49031Y141512D01*
X47959Y144100D01*
X47959Y146900D01*
X49031Y149488D01*
X51012Y151469D01*
X53600Y152541D01*
X56400Y152541D01*
X58988Y151469D01*
X60969Y149488D01*
X62041Y146900D01*
X62041Y144100D01*
X60969Y141512D01*
X58988Y139531D01*
X56400Y138459D01*
X53600Y138459D01*
G37*
%LPD*%
%LPC*%
G36*
X53600Y182459D02*
X53600Y182459D01*
X51012Y183531D01*
X49031Y185512D01*
X47959Y188100D01*
X47959Y190900D01*
X49031Y193488D01*
X51012Y195469D01*
X53600Y196541D01*
X56400Y196541D01*
X58988Y195469D01*
X60969Y193488D01*
X62041Y190900D01*
X62041Y188100D01*
X60969Y185512D01*
X58988Y183531D01*
X56400Y182459D01*
X53600Y182459D01*
G37*
%LPD*%
%LPC*%
G36*
X901413Y322548D02*
X901413Y322548D01*
X901413Y329662D01*
X906837Y329662D01*
X908505Y329330D01*
X910077Y328679D01*
X911492Y327734D01*
X912695Y326531D01*
X913640Y325116D01*
X914291Y323544D01*
X914489Y322548D01*
X901413Y322548D01*
G37*
%LPD*%
%LPC*%
G36*
X901413Y279368D02*
X901413Y279368D01*
X901413Y286482D01*
X906837Y286482D01*
X908505Y286150D01*
X910077Y285499D01*
X911492Y284554D01*
X912695Y283351D01*
X913640Y281936D01*
X914291Y280364D01*
X914489Y279368D01*
X901413Y279368D01*
G37*
%LPD*%
%LPC*%
G36*
X858233Y257778D02*
X858233Y257778D01*
X858233Y264892D01*
X863657Y264892D01*
X865325Y264560D01*
X866897Y263909D01*
X868312Y262964D01*
X869515Y261761D01*
X870460Y260346D01*
X871111Y258774D01*
X871309Y257778D01*
X858233Y257778D01*
G37*
%LPD*%
%LPC*%
G36*
X901413Y344138D02*
X901413Y344138D01*
X901413Y351252D01*
X906837Y351252D01*
X908505Y350920D01*
X910077Y350269D01*
X911492Y349324D01*
X912695Y348121D01*
X913640Y346706D01*
X914291Y345134D01*
X914489Y344138D01*
X901413Y344138D01*
G37*
%LPD*%
%LPC*%
G36*
X901413Y257778D02*
X901413Y257778D01*
X901413Y264892D01*
X906837Y264892D01*
X908505Y264560D01*
X910077Y263909D01*
X911492Y262964D01*
X912695Y261761D01*
X913640Y260346D01*
X914291Y258774D01*
X914489Y257778D01*
X901413Y257778D01*
G37*
%LPD*%
%LPC*%
G36*
X901413Y365728D02*
X901413Y365728D01*
X901413Y372842D01*
X906837Y372842D01*
X908505Y372510D01*
X910077Y371859D01*
X911492Y370914D01*
X912695Y369711D01*
X913640Y368296D01*
X914291Y366724D01*
X914489Y365728D01*
X901413Y365728D01*
G37*
%LPD*%
%LPC*%
G36*
X901413Y387318D02*
X901413Y387318D01*
X901413Y394432D01*
X906837Y394432D01*
X908505Y394100D01*
X910077Y393449D01*
X911492Y392504D01*
X912695Y391301D01*
X913640Y389886D01*
X914291Y388314D01*
X914489Y387318D01*
X901413Y387318D01*
G37*
%LPD*%
%LPC*%
G36*
X901413Y300958D02*
X901413Y300958D01*
X901413Y308072D01*
X906837Y308072D01*
X908505Y307740D01*
X910077Y307089D01*
X911492Y306144D01*
X912695Y304941D01*
X913640Y303526D01*
X914291Y301954D01*
X914489Y300958D01*
X901413Y300958D01*
G37*
%LPD*%
%LPC*%
G36*
X885291Y365728D02*
X885291Y365728D01*
X885489Y366724D01*
X886140Y368296D01*
X887085Y369711D01*
X888288Y370914D01*
X889703Y371859D01*
X891275Y372510D01*
X892943Y372842D01*
X898367Y372842D01*
X898367Y365728D01*
X885291Y365728D01*
G37*
%LPD*%
%LPC*%
G36*
X885291Y300958D02*
X885291Y300958D01*
X885489Y301954D01*
X886140Y303526D01*
X887085Y304941D01*
X888288Y306144D01*
X889703Y307089D01*
X891275Y307740D01*
X892943Y308072D01*
X898367Y308072D01*
X898367Y300958D01*
X885291Y300958D01*
G37*
%LPD*%
%LPC*%
G36*
X885291Y387318D02*
X885291Y387318D01*
X885489Y388314D01*
X886140Y389886D01*
X887085Y391301D01*
X888288Y392504D01*
X889703Y393449D01*
X891275Y394100D01*
X892943Y394432D01*
X898367Y394432D01*
X898367Y387318D01*
X885291Y387318D01*
G37*
%LPD*%
%LPC*%
G36*
X885291Y257778D02*
X885291Y257778D01*
X885489Y258774D01*
X886140Y260346D01*
X887085Y261761D01*
X888288Y262964D01*
X889703Y263909D01*
X891275Y264560D01*
X892943Y264892D01*
X898367Y264892D01*
X898367Y257778D01*
X885291Y257778D01*
G37*
%LPD*%
%LPC*%
G36*
X842111Y257778D02*
X842111Y257778D01*
X842309Y258774D01*
X842960Y260346D01*
X843905Y261761D01*
X845108Y262964D01*
X846523Y263909D01*
X848095Y264560D01*
X849763Y264892D01*
X855187Y264892D01*
X855187Y257778D01*
X842111Y257778D01*
G37*
%LPD*%
%LPC*%
G36*
X885291Y344138D02*
X885291Y344138D01*
X885489Y345134D01*
X886140Y346706D01*
X887085Y348121D01*
X888288Y349324D01*
X889703Y350269D01*
X891275Y350920D01*
X892943Y351252D01*
X898367Y351252D01*
X898367Y344138D01*
X885291Y344138D01*
G37*
%LPD*%
%LPC*%
G36*
X885291Y322548D02*
X885291Y322548D01*
X885489Y323544D01*
X886140Y325116D01*
X887085Y326531D01*
X888288Y327734D01*
X889703Y328679D01*
X891275Y329330D01*
X892943Y329662D01*
X898367Y329662D01*
X898367Y322548D01*
X885291Y322548D01*
G37*
%LPD*%
%LPC*%
G36*
X885291Y279368D02*
X885291Y279368D01*
X885489Y280364D01*
X886140Y281936D01*
X887085Y283351D01*
X888288Y284554D01*
X889703Y285499D01*
X891275Y286150D01*
X892943Y286482D01*
X898367Y286482D01*
X898367Y279368D01*
X885291Y279368D01*
G37*
%LPD*%
%LPC*%
G36*
X858233Y247618D02*
X858233Y247618D01*
X858233Y254732D01*
X871309Y254732D01*
X871111Y253736D01*
X870460Y252164D01*
X869515Y250749D01*
X868312Y249546D01*
X866897Y248601D01*
X865325Y247950D01*
X863657Y247618D01*
X858233Y247618D01*
G37*
%LPD*%
%LPC*%
G36*
X901413Y247618D02*
X901413Y247618D01*
X901413Y254732D01*
X914489Y254732D01*
X914291Y253736D01*
X913640Y252164D01*
X912695Y250749D01*
X911492Y249546D01*
X910077Y248601D01*
X908505Y247950D01*
X906837Y247618D01*
X901413Y247618D01*
G37*
%LPD*%
%LPC*%
G36*
X901413Y290798D02*
X901413Y290798D01*
X901413Y297912D01*
X914489Y297912D01*
X914291Y296916D01*
X913640Y295344D01*
X912695Y293929D01*
X911492Y292726D01*
X910077Y291781D01*
X908505Y291130D01*
X906837Y290798D01*
X901413Y290798D01*
G37*
%LPD*%
%LPC*%
G36*
X901413Y269208D02*
X901413Y269208D01*
X901413Y276322D01*
X914489Y276322D01*
X914291Y275326D01*
X913640Y273754D01*
X912695Y272339D01*
X911492Y271136D01*
X910077Y270191D01*
X908505Y269540D01*
X906837Y269208D01*
X901413Y269208D01*
G37*
%LPD*%
%LPC*%
G36*
X901413Y333978D02*
X901413Y333978D01*
X901413Y341092D01*
X914489Y341092D01*
X914291Y340096D01*
X913640Y338524D01*
X912695Y337109D01*
X911492Y335906D01*
X910077Y334961D01*
X908505Y334310D01*
X906837Y333978D01*
X901413Y333978D01*
G37*
%LPD*%
%LPC*%
G36*
X901413Y355568D02*
X901413Y355568D01*
X901413Y362682D01*
X914489Y362682D01*
X914291Y361686D01*
X913640Y360114D01*
X912695Y358699D01*
X911492Y357496D01*
X910077Y356551D01*
X908505Y355900D01*
X906837Y355568D01*
X901413Y355568D01*
G37*
%LPD*%
%LPC*%
G36*
X901413Y377158D02*
X901413Y377158D01*
X901413Y384272D01*
X914489Y384272D01*
X914291Y383276D01*
X913640Y381704D01*
X912695Y380289D01*
X911492Y379086D01*
X910077Y378141D01*
X908505Y377490D01*
X906837Y377158D01*
X901413Y377158D01*
G37*
%LPD*%
%LPC*%
G36*
X901413Y312388D02*
X901413Y312388D01*
X901413Y319502D01*
X914489Y319502D01*
X914291Y318506D01*
X913640Y316934D01*
X912695Y315519D01*
X911492Y314316D01*
X910077Y313371D01*
X908505Y312720D01*
X906837Y312388D01*
X901413Y312388D01*
G37*
%LPD*%
%LPC*%
G36*
X892943Y269208D02*
X892943Y269208D01*
X891275Y269540D01*
X889703Y270191D01*
X888288Y271136D01*
X887085Y272339D01*
X886140Y273754D01*
X885489Y275326D01*
X885291Y276322D01*
X898367Y276322D01*
X898367Y269208D01*
X892943Y269208D01*
G37*
%LPD*%
%LPC*%
G36*
X892943Y377158D02*
X892943Y377158D01*
X891275Y377490D01*
X889703Y378141D01*
X888288Y379086D01*
X887085Y380289D01*
X886140Y381704D01*
X885489Y383276D01*
X885291Y384272D01*
X898367Y384272D01*
X898367Y377158D01*
X892943Y377158D01*
G37*
%LPD*%
%LPC*%
G36*
X892943Y312388D02*
X892943Y312388D01*
X891275Y312720D01*
X889703Y313371D01*
X888288Y314316D01*
X887085Y315519D01*
X886140Y316934D01*
X885489Y318506D01*
X885291Y319502D01*
X898367Y319502D01*
X898367Y312388D01*
X892943Y312388D01*
G37*
%LPD*%
%LPC*%
G36*
X892943Y355568D02*
X892943Y355568D01*
X891275Y355900D01*
X889703Y356551D01*
X888288Y357496D01*
X887085Y358699D01*
X886140Y360114D01*
X885489Y361686D01*
X885291Y362682D01*
X898367Y362682D01*
X898367Y355568D01*
X892943Y355568D01*
G37*
%LPD*%
%LPC*%
G36*
X892943Y333978D02*
X892943Y333978D01*
X891275Y334310D01*
X889703Y334961D01*
X888288Y335906D01*
X887085Y337109D01*
X886140Y338524D01*
X885489Y340096D01*
X885291Y341092D01*
X898367Y341092D01*
X898367Y333978D01*
X892943Y333978D01*
G37*
%LPD*%
%LPC*%
G36*
X892943Y247618D02*
X892943Y247618D01*
X891275Y247950D01*
X889703Y248601D01*
X888288Y249546D01*
X887085Y250749D01*
X886140Y252164D01*
X885489Y253736D01*
X885291Y254732D01*
X898367Y254732D01*
X898367Y247618D01*
X892943Y247618D01*
G37*
%LPD*%
%LPC*%
G36*
X892943Y290798D02*
X892943Y290798D01*
X891275Y291130D01*
X889703Y291781D01*
X888288Y292726D01*
X887085Y293929D01*
X886140Y295344D01*
X885489Y296916D01*
X885291Y297912D01*
X898367Y297912D01*
X898367Y290798D01*
X892943Y290798D01*
G37*
%LPD*%
%LPC*%
G36*
X849763Y247618D02*
X849763Y247618D01*
X848095Y247950D01*
X846523Y248601D01*
X845108Y249546D01*
X843905Y250749D01*
X842960Y252164D01*
X842309Y253736D01*
X842111Y254732D01*
X855187Y254732D01*
X855187Y247618D01*
X849763Y247618D01*
G37*
%LPD*%
%LPC*%
G36*
X124023Y684023D02*
X124023Y684023D01*
X124023Y694346D01*
X125296Y694145D01*
X127083Y693564D01*
X128757Y692711D01*
X130278Y691606D01*
X131606Y690278D01*
X132711Y688757D01*
X133564Y687083D01*
X134145Y685296D01*
X134346Y684023D01*
X124023Y684023D01*
G37*
%LPD*%
%LPC*%
G36*
X110654Y684023D02*
X110654Y684023D01*
X110855Y685296D01*
X111436Y687083D01*
X112289Y688757D01*
X113394Y690278D01*
X114722Y691606D01*
X116243Y692711D01*
X117917Y693564D01*
X119704Y694145D01*
X120977Y694346D01*
X120977Y684023D01*
X110654Y684023D01*
G37*
%LPD*%
%LPC*%
G36*
X124023Y680977D02*
X124023Y680977D01*
X134346Y680977D01*
X134145Y679704D01*
X133564Y677917D01*
X132711Y676243D01*
X131606Y674722D01*
X130278Y673394D01*
X128757Y672289D01*
X127083Y671436D01*
X125296Y670855D01*
X124023Y670654D01*
X124023Y680977D01*
G37*
%LPD*%
%LPC*%
G36*
X119704Y670855D02*
X119704Y670855D01*
X117917Y671436D01*
X116243Y672289D01*
X114722Y673394D01*
X113394Y674722D01*
X112289Y676243D01*
X111436Y677917D01*
X110855Y679704D01*
X110654Y680977D01*
X120977Y680977D01*
X120977Y670654D01*
X119704Y670855D01*
G37*
%LPD*%
%LPC*%
G36*
X878299Y141065D02*
X878299Y141065D01*
X878299Y141067D01*
X878301Y141067D01*
X878301Y141065D01*
X878299Y141065D01*
G37*
%LPD*%
%LPC*%
G36*
X899889Y277844D02*
X899889Y277844D01*
X899889Y277846D01*
X899891Y277846D01*
X899891Y277844D01*
X899889Y277844D01*
G37*
%LPD*%
%LPC*%
G36*
X899889Y299434D02*
X899889Y299434D01*
X899889Y299436D01*
X899891Y299436D01*
X899891Y299434D01*
X899889Y299434D01*
G37*
%LPD*%
%LPC*%
G36*
X49999Y699999D02*
X49999Y699999D01*
X49999Y700001D01*
X50001Y700001D01*
X50001Y699999D01*
X49999Y699999D01*
G37*
%LPD*%
%LPC*%
G36*
X878299Y608933D02*
X878299Y608933D01*
X878299Y608935D01*
X878301Y608935D01*
X878301Y608933D01*
X878299Y608933D01*
G37*
%LPD*%
%LPC*%
G36*
X899889Y385794D02*
X899889Y385794D01*
X899889Y385796D01*
X899891Y385796D01*
X899891Y385794D01*
X899889Y385794D01*
G37*
%LPD*%
%LPC*%
G36*
X899889Y321024D02*
X899889Y321024D01*
X899889Y321026D01*
X899891Y321026D01*
X899891Y321024D01*
X899889Y321024D01*
G37*
%LPD*%
%LPC*%
G36*
X899889Y342614D02*
X899889Y342614D01*
X899889Y342616D01*
X899891Y342616D01*
X899891Y342614D01*
X899889Y342614D01*
G37*
%LPD*%
%LPC*%
G36*
X856709Y256254D02*
X856709Y256254D01*
X856709Y256256D01*
X856711Y256256D01*
X856711Y256254D01*
X856709Y256254D01*
G37*
%LPD*%
%LPC*%
G36*
X49999Y49999D02*
X49999Y49999D01*
X49999Y50001D01*
X50001Y50001D01*
X50001Y49999D01*
X49999Y49999D01*
G37*
%LPD*%
%LPC*%
G36*
X949999Y49999D02*
X949999Y49999D01*
X949999Y50001D01*
X950001Y50001D01*
X950001Y49999D01*
X949999Y49999D01*
G37*
%LPD*%
%LPC*%
G36*
X122499Y682499D02*
X122499Y682499D01*
X122499Y682501D01*
X122501Y682501D01*
X122501Y682499D01*
X122499Y682499D01*
G37*
%LPD*%
%LPC*%
G36*
X899889Y256254D02*
X899889Y256254D01*
X899889Y256256D01*
X899891Y256256D01*
X899891Y256254D01*
X899889Y256254D01*
G37*
%LPD*%
%LPC*%
G36*
X899889Y364204D02*
X899889Y364204D01*
X899889Y364206D01*
X899891Y364206D01*
X899891Y364204D01*
X899889Y364204D01*
G37*
%LPD*%
%LPC*%
G36*
X949999Y699999D02*
X949999Y699999D01*
X949999Y700001D01*
X950001Y700001D01*
X950001Y699999D01*
X949999Y699999D01*
G37*
%LPD*%
D10*
X850614Y493745D02*
X862806Y493745D01*
X862806Y472155D02*
X850614Y472155D01*
X850614Y450565D02*
X862806Y450565D01*
X862806Y428975D02*
X850614Y428975D01*
X850614Y407385D02*
X862806Y407385D01*
X862806Y385795D02*
X850614Y385795D01*
X850614Y364205D02*
X862806Y364205D01*
X862806Y342615D02*
X850614Y342615D01*
X850614Y321025D02*
X862806Y321025D01*
X862806Y299435D02*
X850614Y299435D01*
X850614Y277845D02*
X862806Y277845D01*
X862806Y256255D02*
X850614Y256255D01*
X893794Y493745D02*
X905986Y493745D01*
X905986Y472155D02*
X893794Y472155D01*
X893794Y450565D02*
X905986Y450565D01*
X905986Y428975D02*
X893794Y428975D01*
X893794Y407385D02*
X905986Y407385D01*
X905986Y385795D02*
X893794Y385795D01*
X893794Y364205D02*
X905986Y364205D01*
X905986Y342615D02*
X893794Y342615D01*
X893794Y321025D02*
X905986Y321025D01*
X905986Y299435D02*
X893794Y299435D01*
X893794Y277845D02*
X905986Y277845D01*
X905986Y256255D02*
X893794Y256255D01*
D11*
X878300Y608934D03*
X878300Y141066D03*
D12*
X50000Y50000D03*
X950000Y50000D03*
X950000Y700000D03*
X50000Y700000D03*
D13*
X227500Y515000D03*
X117500Y302500D03*
X257500Y255000D03*
X122500Y682500D03*
X640000Y422500D03*
X640000Y447900D03*
X640000Y473300D03*
D14*
X458000Y606000D03*
D15*
X458000Y605500D01*
X369500Y605500D01*
X369000Y605000D01*
D14*
X369000Y605000D03*
X451000Y610500D03*
D15*
X377500Y610500D01*
X376000Y612000D01*
D14*
X372750Y611989D03*
D15*
X372761Y612000D01*
X376000Y612000D01*
D14*
X431000Y690388D03*
X431500Y704000D03*
D15*
X431500Y690888D01*
X431000Y690388D01*
D14*
X150000Y280000D03*
D16*
X150000Y266500D01*
D14*
X150000Y266500D03*
X387500Y630000D03*
D17*
X387000Y629500D01*
X257500Y629500D01*
D14*
X257500Y629500D03*
X565500Y640000D03*
D18*
X508000Y697500D02*
X507473Y697500D01*
D14*
X507473Y697500D03*
X282500Y504500D03*
X555000Y525000D03*
D19*
X554500Y524500D01*
X497000Y524500D01*
X477000Y504500D01*
X282500Y504500D01*
X555000Y525000D02*
X560000Y525000D01*
D14*
X290000Y492500D03*
D19*
X480000Y492500D02*
X502500Y515000D01*
X480000Y492500D02*
X290000Y492500D01*
X282500Y480500D02*
X459500Y480500D01*
D14*
X282500Y480500D03*
X542500Y525000D03*
D19*
X684250Y510750D02*
X715000Y480000D01*
X684250Y510750D02*
X671095Y523905D01*
X715000Y480000D02*
X715000Y370000D01*
X715000Y369500D02*
X715500Y369500D01*
X715000Y369500D02*
X715000Y200000D01*
D14*
X715000Y200000D03*
X720000Y370000D03*
X651000Y498000D03*
X275000Y492500D03*
X532500Y525000D03*
D19*
X660000Y523905D02*
X671095Y523905D01*
X660000Y523905D02*
X556095Y523905D01*
X555000Y525000D01*
D20*
X601000Y709000D03*
D21*
X600000Y708500D02*
X600000Y662500D01*
X588500Y651000D01*
X577500Y640000D01*
X565500Y640000D01*
D20*
X618000Y709000D03*
D21*
X518473Y708500D02*
X507473Y697500D01*
X518473Y708500D02*
X600000Y708500D01*
D17*
X669000Y532905D02*
X660000Y523905D01*
D21*
X669000Y532905D02*
X669000Y557500D01*
X588500Y638000D01*
X588500Y651000D01*
X601000Y709000D02*
X618000Y709000D01*
D17*
X502500Y519000D02*
X502500Y515000D01*
X502500Y519000D02*
X497000Y524500D01*
X600500Y708500D02*
X601000Y709000D01*
X600500Y708500D02*
X600000Y708500D01*
X684250Y510750D02*
X671500Y498000D01*
X651000Y498000D01*
D15*
X715000Y370000D02*
X720000Y370000D01*
D14*
X540500Y441500D03*
X431000Y561500D03*
X525500Y637000D03*
X580000Y550000D03*
D18*
X567500Y550000D01*
D14*
X550000Y510500D03*
D18*
X545500Y510500D01*
X540500Y505500D01*
D14*
X540000Y590000D03*
X501000Y569500D03*
X632000Y512500D03*
D18*
X631500Y513000D01*
X623500Y513000D01*
D14*
X746000Y191000D03*
D18*
X746500Y191000D02*
X748000Y189500D01*
X746500Y191000D02*
X746000Y191000D01*
D14*
X392500Y546000D03*
X503500Y325000D03*
D18*
X460000Y325000D01*
D14*
X422000Y325500D03*
D18*
X460000Y325500D01*
D14*
X460000Y363500D03*
D18*
X460000Y325500D01*
X460000Y325000D01*
D14*
X410000Y430000D03*
D22*
X410000Y425000D01*
D14*
X284500Y338500D03*
X42500Y509905D03*
D19*
X104905Y509905D01*
X105000Y510000D01*
D14*
X105000Y510000D03*
X117500Y430000D03*
X230000Y430000D03*
D19*
X117500Y430000D01*
D14*
X175000Y285000D03*
X219500Y327000D03*
X302500Y87500D03*
X122500Y96500D03*
D22*
X91000Y96500D01*
D14*
X30000Y235000D03*
D22*
X17500Y222500D01*
X17500Y115000D01*
X30000Y102500D01*
D14*
X30000Y102500D03*
X85000Y235000D03*
D22*
X85000Y102500D01*
D14*
X85000Y102500D03*
X322500Y87500D03*
D17*
X610000Y87500D01*
X640000Y87500D01*
X652500Y100000D01*
D14*
X652500Y100000D03*
X167500Y715000D03*
D18*
X167500Y657500D01*
D14*
X167500Y657500D03*
X290000Y682500D03*
D18*
X265000Y657500D01*
X167500Y657500D01*
D14*
X340000Y655000D03*
D22*
X312500Y682500D01*
X290000Y682500D01*
D14*
X514927Y657718D03*
D18*
X514927Y652073D01*
X525500Y641500D02*
X525500Y637000D01*
X525500Y641500D02*
X514927Y652073D01*
D14*
X500000Y550000D03*
X514500Y510500D03*
X529000Y569500D03*
X568000Y550000D03*
X574500Y510500D03*
X580500Y590000D03*
X594500Y611000D03*
X786000Y327500D03*
D18*
X780000Y327500D01*
X777500Y330000D01*
D14*
X772500Y492500D03*
X745500Y366000D03*
X596500Y393112D03*
D22*
X623888Y393112D02*
X624000Y393000D01*
X623888Y393112D02*
X596500Y393112D01*
D14*
X624000Y393000D03*
D22*
X878300Y254200D02*
X878300Y141066D01*
X878300Y254200D02*
X878300Y256200D01*
X877500Y255000D02*
X878300Y254200D01*
D14*
X728500Y341000D03*
X703000Y341000D03*
X432500Y630000D03*
X432500Y597500D03*
X308500Y642500D03*
X308500Y619000D03*
X368500Y517500D03*
X368500Y467500D03*
D23*
X746500Y190500D02*
X790500Y190500D01*
X746500Y190500D02*
X746000Y191000D01*
X856255Y256255D02*
X856710Y256255D01*
X856255Y256255D02*
X790500Y190500D01*
X746000Y191000D02*
X746000Y287500D01*
X773000Y314500D01*
X786000Y327500D01*
X777500Y330000D02*
X744000Y330000D01*
X733000Y341000D01*
X728500Y341000D01*
X703000Y341000D02*
X676000Y341000D01*
X624000Y393000D01*
X623500Y513000D02*
X577000Y513000D01*
X574500Y510500D01*
X500000Y550000D02*
X500000Y568500D01*
X501000Y569500D01*
X529000Y569500D02*
X540000Y580500D01*
X540000Y590000D01*
X560000Y590000D01*
X580500Y590000D01*
X772500Y492500D02*
X773500Y491500D01*
D18*
X392500Y546000D02*
X368500Y522000D01*
X368500Y517500D01*
X368500Y467500D02*
X480000Y467500D01*
X513500Y509500D02*
X514500Y510500D01*
X513500Y509500D02*
X513500Y501000D01*
X480000Y467500D01*
X514500Y510500D02*
X550000Y510500D01*
X368500Y467500D02*
X368500Y466500D01*
X410000Y425000D01*
X410000Y430000D02*
X460000Y380000D01*
X460000Y363500D01*
X422000Y325500D02*
X410500Y337000D01*
X286000Y337000D01*
X284500Y338500D01*
X230000Y337500D02*
X219500Y327000D01*
X230000Y337500D02*
X230000Y430000D01*
X231000Y338500D02*
X219500Y327000D01*
X231000Y338500D02*
X284500Y338500D01*
X217000Y327000D02*
X175000Y285000D01*
X217000Y327000D02*
X219500Y327000D01*
X175000Y285000D02*
X156731Y266731D01*
X156731Y258712D01*
X147760Y249740D01*
X133019Y235000D01*
X85000Y235000D01*
X30000Y235000D01*
X30000Y102500D02*
X82500Y102500D01*
X85000Y102500D01*
X91000Y96500D01*
X122500Y96500D02*
X127500Y91500D01*
X302500Y87500D02*
X322500Y87500D01*
X284500Y234500D02*
X284500Y338500D01*
X652500Y100000D02*
X693566Y141066D01*
X695000Y141066D01*
X878300Y141066D01*
X743434Y189500D02*
X695000Y141066D01*
X743434Y189500D02*
X748000Y189500D01*
X432500Y597000D02*
X432500Y597500D01*
X432500Y630000D02*
X432500Y632500D01*
X410000Y655000D01*
X340000Y655000D01*
X308500Y642500D02*
X290000Y661000D01*
X290000Y682500D01*
X492500Y680145D02*
X514927Y657718D01*
X492500Y680145D02*
X492500Y705000D01*
X510500Y723000D01*
D14*
X213161Y92500D03*
D24*
X202161Y81500D01*
X169000Y81500D01*
D14*
X191500Y251000D03*
D22*
X152500Y251000D01*
X149019Y251000D01*
X147760Y249740D01*
D14*
X107500Y250500D03*
D17*
X152000Y250500D01*
X152500Y251000D01*
D14*
X207500Y234000D03*
D22*
X208000Y234500D02*
X284500Y234500D01*
X208000Y234500D02*
X207500Y234000D01*
D14*
X191500Y217000D03*
X213000Y183500D03*
D18*
X213500Y183500D02*
X235500Y161500D01*
X213500Y183500D02*
X213000Y183500D01*
X235500Y161500D02*
X235500Y137500D01*
D14*
X235500Y137500D03*
X207500Y137500D03*
D18*
X235500Y137500D01*
X207500Y137500D02*
X185000Y137500D01*
X184702Y137202D01*
D14*
X184702Y137202D03*
D18*
X213161Y92500D02*
X297500Y92500D01*
X302500Y87500D01*
D23*
X540500Y441500D02*
X540500Y505500D01*
D14*
X599500Y441500D03*
D23*
X596500Y438500D01*
X596500Y393112D01*
D14*
X667000Y506000D03*
X681000Y533000D03*
X253500Y411000D03*
D21*
X878300Y141066D02*
X950000Y69366D01*
X950000Y50000D01*
X878300Y608934D02*
X950000Y680634D01*
X950000Y700000D01*
X67500Y682500D02*
X50000Y700000D01*
X67500Y682500D02*
X122500Y682500D01*
X82500Y82500D02*
X50000Y50000D01*
X82500Y82500D02*
X82500Y102500D01*
D22*
X632000Y512500D02*
X634277Y514777D01*
X658223Y514777D02*
X667000Y506000D01*
X658223Y514777D02*
X634277Y514777D01*
D14*
X501000Y580000D03*
X523500Y590000D03*
X771000Y317000D03*
X359500Y87500D03*
X608500Y99000D03*
X340000Y647500D03*
X485000Y605000D03*
X501000Y589500D03*
X592000Y498000D03*
X169661Y81500D03*
D20*
X282500Y147500D03*
D18*
X282500Y107500D01*
X302500Y87500D01*
D14*
X234000Y322000D03*
X561500Y589000D03*
X561000Y545000D03*
D20*
X689000Y696500D03*
X740000Y696000D03*
D18*
X727500Y696000D01*
X689500Y696000D01*
X689000Y696500D01*
D20*
X690000Y642500D03*
X727500Y642500D03*
X590000Y722500D03*
D24*
X590000Y723000D01*
D20*
X812500Y690000D03*
D17*
X878300Y624200D01*
X878300Y608934D01*
D14*
X579500Y658500D03*
X609500Y658500D03*
X652000Y552500D03*
X680500Y545000D03*
X613000Y693000D03*
X587000Y693000D03*
D20*
X708500Y642500D03*
X708500Y696000D03*
D14*
X786000Y500500D03*
D17*
X620000Y722500D02*
X590000Y722500D01*
X630000Y712500D02*
X630000Y700000D01*
X626500Y696500D01*
X623000Y693000D02*
X613000Y693000D01*
X630000Y712500D02*
X620000Y722500D01*
X727500Y696000D02*
X727500Y642500D01*
X740000Y696000D02*
X806500Y696000D01*
X812500Y690000D01*
X689000Y696500D02*
X626500Y696500D01*
X623000Y693000D01*
X608500Y99000D02*
X608500Y89000D01*
X610000Y87500D01*
X613000Y662000D02*
X613000Y693000D01*
X613000Y662000D02*
X609500Y658500D01*
X579500Y658500D02*
X579500Y685500D01*
X587000Y693000D01*
X899890Y385795D02*
X899890Y364205D01*
X899890Y342615D01*
X899890Y321025D01*
X899890Y299435D01*
X899890Y277845D01*
X899890Y256255D01*
X878755Y256255D01*
X877500Y255000D01*
X878300Y256200D02*
X856765Y256200D01*
X856710Y256255D01*
X778000Y492500D02*
X772500Y492500D01*
X778000Y492500D02*
X786000Y500500D01*
X772500Y492500D02*
X745500Y465500D01*
X745500Y366000D01*
X540000Y590000D02*
X523500Y590000D01*
D15*
X566000Y550000D02*
X561000Y545000D01*
X566000Y550000D02*
X567500Y550000D01*
X561000Y545000D02*
X561000Y589000D01*
X560000Y590000D01*
X771000Y317000D02*
X773000Y315000D01*
X773000Y314500D01*
X501000Y569500D02*
X501000Y580000D01*
X501000Y589500D01*
X485500Y605000D01*
X485000Y605000D01*
D14*
X259000Y309500D03*
D20*
X600500Y731500D03*
D18*
X589500Y723000D02*
X510500Y723000D01*
X589500Y723000D02*
X590000Y722500D01*
D14*
X410000Y385000D03*
D22*
X410000Y358500D02*
X410250Y358250D01*
X410000Y358500D02*
X410000Y385000D01*
X410500Y358500D02*
X410250Y358250D01*
D14*
X410500Y358500D03*
D20*
X831500Y510748D03*
D15*
X831500Y505500D01*
X843255Y493745D01*
X856710Y493745D01*
D20*
X824000Y506000D03*
D15*
X824000Y490500D01*
X842345Y472155D02*
X856710Y472155D01*
X842345Y472155D02*
X824000Y490500D01*
D25*
X835935Y450565D02*
X856710Y450565D01*
X835935Y450565D02*
X833500Y453000D01*
D14*
X833500Y453000D03*
D25*
X855685Y430000D02*
X856710Y428975D01*
X855685Y430000D02*
X825500Y430000D01*
X825000Y429500D01*
D14*
X825000Y429500D03*
X833277Y462223D03*
D25*
X871723Y462223D01*
X898645Y492500D02*
X899890Y493745D01*
X898645Y492500D02*
X890000Y492500D01*
X877500Y480000D01*
X877500Y468000D02*
X871723Y462223D01*
X877500Y468000D02*
X877500Y480000D01*
D14*
X820500Y453000D03*
D25*
X824500Y453000D01*
X837500Y440000D01*
X875000Y440000D01*
X894655Y472155D02*
X899890Y472155D01*
X894655Y472155D02*
X880000Y457500D01*
X880000Y445000D01*
X875000Y440000D01*
X899890Y450565D02*
X932000Y450565D01*
D20*
X932000Y450565D03*
D14*
X810000Y307500D03*
D25*
X832500Y307500D02*
X840565Y299435D01*
X832500Y307500D02*
X810000Y307500D01*
X840565Y299435D02*
X856710Y299435D01*
D14*
X524500Y446000D03*
X489000Y445888D03*
D15*
X489112Y446000D02*
X524500Y446000D01*
X489112Y446000D02*
X489000Y445888D01*
D14*
X520000Y547500D03*
D15*
X510500Y557000D01*
X510500Y635000D02*
X506000Y639500D01*
X510500Y635000D02*
X510500Y557000D01*
D14*
X506000Y639500D03*
X652500Y270000D03*
D15*
X658000Y264500D01*
X658000Y237000D01*
X660000Y235000D01*
D14*
X660000Y235000D03*
X506088Y649000D03*
D15*
X513588Y641500D02*
X513588Y563912D01*
X530000Y547500D01*
D14*
X530000Y547500D03*
D15*
X513588Y641500D02*
X506088Y649000D01*
D14*
X658973Y539973D03*
D15*
X661973Y542973D02*
X661973Y554973D01*
X661973Y542973D02*
X658973Y539973D01*
X661973Y554973D02*
X618187Y598759D01*
X553474Y598759D01*
X535866Y616366D01*
X535922Y616422D02*
X535922Y622636D01*
D14*
X535922Y622636D03*
D15*
X535922Y616422D02*
X535866Y616366D01*
X535922Y622636D02*
X535922Y658578D01*
D14*
X527500Y667500D03*
D15*
X527250Y667250D02*
X535922Y658578D01*
X527250Y667250D02*
X527500Y667500D01*
D14*
X651027Y542973D03*
X525000Y622500D03*
D15*
X552027Y595473D01*
X659027Y553973D02*
X659027Y548473D01*
X653527Y542973D01*
X651027Y542973D01*
X659027Y553973D02*
X617527Y595473D01*
X552027Y595473D01*
D14*
X418000Y622612D03*
D15*
X417817Y622429D01*
X450929Y622429D01*
D14*
X450929Y622429D03*
X423500Y616500D03*
D15*
X424000Y616000D02*
X458000Y616000D01*
X424000Y616000D02*
X423500Y616500D01*
D14*
X458000Y616000D03*
X652000Y261500D03*
X652500Y241000D03*
D15*
X652500Y261000D01*
X652000Y261500D01*
D14*
X665000Y305000D03*
D15*
X655000Y295000D01*
X654500Y295000D01*
D14*
X654500Y295000D03*
X810000Y297500D03*
D25*
X820000Y297500D02*
X839655Y277845D01*
X820000Y297500D02*
X810000Y297500D01*
X839655Y277845D02*
X856710Y277845D01*
D14*
X665612Y422690D03*
D23*
X640000Y422690D01*
X640000Y422500D01*
D14*
X665500Y448112D03*
D23*
X665000Y447612D01*
X640288Y447612D01*
X640000Y447900D01*
D14*
X440000Y687500D03*
D15*
X440000Y703612D01*
D14*
X440000Y703612D03*
M02*
