G04 EAGLE Gerber RS-274X export*
G75*
%MOMM*%
%FSLAX34Y34*%
%LPD*%
%INSilkscreen Top*%
%IPPOS*%
%AMOC8*
5,1,8,0,0,1.08239X$1,22.5*%
G01*
%ADD10C,0.127000*%
%ADD11C,0.050800*%
%ADD12C,0.203200*%
%ADD13R,0.381000X0.762000*%
%ADD14C,0.436994*%
%ADD15C,0.101600*%
%ADD16C,0.254000*%
%ADD17C,0.076200*%
%ADD18C,0.254000*%
%ADD19C,0.152400*%
%ADD20C,0.177800*%
%ADD21R,0.762000X0.381000*%
%ADD22R,0.127000X0.508000*%
%ADD23C,0.718400*%
%ADD24C,0.025400*%

G36*
X691357Y727184D02*
X691357Y727184D01*
X691359Y727183D01*
X691402Y727203D01*
X691446Y727221D01*
X691446Y727223D01*
X691448Y727224D01*
X691481Y727309D01*
X691481Y729849D01*
X691480Y729851D01*
X691481Y729853D01*
X691461Y729896D01*
X691443Y729940D01*
X691441Y729940D01*
X691440Y729942D01*
X691355Y729975D01*
X687545Y729975D01*
X687543Y729974D01*
X687541Y729975D01*
X687498Y729955D01*
X687454Y729937D01*
X687454Y729935D01*
X687452Y729934D01*
X687419Y729849D01*
X687419Y727309D01*
X687420Y727307D01*
X687419Y727305D01*
X687439Y727262D01*
X687457Y727218D01*
X687459Y727218D01*
X687460Y727216D01*
X687545Y727183D01*
X691355Y727183D01*
X691357Y727184D01*
G37*
G36*
X754857Y606026D02*
X754857Y606026D01*
X754859Y606025D01*
X754902Y606045D01*
X754946Y606063D01*
X754946Y606065D01*
X754948Y606066D01*
X754981Y606151D01*
X754981Y608691D01*
X754980Y608693D01*
X754981Y608695D01*
X754961Y608738D01*
X754943Y608782D01*
X754941Y608782D01*
X754940Y608784D01*
X754855Y608817D01*
X751045Y608817D01*
X751043Y608816D01*
X751041Y608817D01*
X750998Y608797D01*
X750954Y608779D01*
X750954Y608777D01*
X750952Y608776D01*
X750919Y608691D01*
X750919Y606151D01*
X750920Y606149D01*
X750919Y606147D01*
X750939Y606104D01*
X750957Y606060D01*
X750959Y606060D01*
X750960Y606058D01*
X751045Y606025D01*
X754855Y606025D01*
X754857Y606026D01*
G37*
D10*
X653135Y65635D02*
X653135Y79377D01*
X653135Y72506D02*
X662296Y72506D01*
X662296Y79377D02*
X662296Y65635D01*
X666947Y65635D02*
X666947Y79377D01*
X673818Y79377D01*
X676108Y77086D01*
X676108Y72506D01*
X673818Y70216D01*
X666947Y70216D01*
X680759Y77086D02*
X683049Y79377D01*
X687629Y79377D01*
X689920Y77086D01*
X689920Y74796D01*
X687629Y72506D01*
X689920Y70216D01*
X689920Y67925D01*
X687629Y65635D01*
X683049Y65635D01*
X680759Y67925D01*
X680759Y70216D01*
X683049Y72506D01*
X680759Y74796D01*
X680759Y77086D01*
X683049Y72506D02*
X687629Y72506D01*
X694570Y79377D02*
X703732Y79377D01*
X694570Y79377D02*
X694570Y72506D01*
X699151Y74796D01*
X701441Y74796D01*
X703732Y72506D01*
X703732Y67925D01*
X701441Y65635D01*
X696861Y65635D01*
X694570Y67925D01*
X708382Y65635D02*
X708382Y79377D01*
X708382Y65635D02*
X715253Y65635D01*
X717543Y67925D01*
X717543Y77086D01*
X715253Y79377D01*
X708382Y79377D01*
X722194Y74796D02*
X724484Y74796D01*
X724484Y65635D01*
X722194Y65635D02*
X726774Y65635D01*
X724484Y79377D02*
X724484Y81667D01*
X731402Y65635D02*
X738273Y65635D01*
X740563Y67925D01*
X738273Y70216D01*
X733692Y70216D01*
X731402Y72506D01*
X733692Y74796D01*
X740563Y74796D01*
X745214Y79377D02*
X745214Y65635D01*
X745214Y70216D02*
X752084Y65635D01*
X745214Y70216D02*
X752084Y74796D01*
X770535Y79377D02*
X779696Y79377D01*
X770535Y79377D02*
X770535Y65635D01*
X779696Y65635D01*
X775116Y72506D02*
X770535Y72506D01*
X784347Y74796D02*
X784347Y65635D01*
X784347Y74796D02*
X786637Y74796D01*
X788927Y72506D01*
X788927Y65635D01*
X788927Y72506D02*
X791218Y74796D01*
X793508Y72506D01*
X793508Y65635D01*
X798159Y67925D02*
X798159Y74796D01*
X798159Y67925D02*
X800449Y65635D01*
X807320Y65635D01*
X807320Y74796D01*
X811970Y79377D02*
X814261Y79377D01*
X814261Y65635D01*
X816551Y65635D02*
X811970Y65635D01*
X823469Y74796D02*
X828049Y74796D01*
X830339Y72506D01*
X830339Y65635D01*
X823469Y65635D01*
X821178Y67925D01*
X823469Y70216D01*
X830339Y70216D01*
X837280Y67925D02*
X837280Y77086D01*
X837280Y67925D02*
X839571Y65635D01*
X839571Y74796D02*
X834990Y74796D01*
X846488Y65635D02*
X851069Y65635D01*
X853359Y67925D01*
X853359Y72506D01*
X851069Y74796D01*
X846488Y74796D01*
X844198Y72506D01*
X844198Y67925D01*
X846488Y65635D01*
X858010Y65635D02*
X858010Y74796D01*
X858010Y70216D02*
X862590Y74796D01*
X864881Y74796D01*
X869520Y72506D02*
X878681Y72506D01*
X883331Y77086D02*
X883331Y67925D01*
X883331Y77086D02*
X885622Y79377D01*
X890202Y79377D01*
X892492Y77086D01*
X892492Y67925D01*
X890202Y65635D01*
X885622Y65635D01*
X883331Y67925D01*
X892492Y77086D01*
X897143Y65635D02*
X906304Y65635D01*
X897143Y65635D02*
X906304Y74796D01*
X906304Y77086D01*
X904014Y79377D01*
X899433Y79377D01*
X897143Y77086D01*
X653135Y46877D02*
X653135Y33135D01*
X657716Y42296D02*
X653135Y46877D01*
X657716Y42296D02*
X662296Y46877D01*
X662296Y33135D01*
X666947Y42296D02*
X669237Y42296D01*
X669237Y33135D01*
X666947Y33135D02*
X671527Y33135D01*
X669237Y46877D02*
X669237Y49167D01*
X676155Y46877D02*
X676155Y33135D01*
X676155Y37716D02*
X683025Y33135D01*
X676155Y37716D02*
X683025Y42296D01*
X689955Y33135D02*
X694535Y33135D01*
X689955Y33135D02*
X687664Y35425D01*
X687664Y40006D01*
X689955Y42296D01*
X694535Y42296D01*
X696826Y40006D01*
X696826Y37716D01*
X687664Y37716D01*
X722159Y46877D02*
X724449Y44586D01*
X722159Y46877D02*
X717578Y46877D01*
X715288Y44586D01*
X715288Y35425D01*
X717578Y33135D01*
X722159Y33135D01*
X724449Y35425D01*
X724449Y40006D01*
X719869Y40006D01*
X731390Y33135D02*
X735971Y33135D01*
X738261Y35425D01*
X738261Y40006D01*
X735971Y42296D01*
X731390Y42296D01*
X729100Y40006D01*
X729100Y35425D01*
X731390Y33135D01*
X742912Y33135D02*
X742912Y42296D01*
X742912Y37716D02*
X747492Y42296D01*
X749782Y42296D01*
X756712Y33135D02*
X761292Y33135D01*
X756712Y33135D02*
X754421Y35425D01*
X754421Y40006D01*
X756712Y42296D01*
X761292Y42296D01*
X763583Y40006D01*
X763583Y37716D01*
X754421Y37716D01*
X781135Y36925D02*
X783425Y34635D01*
X785716Y34635D01*
X788006Y36925D01*
X788006Y48377D01*
X785716Y48377D02*
X790296Y48377D01*
X797237Y43796D02*
X801818Y43796D01*
X804108Y41506D01*
X804108Y34635D01*
X797237Y34635D01*
X794947Y36925D01*
X797237Y39216D01*
X804108Y39216D01*
X808759Y36925D02*
X808759Y43796D01*
X808759Y36925D02*
X811049Y34635D01*
X817920Y34635D01*
X817920Y32345D02*
X817920Y43796D01*
X817920Y32345D02*
X815629Y30054D01*
X813339Y30054D01*
X836382Y34635D02*
X836382Y48377D01*
X836382Y41506D02*
X845543Y41506D01*
X845543Y48377D02*
X845543Y34635D01*
X852484Y43796D02*
X857065Y43796D01*
X859355Y41506D01*
X859355Y34635D01*
X852484Y34635D01*
X850194Y36925D01*
X852484Y39216D01*
X859355Y39216D01*
X864006Y43796D02*
X864006Y34635D01*
X864006Y43796D02*
X866296Y43796D01*
X868586Y41506D01*
X868586Y34635D01*
X868586Y41506D02*
X870877Y43796D01*
X873167Y41506D01*
X873167Y34635D01*
X877817Y48377D02*
X880108Y48377D01*
X880108Y34635D01*
X882398Y34635D02*
X877817Y34635D01*
X887025Y43796D02*
X889316Y43796D01*
X889316Y34635D01*
X891606Y34635D02*
X887025Y34635D01*
X889316Y48377D02*
X889316Y50667D01*
X896233Y43796D02*
X896233Y34635D01*
X896233Y43796D02*
X903104Y43796D01*
X905394Y41506D01*
X905394Y34635D01*
X70973Y311142D02*
X60635Y311142D01*
X60635Y303389D01*
X65804Y305973D01*
X68389Y305973D01*
X70973Y303389D01*
X70973Y298220D01*
X68389Y295635D01*
X63220Y295635D01*
X60635Y298220D01*
X76071Y300804D02*
X76071Y311142D01*
X76071Y300804D02*
X81240Y295635D01*
X86409Y300804D01*
X86409Y311142D01*
X91507Y308558D02*
X91507Y298220D01*
X91507Y308558D02*
X94092Y311142D01*
X99261Y311142D01*
X101845Y308558D01*
X101845Y298220D01*
X99261Y295635D01*
X94092Y295635D01*
X91507Y298220D01*
X101845Y308558D01*
X278135Y271058D02*
X280720Y273642D01*
X285889Y273642D01*
X288473Y271058D01*
X288473Y268473D01*
X285889Y265889D01*
X283304Y265889D01*
X285889Y265889D02*
X288473Y263304D01*
X288473Y260720D01*
X285889Y258135D01*
X280720Y258135D01*
X278135Y260720D01*
X293571Y263304D02*
X293571Y273642D01*
X293571Y263304D02*
X298740Y258135D01*
X303909Y263304D01*
X303909Y273642D01*
X309007Y271058D02*
X311592Y273642D01*
X316761Y273642D01*
X319345Y271058D01*
X319345Y268473D01*
X316761Y265889D01*
X314176Y265889D01*
X316761Y265889D02*
X319345Y263304D01*
X319345Y260720D01*
X316761Y258135D01*
X311592Y258135D01*
X309007Y260720D01*
X213135Y538304D02*
X213135Y548642D01*
X213135Y538304D02*
X218304Y533135D01*
X223473Y538304D01*
X223473Y548642D01*
X228571Y533135D02*
X233740Y533135D01*
X231156Y533135D02*
X231156Y548642D01*
X233740Y548642D02*
X228571Y548642D01*
X238862Y548642D02*
X238862Y533135D01*
X249200Y533135D02*
X238862Y548642D01*
X249200Y548642D02*
X249200Y533135D01*
X110973Y718558D02*
X108389Y721142D01*
X103220Y721142D01*
X100635Y718558D01*
X100635Y708220D01*
X103220Y705635D01*
X108389Y705635D01*
X110973Y708220D01*
X110973Y713389D01*
X105804Y713389D01*
X116071Y721142D02*
X116071Y705635D01*
X126409Y705635D02*
X116071Y721142D01*
X126409Y721142D02*
X126409Y705635D01*
X131507Y705635D02*
X131507Y721142D01*
X131507Y705635D02*
X139261Y705635D01*
X141845Y708220D01*
X141845Y718558D01*
X139261Y721142D01*
X131507Y721142D01*
X425635Y675635D02*
X430804Y675635D01*
X428220Y675635D02*
X428220Y691142D01*
X430804Y691142D02*
X425635Y691142D01*
X443679Y691142D02*
X446264Y688558D01*
X443679Y691142D02*
X438510Y691142D01*
X435926Y688558D01*
X435926Y685973D01*
X438510Y683389D01*
X443679Y683389D01*
X446264Y680804D01*
X446264Y678220D01*
X443679Y675635D01*
X438510Y675635D01*
X435926Y678220D01*
X451362Y675635D02*
X451362Y691142D01*
X459115Y691142D01*
X461700Y688558D01*
X461700Y683389D01*
X459115Y680804D01*
X451362Y680804D01*
X425635Y730973D02*
X430804Y736142D01*
X430804Y720635D01*
X425635Y720635D02*
X435973Y720635D01*
X253304Y31142D02*
X253304Y15635D01*
X248135Y31142D02*
X258473Y31142D01*
X263571Y31142D02*
X273909Y15635D01*
X263571Y15635D02*
X273909Y31142D01*
X205635Y31142D02*
X205635Y15635D01*
X205635Y31142D02*
X213389Y31142D01*
X215973Y28558D01*
X215973Y23389D01*
X213389Y20804D01*
X205635Y20804D01*
X210804Y20804D02*
X215973Y15635D01*
X231409Y15635D02*
X221071Y31142D01*
X231409Y31142D02*
X221071Y15635D01*
D11*
X640469Y561455D02*
X639537Y562387D01*
X637673Y562387D01*
X636741Y561455D01*
X636741Y557726D01*
X637673Y556794D01*
X639537Y556794D01*
X640469Y557726D01*
X642354Y560523D02*
X644218Y562387D01*
X644218Y556794D01*
X642354Y556794D02*
X646083Y556794D01*
X571282Y454941D02*
X565689Y454941D01*
X565689Y457737D01*
X566621Y458669D01*
X568486Y458669D01*
X569418Y457737D01*
X569418Y454941D01*
X569418Y456805D02*
X571282Y458669D01*
X571282Y460554D02*
X571282Y464282D01*
X571282Y460554D02*
X567554Y464282D01*
X566621Y464282D01*
X565689Y463350D01*
X565689Y461486D01*
X566621Y460554D01*
X327912Y684818D02*
X322319Y684818D01*
X322319Y687614D01*
X323251Y688546D01*
X325116Y688546D01*
X326048Y687614D01*
X326048Y684818D01*
X326048Y686682D02*
X327912Y688546D01*
X323251Y690431D02*
X322319Y691363D01*
X322319Y693227D01*
X323251Y694159D01*
X324184Y694159D01*
X325116Y693227D01*
X325116Y692295D01*
X325116Y693227D02*
X326048Y694159D01*
X326980Y694159D01*
X327912Y693227D01*
X327912Y691363D01*
X326980Y690431D01*
X543037Y650167D02*
X543969Y649235D01*
X543037Y650167D02*
X541173Y650167D01*
X540241Y649235D01*
X540241Y645506D01*
X541173Y644574D01*
X543037Y644574D01*
X543969Y645506D01*
X545854Y644574D02*
X549583Y644574D01*
X545854Y644574D02*
X549583Y648303D01*
X549583Y649235D01*
X548650Y650167D01*
X546786Y650167D01*
X545854Y649235D01*
D12*
X577045Y401763D02*
X590695Y401763D01*
X588633Y406713D02*
X583870Y401950D01*
X579108Y406713D01*
D11*
X580758Y364728D02*
X586351Y364728D01*
X586351Y368456D01*
X580758Y370341D02*
X580758Y374069D01*
X580758Y370341D02*
X586351Y370341D01*
X586351Y374069D01*
X583555Y372205D02*
X583555Y370341D01*
X586351Y375954D02*
X580758Y375954D01*
X586351Y375954D02*
X586351Y378750D01*
X585419Y379682D01*
X581690Y379682D01*
X580758Y378750D01*
X580758Y375954D01*
X582623Y381567D02*
X580758Y383431D01*
X586351Y383431D01*
X586351Y381567D02*
X586351Y385296D01*
D12*
X215200Y661300D02*
X190100Y661300D01*
X177400Y671300D02*
X177400Y702100D01*
X190400Y712100D02*
X215200Y712100D01*
X228200Y702100D02*
X228200Y671300D01*
X190100Y686700D02*
X190104Y687012D01*
X190115Y687323D01*
X190134Y687634D01*
X190161Y687945D01*
X190196Y688255D01*
X190237Y688563D01*
X190287Y688871D01*
X190344Y689178D01*
X190409Y689483D01*
X190481Y689786D01*
X190560Y690087D01*
X190647Y690387D01*
X190741Y690684D01*
X190842Y690979D01*
X190951Y691271D01*
X191067Y691560D01*
X191190Y691847D01*
X191319Y692130D01*
X191456Y692410D01*
X191600Y692687D01*
X191750Y692960D01*
X191907Y693229D01*
X192070Y693494D01*
X192240Y693756D01*
X192417Y694013D01*
X192599Y694265D01*
X192788Y694513D01*
X192983Y694757D01*
X193183Y694995D01*
X193390Y695229D01*
X193602Y695457D01*
X193820Y695680D01*
X194043Y695898D01*
X194271Y696110D01*
X194505Y696317D01*
X194743Y696517D01*
X194987Y696712D01*
X195235Y696901D01*
X195487Y697083D01*
X195744Y697260D01*
X196006Y697430D01*
X196271Y697593D01*
X196540Y697750D01*
X196813Y697900D01*
X197090Y698044D01*
X197370Y698181D01*
X197653Y698310D01*
X197940Y698433D01*
X198229Y698549D01*
X198521Y698658D01*
X198816Y698759D01*
X199113Y698853D01*
X199413Y698940D01*
X199714Y699019D01*
X200017Y699091D01*
X200322Y699156D01*
X200629Y699213D01*
X200937Y699263D01*
X201245Y699304D01*
X201555Y699339D01*
X201866Y699366D01*
X202177Y699385D01*
X202488Y699396D01*
X202800Y699400D01*
X203112Y699396D01*
X203423Y699385D01*
X203734Y699366D01*
X204045Y699339D01*
X204355Y699304D01*
X204663Y699263D01*
X204971Y699213D01*
X205278Y699156D01*
X205583Y699091D01*
X205886Y699019D01*
X206187Y698940D01*
X206487Y698853D01*
X206784Y698759D01*
X207079Y698658D01*
X207371Y698549D01*
X207660Y698433D01*
X207947Y698310D01*
X208230Y698181D01*
X208510Y698044D01*
X208787Y697900D01*
X209060Y697750D01*
X209329Y697593D01*
X209594Y697430D01*
X209856Y697260D01*
X210113Y697083D01*
X210365Y696901D01*
X210613Y696712D01*
X210857Y696517D01*
X211095Y696317D01*
X211329Y696110D01*
X211557Y695898D01*
X211780Y695680D01*
X211998Y695457D01*
X212210Y695229D01*
X212417Y694995D01*
X212617Y694757D01*
X212812Y694513D01*
X213001Y694265D01*
X213183Y694013D01*
X213360Y693756D01*
X213530Y693494D01*
X213693Y693229D01*
X213850Y692960D01*
X214000Y692687D01*
X214144Y692410D01*
X214281Y692130D01*
X214410Y691847D01*
X214533Y691560D01*
X214649Y691271D01*
X214758Y690979D01*
X214859Y690684D01*
X214953Y690387D01*
X215040Y690087D01*
X215119Y689786D01*
X215191Y689483D01*
X215256Y689178D01*
X215313Y688871D01*
X215363Y688563D01*
X215404Y688255D01*
X215439Y687945D01*
X215466Y687634D01*
X215485Y687323D01*
X215496Y687012D01*
X215500Y686700D01*
X215496Y686388D01*
X215485Y686077D01*
X215466Y685766D01*
X215439Y685455D01*
X215404Y685145D01*
X215363Y684837D01*
X215313Y684529D01*
X215256Y684222D01*
X215191Y683917D01*
X215119Y683614D01*
X215040Y683313D01*
X214953Y683013D01*
X214859Y682716D01*
X214758Y682421D01*
X214649Y682129D01*
X214533Y681840D01*
X214410Y681553D01*
X214281Y681270D01*
X214144Y680990D01*
X214000Y680713D01*
X213850Y680440D01*
X213693Y680171D01*
X213530Y679906D01*
X213360Y679644D01*
X213183Y679387D01*
X213001Y679135D01*
X212812Y678887D01*
X212617Y678643D01*
X212417Y678405D01*
X212210Y678171D01*
X211998Y677943D01*
X211780Y677720D01*
X211557Y677502D01*
X211329Y677290D01*
X211095Y677083D01*
X210857Y676883D01*
X210613Y676688D01*
X210365Y676499D01*
X210113Y676317D01*
X209856Y676140D01*
X209594Y675970D01*
X209329Y675807D01*
X209060Y675650D01*
X208787Y675500D01*
X208510Y675356D01*
X208230Y675219D01*
X207947Y675090D01*
X207660Y674967D01*
X207371Y674851D01*
X207079Y674742D01*
X206784Y674641D01*
X206487Y674547D01*
X206187Y674460D01*
X205886Y674381D01*
X205583Y674309D01*
X205278Y674244D01*
X204971Y674187D01*
X204663Y674137D01*
X204355Y674096D01*
X204045Y674061D01*
X203734Y674034D01*
X203423Y674015D01*
X203112Y674004D01*
X202800Y674000D01*
X202488Y674004D01*
X202177Y674015D01*
X201866Y674034D01*
X201555Y674061D01*
X201245Y674096D01*
X200937Y674137D01*
X200629Y674187D01*
X200322Y674244D01*
X200017Y674309D01*
X199714Y674381D01*
X199413Y674460D01*
X199113Y674547D01*
X198816Y674641D01*
X198521Y674742D01*
X198229Y674851D01*
X197940Y674967D01*
X197653Y675090D01*
X197370Y675219D01*
X197090Y675356D01*
X196813Y675500D01*
X196540Y675650D01*
X196271Y675807D01*
X196006Y675970D01*
X195744Y676140D01*
X195487Y676317D01*
X195235Y676499D01*
X194987Y676688D01*
X194743Y676883D01*
X194505Y677083D01*
X194271Y677290D01*
X194043Y677502D01*
X193820Y677720D01*
X193602Y677943D01*
X193390Y678171D01*
X193183Y678405D01*
X192983Y678643D01*
X192788Y678887D01*
X192599Y679135D01*
X192417Y679387D01*
X192240Y679644D01*
X192070Y679906D01*
X191907Y680171D01*
X191750Y680440D01*
X191600Y680713D01*
X191456Y680990D01*
X191319Y681270D01*
X191190Y681553D01*
X191067Y681840D01*
X190951Y682129D01*
X190842Y682421D01*
X190741Y682716D01*
X190647Y683013D01*
X190560Y683313D01*
X190481Y683614D01*
X190409Y683917D01*
X190344Y684222D01*
X190287Y684529D01*
X190237Y684837D01*
X190196Y685145D01*
X190161Y685455D01*
X190134Y685766D01*
X190115Y686077D01*
X190104Y686388D01*
X190100Y686700D01*
D11*
X159946Y698839D02*
X159014Y699771D01*
X157150Y699771D01*
X156218Y698839D01*
X156218Y697907D01*
X157150Y696974D01*
X159014Y696974D01*
X159946Y696042D01*
X159946Y695110D01*
X159014Y694178D01*
X157150Y694178D01*
X156218Y695110D01*
X161831Y697907D02*
X163695Y699771D01*
X163695Y694178D01*
X161831Y694178D02*
X165559Y694178D01*
D13*
X498400Y343500D03*
D11*
X517264Y343874D02*
X517264Y349467D01*
X520060Y349467D01*
X520993Y348535D01*
X520993Y346670D01*
X520060Y345738D01*
X517264Y345738D01*
X519128Y345738D02*
X520993Y343874D01*
X522877Y347603D02*
X524741Y349467D01*
X524741Y343874D01*
X522877Y343874D02*
X526606Y343874D01*
X528490Y343874D02*
X532219Y343874D01*
X528490Y343874D02*
X532219Y347603D01*
X532219Y348535D01*
X531287Y349467D01*
X529422Y349467D01*
X528490Y348535D01*
D13*
X329400Y339500D03*
D11*
X321705Y331631D02*
X321705Y326038D01*
X321705Y331631D02*
X324501Y331631D01*
X325433Y330699D01*
X325433Y328834D01*
X324501Y327902D01*
X321705Y327902D01*
X323569Y327902D02*
X325433Y326038D01*
X327318Y329767D02*
X329182Y331631D01*
X329182Y326038D01*
X327318Y326038D02*
X331046Y326038D01*
X334795Y330699D02*
X336659Y331631D01*
X334795Y330699D02*
X332931Y328834D01*
X332931Y326970D01*
X333863Y326038D01*
X335727Y326038D01*
X336659Y326970D01*
X336659Y327902D01*
X335727Y328834D01*
X332931Y328834D01*
D13*
X497900Y362400D03*
D11*
X516764Y362774D02*
X516764Y368367D01*
X519560Y368367D01*
X520493Y367435D01*
X520493Y365570D01*
X519560Y364638D01*
X516764Y364638D01*
X518628Y364638D02*
X520493Y362774D01*
X522377Y366503D02*
X524241Y368367D01*
X524241Y362774D01*
X522377Y362774D02*
X526106Y362774D01*
X527990Y368367D02*
X531719Y368367D01*
X531719Y367435D01*
X527990Y363706D01*
X527990Y362774D01*
D12*
X379737Y348982D02*
X379737Y433818D01*
X414853Y437628D02*
X414966Y437644D01*
X415080Y437655D01*
X415194Y437662D01*
X415308Y437666D01*
X415423Y437665D01*
X415537Y437661D01*
X415651Y437653D01*
X415765Y437641D01*
X415878Y437625D01*
X415990Y437605D01*
X416102Y437581D01*
X416213Y437554D01*
X416323Y437522D01*
X416432Y437487D01*
X416540Y437449D01*
X416646Y437406D01*
X416750Y437360D01*
X416854Y437311D01*
X416955Y437258D01*
X417054Y437202D01*
X417152Y437142D01*
X417247Y437079D01*
X417340Y437012D01*
X417431Y436943D01*
X417519Y436871D01*
X417605Y436795D01*
X417689Y436717D01*
X417769Y436636D01*
X417847Y436552D01*
X417922Y436465D01*
X417993Y436376D01*
X418062Y436285D01*
X418128Y436191D01*
X418190Y436096D01*
X418249Y435998D01*
X418305Y435898D01*
X418357Y435796D01*
X418406Y435693D01*
X418451Y435588D01*
X418492Y435481D01*
X418530Y435373D01*
X418565Y435264D01*
X418595Y435154D01*
X418622Y435043D01*
X418644Y434931D01*
X418663Y434818D01*
X379737Y348982D02*
X379754Y348852D01*
X379775Y348723D01*
X379800Y348594D01*
X379828Y348466D01*
X379861Y348339D01*
X379897Y348213D01*
X379938Y348088D01*
X379982Y347965D01*
X380029Y347843D01*
X380081Y347722D01*
X380135Y347603D01*
X380194Y347486D01*
X380256Y347371D01*
X380321Y347257D01*
X380390Y347145D01*
X380463Y347036D01*
X380538Y346929D01*
X380617Y346824D01*
X380699Y346722D01*
X380784Y346622D01*
X380871Y346525D01*
X380962Y346430D01*
X381056Y346338D01*
X381152Y346249D01*
X381251Y346163D01*
X381352Y346081D01*
X381456Y346001D01*
X381563Y345924D01*
X381671Y345851D01*
X381782Y345781D01*
X381895Y345714D01*
X382010Y345651D01*
X382126Y345591D01*
X382245Y345535D01*
X382365Y345482D01*
X382486Y345433D01*
X382609Y345388D01*
X382734Y345346D01*
X382859Y345308D01*
X382986Y345275D01*
X383113Y345244D01*
X383242Y345218D01*
X383371Y345196D01*
X383501Y345177D01*
X383631Y345163D01*
X383762Y345152D01*
X383893Y345146D01*
X384024Y345143D01*
X384155Y345144D01*
X384286Y345150D01*
X384416Y345159D01*
X384547Y345172D01*
X379737Y433818D02*
X379739Y433940D01*
X379745Y434062D01*
X379755Y434184D01*
X379768Y434305D01*
X379786Y434426D01*
X379807Y434546D01*
X379832Y434666D01*
X379861Y434785D01*
X379894Y434902D01*
X379931Y435019D01*
X379971Y435134D01*
X380015Y435248D01*
X380063Y435360D01*
X380114Y435471D01*
X380169Y435580D01*
X380227Y435688D01*
X380289Y435793D01*
X380354Y435897D01*
X380422Y435998D01*
X380493Y436097D01*
X380568Y436194D01*
X380646Y436288D01*
X380726Y436380D01*
X380810Y436469D01*
X380896Y436555D01*
X380985Y436639D01*
X381077Y436719D01*
X381171Y436797D01*
X381268Y436872D01*
X381367Y436943D01*
X381468Y437011D01*
X381572Y437076D01*
X381677Y437138D01*
X381785Y437196D01*
X381894Y437251D01*
X382005Y437302D01*
X382117Y437350D01*
X382231Y437394D01*
X382346Y437434D01*
X382463Y437471D01*
X382580Y437504D01*
X382699Y437533D01*
X382819Y437558D01*
X382939Y437579D01*
X383060Y437597D01*
X383181Y437610D01*
X383303Y437620D01*
X383425Y437626D01*
X383547Y437628D01*
X418663Y348983D02*
X418678Y348869D01*
X418690Y348755D01*
X418697Y348641D01*
X418701Y348527D01*
X418700Y348413D01*
X418696Y348298D01*
X418688Y348184D01*
X418676Y348071D01*
X418660Y347958D01*
X418640Y347845D01*
X418616Y347733D01*
X418589Y347622D01*
X418558Y347512D01*
X418523Y347403D01*
X418484Y347296D01*
X418442Y347189D01*
X418396Y347085D01*
X418346Y346982D01*
X418293Y346880D01*
X418237Y346781D01*
X418177Y346683D01*
X418114Y346588D01*
X418048Y346495D01*
X417978Y346404D01*
X417906Y346316D01*
X417830Y346230D01*
X417752Y346147D01*
X417671Y346066D01*
X417587Y345988D01*
X417501Y345914D01*
X417412Y345842D01*
X417320Y345773D01*
X417227Y345707D01*
X417131Y345645D01*
X417033Y345586D01*
X416933Y345530D01*
X416831Y345478D01*
X416728Y345430D01*
X416623Y345384D01*
X416516Y345343D01*
X416408Y345305D01*
X416299Y345271D01*
X416189Y345241D01*
X416078Y345214D01*
X415966Y345191D01*
X415853Y345172D01*
X418663Y348982D02*
X418663Y434818D01*
X414853Y437628D02*
X383547Y437628D01*
X393104Y345680D02*
X393106Y345838D01*
X393112Y345997D01*
X393122Y346155D01*
X393136Y346312D01*
X393153Y346470D01*
X393175Y346626D01*
X393200Y346783D01*
X393230Y346938D01*
X393263Y347093D01*
X393300Y347247D01*
X393341Y347400D01*
X393386Y347552D01*
X393435Y347702D01*
X393487Y347852D01*
X393543Y348000D01*
X393603Y348147D01*
X393666Y348292D01*
X393733Y348435D01*
X393803Y348577D01*
X393877Y348717D01*
X393955Y348855D01*
X394036Y348991D01*
X394120Y349125D01*
X394207Y349257D01*
X394298Y349387D01*
X394392Y349514D01*
X394489Y349639D01*
X394590Y349762D01*
X394693Y349882D01*
X394799Y349999D01*
X394908Y350114D01*
X395020Y350226D01*
X395135Y350335D01*
X395252Y350441D01*
X395372Y350544D01*
X395495Y350645D01*
X395620Y350742D01*
X395747Y350836D01*
X395877Y350927D01*
X396009Y351014D01*
X396143Y351098D01*
X396279Y351179D01*
X396417Y351257D01*
X396557Y351331D01*
X396699Y351401D01*
X396842Y351468D01*
X396987Y351531D01*
X397134Y351591D01*
X397282Y351647D01*
X397432Y351699D01*
X397582Y351748D01*
X397734Y351793D01*
X397887Y351834D01*
X398041Y351871D01*
X398196Y351904D01*
X398351Y351934D01*
X398508Y351959D01*
X398664Y351981D01*
X398822Y351998D01*
X398979Y352012D01*
X399137Y352022D01*
X399296Y352028D01*
X399454Y352030D01*
X399612Y352028D01*
X399771Y352022D01*
X399929Y352012D01*
X400086Y351998D01*
X400244Y351981D01*
X400400Y351959D01*
X400557Y351934D01*
X400712Y351904D01*
X400867Y351871D01*
X401021Y351834D01*
X401174Y351793D01*
X401326Y351748D01*
X401476Y351699D01*
X401626Y351647D01*
X401774Y351591D01*
X401921Y351531D01*
X402066Y351468D01*
X402209Y351401D01*
X402351Y351331D01*
X402491Y351257D01*
X402629Y351179D01*
X402765Y351098D01*
X402899Y351014D01*
X403031Y350927D01*
X403161Y350836D01*
X403288Y350742D01*
X403413Y350645D01*
X403536Y350544D01*
X403656Y350441D01*
X403773Y350335D01*
X403888Y350226D01*
X404000Y350114D01*
X404109Y349999D01*
X404215Y349882D01*
X404318Y349762D01*
X404419Y349639D01*
X404516Y349514D01*
X404610Y349387D01*
X404701Y349257D01*
X404788Y349125D01*
X404872Y348991D01*
X404953Y348855D01*
X405031Y348717D01*
X405105Y348577D01*
X405175Y348435D01*
X405242Y348292D01*
X405305Y348147D01*
X405365Y348000D01*
X405421Y347852D01*
X405473Y347702D01*
X405522Y347552D01*
X405567Y347400D01*
X405608Y347247D01*
X405645Y347093D01*
X405678Y346938D01*
X405708Y346783D01*
X405733Y346626D01*
X405755Y346470D01*
X405772Y346312D01*
X405786Y346155D01*
X405796Y345997D01*
X405802Y345838D01*
X405804Y345680D01*
X393104Y345172D02*
X384674Y345172D01*
X405804Y345172D02*
X415853Y345172D01*
D14*
X422314Y345680D03*
D15*
X395158Y341810D02*
X395158Y334183D01*
X396683Y332658D01*
X399734Y332658D01*
X401259Y334183D01*
X401259Y341810D01*
X404513Y340285D02*
X406038Y341810D01*
X409089Y341810D01*
X410614Y340285D01*
X410614Y338759D01*
X409089Y337234D01*
X410614Y335709D01*
X410614Y334183D01*
X409089Y332658D01*
X406038Y332658D01*
X404513Y334183D01*
X404513Y335709D01*
X406038Y337234D01*
X404513Y338759D01*
X404513Y340285D01*
X406038Y337234D02*
X409089Y337234D01*
D13*
X497900Y381900D03*
D11*
X516764Y382274D02*
X516764Y387867D01*
X519560Y387867D01*
X520493Y386935D01*
X520493Y385070D01*
X519560Y384138D01*
X516764Y384138D01*
X518628Y384138D02*
X520493Y382274D01*
X522377Y386003D02*
X524241Y387867D01*
X524241Y382274D01*
X522377Y382274D02*
X526106Y382274D01*
X527990Y386935D02*
X528922Y387867D01*
X530787Y387867D01*
X531719Y386935D01*
X531719Y386003D01*
X530787Y385070D01*
X531719Y384138D01*
X531719Y383206D01*
X530787Y382274D01*
X528922Y382274D01*
X527990Y383206D01*
X527990Y384138D01*
X528922Y385070D01*
X527990Y386003D01*
X527990Y386935D01*
X528922Y385070D02*
X530787Y385070D01*
D16*
X578790Y300150D02*
X622780Y300150D01*
X622780Y246810D01*
X621780Y80710D02*
X621780Y10320D01*
X607600Y10200D01*
X335330Y10320D02*
X335330Y69090D01*
X335330Y10320D02*
X345110Y10320D01*
X336220Y300150D02*
X335330Y300150D01*
X335330Y246810D01*
D17*
X641581Y112449D02*
X643149Y110881D01*
X644716Y110881D01*
X646284Y112449D01*
X646284Y120287D01*
X644716Y120287D02*
X647852Y120287D01*
X650936Y118719D02*
X652504Y120287D01*
X655639Y120287D01*
X657207Y118719D01*
X657207Y117152D01*
X655639Y115584D01*
X654072Y115584D01*
X655639Y115584D02*
X657207Y114016D01*
X657207Y112449D01*
X655639Y110881D01*
X652504Y110881D01*
X650936Y112449D01*
D11*
X94765Y247163D02*
X93833Y246231D01*
X93833Y244366D01*
X94765Y243434D01*
X98494Y243434D01*
X99426Y244366D01*
X99426Y246231D01*
X98494Y247163D01*
X95698Y249047D02*
X93833Y250912D01*
X99426Y250912D01*
X99426Y252776D02*
X99426Y249047D01*
X95698Y254661D02*
X93833Y256525D01*
X99426Y256525D01*
X99426Y254661D02*
X99426Y258389D01*
X261969Y54041D02*
X267562Y54041D01*
X261969Y54041D02*
X261969Y56837D01*
X262901Y57769D01*
X264766Y57769D01*
X265698Y56837D01*
X265698Y54041D01*
X265698Y55905D02*
X267562Y57769D01*
X262901Y61518D02*
X261969Y63382D01*
X262901Y61518D02*
X264766Y59654D01*
X266630Y59654D01*
X267562Y60586D01*
X267562Y62450D01*
X266630Y63382D01*
X265698Y63382D01*
X264766Y62450D01*
X264766Y59654D01*
X468434Y480474D02*
X468434Y486067D01*
X471231Y486067D01*
X472163Y485135D01*
X472163Y483270D01*
X471231Y482338D01*
X468434Y482338D01*
X470299Y482338D02*
X472163Y480474D01*
X474047Y484203D02*
X475912Y486067D01*
X475912Y480474D01*
X477776Y480474D02*
X474047Y480474D01*
X479661Y481406D02*
X480593Y480474D01*
X482457Y480474D01*
X483389Y481406D01*
X483389Y485135D01*
X482457Y486067D01*
X480593Y486067D01*
X479661Y485135D01*
X479661Y484203D01*
X480593Y483270D01*
X483389Y483270D01*
X449934Y480474D02*
X449934Y486067D01*
X452731Y486067D01*
X453663Y485135D01*
X453663Y483270D01*
X452731Y482338D01*
X449934Y482338D01*
X451799Y482338D02*
X453663Y480474D01*
X455547Y480474D02*
X459276Y480474D01*
X455547Y480474D02*
X459276Y484203D01*
X459276Y485135D01*
X458344Y486067D01*
X456480Y486067D01*
X455547Y485135D01*
X461161Y485135D02*
X461161Y481406D01*
X461161Y485135D02*
X462093Y486067D01*
X463957Y486067D01*
X464889Y485135D01*
X464889Y481406D01*
X463957Y480474D01*
X462093Y480474D01*
X461161Y481406D01*
X464889Y485135D01*
X190501Y95463D02*
X189569Y94531D01*
X189569Y92666D01*
X190501Y91734D01*
X194230Y91734D01*
X195162Y92666D01*
X195162Y94531D01*
X194230Y95463D01*
X191434Y97347D02*
X189569Y99212D01*
X195162Y99212D01*
X195162Y101076D02*
X195162Y97347D01*
X190501Y104825D02*
X189569Y106689D01*
X190501Y104825D02*
X192366Y102961D01*
X194230Y102961D01*
X195162Y103893D01*
X195162Y105757D01*
X194230Y106689D01*
X193298Y106689D01*
X192366Y105757D01*
X192366Y102961D01*
D12*
X153470Y226380D02*
X153470Y241620D01*
D11*
X172731Y259321D02*
X173663Y258389D01*
X172731Y259321D02*
X170866Y259321D01*
X169934Y258389D01*
X169934Y254660D01*
X170866Y253728D01*
X172731Y253728D01*
X173663Y254660D01*
X175547Y257457D02*
X177412Y259321D01*
X177412Y253728D01*
X179276Y253728D02*
X175547Y253728D01*
X181161Y259321D02*
X184889Y259321D01*
X184889Y258389D01*
X181161Y254660D01*
X181161Y253728D01*
X126934Y186967D02*
X126934Y181374D01*
X126934Y186967D02*
X129731Y186967D01*
X130663Y186035D01*
X130663Y184170D01*
X129731Y183238D01*
X126934Y183238D01*
X128799Y183238D02*
X130663Y181374D01*
X132547Y181374D02*
X136276Y181374D01*
X132547Y181374D02*
X136276Y185103D01*
X136276Y186035D01*
X135344Y186967D01*
X133480Y186967D01*
X132547Y186035D01*
X138161Y185103D02*
X140025Y186967D01*
X140025Y181374D01*
X138161Y181374D02*
X141889Y181374D01*
X126434Y177467D02*
X126434Y171874D01*
X126434Y177467D02*
X129231Y177467D01*
X130163Y176535D01*
X130163Y174670D01*
X129231Y173738D01*
X126434Y173738D01*
X128299Y173738D02*
X130163Y171874D01*
X132047Y171874D02*
X135776Y171874D01*
X132047Y171874D02*
X135776Y175603D01*
X135776Y176535D01*
X134844Y177467D01*
X132980Y177467D01*
X132047Y176535D01*
X137661Y171874D02*
X141389Y171874D01*
X137661Y171874D02*
X141389Y175603D01*
X141389Y176535D01*
X140457Y177467D01*
X138593Y177467D01*
X137661Y176535D01*
X169201Y95663D02*
X168269Y94731D01*
X168269Y92866D01*
X169201Y91934D01*
X172930Y91934D01*
X173862Y92866D01*
X173862Y94731D01*
X172930Y95663D01*
X173862Y97547D02*
X173862Y101276D01*
X170134Y101276D02*
X173862Y97547D01*
X170134Y101276D02*
X169201Y101276D01*
X168269Y100344D01*
X168269Y98480D01*
X169201Y97547D01*
X169201Y103161D02*
X172930Y103161D01*
X169201Y103161D02*
X168269Y104093D01*
X168269Y105957D01*
X169201Y106889D01*
X172930Y106889D01*
X173862Y105957D01*
X173862Y104093D01*
X172930Y103161D01*
X169201Y106889D01*
D12*
X214175Y64238D02*
X227825Y64238D01*
X221000Y64050D02*
X216238Y59288D01*
X221000Y64050D02*
X225763Y59288D01*
D11*
X211221Y46728D02*
X205628Y46728D01*
X211221Y46728D02*
X211221Y50456D01*
X205628Y52341D02*
X205628Y56069D01*
X205628Y52341D02*
X211221Y52341D01*
X211221Y56069D01*
X208425Y54205D02*
X208425Y52341D01*
X211221Y57954D02*
X205628Y57954D01*
X211221Y57954D02*
X211221Y60750D01*
X210289Y61682D01*
X206560Y61682D01*
X205628Y60750D01*
X205628Y57954D01*
X205628Y63567D02*
X205628Y67296D01*
X205628Y63567D02*
X208425Y63567D01*
X207493Y65431D01*
X207493Y66363D01*
X208425Y67296D01*
X210289Y67296D01*
X211221Y66363D01*
X211221Y64499D01*
X210289Y63567D01*
D12*
X244175Y64238D02*
X257825Y64238D01*
X251000Y64050D02*
X246238Y59288D01*
X251000Y64050D02*
X255763Y59288D01*
D11*
X241221Y46728D02*
X235628Y46728D01*
X241221Y46728D02*
X241221Y50456D01*
X235628Y52341D02*
X235628Y56069D01*
X235628Y52341D02*
X241221Y52341D01*
X241221Y56069D01*
X238425Y54205D02*
X238425Y52341D01*
X241221Y57954D02*
X235628Y57954D01*
X241221Y57954D02*
X241221Y60750D01*
X240289Y61682D01*
X236560Y61682D01*
X235628Y60750D01*
X235628Y57954D01*
X236560Y65431D02*
X235628Y67296D01*
X236560Y65431D02*
X238425Y63567D01*
X240289Y63567D01*
X241221Y64499D01*
X241221Y66363D01*
X240289Y67296D01*
X239357Y67296D01*
X238425Y66363D01*
X238425Y63567D01*
X119316Y244241D02*
X113723Y244241D01*
X113723Y247969D01*
X116520Y246105D02*
X116520Y244241D01*
X119316Y249854D02*
X119316Y253583D01*
X115588Y253583D02*
X119316Y249854D01*
X115588Y253583D02*
X114655Y253583D01*
X113723Y252650D01*
X113723Y250786D01*
X114655Y249854D01*
D12*
X521424Y677506D02*
X521424Y686094D01*
X492976Y686094D02*
X492976Y677506D01*
X504516Y689904D02*
X509884Y689904D01*
D11*
X480341Y685401D02*
X480341Y680740D01*
X481273Y679808D01*
X483137Y679808D01*
X484069Y680740D01*
X484069Y685401D01*
X487818Y684469D02*
X489682Y685401D01*
X487818Y684469D02*
X485954Y682604D01*
X485954Y680740D01*
X486886Y679808D01*
X488750Y679808D01*
X489682Y680740D01*
X489682Y681672D01*
X488750Y682604D01*
X485954Y682604D01*
D12*
X496700Y597600D02*
X492700Y593600D01*
X496700Y597600D02*
X584700Y597600D01*
X588700Y593600D01*
X588700Y505600D01*
X584700Y501600D01*
X496700Y501600D01*
X492700Y505600D01*
X492700Y593600D01*
D16*
X497873Y589600D02*
X497875Y589706D01*
X497881Y589811D01*
X497891Y589917D01*
X497905Y590021D01*
X497922Y590126D01*
X497944Y590229D01*
X497969Y590332D01*
X497999Y590433D01*
X498032Y590534D01*
X498068Y590633D01*
X498109Y590730D01*
X498153Y590827D01*
X498201Y590921D01*
X498252Y591014D01*
X498306Y591104D01*
X498364Y591193D01*
X498425Y591279D01*
X498490Y591363D01*
X498557Y591444D01*
X498628Y591523D01*
X498701Y591599D01*
X498777Y591672D01*
X498856Y591743D01*
X498937Y591810D01*
X499021Y591875D01*
X499107Y591936D01*
X499196Y591994D01*
X499287Y592048D01*
X499379Y592099D01*
X499473Y592147D01*
X499570Y592191D01*
X499667Y592232D01*
X499766Y592268D01*
X499867Y592301D01*
X499968Y592331D01*
X500071Y592356D01*
X500174Y592378D01*
X500279Y592395D01*
X500383Y592409D01*
X500489Y592419D01*
X500594Y592425D01*
X500700Y592427D01*
X500806Y592425D01*
X500911Y592419D01*
X501017Y592409D01*
X501121Y592395D01*
X501226Y592378D01*
X501329Y592356D01*
X501432Y592331D01*
X501533Y592301D01*
X501634Y592268D01*
X501733Y592232D01*
X501830Y592191D01*
X501927Y592147D01*
X502021Y592099D01*
X502114Y592048D01*
X502204Y591994D01*
X502293Y591936D01*
X502379Y591875D01*
X502463Y591810D01*
X502544Y591743D01*
X502623Y591672D01*
X502699Y591599D01*
X502772Y591523D01*
X502843Y591444D01*
X502910Y591363D01*
X502975Y591279D01*
X503036Y591193D01*
X503094Y591104D01*
X503148Y591013D01*
X503199Y590921D01*
X503247Y590827D01*
X503291Y590730D01*
X503332Y590633D01*
X503368Y590534D01*
X503401Y590433D01*
X503431Y590332D01*
X503456Y590229D01*
X503478Y590126D01*
X503495Y590021D01*
X503509Y589917D01*
X503519Y589811D01*
X503525Y589706D01*
X503527Y589600D01*
X503525Y589494D01*
X503519Y589389D01*
X503509Y589283D01*
X503495Y589179D01*
X503478Y589074D01*
X503456Y588971D01*
X503431Y588868D01*
X503401Y588767D01*
X503368Y588666D01*
X503332Y588567D01*
X503291Y588470D01*
X503247Y588373D01*
X503199Y588279D01*
X503148Y588186D01*
X503094Y588096D01*
X503036Y588007D01*
X502975Y587921D01*
X502910Y587837D01*
X502843Y587756D01*
X502772Y587677D01*
X502699Y587601D01*
X502623Y587528D01*
X502544Y587457D01*
X502463Y587390D01*
X502379Y587325D01*
X502293Y587264D01*
X502204Y587206D01*
X502113Y587152D01*
X502021Y587101D01*
X501927Y587053D01*
X501830Y587009D01*
X501733Y586968D01*
X501634Y586932D01*
X501533Y586899D01*
X501432Y586869D01*
X501329Y586844D01*
X501226Y586822D01*
X501121Y586805D01*
X501017Y586791D01*
X500911Y586781D01*
X500806Y586775D01*
X500700Y586773D01*
X500594Y586775D01*
X500489Y586781D01*
X500383Y586791D01*
X500279Y586805D01*
X500174Y586822D01*
X500071Y586844D01*
X499968Y586869D01*
X499867Y586899D01*
X499766Y586932D01*
X499667Y586968D01*
X499570Y587009D01*
X499473Y587053D01*
X499379Y587101D01*
X499286Y587152D01*
X499196Y587206D01*
X499107Y587264D01*
X499021Y587325D01*
X498937Y587390D01*
X498856Y587457D01*
X498777Y587528D01*
X498701Y587601D01*
X498628Y587677D01*
X498557Y587756D01*
X498490Y587837D01*
X498425Y587921D01*
X498364Y588007D01*
X498306Y588096D01*
X498252Y588187D01*
X498201Y588279D01*
X498153Y588373D01*
X498109Y588470D01*
X498068Y588567D01*
X498032Y588666D01*
X497999Y588767D01*
X497969Y588868D01*
X497944Y588971D01*
X497922Y589074D01*
X497905Y589179D01*
X497891Y589283D01*
X497881Y589389D01*
X497875Y589494D01*
X497873Y589600D01*
D15*
X476853Y608983D02*
X476853Y616610D01*
X476853Y608983D02*
X478378Y607458D01*
X481429Y607458D01*
X482954Y608983D01*
X482954Y616610D01*
X486208Y613559D02*
X489259Y616610D01*
X489259Y607458D01*
X492309Y607458D02*
X486208Y607458D01*
D11*
X637341Y510131D02*
X637341Y504538D01*
X637341Y510131D02*
X640137Y510131D01*
X641069Y509199D01*
X641069Y507334D01*
X640137Y506402D01*
X637341Y506402D01*
X639205Y506402D02*
X641069Y504538D01*
X645750Y504538D02*
X645750Y510131D01*
X642954Y507334D01*
X646682Y507334D01*
X548065Y459069D02*
X547133Y458137D01*
X547133Y456273D01*
X548065Y455341D01*
X551794Y455341D01*
X552726Y456273D01*
X552726Y458137D01*
X551794Y459069D01*
X548065Y460954D02*
X547133Y461886D01*
X547133Y463750D01*
X548065Y464683D01*
X548998Y464683D01*
X549930Y463750D01*
X550862Y464683D01*
X551794Y464683D01*
X552726Y463750D01*
X552726Y461886D01*
X551794Y460954D01*
X550862Y460954D01*
X549930Y461886D01*
X548998Y460954D01*
X548065Y460954D01*
X549930Y461886D02*
X549930Y463750D01*
X448669Y573735D02*
X447737Y574667D01*
X445873Y574667D01*
X444941Y573735D01*
X444941Y570006D01*
X445873Y569074D01*
X447737Y569074D01*
X448669Y570006D01*
X450554Y570006D02*
X451486Y569074D01*
X453350Y569074D01*
X454283Y570006D01*
X454283Y573735D01*
X453350Y574667D01*
X451486Y574667D01*
X450554Y573735D01*
X450554Y572803D01*
X451486Y571870D01*
X454283Y571870D01*
X619331Y564167D02*
X620263Y563235D01*
X619331Y564167D02*
X617466Y564167D01*
X616534Y563235D01*
X616534Y559506D01*
X617466Y558574D01*
X619331Y558574D01*
X620263Y559506D01*
X622147Y562303D02*
X624012Y564167D01*
X624012Y558574D01*
X625876Y558574D02*
X622147Y558574D01*
X627761Y559506D02*
X627761Y563235D01*
X628693Y564167D01*
X630557Y564167D01*
X631489Y563235D01*
X631489Y559506D01*
X630557Y558574D01*
X628693Y558574D01*
X627761Y559506D01*
X631489Y563235D01*
D12*
X247520Y370470D02*
X232280Y370470D01*
D11*
X251579Y389231D02*
X252511Y390163D01*
X251579Y389231D02*
X251579Y387366D01*
X252511Y386434D01*
X256240Y386434D01*
X257172Y387366D01*
X257172Y389231D01*
X256240Y390163D01*
X253444Y392047D02*
X251579Y393912D01*
X257172Y393912D01*
X257172Y395776D02*
X257172Y392047D01*
X257172Y397661D02*
X257172Y401389D01*
X257172Y397661D02*
X253444Y401389D01*
X252511Y401389D01*
X251579Y400457D01*
X251579Y398593D01*
X252511Y397661D01*
X177301Y303463D02*
X176369Y302531D01*
X176369Y300666D01*
X177301Y299734D01*
X181030Y299734D01*
X181962Y300666D01*
X181962Y302531D01*
X181030Y303463D01*
X178234Y305347D02*
X176369Y307212D01*
X181962Y307212D01*
X181962Y309076D02*
X181962Y305347D01*
X177301Y310961D02*
X176369Y311893D01*
X176369Y313757D01*
X177301Y314689D01*
X178234Y314689D01*
X179166Y313757D01*
X179166Y312825D01*
X179166Y313757D02*
X180098Y314689D01*
X181030Y314689D01*
X181962Y313757D01*
X181962Y311893D01*
X181030Y310961D01*
D15*
X123000Y474000D02*
X123000Y497000D01*
X171000Y497000D01*
X188000Y480000D01*
X188000Y474000D01*
X188000Y455000D02*
X188000Y449000D01*
X171000Y432000D01*
X123000Y432000D01*
X123000Y455000D01*
X126000Y474000D02*
X126241Y474718D01*
X126500Y475431D01*
X126776Y476136D01*
X127069Y476835D01*
X127379Y477527D01*
X127706Y478210D01*
X128049Y478886D01*
X128409Y479553D01*
X128785Y480211D01*
X129177Y480859D01*
X129585Y481498D01*
X130008Y482126D01*
X130447Y482744D01*
X130900Y483351D01*
X131369Y483947D01*
X131851Y484531D01*
X132348Y485103D01*
X132859Y485663D01*
X133383Y486210D01*
X133920Y486745D01*
X134471Y487266D01*
X135034Y487773D01*
X135609Y488266D01*
X136196Y488746D01*
X136794Y489210D01*
X137404Y489660D01*
X138025Y490095D01*
X138656Y490515D01*
X139297Y490919D01*
X139947Y491307D01*
X140608Y491679D01*
X141276Y492035D01*
X141954Y492375D01*
X142640Y492698D01*
X143333Y493004D01*
X144033Y493293D01*
X144741Y493564D01*
X145454Y493819D01*
X146174Y494056D01*
X146900Y494275D01*
X147630Y494476D01*
X148365Y494660D01*
X149105Y494825D01*
X149848Y494972D01*
X150595Y495101D01*
X151345Y495212D01*
X152097Y495305D01*
X152851Y495379D01*
X153607Y495434D01*
X154364Y495471D01*
X155121Y495490D01*
X155879Y495490D01*
X156636Y495471D01*
X157393Y495434D01*
X158149Y495379D01*
X158903Y495305D01*
X159655Y495212D01*
X160405Y495101D01*
X161152Y494972D01*
X161895Y494825D01*
X162635Y494660D01*
X163370Y494476D01*
X164100Y494275D01*
X164826Y494056D01*
X165546Y493819D01*
X166259Y493564D01*
X166967Y493293D01*
X167667Y493004D01*
X168360Y492698D01*
X169046Y492375D01*
X169724Y492035D01*
X170392Y491679D01*
X171053Y491307D01*
X171703Y490919D01*
X172344Y490515D01*
X172975Y490095D01*
X173596Y489660D01*
X174206Y489210D01*
X174804Y488746D01*
X175391Y488266D01*
X175966Y487773D01*
X176529Y487266D01*
X177080Y486745D01*
X177617Y486210D01*
X178141Y485663D01*
X178652Y485103D01*
X179149Y484531D01*
X179631Y483947D01*
X180100Y483351D01*
X180553Y482744D01*
X180992Y482126D01*
X181415Y481498D01*
X181823Y480859D01*
X182215Y480211D01*
X182591Y479553D01*
X182951Y478886D01*
X183294Y478210D01*
X183621Y477527D01*
X183931Y476835D01*
X184224Y476136D01*
X184500Y475431D01*
X184759Y474718D01*
X185000Y474000D01*
X185000Y455000D02*
X184759Y454282D01*
X184500Y453569D01*
X184224Y452864D01*
X183931Y452165D01*
X183621Y451473D01*
X183294Y450790D01*
X182951Y450114D01*
X182591Y449447D01*
X182215Y448789D01*
X181823Y448141D01*
X181415Y447502D01*
X180992Y446874D01*
X180553Y446256D01*
X180100Y445649D01*
X179631Y445053D01*
X179149Y444469D01*
X178652Y443897D01*
X178141Y443337D01*
X177617Y442790D01*
X177080Y442255D01*
X176529Y441734D01*
X175966Y441227D01*
X175391Y440734D01*
X174804Y440254D01*
X174206Y439790D01*
X173596Y439340D01*
X172975Y438905D01*
X172344Y438485D01*
X171703Y438081D01*
X171053Y437693D01*
X170392Y437321D01*
X169724Y436965D01*
X169046Y436625D01*
X168360Y436302D01*
X167667Y435996D01*
X166967Y435707D01*
X166259Y435436D01*
X165546Y435181D01*
X164826Y434944D01*
X164100Y434725D01*
X163370Y434524D01*
X162635Y434340D01*
X161895Y434175D01*
X161152Y434028D01*
X160405Y433899D01*
X159655Y433788D01*
X158903Y433695D01*
X158149Y433621D01*
X157393Y433566D01*
X156636Y433529D01*
X155879Y433510D01*
X155121Y433510D01*
X154364Y433529D01*
X153607Y433566D01*
X152851Y433621D01*
X152097Y433695D01*
X151345Y433788D01*
X150595Y433899D01*
X149848Y434028D01*
X149105Y434175D01*
X148365Y434340D01*
X147630Y434524D01*
X146900Y434725D01*
X146174Y434944D01*
X145454Y435181D01*
X144741Y435436D01*
X144033Y435707D01*
X143333Y435996D01*
X142640Y436302D01*
X141954Y436625D01*
X141276Y436965D01*
X140608Y437321D01*
X139947Y437693D01*
X139297Y438081D01*
X138656Y438485D01*
X138025Y438905D01*
X137404Y439340D01*
X136794Y439790D01*
X136196Y440254D01*
X135609Y440734D01*
X135034Y441227D01*
X134471Y441734D01*
X133920Y442255D01*
X133383Y442790D01*
X132859Y443337D01*
X132348Y443897D01*
X131851Y444469D01*
X131369Y445053D01*
X130900Y445649D01*
X130447Y446256D01*
X130008Y446874D01*
X129585Y447502D01*
X129177Y448141D01*
X128785Y448789D01*
X128409Y449447D01*
X128049Y450114D01*
X127706Y450790D01*
X127379Y451473D01*
X127069Y452165D01*
X126776Y452864D01*
X126500Y453569D01*
X126241Y454282D01*
X126000Y455000D01*
D11*
X151063Y503705D02*
X150131Y504637D01*
X148266Y504637D01*
X147334Y503705D01*
X147334Y499976D01*
X148266Y499044D01*
X150131Y499044D01*
X151063Y499976D01*
X152947Y502773D02*
X154812Y504637D01*
X154812Y499044D01*
X156676Y499044D02*
X152947Y499044D01*
X161357Y499044D02*
X161357Y504637D01*
X158561Y501840D01*
X162289Y501840D01*
D12*
X185100Y308894D02*
X185100Y300306D01*
X210500Y300306D02*
X210500Y308894D01*
X200484Y297512D02*
X195116Y297512D01*
D18*
X213802Y314760D03*
D11*
X187605Y280261D02*
X187605Y275600D01*
X188537Y274668D01*
X190401Y274668D01*
X191333Y275600D01*
X191333Y280261D01*
X193218Y278397D02*
X195082Y280261D01*
X195082Y274668D01*
X193218Y274668D02*
X196946Y274668D01*
X198831Y275600D02*
X198831Y279329D01*
X199763Y280261D01*
X201627Y280261D01*
X202559Y279329D01*
X202559Y275600D01*
X201627Y274668D01*
X199763Y274668D01*
X198831Y275600D01*
X202559Y279329D01*
X228531Y284131D02*
X229463Y283199D01*
X228531Y284131D02*
X226666Y284131D01*
X225734Y283199D01*
X225734Y279470D01*
X226666Y278538D01*
X228531Y278538D01*
X229463Y279470D01*
X231347Y282267D02*
X233212Y284131D01*
X233212Y278538D01*
X235076Y278538D02*
X231347Y278538D01*
X236961Y284131D02*
X240689Y284131D01*
X236961Y284131D02*
X236961Y281334D01*
X238825Y282267D01*
X239757Y282267D01*
X240689Y281334D01*
X240689Y279470D01*
X239757Y278538D01*
X237893Y278538D01*
X236961Y279470D01*
D12*
X117034Y353490D02*
X117034Y386510D01*
X182566Y386510D01*
X182566Y353490D01*
X117034Y353490D01*
D11*
X112083Y342166D02*
X112083Y337505D01*
X113015Y336573D01*
X114879Y336573D01*
X115811Y337505D01*
X115811Y342166D01*
X117696Y337505D02*
X118628Y336573D01*
X120492Y336573D01*
X121424Y337505D01*
X121424Y341234D01*
X120492Y342166D01*
X118628Y342166D01*
X117696Y341234D01*
X117696Y340302D01*
X118628Y339369D01*
X121424Y339369D01*
X210369Y414941D02*
X215962Y414941D01*
X210369Y414941D02*
X210369Y417737D01*
X211301Y418669D01*
X213166Y418669D01*
X214098Y417737D01*
X214098Y414941D01*
X214098Y416805D02*
X215962Y418669D01*
X212234Y420554D02*
X210369Y422418D01*
X215962Y422418D01*
X215962Y420554D02*
X215962Y424282D01*
X215962Y373634D02*
X210369Y373634D01*
X210369Y376431D01*
X211301Y377363D01*
X213166Y377363D01*
X214098Y376431D01*
X214098Y373634D01*
X214098Y375499D02*
X215962Y377363D01*
X215962Y382044D02*
X210369Y382044D01*
X213166Y379247D01*
X213166Y382976D01*
X215030Y384861D02*
X215962Y385793D01*
X215962Y387657D01*
X215030Y388589D01*
X211301Y388589D01*
X210369Y387657D01*
X210369Y385793D01*
X211301Y384861D01*
X212234Y384861D01*
X213166Y385793D01*
X213166Y388589D01*
D12*
X250680Y283670D02*
X265920Y283670D01*
D11*
X254263Y279145D02*
X253331Y280077D01*
X251466Y280077D01*
X250534Y279145D01*
X250534Y275416D01*
X251466Y274484D01*
X253331Y274484D01*
X254263Y275416D01*
X256147Y274484D02*
X259876Y274484D01*
X256147Y274484D02*
X259876Y278213D01*
X259876Y279145D01*
X258944Y280077D01*
X257080Y280077D01*
X256147Y279145D01*
X261761Y278213D02*
X263625Y280077D01*
X263625Y274484D01*
X261761Y274484D02*
X265489Y274484D01*
D12*
X202800Y589600D02*
X198300Y589600D01*
X202800Y589600D02*
X202800Y543600D01*
X198300Y543600D01*
X178300Y543600D02*
X173800Y543600D01*
X173800Y589600D01*
X178300Y589600D01*
X178300Y556600D02*
X198300Y556600D01*
D11*
X205059Y578488D02*
X210652Y578488D01*
X210652Y581284D01*
X209720Y582216D01*
X205991Y582216D01*
X205059Y581284D01*
X205059Y578488D01*
X210652Y584101D02*
X210652Y587829D01*
X210652Y584101D02*
X206924Y587829D01*
X205991Y587829D01*
X205059Y586897D01*
X205059Y585033D01*
X205991Y584101D01*
D12*
X140600Y544400D02*
X140600Y634400D01*
X7600Y634400D02*
X7600Y614400D01*
X7600Y564400D01*
X7600Y544400D01*
X7600Y614400D02*
X42600Y614400D01*
X43178Y614367D01*
X43755Y614320D01*
X44331Y614260D01*
X44905Y614185D01*
X45477Y614097D01*
X46046Y613994D01*
X46614Y613878D01*
X47178Y613749D01*
X47739Y613605D01*
X48296Y613449D01*
X48849Y613278D01*
X49398Y613095D01*
X49942Y612898D01*
X50482Y612688D01*
X51016Y612466D01*
X51545Y612230D01*
X52068Y611982D01*
X52585Y611721D01*
X53095Y611447D01*
X53598Y611162D01*
X54095Y610864D01*
X54584Y610555D01*
X55065Y610233D01*
X55539Y609900D01*
X56004Y609556D01*
X56461Y609201D01*
X56910Y608835D01*
X57349Y608458D01*
X57779Y608070D01*
X58199Y607672D01*
X58610Y607265D01*
X59011Y606847D01*
X59402Y606420D01*
X59782Y605983D01*
X60151Y605538D01*
X60510Y605083D01*
X60858Y604620D01*
X61194Y604149D01*
X61519Y603670D01*
X61832Y603183D01*
X62133Y602689D01*
X62422Y602188D01*
X62699Y601679D01*
X62964Y601164D01*
X63216Y600643D01*
X63456Y600116D01*
X63682Y599584D01*
X63896Y599046D01*
X64097Y598503D01*
X64284Y597955D01*
X64459Y597403D01*
X64620Y596847D01*
X64767Y596287D01*
X64901Y595724D01*
X65021Y595158D01*
X65127Y594589D01*
X65220Y594018D01*
X65299Y593444D01*
X65364Y592869D01*
X65415Y592292D01*
X65452Y591715D01*
X65475Y591136D01*
X65484Y590557D01*
X65479Y589979D01*
X65460Y589400D01*
X65479Y588821D01*
X65484Y588243D01*
X65475Y587664D01*
X65452Y587085D01*
X65415Y586508D01*
X65364Y585931D01*
X65299Y585356D01*
X65220Y584782D01*
X65127Y584211D01*
X65021Y583642D01*
X64901Y583076D01*
X64767Y582513D01*
X64620Y581953D01*
X64459Y581397D01*
X64284Y580845D01*
X64097Y580297D01*
X63896Y579754D01*
X63682Y579216D01*
X63456Y578684D01*
X63216Y578157D01*
X62964Y577636D01*
X62699Y577121D01*
X62422Y576612D01*
X62133Y576111D01*
X61832Y575617D01*
X61519Y575130D01*
X61194Y574651D01*
X60858Y574180D01*
X60510Y573717D01*
X60151Y573262D01*
X59782Y572817D01*
X59402Y572380D01*
X59011Y571953D01*
X58610Y571535D01*
X58199Y571128D01*
X57779Y570730D01*
X57349Y570342D01*
X56910Y569965D01*
X56461Y569599D01*
X56004Y569244D01*
X55539Y568900D01*
X55065Y568567D01*
X54584Y568245D01*
X54095Y567936D01*
X53598Y567638D01*
X53095Y567353D01*
X52585Y567079D01*
X52068Y566818D01*
X51545Y566570D01*
X51016Y566334D01*
X50482Y566112D01*
X49942Y565902D01*
X49398Y565705D01*
X48849Y565522D01*
X48296Y565351D01*
X47739Y565195D01*
X47178Y565051D01*
X46614Y564922D01*
X46046Y564806D01*
X45477Y564703D01*
X44905Y564615D01*
X44331Y564540D01*
X43755Y564480D01*
X43178Y564433D01*
X42600Y564400D01*
X7600Y564400D01*
X7600Y634400D02*
X22600Y634400D01*
X62600Y634400D02*
X83600Y634400D01*
X124600Y634400D02*
X140600Y634400D01*
X140600Y544400D02*
X123600Y544400D01*
X83600Y544400D02*
X62600Y544400D01*
X22600Y544400D02*
X7600Y544400D01*
X422500Y513300D02*
X434500Y513300D01*
X402500Y527300D02*
X402500Y533300D01*
X422500Y547300D02*
X434500Y547300D01*
X454500Y533300D02*
X454500Y527300D01*
D11*
X423141Y511001D02*
X423141Y510069D01*
X425005Y508204D01*
X426869Y510069D01*
X426869Y511001D01*
X425005Y508204D02*
X425005Y505408D01*
X428754Y505408D02*
X432482Y505408D01*
X428754Y505408D02*
X432482Y509137D01*
X432482Y510069D01*
X431550Y511001D01*
X429686Y511001D01*
X428754Y510069D01*
X392069Y570535D02*
X391137Y571467D01*
X389273Y571467D01*
X388341Y570535D01*
X388341Y566806D01*
X389273Y565874D01*
X391137Y565874D01*
X392069Y566806D01*
X393954Y570535D02*
X394886Y571467D01*
X396750Y571467D01*
X397683Y570535D01*
X397683Y569603D01*
X396750Y568670D01*
X395818Y568670D01*
X396750Y568670D02*
X397683Y567738D01*
X397683Y566806D01*
X396750Y565874D01*
X394886Y565874D01*
X393954Y566806D01*
X385137Y511067D02*
X386069Y510135D01*
X385137Y511067D02*
X383273Y511067D01*
X382341Y510135D01*
X382341Y506406D01*
X383273Y505474D01*
X385137Y505474D01*
X386069Y506406D01*
X390750Y505474D02*
X390750Y511067D01*
X387954Y508270D01*
X391683Y508270D01*
D19*
X1072610Y550260D02*
X1072610Y199740D01*
X997680Y639414D02*
X997680Y651860D01*
X997680Y639414D02*
X997680Y578454D01*
X997680Y555340D01*
X997680Y194660D01*
X997680Y171546D01*
X997680Y110586D01*
X997680Y98140D01*
X976090Y565500D02*
X976090Y651860D01*
D11*
X976090Y565500D02*
X976090Y184500D01*
D19*
X976090Y98140D01*
X808450Y565500D02*
X808450Y651860D01*
X808450Y565500D02*
X808450Y184500D01*
X808450Y98140D01*
X844010Y184500D02*
X844010Y565500D01*
X808450Y651860D02*
X944340Y651860D01*
X997680Y651860D01*
X885920Y565500D02*
X808450Y565500D01*
X885920Y565500D02*
X934180Y565500D01*
X944340Y565500D01*
X976090Y565500D01*
X944340Y565500D02*
X944340Y592424D01*
X944340Y625444D01*
X944340Y651860D01*
X944340Y625444D02*
X953230Y625444D01*
X953230Y592424D02*
X944340Y592424D01*
X953230Y592424D02*
X953230Y625444D01*
X934180Y575660D02*
X885920Y575660D01*
X885920Y565500D01*
X934180Y565500D02*
X934180Y575660D01*
X997680Y555340D02*
X1067530Y555340D01*
X1001490Y580994D02*
X1001490Y636874D01*
X998950Y639414D02*
X997680Y639414D01*
X998950Y639414D02*
X999050Y639412D01*
X999149Y639406D01*
X999249Y639396D01*
X999347Y639383D01*
X999446Y639365D01*
X999543Y639344D01*
X999639Y639319D01*
X999735Y639290D01*
X999829Y639257D01*
X999922Y639221D01*
X1000013Y639181D01*
X1000103Y639137D01*
X1000191Y639090D01*
X1000277Y639040D01*
X1000361Y638986D01*
X1000443Y638929D01*
X1000522Y638869D01*
X1000600Y638805D01*
X1000674Y638739D01*
X1000746Y638670D01*
X1000815Y638598D01*
X1000881Y638524D01*
X1000945Y638446D01*
X1001005Y638367D01*
X1001062Y638285D01*
X1001116Y638201D01*
X1001166Y638115D01*
X1001213Y638027D01*
X1001257Y637937D01*
X1001297Y637846D01*
X1001333Y637753D01*
X1001366Y637659D01*
X1001395Y637563D01*
X1001420Y637467D01*
X1001441Y637370D01*
X1001459Y637271D01*
X1001472Y637173D01*
X1001482Y637073D01*
X1001488Y636974D01*
X1001490Y636874D01*
X998950Y578454D02*
X997680Y578454D01*
X998950Y578454D02*
X999050Y578456D01*
X999149Y578462D01*
X999249Y578472D01*
X999347Y578485D01*
X999446Y578503D01*
X999543Y578524D01*
X999639Y578549D01*
X999735Y578578D01*
X999829Y578611D01*
X999922Y578647D01*
X1000013Y578687D01*
X1000103Y578731D01*
X1000191Y578778D01*
X1000277Y578828D01*
X1000361Y578882D01*
X1000443Y578939D01*
X1000522Y578999D01*
X1000600Y579063D01*
X1000674Y579129D01*
X1000746Y579198D01*
X1000815Y579270D01*
X1000881Y579344D01*
X1000945Y579422D01*
X1001005Y579501D01*
X1001062Y579583D01*
X1001116Y579667D01*
X1001166Y579753D01*
X1001213Y579841D01*
X1001257Y579931D01*
X1001297Y580022D01*
X1001333Y580115D01*
X1001366Y580209D01*
X1001395Y580305D01*
X1001420Y580401D01*
X1001441Y580498D01*
X1001459Y580597D01*
X1001472Y580695D01*
X1001482Y580795D01*
X1001488Y580894D01*
X1001490Y580994D01*
X1067530Y555340D02*
X1067670Y555338D01*
X1067810Y555332D01*
X1067950Y555323D01*
X1068089Y555309D01*
X1068228Y555292D01*
X1068366Y555271D01*
X1068504Y555246D01*
X1068641Y555217D01*
X1068777Y555185D01*
X1068912Y555148D01*
X1069046Y555108D01*
X1069179Y555065D01*
X1069311Y555017D01*
X1069442Y554967D01*
X1069571Y554912D01*
X1069698Y554854D01*
X1069824Y554793D01*
X1069948Y554728D01*
X1070070Y554659D01*
X1070190Y554588D01*
X1070308Y554513D01*
X1070425Y554435D01*
X1070539Y554353D01*
X1070650Y554269D01*
X1070759Y554181D01*
X1070866Y554091D01*
X1070971Y553997D01*
X1071072Y553901D01*
X1071171Y553802D01*
X1071267Y553701D01*
X1071361Y553596D01*
X1071451Y553489D01*
X1071539Y553380D01*
X1071623Y553269D01*
X1071705Y553155D01*
X1071783Y553038D01*
X1071858Y552920D01*
X1071929Y552800D01*
X1071998Y552678D01*
X1072063Y552554D01*
X1072124Y552428D01*
X1072182Y552301D01*
X1072237Y552172D01*
X1072287Y552041D01*
X1072335Y551909D01*
X1072378Y551776D01*
X1072418Y551642D01*
X1072455Y551507D01*
X1072487Y551371D01*
X1072516Y551234D01*
X1072541Y551096D01*
X1072562Y550958D01*
X1072579Y550819D01*
X1072593Y550680D01*
X1072602Y550540D01*
X1072608Y550400D01*
X1072610Y550260D01*
X997680Y98140D02*
X944340Y98140D01*
X808450Y98140D01*
X808450Y184500D02*
X885920Y184500D01*
X934180Y184500D01*
X944340Y184500D01*
X976090Y184500D01*
X944340Y184500D02*
X944340Y157576D01*
X944340Y124556D01*
X944340Y98140D01*
X934180Y174340D02*
X885920Y174340D01*
X885920Y184500D01*
X934180Y184500D02*
X934180Y174340D01*
X944340Y124556D02*
X953230Y124556D01*
X953230Y157576D02*
X944340Y157576D01*
X953230Y157576D02*
X953230Y124556D01*
X997680Y194660D02*
X1067530Y194660D01*
X1001490Y169006D02*
X1001490Y113126D01*
X998950Y171546D02*
X997680Y171546D01*
X998950Y171546D02*
X999050Y171544D01*
X999149Y171538D01*
X999249Y171528D01*
X999347Y171515D01*
X999446Y171497D01*
X999543Y171476D01*
X999639Y171451D01*
X999735Y171422D01*
X999829Y171389D01*
X999922Y171353D01*
X1000013Y171313D01*
X1000103Y171269D01*
X1000191Y171222D01*
X1000277Y171172D01*
X1000361Y171118D01*
X1000443Y171061D01*
X1000522Y171001D01*
X1000600Y170937D01*
X1000674Y170871D01*
X1000746Y170802D01*
X1000815Y170730D01*
X1000881Y170656D01*
X1000945Y170578D01*
X1001005Y170499D01*
X1001062Y170417D01*
X1001116Y170333D01*
X1001166Y170247D01*
X1001213Y170159D01*
X1001257Y170069D01*
X1001297Y169978D01*
X1001333Y169885D01*
X1001366Y169791D01*
X1001395Y169695D01*
X1001420Y169599D01*
X1001441Y169502D01*
X1001459Y169403D01*
X1001472Y169305D01*
X1001482Y169205D01*
X1001488Y169106D01*
X1001490Y169006D01*
X998950Y110586D02*
X997680Y110586D01*
X998950Y110586D02*
X999050Y110588D01*
X999149Y110594D01*
X999249Y110604D01*
X999347Y110617D01*
X999446Y110635D01*
X999543Y110656D01*
X999639Y110681D01*
X999735Y110710D01*
X999829Y110743D01*
X999922Y110779D01*
X1000013Y110819D01*
X1000103Y110863D01*
X1000191Y110910D01*
X1000277Y110960D01*
X1000361Y111014D01*
X1000443Y111071D01*
X1000522Y111131D01*
X1000600Y111195D01*
X1000674Y111261D01*
X1000746Y111330D01*
X1000815Y111402D01*
X1000881Y111476D01*
X1000945Y111554D01*
X1001005Y111633D01*
X1001062Y111715D01*
X1001116Y111799D01*
X1001166Y111885D01*
X1001213Y111973D01*
X1001257Y112063D01*
X1001297Y112154D01*
X1001333Y112247D01*
X1001366Y112341D01*
X1001395Y112437D01*
X1001420Y112533D01*
X1001441Y112630D01*
X1001459Y112729D01*
X1001472Y112827D01*
X1001482Y112927D01*
X1001488Y113026D01*
X1001490Y113126D01*
X1067530Y194660D02*
X1067670Y194662D01*
X1067810Y194668D01*
X1067950Y194677D01*
X1068089Y194691D01*
X1068228Y194708D01*
X1068366Y194729D01*
X1068504Y194754D01*
X1068641Y194783D01*
X1068777Y194815D01*
X1068912Y194852D01*
X1069046Y194892D01*
X1069179Y194935D01*
X1069311Y194983D01*
X1069442Y195033D01*
X1069571Y195088D01*
X1069698Y195146D01*
X1069824Y195207D01*
X1069948Y195272D01*
X1070070Y195341D01*
X1070190Y195412D01*
X1070308Y195487D01*
X1070425Y195565D01*
X1070539Y195647D01*
X1070650Y195731D01*
X1070759Y195819D01*
X1070866Y195909D01*
X1070971Y196003D01*
X1071072Y196099D01*
X1071171Y196198D01*
X1071267Y196299D01*
X1071361Y196404D01*
X1071451Y196511D01*
X1071539Y196620D01*
X1071623Y196731D01*
X1071705Y196845D01*
X1071783Y196962D01*
X1071858Y197080D01*
X1071929Y197200D01*
X1071998Y197322D01*
X1072063Y197446D01*
X1072124Y197572D01*
X1072182Y197699D01*
X1072237Y197828D01*
X1072287Y197959D01*
X1072335Y198091D01*
X1072378Y198224D01*
X1072418Y198358D01*
X1072455Y198493D01*
X1072487Y198629D01*
X1072516Y198766D01*
X1072541Y198904D01*
X1072562Y199042D01*
X1072579Y199181D01*
X1072593Y199320D01*
X1072602Y199460D01*
X1072608Y199600D01*
X1072610Y199740D01*
D11*
X992600Y375000D02*
X992600Y397860D01*
X992600Y375000D02*
X992600Y352140D01*
X992600Y375000D02*
X965930Y375000D01*
X982440Y378810D02*
X992600Y375000D01*
X982440Y378810D02*
X982440Y371190D01*
X992600Y375000D01*
D20*
X855304Y511917D02*
X849965Y517256D01*
X865981Y517256D01*
X865981Y511917D02*
X865981Y522595D01*
X891875Y513584D02*
X897214Y508246D01*
X891875Y513584D02*
X907891Y513584D01*
X907891Y508246D02*
X907891Y518923D01*
X894545Y524617D02*
X891875Y527287D01*
X891875Y532625D01*
X894545Y535295D01*
X897214Y535295D01*
X899883Y532625D01*
X899883Y529956D01*
X899883Y532625D02*
X902552Y535295D01*
X905222Y535295D01*
X907891Y532625D01*
X907891Y527287D01*
X905222Y524617D01*
X909161Y212853D02*
X909161Y202176D01*
X898484Y212853D01*
X895815Y212853D01*
X893145Y210184D01*
X893145Y204845D01*
X895815Y202176D01*
X893145Y226555D02*
X909161Y226555D01*
X901153Y218547D02*
X893145Y226555D01*
X901153Y229225D02*
X901153Y218547D01*
X855304Y202176D02*
X849965Y207514D01*
X865981Y207514D01*
X865981Y202176D02*
X865981Y212853D01*
X865981Y218547D02*
X865981Y229225D01*
X855304Y229225D02*
X865981Y218547D01*
X855304Y229225D02*
X852635Y229225D01*
X849965Y226555D01*
X849965Y221217D01*
X852635Y218547D01*
X801211Y546134D02*
X785195Y546134D01*
X785195Y554142D01*
X787865Y556811D01*
X793203Y556811D01*
X795872Y554142D01*
X795872Y546134D01*
X801211Y562506D02*
X785195Y562506D01*
X801211Y562506D02*
X801211Y573183D01*
X790534Y578877D02*
X785195Y584216D01*
X801211Y584216D01*
X801211Y578877D02*
X801211Y589555D01*
D11*
X287962Y53934D02*
X282369Y53934D01*
X282369Y56731D01*
X283301Y57663D01*
X285166Y57663D01*
X286098Y56731D01*
X286098Y53934D01*
X286098Y55799D02*
X287962Y57663D01*
X282369Y59547D02*
X282369Y63276D01*
X282369Y59547D02*
X285166Y59547D01*
X284234Y61412D01*
X284234Y62344D01*
X285166Y63276D01*
X287030Y63276D01*
X287962Y62344D01*
X287962Y60480D01*
X287030Y59547D01*
X287962Y65161D02*
X287962Y68889D01*
X287962Y65161D02*
X284234Y68889D01*
X283301Y68889D01*
X282369Y67957D01*
X282369Y66093D01*
X283301Y65161D01*
X102862Y407434D02*
X97269Y407434D01*
X97269Y410231D01*
X98201Y411163D01*
X100066Y411163D01*
X100998Y410231D01*
X100998Y407434D01*
X100998Y409299D02*
X102862Y411163D01*
X102862Y413047D02*
X102862Y416776D01*
X99134Y416776D02*
X102862Y413047D01*
X99134Y416776D02*
X98201Y416776D01*
X97269Y415844D01*
X97269Y413980D01*
X98201Y413047D01*
X98201Y418661D02*
X97269Y419593D01*
X97269Y421457D01*
X98201Y422389D01*
X99134Y422389D01*
X100066Y421457D01*
X100066Y420525D01*
X100066Y421457D02*
X100998Y422389D01*
X101930Y422389D01*
X102862Y421457D01*
X102862Y419593D01*
X101930Y418661D01*
D12*
X36563Y417975D02*
X36563Y431625D01*
X36750Y424800D02*
X41513Y420038D01*
X36750Y424800D02*
X41513Y429563D01*
D11*
X32128Y415026D02*
X32128Y409433D01*
X35856Y409433D01*
X37741Y415026D02*
X41469Y415026D01*
X37741Y415026D02*
X37741Y409433D01*
X41469Y409433D01*
X39605Y412229D02*
X37741Y412229D01*
X43354Y409433D02*
X43354Y415026D01*
X43354Y409433D02*
X46150Y409433D01*
X47082Y410365D01*
X47082Y414094D01*
X46150Y415026D01*
X43354Y415026D01*
X48967Y414094D02*
X49899Y415026D01*
X51763Y415026D01*
X52696Y414094D01*
X52696Y413162D01*
X51763Y412229D01*
X50831Y412229D01*
X51763Y412229D02*
X52696Y411297D01*
X52696Y410365D01*
X51763Y409433D01*
X49899Y409433D01*
X48967Y410365D01*
X98169Y362434D02*
X103762Y362434D01*
X98169Y362434D02*
X98169Y365231D01*
X99101Y366163D01*
X100966Y366163D01*
X101898Y365231D01*
X101898Y362434D01*
X101898Y364299D02*
X103762Y366163D01*
X103762Y368047D02*
X103762Y371776D01*
X100034Y371776D02*
X103762Y368047D01*
X100034Y371776D02*
X99101Y371776D01*
X98169Y370844D01*
X98169Y368980D01*
X99101Y368047D01*
X98169Y376457D02*
X103762Y376457D01*
X100966Y373661D02*
X98169Y376457D01*
X100966Y377389D02*
X100966Y373661D01*
D12*
X36563Y374575D02*
X36563Y388225D01*
X36750Y381400D02*
X41513Y376638D01*
X36750Y381400D02*
X41513Y386163D01*
D11*
X32128Y371626D02*
X32128Y366033D01*
X35856Y366033D01*
X37741Y371626D02*
X41469Y371626D01*
X37741Y371626D02*
X37741Y366033D01*
X41469Y366033D01*
X39605Y368829D02*
X37741Y368829D01*
X43354Y366033D02*
X43354Y371626D01*
X43354Y366033D02*
X46150Y366033D01*
X47082Y366965D01*
X47082Y370694D01*
X46150Y371626D01*
X43354Y371626D01*
X51763Y371626D02*
X51763Y366033D01*
X48967Y368829D02*
X51763Y371626D01*
X52696Y368829D02*
X48967Y368829D01*
X586069Y452934D02*
X591662Y452934D01*
X586069Y452934D02*
X586069Y455731D01*
X587001Y456663D01*
X588866Y456663D01*
X589798Y455731D01*
X589798Y452934D01*
X589798Y454799D02*
X591662Y456663D01*
X586069Y458547D02*
X586069Y462276D01*
X586069Y458547D02*
X588866Y458547D01*
X587934Y460412D01*
X587934Y461344D01*
X588866Y462276D01*
X590730Y462276D01*
X591662Y461344D01*
X591662Y459480D01*
X590730Y458547D01*
X587001Y464161D02*
X586069Y465093D01*
X586069Y466957D01*
X587001Y467889D01*
X587934Y467889D01*
X588866Y466957D01*
X588866Y466025D01*
X588866Y466957D02*
X589798Y467889D01*
X590730Y467889D01*
X591662Y466957D01*
X591662Y465093D01*
X590730Y464161D01*
D12*
X602675Y401563D02*
X616325Y401563D01*
X614263Y406513D02*
X609500Y401750D01*
X604738Y406513D01*
D11*
X606774Y360128D02*
X612367Y360128D01*
X612367Y363856D01*
X606774Y365741D02*
X606774Y369469D01*
X606774Y365741D02*
X612367Y365741D01*
X612367Y369469D01*
X609571Y367605D02*
X609571Y365741D01*
X612367Y371354D02*
X606774Y371354D01*
X612367Y371354D02*
X612367Y374150D01*
X611435Y375082D01*
X607706Y375082D01*
X606774Y374150D01*
X606774Y371354D01*
X612367Y376967D02*
X612367Y380696D01*
X608639Y380696D02*
X612367Y376967D01*
X608639Y380696D02*
X607706Y380696D01*
X606774Y379763D01*
X606774Y377899D01*
X607706Y376967D01*
X609969Y736435D02*
X609037Y737367D01*
X607173Y737367D01*
X606241Y736435D01*
X606241Y732706D01*
X607173Y731774D01*
X609037Y731774D01*
X609969Y732706D01*
X611854Y737367D02*
X615583Y737367D01*
X611854Y737367D02*
X611854Y734570D01*
X613718Y735503D01*
X614650Y735503D01*
X615583Y734570D01*
X615583Y732706D01*
X614650Y731774D01*
X612786Y731774D01*
X611854Y732706D01*
X825537Y714631D02*
X826469Y713699D01*
X825537Y714631D02*
X823673Y714631D01*
X822741Y713699D01*
X822741Y709970D01*
X823673Y709038D01*
X825537Y709038D01*
X826469Y709970D01*
X830218Y713699D02*
X832082Y714631D01*
X830218Y713699D02*
X828354Y711834D01*
X828354Y709970D01*
X829286Y709038D01*
X831150Y709038D01*
X832082Y709970D01*
X832082Y710902D01*
X831150Y711834D01*
X828354Y711834D01*
D21*
X355600Y549400D03*
D11*
X357726Y568264D02*
X352133Y568264D01*
X352133Y571060D01*
X353065Y571993D01*
X354930Y571993D01*
X355862Y571060D01*
X355862Y568264D01*
X355862Y570128D02*
X357726Y571993D01*
X352133Y573877D02*
X352133Y577606D01*
X352133Y573877D02*
X354930Y573877D01*
X353998Y575741D01*
X353998Y576673D01*
X354930Y577606D01*
X356794Y577606D01*
X357726Y576673D01*
X357726Y574809D01*
X356794Y573877D01*
X357726Y582287D02*
X352133Y582287D01*
X354930Y579490D01*
X354930Y583219D01*
D21*
X318700Y549400D03*
D11*
X320826Y568264D02*
X315233Y568264D01*
X315233Y571060D01*
X316165Y571993D01*
X318030Y571993D01*
X318962Y571060D01*
X318962Y568264D01*
X318962Y570128D02*
X320826Y571993D01*
X315233Y573877D02*
X315233Y577606D01*
X315233Y573877D02*
X318030Y573877D01*
X317098Y575741D01*
X317098Y576673D01*
X318030Y577606D01*
X319894Y577606D01*
X320826Y576673D01*
X320826Y574809D01*
X319894Y573877D01*
X315233Y579490D02*
X315233Y583219D01*
X315233Y579490D02*
X318030Y579490D01*
X317098Y581354D01*
X317098Y582287D01*
X318030Y583219D01*
X319894Y583219D01*
X320826Y582287D01*
X320826Y580422D01*
X319894Y579490D01*
D21*
X299300Y549400D03*
D11*
X301426Y565764D02*
X295833Y565764D01*
X295833Y568560D01*
X296765Y569493D01*
X298630Y569493D01*
X299562Y568560D01*
X299562Y565764D01*
X299562Y567628D02*
X301426Y569493D01*
X295833Y571377D02*
X295833Y575106D01*
X295833Y571377D02*
X298630Y571377D01*
X297698Y573241D01*
X297698Y574173D01*
X298630Y575106D01*
X300494Y575106D01*
X301426Y574173D01*
X301426Y572309D01*
X300494Y571377D01*
X296765Y578854D02*
X295833Y580719D01*
X296765Y578854D02*
X298630Y576990D01*
X300494Y576990D01*
X301426Y577922D01*
X301426Y579787D01*
X300494Y580719D01*
X299562Y580719D01*
X298630Y579787D01*
X298630Y576990D01*
D21*
X336500Y549300D03*
D11*
X338626Y568164D02*
X333033Y568164D01*
X333033Y570960D01*
X333965Y571893D01*
X335830Y571893D01*
X336762Y570960D01*
X336762Y568164D01*
X336762Y570028D02*
X338626Y571893D01*
X333033Y573777D02*
X333033Y577506D01*
X333033Y573777D02*
X335830Y573777D01*
X334898Y575641D01*
X334898Y576573D01*
X335830Y577506D01*
X337694Y577506D01*
X338626Y576573D01*
X338626Y574709D01*
X337694Y573777D01*
X333033Y579390D02*
X333033Y583119D01*
X333965Y583119D01*
X337694Y579390D01*
X338626Y579390D01*
D21*
X275400Y578200D03*
D11*
X283269Y570505D02*
X288862Y570505D01*
X283269Y570505D02*
X283269Y573301D01*
X284201Y574233D01*
X286066Y574233D01*
X286998Y573301D01*
X286998Y570505D01*
X286998Y572369D02*
X288862Y574233D01*
X283269Y576118D02*
X283269Y579846D01*
X283269Y576118D02*
X286066Y576118D01*
X285134Y577982D01*
X285134Y578914D01*
X286066Y579846D01*
X287930Y579846D01*
X288862Y578914D01*
X288862Y577050D01*
X287930Y576118D01*
X284201Y581731D02*
X283269Y582663D01*
X283269Y584527D01*
X284201Y585459D01*
X285134Y585459D01*
X286066Y584527D01*
X286998Y585459D01*
X287930Y585459D01*
X288862Y584527D01*
X288862Y582663D01*
X287930Y581731D01*
X286998Y581731D01*
X286066Y582663D01*
X285134Y581731D01*
X284201Y581731D01*
X286066Y582663D02*
X286066Y584527D01*
X734937Y169631D02*
X735869Y168699D01*
X734937Y169631D02*
X733073Y169631D01*
X732141Y168699D01*
X732141Y164970D01*
X733073Y164038D01*
X734937Y164038D01*
X735869Y164970D01*
X737754Y169631D02*
X741482Y169631D01*
X741482Y168699D01*
X737754Y164970D01*
X737754Y164038D01*
X449563Y367535D02*
X448631Y368467D01*
X446766Y368467D01*
X445834Y367535D01*
X445834Y363806D01*
X446766Y362874D01*
X448631Y362874D01*
X449563Y363806D01*
X451447Y366603D02*
X453312Y368467D01*
X453312Y362874D01*
X455176Y362874D02*
X451447Y362874D01*
X457061Y363806D02*
X457993Y362874D01*
X459857Y362874D01*
X460789Y363806D01*
X460789Y367535D01*
X459857Y368467D01*
X457993Y368467D01*
X457061Y367535D01*
X457061Y366603D01*
X457993Y365670D01*
X460789Y365670D01*
D21*
X307500Y307500D03*
D11*
X313805Y309631D02*
X313805Y304038D01*
X313805Y309631D02*
X316601Y309631D01*
X317533Y308699D01*
X317533Y306834D01*
X316601Y305902D01*
X313805Y305902D01*
X315669Y305902D02*
X317533Y304038D01*
X319418Y309631D02*
X323146Y309631D01*
X319418Y309631D02*
X319418Y306834D01*
X321282Y307767D01*
X322214Y307767D01*
X323146Y306834D01*
X323146Y304970D01*
X322214Y304038D01*
X320350Y304038D01*
X319418Y304970D01*
X325031Y304970D02*
X325963Y304038D01*
X327827Y304038D01*
X328759Y304970D01*
X328759Y308699D01*
X327827Y309631D01*
X325963Y309631D01*
X325031Y308699D01*
X325031Y307767D01*
X325963Y306834D01*
X328759Y306834D01*
D21*
X285000Y317500D03*
D11*
X278305Y300631D02*
X278305Y295038D01*
X278305Y300631D02*
X281101Y300631D01*
X282033Y299699D01*
X282033Y297834D01*
X281101Y296902D01*
X278305Y296902D01*
X280169Y296902D02*
X282033Y295038D01*
X285782Y299699D02*
X287646Y300631D01*
X285782Y299699D02*
X283918Y297834D01*
X283918Y295970D01*
X284850Y295038D01*
X286714Y295038D01*
X287646Y295970D01*
X287646Y296902D01*
X286714Y297834D01*
X283918Y297834D01*
X289531Y295970D02*
X289531Y299699D01*
X290463Y300631D01*
X292327Y300631D01*
X293259Y299699D01*
X293259Y295970D01*
X292327Y295038D01*
X290463Y295038D01*
X289531Y295970D01*
X293259Y299699D01*
D10*
X415520Y710440D02*
X415520Y719330D01*
D11*
X338930Y729748D02*
X337998Y730680D01*
X338930Y729748D02*
X339862Y729748D01*
X340794Y730680D01*
X340794Y735341D01*
X339862Y735341D02*
X341726Y735341D01*
X343611Y729748D02*
X347339Y729748D01*
X343611Y729748D02*
X347339Y733477D01*
X347339Y734409D01*
X346407Y735341D01*
X344543Y735341D01*
X343611Y734409D01*
D19*
X700162Y496214D02*
X700162Y373786D01*
X774838Y496214D02*
X774836Y496336D01*
X774830Y496458D01*
X774820Y496580D01*
X774807Y496701D01*
X774789Y496822D01*
X774768Y496942D01*
X774742Y497062D01*
X774713Y497180D01*
X774681Y497298D01*
X774644Y497415D01*
X774604Y497530D01*
X774560Y497644D01*
X774512Y497756D01*
X774461Y497867D01*
X774406Y497976D01*
X774348Y498084D01*
X774286Y498189D01*
X774221Y498292D01*
X774153Y498394D01*
X774081Y498493D01*
X774007Y498589D01*
X773929Y498684D01*
X773848Y498775D01*
X773765Y498865D01*
X773679Y498951D01*
X773589Y499034D01*
X773498Y499115D01*
X773403Y499193D01*
X773307Y499267D01*
X773208Y499339D01*
X773106Y499407D01*
X773003Y499472D01*
X772898Y499534D01*
X772790Y499592D01*
X772681Y499647D01*
X772570Y499698D01*
X772458Y499746D01*
X772344Y499790D01*
X772229Y499830D01*
X772112Y499867D01*
X771994Y499899D01*
X771876Y499928D01*
X771756Y499954D01*
X771636Y499975D01*
X771515Y499993D01*
X771394Y500006D01*
X771272Y500016D01*
X771150Y500022D01*
X771028Y500024D01*
X700162Y373786D02*
X700164Y373664D01*
X700170Y373542D01*
X700180Y373420D01*
X700193Y373299D01*
X700211Y373178D01*
X700232Y373058D01*
X700258Y372938D01*
X700287Y372820D01*
X700319Y372702D01*
X700356Y372585D01*
X700396Y372470D01*
X700440Y372356D01*
X700488Y372244D01*
X700539Y372133D01*
X700594Y372024D01*
X700652Y371916D01*
X700714Y371811D01*
X700779Y371708D01*
X700847Y371606D01*
X700919Y371507D01*
X700993Y371411D01*
X701071Y371316D01*
X701152Y371225D01*
X701235Y371135D01*
X701321Y371049D01*
X701411Y370966D01*
X701502Y370885D01*
X701597Y370807D01*
X701693Y370733D01*
X701792Y370661D01*
X701894Y370593D01*
X701997Y370528D01*
X702102Y370466D01*
X702210Y370408D01*
X702319Y370353D01*
X702430Y370302D01*
X702542Y370254D01*
X702656Y370210D01*
X702771Y370170D01*
X702888Y370133D01*
X703006Y370101D01*
X703124Y370072D01*
X703244Y370046D01*
X703364Y370025D01*
X703485Y370007D01*
X703606Y369994D01*
X703728Y369984D01*
X703850Y369978D01*
X703972Y369976D01*
X700162Y496214D02*
X700164Y496336D01*
X700170Y496458D01*
X700180Y496580D01*
X700193Y496701D01*
X700211Y496822D01*
X700232Y496942D01*
X700258Y497062D01*
X700287Y497180D01*
X700319Y497298D01*
X700356Y497415D01*
X700396Y497530D01*
X700440Y497644D01*
X700488Y497756D01*
X700539Y497867D01*
X700594Y497976D01*
X700652Y498084D01*
X700714Y498189D01*
X700779Y498292D01*
X700847Y498394D01*
X700919Y498493D01*
X700993Y498589D01*
X701071Y498684D01*
X701152Y498775D01*
X701235Y498865D01*
X701321Y498951D01*
X701411Y499034D01*
X701502Y499115D01*
X701597Y499193D01*
X701693Y499267D01*
X701792Y499339D01*
X701894Y499407D01*
X701997Y499472D01*
X702102Y499534D01*
X702210Y499592D01*
X702319Y499647D01*
X702430Y499698D01*
X702542Y499746D01*
X702656Y499790D01*
X702771Y499830D01*
X702888Y499867D01*
X703006Y499899D01*
X703124Y499928D01*
X703244Y499954D01*
X703364Y499975D01*
X703485Y499993D01*
X703606Y500006D01*
X703728Y500016D01*
X703850Y500022D01*
X703972Y500024D01*
X774838Y373786D02*
X774836Y373664D01*
X774830Y373542D01*
X774820Y373420D01*
X774807Y373299D01*
X774789Y373178D01*
X774768Y373058D01*
X774742Y372938D01*
X774713Y372820D01*
X774681Y372702D01*
X774644Y372585D01*
X774604Y372470D01*
X774560Y372356D01*
X774512Y372244D01*
X774461Y372133D01*
X774406Y372024D01*
X774348Y371916D01*
X774286Y371811D01*
X774221Y371708D01*
X774153Y371606D01*
X774081Y371507D01*
X774007Y371411D01*
X773929Y371316D01*
X773848Y371225D01*
X773765Y371135D01*
X773679Y371049D01*
X773589Y370966D01*
X773498Y370885D01*
X773403Y370807D01*
X773307Y370733D01*
X773208Y370661D01*
X773106Y370593D01*
X773003Y370528D01*
X772898Y370466D01*
X772790Y370408D01*
X772681Y370353D01*
X772570Y370302D01*
X772458Y370254D01*
X772344Y370210D01*
X772229Y370170D01*
X772112Y370133D01*
X771994Y370101D01*
X771876Y370072D01*
X771756Y370046D01*
X771636Y370025D01*
X771515Y370007D01*
X771394Y369994D01*
X771272Y369984D01*
X771150Y369978D01*
X771028Y369976D01*
X774838Y373786D02*
X774838Y496214D01*
X771028Y500024D02*
X703972Y500024D01*
X703972Y369976D02*
X771028Y369976D01*
D11*
X771282Y370230D02*
X771282Y499770D01*
D19*
X750200Y369976D02*
X750196Y370285D01*
X750185Y370594D01*
X750166Y370903D01*
X750140Y371211D01*
X750106Y371519D01*
X750065Y371825D01*
X750016Y372131D01*
X749960Y372435D01*
X749896Y372737D01*
X749825Y373038D01*
X749747Y373338D01*
X749662Y373635D01*
X749569Y373930D01*
X749469Y374223D01*
X749362Y374513D01*
X749248Y374800D01*
X749127Y375085D01*
X748999Y375367D01*
X748865Y375645D01*
X748723Y375920D01*
X748575Y376192D01*
X748420Y376459D01*
X748259Y376723D01*
X748092Y376983D01*
X747918Y377239D01*
X747738Y377491D01*
X747552Y377738D01*
X747360Y377980D01*
X747162Y378218D01*
X746959Y378451D01*
X746749Y378679D01*
X746535Y378901D01*
X746315Y379119D01*
X746089Y379331D01*
X745859Y379537D01*
X745624Y379738D01*
X745384Y379933D01*
X745139Y380122D01*
X744890Y380305D01*
X744636Y380482D01*
X744378Y380652D01*
X744116Y380817D01*
X743850Y380975D01*
X743580Y381126D01*
X743307Y381271D01*
X743030Y381409D01*
X742750Y381540D01*
X742467Y381664D01*
X742181Y381782D01*
X741892Y381892D01*
X741601Y381996D01*
X741307Y382092D01*
X741011Y382181D01*
X740712Y382263D01*
X740412Y382338D01*
X740110Y382405D01*
X739807Y382465D01*
X739502Y382517D01*
X739196Y382562D01*
X738889Y382600D01*
X738581Y382630D01*
X738273Y382652D01*
X737964Y382668D01*
X737655Y382675D01*
X737345Y382675D01*
X737036Y382668D01*
X736727Y382652D01*
X736419Y382630D01*
X736111Y382600D01*
X735804Y382562D01*
X735498Y382517D01*
X735193Y382465D01*
X734890Y382405D01*
X734588Y382338D01*
X734288Y382263D01*
X733989Y382181D01*
X733693Y382092D01*
X733399Y381996D01*
X733108Y381892D01*
X732819Y381782D01*
X732533Y381664D01*
X732250Y381540D01*
X731970Y381409D01*
X731693Y381271D01*
X731420Y381126D01*
X731150Y380975D01*
X730884Y380817D01*
X730622Y380652D01*
X730364Y380482D01*
X730110Y380305D01*
X729861Y380122D01*
X729616Y379933D01*
X729376Y379738D01*
X729141Y379537D01*
X728911Y379331D01*
X728685Y379119D01*
X728465Y378901D01*
X728251Y378679D01*
X728041Y378451D01*
X727838Y378218D01*
X727640Y377980D01*
X727448Y377738D01*
X727262Y377491D01*
X727082Y377239D01*
X726908Y376983D01*
X726741Y376723D01*
X726580Y376459D01*
X726425Y376192D01*
X726277Y375920D01*
X726135Y375645D01*
X726001Y375367D01*
X725873Y375085D01*
X725752Y374800D01*
X725638Y374513D01*
X725531Y374223D01*
X725431Y373930D01*
X725338Y373635D01*
X725253Y373338D01*
X725175Y373038D01*
X725104Y372737D01*
X725040Y372435D01*
X724984Y372131D01*
X724935Y371825D01*
X724894Y371519D01*
X724860Y371211D01*
X724834Y370903D01*
X724815Y370594D01*
X724804Y370285D01*
X724800Y369976D01*
D22*
X775473Y377850D03*
X775473Y390550D03*
X775473Y403250D03*
X775473Y415950D03*
X775473Y428650D03*
X775473Y441350D03*
X775473Y454050D03*
X775473Y466750D03*
X699527Y377850D03*
X699527Y390550D03*
X699527Y403250D03*
X699527Y415950D03*
X699527Y428650D03*
X699527Y441350D03*
X699527Y454050D03*
X699527Y466750D03*
X699527Y479450D03*
X699527Y492150D03*
X775473Y479450D03*
X775473Y492150D03*
D15*
X762198Y363420D02*
X762198Y355793D01*
X763723Y354268D01*
X766774Y354268D01*
X768299Y355793D01*
X768299Y363420D01*
X776129Y363420D02*
X776129Y354268D01*
X771553Y358844D02*
X776129Y363420D01*
X777654Y358844D02*
X771553Y358844D01*
D19*
X700162Y321214D02*
X700162Y198786D01*
X774838Y321214D02*
X774836Y321336D01*
X774830Y321458D01*
X774820Y321580D01*
X774807Y321701D01*
X774789Y321822D01*
X774768Y321942D01*
X774742Y322062D01*
X774713Y322180D01*
X774681Y322298D01*
X774644Y322415D01*
X774604Y322530D01*
X774560Y322644D01*
X774512Y322756D01*
X774461Y322867D01*
X774406Y322976D01*
X774348Y323084D01*
X774286Y323189D01*
X774221Y323292D01*
X774153Y323394D01*
X774081Y323493D01*
X774007Y323589D01*
X773929Y323684D01*
X773848Y323775D01*
X773765Y323865D01*
X773679Y323951D01*
X773589Y324034D01*
X773498Y324115D01*
X773403Y324193D01*
X773307Y324267D01*
X773208Y324339D01*
X773106Y324407D01*
X773003Y324472D01*
X772898Y324534D01*
X772790Y324592D01*
X772681Y324647D01*
X772570Y324698D01*
X772458Y324746D01*
X772344Y324790D01*
X772229Y324830D01*
X772112Y324867D01*
X771994Y324899D01*
X771876Y324928D01*
X771756Y324954D01*
X771636Y324975D01*
X771515Y324993D01*
X771394Y325006D01*
X771272Y325016D01*
X771150Y325022D01*
X771028Y325024D01*
X700162Y198786D02*
X700164Y198664D01*
X700170Y198542D01*
X700180Y198420D01*
X700193Y198299D01*
X700211Y198178D01*
X700232Y198058D01*
X700258Y197938D01*
X700287Y197820D01*
X700319Y197702D01*
X700356Y197585D01*
X700396Y197470D01*
X700440Y197356D01*
X700488Y197244D01*
X700539Y197133D01*
X700594Y197024D01*
X700652Y196916D01*
X700714Y196811D01*
X700779Y196708D01*
X700847Y196606D01*
X700919Y196507D01*
X700993Y196411D01*
X701071Y196316D01*
X701152Y196225D01*
X701235Y196135D01*
X701321Y196049D01*
X701411Y195966D01*
X701502Y195885D01*
X701597Y195807D01*
X701693Y195733D01*
X701792Y195661D01*
X701894Y195593D01*
X701997Y195528D01*
X702102Y195466D01*
X702210Y195408D01*
X702319Y195353D01*
X702430Y195302D01*
X702542Y195254D01*
X702656Y195210D01*
X702771Y195170D01*
X702888Y195133D01*
X703006Y195101D01*
X703124Y195072D01*
X703244Y195046D01*
X703364Y195025D01*
X703485Y195007D01*
X703606Y194994D01*
X703728Y194984D01*
X703850Y194978D01*
X703972Y194976D01*
X700162Y321214D02*
X700164Y321336D01*
X700170Y321458D01*
X700180Y321580D01*
X700193Y321701D01*
X700211Y321822D01*
X700232Y321942D01*
X700258Y322062D01*
X700287Y322180D01*
X700319Y322298D01*
X700356Y322415D01*
X700396Y322530D01*
X700440Y322644D01*
X700488Y322756D01*
X700539Y322867D01*
X700594Y322976D01*
X700652Y323084D01*
X700714Y323189D01*
X700779Y323292D01*
X700847Y323394D01*
X700919Y323493D01*
X700993Y323589D01*
X701071Y323684D01*
X701152Y323775D01*
X701235Y323865D01*
X701321Y323951D01*
X701411Y324034D01*
X701502Y324115D01*
X701597Y324193D01*
X701693Y324267D01*
X701792Y324339D01*
X701894Y324407D01*
X701997Y324472D01*
X702102Y324534D01*
X702210Y324592D01*
X702319Y324647D01*
X702430Y324698D01*
X702542Y324746D01*
X702656Y324790D01*
X702771Y324830D01*
X702888Y324867D01*
X703006Y324899D01*
X703124Y324928D01*
X703244Y324954D01*
X703364Y324975D01*
X703485Y324993D01*
X703606Y325006D01*
X703728Y325016D01*
X703850Y325022D01*
X703972Y325024D01*
X774838Y198786D02*
X774836Y198664D01*
X774830Y198542D01*
X774820Y198420D01*
X774807Y198299D01*
X774789Y198178D01*
X774768Y198058D01*
X774742Y197938D01*
X774713Y197820D01*
X774681Y197702D01*
X774644Y197585D01*
X774604Y197470D01*
X774560Y197356D01*
X774512Y197244D01*
X774461Y197133D01*
X774406Y197024D01*
X774348Y196916D01*
X774286Y196811D01*
X774221Y196708D01*
X774153Y196606D01*
X774081Y196507D01*
X774007Y196411D01*
X773929Y196316D01*
X773848Y196225D01*
X773765Y196135D01*
X773679Y196049D01*
X773589Y195966D01*
X773498Y195885D01*
X773403Y195807D01*
X773307Y195733D01*
X773208Y195661D01*
X773106Y195593D01*
X773003Y195528D01*
X772898Y195466D01*
X772790Y195408D01*
X772681Y195353D01*
X772570Y195302D01*
X772458Y195254D01*
X772344Y195210D01*
X772229Y195170D01*
X772112Y195133D01*
X771994Y195101D01*
X771876Y195072D01*
X771756Y195046D01*
X771636Y195025D01*
X771515Y195007D01*
X771394Y194994D01*
X771272Y194984D01*
X771150Y194978D01*
X771028Y194976D01*
X774838Y198786D02*
X774838Y321214D01*
X771028Y325024D02*
X703972Y325024D01*
X703972Y194976D02*
X771028Y194976D01*
D11*
X771282Y195230D02*
X771282Y324770D01*
D19*
X750200Y194976D02*
X750196Y195285D01*
X750185Y195594D01*
X750166Y195903D01*
X750140Y196211D01*
X750106Y196519D01*
X750065Y196825D01*
X750016Y197131D01*
X749960Y197435D01*
X749896Y197737D01*
X749825Y198038D01*
X749747Y198338D01*
X749662Y198635D01*
X749569Y198930D01*
X749469Y199223D01*
X749362Y199513D01*
X749248Y199800D01*
X749127Y200085D01*
X748999Y200367D01*
X748865Y200645D01*
X748723Y200920D01*
X748575Y201192D01*
X748420Y201459D01*
X748259Y201723D01*
X748092Y201983D01*
X747918Y202239D01*
X747738Y202491D01*
X747552Y202738D01*
X747360Y202980D01*
X747162Y203218D01*
X746959Y203451D01*
X746749Y203679D01*
X746535Y203901D01*
X746315Y204119D01*
X746089Y204331D01*
X745859Y204537D01*
X745624Y204738D01*
X745384Y204933D01*
X745139Y205122D01*
X744890Y205305D01*
X744636Y205482D01*
X744378Y205652D01*
X744116Y205817D01*
X743850Y205975D01*
X743580Y206126D01*
X743307Y206271D01*
X743030Y206409D01*
X742750Y206540D01*
X742467Y206664D01*
X742181Y206782D01*
X741892Y206892D01*
X741601Y206996D01*
X741307Y207092D01*
X741011Y207181D01*
X740712Y207263D01*
X740412Y207338D01*
X740110Y207405D01*
X739807Y207465D01*
X739502Y207517D01*
X739196Y207562D01*
X738889Y207600D01*
X738581Y207630D01*
X738273Y207652D01*
X737964Y207668D01*
X737655Y207675D01*
X737345Y207675D01*
X737036Y207668D01*
X736727Y207652D01*
X736419Y207630D01*
X736111Y207600D01*
X735804Y207562D01*
X735498Y207517D01*
X735193Y207465D01*
X734890Y207405D01*
X734588Y207338D01*
X734288Y207263D01*
X733989Y207181D01*
X733693Y207092D01*
X733399Y206996D01*
X733108Y206892D01*
X732819Y206782D01*
X732533Y206664D01*
X732250Y206540D01*
X731970Y206409D01*
X731693Y206271D01*
X731420Y206126D01*
X731150Y205975D01*
X730884Y205817D01*
X730622Y205652D01*
X730364Y205482D01*
X730110Y205305D01*
X729861Y205122D01*
X729616Y204933D01*
X729376Y204738D01*
X729141Y204537D01*
X728911Y204331D01*
X728685Y204119D01*
X728465Y203901D01*
X728251Y203679D01*
X728041Y203451D01*
X727838Y203218D01*
X727640Y202980D01*
X727448Y202738D01*
X727262Y202491D01*
X727082Y202239D01*
X726908Y201983D01*
X726741Y201723D01*
X726580Y201459D01*
X726425Y201192D01*
X726277Y200920D01*
X726135Y200645D01*
X726001Y200367D01*
X725873Y200085D01*
X725752Y199800D01*
X725638Y199513D01*
X725531Y199223D01*
X725431Y198930D01*
X725338Y198635D01*
X725253Y198338D01*
X725175Y198038D01*
X725104Y197737D01*
X725040Y197435D01*
X724984Y197131D01*
X724935Y196825D01*
X724894Y196519D01*
X724860Y196211D01*
X724834Y195903D01*
X724815Y195594D01*
X724804Y195285D01*
X724800Y194976D01*
D22*
X775473Y202850D03*
X775473Y215550D03*
X775473Y228250D03*
X775473Y240950D03*
X775473Y253650D03*
X775473Y266350D03*
X775473Y279050D03*
X775473Y291750D03*
X699527Y202850D03*
X699527Y215550D03*
X699527Y228250D03*
X699527Y240950D03*
X699527Y253650D03*
X699527Y266350D03*
X699527Y279050D03*
X699527Y291750D03*
X699527Y304450D03*
X699527Y317150D03*
X775473Y304450D03*
X775473Y317150D03*
D15*
X769698Y185920D02*
X769698Y178293D01*
X771223Y176768D01*
X774274Y176768D01*
X775799Y178293D01*
X775799Y185920D01*
X779053Y185920D02*
X785154Y185920D01*
X779053Y185920D02*
X779053Y181344D01*
X782103Y182869D01*
X783629Y182869D01*
X785154Y181344D01*
X785154Y178293D01*
X783629Y176768D01*
X780578Y176768D01*
X779053Y178293D01*
D11*
X740563Y346199D02*
X739631Y347131D01*
X737766Y347131D01*
X736834Y346199D01*
X736834Y342470D01*
X737766Y341538D01*
X739631Y341538D01*
X740563Y342470D01*
X742447Y341538D02*
X746176Y341538D01*
X742447Y341538D02*
X746176Y345267D01*
X746176Y346199D01*
X745244Y347131D01*
X743380Y347131D01*
X742447Y346199D01*
X748061Y341538D02*
X751789Y341538D01*
X748061Y341538D02*
X751789Y345267D01*
X751789Y346199D01*
X750857Y347131D01*
X748993Y347131D01*
X748061Y346199D01*
X612962Y455141D02*
X607369Y455141D01*
X607369Y457937D01*
X608301Y458869D01*
X610166Y458869D01*
X611098Y457937D01*
X611098Y455141D01*
X611098Y457005D02*
X612962Y458869D01*
X607369Y460754D02*
X607369Y464482D01*
X607369Y460754D02*
X610166Y460754D01*
X609234Y462618D01*
X609234Y463550D01*
X610166Y464482D01*
X612030Y464482D01*
X612962Y463550D01*
X612962Y461686D01*
X612030Y460754D01*
D10*
X45022Y88485D02*
X45022Y83655D01*
X45022Y86070D02*
X48242Y86070D01*
X48242Y88485D02*
X48242Y83655D01*
X50635Y86875D02*
X52245Y88485D01*
X52245Y83655D01*
X50635Y83655D02*
X53855Y83655D01*
X945022Y83655D02*
X945022Y88485D01*
X945022Y86070D02*
X948242Y86070D01*
X948242Y88485D02*
X948242Y83655D01*
X950635Y83655D02*
X953855Y83655D01*
X950635Y83655D02*
X953855Y86875D01*
X953855Y87680D01*
X953050Y88485D01*
X951440Y88485D01*
X950635Y87680D01*
X945022Y733655D02*
X945022Y738485D01*
X945022Y736070D02*
X948242Y736070D01*
X948242Y738485D02*
X948242Y733655D01*
X950635Y737680D02*
X951440Y738485D01*
X953050Y738485D01*
X953855Y737680D01*
X953855Y736875D01*
X953050Y736070D01*
X952245Y736070D01*
X953050Y736070D02*
X953855Y735265D01*
X953855Y734460D01*
X953050Y733655D01*
X951440Y733655D01*
X950635Y734460D01*
X45022Y733655D02*
X45022Y738485D01*
X45022Y736070D02*
X48242Y736070D01*
X48242Y738485D02*
X48242Y733655D01*
X53050Y733655D02*
X53050Y738485D01*
X50635Y736070D01*
X53855Y736070D01*
D12*
X63000Y205500D02*
X42000Y205500D01*
X88000Y198500D02*
X88000Y189500D01*
X88000Y145500D02*
X88000Y136500D01*
X63000Y129500D02*
X42000Y129500D01*
D15*
X-9008Y107048D02*
X-20702Y107048D01*
X-20702Y112895D01*
X-18753Y114844D01*
X-16804Y114844D01*
X-14855Y112895D01*
X-12906Y114844D01*
X-10957Y114844D01*
X-9008Y112895D01*
X-9008Y107048D01*
X-14855Y107048D02*
X-14855Y112895D01*
X-20702Y120691D02*
X-20702Y124589D01*
X-20702Y120691D02*
X-18753Y118742D01*
X-10957Y118742D01*
X-9008Y120691D01*
X-9008Y124589D01*
X-10957Y126538D01*
X-18753Y126538D01*
X-20702Y124589D01*
X-16804Y130436D02*
X-9008Y130436D01*
X-16804Y130436D02*
X-20702Y134334D01*
X-16804Y138232D01*
X-9008Y138232D01*
X-14855Y138232D02*
X-14855Y130436D01*
X-9008Y142130D02*
X-20702Y142130D01*
X-20702Y147977D01*
X-18753Y149926D01*
X-14855Y149926D01*
X-12906Y147977D01*
X-12906Y142130D01*
X-12906Y146028D02*
X-9008Y149926D01*
X-9008Y153824D02*
X-20702Y153824D01*
X-9008Y153824D02*
X-9008Y159671D01*
X-10957Y161620D01*
X-18753Y161620D01*
X-20702Y159671D01*
X-20702Y153824D01*
X-20702Y177212D02*
X-20702Y185008D01*
X-20702Y177212D02*
X-9008Y177212D01*
X-9008Y185008D01*
X-14855Y181110D02*
X-14855Y177212D01*
X-20702Y188906D02*
X-9008Y188906D01*
X-9008Y194753D01*
X-10957Y196702D01*
X-18753Y196702D01*
X-20702Y194753D01*
X-20702Y188906D01*
X-20702Y206447D02*
X-18753Y208396D01*
X-20702Y206447D02*
X-20702Y202549D01*
X-18753Y200600D01*
X-10957Y200600D01*
X-9008Y202549D01*
X-9008Y206447D01*
X-10957Y208396D01*
X-14855Y208396D01*
X-14855Y204498D01*
X-20702Y212294D02*
X-20702Y220090D01*
X-20702Y212294D02*
X-9008Y212294D01*
X-9008Y220090D01*
X-14855Y216192D02*
X-14855Y212294D01*
D19*
X52662Y230364D02*
X53764Y229262D01*
X54865Y229262D01*
X55967Y230364D01*
X55967Y235872D01*
X57068Y235872D02*
X54865Y235872D01*
X63451Y235872D02*
X63451Y229262D01*
X60146Y232567D02*
X63451Y235872D01*
X64553Y232567D02*
X60146Y232567D01*
D12*
X240200Y521350D02*
X233850Y527700D01*
X221150Y527700D01*
X214800Y521350D01*
X214800Y508650D01*
X221150Y502300D01*
X233850Y502300D01*
X240200Y508650D01*
X240200Y521350D01*
D10*
X252935Y515410D02*
X253740Y514605D01*
X254545Y514605D01*
X255350Y515410D01*
X255350Y519435D01*
X254545Y519435D02*
X256155Y519435D01*
X258548Y519435D02*
X261768Y519435D01*
X258548Y519435D02*
X258548Y517020D01*
X260158Y517825D01*
X260963Y517825D01*
X261768Y517020D01*
X261768Y515410D01*
X260963Y514605D01*
X259353Y514605D01*
X258548Y515410D01*
D12*
X123850Y315200D02*
X130200Y308850D01*
X123850Y315200D02*
X111150Y315200D01*
X104800Y308850D01*
X104800Y296150D01*
X111150Y289800D01*
X123850Y289800D01*
X130200Y296150D01*
X130200Y308850D01*
D10*
X113740Y322105D02*
X112935Y322910D01*
X113740Y322105D02*
X114545Y322105D01*
X115350Y322910D01*
X115350Y326935D01*
X114545Y326935D02*
X116155Y326935D01*
X120158Y326130D02*
X121768Y326935D01*
X120158Y326130D02*
X118548Y324520D01*
X118548Y322910D01*
X119353Y322105D01*
X120963Y322105D01*
X121768Y322910D01*
X121768Y323715D01*
X120963Y324520D01*
X118548Y324520D01*
D12*
X263850Y267700D02*
X270200Y261350D01*
X263850Y267700D02*
X251150Y267700D01*
X244800Y261350D01*
X244800Y248650D01*
X251150Y242300D01*
X263850Y242300D01*
X270200Y248650D01*
X270200Y261350D01*
D10*
X238740Y264605D02*
X237935Y265410D01*
X238740Y264605D02*
X239545Y264605D01*
X240350Y265410D01*
X240350Y269435D01*
X239545Y269435D02*
X241155Y269435D01*
X243548Y269435D02*
X246768Y269435D01*
X246768Y268630D01*
X243548Y265410D01*
X243548Y264605D01*
D12*
X135200Y688850D02*
X128850Y695200D01*
X116150Y695200D01*
X109800Y688850D01*
X109800Y676150D01*
X116150Y669800D01*
X128850Y669800D01*
X135200Y676150D01*
X135200Y688850D01*
D10*
X111240Y697105D02*
X110435Y697910D01*
X111240Y697105D02*
X112045Y697105D01*
X112850Y697910D01*
X112850Y701935D01*
X112045Y701935D02*
X113655Y701935D01*
X116048Y701130D02*
X116853Y701935D01*
X118463Y701935D01*
X119268Y701130D01*
X119268Y700325D01*
X118463Y699520D01*
X119268Y698715D01*
X119268Y697910D01*
X118463Y697105D01*
X116853Y697105D01*
X116048Y697910D01*
X116048Y698715D01*
X116853Y699520D01*
X116048Y700325D01*
X116048Y701130D01*
X116853Y699520D02*
X118463Y699520D01*
D19*
X158000Y189250D02*
X158000Y130750D01*
X262000Y130750D02*
X262000Y189250D01*
D23*
X260000Y196000D03*
D19*
X262000Y130750D02*
X256000Y130750D01*
X164000Y130750D02*
X158000Y130750D01*
X256000Y189250D02*
X262000Y189250D01*
X164000Y189250D02*
X158000Y189250D01*
D11*
X265812Y154641D02*
X270472Y154641D01*
X271405Y155573D01*
X271405Y157437D01*
X270472Y158369D01*
X265812Y158369D01*
X265812Y160254D02*
X265812Y163982D01*
X266744Y163982D01*
X270472Y160254D01*
X271405Y160254D01*
D12*
X627300Y466950D02*
X633650Y460600D01*
X627300Y466950D02*
X627300Y479650D01*
X633650Y486000D01*
X646350Y486000D02*
X652700Y479650D01*
X652700Y466950D01*
X646350Y460600D01*
X627300Y428850D02*
X627300Y416150D01*
X627300Y428850D02*
X633650Y435200D01*
X646350Y435200D02*
X652700Y428850D01*
X633650Y435200D02*
X627300Y441550D01*
X627300Y454250D01*
X633650Y460600D01*
X646350Y460600D02*
X652700Y454250D01*
X652700Y441550D01*
X646350Y435200D01*
X646350Y409800D02*
X633650Y409800D01*
X627300Y416150D01*
X646350Y409800D02*
X652700Y416150D01*
X652700Y428850D01*
X646350Y486000D02*
X633650Y486000D01*
D10*
X625395Y411240D02*
X624590Y410435D01*
X625395Y411240D02*
X625395Y412045D01*
X624590Y412850D01*
X620565Y412850D01*
X620565Y412045D02*
X620565Y413655D01*
X624590Y416048D02*
X625395Y416853D01*
X625395Y418463D01*
X624590Y419268D01*
X621370Y419268D01*
X620565Y418463D01*
X620565Y416853D01*
X621370Y416048D01*
X622175Y416048D01*
X622980Y416853D01*
X622980Y419268D01*
D11*
X291301Y163063D02*
X290369Y162131D01*
X290369Y160266D01*
X291301Y159334D01*
X295030Y159334D01*
X295962Y160266D01*
X295962Y162131D01*
X295030Y163063D01*
X295962Y164947D02*
X295962Y168676D01*
X292234Y168676D02*
X295962Y164947D01*
X292234Y168676D02*
X291301Y168676D01*
X290369Y167744D01*
X290369Y165880D01*
X291301Y164947D01*
X291301Y170561D02*
X290369Y171493D01*
X290369Y173357D01*
X291301Y174289D01*
X292234Y174289D01*
X293166Y173357D01*
X293166Y172425D01*
X293166Y173357D02*
X294098Y174289D01*
X295030Y174289D01*
X295962Y173357D01*
X295962Y171493D01*
X295030Y170561D01*
D19*
X255388Y686444D02*
X255388Y693556D01*
X260722Y705240D02*
X264278Y705240D01*
X269612Y693556D02*
X269612Y690254D01*
X264278Y674760D02*
X260722Y674760D01*
X275708Y663330D02*
X275778Y663328D01*
X275848Y663322D01*
X275917Y663313D01*
X275986Y663299D01*
X276054Y663282D01*
X276120Y663261D01*
X276186Y663237D01*
X276250Y663209D01*
X276312Y663177D01*
X276373Y663142D01*
X276432Y663104D01*
X276488Y663062D01*
X276542Y663018D01*
X276594Y662970D01*
X276642Y662920D01*
X276688Y662867D01*
X276731Y662812D01*
X276771Y662755D01*
X276808Y662695D01*
X276841Y662633D01*
X276871Y662570D01*
X276897Y662505D01*
X276920Y662439D01*
X276939Y662372D01*
X276954Y662303D01*
X276966Y662234D01*
X276974Y662165D01*
X276978Y662095D01*
X276978Y662025D01*
X276974Y661955D01*
X276966Y661886D01*
X276954Y661817D01*
X276939Y661748D01*
X276920Y661681D01*
X276897Y661615D01*
X276871Y661550D01*
X276841Y661487D01*
X276808Y661425D01*
X276771Y661365D01*
X276731Y661308D01*
X276688Y661253D01*
X276642Y661200D01*
X276594Y661150D01*
X276542Y661102D01*
X276488Y661058D01*
X276432Y661016D01*
X276373Y660978D01*
X276312Y660943D01*
X276250Y660911D01*
X276186Y660883D01*
X276120Y660859D01*
X276054Y660838D01*
X275986Y660821D01*
X275917Y660807D01*
X275848Y660798D01*
X275778Y660792D01*
X275708Y660790D01*
X275638Y660792D01*
X275568Y660798D01*
X275499Y660807D01*
X275430Y660821D01*
X275362Y660838D01*
X275296Y660859D01*
X275230Y660883D01*
X275166Y660911D01*
X275104Y660943D01*
X275043Y660978D01*
X274984Y661016D01*
X274928Y661058D01*
X274874Y661102D01*
X274822Y661150D01*
X274774Y661200D01*
X274728Y661253D01*
X274685Y661308D01*
X274645Y661365D01*
X274608Y661425D01*
X274575Y661487D01*
X274545Y661550D01*
X274519Y661615D01*
X274496Y661681D01*
X274477Y661748D01*
X274462Y661817D01*
X274450Y661886D01*
X274442Y661955D01*
X274438Y662025D01*
X274438Y662095D01*
X274442Y662165D01*
X274450Y662234D01*
X274462Y662303D01*
X274477Y662372D01*
X274496Y662439D01*
X274519Y662505D01*
X274545Y662570D01*
X274575Y662633D01*
X274608Y662695D01*
X274645Y662755D01*
X274685Y662812D01*
X274728Y662867D01*
X274774Y662920D01*
X274822Y662970D01*
X274874Y663018D01*
X274928Y663062D01*
X274984Y663104D01*
X275043Y663142D01*
X275104Y663177D01*
X275166Y663209D01*
X275230Y663237D01*
X275296Y663261D01*
X275362Y663282D01*
X275430Y663299D01*
X275499Y663313D01*
X275568Y663322D01*
X275638Y663328D01*
X275708Y663330D01*
D11*
X244988Y710175D02*
X244988Y716531D01*
X244988Y710175D02*
X246259Y708904D01*
X248801Y708904D01*
X250072Y710175D01*
X250072Y716531D01*
X252472Y713988D02*
X255014Y716531D01*
X255014Y708904D01*
X252472Y708904D02*
X257557Y708904D01*
X259956Y713988D02*
X262498Y716531D01*
X262498Y708904D01*
X259956Y708904D02*
X265041Y708904D01*
D24*
X230355Y726277D02*
X230355Y732124D01*
X232304Y730175D01*
X234253Y732124D01*
X234253Y726277D01*
X235968Y726277D02*
X235968Y730175D01*
X237917Y732124D01*
X239866Y730175D01*
X239866Y726277D01*
X239866Y729200D02*
X235968Y729200D01*
X241581Y732124D02*
X245479Y726277D01*
X241581Y726277D02*
X245479Y732124D01*
X247194Y731149D02*
X248169Y732124D01*
X250118Y732124D01*
X251092Y731149D01*
X251092Y730175D01*
X250118Y729200D01*
X251092Y728226D01*
X251092Y727251D01*
X250118Y726277D01*
X248169Y726277D01*
X247194Y727251D01*
X247194Y728226D01*
X248169Y729200D01*
X247194Y730175D01*
X247194Y731149D01*
X248169Y729200D02*
X250118Y729200D01*
X252807Y730175D02*
X254756Y732124D01*
X254756Y726277D01*
X252807Y726277D02*
X256705Y726277D01*
X258420Y730175D02*
X260369Y732124D01*
X260369Y726277D01*
X258420Y726277D02*
X262318Y726277D01*
X264034Y726277D02*
X264034Y732124D01*
X264034Y726277D02*
X267932Y726277D01*
X269647Y732124D02*
X273545Y732124D01*
X269647Y732124D02*
X269647Y726277D01*
X273545Y726277D01*
X271596Y729200D02*
X269647Y729200D01*
X275260Y727251D02*
X275260Y732124D01*
X275260Y727251D02*
X276234Y726277D01*
X278183Y726277D01*
X279158Y727251D01*
X279158Y732124D01*
X283796Y732124D02*
X284771Y731149D01*
X283796Y732124D02*
X281847Y732124D01*
X280873Y731149D01*
X280873Y730175D01*
X281847Y729200D01*
X283796Y729200D01*
X284771Y728226D01*
X284771Y727251D01*
X283796Y726277D01*
X281847Y726277D01*
X280873Y727251D01*
X286486Y729200D02*
X290384Y729200D01*
X288435Y731149D02*
X288435Y727251D01*
X294048Y726277D02*
X294048Y732124D01*
X292099Y732124D02*
X295997Y732124D01*
D11*
X305369Y697141D02*
X310962Y697141D01*
X305369Y697141D02*
X305369Y699937D01*
X306301Y700869D01*
X308166Y700869D01*
X309098Y699937D01*
X309098Y697141D01*
X309098Y699005D02*
X310962Y700869D01*
X305369Y702754D02*
X305369Y706482D01*
X306301Y706482D01*
X310030Y702754D01*
X310962Y702754D01*
X775533Y571641D02*
X781126Y571641D01*
X775533Y571641D02*
X775533Y574437D01*
X776465Y575369D01*
X778330Y575369D01*
X779262Y574437D01*
X779262Y571641D01*
X779262Y573505D02*
X781126Y575369D01*
X776465Y577254D02*
X775533Y578186D01*
X775533Y580050D01*
X776465Y580983D01*
X777398Y580983D01*
X778330Y580050D01*
X779262Y580983D01*
X780194Y580983D01*
X781126Y580050D01*
X781126Y578186D01*
X780194Y577254D01*
X779262Y577254D01*
X778330Y578186D01*
X777398Y577254D01*
X776465Y577254D01*
X778330Y578186D02*
X778330Y580050D01*
X765126Y571141D02*
X759533Y571141D01*
X759533Y573937D01*
X760465Y574869D01*
X762330Y574869D01*
X763262Y573937D01*
X763262Y571141D01*
X763262Y573005D02*
X765126Y574869D01*
X764194Y576754D02*
X765126Y577686D01*
X765126Y579550D01*
X764194Y580483D01*
X760465Y580483D01*
X759533Y579550D01*
X759533Y577686D01*
X760465Y576754D01*
X761398Y576754D01*
X762330Y577686D01*
X762330Y580483D01*
X748126Y570834D02*
X742533Y570834D01*
X742533Y573631D01*
X743465Y574563D01*
X745330Y574563D01*
X746262Y573631D01*
X746262Y570834D01*
X746262Y572699D02*
X748126Y574563D01*
X744398Y576447D02*
X742533Y578312D01*
X748126Y578312D01*
X748126Y580176D02*
X748126Y576447D01*
X747194Y582061D02*
X743465Y582061D01*
X742533Y582993D01*
X742533Y584857D01*
X743465Y585789D01*
X747194Y585789D01*
X748126Y584857D01*
X748126Y582993D01*
X747194Y582061D01*
X743465Y585789D01*
X732126Y570334D02*
X726533Y570334D01*
X726533Y573131D01*
X727465Y574063D01*
X729330Y574063D01*
X730262Y573131D01*
X730262Y570334D01*
X730262Y572199D02*
X732126Y574063D01*
X728398Y575947D02*
X726533Y577812D01*
X732126Y577812D01*
X732126Y579676D02*
X732126Y575947D01*
X728398Y581561D02*
X726533Y583425D01*
X732126Y583425D01*
X732126Y581561D02*
X732126Y585289D01*
X679834Y583631D02*
X679834Y578038D01*
X679834Y583631D02*
X682631Y583631D01*
X683563Y582699D01*
X683563Y580834D01*
X682631Y579902D01*
X679834Y579902D01*
X681699Y579902D02*
X683563Y578038D01*
X685447Y581767D02*
X687312Y583631D01*
X687312Y578038D01*
X689176Y578038D02*
X685447Y578038D01*
X691061Y582699D02*
X691993Y583631D01*
X693857Y583631D01*
X694789Y582699D01*
X694789Y581767D01*
X693857Y580834D01*
X692925Y580834D01*
X693857Y580834D02*
X694789Y579902D01*
X694789Y578970D01*
X693857Y578038D01*
X691993Y578038D01*
X691061Y578970D01*
X696834Y576131D02*
X696834Y570538D01*
X696834Y576131D02*
X699631Y576131D01*
X700563Y575199D01*
X700563Y573334D01*
X699631Y572402D01*
X696834Y572402D01*
X698699Y572402D02*
X700563Y570538D01*
X702447Y570538D02*
X706176Y570538D01*
X702447Y570538D02*
X706176Y574267D01*
X706176Y575199D01*
X705244Y576131D01*
X703380Y576131D01*
X702447Y575199D01*
X708061Y576131D02*
X711789Y576131D01*
X708061Y576131D02*
X708061Y573334D01*
X709925Y574267D01*
X710857Y574267D01*
X711789Y573334D01*
X711789Y571470D01*
X710857Y570538D01*
X708993Y570538D01*
X708061Y571470D01*
X717834Y533631D02*
X717834Y528038D01*
X717834Y533631D02*
X720631Y533631D01*
X721563Y532699D01*
X721563Y530834D01*
X720631Y529902D01*
X717834Y529902D01*
X719699Y529902D02*
X721563Y528038D01*
X723447Y528038D02*
X727176Y528038D01*
X723447Y528038D02*
X727176Y531767D01*
X727176Y532699D01*
X726244Y533631D01*
X724380Y533631D01*
X723447Y532699D01*
X730925Y532699D02*
X732789Y533631D01*
X730925Y532699D02*
X729061Y530834D01*
X729061Y528970D01*
X729993Y528038D01*
X731857Y528038D01*
X732789Y528970D01*
X732789Y529902D01*
X731857Y530834D01*
X729061Y530834D01*
X703334Y520131D02*
X703334Y514538D01*
X703334Y520131D02*
X706131Y520131D01*
X707063Y519199D01*
X707063Y517334D01*
X706131Y516402D01*
X703334Y516402D01*
X705199Y516402D02*
X707063Y514538D01*
X708947Y514538D02*
X712676Y514538D01*
X708947Y514538D02*
X712676Y518267D01*
X712676Y519199D01*
X711744Y520131D01*
X709880Y520131D01*
X708947Y519199D01*
X714561Y520131D02*
X718289Y520131D01*
X718289Y519199D01*
X714561Y515470D01*
X714561Y514538D01*
D19*
X787748Y628884D02*
X787748Y707116D01*
X784446Y707116D01*
X629252Y707116D02*
X629252Y628884D01*
X632554Y628884D01*
X784446Y628884D02*
X787748Y628884D01*
X632554Y707116D02*
X629252Y707116D01*
D17*
X641612Y636468D02*
X633646Y628503D01*
X633646Y636468D02*
X641612Y628503D01*
X637629Y628503D02*
X637629Y636468D01*
X641612Y632486D02*
X633646Y632486D01*
X603615Y634022D02*
X603615Y643979D01*
X603615Y634022D02*
X605606Y632031D01*
X609589Y632031D01*
X611580Y634022D01*
X611580Y643979D01*
X615309Y632031D02*
X623274Y632031D01*
X615309Y632031D02*
X623274Y639996D01*
X623274Y641988D01*
X621283Y643979D01*
X617300Y643979D01*
X615309Y641988D01*
X645592Y679531D02*
X645592Y691479D01*
X649574Y691479D02*
X641609Y691479D01*
X653303Y691479D02*
X653303Y679531D01*
X653303Y691479D02*
X659277Y691479D01*
X661268Y689488D01*
X661268Y685505D01*
X659277Y683514D01*
X653303Y683514D01*
X664997Y679531D02*
X668980Y679531D01*
X666988Y679531D02*
X666988Y691479D01*
X664997Y691479D02*
X668980Y691479D01*
X678767Y691479D02*
X680758Y689488D01*
X678767Y691479D02*
X674784Y691479D01*
X672793Y689488D01*
X672793Y681522D01*
X674784Y679531D01*
X678767Y679531D01*
X680758Y681522D01*
X688470Y689488D02*
X692452Y691479D01*
X688470Y689488D02*
X684487Y685505D01*
X684487Y681522D01*
X686478Y679531D01*
X690461Y679531D01*
X692452Y681522D01*
X692452Y683514D01*
X690461Y685505D01*
X684487Y685505D01*
X696181Y687496D02*
X696181Y679531D01*
X696181Y687496D02*
X700164Y691479D01*
X704146Y687496D01*
X704146Y679531D01*
X704146Y685505D02*
X696181Y685505D01*
X707875Y691479D02*
X715840Y691479D01*
X707875Y691479D02*
X707875Y685505D01*
X711858Y687496D01*
X713849Y687496D01*
X715840Y685505D01*
X715840Y681522D01*
X713849Y679531D01*
X709866Y679531D01*
X707875Y681522D01*
X719569Y681522D02*
X721560Y679531D01*
X725543Y679531D01*
X727534Y681522D01*
X727534Y689488D01*
X725543Y691479D01*
X721560Y691479D01*
X719569Y689488D01*
X719569Y687496D01*
X721560Y685505D01*
X727534Y685505D01*
X735245Y689488D02*
X739228Y691479D01*
X735245Y689488D02*
X731263Y685505D01*
X731263Y681522D01*
X733254Y679531D01*
X737237Y679531D01*
X739228Y681522D01*
X739228Y683514D01*
X737237Y685505D01*
X731263Y685505D01*
X742957Y691479D02*
X742957Y679531D01*
X748931Y679531D01*
X750922Y681522D01*
X750922Y689488D01*
X748931Y691479D01*
X742957Y691479D01*
X754651Y691479D02*
X754651Y679531D01*
X758633Y683514D01*
X762616Y679531D01*
X762616Y691479D01*
X766345Y691479D02*
X766345Y679531D01*
X766345Y691479D02*
X772319Y691479D01*
X774310Y689488D01*
X774310Y685505D01*
X772319Y683514D01*
X766345Y683514D01*
X770327Y683514D02*
X774310Y679531D01*
X786004Y689488D02*
X784013Y691479D01*
X780030Y691479D01*
X778039Y689488D01*
X778039Y681522D01*
X780030Y679531D01*
X784013Y679531D01*
X786004Y681522D01*
X786004Y685505D01*
X782021Y685505D01*
X795707Y679531D02*
X795707Y691479D01*
X789733Y685505D01*
X797698Y685505D01*
M02*
