G04 EAGLE Gerber RS-274X export*
G75*
%MOMM*%
%FSLAX34Y34*%
%LPD*%
%INSoldermask Bottom*%
%IPPOS*%
%AMOC8*
5,1,8,0,0,1.08239X$1,22.5*%
G01*
%ADD10C,1.753200*%
%ADD11C,2.235200*%
%ADD12C,1.422400*%
%ADD13C,6.045200*%
%ADD14C,6.553200*%
%ADD15C,1.103200*%
%ADD16C,2.082800*%


D10*
X598000Y66200D03*
X355400Y66200D03*
D11*
X42600Y589400D03*
X88320Y589400D03*
D12*
X850614Y493745D02*
X862806Y493745D01*
X862806Y472155D02*
X850614Y472155D01*
X850614Y450565D02*
X862806Y450565D01*
X862806Y428975D02*
X850614Y428975D01*
X850614Y407385D02*
X862806Y407385D01*
X862806Y385795D02*
X850614Y385795D01*
X850614Y364205D02*
X862806Y364205D01*
X862806Y342615D02*
X850614Y342615D01*
X850614Y321025D02*
X862806Y321025D01*
X862806Y299435D02*
X850614Y299435D01*
X850614Y277845D02*
X862806Y277845D01*
X862806Y256255D02*
X850614Y256255D01*
X893794Y493745D02*
X905986Y493745D01*
X905986Y472155D02*
X893794Y472155D01*
X893794Y450565D02*
X905986Y450565D01*
X905986Y428975D02*
X893794Y428975D01*
X893794Y407385D02*
X905986Y407385D01*
X905986Y385795D02*
X893794Y385795D01*
X893794Y364205D02*
X905986Y364205D01*
X905986Y342615D02*
X893794Y342615D01*
X893794Y321025D02*
X905986Y321025D01*
X905986Y299435D02*
X893794Y299435D01*
X893794Y277845D02*
X905986Y277845D01*
X905986Y256255D02*
X893794Y256255D01*
D13*
X878300Y608934D03*
X878300Y141066D03*
D14*
X50000Y50000D03*
X950000Y50000D03*
X950000Y700000D03*
X50000Y700000D03*
D15*
X55000Y189500D03*
X55000Y145500D03*
D16*
X227500Y515000D03*
X117500Y302500D03*
X257500Y255000D03*
X122500Y682500D03*
X640000Y422500D03*
X640000Y447900D03*
X640000Y473300D03*
M02*
