M48
;GenerationSoftware,Autodesk,EAGLE,9.2.2*%
;CreationDate,2020-02-15T03:13:10Z*%
FMAT,2
ICI,OFF
METRIC,TZ,000.000
T9C0.350
T8C0.381
T7C0.813
T6C0.900
T5C1.016
T4C1.550
T3C2.032
T2C3.200
T1C3.302
%
G90
M71
T1
X87830Y60893
X87830Y14107
T2
X5000Y5000
X5000Y70000
X95000Y70000
X95000Y5000
T3
X4260Y58940
X8832Y58940
T4
X59800Y6620
X35540Y6620
T5
X22750Y51500
X11750Y30250
X25750Y25500
X63500Y43790
X63500Y41250
X12250Y68250
X63500Y46330
T6
X5500Y18950
X5500Y14550
T7
X89989Y38580
X89989Y40739
X89989Y36421
X89989Y45056
X89989Y47215
X89989Y49374
X85671Y25625
X85671Y27784
X85671Y29943
X85671Y32102
X85671Y34262
X85671Y36421
X85671Y38580
X85671Y40739
X85671Y42898
X85671Y45056
X85671Y47215
X85671Y49374
X89989Y34262
X89989Y32102
X89989Y29943
X89989Y27784
X89989Y25625
X89989Y42898
T8
X17500Y28500
X21950Y32700
X30250Y8750
X12250Y9650
X3000Y23500
X3000Y10250
X8500Y23500
X8500Y10250
X32250Y8750
X65250Y10000
X16750Y71500
X16750Y65750
X29000Y68250
X34000Y65500
X51493Y65772
X50000Y55000
X51450Y51050
X52900Y56950
X56800Y55000
X57450Y51050
X58050Y59000
X59450Y61100
X78100Y31850
X77250Y49250
X74550Y36600
X59650Y39311
X62400Y39300
X72850Y34100
X70450Y34700
X43250Y63000
X43250Y59750
X30850Y64250
X30850Y61900
X36850Y51750
X36850Y46750
X21316Y9250
X19150Y25100
X10750Y25050
X20750Y23400
X19150Y21700
X21300Y18350
X23550Y13750
X20750Y13750
X18470Y13720
X59950Y44150
X66700Y50600
X68100Y53300
X25350Y41100
X50100Y58000
X52350Y59000
X76550Y30950
X35950Y8750
X60850Y9900
X34000Y64750
X48500Y60500
X50100Y58950
X59200Y49800
X16966Y8150
X36900Y60500
X23400Y32200
X45800Y60600
X56100Y54500
X45100Y61050
X37275Y61199
X43100Y69039
X43150Y70400
X15000Y28000
X15000Y26650
X57950Y65850
X60950Y65850
X65200Y55250
X68050Y54500
X61300Y69300
X58700Y69300
X38750Y63000
X25750Y62950
X78600Y50050
X25900Y30950
X56550Y64000
X74600Y15900
X69950Y35200
X73350Y33600
X56150Y58900
X50747Y69750
X41000Y38500
X41050Y35850
X28250Y50450
X55500Y52500
X83350Y45300
X82500Y42950
X83328Y46222
X82050Y45300
X29000Y49250
X81000Y29000
X52450Y44600
X48900Y44589
X52000Y54750
X50600Y63950
X65250Y27000
X65850Y23700
X50609Y64900
X53000Y54750
X65897Y53997
X53592Y62264
X52750Y66750
X65103Y54297
X52500Y62250
X41800Y62261
X45093Y62243
X42350Y61650
X45800Y61600
X65200Y26150
X65200Y24600
X81000Y27500
X67011Y42319
X67050Y44811
X44000Y68750
X44000Y70361
X28250Y48050
X54250Y52500
X23000Y43000
X11750Y43000
X10500Y51000
X4250Y50990
X28450Y33850
X41000Y43000
X46000Y36350
X42200Y32550
X50350Y32500
X39250Y54600
X74600Y19100
X63200Y51250
X50100Y56950
X54000Y59000
X55000Y51050
X58000Y55000
X52550Y63700
X43100Y56150
X54050Y44150
X71700Y17050
X72000Y37000
X53250Y52500
X27500Y49250
X65100Y49800
T9
X60100Y70900
X61800Y70900
X66483Y47600
X65100Y47600
X93200Y45056
X82400Y50600
X83150Y51075
X74550Y49150
X60100Y73200
X70850Y69600
X70850Y64250
X81250Y69000
X59000Y72250
X72750Y64250
X69000Y64250
X74000Y69600
X68900Y69650
X28250Y14750
X74550Y27900
M30