G04 EAGLE Gerber RS-274X export*
G75*
%MOMM*%
%FSLAX34Y34*%
%LPD*%
%INSolderpaste Top*%
%IPPOS*%
%AMOC8*
5,1,8,0,0,1.08239X$1,22.5*%
G01*
%ADD10R,1.000000X1.100000*%
%ADD11R,1.100000X1.000000*%
%ADD12R,1.400000X1.200000*%
%ADD13R,0.762000X1.524000*%
%ADD14R,1.200000X0.600000*%
%ADD15R,0.900000X1.800000*%
%ADD16R,1.400000X2.000000*%
%ADD17R,1.527000X2.000000*%
%ADD18R,1.100000X1.800000*%
%ADD19R,1.400000X1.600000*%
%ADD20R,1.800000X1.600000*%
%ADD21R,0.550000X1.200000*%
%ADD22R,1.500000X0.500000*%
%ADD23R,0.500000X1.500000*%
%ADD24R,1.600000X1.400000*%
%ADD25R,3.000000X1.400000*%
%ADD26R,0.812800X1.524000*%
%ADD27R,3.124200X1.905000*%
%ADD28R,1.470000X1.524000*%
%ADD29C,0.600000*%
%ADD30R,1.900000X1.100000*%
%ADD31R,1.200000X1.400000*%
%ADD32R,1.270000X2.540000*%
%ADD33R,2.032000X0.660400*%
%ADD34R,2.500000X0.500000*%
%ADD35R,2.500000X2.000000*%
%ADD36R,0.348000X1.397000*%
%ADD37R,1.320800X0.558800*%
%ADD38R,0.558800X2.311400*%
%ADD39R,2.311400X0.558800*%

G36*
X111735Y634446D02*
X111735Y634446D01*
X111765Y634451D01*
X111806Y634450D01*
X112647Y634554D01*
X112695Y634569D01*
X112784Y634586D01*
X113582Y634873D01*
X113625Y634898D01*
X113708Y634935D01*
X114423Y635391D01*
X114460Y635425D01*
X114532Y635479D01*
X115128Y636082D01*
X115157Y636123D01*
X115216Y636192D01*
X115664Y636912D01*
X115683Y636958D01*
X115725Y637039D01*
X116003Y637839D01*
X116011Y637889D01*
X116034Y637977D01*
X116128Y638819D01*
X116126Y638850D01*
X116132Y638890D01*
X116132Y661282D01*
X116137Y661993D01*
X116129Y662043D01*
X116123Y662135D01*
X115968Y662834D01*
X115949Y662881D01*
X115922Y662968D01*
X115616Y663616D01*
X115587Y663657D01*
X115542Y663737D01*
X115099Y664300D01*
X115062Y664333D01*
X115000Y664401D01*
X114443Y664851D01*
X114399Y664876D01*
X114323Y664928D01*
X113680Y665243D01*
X113632Y665257D01*
X113547Y665291D01*
X112850Y665455D01*
X112799Y665458D01*
X112704Y665472D01*
X94924Y665472D01*
X94875Y665464D01*
X94770Y665453D01*
X93935Y665245D01*
X93889Y665224D01*
X93802Y665195D01*
X93034Y664806D01*
X92994Y664776D01*
X92916Y664728D01*
X92254Y664178D01*
X92221Y664139D01*
X92156Y664075D01*
X91633Y663392D01*
X91610Y663347D01*
X91560Y663270D01*
X91202Y662487D01*
X91190Y662438D01*
X91158Y662352D01*
X90983Y661509D01*
X90982Y661459D01*
X90970Y661368D01*
X90988Y660513D01*
X90988Y638717D01*
X90993Y638686D01*
X90992Y638645D01*
X91089Y637792D01*
X91103Y637743D01*
X91121Y637652D01*
X91406Y636842D01*
X91431Y636798D01*
X91469Y636714D01*
X91928Y635988D01*
X91963Y635951D01*
X92018Y635877D01*
X92629Y635273D01*
X92670Y635244D01*
X92741Y635184D01*
X93471Y634732D01*
X93518Y634714D01*
X93601Y634671D01*
X94414Y634394D01*
X94463Y634387D01*
X94553Y634364D01*
X95408Y634276D01*
X95439Y634278D01*
X95479Y634273D01*
X111735Y634446D01*
G37*
G36*
X112245Y513336D02*
X112245Y513336D01*
X112350Y513347D01*
X113185Y513555D01*
X113231Y513576D01*
X113318Y513605D01*
X114086Y513994D01*
X114126Y514024D01*
X114204Y514072D01*
X114866Y514622D01*
X114899Y514661D01*
X114964Y514725D01*
X115487Y515408D01*
X115510Y515453D01*
X115560Y515530D01*
X115918Y516313D01*
X115930Y516362D01*
X115962Y516448D01*
X116137Y517291D01*
X116138Y517341D01*
X116150Y517432D01*
X116132Y518287D01*
X116132Y540083D01*
X116127Y540114D01*
X116128Y540155D01*
X116031Y541008D01*
X116017Y541057D01*
X115999Y541148D01*
X115714Y541958D01*
X115689Y542002D01*
X115651Y542086D01*
X115192Y542812D01*
X115157Y542849D01*
X115102Y542923D01*
X114491Y543527D01*
X114450Y543556D01*
X114379Y543616D01*
X113649Y544068D01*
X113602Y544086D01*
X113519Y544129D01*
X112706Y544406D01*
X112657Y544413D01*
X112567Y544436D01*
X111712Y544524D01*
X111681Y544522D01*
X111641Y544527D01*
X95385Y544354D01*
X95355Y544349D01*
X95314Y544350D01*
X94473Y544246D01*
X94425Y544231D01*
X94336Y544214D01*
X93538Y543927D01*
X93495Y543902D01*
X93412Y543865D01*
X92697Y543409D01*
X92660Y543375D01*
X92588Y543321D01*
X91992Y542718D01*
X91963Y542677D01*
X91904Y542608D01*
X91456Y541888D01*
X91437Y541842D01*
X91395Y541761D01*
X91117Y540961D01*
X91109Y540911D01*
X91086Y540823D01*
X90992Y539981D01*
X90994Y539950D01*
X90988Y539910D01*
X90988Y517518D01*
X90983Y516807D01*
X90991Y516757D01*
X90997Y516665D01*
X91152Y515966D01*
X91171Y515919D01*
X91198Y515832D01*
X91504Y515184D01*
X91533Y515143D01*
X91578Y515063D01*
X92021Y514500D01*
X92058Y514467D01*
X92121Y514399D01*
X92677Y513949D01*
X92721Y513924D01*
X92797Y513872D01*
X93440Y513557D01*
X93488Y513543D01*
X93573Y513509D01*
X94270Y513345D01*
X94321Y513342D01*
X94416Y513328D01*
X112196Y513328D01*
X112245Y513336D01*
G37*
G36*
X48745Y513336D02*
X48745Y513336D01*
X48850Y513347D01*
X49685Y513555D01*
X49731Y513576D01*
X49818Y513605D01*
X50586Y513994D01*
X50626Y514024D01*
X50704Y514072D01*
X51366Y514622D01*
X51399Y514661D01*
X51464Y514725D01*
X51987Y515408D01*
X52010Y515453D01*
X52060Y515530D01*
X52418Y516313D01*
X52430Y516362D01*
X52462Y516448D01*
X52637Y517291D01*
X52638Y517341D01*
X52650Y517432D01*
X52632Y518287D01*
X52632Y533012D01*
X52620Y533081D01*
X52620Y533083D01*
X52619Y533120D01*
X52618Y533121D01*
X52617Y533151D01*
X52600Y533190D01*
X52593Y533233D01*
X52557Y533293D01*
X52530Y533358D01*
X52500Y533389D01*
X52478Y533426D01*
X52424Y533470D01*
X52376Y533521D01*
X52338Y533540D01*
X52304Y533567D01*
X52238Y533590D01*
X52175Y533621D01*
X52126Y533628D01*
X52092Y533639D01*
X52050Y533638D01*
X51989Y533646D01*
X33193Y533392D01*
X33133Y533380D01*
X33071Y533379D01*
X33024Y533359D01*
X32973Y533350D01*
X32921Y533317D01*
X32864Y533294D01*
X32826Y533260D01*
X32782Y533233D01*
X32743Y533185D01*
X32698Y533143D01*
X32674Y533097D01*
X32643Y533057D01*
X32624Y532998D01*
X32595Y532943D01*
X32586Y532883D01*
X32574Y532843D01*
X32575Y532807D01*
X32568Y532758D01*
X32568Y517518D01*
X32563Y516807D01*
X32571Y516757D01*
X32577Y516665D01*
X32732Y515966D01*
X32751Y515919D01*
X32778Y515832D01*
X33084Y515184D01*
X33113Y515143D01*
X33158Y515063D01*
X33601Y514500D01*
X33638Y514467D01*
X33701Y514399D01*
X34257Y513949D01*
X34301Y513924D01*
X34377Y513872D01*
X35020Y513557D01*
X35068Y513543D01*
X35153Y513509D01*
X35850Y513345D01*
X35901Y513342D01*
X35996Y513328D01*
X48696Y513328D01*
X48745Y513336D01*
G37*
G36*
X52007Y645408D02*
X52007Y645408D01*
X52067Y645420D01*
X52129Y645421D01*
X52176Y645441D01*
X52227Y645450D01*
X52280Y645483D01*
X52336Y645506D01*
X52374Y645540D01*
X52418Y645567D01*
X52457Y645615D01*
X52502Y645657D01*
X52526Y645703D01*
X52558Y645743D01*
X52576Y645802D01*
X52605Y645857D01*
X52614Y645917D01*
X52627Y645957D01*
X52625Y645993D01*
X52632Y646042D01*
X52632Y661282D01*
X52637Y661993D01*
X52629Y662043D01*
X52623Y662135D01*
X52468Y662834D01*
X52449Y662881D01*
X52422Y662968D01*
X52116Y663616D01*
X52087Y663657D01*
X52042Y663737D01*
X51599Y664300D01*
X51562Y664333D01*
X51500Y664401D01*
X50943Y664851D01*
X50899Y664876D01*
X50823Y664928D01*
X50180Y665243D01*
X50132Y665257D01*
X50047Y665291D01*
X49350Y665455D01*
X49299Y665458D01*
X49204Y665472D01*
X36504Y665472D01*
X36455Y665464D01*
X36350Y665453D01*
X35515Y665245D01*
X35469Y665224D01*
X35382Y665195D01*
X34614Y664806D01*
X34574Y664776D01*
X34496Y664728D01*
X33834Y664178D01*
X33801Y664139D01*
X33736Y664075D01*
X33213Y663392D01*
X33190Y663347D01*
X33140Y663270D01*
X32782Y662487D01*
X32770Y662438D01*
X32738Y662352D01*
X32563Y661509D01*
X32562Y661459D01*
X32550Y661368D01*
X32568Y660513D01*
X32568Y645788D01*
X32580Y645719D01*
X32583Y645649D01*
X32600Y645610D01*
X32607Y645567D01*
X32643Y645507D01*
X32670Y645442D01*
X32700Y645411D01*
X32722Y645374D01*
X32776Y645330D01*
X32824Y645279D01*
X32862Y645260D01*
X32896Y645233D01*
X32962Y645210D01*
X33025Y645179D01*
X33074Y645172D01*
X33108Y645161D01*
X33150Y645162D01*
X33211Y645154D01*
X52007Y645408D01*
G37*
D10*
X639420Y543900D03*
X639420Y526900D03*
X559320Y469300D03*
X559320Y452300D03*
X314450Y710400D03*
X314450Y693400D03*
D11*
X537100Y636700D03*
X554100Y636700D03*
D12*
X583870Y423300D03*
X583870Y393300D03*
D13*
X183750Y658760D03*
X183750Y714640D03*
X221850Y658760D03*
X221850Y714640D03*
D11*
X489900Y343500D03*
X506900Y343500D03*
X337900Y339500D03*
X320900Y339500D03*
X489400Y362400D03*
X506400Y362400D03*
D14*
X427200Y353300D03*
X427200Y366000D03*
X427200Y378700D03*
X427200Y391400D03*
X427200Y404100D03*
X427200Y416800D03*
X427200Y429500D03*
X371200Y429500D03*
X371200Y416800D03*
X371200Y404100D03*
X371200Y391400D03*
X371200Y378700D03*
X371200Y366000D03*
X371200Y353300D03*
D11*
X489400Y381900D03*
X506400Y381900D03*
D15*
X546300Y309200D03*
X521300Y309200D03*
X503800Y309200D03*
X488800Y309200D03*
X471300Y309200D03*
X446300Y309200D03*
X421300Y309200D03*
X397100Y309200D03*
X380100Y309200D03*
D16*
X623560Y99200D03*
D17*
X342710Y87700D03*
D18*
X348600Y309200D03*
D15*
X571300Y309200D03*
D10*
X107300Y220600D03*
X107300Y237600D03*
X274600Y73400D03*
X274600Y56400D03*
X475100Y473900D03*
X475100Y456900D03*
X459600Y473900D03*
X459600Y456900D03*
X202700Y98400D03*
X202700Y81400D03*
D19*
X191600Y234000D03*
X163600Y234000D03*
D11*
X126600Y161500D03*
X143600Y161500D03*
X126600Y144000D03*
X143600Y144000D03*
D10*
X180400Y98600D03*
X180400Y81600D03*
D12*
X221000Y42700D03*
X221000Y72700D03*
X251000Y42700D03*
X251000Y72700D03*
D20*
X131500Y222600D03*
X131500Y250600D03*
D21*
X497700Y668799D03*
X507200Y668799D03*
X516700Y668799D03*
X516700Y694801D03*
X497700Y694801D03*
D22*
X482700Y589600D03*
X482700Y581600D03*
X482700Y573600D03*
X482700Y565600D03*
X482700Y557600D03*
X482700Y549600D03*
X482700Y541600D03*
X482700Y533600D03*
X482700Y525600D03*
X482700Y517600D03*
X482700Y509600D03*
D23*
X500700Y491600D03*
X508700Y491600D03*
X516700Y491600D03*
X524700Y491600D03*
X532700Y491600D03*
X540700Y491600D03*
X548700Y491600D03*
X556700Y491600D03*
X564700Y491600D03*
X572700Y491600D03*
X580700Y491600D03*
D22*
X598700Y509600D03*
X598700Y517600D03*
X598700Y525600D03*
X598700Y533600D03*
X598700Y541600D03*
X598700Y549600D03*
X598700Y557600D03*
X598700Y565600D03*
X598700Y573600D03*
X598700Y581600D03*
X598700Y589600D03*
D23*
X580700Y607600D03*
X572700Y607600D03*
X564700Y607600D03*
X556700Y607600D03*
X548700Y607600D03*
X540700Y607600D03*
X532700Y607600D03*
X524700Y607600D03*
X516700Y607600D03*
X508700Y607600D03*
X500700Y607600D03*
D11*
X641200Y498000D03*
X624200Y498000D03*
D10*
X540600Y452200D03*
X540600Y469200D03*
D11*
X441800Y561200D03*
X458800Y561200D03*
D10*
X623700Y543800D03*
X623700Y526800D03*
D24*
X239900Y408600D03*
X239900Y380600D03*
D10*
X168500Y316400D03*
X168500Y299400D03*
D25*
X179500Y464500D03*
X131500Y464500D03*
D21*
X207300Y317601D03*
X197800Y317601D03*
X188300Y317601D03*
X188300Y291599D03*
X207300Y291599D03*
D10*
X234000Y292100D03*
X234000Y309100D03*
D26*
X172507Y400200D03*
X149800Y400200D03*
X126915Y400200D03*
D27*
X149800Y340790D03*
D10*
X202500Y428800D03*
X202500Y411800D03*
X202500Y390300D03*
X202500Y373300D03*
D24*
X258300Y321800D03*
X258300Y293800D03*
D28*
X188300Y589370D03*
X188300Y543830D03*
D29*
X49600Y637400D02*
X35600Y637400D01*
X35600Y655400D01*
X49600Y655400D01*
X49600Y637400D01*
X49600Y643100D02*
X35600Y643100D01*
X35600Y648800D02*
X49600Y648800D01*
X49600Y654500D02*
X35600Y654500D01*
X35600Y523400D02*
X49600Y523400D01*
X35600Y523400D02*
X35600Y541400D01*
X49600Y541400D01*
X49600Y523400D01*
X49600Y529100D02*
X35600Y529100D01*
X35600Y534800D02*
X49600Y534800D01*
X49600Y540500D02*
X35600Y540500D01*
X96600Y637400D02*
X110600Y637400D01*
X96600Y637400D02*
X96600Y655400D01*
X110600Y655400D01*
X110600Y637400D01*
X110600Y643100D02*
X96600Y643100D01*
X96600Y648800D02*
X110600Y648800D01*
X110600Y654500D02*
X96600Y654500D01*
X96600Y523400D02*
X110600Y523400D01*
X96600Y523400D02*
X96600Y541400D01*
X110600Y541400D01*
X110600Y523400D01*
X110600Y529100D02*
X96600Y529100D01*
X96600Y534800D02*
X110600Y534800D01*
X110600Y540500D02*
X96600Y540500D01*
D30*
X447000Y541800D03*
X410000Y518800D03*
X447000Y518800D03*
X410000Y541800D03*
D11*
X397700Y558000D03*
X414700Y558000D03*
D10*
X388100Y535800D03*
X388100Y518800D03*
X296000Y73100D03*
X296000Y56100D03*
X89400Y424100D03*
X89400Y407100D03*
D31*
X58100Y424800D03*
X28100Y424800D03*
D10*
X90300Y379100D03*
X90300Y362100D03*
D31*
X58100Y381400D03*
X28100Y381400D03*
D10*
X578200Y469600D03*
X578200Y452600D03*
D12*
X609500Y423100D03*
X609500Y393100D03*
D11*
X600600Y721400D03*
X617600Y721400D03*
D10*
X812500Y703400D03*
X812500Y720400D03*
X355600Y540900D03*
X355600Y557900D03*
X318700Y540900D03*
X318700Y557900D03*
X299300Y540900D03*
X299300Y557900D03*
X336500Y540800D03*
X336500Y557800D03*
X275400Y586700D03*
X275400Y569700D03*
D11*
X750000Y142000D03*
X733000Y142000D03*
X443000Y353000D03*
X460000Y353000D03*
D10*
X307500Y299000D03*
X307500Y316000D03*
X285000Y309000D03*
X285000Y326000D03*
D32*
X407900Y711000D03*
X407900Y654000D03*
X382500Y711000D03*
X382500Y654000D03*
X357100Y711000D03*
X357100Y654000D03*
D33*
X787792Y377850D03*
X787792Y390550D03*
X787792Y403250D03*
X787792Y415950D03*
X787792Y428650D03*
X787792Y441350D03*
X787792Y454050D03*
X787792Y466750D03*
X687208Y466750D03*
X687208Y454050D03*
X687208Y441350D03*
X687208Y428650D03*
X687208Y415950D03*
X687208Y403250D03*
X687208Y390550D03*
X687208Y377850D03*
X787792Y479450D03*
X787792Y492150D03*
X687208Y479450D03*
X687208Y492150D03*
D11*
X746000Y355000D03*
X729000Y355000D03*
D10*
X599500Y469000D03*
X599500Y452000D03*
D34*
X80000Y167500D03*
X80000Y175500D03*
X80000Y151500D03*
X80000Y159500D03*
D35*
X25000Y122500D03*
X25000Y212500D03*
X80000Y122500D03*
X80000Y212500D03*
D34*
X80000Y183500D03*
D36*
X252250Y123440D03*
X245750Y123440D03*
X239250Y123440D03*
X232750Y123440D03*
X226250Y123440D03*
X219750Y123440D03*
X213250Y123440D03*
X200250Y123440D03*
X206750Y123440D03*
X193750Y123440D03*
X187250Y123440D03*
X180750Y123440D03*
X174250Y123440D03*
X167750Y123440D03*
X252250Y196560D03*
X245750Y196560D03*
X239250Y196560D03*
X232750Y196560D03*
X226250Y196560D03*
X219750Y196560D03*
X213250Y196560D03*
X206750Y196560D03*
X200250Y196560D03*
X193750Y196560D03*
X187250Y196560D03*
X180750Y196560D03*
X174250Y196560D03*
X167750Y196560D03*
D10*
X282500Y176000D03*
X282500Y159000D03*
D37*
X272660Y682253D03*
X272660Y699652D03*
X252340Y699652D03*
X252340Y680348D03*
D10*
X295000Y721000D03*
X295000Y704000D03*
X779000Y546000D03*
X779000Y563000D03*
X763000Y545500D03*
X763000Y562500D03*
X746000Y545500D03*
X746000Y562500D03*
X730000Y545000D03*
X730000Y562000D03*
D11*
X669000Y579000D03*
X652000Y579000D03*
X698500Y564000D03*
X681500Y564000D03*
D10*
X709000Y530500D03*
X709000Y547500D03*
X693000Y522500D03*
X693000Y539500D03*
D38*
X638650Y622788D03*
X651350Y622788D03*
X664050Y622788D03*
X676750Y622788D03*
X689450Y622788D03*
X702150Y622788D03*
X714850Y622788D03*
X727550Y622788D03*
X740250Y622788D03*
X752950Y622788D03*
X765650Y622788D03*
X778350Y622788D03*
X778350Y713212D03*
X765650Y713212D03*
X752950Y713212D03*
X740250Y713212D03*
X727550Y713212D03*
X714850Y713212D03*
X702150Y713212D03*
X689450Y713212D03*
X676750Y713212D03*
X664050Y713212D03*
X651350Y713212D03*
X638650Y713212D03*
D39*
X782712Y170150D03*
X782712Y182850D03*
X782712Y195550D03*
X782712Y208250D03*
X782712Y220950D03*
X782712Y233650D03*
X782712Y246350D03*
X782712Y259050D03*
X782712Y271750D03*
X782712Y284450D03*
X782712Y297150D03*
X782712Y309850D03*
X692288Y309850D03*
X692288Y297150D03*
X692288Y284450D03*
X692288Y271750D03*
X692288Y259050D03*
X692288Y246350D03*
X692288Y233650D03*
X692288Y220950D03*
X692288Y208250D03*
X692288Y195550D03*
X692288Y182850D03*
X692288Y170150D03*
M02*
