G04 EAGLE Gerber RS-274X export*
G75*
%MOMM*%
%FSLAX34Y34*%
%LPD*%
%INBottom Copper*%
%IPPOS*%
%AMOC8*
5,1,8,0,0,1.08239X$1,22.5*%
G01*
%ADD10C,1.219200*%
%ADD11C,5.842000*%
%ADD12C,6.350000*%
%ADD13C,1.879600*%
%ADD14C,1.000000*%
%ADD15C,0.635000*%
%ADD16C,0.127000*%
%ADD17C,0.508000*%
%ADD18C,0.609600*%
%ADD19C,0.254000*%
%ADD20C,1.016000*%
%ADD21C,0.604000*%
%ADD22C,0.812800*%
%ADD23C,0.406400*%
%ADD24C,0.177800*%
%ADD25C,0.304800*%
%ADD26C,0.152400*%

G36*
X995020Y4242D02*
X995020Y4242D01*
X995039Y4240D01*
X995141Y4262D01*
X995243Y4279D01*
X995260Y4288D01*
X995280Y4292D01*
X995369Y4345D01*
X995460Y4394D01*
X995474Y4408D01*
X995491Y4418D01*
X995558Y4497D01*
X995630Y4572D01*
X995638Y4590D01*
X995651Y4605D01*
X995690Y4701D01*
X995733Y4795D01*
X995735Y4815D01*
X995743Y4833D01*
X995761Y5000D01*
X995761Y745000D01*
X995758Y745020D01*
X995760Y745039D01*
X995738Y745141D01*
X995722Y745243D01*
X995712Y745260D01*
X995708Y745280D01*
X995655Y745369D01*
X995606Y745460D01*
X995592Y745474D01*
X995582Y745491D01*
X995503Y745558D01*
X995428Y745630D01*
X995410Y745638D01*
X995395Y745651D01*
X995299Y745690D01*
X995205Y745733D01*
X995185Y745735D01*
X995167Y745743D01*
X995000Y745761D01*
X5000Y745761D01*
X4980Y745758D01*
X4961Y745760D01*
X4859Y745738D01*
X4757Y745722D01*
X4740Y745712D01*
X4720Y745708D01*
X4631Y745655D01*
X4540Y745606D01*
X4526Y745592D01*
X4509Y745582D01*
X4442Y745503D01*
X4371Y745428D01*
X4362Y745410D01*
X4349Y745395D01*
X4310Y745299D01*
X4267Y745205D01*
X4265Y745185D01*
X4257Y745167D01*
X4239Y745000D01*
X4239Y5000D01*
X4242Y4980D01*
X4240Y4961D01*
X4262Y4859D01*
X4279Y4757D01*
X4288Y4740D01*
X4292Y4720D01*
X4345Y4631D01*
X4394Y4540D01*
X4408Y4526D01*
X4418Y4509D01*
X4497Y4442D01*
X4572Y4371D01*
X4590Y4362D01*
X4605Y4349D01*
X4701Y4310D01*
X4795Y4267D01*
X4815Y4265D01*
X4833Y4257D01*
X5000Y4239D01*
X995000Y4239D01*
X995020Y4242D01*
G37*
%LPC*%
G36*
X713793Y164017D02*
X713793Y164017D01*
X711380Y165852D01*
X709853Y168471D01*
X708298Y179909D01*
X708293Y179922D01*
X708293Y179936D01*
X708247Y180098D01*
X707879Y180984D01*
X707879Y182933D01*
X707874Y182964D01*
X707872Y183035D01*
X707745Y183975D01*
X707854Y184391D01*
X707856Y184405D01*
X707861Y184419D01*
X707879Y184585D01*
X707879Y367126D01*
X707869Y367190D01*
X707868Y367256D01*
X707845Y367336D01*
X707840Y367368D01*
X707830Y367386D01*
X707821Y367417D01*
X707379Y368484D01*
X707379Y476528D01*
X707365Y476618D01*
X707357Y476709D01*
X707345Y476739D01*
X707340Y476771D01*
X707297Y476851D01*
X707261Y476935D01*
X707235Y476968D01*
X707224Y476988D01*
X707201Y477010D01*
X707156Y477066D01*
X669621Y514601D01*
X669547Y514654D01*
X669478Y514714D01*
X669448Y514726D01*
X669422Y514745D01*
X669335Y514772D01*
X669250Y514806D01*
X669209Y514810D01*
X669187Y514817D01*
X669154Y514816D01*
X669083Y514824D01*
X654543Y514824D01*
X654453Y514810D01*
X654362Y514802D01*
X654332Y514790D01*
X654300Y514785D01*
X654220Y514742D01*
X654136Y514706D01*
X654104Y514680D01*
X654083Y514669D01*
X654061Y514646D01*
X654005Y514601D01*
X653312Y513908D01*
X653258Y513834D01*
X653199Y513765D01*
X653187Y513735D01*
X653168Y513708D01*
X653141Y513621D01*
X653107Y513536D01*
X653103Y513495D01*
X653096Y513473D01*
X653097Y513441D01*
X653089Y513370D01*
X653089Y508388D01*
X652238Y506334D01*
X642580Y496676D01*
X642541Y496623D01*
X642495Y496576D01*
X642455Y496503D01*
X642436Y496476D01*
X642430Y496458D01*
X642415Y496429D01*
X642346Y496262D01*
X640738Y494654D01*
X638637Y493784D01*
X636363Y493784D01*
X634262Y494654D01*
X632654Y496262D01*
X631784Y498363D01*
X631784Y500637D01*
X632654Y502738D01*
X634262Y504346D01*
X634429Y504415D01*
X634485Y504449D01*
X634545Y504475D01*
X634610Y504527D01*
X634638Y504544D01*
X634650Y504559D01*
X634676Y504580D01*
X641688Y511592D01*
X641741Y511666D01*
X641801Y511735D01*
X641813Y511766D01*
X641832Y511792D01*
X641859Y511879D01*
X641893Y511964D01*
X641897Y512004D01*
X641904Y512027D01*
X641903Y512059D01*
X641911Y512130D01*
X641911Y515063D01*
X641910Y515072D01*
X641910Y515077D01*
X641908Y515086D01*
X641910Y515102D01*
X641888Y515204D01*
X641872Y515306D01*
X641862Y515323D01*
X641858Y515343D01*
X641805Y515432D01*
X641756Y515523D01*
X641742Y515537D01*
X641732Y515554D01*
X641653Y515621D01*
X641578Y515693D01*
X641560Y515701D01*
X641545Y515714D01*
X641449Y515753D01*
X641355Y515796D01*
X641335Y515798D01*
X641317Y515806D01*
X641150Y515824D01*
X516631Y515824D01*
X516541Y515810D01*
X516450Y515802D01*
X516420Y515790D01*
X516388Y515785D01*
X516307Y515742D01*
X516223Y515706D01*
X516191Y515680D01*
X516171Y515669D01*
X516148Y515646D01*
X516147Y515645D01*
X516145Y515644D01*
X516143Y515642D01*
X516092Y515601D01*
X472315Y471824D01*
X276185Y471824D01*
X274101Y473908D01*
X268908Y479101D01*
X268907Y479101D01*
X266824Y481185D01*
X266824Y502815D01*
X277185Y513176D01*
X460869Y513176D01*
X460959Y513190D01*
X461050Y513198D01*
X461080Y513210D01*
X461112Y513215D01*
X461193Y513258D01*
X461277Y513294D01*
X461309Y513320D01*
X461329Y513331D01*
X461352Y513354D01*
X461408Y513399D01*
X486185Y538176D01*
X645903Y538176D01*
X645974Y538187D01*
X646046Y538189D01*
X646095Y538207D01*
X646146Y538215D01*
X646209Y538249D01*
X646277Y538274D01*
X646317Y538306D01*
X646363Y538331D01*
X646413Y538382D01*
X646469Y538427D01*
X646497Y538471D01*
X646533Y538509D01*
X646563Y538574D01*
X646602Y538634D01*
X646614Y538685D01*
X646636Y538732D01*
X646644Y538803D01*
X646662Y538873D01*
X646658Y538925D01*
X646663Y538976D01*
X646648Y539047D01*
X646643Y539118D01*
X646622Y539166D01*
X646611Y539217D01*
X646574Y539278D01*
X646546Y539344D01*
X646502Y539400D01*
X646485Y539428D01*
X646467Y539443D01*
X646441Y539475D01*
X646181Y539735D01*
X645311Y541836D01*
X645311Y544110D01*
X646181Y546211D01*
X647789Y547819D01*
X649890Y548689D01*
X652164Y548689D01*
X653524Y548125D01*
X653638Y548099D01*
X653751Y548070D01*
X653757Y548071D01*
X653763Y548069D01*
X653880Y548080D01*
X653996Y548089D01*
X654002Y548092D01*
X654008Y548092D01*
X654116Y548140D01*
X654222Y548186D01*
X654228Y548190D01*
X654233Y548192D01*
X654247Y548205D01*
X654353Y548291D01*
X655628Y549565D01*
X655681Y549639D01*
X655741Y549709D01*
X655753Y549739D01*
X655772Y549765D01*
X655799Y549852D01*
X655833Y549937D01*
X655837Y549978D01*
X655844Y550000D01*
X655843Y550032D01*
X655851Y550104D01*
X655851Y552342D01*
X655848Y552361D01*
X655850Y552378D01*
X655835Y552446D01*
X655829Y552523D01*
X655817Y552553D01*
X655811Y552585D01*
X655801Y552605D01*
X655798Y552619D01*
X655766Y552672D01*
X655733Y552750D01*
X655707Y552782D01*
X655696Y552802D01*
X655677Y552821D01*
X655672Y552830D01*
X655663Y552837D01*
X655628Y552881D01*
X616434Y592074D01*
X616361Y592127D01*
X616291Y592187D01*
X616261Y592199D01*
X616235Y592218D01*
X616148Y592245D01*
X616063Y592279D01*
X616022Y592283D01*
X616000Y592290D01*
X615967Y592289D01*
X615896Y592297D01*
X550712Y592297D01*
X526448Y616561D01*
X526374Y616614D01*
X526304Y616674D01*
X526274Y616686D01*
X526248Y616705D01*
X526161Y616732D01*
X526076Y616766D01*
X526035Y616770D01*
X526013Y616777D01*
X525981Y616776D01*
X525909Y616784D01*
X523863Y616784D01*
X521762Y617654D01*
X520154Y619262D01*
X519284Y621363D01*
X519284Y623637D01*
X520154Y625738D01*
X521762Y627346D01*
X523863Y628216D01*
X526137Y628216D01*
X528238Y627346D01*
X529871Y625713D01*
X529908Y625686D01*
X529939Y625652D01*
X530007Y625615D01*
X530070Y625569D01*
X530114Y625556D01*
X530154Y625534D01*
X530231Y625520D01*
X530305Y625497D01*
X530351Y625498D01*
X530396Y625490D01*
X530473Y625501D01*
X530551Y625503D01*
X530594Y625519D01*
X530640Y625526D01*
X530709Y625561D01*
X530782Y625588D01*
X530818Y625616D01*
X530859Y625637D01*
X530914Y625693D01*
X530974Y625741D01*
X530999Y625780D01*
X531031Y625813D01*
X531050Y625848D01*
X532523Y627321D01*
X532576Y627394D01*
X532636Y627464D01*
X532648Y627494D01*
X532667Y627520D01*
X532694Y627607D01*
X532728Y627692D01*
X532732Y627733D01*
X532739Y627755D01*
X532738Y627788D01*
X532746Y627859D01*
X532746Y656947D01*
X532732Y657037D01*
X532724Y657128D01*
X532712Y657158D01*
X532707Y657190D01*
X532664Y657271D01*
X532628Y657355D01*
X532602Y657387D01*
X532591Y657407D01*
X532568Y657430D01*
X532523Y657486D01*
X528448Y661561D01*
X528374Y661614D01*
X528304Y661674D01*
X528274Y661686D01*
X528248Y661705D01*
X528161Y661732D01*
X528076Y661766D01*
X528035Y661770D01*
X528013Y661777D01*
X527981Y661776D01*
X527909Y661784D01*
X526363Y661784D01*
X524262Y662654D01*
X522654Y664262D01*
X521784Y666363D01*
X521784Y668637D01*
X522654Y670738D01*
X524262Y672346D01*
X526363Y673216D01*
X528637Y673216D01*
X530738Y672346D01*
X532346Y670738D01*
X533216Y668637D01*
X533216Y666321D01*
X533212Y666304D01*
X533183Y666190D01*
X533184Y666184D01*
X533182Y666178D01*
X533193Y666062D01*
X533202Y665945D01*
X533205Y665939D01*
X533205Y665933D01*
X533253Y665826D01*
X533298Y665719D01*
X533303Y665713D01*
X533305Y665708D01*
X533318Y665695D01*
X533403Y665588D01*
X539098Y659893D01*
X539098Y627859D01*
X539112Y627769D01*
X539120Y627678D01*
X539132Y627648D01*
X539137Y627616D01*
X539180Y627535D01*
X539216Y627451D01*
X539242Y627419D01*
X539253Y627399D01*
X539276Y627376D01*
X539321Y627321D01*
X540768Y625874D01*
X541638Y623773D01*
X541638Y621499D01*
X540768Y619398D01*
X539585Y618216D01*
X539573Y618200D01*
X539558Y618187D01*
X539502Y618100D01*
X539441Y618016D01*
X539436Y617997D01*
X539425Y617980D01*
X539400Y617880D01*
X539369Y617781D01*
X539370Y617761D01*
X539365Y617742D01*
X539373Y617639D01*
X539375Y617535D01*
X539382Y617516D01*
X539384Y617496D01*
X539424Y617402D01*
X539460Y617304D01*
X539472Y617288D01*
X539480Y617270D01*
X539585Y617139D01*
X554566Y602158D01*
X554640Y602105D01*
X554710Y602045D01*
X554740Y602033D01*
X554766Y602014D01*
X554853Y601988D01*
X554938Y601953D01*
X554979Y601949D01*
X555001Y601942D01*
X555033Y601943D01*
X555105Y601935D01*
X613387Y601935D01*
X613458Y601946D01*
X613529Y601948D01*
X613578Y601966D01*
X613630Y601975D01*
X613693Y602008D01*
X613760Y602033D01*
X613801Y602065D01*
X613847Y602090D01*
X613896Y602142D01*
X613952Y602186D01*
X613980Y602230D01*
X614016Y602268D01*
X614047Y602333D01*
X614085Y602393D01*
X614098Y602444D01*
X614120Y602491D01*
X614128Y602562D01*
X614145Y602632D01*
X614141Y602684D01*
X614147Y602736D01*
X614132Y602806D01*
X614126Y602877D01*
X614106Y602925D01*
X614095Y602976D01*
X614058Y603038D01*
X614030Y603103D01*
X613985Y603159D01*
X613969Y603187D01*
X613951Y603202D01*
X613925Y603234D01*
X582901Y634259D01*
X582809Y634480D01*
X582785Y634519D01*
X582769Y634562D01*
X582721Y634623D01*
X582680Y634689D01*
X582644Y634718D01*
X582615Y634754D01*
X582550Y634796D01*
X582490Y634846D01*
X582447Y634862D01*
X582409Y634887D01*
X582333Y634906D01*
X582260Y634934D01*
X582215Y634936D01*
X582170Y634947D01*
X582092Y634941D01*
X582015Y634945D01*
X581971Y634932D01*
X581925Y634928D01*
X581853Y634898D01*
X581778Y634876D01*
X581741Y634850D01*
X581698Y634832D01*
X581592Y634746D01*
X581576Y634736D01*
X581573Y634732D01*
X581567Y634727D01*
X581241Y634401D01*
X578814Y633395D01*
X564186Y633395D01*
X561759Y634401D01*
X559901Y636259D01*
X558895Y638686D01*
X558895Y641314D01*
X559901Y643741D01*
X561759Y645599D01*
X564186Y646605D01*
X574449Y646605D01*
X574539Y646619D01*
X574630Y646627D01*
X574660Y646639D01*
X574692Y646644D01*
X574772Y646687D01*
X574856Y646723D01*
X574888Y646749D01*
X574909Y646760D01*
X574931Y646783D01*
X574987Y646828D01*
X593172Y665013D01*
X593225Y665087D01*
X593285Y665156D01*
X593297Y665186D01*
X593316Y665213D01*
X593343Y665300D01*
X593377Y665384D01*
X593381Y665425D01*
X593388Y665448D01*
X593387Y665480D01*
X593395Y665551D01*
X593395Y701134D01*
X593392Y701154D01*
X593394Y701173D01*
X593372Y701275D01*
X593356Y701377D01*
X593346Y701394D01*
X593342Y701414D01*
X593289Y701503D01*
X593240Y701594D01*
X593226Y701608D01*
X593216Y701625D01*
X593137Y701692D01*
X593062Y701764D01*
X593044Y701772D01*
X593029Y701785D01*
X592933Y701824D01*
X592839Y701867D01*
X592819Y701869D01*
X592801Y701877D01*
X592634Y701895D01*
X521524Y701895D01*
X521434Y701881D01*
X521343Y701873D01*
X521313Y701861D01*
X521281Y701856D01*
X521201Y701813D01*
X521117Y701777D01*
X521085Y701751D01*
X521064Y701740D01*
X521042Y701717D01*
X520986Y701672D01*
X511214Y691901D01*
X508787Y690895D01*
X506159Y690895D01*
X503732Y691901D01*
X501874Y693759D01*
X500868Y696186D01*
X500868Y698814D01*
X501874Y701241D01*
X514732Y714099D01*
X517159Y715105D01*
X598328Y715105D01*
X598392Y715115D01*
X598458Y715116D01*
X598538Y715139D01*
X598570Y715144D01*
X598588Y715154D01*
X598619Y715163D01*
X599686Y715605D01*
X619314Y715605D01*
X621741Y714599D01*
X623599Y712741D01*
X624605Y710314D01*
X624605Y707686D01*
X623599Y705259D01*
X621741Y703401D01*
X619314Y702395D01*
X607366Y702395D01*
X607346Y702392D01*
X607327Y702394D01*
X607225Y702372D01*
X607123Y702356D01*
X607106Y702346D01*
X607086Y702342D01*
X606997Y702289D01*
X606906Y702240D01*
X606892Y702226D01*
X606875Y702216D01*
X606808Y702137D01*
X606736Y702062D01*
X606728Y702044D01*
X606715Y702029D01*
X606676Y701933D01*
X606633Y701839D01*
X606631Y701819D01*
X606623Y701801D01*
X606605Y701634D01*
X606605Y661186D01*
X605599Y658759D01*
X595328Y648487D01*
X595275Y648413D01*
X595215Y648344D01*
X595203Y648314D01*
X595184Y648287D01*
X595157Y648200D01*
X595123Y648116D01*
X595119Y648075D01*
X595112Y648052D01*
X595113Y648020D01*
X595105Y647949D01*
X595105Y641051D01*
X595119Y640961D01*
X595127Y640870D01*
X595139Y640840D01*
X595144Y640808D01*
X595187Y640728D01*
X595223Y640644D01*
X595249Y640612D01*
X595260Y640591D01*
X595283Y640569D01*
X595328Y640513D01*
X674599Y561241D01*
X675605Y558814D01*
X675605Y534202D01*
X675619Y534112D01*
X675627Y534021D01*
X675639Y533991D01*
X675644Y533959D01*
X675676Y533900D01*
X675676Y530417D01*
X675690Y530327D01*
X675698Y530236D01*
X675710Y530206D01*
X675715Y530174D01*
X675758Y530093D01*
X675794Y530010D01*
X675820Y529977D01*
X675831Y529957D01*
X675854Y529935D01*
X675899Y529879D01*
X719210Y486568D01*
X721461Y484317D01*
X722621Y481516D01*
X722621Y379686D01*
X722635Y379596D01*
X722643Y379505D01*
X722655Y379475D01*
X722660Y379443D01*
X722703Y379362D01*
X722739Y379278D01*
X722765Y379246D01*
X722776Y379226D01*
X722799Y379203D01*
X722844Y379147D01*
X723399Y378593D01*
X723399Y378592D01*
X726092Y375899D01*
X728176Y373815D01*
X728176Y366185D01*
X723344Y361353D01*
X723291Y361279D01*
X723231Y361209D01*
X723219Y361179D01*
X723200Y361153D01*
X723173Y361066D01*
X723139Y360981D01*
X723135Y360940D01*
X723128Y360918D01*
X723129Y360886D01*
X723121Y360814D01*
X723121Y184067D01*
X723126Y184036D01*
X723128Y183965D01*
X724955Y170525D01*
X724183Y167593D01*
X722348Y165180D01*
X719729Y163653D01*
X716725Y163245D01*
X713793Y164017D01*
G37*
%LPD*%
G36*
X471042Y474373D02*
X471042Y474373D01*
X471084Y474371D01*
X471151Y474393D01*
X471221Y474405D01*
X471257Y474427D01*
X471298Y474440D01*
X471371Y474494D01*
X471414Y474520D01*
X471427Y474536D01*
X471448Y474552D01*
X515263Y518366D01*
X653237Y518366D01*
X654052Y517552D01*
X654086Y517527D01*
X654115Y517496D01*
X654178Y517464D01*
X654236Y517423D01*
X654277Y517413D01*
X654315Y517393D01*
X654404Y517380D01*
X654453Y517368D01*
X654474Y517370D01*
X654500Y517366D01*
X670000Y517366D01*
X670042Y517373D01*
X670084Y517371D01*
X670151Y517393D01*
X670221Y517405D01*
X670257Y517427D01*
X670298Y517440D01*
X670371Y517494D01*
X670414Y517520D01*
X670427Y517536D01*
X670448Y517552D01*
X672948Y520052D01*
X672973Y520086D01*
X673004Y520115D01*
X673036Y520178D01*
X673077Y520236D01*
X673087Y520277D01*
X673107Y520315D01*
X673120Y520404D01*
X673133Y520453D01*
X673130Y520474D01*
X673134Y520500D01*
X673134Y532500D01*
X673127Y532542D01*
X673129Y532584D01*
X673107Y532651D01*
X673095Y532721D01*
X673073Y532757D01*
X673060Y532798D01*
X673006Y532871D01*
X672980Y532914D01*
X672964Y532927D01*
X672948Y532948D01*
X670448Y535448D01*
X670414Y535473D01*
X670385Y535504D01*
X670322Y535536D01*
X670264Y535577D01*
X670223Y535587D01*
X670185Y535607D01*
X670096Y535620D01*
X670047Y535633D01*
X670026Y535630D01*
X670000Y535634D01*
X487500Y535634D01*
X487458Y535627D01*
X487416Y535629D01*
X487349Y535607D01*
X487279Y535595D01*
X487243Y535573D01*
X487202Y535560D01*
X487129Y535506D01*
X487086Y535480D01*
X487073Y535464D01*
X487052Y535448D01*
X462237Y510634D01*
X278500Y510634D01*
X278458Y510627D01*
X278416Y510629D01*
X278349Y510607D01*
X278279Y510595D01*
X278243Y510573D01*
X278202Y510560D01*
X278129Y510506D01*
X278086Y510480D01*
X278073Y510464D01*
X278052Y510448D01*
X269552Y501948D01*
X269527Y501914D01*
X269496Y501885D01*
X269464Y501822D01*
X269423Y501764D01*
X269413Y501723D01*
X269393Y501685D01*
X269380Y501596D01*
X269368Y501547D01*
X269370Y501526D01*
X269366Y501500D01*
X269366Y482500D01*
X269373Y482458D01*
X269371Y482416D01*
X269393Y482349D01*
X269405Y482279D01*
X269427Y482243D01*
X269440Y482202D01*
X269494Y482129D01*
X269520Y482086D01*
X269536Y482073D01*
X269552Y482052D01*
X277052Y474552D01*
X277086Y474527D01*
X277115Y474496D01*
X277178Y474464D01*
X277236Y474423D01*
X277277Y474413D01*
X277315Y474393D01*
X277404Y474380D01*
X277453Y474368D01*
X277474Y474370D01*
X277500Y474366D01*
X471000Y474366D01*
X471042Y474373D01*
G37*
%LPC*%
G36*
X848896Y420338D02*
X848896Y420338D01*
X845722Y421653D01*
X843292Y424083D01*
X842404Y426227D01*
X842342Y426327D01*
X842282Y426427D01*
X842277Y426431D01*
X842274Y426436D01*
X842184Y426511D01*
X842095Y426587D01*
X842090Y426589D01*
X842085Y426593D01*
X841976Y426635D01*
X841867Y426679D01*
X841860Y426680D01*
X841855Y426681D01*
X841837Y426682D01*
X841700Y426697D01*
X830534Y426697D01*
X830419Y426678D01*
X830303Y426661D01*
X830298Y426659D01*
X830292Y426658D01*
X830189Y426603D01*
X830084Y426550D01*
X830080Y426545D01*
X830074Y426542D01*
X829994Y426458D01*
X829912Y426374D01*
X829908Y426368D01*
X829905Y426364D01*
X829897Y426347D01*
X829856Y426273D01*
X828238Y424654D01*
X826137Y423784D01*
X823863Y423784D01*
X821762Y424654D01*
X820154Y426262D01*
X819284Y428363D01*
X819284Y430637D01*
X820154Y432738D01*
X821762Y434346D01*
X823863Y435216D01*
X826137Y435216D01*
X828238Y434346D01*
X829058Y433526D01*
X829132Y433473D01*
X829201Y433413D01*
X829231Y433401D01*
X829257Y433382D01*
X829344Y433355D01*
X829429Y433321D01*
X829470Y433317D01*
X829492Y433310D01*
X829525Y433311D01*
X829596Y433303D01*
X842550Y433303D01*
X842664Y433322D01*
X842781Y433339D01*
X842786Y433341D01*
X842792Y433342D01*
X842895Y433397D01*
X843000Y433450D01*
X843004Y433455D01*
X843010Y433458D01*
X843090Y433542D01*
X843172Y433626D01*
X843176Y433632D01*
X843179Y433636D01*
X843187Y433653D01*
X843253Y433773D01*
X843292Y433867D01*
X844823Y435398D01*
X844864Y435456D01*
X844914Y435508D01*
X844936Y435555D01*
X844966Y435597D01*
X844987Y435666D01*
X845017Y435731D01*
X845023Y435783D01*
X845038Y435833D01*
X845037Y435904D01*
X845044Y435975D01*
X845033Y436026D01*
X845032Y436078D01*
X845007Y436146D01*
X844992Y436216D01*
X844966Y436261D01*
X844948Y436309D01*
X844903Y436365D01*
X844866Y436427D01*
X844826Y436461D01*
X844794Y436501D01*
X844734Y436540D01*
X844679Y436587D01*
X844631Y436606D01*
X844587Y436634D01*
X844518Y436652D01*
X844451Y436679D01*
X844380Y436687D01*
X844348Y436695D01*
X844325Y436693D01*
X844284Y436697D01*
X836132Y436697D01*
X824745Y448085D01*
X824728Y448096D01*
X824716Y448112D01*
X824628Y448168D01*
X824545Y448228D01*
X824526Y448234D01*
X824509Y448245D01*
X824408Y448270D01*
X824310Y448301D01*
X824290Y448300D01*
X824270Y448305D01*
X824167Y448297D01*
X824064Y448294D01*
X824045Y448287D01*
X824025Y448286D01*
X823930Y448245D01*
X823833Y448210D01*
X823817Y448197D01*
X823799Y448189D01*
X823774Y448169D01*
X821637Y447284D01*
X819363Y447284D01*
X817262Y448154D01*
X815654Y449762D01*
X814784Y451863D01*
X814784Y454137D01*
X815654Y456238D01*
X817262Y457846D01*
X819363Y458716D01*
X821637Y458716D01*
X823738Y457846D01*
X825058Y456526D01*
X825132Y456473D01*
X825201Y456413D01*
X825231Y456401D01*
X825257Y456382D01*
X825344Y456355D01*
X825429Y456321D01*
X825470Y456317D01*
X825492Y456310D01*
X825525Y456311D01*
X825596Y456303D01*
X825868Y456303D01*
X827052Y455119D01*
X827089Y455092D01*
X827120Y455058D01*
X827162Y455036D01*
X827192Y455009D01*
X827220Y454998D01*
X827251Y454975D01*
X827295Y454962D01*
X827336Y454940D01*
X827388Y454930D01*
X827421Y454917D01*
X827452Y454914D01*
X827487Y454903D01*
X827532Y454904D01*
X827578Y454896D01*
X827655Y454907D01*
X827732Y454909D01*
X827776Y454925D01*
X827821Y454932D01*
X827890Y454967D01*
X827963Y454994D01*
X827999Y455023D01*
X828040Y455043D01*
X828049Y455052D01*
X828051Y455054D01*
X828085Y455089D01*
X828095Y455099D01*
X828156Y455148D01*
X828180Y455186D01*
X828212Y455219D01*
X828218Y455229D01*
X828221Y455232D01*
X828227Y455245D01*
X828278Y455339D01*
X828289Y455355D01*
X828290Y455359D01*
X828293Y455366D01*
X828654Y456238D01*
X829378Y456962D01*
X829390Y456978D01*
X829406Y456990D01*
X829462Y457078D01*
X829522Y457161D01*
X829528Y457180D01*
X829539Y457197D01*
X829564Y457298D01*
X829594Y457397D01*
X829594Y457416D01*
X829599Y457436D01*
X829591Y457539D01*
X829588Y457642D01*
X829581Y457661D01*
X829580Y457681D01*
X829539Y457776D01*
X829504Y457873D01*
X829491Y457889D01*
X829483Y457907D01*
X829378Y458038D01*
X828431Y458985D01*
X827561Y461086D01*
X827561Y463360D01*
X828431Y465461D01*
X830039Y467069D01*
X832140Y467939D01*
X834414Y467939D01*
X836515Y467069D01*
X837835Y465749D01*
X837908Y465696D01*
X837978Y465636D01*
X838008Y465624D01*
X838034Y465605D01*
X838121Y465578D01*
X838206Y465544D01*
X838247Y465540D01*
X838269Y465533D01*
X838302Y465534D01*
X838373Y465526D01*
X843191Y465526D01*
X843262Y465537D01*
X843334Y465539D01*
X843383Y465557D01*
X843434Y465566D01*
X843497Y465599D01*
X843565Y465624D01*
X843605Y465656D01*
X843651Y465681D01*
X843701Y465733D01*
X843757Y465777D01*
X843785Y465821D01*
X843821Y465859D01*
X843851Y465924D01*
X843890Y465984D01*
X843902Y466035D01*
X843924Y466082D01*
X843932Y466153D01*
X843950Y466223D01*
X843946Y466275D01*
X843951Y466326D01*
X843936Y466397D01*
X843931Y466468D01*
X843910Y466516D01*
X843899Y466567D01*
X843862Y466628D01*
X843834Y466694D01*
X843789Y466750D01*
X843773Y466778D01*
X843755Y466793D01*
X843730Y466825D01*
X843292Y467263D01*
X842776Y468509D01*
X842714Y468609D01*
X842654Y468709D01*
X842650Y468713D01*
X842646Y468718D01*
X842556Y468793D01*
X842467Y468869D01*
X842461Y468871D01*
X842457Y468875D01*
X842348Y468917D01*
X842239Y468961D01*
X842232Y468962D01*
X842227Y468963D01*
X842209Y468964D01*
X842072Y468979D01*
X841030Y468979D01*
X820824Y489185D01*
X820824Y500996D01*
X820810Y501086D01*
X820802Y501177D01*
X820790Y501207D01*
X820785Y501239D01*
X820742Y501320D01*
X820706Y501404D01*
X820680Y501436D01*
X820669Y501456D01*
X820646Y501479D01*
X820601Y501535D01*
X819286Y502850D01*
X818439Y504894D01*
X818439Y507106D01*
X819286Y509150D01*
X820850Y510714D01*
X822894Y511561D01*
X825179Y511561D01*
X825249Y511544D01*
X825269Y511546D01*
X825289Y511543D01*
X825391Y511558D01*
X825494Y511567D01*
X825513Y511575D01*
X825532Y511578D01*
X825624Y511625D01*
X825719Y511667D01*
X825734Y511681D01*
X825752Y511690D01*
X825824Y511764D01*
X825900Y511833D01*
X825910Y511851D01*
X825924Y511865D01*
X826005Y512012D01*
X826786Y513898D01*
X828350Y515462D01*
X830394Y516309D01*
X832606Y516309D01*
X834650Y515462D01*
X836214Y513898D01*
X837061Y511854D01*
X837061Y509642D01*
X836214Y507598D01*
X835592Y506976D01*
X835580Y506960D01*
X835565Y506947D01*
X835509Y506860D01*
X835448Y506776D01*
X835443Y506757D01*
X835432Y506740D01*
X835406Y506640D01*
X835376Y506541D01*
X835377Y506521D01*
X835372Y506502D01*
X835380Y506399D01*
X835382Y506295D01*
X835389Y506276D01*
X835391Y506257D01*
X835431Y506162D01*
X835467Y506064D01*
X835479Y506048D01*
X835487Y506030D01*
X835592Y505899D01*
X842535Y498956D01*
X842551Y498945D01*
X842563Y498929D01*
X842651Y498873D01*
X842734Y498813D01*
X842753Y498807D01*
X842770Y498796D01*
X842871Y498771D01*
X842970Y498741D01*
X842989Y498741D01*
X843009Y498736D01*
X843112Y498744D01*
X843215Y498747D01*
X843234Y498754D01*
X843254Y498755D01*
X843349Y498796D01*
X843446Y498831D01*
X843462Y498844D01*
X843480Y498852D01*
X843611Y498956D01*
X845722Y501067D01*
X848896Y502382D01*
X864524Y502382D01*
X867698Y501067D01*
X870128Y498637D01*
X871443Y495463D01*
X871443Y492027D01*
X870128Y488853D01*
X867698Y486423D01*
X864524Y485108D01*
X848896Y485108D01*
X845722Y486423D01*
X843292Y488853D01*
X842776Y490099D01*
X842714Y490199D01*
X842654Y490299D01*
X842650Y490303D01*
X842646Y490308D01*
X842556Y490383D01*
X842467Y490459D01*
X842461Y490461D01*
X842457Y490465D01*
X842348Y490507D01*
X842239Y490551D01*
X842232Y490552D01*
X842227Y490553D01*
X842209Y490554D01*
X842072Y490569D01*
X841940Y490569D01*
X839856Y492653D01*
X829725Y502784D01*
X829709Y502796D01*
X829696Y502811D01*
X829609Y502867D01*
X829525Y502928D01*
X829506Y502933D01*
X829489Y502944D01*
X829389Y502970D01*
X829290Y503000D01*
X829270Y502999D01*
X829251Y503004D01*
X829148Y502996D01*
X829044Y502994D01*
X829025Y502987D01*
X829005Y502985D01*
X828911Y502945D01*
X828813Y502909D01*
X828797Y502897D01*
X828779Y502889D01*
X828648Y502784D01*
X827399Y501535D01*
X827346Y501461D01*
X827286Y501391D01*
X827274Y501361D01*
X827255Y501335D01*
X827228Y501248D01*
X827194Y501163D01*
X827190Y501122D01*
X827183Y501100D01*
X827184Y501068D01*
X827176Y500996D01*
X827176Y492131D01*
X827190Y492041D01*
X827198Y491950D01*
X827210Y491920D01*
X827215Y491888D01*
X827258Y491807D01*
X827294Y491723D01*
X827320Y491691D01*
X827331Y491671D01*
X827354Y491648D01*
X827399Y491592D01*
X842092Y476900D01*
X842129Y476873D01*
X842160Y476839D01*
X842229Y476801D01*
X842291Y476756D01*
X842335Y476742D01*
X842376Y476720D01*
X842452Y476706D01*
X842526Y476684D01*
X842573Y476685D01*
X842618Y476677D01*
X842695Y476688D01*
X842772Y476690D01*
X842816Y476706D01*
X842861Y476713D01*
X842930Y476748D01*
X843003Y476774D01*
X843040Y476803D01*
X843081Y476824D01*
X843135Y476880D01*
X843195Y476928D01*
X843220Y476967D01*
X843253Y477000D01*
X843262Y477018D01*
X845722Y479477D01*
X848896Y480792D01*
X864524Y480792D01*
X867698Y479477D01*
X870128Y477047D01*
X871443Y473873D01*
X871443Y470437D01*
X870204Y467446D01*
X870181Y467351D01*
X870153Y467258D01*
X870153Y467231D01*
X870147Y467206D01*
X870157Y467109D01*
X870159Y467012D01*
X870168Y466987D01*
X870171Y466961D01*
X870210Y466872D01*
X870244Y466781D01*
X870260Y466760D01*
X870271Y466736D01*
X870336Y466665D01*
X870397Y466589D01*
X870419Y466575D01*
X870437Y466555D01*
X870522Y466508D01*
X870604Y466456D01*
X870630Y466449D01*
X870652Y466437D01*
X870748Y466419D01*
X870843Y466396D01*
X870869Y466398D01*
X870895Y466393D01*
X870991Y466407D01*
X871088Y466415D01*
X871112Y466425D01*
X871138Y466429D01*
X871225Y466473D01*
X871314Y466511D01*
X871340Y466532D01*
X871357Y466540D01*
X871380Y466564D01*
X871445Y466616D01*
X873974Y469145D01*
X874027Y469219D01*
X874087Y469288D01*
X874099Y469319D01*
X874118Y469345D01*
X874145Y469432D01*
X874179Y469517D01*
X874183Y469558D01*
X874190Y469580D01*
X874189Y469612D01*
X874197Y469683D01*
X874197Y481368D01*
X884934Y492105D01*
X884987Y492179D01*
X885047Y492248D01*
X885059Y492279D01*
X885078Y492305D01*
X885105Y492392D01*
X885139Y492477D01*
X885143Y492518D01*
X885150Y492540D01*
X885149Y492572D01*
X885157Y492643D01*
X885157Y495463D01*
X886472Y498637D01*
X888902Y501067D01*
X892076Y502382D01*
X907704Y502382D01*
X910878Y501067D01*
X913308Y498637D01*
X914623Y495463D01*
X914623Y492027D01*
X913308Y488853D01*
X910878Y486423D01*
X907704Y485108D01*
X892076Y485108D01*
X889154Y486319D01*
X889040Y486345D01*
X888927Y486374D01*
X888921Y486373D01*
X888914Y486375D01*
X888798Y486364D01*
X888682Y486355D01*
X888676Y486352D01*
X888670Y486352D01*
X888562Y486304D01*
X888455Y486258D01*
X888449Y486254D01*
X888445Y486252D01*
X888431Y486239D01*
X888324Y486154D01*
X881026Y478855D01*
X880973Y478781D01*
X880913Y478712D01*
X880901Y478681D01*
X880882Y478655D01*
X880855Y478568D01*
X880821Y478483D01*
X880817Y478442D01*
X880810Y478420D01*
X880811Y478388D01*
X880803Y478317D01*
X880803Y466632D01*
X873091Y458920D01*
X868503Y458920D01*
X868432Y458909D01*
X868360Y458907D01*
X868311Y458889D01*
X868260Y458881D01*
X868197Y458847D01*
X868129Y458822D01*
X868089Y458790D01*
X868043Y458765D01*
X867993Y458714D01*
X867937Y458669D01*
X867909Y458625D01*
X867873Y458587D01*
X867843Y458522D01*
X867804Y458462D01*
X867792Y458411D01*
X867770Y458364D01*
X867762Y458293D01*
X867744Y458223D01*
X867748Y458171D01*
X867742Y458120D01*
X867758Y458049D01*
X867763Y457978D01*
X867784Y457930D01*
X867795Y457879D01*
X867832Y457818D01*
X867860Y457752D01*
X867904Y457696D01*
X867921Y457668D01*
X867939Y457653D01*
X867964Y457621D01*
X870128Y455457D01*
X871443Y452283D01*
X871443Y448847D01*
X870128Y445673D01*
X869057Y444602D01*
X869016Y444544D01*
X868966Y444492D01*
X868944Y444445D01*
X868914Y444403D01*
X868893Y444334D01*
X868863Y444269D01*
X868857Y444217D01*
X868842Y444167D01*
X868843Y444096D01*
X868836Y444025D01*
X868847Y443974D01*
X868848Y443922D01*
X868873Y443854D01*
X868888Y443784D01*
X868914Y443739D01*
X868932Y443691D01*
X868977Y443635D01*
X869014Y443573D01*
X869054Y443539D01*
X869086Y443499D01*
X869146Y443460D01*
X869201Y443413D01*
X869249Y443394D01*
X869293Y443366D01*
X869362Y443348D01*
X869429Y443321D01*
X869500Y443313D01*
X869531Y443305D01*
X869555Y443307D01*
X869596Y443303D01*
X873317Y443303D01*
X873407Y443317D01*
X873498Y443325D01*
X873527Y443337D01*
X873559Y443342D01*
X873640Y443385D01*
X873724Y443421D01*
X873756Y443447D01*
X873777Y443458D01*
X873799Y443481D01*
X873855Y443526D01*
X876474Y446145D01*
X876527Y446219D01*
X876587Y446288D01*
X876599Y446319D01*
X876618Y446345D01*
X876645Y446432D01*
X876679Y446517D01*
X876683Y446558D01*
X876690Y446580D01*
X876689Y446612D01*
X876697Y446683D01*
X876697Y458868D01*
X878855Y461026D01*
X885708Y467879D01*
X885776Y467973D01*
X885846Y468068D01*
X885848Y468074D01*
X885852Y468079D01*
X885886Y468190D01*
X885922Y468301D01*
X885922Y468308D01*
X885924Y468314D01*
X885921Y468431D01*
X885920Y468547D01*
X885918Y468555D01*
X885918Y468560D01*
X885911Y468577D01*
X885873Y468709D01*
X885157Y470437D01*
X885157Y473873D01*
X886472Y477047D01*
X888902Y479477D01*
X892076Y480792D01*
X907704Y480792D01*
X910878Y479477D01*
X913308Y477047D01*
X914623Y473873D01*
X914623Y470437D01*
X913308Y467263D01*
X910878Y464833D01*
X907704Y463518D01*
X892076Y463518D01*
X891565Y463730D01*
X891452Y463756D01*
X891338Y463785D01*
X891332Y463785D01*
X891326Y463786D01*
X891209Y463775D01*
X891093Y463766D01*
X891087Y463764D01*
X891081Y463763D01*
X890973Y463715D01*
X890867Y463670D01*
X890861Y463665D01*
X890856Y463663D01*
X890842Y463650D01*
X890736Y463565D01*
X883526Y456355D01*
X883473Y456281D01*
X883413Y456212D01*
X883401Y456181D01*
X883382Y456155D01*
X883355Y456068D01*
X883321Y455983D01*
X883317Y455942D01*
X883310Y455920D01*
X883311Y455888D01*
X883303Y455817D01*
X883303Y443632D01*
X876368Y436697D01*
X869136Y436697D01*
X869065Y436686D01*
X868993Y436684D01*
X868944Y436666D01*
X868893Y436658D01*
X868830Y436624D01*
X868762Y436599D01*
X868722Y436567D01*
X868676Y436542D01*
X868626Y436490D01*
X868570Y436446D01*
X868542Y436402D01*
X868506Y436364D01*
X868476Y436299D01*
X868437Y436239D01*
X868425Y436188D01*
X868403Y436141D01*
X868395Y436070D01*
X868377Y436000D01*
X868381Y435948D01*
X868376Y435897D01*
X868391Y435826D01*
X868396Y435755D01*
X868417Y435707D01*
X868428Y435656D01*
X868465Y435595D01*
X868493Y435529D01*
X868537Y435473D01*
X868554Y435445D01*
X868572Y435430D01*
X868597Y435398D01*
X870128Y433867D01*
X871443Y430693D01*
X871443Y427257D01*
X870128Y424083D01*
X867698Y421653D01*
X864524Y420338D01*
X848896Y420338D01*
G37*
%LPD*%
%LPC*%
G36*
X661394Y222439D02*
X661394Y222439D01*
X659350Y223286D01*
X657786Y224850D01*
X656939Y226894D01*
X656939Y226908D01*
X656928Y226979D01*
X656926Y227051D01*
X656908Y227100D01*
X656900Y227151D01*
X656866Y227215D01*
X656841Y227282D01*
X656809Y227323D01*
X656784Y227369D01*
X656732Y227418D01*
X656688Y227474D01*
X656644Y227502D01*
X656606Y227538D01*
X656541Y227568D01*
X656481Y227607D01*
X656430Y227620D01*
X656383Y227642D01*
X656312Y227649D01*
X656242Y227667D01*
X656190Y227663D01*
X656139Y227669D01*
X656068Y227653D01*
X655997Y227648D01*
X655949Y227627D01*
X655898Y227616D01*
X655837Y227580D01*
X655771Y227552D01*
X655715Y227507D01*
X655687Y227490D01*
X655672Y227472D01*
X655640Y227447D01*
X654479Y226286D01*
X652435Y225439D01*
X650223Y225439D01*
X648179Y226286D01*
X646615Y227850D01*
X645768Y229894D01*
X645768Y231483D01*
X645749Y231597D01*
X645732Y231714D01*
X645730Y231719D01*
X645729Y231725D01*
X645674Y231828D01*
X645621Y231933D01*
X645616Y231937D01*
X645613Y231943D01*
X645529Y232023D01*
X645445Y232105D01*
X645439Y232109D01*
X645435Y232112D01*
X645418Y232120D01*
X645298Y232186D01*
X643850Y232786D01*
X642286Y234350D01*
X641439Y236394D01*
X641439Y238606D01*
X642286Y240650D01*
X643601Y241965D01*
X643654Y242039D01*
X643676Y242065D01*
X643693Y242082D01*
X643694Y242086D01*
X643714Y242109D01*
X643726Y242139D01*
X643745Y242165D01*
X643772Y242252D01*
X643772Y242253D01*
X643796Y242305D01*
X643797Y242316D01*
X643806Y242337D01*
X643810Y242378D01*
X643817Y242400D01*
X643816Y242432D01*
X643824Y242504D01*
X643824Y242777D01*
X643810Y242867D01*
X643802Y242958D01*
X643790Y242988D01*
X643785Y243020D01*
X643742Y243101D01*
X643706Y243185D01*
X643680Y243217D01*
X643669Y243237D01*
X643646Y243259D01*
X643601Y243315D01*
X642154Y244762D01*
X641284Y246863D01*
X641284Y247523D01*
X641281Y247543D01*
X641283Y247562D01*
X641261Y247664D01*
X641245Y247766D01*
X641235Y247783D01*
X641231Y247803D01*
X641178Y247892D01*
X641129Y247983D01*
X641115Y247997D01*
X641105Y248014D01*
X641026Y248081D01*
X640951Y248153D01*
X640933Y248161D01*
X640918Y248174D01*
X640822Y248213D01*
X640728Y248256D01*
X640708Y248258D01*
X640690Y248266D01*
X640523Y248284D01*
X639363Y248284D01*
X637262Y249154D01*
X635654Y250762D01*
X634784Y252863D01*
X634784Y255137D01*
X635654Y257238D01*
X637101Y258685D01*
X637154Y258759D01*
X637214Y258828D01*
X637226Y258858D01*
X637245Y258884D01*
X637272Y258971D01*
X637306Y259056D01*
X637310Y259097D01*
X637317Y259119D01*
X637316Y259152D01*
X637324Y259223D01*
X637324Y263277D01*
X637310Y263367D01*
X637302Y263458D01*
X637290Y263488D01*
X637285Y263520D01*
X637242Y263601D01*
X637206Y263684D01*
X637180Y263717D01*
X637169Y263737D01*
X637146Y263759D01*
X637101Y263815D01*
X635654Y265262D01*
X634784Y267363D01*
X634784Y269637D01*
X635654Y271738D01*
X637262Y273346D01*
X639363Y274216D01*
X641637Y274216D01*
X643738Y273346D01*
X645346Y271738D01*
X645607Y271105D01*
X645618Y271088D01*
X645624Y271069D01*
X645682Y270984D01*
X645737Y270896D01*
X645752Y270884D01*
X645764Y270867D01*
X645847Y270806D01*
X645927Y270740D01*
X645945Y270732D01*
X645961Y270720D01*
X646060Y270688D01*
X646156Y270651D01*
X646176Y270650D01*
X646195Y270644D01*
X646299Y270645D01*
X646402Y270641D01*
X646421Y270646D01*
X646441Y270647D01*
X646602Y270693D01*
X647863Y271216D01*
X649889Y271216D01*
X649909Y271219D01*
X649928Y271217D01*
X650030Y271239D01*
X650132Y271255D01*
X650149Y271265D01*
X650169Y271269D01*
X650258Y271322D01*
X650349Y271371D01*
X650363Y271385D01*
X650380Y271395D01*
X650447Y271474D01*
X650519Y271549D01*
X650527Y271567D01*
X650540Y271582D01*
X650579Y271678D01*
X650622Y271772D01*
X650624Y271792D01*
X650632Y271810D01*
X650650Y271977D01*
X650650Y277341D01*
X650636Y277431D01*
X650628Y277522D01*
X650616Y277552D01*
X650611Y277584D01*
X650568Y277665D01*
X650532Y277749D01*
X650506Y277781D01*
X650495Y277801D01*
X650472Y277824D01*
X650427Y277880D01*
X649957Y278350D01*
X649110Y280394D01*
X649110Y282606D01*
X649957Y284650D01*
X651521Y286214D01*
X652799Y286743D01*
X652816Y286754D01*
X652835Y286760D01*
X652920Y286819D01*
X653008Y286873D01*
X653021Y286888D01*
X653037Y286900D01*
X653099Y286983D01*
X653165Y287063D01*
X653172Y287081D01*
X653184Y287097D01*
X653216Y287196D01*
X653253Y287292D01*
X653254Y287312D01*
X653260Y287331D01*
X653259Y287435D01*
X653263Y287538D01*
X653258Y287557D01*
X653258Y287577D01*
X653211Y287738D01*
X652939Y288394D01*
X652939Y290606D01*
X653786Y292650D01*
X655350Y294214D01*
X657394Y295061D01*
X659606Y295061D01*
X661650Y294214D01*
X663214Y292650D01*
X664061Y290606D01*
X664061Y289322D01*
X664064Y289302D01*
X664062Y289283D01*
X664084Y289181D01*
X664100Y289079D01*
X664110Y289062D01*
X664114Y289042D01*
X664167Y288953D01*
X664216Y288862D01*
X664230Y288848D01*
X664240Y288831D01*
X664319Y288764D01*
X664394Y288692D01*
X664412Y288684D01*
X664427Y288671D01*
X664523Y288632D01*
X664617Y288589D01*
X664637Y288587D01*
X664655Y288579D01*
X664822Y288561D01*
X665277Y288561D01*
X667321Y287714D01*
X668885Y286150D01*
X669732Y284106D01*
X669732Y283322D01*
X669735Y283302D01*
X669733Y283283D01*
X669755Y283181D01*
X669771Y283079D01*
X669781Y283062D01*
X669785Y283042D01*
X669838Y282953D01*
X669887Y282862D01*
X669901Y282848D01*
X669911Y282831D01*
X669990Y282764D01*
X670065Y282692D01*
X670083Y282684D01*
X670098Y282671D01*
X670194Y282632D01*
X670288Y282589D01*
X670308Y282587D01*
X670326Y282579D01*
X670493Y282561D01*
X670606Y282561D01*
X672650Y281714D01*
X674214Y280150D01*
X675061Y278106D01*
X675061Y275894D01*
X674214Y273850D01*
X672899Y272535D01*
X672846Y272461D01*
X672786Y272391D01*
X672774Y272361D01*
X672755Y272335D01*
X672728Y272248D01*
X672694Y272163D01*
X672690Y272122D01*
X672683Y272100D01*
X672684Y272068D01*
X672676Y271996D01*
X672676Y233685D01*
X668284Y229293D01*
X668231Y229219D01*
X668171Y229149D01*
X668159Y229119D01*
X668140Y229093D01*
X668113Y229006D01*
X668079Y228921D01*
X668075Y228880D01*
X668068Y228858D01*
X668069Y228826D01*
X668061Y228754D01*
X668061Y226894D01*
X667214Y224850D01*
X665650Y223286D01*
X663606Y222439D01*
X661394Y222439D01*
G37*
%LPD*%
%LPC*%
G36*
X367863Y599284D02*
X367863Y599284D01*
X365762Y600154D01*
X364154Y601762D01*
X363284Y603863D01*
X363284Y606137D01*
X364154Y608238D01*
X365762Y609846D01*
X366564Y610178D01*
X366664Y610239D01*
X366764Y610299D01*
X366768Y610304D01*
X366773Y610307D01*
X366848Y610397D01*
X366924Y610486D01*
X366926Y610492D01*
X366930Y610497D01*
X366972Y610605D01*
X367016Y610714D01*
X367017Y610722D01*
X367018Y610726D01*
X367019Y610745D01*
X367034Y610881D01*
X367034Y613126D01*
X367904Y615227D01*
X369512Y616835D01*
X371613Y617705D01*
X373887Y617705D01*
X375988Y616835D01*
X377596Y615227D01*
X377772Y614801D01*
X377806Y614746D01*
X377832Y614685D01*
X377884Y614620D01*
X377901Y614592D01*
X377916Y614580D01*
X377937Y614554D01*
X378592Y613899D01*
X378667Y613845D01*
X378736Y613786D01*
X378766Y613774D01*
X378792Y613755D01*
X378879Y613728D01*
X378964Y613694D01*
X379005Y613690D01*
X379027Y613683D01*
X379059Y613684D01*
X379131Y613676D01*
X417344Y613676D01*
X417389Y613683D01*
X417435Y613681D01*
X417510Y613703D01*
X417587Y613715D01*
X417627Y613737D01*
X417671Y613750D01*
X417735Y613794D01*
X417804Y613831D01*
X417836Y613864D01*
X417873Y613890D01*
X417920Y613953D01*
X417973Y614009D01*
X417993Y614051D01*
X418020Y614087D01*
X418044Y614161D01*
X418077Y614232D01*
X418082Y614278D01*
X418096Y614321D01*
X418096Y614399D01*
X418104Y614476D01*
X418094Y614521D01*
X418094Y614567D01*
X418056Y614698D01*
X418052Y614717D01*
X418049Y614721D01*
X418047Y614728D01*
X417784Y615363D01*
X417784Y616135D01*
X417781Y616155D01*
X417783Y616174D01*
X417761Y616276D01*
X417745Y616378D01*
X417735Y616395D01*
X417731Y616415D01*
X417678Y616504D01*
X417629Y616595D01*
X417615Y616609D01*
X417605Y616626D01*
X417526Y616693D01*
X417451Y616765D01*
X417433Y616773D01*
X417418Y616786D01*
X417322Y616825D01*
X417228Y616868D01*
X417208Y616870D01*
X417190Y616878D01*
X417023Y616896D01*
X416863Y616896D01*
X414762Y617766D01*
X413154Y619374D01*
X412284Y621475D01*
X412284Y623749D01*
X413154Y625850D01*
X414762Y627458D01*
X416863Y628328D01*
X419137Y628328D01*
X421238Y627458D01*
X422868Y625828D01*
X422942Y625775D01*
X423011Y625715D01*
X423041Y625703D01*
X423067Y625684D01*
X423154Y625657D01*
X423239Y625623D01*
X423280Y625619D01*
X423302Y625612D01*
X423335Y625613D01*
X423406Y625605D01*
X445706Y625605D01*
X445796Y625619D01*
X445887Y625627D01*
X445917Y625639D01*
X445949Y625644D01*
X446030Y625687D01*
X446113Y625723D01*
X446146Y625749D01*
X446166Y625760D01*
X446188Y625783D01*
X446244Y625828D01*
X447691Y627275D01*
X449792Y628145D01*
X452066Y628145D01*
X454167Y627275D01*
X455775Y625667D01*
X456645Y623566D01*
X456645Y622477D01*
X456648Y622457D01*
X456646Y622438D01*
X456668Y622336D01*
X456684Y622234D01*
X456694Y622217D01*
X456698Y622197D01*
X456751Y622108D01*
X456800Y622017D01*
X456814Y622003D01*
X456824Y621986D01*
X456903Y621919D01*
X456978Y621847D01*
X456996Y621839D01*
X457011Y621826D01*
X457107Y621787D01*
X457201Y621744D01*
X457221Y621742D01*
X457239Y621734D01*
X457406Y621716D01*
X459137Y621716D01*
X461238Y620846D01*
X462846Y619238D01*
X463716Y617137D01*
X463716Y614863D01*
X462846Y612762D01*
X461622Y611538D01*
X461610Y611522D01*
X461594Y611510D01*
X461538Y611422D01*
X461478Y611339D01*
X461472Y611320D01*
X461461Y611303D01*
X461436Y611202D01*
X461406Y611103D01*
X461406Y611084D01*
X461401Y611064D01*
X461409Y610961D01*
X461412Y610858D01*
X461419Y610839D01*
X461420Y610819D01*
X461461Y610724D01*
X461496Y610627D01*
X461509Y610611D01*
X461517Y610593D01*
X461622Y610462D01*
X462846Y609238D01*
X463716Y607137D01*
X463716Y604863D01*
X462846Y602762D01*
X461238Y601154D01*
X459137Y600284D01*
X456863Y600284D01*
X454762Y601154D01*
X453815Y602101D01*
X453741Y602154D01*
X453672Y602214D01*
X453642Y602226D01*
X453616Y602245D01*
X453529Y602272D01*
X453444Y602306D01*
X453403Y602310D01*
X453381Y602317D01*
X453348Y602316D01*
X453277Y602324D01*
X374587Y602324D01*
X374472Y602306D01*
X374356Y602288D01*
X374350Y602286D01*
X374344Y602285D01*
X374242Y602230D01*
X374137Y602177D01*
X374132Y602172D01*
X374127Y602169D01*
X374047Y602085D01*
X373965Y602001D01*
X373961Y601995D01*
X373957Y601991D01*
X373950Y601974D01*
X373884Y601854D01*
X373846Y601762D01*
X372238Y600154D01*
X370137Y599284D01*
X367863Y599284D01*
G37*
%LPD*%
%LPC*%
G36*
X633500Y422359D02*
X633500Y422359D01*
X630728Y423507D01*
X628607Y425628D01*
X627459Y428400D01*
X627459Y431400D01*
X628607Y434172D01*
X630148Y435712D01*
X630159Y435728D01*
X630175Y435740D01*
X630231Y435828D01*
X630291Y435911D01*
X630297Y435930D01*
X630308Y435947D01*
X630333Y436048D01*
X630363Y436147D01*
X630363Y436166D01*
X630368Y436186D01*
X630360Y436289D01*
X630357Y436392D01*
X630350Y436411D01*
X630349Y436431D01*
X630308Y436526D01*
X630273Y436623D01*
X630260Y436639D01*
X630252Y436657D01*
X630148Y436788D01*
X628607Y438328D01*
X627459Y441100D01*
X627459Y444100D01*
X628607Y446872D01*
X630148Y448412D01*
X630159Y448428D01*
X630175Y448440D01*
X630231Y448528D01*
X630291Y448611D01*
X630297Y448630D01*
X630308Y448647D01*
X630333Y448748D01*
X630363Y448847D01*
X630363Y448866D01*
X630368Y448886D01*
X630360Y448989D01*
X630357Y449092D01*
X630350Y449111D01*
X630349Y449131D01*
X630308Y449226D01*
X630273Y449323D01*
X630260Y449339D01*
X630252Y449357D01*
X630148Y449488D01*
X628607Y451028D01*
X627459Y453800D01*
X627459Y456800D01*
X628607Y459572D01*
X630148Y461112D01*
X630159Y461128D01*
X630175Y461140D01*
X630231Y461228D01*
X630291Y461311D01*
X630297Y461330D01*
X630308Y461347D01*
X630333Y461448D01*
X630363Y461547D01*
X630363Y461566D01*
X630368Y461586D01*
X630360Y461689D01*
X630357Y461792D01*
X630350Y461811D01*
X630349Y461831D01*
X630308Y461926D01*
X630273Y462023D01*
X630260Y462039D01*
X630252Y462057D01*
X630148Y462188D01*
X628607Y463728D01*
X627459Y466500D01*
X627459Y469500D01*
X628607Y472272D01*
X630728Y474393D01*
X633500Y475541D01*
X636500Y475541D01*
X639272Y474393D01*
X641393Y472272D01*
X641652Y471646D01*
X641714Y471546D01*
X641773Y471446D01*
X641778Y471442D01*
X641782Y471437D01*
X641872Y471362D01*
X641960Y471286D01*
X641966Y471284D01*
X641971Y471280D01*
X642079Y471238D01*
X642189Y471194D01*
X642196Y471193D01*
X642201Y471192D01*
X642219Y471191D01*
X642355Y471176D01*
X658959Y471176D01*
X659074Y471195D01*
X659190Y471212D01*
X659196Y471214D01*
X659202Y471215D01*
X659305Y471270D01*
X659410Y471323D01*
X659414Y471328D01*
X659420Y471331D01*
X659499Y471415D01*
X659582Y471499D01*
X659586Y471505D01*
X659589Y471509D01*
X659597Y471526D01*
X659663Y471646D01*
X660286Y473150D01*
X661850Y474714D01*
X663894Y475561D01*
X666106Y475561D01*
X668150Y474714D01*
X669714Y473150D01*
X670561Y471106D01*
X670561Y468894D01*
X669714Y466850D01*
X668150Y465286D01*
X666106Y464439D01*
X663894Y464439D01*
X663104Y464766D01*
X663041Y464781D01*
X662980Y464806D01*
X662897Y464815D01*
X662865Y464822D01*
X662846Y464821D01*
X662813Y464824D01*
X642355Y464824D01*
X642241Y464805D01*
X642124Y464788D01*
X642119Y464786D01*
X642112Y464785D01*
X642010Y464730D01*
X641905Y464677D01*
X641901Y464672D01*
X641895Y464669D01*
X641815Y464585D01*
X641733Y464501D01*
X641729Y464495D01*
X641726Y464491D01*
X641718Y464474D01*
X641652Y464354D01*
X641393Y463728D01*
X639852Y462188D01*
X639841Y462172D01*
X639825Y462160D01*
X639769Y462072D01*
X639709Y461989D01*
X639703Y461970D01*
X639692Y461953D01*
X639667Y461852D01*
X639637Y461753D01*
X639637Y461734D01*
X639632Y461714D01*
X639640Y461611D01*
X639643Y461508D01*
X639650Y461489D01*
X639651Y461469D01*
X639692Y461374D01*
X639727Y461277D01*
X639740Y461261D01*
X639748Y461243D01*
X639852Y461112D01*
X641393Y459572D01*
X641652Y458946D01*
X641714Y458846D01*
X641773Y458746D01*
X641778Y458742D01*
X641782Y458737D01*
X641872Y458662D01*
X641960Y458586D01*
X641966Y458584D01*
X641971Y458580D01*
X642079Y458538D01*
X642189Y458494D01*
X642196Y458493D01*
X642201Y458492D01*
X642219Y458491D01*
X642355Y458476D01*
X650344Y458476D01*
X650536Y458284D01*
X650610Y458231D01*
X650680Y458171D01*
X650710Y458159D01*
X650736Y458140D01*
X650823Y458113D01*
X650908Y458079D01*
X650949Y458075D01*
X650971Y458068D01*
X651003Y458069D01*
X651075Y458061D01*
X652935Y458061D01*
X654979Y457214D01*
X656543Y455650D01*
X657390Y453606D01*
X657390Y451394D01*
X656543Y449350D01*
X654979Y447786D01*
X653662Y447240D01*
X653579Y447189D01*
X653493Y447143D01*
X653475Y447124D01*
X653453Y447111D01*
X653391Y447036D01*
X653324Y446965D01*
X653313Y446941D01*
X653296Y446921D01*
X653261Y446830D01*
X653220Y446742D01*
X653217Y446716D01*
X653208Y446692D01*
X653204Y446594D01*
X653193Y446498D01*
X653198Y446472D01*
X653197Y446446D01*
X653224Y446352D01*
X653245Y446257D01*
X653259Y446235D01*
X653266Y446210D01*
X653321Y446130D01*
X653371Y446046D01*
X653391Y446029D01*
X653406Y446008D01*
X653484Y445949D01*
X653558Y445886D01*
X653583Y445876D01*
X653603Y445861D01*
X653696Y445831D01*
X653786Y445794D01*
X653819Y445791D01*
X653837Y445785D01*
X653870Y445785D01*
X653953Y445776D01*
X663523Y445776D01*
X663543Y445779D01*
X663562Y445777D01*
X663664Y445799D01*
X663766Y445815D01*
X663783Y445825D01*
X663803Y445829D01*
X663892Y445882D01*
X663983Y445931D01*
X663997Y445945D01*
X664014Y445955D01*
X664081Y446034D01*
X664153Y446109D01*
X664161Y446127D01*
X664174Y446142D01*
X664213Y446238D01*
X664256Y446332D01*
X664258Y446352D01*
X664266Y446370D01*
X664284Y446537D01*
X664284Y446637D01*
X665154Y448738D01*
X666762Y450346D01*
X668863Y451216D01*
X671137Y451216D01*
X673238Y450346D01*
X674846Y448738D01*
X675716Y446637D01*
X675716Y444363D01*
X674846Y442262D01*
X673238Y440654D01*
X671137Y439784D01*
X669091Y439784D01*
X669001Y439770D01*
X668910Y439762D01*
X668880Y439750D01*
X668848Y439745D01*
X668767Y439702D01*
X668683Y439666D01*
X668651Y439640D01*
X668631Y439629D01*
X668608Y439606D01*
X668552Y439561D01*
X668415Y439424D01*
X642355Y439424D01*
X642241Y439405D01*
X642124Y439388D01*
X642119Y439386D01*
X642112Y439385D01*
X642010Y439330D01*
X641905Y439277D01*
X641901Y439272D01*
X641895Y439269D01*
X641815Y439185D01*
X641733Y439101D01*
X641729Y439095D01*
X641726Y439091D01*
X641718Y439074D01*
X641652Y438954D01*
X641393Y438328D01*
X639852Y436788D01*
X639841Y436772D01*
X639825Y436760D01*
X639769Y436672D01*
X639709Y436589D01*
X639703Y436570D01*
X639692Y436553D01*
X639667Y436452D01*
X639637Y436353D01*
X639637Y436334D01*
X639632Y436314D01*
X639640Y436211D01*
X639643Y436108D01*
X639650Y436089D01*
X639651Y436069D01*
X639692Y435974D01*
X639727Y435877D01*
X639740Y435861D01*
X639748Y435843D01*
X639852Y435712D01*
X641393Y434172D01*
X641403Y434146D01*
X641465Y434046D01*
X641525Y433946D01*
X641530Y433942D01*
X641533Y433937D01*
X641623Y433862D01*
X641712Y433786D01*
X641718Y433784D01*
X641722Y433780D01*
X641831Y433738D01*
X641940Y433694D01*
X641947Y433693D01*
X641952Y433692D01*
X641970Y433691D01*
X642107Y433676D01*
X665277Y433676D01*
X665367Y433690D01*
X665458Y433698D01*
X665488Y433710D01*
X665520Y433715D01*
X665601Y433758D01*
X665684Y433794D01*
X665717Y433820D01*
X665737Y433831D01*
X665759Y433854D01*
X665815Y433899D01*
X667262Y435346D01*
X669363Y436216D01*
X671637Y436216D01*
X673738Y435346D01*
X675346Y433738D01*
X676216Y431637D01*
X676216Y429363D01*
X675346Y427262D01*
X673738Y425654D01*
X671637Y424784D01*
X669363Y424784D01*
X667262Y425654D01*
X665815Y427101D01*
X665741Y427154D01*
X665672Y427214D01*
X665642Y427226D01*
X665616Y427245D01*
X665529Y427272D01*
X665444Y427306D01*
X665403Y427310D01*
X665381Y427317D01*
X665348Y427316D01*
X665277Y427324D01*
X642604Y427324D01*
X642489Y427305D01*
X642373Y427288D01*
X642367Y427286D01*
X642361Y427285D01*
X642258Y427230D01*
X642154Y427177D01*
X642149Y427172D01*
X642144Y427169D01*
X642064Y427085D01*
X641981Y427001D01*
X641978Y426995D01*
X641974Y426991D01*
X641966Y426974D01*
X641900Y426854D01*
X641393Y425628D01*
X639272Y423507D01*
X636500Y422359D01*
X633500Y422359D01*
G37*
%LPD*%
%LPC*%
G36*
X256363Y623784D02*
X256363Y623784D01*
X254262Y624654D01*
X252654Y626262D01*
X251784Y628363D01*
X251784Y630637D01*
X252654Y632738D01*
X254262Y634346D01*
X256363Y635216D01*
X258637Y635216D01*
X258804Y635147D01*
X258867Y635132D01*
X258928Y635107D01*
X259011Y635098D01*
X259043Y635091D01*
X259062Y635092D01*
X259095Y635089D01*
X384698Y635089D01*
X384763Y635099D01*
X384828Y635100D01*
X384908Y635123D01*
X384941Y635128D01*
X384958Y635138D01*
X384989Y635147D01*
X386363Y635716D01*
X388637Y635716D01*
X390738Y634846D01*
X392346Y633238D01*
X393216Y631137D01*
X393216Y628863D01*
X392346Y626762D01*
X390738Y625154D01*
X390571Y625085D01*
X390515Y625051D01*
X390455Y625025D01*
X390390Y624973D01*
X390362Y624956D01*
X390350Y624941D01*
X390324Y624920D01*
X390166Y624762D01*
X388112Y623911D01*
X259095Y623911D01*
X259030Y623901D01*
X258965Y623900D01*
X258885Y623877D01*
X258852Y623872D01*
X258835Y623862D01*
X258804Y623853D01*
X258637Y623784D01*
X256363Y623784D01*
G37*
%LPD*%
%LPC*%
G36*
X518863Y541784D02*
X518863Y541784D01*
X516762Y542654D01*
X515154Y544262D01*
X514284Y546363D01*
X514284Y548409D01*
X514270Y548499D01*
X514262Y548590D01*
X514250Y548620D01*
X514245Y548652D01*
X514202Y548733D01*
X514166Y548817D01*
X514140Y548849D01*
X514129Y548869D01*
X514106Y548892D01*
X514061Y548948D01*
X507324Y555685D01*
X507324Y633023D01*
X507321Y633043D01*
X507323Y633062D01*
X507301Y633164D01*
X507285Y633266D01*
X507275Y633283D01*
X507271Y633303D01*
X507218Y633392D01*
X507169Y633483D01*
X507155Y633497D01*
X507145Y633514D01*
X507066Y633581D01*
X506991Y633653D01*
X506973Y633661D01*
X506958Y633674D01*
X506862Y633713D01*
X506768Y633756D01*
X506748Y633758D01*
X506730Y633766D01*
X506563Y633784D01*
X504863Y633784D01*
X502762Y634654D01*
X501154Y636262D01*
X500284Y638363D01*
X500284Y640637D01*
X501154Y642738D01*
X502172Y643756D01*
X502184Y643772D01*
X502200Y643784D01*
X502256Y643872D01*
X502316Y643955D01*
X502322Y643974D01*
X502333Y643991D01*
X502358Y644092D01*
X502388Y644191D01*
X502388Y644210D01*
X502393Y644230D01*
X502385Y644333D01*
X502382Y644436D01*
X502375Y644455D01*
X502374Y644475D01*
X502333Y644570D01*
X502298Y644667D01*
X502285Y644683D01*
X502277Y644701D01*
X502172Y644832D01*
X501242Y645762D01*
X500372Y647863D01*
X500372Y650137D01*
X501242Y652238D01*
X502850Y653846D01*
X504951Y654716D01*
X507225Y654716D01*
X509326Y653846D01*
X510934Y652238D01*
X511804Y650137D01*
X511804Y648091D01*
X511818Y648001D01*
X511826Y647910D01*
X511838Y647880D01*
X511843Y647848D01*
X511886Y647767D01*
X511922Y647683D01*
X511948Y647651D01*
X511959Y647631D01*
X511982Y647608D01*
X512027Y647552D01*
X516764Y642815D01*
X516764Y565543D01*
X516778Y565453D01*
X516786Y565362D01*
X516798Y565332D01*
X516803Y565300D01*
X516846Y565219D01*
X516882Y565135D01*
X516908Y565103D01*
X516919Y565083D01*
X516942Y565060D01*
X516987Y565004D01*
X528552Y553439D01*
X528626Y553386D01*
X528696Y553326D01*
X528726Y553314D01*
X528752Y553295D01*
X528839Y553268D01*
X528924Y553234D01*
X528965Y553230D01*
X528987Y553223D01*
X529019Y553224D01*
X529091Y553216D01*
X531137Y553216D01*
X533238Y552346D01*
X534846Y550738D01*
X535716Y548637D01*
X535716Y546363D01*
X534846Y544262D01*
X533238Y542654D01*
X531137Y541784D01*
X528863Y541784D01*
X526762Y542654D01*
X525538Y543878D01*
X525522Y543890D01*
X525510Y543906D01*
X525422Y543962D01*
X525339Y544022D01*
X525320Y544028D01*
X525303Y544039D01*
X525202Y544064D01*
X525103Y544094D01*
X525084Y544094D01*
X525064Y544099D01*
X524961Y544091D01*
X524858Y544088D01*
X524839Y544081D01*
X524819Y544080D01*
X524724Y544039D01*
X524627Y544004D01*
X524611Y543991D01*
X524593Y543983D01*
X524462Y543878D01*
X523238Y542654D01*
X521137Y541784D01*
X518863Y541784D01*
G37*
%LPD*%
%LPC*%
G36*
X615894Y408439D02*
X615894Y408439D01*
X613850Y409286D01*
X612286Y410850D01*
X611439Y412894D01*
X611439Y415106D01*
X612113Y416732D01*
X612139Y416845D01*
X612168Y416959D01*
X612167Y416965D01*
X612169Y416971D01*
X612158Y417088D01*
X612149Y417204D01*
X612146Y417210D01*
X612146Y417216D01*
X612098Y417324D01*
X612052Y417430D01*
X612048Y417436D01*
X612046Y417441D01*
X612033Y417454D01*
X611948Y417561D01*
X611824Y417685D01*
X611824Y477496D01*
X611810Y477586D01*
X611802Y477677D01*
X611790Y477707D01*
X611785Y477739D01*
X611742Y477820D01*
X611706Y477904D01*
X611680Y477936D01*
X611669Y477957D01*
X611646Y477979D01*
X611601Y478035D01*
X610286Y479350D01*
X609439Y481394D01*
X609439Y483606D01*
X610286Y485650D01*
X611850Y487214D01*
X613969Y488092D01*
X614069Y488153D01*
X614169Y488213D01*
X614173Y488218D01*
X614178Y488222D01*
X614253Y488312D01*
X614329Y488400D01*
X614331Y488406D01*
X614335Y488411D01*
X614377Y488519D01*
X614421Y488629D01*
X614422Y488636D01*
X614423Y488641D01*
X614424Y488659D01*
X614439Y488795D01*
X614439Y491106D01*
X615286Y493150D01*
X616850Y494714D01*
X618894Y495561D01*
X621106Y495561D01*
X623150Y494714D01*
X624714Y493150D01*
X625561Y491106D01*
X625561Y488894D01*
X624714Y486850D01*
X623399Y485535D01*
X623346Y485461D01*
X623286Y485391D01*
X623274Y485361D01*
X623255Y485335D01*
X623228Y485248D01*
X623194Y485163D01*
X623190Y485122D01*
X623183Y485100D01*
X623184Y485068D01*
X623176Y484996D01*
X623176Y426748D01*
X623195Y426633D01*
X623212Y426517D01*
X623214Y426511D01*
X623215Y426505D01*
X623270Y426402D01*
X623323Y426297D01*
X623328Y426293D01*
X623331Y426288D01*
X623415Y426208D01*
X623499Y426125D01*
X623505Y426122D01*
X623509Y426118D01*
X623526Y426110D01*
X623646Y426044D01*
X625650Y425214D01*
X627214Y423650D01*
X628061Y421606D01*
X628061Y419394D01*
X627214Y417350D01*
X625650Y415786D01*
X623606Y414939D01*
X623322Y414939D01*
X623302Y414936D01*
X623283Y414938D01*
X623181Y414916D01*
X623079Y414900D01*
X623062Y414890D01*
X623042Y414886D01*
X622953Y414833D01*
X622862Y414784D01*
X622848Y414770D01*
X622831Y414760D01*
X622764Y414681D01*
X622692Y414606D01*
X622684Y414588D01*
X622671Y414573D01*
X622632Y414477D01*
X622589Y414383D01*
X622587Y414363D01*
X622579Y414345D01*
X622561Y414178D01*
X622561Y412894D01*
X621714Y410850D01*
X620150Y409286D01*
X618106Y408439D01*
X615894Y408439D01*
G37*
%LPD*%
%LPC*%
G36*
X951523Y701523D02*
X951523Y701523D01*
X951523Y734291D01*
X951685Y734291D01*
X955038Y733960D01*
X958342Y733303D01*
X961566Y732325D01*
X964679Y731036D01*
X967650Y729448D01*
X970452Y727576D01*
X973056Y725438D01*
X975438Y723056D01*
X977576Y720452D01*
X979448Y717650D01*
X981036Y714679D01*
X982325Y711566D01*
X983303Y708342D01*
X983960Y705038D01*
X984291Y701685D01*
X984291Y701523D01*
X951523Y701523D01*
G37*
%LPD*%
%LPC*%
G36*
X951523Y51523D02*
X951523Y51523D01*
X951523Y84291D01*
X951685Y84291D01*
X955038Y83960D01*
X958342Y83303D01*
X961566Y82325D01*
X964679Y81036D01*
X967650Y79448D01*
X970452Y77576D01*
X973056Y75438D01*
X975438Y73056D01*
X977576Y70452D01*
X979448Y67650D01*
X981036Y64679D01*
X982325Y61566D01*
X983303Y58342D01*
X983960Y55038D01*
X984291Y51685D01*
X984291Y51523D01*
X951523Y51523D01*
G37*
%LPD*%
%LPC*%
G36*
X51523Y701523D02*
X51523Y701523D01*
X51523Y734291D01*
X51685Y734291D01*
X55038Y733960D01*
X58342Y733303D01*
X61566Y732325D01*
X64679Y731036D01*
X67650Y729448D01*
X70452Y727576D01*
X73056Y725438D01*
X75438Y723056D01*
X77576Y720452D01*
X79448Y717650D01*
X81036Y714679D01*
X82325Y711566D01*
X83303Y708342D01*
X83960Y705038D01*
X84291Y701685D01*
X84291Y701523D01*
X51523Y701523D01*
G37*
%LPD*%
%LPC*%
G36*
X51523Y51523D02*
X51523Y51523D01*
X51523Y84291D01*
X51685Y84291D01*
X55038Y83960D01*
X58342Y83303D01*
X61566Y82325D01*
X64679Y81036D01*
X67650Y79448D01*
X70452Y77576D01*
X73056Y75438D01*
X75438Y73056D01*
X77576Y70452D01*
X79448Y67650D01*
X81036Y64679D01*
X82325Y61566D01*
X83303Y58342D01*
X83960Y55038D01*
X84291Y51685D01*
X84291Y51523D01*
X51523Y51523D01*
G37*
%LPD*%
%LPC*%
G36*
X51523Y15709D02*
X51523Y15709D01*
X51523Y48477D01*
X84291Y48477D01*
X84291Y48315D01*
X83960Y44962D01*
X83303Y41658D01*
X82325Y38434D01*
X81036Y35321D01*
X79448Y32350D01*
X77576Y29548D01*
X75438Y26944D01*
X73056Y24562D01*
X70452Y22424D01*
X67650Y20552D01*
X64679Y18964D01*
X61566Y17675D01*
X58342Y16697D01*
X55038Y16040D01*
X51685Y15709D01*
X51523Y15709D01*
G37*
%LPD*%
%LPC*%
G36*
X951523Y665709D02*
X951523Y665709D01*
X951523Y698477D01*
X984291Y698477D01*
X984291Y698315D01*
X983960Y694962D01*
X983303Y691658D01*
X982325Y688434D01*
X981036Y685321D01*
X979448Y682350D01*
X977576Y679548D01*
X975438Y676944D01*
X973056Y674562D01*
X970452Y672424D01*
X967650Y670552D01*
X964679Y668964D01*
X961566Y667675D01*
X958342Y666697D01*
X955038Y666040D01*
X951685Y665709D01*
X951523Y665709D01*
G37*
%LPD*%
%LPC*%
G36*
X915709Y51523D02*
X915709Y51523D01*
X915709Y51685D01*
X916040Y55038D01*
X916697Y58342D01*
X917675Y61566D01*
X918964Y64679D01*
X920552Y67650D01*
X922424Y70452D01*
X924562Y73056D01*
X926944Y75438D01*
X929548Y77576D01*
X932350Y79448D01*
X935321Y81036D01*
X938434Y82325D01*
X941658Y83303D01*
X944962Y83960D01*
X948315Y84291D01*
X948477Y84291D01*
X948477Y51523D01*
X915709Y51523D01*
G37*
%LPD*%
%LPC*%
G36*
X951523Y15709D02*
X951523Y15709D01*
X951523Y48477D01*
X984291Y48477D01*
X984291Y48315D01*
X983960Y44962D01*
X983303Y41658D01*
X982325Y38434D01*
X981036Y35321D01*
X979448Y32350D01*
X977576Y29548D01*
X975438Y26944D01*
X973056Y24562D01*
X970452Y22424D01*
X967650Y20552D01*
X964679Y18964D01*
X961566Y17675D01*
X958342Y16697D01*
X955038Y16040D01*
X951685Y15709D01*
X951523Y15709D01*
G37*
%LPD*%
%LPC*%
G36*
X15709Y51523D02*
X15709Y51523D01*
X15709Y51685D01*
X16040Y55038D01*
X16697Y58342D01*
X17675Y61566D01*
X18964Y64679D01*
X20552Y67650D01*
X22424Y70452D01*
X24562Y73056D01*
X26944Y75438D01*
X29548Y77576D01*
X32350Y79448D01*
X35321Y81036D01*
X38434Y82325D01*
X41658Y83303D01*
X44962Y83960D01*
X48315Y84291D01*
X48477Y84291D01*
X48477Y51523D01*
X15709Y51523D01*
G37*
%LPD*%
%LPC*%
G36*
X915709Y701523D02*
X915709Y701523D01*
X915709Y701685D01*
X916040Y705038D01*
X916697Y708342D01*
X917675Y711566D01*
X918964Y714679D01*
X920552Y717650D01*
X922424Y720452D01*
X924562Y723056D01*
X926944Y725438D01*
X929548Y727576D01*
X932350Y729448D01*
X935321Y731036D01*
X938434Y732325D01*
X941658Y733303D01*
X944962Y733960D01*
X948315Y734291D01*
X948477Y734291D01*
X948477Y701523D01*
X915709Y701523D01*
G37*
%LPD*%
%LPC*%
G36*
X15709Y701523D02*
X15709Y701523D01*
X15709Y701685D01*
X16040Y705038D01*
X16697Y708342D01*
X17675Y711566D01*
X18964Y714679D01*
X20552Y717650D01*
X22424Y720452D01*
X24562Y723056D01*
X26944Y725438D01*
X29548Y727576D01*
X32350Y729448D01*
X35321Y731036D01*
X38434Y732325D01*
X41658Y733303D01*
X44962Y733960D01*
X48315Y734291D01*
X48477Y734291D01*
X48477Y701523D01*
X15709Y701523D01*
G37*
%LPD*%
%LPC*%
G36*
X51523Y665709D02*
X51523Y665709D01*
X51523Y698477D01*
X84291Y698477D01*
X84291Y698315D01*
X83960Y694962D01*
X83303Y691658D01*
X82325Y688434D01*
X81036Y685321D01*
X79448Y682350D01*
X77576Y679548D01*
X75438Y676944D01*
X73056Y674562D01*
X70452Y672424D01*
X67650Y670552D01*
X64679Y668964D01*
X61566Y667675D01*
X58342Y666697D01*
X55038Y666040D01*
X51685Y665709D01*
X51523Y665709D01*
G37*
%LPD*%
%LPC*%
G36*
X48315Y665709D02*
X48315Y665709D01*
X44962Y666040D01*
X41658Y666697D01*
X38434Y667675D01*
X35321Y668964D01*
X32350Y670552D01*
X29548Y672424D01*
X26944Y674562D01*
X24562Y676944D01*
X22424Y679548D01*
X20552Y682350D01*
X18964Y685321D01*
X17675Y688434D01*
X16697Y691658D01*
X16040Y694962D01*
X15709Y698315D01*
X15709Y698477D01*
X48477Y698477D01*
X48477Y665709D01*
X48315Y665709D01*
G37*
%LPD*%
%LPC*%
G36*
X948315Y15709D02*
X948315Y15709D01*
X944962Y16040D01*
X941658Y16697D01*
X938434Y17675D01*
X935321Y18964D01*
X932350Y20552D01*
X929548Y22424D01*
X926944Y24562D01*
X924562Y26944D01*
X922424Y29548D01*
X920552Y32350D01*
X918964Y35321D01*
X917675Y38434D01*
X916697Y41658D01*
X916040Y44962D01*
X915709Y48315D01*
X915709Y48477D01*
X948477Y48477D01*
X948477Y15709D01*
X948315Y15709D01*
G37*
%LPD*%
%LPC*%
G36*
X948315Y665709D02*
X948315Y665709D01*
X944962Y666040D01*
X941658Y666697D01*
X938434Y667675D01*
X935321Y668964D01*
X932350Y670552D01*
X929548Y672424D01*
X926944Y674562D01*
X924562Y676944D01*
X922424Y679548D01*
X920552Y682350D01*
X918964Y685321D01*
X917675Y688434D01*
X916697Y691658D01*
X916040Y694962D01*
X915709Y698315D01*
X915709Y698477D01*
X948477Y698477D01*
X948477Y665709D01*
X948315Y665709D01*
G37*
%LPD*%
%LPC*%
G36*
X48315Y15709D02*
X48315Y15709D01*
X44962Y16040D01*
X41658Y16697D01*
X38434Y17675D01*
X35321Y18964D01*
X32350Y20552D01*
X29548Y22424D01*
X26944Y24562D01*
X24562Y26944D01*
X22424Y29548D01*
X20552Y32350D01*
X18964Y35321D01*
X17675Y38434D01*
X16697Y41658D01*
X16040Y44962D01*
X15709Y48315D01*
X15709Y48477D01*
X48477Y48477D01*
X48477Y15709D01*
X48315Y15709D01*
G37*
%LPD*%
%LPC*%
G36*
X808863Y284284D02*
X808863Y284284D01*
X806762Y285154D01*
X805154Y286762D01*
X804284Y288863D01*
X804284Y291137D01*
X805154Y293238D01*
X806762Y294846D01*
X808863Y295716D01*
X810730Y295716D01*
X810820Y295730D01*
X810911Y295738D01*
X810940Y295750D01*
X810972Y295755D01*
X811053Y295798D01*
X811137Y295834D01*
X811169Y295860D01*
X811190Y295871D01*
X811212Y295894D01*
X811268Y295939D01*
X818067Y302738D01*
X842125Y302738D01*
X842240Y302757D01*
X842356Y302774D01*
X842362Y302776D01*
X842368Y302777D01*
X842470Y302832D01*
X842575Y302885D01*
X842580Y302890D01*
X842585Y302893D01*
X842665Y302977D01*
X842747Y303061D01*
X842751Y303067D01*
X842755Y303071D01*
X842762Y303088D01*
X842828Y303208D01*
X843292Y304327D01*
X845722Y306757D01*
X848896Y308072D01*
X864524Y308072D01*
X867698Y306757D01*
X870128Y304327D01*
X871443Y301153D01*
X871443Y297717D01*
X870128Y294543D01*
X867698Y292113D01*
X864524Y290798D01*
X848896Y290798D01*
X845722Y292113D01*
X843292Y294543D01*
X842828Y295662D01*
X842767Y295762D01*
X842707Y295862D01*
X842702Y295866D01*
X842699Y295871D01*
X842609Y295946D01*
X842520Y296022D01*
X842514Y296024D01*
X842509Y296028D01*
X842401Y296070D01*
X842292Y296114D01*
X842284Y296115D01*
X842280Y296116D01*
X842261Y296117D01*
X842125Y296132D01*
X821118Y296132D01*
X821028Y296118D01*
X820937Y296110D01*
X820908Y296098D01*
X820876Y296093D01*
X820795Y296050D01*
X820711Y296014D01*
X820679Y295988D01*
X820658Y295977D01*
X820636Y295954D01*
X820580Y295909D01*
X815939Y291268D01*
X815886Y291194D01*
X815826Y291125D01*
X815814Y291094D01*
X815795Y291068D01*
X815768Y290981D01*
X815734Y290896D01*
X815730Y290855D01*
X815723Y290833D01*
X815724Y290801D01*
X815716Y290730D01*
X815716Y288863D01*
X814846Y286762D01*
X813238Y285154D01*
X811137Y284284D01*
X808863Y284284D01*
G37*
%LPD*%
%LPC*%
G36*
X848896Y269208D02*
X848896Y269208D01*
X845722Y270523D01*
X843292Y272953D01*
X842828Y274072D01*
X842767Y274172D01*
X842707Y274272D01*
X842702Y274276D01*
X842699Y274281D01*
X842609Y274356D01*
X842520Y274432D01*
X842514Y274434D01*
X842509Y274438D01*
X842401Y274480D01*
X842292Y274524D01*
X842284Y274525D01*
X842280Y274526D01*
X842261Y274527D01*
X842125Y274542D01*
X816477Y274542D01*
X816457Y274539D01*
X816438Y274541D01*
X816336Y274519D01*
X816234Y274503D01*
X816217Y274493D01*
X816197Y274489D01*
X816108Y274436D01*
X816017Y274387D01*
X816003Y274373D01*
X815986Y274363D01*
X815919Y274284D01*
X815847Y274209D01*
X815839Y274191D01*
X815826Y274176D01*
X815787Y274080D01*
X815744Y273986D01*
X815742Y273966D01*
X815734Y273948D01*
X815728Y273893D01*
X814846Y271762D01*
X813238Y270154D01*
X811137Y269284D01*
X808863Y269284D01*
X806762Y270154D01*
X805154Y271762D01*
X804284Y273863D01*
X804284Y276137D01*
X805154Y278238D01*
X806762Y279846D01*
X808863Y280716D01*
X810730Y280716D01*
X810820Y280730D01*
X810911Y280738D01*
X810940Y280750D01*
X810972Y280755D01*
X811053Y280798D01*
X811137Y280834D01*
X811169Y280860D01*
X811190Y280871D01*
X811212Y280894D01*
X811268Y280939D01*
X811477Y281148D01*
X842125Y281148D01*
X842240Y281167D01*
X842356Y281184D01*
X842362Y281186D01*
X842368Y281187D01*
X842470Y281242D01*
X842575Y281295D01*
X842580Y281300D01*
X842585Y281303D01*
X842665Y281387D01*
X842747Y281471D01*
X842751Y281477D01*
X842755Y281481D01*
X842762Y281498D01*
X842828Y281618D01*
X843292Y282737D01*
X845722Y285167D01*
X848896Y286482D01*
X864524Y286482D01*
X867698Y285167D01*
X870128Y282737D01*
X871443Y279563D01*
X871443Y276127D01*
X870128Y272953D01*
X867698Y270523D01*
X864524Y269208D01*
X848896Y269208D01*
G37*
%LPD*%
%LPC*%
G36*
X879823Y610457D02*
X879823Y610457D01*
X879823Y640685D01*
X879860Y640685D01*
X882964Y640379D01*
X886024Y639770D01*
X889009Y638865D01*
X891892Y637671D01*
X894643Y636200D01*
X897237Y634467D01*
X899648Y632488D01*
X901854Y630282D01*
X903833Y627871D01*
X905566Y625277D01*
X907037Y622526D01*
X908231Y619643D01*
X909136Y616658D01*
X909745Y613598D01*
X910051Y610494D01*
X910051Y610457D01*
X879823Y610457D01*
G37*
%LPD*%
%LPC*%
G36*
X879823Y142589D02*
X879823Y142589D01*
X879823Y172817D01*
X879860Y172817D01*
X882964Y172511D01*
X886024Y171902D01*
X889009Y170997D01*
X891892Y169803D01*
X894643Y168332D01*
X897237Y166599D01*
X899648Y164620D01*
X901854Y162414D01*
X903833Y160003D01*
X905566Y157409D01*
X907037Y154658D01*
X908231Y151775D01*
X909136Y148790D01*
X909745Y145730D01*
X910051Y142626D01*
X910051Y142589D01*
X879823Y142589D01*
G37*
%LPD*%
%LPC*%
G36*
X879823Y109315D02*
X879823Y109315D01*
X879823Y139543D01*
X910051Y139543D01*
X910051Y139506D01*
X909745Y136402D01*
X909136Y133342D01*
X908231Y130357D01*
X907037Y127474D01*
X905566Y124723D01*
X903833Y122129D01*
X901854Y119718D01*
X899648Y117512D01*
X897237Y115533D01*
X894643Y113800D01*
X891892Y112329D01*
X889009Y111135D01*
X886024Y110230D01*
X882964Y109621D01*
X879860Y109315D01*
X879823Y109315D01*
G37*
%LPD*%
%LPC*%
G36*
X846549Y610457D02*
X846549Y610457D01*
X846549Y610494D01*
X846855Y613598D01*
X847464Y616658D01*
X848369Y619643D01*
X849563Y622526D01*
X851034Y625277D01*
X852767Y627871D01*
X854746Y630282D01*
X856952Y632488D01*
X859363Y634467D01*
X861957Y636200D01*
X864708Y637671D01*
X867591Y638865D01*
X870576Y639770D01*
X873636Y640379D01*
X876740Y640685D01*
X876777Y640685D01*
X876777Y610457D01*
X846549Y610457D01*
G37*
%LPD*%
%LPC*%
G36*
X879823Y577183D02*
X879823Y577183D01*
X879823Y607411D01*
X910051Y607411D01*
X910051Y607374D01*
X909745Y604270D01*
X909136Y601210D01*
X908231Y598225D01*
X907037Y595342D01*
X905566Y592591D01*
X903833Y589997D01*
X901854Y587586D01*
X899648Y585380D01*
X897237Y583401D01*
X894643Y581668D01*
X891892Y580197D01*
X889009Y579003D01*
X886024Y578098D01*
X882964Y577489D01*
X879860Y577183D01*
X879823Y577183D01*
G37*
%LPD*%
%LPC*%
G36*
X846549Y142589D02*
X846549Y142589D01*
X846549Y142626D01*
X846855Y145730D01*
X847464Y148790D01*
X848369Y151775D01*
X849563Y154658D01*
X851034Y157409D01*
X852767Y160003D01*
X854746Y162414D01*
X856952Y164620D01*
X859363Y166599D01*
X861957Y168332D01*
X864708Y169803D01*
X867591Y170997D01*
X870576Y171902D01*
X873636Y172511D01*
X876740Y172817D01*
X876777Y172817D01*
X876777Y142589D01*
X846549Y142589D01*
G37*
%LPD*%
%LPC*%
G36*
X876740Y109315D02*
X876740Y109315D01*
X873636Y109621D01*
X870576Y110230D01*
X867591Y111135D01*
X864708Y112329D01*
X861957Y113800D01*
X859363Y115533D01*
X856952Y117512D01*
X854746Y119718D01*
X852767Y122129D01*
X851034Y124723D01*
X849563Y127474D01*
X848369Y130357D01*
X847464Y133342D01*
X846855Y136402D01*
X846549Y139506D01*
X846549Y139543D01*
X876777Y139543D01*
X876777Y109315D01*
X876740Y109315D01*
G37*
%LPD*%
%LPC*%
G36*
X876740Y577183D02*
X876740Y577183D01*
X873636Y577489D01*
X870576Y578098D01*
X867591Y579003D01*
X864708Y580197D01*
X861957Y581668D01*
X859363Y583401D01*
X856952Y585380D01*
X854746Y587586D01*
X852767Y589997D01*
X851034Y592591D01*
X849563Y595342D01*
X848369Y598225D01*
X847464Y601210D01*
X846855Y604270D01*
X846549Y607374D01*
X846549Y607411D01*
X876777Y607411D01*
X876777Y577183D01*
X876740Y577183D01*
G37*
%LPD*%
%LPC*%
G36*
X892076Y441928D02*
X892076Y441928D01*
X888902Y443243D01*
X886472Y445673D01*
X885157Y448847D01*
X885157Y452283D01*
X886472Y455457D01*
X888902Y457887D01*
X892076Y459202D01*
X907704Y459202D01*
X910878Y457887D01*
X913308Y455457D01*
X913772Y454338D01*
X913833Y454238D01*
X913893Y454138D01*
X913898Y454134D01*
X913901Y454129D01*
X913991Y454054D01*
X914080Y453978D01*
X914086Y453976D01*
X914091Y453972D01*
X914199Y453930D01*
X914308Y453886D01*
X914316Y453885D01*
X914320Y453884D01*
X914339Y453883D01*
X914475Y453868D01*
X927123Y453868D01*
X927213Y453882D01*
X927304Y453890D01*
X927334Y453902D01*
X927366Y453907D01*
X927447Y453950D01*
X927531Y453986D01*
X927563Y454012D01*
X927583Y454023D01*
X927606Y454046D01*
X927662Y454091D01*
X928850Y455279D01*
X930894Y456126D01*
X933106Y456126D01*
X935150Y455279D01*
X936714Y453715D01*
X937561Y451671D01*
X937561Y449459D01*
X936714Y447415D01*
X935150Y445851D01*
X933106Y445004D01*
X930894Y445004D01*
X928850Y445851D01*
X927662Y447039D01*
X927588Y447092D01*
X927518Y447152D01*
X927488Y447164D01*
X927462Y447183D01*
X927375Y447210D01*
X927290Y447244D01*
X927249Y447248D01*
X927227Y447255D01*
X927195Y447254D01*
X927123Y447262D01*
X914475Y447262D01*
X914360Y447243D01*
X914244Y447226D01*
X914238Y447224D01*
X914232Y447223D01*
X914130Y447168D01*
X914025Y447115D01*
X914020Y447110D01*
X914015Y447107D01*
X913935Y447023D01*
X913853Y446939D01*
X913849Y446933D01*
X913845Y446929D01*
X913838Y446912D01*
X913772Y446792D01*
X913308Y445673D01*
X910878Y443243D01*
X907704Y441928D01*
X892076Y441928D01*
G37*
%LPD*%
%LPC*%
G36*
X40074Y576699D02*
X40074Y576699D01*
X35406Y578633D01*
X31833Y582206D01*
X29899Y586874D01*
X29899Y591926D01*
X31833Y596594D01*
X35406Y600167D01*
X40074Y602101D01*
X45126Y602101D01*
X49794Y600167D01*
X53367Y596594D01*
X55301Y591926D01*
X55301Y586874D01*
X53367Y582206D01*
X49794Y578633D01*
X45126Y576699D01*
X40074Y576699D01*
G37*
%LPD*%
%LPC*%
G36*
X85794Y576699D02*
X85794Y576699D01*
X81126Y578633D01*
X77553Y582206D01*
X75619Y586874D01*
X75619Y591926D01*
X77553Y596594D01*
X81126Y600167D01*
X85794Y602101D01*
X90846Y602101D01*
X95514Y600167D01*
X99087Y596594D01*
X101021Y591926D01*
X101021Y586874D01*
X99087Y582206D01*
X95514Y578633D01*
X90846Y576699D01*
X85794Y576699D01*
G37*
%LPD*%
%LPC*%
G36*
X438863Y681784D02*
X438863Y681784D01*
X436762Y682654D01*
X435154Y684262D01*
X434859Y684976D01*
X434848Y684993D01*
X434843Y685012D01*
X434784Y685097D01*
X434729Y685185D01*
X434714Y685198D01*
X434703Y685214D01*
X434620Y685275D01*
X434540Y685342D01*
X434521Y685349D01*
X434505Y685361D01*
X434407Y685393D01*
X434310Y685430D01*
X434290Y685431D01*
X434271Y685437D01*
X434168Y685436D01*
X434064Y685440D01*
X434045Y685435D01*
X434025Y685435D01*
X433864Y685388D01*
X432137Y684672D01*
X429863Y684672D01*
X427762Y685542D01*
X426154Y687150D01*
X425284Y689251D01*
X425284Y691525D01*
X426154Y693626D01*
X427762Y695234D01*
X427854Y695272D01*
X427953Y695333D01*
X428054Y695393D01*
X428058Y695398D01*
X428063Y695401D01*
X428137Y695490D01*
X428214Y695580D01*
X428216Y695586D01*
X428220Y695591D01*
X428262Y695699D01*
X428306Y695808D01*
X428307Y695816D01*
X428308Y695820D01*
X428309Y695839D01*
X428324Y695975D01*
X428324Y698777D01*
X428310Y698867D01*
X428302Y698958D01*
X428290Y698988D01*
X428285Y699020D01*
X428242Y699101D01*
X428206Y699184D01*
X428180Y699217D01*
X428169Y699237D01*
X428146Y699259D01*
X428101Y699315D01*
X426654Y700762D01*
X425784Y702863D01*
X425784Y705137D01*
X426654Y707238D01*
X428262Y708846D01*
X430363Y709716D01*
X432637Y709716D01*
X434738Y708846D01*
X435406Y708178D01*
X435422Y708166D01*
X435434Y708150D01*
X435522Y708094D01*
X435605Y708034D01*
X435624Y708028D01*
X435641Y708017D01*
X435742Y707992D01*
X435841Y707962D01*
X435860Y707962D01*
X435880Y707957D01*
X435983Y707965D01*
X436086Y707968D01*
X436105Y707975D01*
X436125Y707976D01*
X436220Y708017D01*
X436317Y708052D01*
X436333Y708065D01*
X436351Y708073D01*
X436482Y708178D01*
X436762Y708458D01*
X438863Y709328D01*
X441137Y709328D01*
X443238Y708458D01*
X444846Y706850D01*
X445716Y704749D01*
X445716Y702475D01*
X444846Y700374D01*
X443399Y698927D01*
X443346Y698853D01*
X443286Y698784D01*
X443274Y698754D01*
X443255Y698728D01*
X443228Y698641D01*
X443194Y698556D01*
X443190Y698515D01*
X443183Y698493D01*
X443184Y698460D01*
X443176Y698389D01*
X443176Y692723D01*
X443190Y692633D01*
X443198Y692542D01*
X443210Y692512D01*
X443215Y692480D01*
X443258Y692399D01*
X443294Y692316D01*
X443320Y692283D01*
X443331Y692263D01*
X443354Y692241D01*
X443399Y692185D01*
X444846Y690738D01*
X445716Y688637D01*
X445716Y686363D01*
X444846Y684262D01*
X443238Y682654D01*
X441137Y681784D01*
X438863Y681784D01*
G37*
%LPD*%
%LPC*%
G36*
X255125Y243061D02*
X255125Y243061D01*
X250737Y244879D01*
X247379Y248237D01*
X245561Y252625D01*
X245561Y257375D01*
X247379Y261763D01*
X250737Y265121D01*
X255125Y266939D01*
X259875Y266939D01*
X264263Y265121D01*
X267621Y261763D01*
X269439Y257375D01*
X269439Y252625D01*
X267621Y248237D01*
X264263Y244879D01*
X259875Y243061D01*
X255125Y243061D01*
G37*
%LPD*%
%LPC*%
G36*
X115125Y290561D02*
X115125Y290561D01*
X110737Y292379D01*
X107379Y295737D01*
X105561Y300125D01*
X105561Y304875D01*
X107379Y309263D01*
X110737Y312621D01*
X115125Y314439D01*
X119875Y314439D01*
X124263Y312621D01*
X127621Y309263D01*
X129439Y304875D01*
X129439Y300125D01*
X127621Y295737D01*
X124263Y292379D01*
X119875Y290561D01*
X115125Y290561D01*
G37*
%LPD*%
%LPC*%
G36*
X225125Y503061D02*
X225125Y503061D01*
X220737Y504879D01*
X217379Y508237D01*
X215561Y512625D01*
X215561Y517375D01*
X217379Y521763D01*
X220737Y525121D01*
X225125Y526939D01*
X229875Y526939D01*
X234263Y525121D01*
X237621Y521763D01*
X239439Y517375D01*
X239439Y512625D01*
X237621Y508237D01*
X234263Y504879D01*
X229875Y503061D01*
X225125Y503061D01*
G37*
%LPD*%
%LPC*%
G36*
X848896Y312388D02*
X848896Y312388D01*
X845722Y313703D01*
X843292Y316133D01*
X841977Y319307D01*
X841977Y322743D01*
X843292Y325917D01*
X845722Y328347D01*
X848896Y329662D01*
X864524Y329662D01*
X867698Y328347D01*
X870128Y325917D01*
X871443Y322743D01*
X871443Y319307D01*
X870128Y316133D01*
X867698Y313703D01*
X864524Y312388D01*
X848896Y312388D01*
G37*
%LPD*%
%LPC*%
G36*
X848896Y333978D02*
X848896Y333978D01*
X845722Y335293D01*
X843292Y337723D01*
X841977Y340897D01*
X841977Y344333D01*
X843292Y347507D01*
X845722Y349937D01*
X848896Y351252D01*
X864524Y351252D01*
X867698Y349937D01*
X870128Y347507D01*
X871443Y344333D01*
X871443Y340897D01*
X870128Y337723D01*
X867698Y335293D01*
X864524Y333978D01*
X848896Y333978D01*
G37*
%LPD*%
%LPC*%
G36*
X892076Y420338D02*
X892076Y420338D01*
X888902Y421653D01*
X886472Y424083D01*
X885157Y427257D01*
X885157Y430693D01*
X886472Y433867D01*
X888902Y436297D01*
X892076Y437612D01*
X907704Y437612D01*
X910878Y436297D01*
X913308Y433867D01*
X914623Y430693D01*
X914623Y427257D01*
X913308Y424083D01*
X910878Y421653D01*
X907704Y420338D01*
X892076Y420338D01*
G37*
%LPD*%
%LPC*%
G36*
X892076Y398748D02*
X892076Y398748D01*
X888902Y400063D01*
X886472Y402493D01*
X885157Y405667D01*
X885157Y409103D01*
X886472Y412277D01*
X888902Y414707D01*
X892076Y416022D01*
X907704Y416022D01*
X910878Y414707D01*
X913308Y412277D01*
X914623Y409103D01*
X914623Y405667D01*
X913308Y402493D01*
X910878Y400063D01*
X907704Y398748D01*
X892076Y398748D01*
G37*
%LPD*%
%LPC*%
G36*
X848896Y355568D02*
X848896Y355568D01*
X845722Y356883D01*
X843292Y359313D01*
X841977Y362487D01*
X841977Y365923D01*
X843292Y369097D01*
X845722Y371527D01*
X848896Y372842D01*
X864524Y372842D01*
X867698Y371527D01*
X870128Y369097D01*
X871443Y365923D01*
X871443Y362487D01*
X870128Y359313D01*
X867698Y356883D01*
X864524Y355568D01*
X848896Y355568D01*
G37*
%LPD*%
%LPC*%
G36*
X848896Y398748D02*
X848896Y398748D01*
X845722Y400063D01*
X843292Y402493D01*
X841977Y405667D01*
X841977Y409103D01*
X843292Y412277D01*
X845722Y414707D01*
X848896Y416022D01*
X864524Y416022D01*
X867698Y414707D01*
X870128Y412277D01*
X871443Y409103D01*
X871443Y405667D01*
X870128Y402493D01*
X867698Y400063D01*
X864524Y398748D01*
X848896Y398748D01*
G37*
%LPD*%
%LPC*%
G36*
X848896Y377158D02*
X848896Y377158D01*
X845722Y378473D01*
X843292Y380903D01*
X841977Y384077D01*
X841977Y387513D01*
X843292Y390687D01*
X845722Y393117D01*
X848896Y394432D01*
X864524Y394432D01*
X867698Y393117D01*
X870128Y390687D01*
X871443Y387513D01*
X871443Y384077D01*
X870128Y380903D01*
X867698Y378473D01*
X864524Y377158D01*
X848896Y377158D01*
G37*
%LPD*%
%LPC*%
G36*
X487863Y440172D02*
X487863Y440172D01*
X485762Y441042D01*
X484154Y442650D01*
X483284Y444751D01*
X483284Y447025D01*
X484154Y449126D01*
X485762Y450734D01*
X487863Y451604D01*
X490137Y451604D01*
X492238Y450734D01*
X493573Y449399D01*
X493647Y449346D01*
X493716Y449286D01*
X493746Y449274D01*
X493772Y449255D01*
X493859Y449228D01*
X493944Y449194D01*
X493985Y449190D01*
X494007Y449183D01*
X494040Y449184D01*
X494111Y449176D01*
X519277Y449176D01*
X519367Y449190D01*
X519458Y449198D01*
X519488Y449210D01*
X519520Y449215D01*
X519601Y449258D01*
X519685Y449294D01*
X519717Y449320D01*
X519737Y449331D01*
X519759Y449354D01*
X519815Y449399D01*
X521262Y450846D01*
X523363Y451716D01*
X525637Y451716D01*
X527738Y450846D01*
X529346Y449238D01*
X530216Y447137D01*
X530216Y444863D01*
X529346Y442762D01*
X527738Y441154D01*
X525637Y440284D01*
X523363Y440284D01*
X521262Y441154D01*
X519815Y442601D01*
X519741Y442654D01*
X519672Y442714D01*
X519642Y442726D01*
X519616Y442745D01*
X519529Y442772D01*
X519444Y442806D01*
X519403Y442810D01*
X519381Y442817D01*
X519348Y442816D01*
X519277Y442824D01*
X494335Y442824D01*
X494245Y442810D01*
X494154Y442802D01*
X494124Y442790D01*
X494092Y442785D01*
X494011Y442742D01*
X493927Y442706D01*
X493895Y442680D01*
X493875Y442669D01*
X493853Y442646D01*
X493797Y442601D01*
X492238Y441042D01*
X490137Y440172D01*
X487863Y440172D01*
G37*
%LPD*%
%LPC*%
G36*
X409363Y352784D02*
X409363Y352784D01*
X407262Y353654D01*
X405654Y355262D01*
X404784Y357363D01*
X404784Y359637D01*
X405369Y361049D01*
X405384Y361113D01*
X405409Y361174D01*
X405418Y361257D01*
X405425Y361289D01*
X405424Y361308D01*
X405427Y361341D01*
X405427Y381174D01*
X405413Y381264D01*
X405405Y381355D01*
X405393Y381385D01*
X405388Y381417D01*
X405345Y381498D01*
X405309Y381581D01*
X405283Y381614D01*
X405272Y381634D01*
X405249Y381656D01*
X405204Y381712D01*
X405154Y381762D01*
X404284Y383863D01*
X404284Y386137D01*
X405154Y388238D01*
X406762Y389846D01*
X408863Y390716D01*
X411137Y390716D01*
X413238Y389846D01*
X414846Y388238D01*
X415716Y386137D01*
X415716Y383863D01*
X414846Y381762D01*
X414796Y381712D01*
X414743Y381638D01*
X414683Y381569D01*
X414671Y381539D01*
X414652Y381513D01*
X414625Y381426D01*
X414591Y381341D01*
X414587Y381300D01*
X414580Y381278D01*
X414581Y381245D01*
X414573Y381174D01*
X414573Y362826D01*
X414587Y362736D01*
X414595Y362645D01*
X414607Y362615D01*
X414612Y362583D01*
X414655Y362502D01*
X414691Y362419D01*
X414717Y362386D01*
X414728Y362366D01*
X414751Y362344D01*
X414796Y362288D01*
X415346Y361738D01*
X416216Y359637D01*
X416216Y357363D01*
X415346Y355262D01*
X413738Y353654D01*
X411637Y352784D01*
X409363Y352784D01*
G37*
%LPD*%
%LPC*%
G36*
X595953Y55909D02*
X595953Y55909D01*
X592171Y57476D01*
X589276Y60371D01*
X587709Y64153D01*
X587709Y68247D01*
X589276Y72029D01*
X592171Y74924D01*
X595953Y76491D01*
X600047Y76491D01*
X603829Y74924D01*
X606724Y72029D01*
X608291Y68247D01*
X608291Y64153D01*
X606724Y60371D01*
X603829Y57476D01*
X600047Y55909D01*
X595953Y55909D01*
G37*
%LPD*%
%LPC*%
G36*
X353353Y55909D02*
X353353Y55909D01*
X349571Y57476D01*
X346676Y60371D01*
X345109Y64153D01*
X345109Y68247D01*
X346676Y72029D01*
X349571Y74924D01*
X353353Y76491D01*
X357447Y76491D01*
X361229Y74924D01*
X364124Y72029D01*
X365691Y68247D01*
X365691Y64153D01*
X364124Y60371D01*
X361229Y57476D01*
X357447Y55909D01*
X353353Y55909D01*
G37*
%LPD*%
%LPC*%
G36*
X310394Y255439D02*
X310394Y255439D01*
X308350Y256286D01*
X306786Y257850D01*
X305919Y259944D01*
X305917Y259960D01*
X305905Y259989D01*
X305900Y260021D01*
X305857Y260102D01*
X305821Y260186D01*
X305795Y260218D01*
X305784Y260239D01*
X305761Y260261D01*
X305716Y260317D01*
X297927Y268106D01*
X297927Y273393D01*
X297912Y273484D01*
X297905Y273575D01*
X297893Y273604D01*
X297888Y273636D01*
X297845Y273717D01*
X297809Y273801D01*
X297803Y273808D01*
X296939Y275894D01*
X296939Y278106D01*
X297786Y280150D01*
X299350Y281714D01*
X301394Y282561D01*
X303606Y282561D01*
X305650Y281714D01*
X307214Y280150D01*
X308061Y278106D01*
X308061Y275894D01*
X307194Y273800D01*
X307183Y273788D01*
X307171Y273758D01*
X307152Y273732D01*
X307125Y273645D01*
X307091Y273560D01*
X307087Y273520D01*
X307080Y273497D01*
X307081Y273465D01*
X307073Y273393D01*
X307073Y272209D01*
X307087Y272119D01*
X307095Y272028D01*
X307107Y271999D01*
X307112Y271967D01*
X307136Y271922D01*
X307137Y271919D01*
X307146Y271903D01*
X307155Y271886D01*
X307191Y271802D01*
X307217Y271770D01*
X307228Y271749D01*
X307251Y271727D01*
X307253Y271725D01*
X307263Y271708D01*
X307274Y271698D01*
X307296Y271671D01*
X312183Y266784D01*
X312257Y266731D01*
X312327Y266671D01*
X312357Y266659D01*
X312383Y266640D01*
X312470Y266613D01*
X312555Y266579D01*
X312564Y266578D01*
X314650Y265714D01*
X316214Y264150D01*
X317061Y262106D01*
X317061Y259894D01*
X316214Y257850D01*
X314650Y256286D01*
X312606Y255439D01*
X310394Y255439D01*
G37*
%LPD*%
%LPC*%
G36*
X148863Y260784D02*
X148863Y260784D01*
X146762Y261654D01*
X145154Y263262D01*
X144284Y265363D01*
X144284Y267637D01*
X144861Y269030D01*
X144876Y269094D01*
X144901Y269155D01*
X144910Y269237D01*
X144917Y269270D01*
X144916Y269289D01*
X144919Y269321D01*
X144919Y277179D01*
X144909Y277243D01*
X144908Y277309D01*
X144885Y277389D01*
X144880Y277421D01*
X144870Y277439D01*
X144861Y277470D01*
X144284Y278863D01*
X144284Y281137D01*
X145154Y283238D01*
X146762Y284846D01*
X148863Y285716D01*
X151137Y285716D01*
X153238Y284846D01*
X154846Y283238D01*
X155716Y281137D01*
X155716Y278863D01*
X155139Y277470D01*
X155124Y277406D01*
X155099Y277345D01*
X155090Y277263D01*
X155083Y277230D01*
X155084Y277211D01*
X155081Y277179D01*
X155081Y269321D01*
X155091Y269257D01*
X155092Y269191D01*
X155115Y269111D01*
X155120Y269079D01*
X155130Y269061D01*
X155139Y269030D01*
X155716Y267637D01*
X155716Y265363D01*
X154846Y263262D01*
X153238Y261654D01*
X151137Y260784D01*
X148863Y260784D01*
G37*
%LPD*%
%LPC*%
G36*
X575394Y402939D02*
X575394Y402939D01*
X573350Y403786D01*
X572035Y405101D01*
X571961Y405154D01*
X571891Y405214D01*
X571861Y405226D01*
X571835Y405245D01*
X571748Y405272D01*
X571663Y405306D01*
X571622Y405310D01*
X571600Y405317D01*
X571568Y405316D01*
X571496Y405324D01*
X568004Y405324D01*
X567914Y405310D01*
X567823Y405302D01*
X567793Y405290D01*
X567761Y405285D01*
X567680Y405242D01*
X567596Y405206D01*
X567564Y405180D01*
X567543Y405169D01*
X567521Y405146D01*
X567465Y405101D01*
X566650Y404286D01*
X564606Y403439D01*
X562394Y403439D01*
X560350Y404286D01*
X558786Y405850D01*
X557939Y407894D01*
X557939Y410106D01*
X558786Y412150D01*
X560350Y413714D01*
X562394Y414561D01*
X564606Y414561D01*
X566650Y413714D01*
X568214Y412150D01*
X568216Y412146D01*
X568277Y412047D01*
X568337Y411946D01*
X568342Y411942D01*
X568345Y411937D01*
X568435Y411862D01*
X568524Y411786D01*
X568530Y411784D01*
X568535Y411780D01*
X568643Y411738D01*
X568752Y411694D01*
X568760Y411693D01*
X568765Y411692D01*
X568783Y411691D01*
X568919Y411676D01*
X571496Y411676D01*
X571586Y411690D01*
X571677Y411698D01*
X571707Y411710D01*
X571739Y411715D01*
X571820Y411758D01*
X571904Y411794D01*
X571936Y411820D01*
X571956Y411831D01*
X571979Y411854D01*
X572035Y411899D01*
X573350Y413214D01*
X575394Y414061D01*
X577606Y414061D01*
X579650Y413214D01*
X581214Y411650D01*
X582061Y409606D01*
X582061Y407394D01*
X581214Y405350D01*
X579650Y403786D01*
X577606Y402939D01*
X575394Y402939D01*
G37*
%LPD*%
%LPC*%
G36*
X659130Y190911D02*
X659130Y190911D01*
X657087Y191758D01*
X655743Y193101D01*
X655669Y193154D01*
X655600Y193214D01*
X655570Y193226D01*
X655543Y193245D01*
X655456Y193272D01*
X655372Y193306D01*
X655331Y193310D01*
X655308Y193317D01*
X655276Y193316D01*
X655205Y193324D01*
X653004Y193324D01*
X652914Y193310D01*
X652823Y193302D01*
X652793Y193290D01*
X652761Y193285D01*
X652680Y193242D01*
X652596Y193206D01*
X652564Y193180D01*
X652543Y193169D01*
X652521Y193146D01*
X652465Y193101D01*
X651150Y191786D01*
X649106Y190939D01*
X646894Y190939D01*
X644850Y191786D01*
X643286Y193350D01*
X642439Y195394D01*
X642439Y197606D01*
X643286Y199650D01*
X644850Y201214D01*
X646894Y202061D01*
X649106Y202061D01*
X651150Y201214D01*
X652465Y199899D01*
X652539Y199846D01*
X652609Y199786D01*
X652639Y199774D01*
X652665Y199755D01*
X652752Y199728D01*
X652837Y199694D01*
X652878Y199690D01*
X652900Y199683D01*
X652932Y199684D01*
X653004Y199676D01*
X655261Y199676D01*
X655351Y199690D01*
X655442Y199698D01*
X655472Y199710D01*
X655504Y199715D01*
X655584Y199758D01*
X655668Y199794D01*
X655700Y199820D01*
X655721Y199831D01*
X655743Y199854D01*
X655799Y199899D01*
X657087Y201186D01*
X659130Y202033D01*
X661343Y202033D01*
X663386Y201186D01*
X664951Y199622D01*
X665797Y197578D01*
X665797Y195366D01*
X664951Y193322D01*
X663386Y191758D01*
X661343Y190911D01*
X659130Y190911D01*
G37*
%LPD*%
G36*
X720042Y361873D02*
X720042Y361873D01*
X720084Y361871D01*
X720151Y361893D01*
X720221Y361905D01*
X720257Y361927D01*
X720298Y361940D01*
X720371Y361994D01*
X720414Y362020D01*
X720427Y362036D01*
X720448Y362052D01*
X725448Y367052D01*
X725473Y367086D01*
X725504Y367115D01*
X725536Y367178D01*
X725577Y367236D01*
X725587Y367277D01*
X725607Y367315D01*
X725620Y367404D01*
X725633Y367453D01*
X725630Y367474D01*
X725634Y367500D01*
X725634Y372500D01*
X725627Y372542D01*
X725629Y372584D01*
X725607Y372651D01*
X725595Y372721D01*
X725573Y372757D01*
X725560Y372798D01*
X725506Y372871D01*
X725480Y372914D01*
X725464Y372927D01*
X725448Y372948D01*
X720448Y377948D01*
X720414Y377973D01*
X720385Y378004D01*
X720322Y378036D01*
X720264Y378077D01*
X720223Y378087D01*
X720185Y378107D01*
X720096Y378120D01*
X720047Y378133D01*
X720026Y378130D01*
X720000Y378134D01*
X717500Y378134D01*
X717458Y378127D01*
X717416Y378129D01*
X717349Y378107D01*
X717279Y378095D01*
X717243Y378073D01*
X717202Y378060D01*
X717129Y378006D01*
X717086Y377980D01*
X717073Y377964D01*
X717052Y377948D01*
X712052Y372948D01*
X712027Y372914D01*
X711996Y372885D01*
X711964Y372822D01*
X711923Y372764D01*
X711913Y372723D01*
X711893Y372685D01*
X711880Y372596D01*
X711868Y372547D01*
X711870Y372526D01*
X711866Y372500D01*
X711866Y367500D01*
X711873Y367458D01*
X711871Y367416D01*
X711893Y367349D01*
X711905Y367279D01*
X711927Y367243D01*
X711940Y367202D01*
X711994Y367129D01*
X712020Y367086D01*
X712036Y367073D01*
X712052Y367052D01*
X717052Y362052D01*
X717086Y362027D01*
X717115Y361996D01*
X717178Y361964D01*
X717236Y361923D01*
X717277Y361913D01*
X717315Y361893D01*
X717404Y361880D01*
X717453Y361868D01*
X717474Y361870D01*
X717500Y361866D01*
X720000Y361866D01*
X720042Y361873D01*
G37*
%LPC*%
G36*
X53600Y138459D02*
X53600Y138459D01*
X51012Y139531D01*
X49031Y141512D01*
X47959Y144100D01*
X47959Y146900D01*
X49031Y149488D01*
X51012Y151469D01*
X53600Y152541D01*
X56400Y152541D01*
X58988Y151469D01*
X60969Y149488D01*
X62041Y146900D01*
X62041Y144100D01*
X60969Y141512D01*
X58988Y139531D01*
X56400Y138459D01*
X53600Y138459D01*
G37*
%LPD*%
%LPC*%
G36*
X53600Y182459D02*
X53600Y182459D01*
X51012Y183531D01*
X49031Y185512D01*
X47959Y188100D01*
X47959Y190900D01*
X49031Y193488D01*
X51012Y195469D01*
X53600Y196541D01*
X56400Y196541D01*
X58988Y195469D01*
X60969Y193488D01*
X62041Y190900D01*
X62041Y188100D01*
X60969Y185512D01*
X58988Y183531D01*
X56400Y182459D01*
X53600Y182459D01*
G37*
%LPD*%
%LPC*%
G36*
X901413Y365728D02*
X901413Y365728D01*
X901413Y372842D01*
X906837Y372842D01*
X908505Y372510D01*
X910077Y371859D01*
X911492Y370914D01*
X912695Y369711D01*
X913640Y368296D01*
X914291Y366724D01*
X914489Y365728D01*
X901413Y365728D01*
G37*
%LPD*%
%LPC*%
G36*
X858233Y257778D02*
X858233Y257778D01*
X858233Y264892D01*
X863657Y264892D01*
X865325Y264560D01*
X866897Y263909D01*
X868312Y262964D01*
X869515Y261761D01*
X870460Y260346D01*
X871111Y258774D01*
X871309Y257778D01*
X858233Y257778D01*
G37*
%LPD*%
%LPC*%
G36*
X901413Y257778D02*
X901413Y257778D01*
X901413Y264892D01*
X906837Y264892D01*
X908505Y264560D01*
X910077Y263909D01*
X911492Y262964D01*
X912695Y261761D01*
X913640Y260346D01*
X914291Y258774D01*
X914489Y257778D01*
X901413Y257778D01*
G37*
%LPD*%
%LPC*%
G36*
X901413Y322548D02*
X901413Y322548D01*
X901413Y329662D01*
X906837Y329662D01*
X908505Y329330D01*
X910077Y328679D01*
X911492Y327734D01*
X912695Y326531D01*
X913640Y325116D01*
X914291Y323544D01*
X914489Y322548D01*
X901413Y322548D01*
G37*
%LPD*%
%LPC*%
G36*
X901413Y344138D02*
X901413Y344138D01*
X901413Y351252D01*
X906837Y351252D01*
X908505Y350920D01*
X910077Y350269D01*
X911492Y349324D01*
X912695Y348121D01*
X913640Y346706D01*
X914291Y345134D01*
X914489Y344138D01*
X901413Y344138D01*
G37*
%LPD*%
%LPC*%
G36*
X901413Y300958D02*
X901413Y300958D01*
X901413Y308072D01*
X906837Y308072D01*
X908505Y307740D01*
X910077Y307089D01*
X911492Y306144D01*
X912695Y304941D01*
X913640Y303526D01*
X914291Y301954D01*
X914489Y300958D01*
X901413Y300958D01*
G37*
%LPD*%
%LPC*%
G36*
X901413Y387318D02*
X901413Y387318D01*
X901413Y394432D01*
X906837Y394432D01*
X908505Y394100D01*
X910077Y393449D01*
X911492Y392504D01*
X912695Y391301D01*
X913640Y389886D01*
X914291Y388314D01*
X914489Y387318D01*
X901413Y387318D01*
G37*
%LPD*%
%LPC*%
G36*
X901413Y279368D02*
X901413Y279368D01*
X901413Y286482D01*
X906837Y286482D01*
X908505Y286150D01*
X910077Y285499D01*
X911492Y284554D01*
X912695Y283351D01*
X913640Y281936D01*
X914291Y280364D01*
X914489Y279368D01*
X901413Y279368D01*
G37*
%LPD*%
%LPC*%
G36*
X885291Y365728D02*
X885291Y365728D01*
X885489Y366724D01*
X886140Y368296D01*
X887085Y369711D01*
X888288Y370914D01*
X889703Y371859D01*
X891275Y372510D01*
X892943Y372842D01*
X898367Y372842D01*
X898367Y365728D01*
X885291Y365728D01*
G37*
%LPD*%
%LPC*%
G36*
X885291Y387318D02*
X885291Y387318D01*
X885489Y388314D01*
X886140Y389886D01*
X887085Y391301D01*
X888288Y392504D01*
X889703Y393449D01*
X891275Y394100D01*
X892943Y394432D01*
X898367Y394432D01*
X898367Y387318D01*
X885291Y387318D01*
G37*
%LPD*%
%LPC*%
G36*
X885291Y344138D02*
X885291Y344138D01*
X885489Y345134D01*
X886140Y346706D01*
X887085Y348121D01*
X888288Y349324D01*
X889703Y350269D01*
X891275Y350920D01*
X892943Y351252D01*
X898367Y351252D01*
X898367Y344138D01*
X885291Y344138D01*
G37*
%LPD*%
%LPC*%
G36*
X885291Y322548D02*
X885291Y322548D01*
X885489Y323544D01*
X886140Y325116D01*
X887085Y326531D01*
X888288Y327734D01*
X889703Y328679D01*
X891275Y329330D01*
X892943Y329662D01*
X898367Y329662D01*
X898367Y322548D01*
X885291Y322548D01*
G37*
%LPD*%
%LPC*%
G36*
X885291Y257778D02*
X885291Y257778D01*
X885489Y258774D01*
X886140Y260346D01*
X887085Y261761D01*
X888288Y262964D01*
X889703Y263909D01*
X891275Y264560D01*
X892943Y264892D01*
X898367Y264892D01*
X898367Y257778D01*
X885291Y257778D01*
G37*
%LPD*%
%LPC*%
G36*
X842111Y257778D02*
X842111Y257778D01*
X842309Y258774D01*
X842960Y260346D01*
X843905Y261761D01*
X845108Y262964D01*
X846523Y263909D01*
X848095Y264560D01*
X849763Y264892D01*
X855187Y264892D01*
X855187Y257778D01*
X842111Y257778D01*
G37*
%LPD*%
%LPC*%
G36*
X885291Y279368D02*
X885291Y279368D01*
X885489Y280364D01*
X886140Y281936D01*
X887085Y283351D01*
X888288Y284554D01*
X889703Y285499D01*
X891275Y286150D01*
X892943Y286482D01*
X898367Y286482D01*
X898367Y279368D01*
X885291Y279368D01*
G37*
%LPD*%
%LPC*%
G36*
X885291Y300958D02*
X885291Y300958D01*
X885489Y301954D01*
X886140Y303526D01*
X887085Y304941D01*
X888288Y306144D01*
X889703Y307089D01*
X891275Y307740D01*
X892943Y308072D01*
X898367Y308072D01*
X898367Y300958D01*
X885291Y300958D01*
G37*
%LPD*%
%LPC*%
G36*
X901413Y290798D02*
X901413Y290798D01*
X901413Y297912D01*
X914489Y297912D01*
X914291Y296916D01*
X913640Y295344D01*
X912695Y293929D01*
X911492Y292726D01*
X910077Y291781D01*
X908505Y291130D01*
X906837Y290798D01*
X901413Y290798D01*
G37*
%LPD*%
%LPC*%
G36*
X901413Y377158D02*
X901413Y377158D01*
X901413Y384272D01*
X914489Y384272D01*
X914291Y383276D01*
X913640Y381704D01*
X912695Y380289D01*
X911492Y379086D01*
X910077Y378141D01*
X908505Y377490D01*
X906837Y377158D01*
X901413Y377158D01*
G37*
%LPD*%
%LPC*%
G36*
X901413Y269208D02*
X901413Y269208D01*
X901413Y276322D01*
X914489Y276322D01*
X914291Y275326D01*
X913640Y273754D01*
X912695Y272339D01*
X911492Y271136D01*
X910077Y270191D01*
X908505Y269540D01*
X906837Y269208D01*
X901413Y269208D01*
G37*
%LPD*%
%LPC*%
G36*
X901413Y247618D02*
X901413Y247618D01*
X901413Y254732D01*
X914489Y254732D01*
X914291Y253736D01*
X913640Y252164D01*
X912695Y250749D01*
X911492Y249546D01*
X910077Y248601D01*
X908505Y247950D01*
X906837Y247618D01*
X901413Y247618D01*
G37*
%LPD*%
%LPC*%
G36*
X901413Y312388D02*
X901413Y312388D01*
X901413Y319502D01*
X914489Y319502D01*
X914291Y318506D01*
X913640Y316934D01*
X912695Y315519D01*
X911492Y314316D01*
X910077Y313371D01*
X908505Y312720D01*
X906837Y312388D01*
X901413Y312388D01*
G37*
%LPD*%
%LPC*%
G36*
X901413Y355568D02*
X901413Y355568D01*
X901413Y362682D01*
X914489Y362682D01*
X914291Y361686D01*
X913640Y360114D01*
X912695Y358699D01*
X911492Y357496D01*
X910077Y356551D01*
X908505Y355900D01*
X906837Y355568D01*
X901413Y355568D01*
G37*
%LPD*%
%LPC*%
G36*
X901413Y333978D02*
X901413Y333978D01*
X901413Y341092D01*
X914489Y341092D01*
X914291Y340096D01*
X913640Y338524D01*
X912695Y337109D01*
X911492Y335906D01*
X910077Y334961D01*
X908505Y334310D01*
X906837Y333978D01*
X901413Y333978D01*
G37*
%LPD*%
%LPC*%
G36*
X858233Y247618D02*
X858233Y247618D01*
X858233Y254732D01*
X871309Y254732D01*
X871111Y253736D01*
X870460Y252164D01*
X869515Y250749D01*
X868312Y249546D01*
X866897Y248601D01*
X865325Y247950D01*
X863657Y247618D01*
X858233Y247618D01*
G37*
%LPD*%
%LPC*%
G36*
X892943Y269208D02*
X892943Y269208D01*
X891275Y269540D01*
X889703Y270191D01*
X888288Y271136D01*
X887085Y272339D01*
X886140Y273754D01*
X885489Y275326D01*
X885291Y276322D01*
X898367Y276322D01*
X898367Y269208D01*
X892943Y269208D01*
G37*
%LPD*%
%LPC*%
G36*
X892943Y290798D02*
X892943Y290798D01*
X891275Y291130D01*
X889703Y291781D01*
X888288Y292726D01*
X887085Y293929D01*
X886140Y295344D01*
X885489Y296916D01*
X885291Y297912D01*
X898367Y297912D01*
X898367Y290798D01*
X892943Y290798D01*
G37*
%LPD*%
%LPC*%
G36*
X892943Y333978D02*
X892943Y333978D01*
X891275Y334310D01*
X889703Y334961D01*
X888288Y335906D01*
X887085Y337109D01*
X886140Y338524D01*
X885489Y340096D01*
X885291Y341092D01*
X898367Y341092D01*
X898367Y333978D01*
X892943Y333978D01*
G37*
%LPD*%
%LPC*%
G36*
X892943Y247618D02*
X892943Y247618D01*
X891275Y247950D01*
X889703Y248601D01*
X888288Y249546D01*
X887085Y250749D01*
X886140Y252164D01*
X885489Y253736D01*
X885291Y254732D01*
X898367Y254732D01*
X898367Y247618D01*
X892943Y247618D01*
G37*
%LPD*%
%LPC*%
G36*
X892943Y312388D02*
X892943Y312388D01*
X891275Y312720D01*
X889703Y313371D01*
X888288Y314316D01*
X887085Y315519D01*
X886140Y316934D01*
X885489Y318506D01*
X885291Y319502D01*
X898367Y319502D01*
X898367Y312388D01*
X892943Y312388D01*
G37*
%LPD*%
%LPC*%
G36*
X849763Y247618D02*
X849763Y247618D01*
X848095Y247950D01*
X846523Y248601D01*
X845108Y249546D01*
X843905Y250749D01*
X842960Y252164D01*
X842309Y253736D01*
X842111Y254732D01*
X855187Y254732D01*
X855187Y247618D01*
X849763Y247618D01*
G37*
%LPD*%
%LPC*%
G36*
X892943Y355568D02*
X892943Y355568D01*
X891275Y355900D01*
X889703Y356551D01*
X888288Y357496D01*
X887085Y358699D01*
X886140Y360114D01*
X885489Y361686D01*
X885291Y362682D01*
X898367Y362682D01*
X898367Y355568D01*
X892943Y355568D01*
G37*
%LPD*%
%LPC*%
G36*
X892943Y377158D02*
X892943Y377158D01*
X891275Y377490D01*
X889703Y378141D01*
X888288Y379086D01*
X887085Y380289D01*
X886140Y381704D01*
X885489Y383276D01*
X885291Y384272D01*
X898367Y384272D01*
X898367Y377158D01*
X892943Y377158D01*
G37*
%LPD*%
%LPC*%
G36*
X124023Y684023D02*
X124023Y684023D01*
X124023Y694346D01*
X125296Y694145D01*
X127083Y693564D01*
X128757Y692711D01*
X130278Y691606D01*
X131606Y690278D01*
X132711Y688757D01*
X133564Y687083D01*
X134145Y685296D01*
X134346Y684023D01*
X124023Y684023D01*
G37*
%LPD*%
%LPC*%
G36*
X110654Y684023D02*
X110654Y684023D01*
X110855Y685296D01*
X111436Y687083D01*
X112289Y688757D01*
X113394Y690278D01*
X114722Y691606D01*
X116243Y692711D01*
X117917Y693564D01*
X119704Y694145D01*
X120977Y694346D01*
X120977Y684023D01*
X110654Y684023D01*
G37*
%LPD*%
%LPC*%
G36*
X124023Y680977D02*
X124023Y680977D01*
X134346Y680977D01*
X134145Y679704D01*
X133564Y677917D01*
X132711Y676243D01*
X131606Y674722D01*
X130278Y673394D01*
X128757Y672289D01*
X127083Y671436D01*
X125296Y670855D01*
X124023Y670654D01*
X124023Y680977D01*
G37*
%LPD*%
%LPC*%
G36*
X119704Y670855D02*
X119704Y670855D01*
X117917Y671436D01*
X116243Y672289D01*
X114722Y673394D01*
X113394Y674722D01*
X112289Y676243D01*
X111436Y677917D01*
X110855Y679704D01*
X110654Y680977D01*
X120977Y680977D01*
X120977Y670654D01*
X119704Y670855D01*
G37*
%LPD*%
%LPC*%
G36*
X878299Y141065D02*
X878299Y141065D01*
X878299Y141067D01*
X878301Y141067D01*
X878301Y141065D01*
X878299Y141065D01*
G37*
%LPD*%
%LPC*%
G36*
X856709Y256254D02*
X856709Y256254D01*
X856709Y256256D01*
X856711Y256256D01*
X856711Y256254D01*
X856709Y256254D01*
G37*
%LPD*%
%LPC*%
G36*
X899889Y256254D02*
X899889Y256254D01*
X899889Y256256D01*
X899891Y256256D01*
X899891Y256254D01*
X899889Y256254D01*
G37*
%LPD*%
%LPC*%
G36*
X899889Y277844D02*
X899889Y277844D01*
X899889Y277846D01*
X899891Y277846D01*
X899891Y277844D01*
X899889Y277844D01*
G37*
%LPD*%
%LPC*%
G36*
X899889Y299434D02*
X899889Y299434D01*
X899889Y299436D01*
X899891Y299436D01*
X899891Y299434D01*
X899889Y299434D01*
G37*
%LPD*%
%LPC*%
G36*
X122499Y682499D02*
X122499Y682499D01*
X122499Y682501D01*
X122501Y682501D01*
X122501Y682499D01*
X122499Y682499D01*
G37*
%LPD*%
%LPC*%
G36*
X899889Y321024D02*
X899889Y321024D01*
X899889Y321026D01*
X899891Y321026D01*
X899891Y321024D01*
X899889Y321024D01*
G37*
%LPD*%
%LPC*%
G36*
X899889Y364204D02*
X899889Y364204D01*
X899889Y364206D01*
X899891Y364206D01*
X899891Y364204D01*
X899889Y364204D01*
G37*
%LPD*%
%LPC*%
G36*
X899889Y385794D02*
X899889Y385794D01*
X899889Y385796D01*
X899891Y385796D01*
X899891Y385794D01*
X899889Y385794D01*
G37*
%LPD*%
%LPC*%
G36*
X49999Y49999D02*
X49999Y49999D01*
X49999Y50001D01*
X50001Y50001D01*
X50001Y49999D01*
X49999Y49999D01*
G37*
%LPD*%
%LPC*%
G36*
X949999Y49999D02*
X949999Y49999D01*
X949999Y50001D01*
X950001Y50001D01*
X950001Y49999D01*
X949999Y49999D01*
G37*
%LPD*%
%LPC*%
G36*
X949999Y699999D02*
X949999Y699999D01*
X949999Y700001D01*
X950001Y700001D01*
X950001Y699999D01*
X949999Y699999D01*
G37*
%LPD*%
%LPC*%
G36*
X49999Y699999D02*
X49999Y699999D01*
X49999Y700001D01*
X50001Y700001D01*
X50001Y699999D01*
X49999Y699999D01*
G37*
%LPD*%
%LPC*%
G36*
X878299Y608933D02*
X878299Y608933D01*
X878299Y608935D01*
X878301Y608935D01*
X878301Y608933D01*
X878299Y608933D01*
G37*
%LPD*%
%LPC*%
G36*
X899889Y342614D02*
X899889Y342614D01*
X899889Y342616D01*
X899891Y342616D01*
X899891Y342614D01*
X899889Y342614D01*
G37*
%LPD*%
D10*
X850614Y493745D02*
X862806Y493745D01*
X862806Y472155D02*
X850614Y472155D01*
X850614Y450565D02*
X862806Y450565D01*
X862806Y428975D02*
X850614Y428975D01*
X850614Y407385D02*
X862806Y407385D01*
X862806Y385795D02*
X850614Y385795D01*
X850614Y364205D02*
X862806Y364205D01*
X862806Y342615D02*
X850614Y342615D01*
X850614Y321025D02*
X862806Y321025D01*
X862806Y299435D02*
X850614Y299435D01*
X850614Y277845D02*
X862806Y277845D01*
X862806Y256255D02*
X850614Y256255D01*
X893794Y493745D02*
X905986Y493745D01*
X905986Y472155D02*
X893794Y472155D01*
X893794Y450565D02*
X905986Y450565D01*
X905986Y428975D02*
X893794Y428975D01*
X893794Y407385D02*
X905986Y407385D01*
X905986Y385795D02*
X893794Y385795D01*
X893794Y364205D02*
X905986Y364205D01*
X905986Y342615D02*
X893794Y342615D01*
X893794Y321025D02*
X905986Y321025D01*
X905986Y299435D02*
X893794Y299435D01*
X893794Y277845D02*
X905986Y277845D01*
X905986Y256255D02*
X893794Y256255D01*
D11*
X878300Y608934D03*
X878300Y141066D03*
D12*
X50000Y50000D03*
X950000Y50000D03*
X950000Y700000D03*
X50000Y700000D03*
D13*
X227500Y515000D03*
X117500Y302500D03*
X257500Y255000D03*
X122500Y682500D03*
D14*
X635000Y429900D03*
X635000Y442600D03*
X635000Y455300D03*
X635000Y468000D03*
D15*
X458000Y606000D03*
D16*
X458000Y605500D01*
X369500Y605500D01*
X369000Y605000D01*
D15*
X369000Y605000D03*
X451000Y610500D03*
D16*
X377500Y610500D01*
X376000Y612000D01*
D15*
X372750Y611989D03*
D16*
X372761Y612000D01*
X376000Y612000D01*
D15*
X431000Y690388D03*
X431500Y704000D03*
D16*
X431500Y690888D01*
X431000Y690388D01*
D15*
X150000Y280000D03*
D17*
X150000Y266500D01*
D15*
X150000Y266500D03*
X387500Y630000D03*
D18*
X387000Y629500D01*
X257500Y629500D01*
D15*
X257500Y629500D03*
X565500Y640000D03*
D19*
X508000Y697500D02*
X507473Y697500D01*
D15*
X507473Y697500D03*
X282500Y504500D03*
X555000Y525000D03*
D20*
X554500Y524500D01*
X497000Y524500D01*
X477000Y504500D01*
X282500Y504500D01*
X555000Y525000D02*
X560000Y525000D01*
D15*
X290000Y492500D03*
D20*
X480000Y492500D02*
X502500Y515000D01*
X480000Y492500D02*
X290000Y492500D01*
X282500Y480500D02*
X459500Y480500D01*
D15*
X282500Y480500D03*
X542500Y525000D03*
D20*
X665548Y529453D02*
X715000Y480000D01*
X661298Y525203D02*
X659000Y527500D01*
X715000Y480000D02*
X715000Y370000D01*
X715500Y369500D02*
X715500Y183500D01*
D15*
X717000Y170500D03*
X720000Y370000D03*
D20*
X715500Y183500D02*
X715500Y182500D01*
D15*
X637500Y499500D03*
X275000Y492500D03*
X532500Y525000D03*
D20*
X556095Y523905D02*
X660000Y523905D01*
X556095Y523905D02*
X555000Y525000D01*
D21*
X601000Y709000D03*
D22*
X600000Y708500D02*
X600000Y662500D01*
X588500Y651000D01*
X577500Y640000D01*
X565500Y640000D01*
D21*
X618000Y709000D03*
D22*
X518473Y708500D02*
X507473Y697500D01*
X518473Y708500D02*
X600000Y708500D01*
D18*
X665548Y529453D02*
X661298Y525203D01*
X665548Y529453D02*
X669000Y532905D01*
D22*
X669000Y557500D01*
X588500Y638000D01*
X588500Y651000D01*
X601000Y709000D02*
X618000Y709000D01*
D18*
X502500Y519000D02*
X502500Y515000D01*
X502500Y519000D02*
X497000Y524500D01*
X600500Y708500D02*
X601000Y709000D01*
X600500Y708500D02*
X600000Y708500D01*
X659000Y527500D02*
X647500Y516000D01*
X647500Y509500D01*
X637500Y499500D01*
D16*
X715000Y370000D02*
X720000Y370000D01*
D21*
X715500Y182500D03*
D20*
X715500Y183500D02*
X717200Y171000D01*
D15*
X540500Y441500D03*
X431000Y561500D03*
X525500Y637000D03*
X580000Y550000D03*
D19*
X567500Y550000D01*
D15*
X550000Y510500D03*
D19*
X545500Y510500D01*
X540500Y505500D01*
D15*
X540000Y590000D03*
X501000Y569500D03*
X632000Y512500D03*
D19*
X631500Y513000D01*
X623500Y513000D01*
D15*
X746000Y191000D03*
D19*
X746000Y150500D02*
X749000Y147500D01*
X746000Y150500D02*
X746000Y191000D01*
X749000Y147566D02*
X749000Y147500D01*
D15*
X392500Y546000D03*
X503500Y325000D03*
D19*
X460000Y325000D01*
D15*
X422000Y325500D03*
D19*
X460000Y325500D01*
D15*
X460000Y363500D03*
D19*
X460000Y325500D01*
X460000Y325000D01*
D15*
X410000Y430000D03*
D23*
X372500Y467500D01*
X370000Y467500D01*
D15*
X284500Y338500D03*
X42500Y509905D03*
D20*
X104905Y509905D01*
X105000Y510000D01*
D15*
X105000Y510000D03*
X117500Y430000D03*
X230000Y430000D03*
D20*
X117500Y430000D01*
D15*
X175000Y285000D03*
X219500Y327000D03*
X302500Y87500D03*
X122500Y96500D03*
D23*
X91000Y96500D01*
D15*
X30000Y235000D03*
D23*
X17500Y222500D01*
X17500Y115000D01*
X30000Y102500D01*
D15*
X30000Y102500D03*
X85000Y235000D03*
D23*
X85000Y102500D01*
D15*
X85000Y102500D03*
X322500Y87500D03*
D18*
X610000Y87500D01*
X640000Y87500D01*
X652500Y100000D01*
D15*
X652500Y100000D03*
X167500Y715000D03*
D19*
X167500Y657500D01*
D15*
X167500Y657500D03*
X290000Y682500D03*
D19*
X265000Y657500D01*
X167500Y657500D01*
D15*
X340000Y655000D03*
D23*
X312500Y682500D01*
X290000Y682500D01*
D15*
X514927Y657718D03*
D19*
X514927Y652073D01*
X525500Y641500D02*
X525500Y637000D01*
X525500Y641500D02*
X514927Y652073D01*
D15*
X500000Y550000D03*
X514500Y510500D03*
X529000Y569500D03*
X568000Y550000D03*
X574500Y510500D03*
X580500Y590000D03*
X594500Y611000D03*
X781000Y318500D03*
D19*
X781000Y326500D01*
X777500Y330000D01*
D15*
X772500Y492500D03*
X745500Y366000D03*
D23*
X878300Y254200D02*
X878300Y141066D01*
X878300Y254200D02*
X878300Y256200D01*
X877500Y255000D02*
X878300Y254200D01*
D15*
X728500Y341000D03*
X704500Y347000D03*
X432500Y630000D03*
X432500Y597500D03*
X308500Y642500D03*
X308500Y619000D03*
X368500Y517500D03*
X368500Y467500D03*
D24*
X747000Y190000D02*
X789500Y190000D01*
X747000Y190000D02*
X746000Y191000D01*
X855755Y256255D02*
X856710Y256255D01*
X855755Y256255D02*
X789500Y190000D01*
X781000Y318500D02*
X773500Y318500D01*
X765500Y310500D01*
X777500Y330000D02*
X739500Y330000D01*
X728500Y341000D01*
X704500Y347000D02*
X696500Y355000D01*
X695500Y355000D01*
X623500Y513000D02*
X577000Y513000D01*
X574500Y510500D01*
X500000Y550000D02*
X500000Y568500D01*
X501000Y569500D01*
X529000Y569500D02*
X540000Y580500D01*
X540000Y590000D01*
X560000Y590000D01*
X580500Y590000D01*
X772500Y492500D02*
X773500Y491500D01*
D19*
X392500Y546000D02*
X368500Y522000D01*
X368500Y517500D01*
X368500Y467500D02*
X480000Y467500D01*
X513500Y509500D02*
X514500Y510500D01*
X513500Y509500D02*
X513500Y501000D01*
X480000Y467500D01*
X514500Y510500D02*
X550000Y510500D01*
X370000Y467500D02*
X368500Y467500D01*
X410000Y430000D02*
X460000Y380000D01*
X460000Y363500D01*
X422000Y325500D02*
X410500Y337000D01*
X286000Y337000D01*
X284500Y338500D01*
X230000Y337500D02*
X219500Y327000D01*
X230000Y337500D02*
X230000Y430000D01*
X231000Y338500D02*
X219500Y327000D01*
X231000Y338500D02*
X284500Y338500D01*
X217000Y327000D02*
X175000Y285000D01*
X217000Y327000D02*
X219500Y327000D01*
X175000Y285000D02*
X156731Y266731D01*
X156731Y258712D01*
X147760Y249740D01*
X133019Y235000D01*
X85000Y235000D01*
X30000Y235000D01*
X30000Y102500D02*
X82500Y102500D01*
X85000Y102500D01*
X91000Y96500D01*
X122500Y96500D02*
X127500Y91500D01*
X302500Y87500D02*
X322500Y87500D01*
X284500Y234500D02*
X284500Y338500D01*
X700066Y147566D02*
X808000Y147566D01*
X871800Y147566D02*
X878300Y141066D01*
X871800Y147566D02*
X749000Y147566D01*
X432500Y597000D02*
X432500Y597500D01*
X432500Y630000D02*
X432500Y632500D01*
X410000Y655000D01*
X340000Y655000D01*
X308500Y642500D02*
X290000Y661000D01*
X290000Y682500D01*
X492500Y680145D02*
X514927Y657718D01*
X492500Y680145D02*
X492500Y705000D01*
X510500Y723000D01*
D15*
X213161Y92500D03*
D25*
X202161Y81500D01*
X169000Y81500D01*
D15*
X191500Y251000D03*
D23*
X152500Y251000D01*
X149019Y251000D01*
X147760Y249740D01*
D15*
X107500Y250500D03*
D18*
X152000Y250500D01*
X152500Y251000D01*
D15*
X207500Y234000D03*
D23*
X208000Y234500D02*
X284500Y234500D01*
X208000Y234500D02*
X207500Y234000D01*
D15*
X191500Y217000D03*
X213000Y183500D03*
D19*
X213500Y183500D02*
X235500Y161500D01*
X213500Y183500D02*
X213000Y183500D01*
X235500Y161500D02*
X235500Y137500D01*
D15*
X235500Y137500D03*
X207500Y137500D03*
D19*
X235500Y137500D01*
X207500Y137500D02*
X185000Y137500D01*
X184702Y137202D01*
D15*
X184702Y137202D03*
D19*
X213161Y92500D02*
X297500Y92500D01*
X302500Y87500D01*
D24*
X540500Y441500D02*
X540500Y505500D01*
D15*
X667000Y506000D03*
X681000Y533000D03*
X253500Y411000D03*
D22*
X878300Y141066D02*
X950000Y69366D01*
X950000Y50000D01*
X878300Y608934D02*
X950000Y680634D01*
X950000Y700000D01*
X67500Y682500D02*
X50000Y700000D01*
X67500Y682500D02*
X122500Y682500D01*
X82500Y82500D02*
X50000Y50000D01*
X82500Y82500D02*
X82500Y102500D01*
D23*
X651277Y490277D02*
X667000Y506000D01*
X651277Y490277D02*
X635723Y490277D01*
X630500Y495500D01*
X630500Y511000D02*
X632000Y512500D01*
X630500Y511000D02*
X630500Y495500D01*
D15*
X501000Y580000D03*
X523500Y590000D03*
X765500Y309500D03*
X359500Y87500D03*
X608500Y99000D03*
X340000Y647500D03*
X485000Y605000D03*
X501000Y589500D03*
X592000Y498000D03*
X169661Y81500D03*
D21*
X282500Y147500D03*
D19*
X282500Y107500D01*
X302500Y87500D01*
D15*
X234000Y322000D03*
X561500Y589000D03*
X561000Y545000D03*
D21*
X689000Y696500D03*
X740000Y696000D03*
D19*
X727500Y696000D01*
X689500Y696000D01*
X689000Y696500D01*
D21*
X690000Y642500D03*
X727500Y642500D03*
X590000Y722500D03*
D25*
X590000Y723000D01*
D21*
X812500Y690000D03*
D18*
X878300Y624200D01*
X878300Y608934D01*
D15*
X579500Y658500D03*
X609500Y658500D03*
X652000Y552500D03*
X680500Y545000D03*
X613000Y693000D03*
X587000Y693000D03*
D21*
X708500Y642500D03*
X708500Y696000D03*
D15*
X786000Y500500D03*
D18*
X620000Y722500D02*
X590000Y722500D01*
X630000Y712500D02*
X630000Y700000D01*
X626500Y696500D01*
X623000Y693000D02*
X613000Y693000D01*
X630000Y712500D02*
X620000Y722500D01*
X727500Y696000D02*
X727500Y642500D01*
X740000Y696000D02*
X806500Y696000D01*
X812500Y690000D01*
X689000Y696500D02*
X626500Y696500D01*
X623000Y693000D01*
X608500Y99000D02*
X608500Y89000D01*
X610000Y87500D01*
X613000Y662000D02*
X613000Y693000D01*
X613000Y662000D02*
X609500Y658500D01*
X579500Y658500D02*
X579500Y685500D01*
X587000Y693000D01*
X899890Y385795D02*
X899890Y364205D01*
X899890Y342615D01*
X899890Y321025D01*
X899890Y299435D01*
X899890Y277845D01*
X899890Y256255D01*
X878755Y256255D01*
X877500Y255000D01*
X878300Y256200D02*
X856765Y256200D01*
X856710Y256255D01*
X771532Y491532D02*
X772500Y492500D01*
X780500Y500500D02*
X786000Y500500D01*
X780500Y500500D02*
X772500Y492500D01*
X755000Y492500D02*
X745500Y483000D01*
X745500Y366000D01*
X540000Y590000D02*
X523500Y590000D01*
D16*
X566000Y550000D02*
X561000Y545000D01*
X566000Y550000D02*
X567500Y550000D01*
X561000Y545000D02*
X561000Y589000D01*
X560000Y590000D01*
X501000Y580000D02*
X501000Y569500D01*
X501000Y580000D02*
X501000Y589500D01*
X485500Y605000D01*
X485000Y605000D01*
D15*
X259000Y309500D03*
D21*
X601000Y732000D03*
D19*
X589500Y723000D02*
X510500Y723000D01*
X589500Y723000D02*
X590000Y722500D01*
D15*
X746000Y159000D03*
X699500Y352000D03*
X733500Y336000D03*
D21*
X745500Y279000D03*
D22*
X745500Y289500D01*
X765500Y309500D01*
D21*
X745500Y491500D03*
D22*
X755000Y492500D02*
X772500Y492500D01*
D21*
X572000Y446000D03*
D19*
X545000Y446000D01*
X540500Y441500D01*
D21*
X778000Y39000D03*
D16*
X939000Y39000D01*
X950000Y50000D01*
D25*
X700066Y147566D02*
X652500Y100000D01*
D21*
X740000Y39500D03*
X715000Y39500D03*
X684500Y39500D03*
X659500Y39500D03*
D15*
X673000Y501000D03*
X410000Y385000D03*
D23*
X410000Y358500D02*
X410250Y358250D01*
X410000Y358500D02*
X410000Y385000D01*
X410500Y358500D02*
X410250Y358250D01*
D15*
X410500Y358500D03*
D21*
X311500Y261000D03*
D23*
X302500Y270000D01*
X302500Y277000D01*
D21*
X302500Y277000D03*
X831500Y510748D03*
D16*
X831500Y505500D01*
X843255Y493745D01*
X856710Y493745D01*
D21*
X824000Y506000D03*
D16*
X824000Y490500D01*
X842345Y472155D02*
X856710Y472155D01*
X842345Y472155D02*
X824000Y490500D01*
D26*
X835935Y450565D02*
X856710Y450565D01*
X835935Y450565D02*
X833500Y453000D01*
D15*
X833500Y453000D03*
D26*
X855685Y430000D02*
X856710Y428975D01*
X855685Y430000D02*
X825500Y430000D01*
X825000Y429500D01*
D15*
X825000Y429500D03*
X833277Y462223D03*
D26*
X871723Y462223D01*
X898645Y492500D02*
X899890Y493745D01*
X898645Y492500D02*
X890000Y492500D01*
X877500Y480000D01*
X877500Y468000D02*
X871723Y462223D01*
X877500Y468000D02*
X877500Y480000D01*
D15*
X820500Y453000D03*
D26*
X824500Y453000D01*
X837500Y440000D01*
X875000Y440000D01*
X894655Y472155D02*
X899890Y472155D01*
X894655Y472155D02*
X880000Y457500D01*
X880000Y445000D01*
X875000Y440000D01*
X899890Y450565D02*
X932000Y450565D01*
D21*
X932000Y450565D03*
D15*
X810000Y290000D03*
D26*
X819435Y299435D02*
X856710Y299435D01*
X819435Y299435D02*
X810000Y290000D01*
D15*
X524500Y446000D03*
X489000Y445888D03*
D16*
X489112Y446000D02*
X524500Y446000D01*
X489112Y446000D02*
X489000Y445888D01*
D15*
X520000Y547500D03*
D16*
X510500Y557000D01*
X510500Y635000D02*
X506000Y639500D01*
X510500Y635000D02*
X510500Y557000D01*
D15*
X506000Y639500D03*
X649000Y265500D03*
D16*
X649000Y261000D01*
X647000Y259000D01*
X647000Y248000D01*
D15*
X647000Y248000D03*
X506088Y649000D03*
D16*
X513588Y641500D02*
X513588Y563912D01*
X530000Y547500D01*
D15*
X530000Y547500D03*
D16*
X513588Y641500D02*
X506088Y649000D01*
D15*
X658973Y539973D03*
D16*
X661973Y542973D02*
X661973Y554973D01*
X661973Y542973D02*
X658973Y539973D01*
X661973Y554973D02*
X618187Y598759D01*
X553474Y598759D01*
X535866Y616366D01*
X535922Y616422D02*
X535922Y622636D01*
D15*
X535922Y622636D03*
D16*
X535922Y616422D02*
X535866Y616366D01*
X535922Y622636D02*
X535922Y658578D01*
D15*
X527500Y667500D03*
D16*
X527250Y667250D02*
X535922Y658578D01*
X527250Y667250D02*
X527500Y667500D01*
D15*
X651027Y542973D03*
X525000Y622500D03*
D16*
X552027Y595473D01*
X659027Y553973D02*
X659027Y548473D01*
X653527Y542973D01*
X651027Y542973D01*
X659027Y553973D02*
X617527Y595473D01*
X552027Y595473D01*
D15*
X418000Y622612D03*
D16*
X417817Y622429D01*
X450929Y622429D01*
D15*
X450929Y622429D03*
X423500Y616500D03*
D16*
X424000Y616000D02*
X458000Y616000D01*
X424000Y616000D02*
X423500Y616500D01*
D15*
X458000Y616000D03*
X640500Y268500D03*
X640500Y254000D03*
D16*
X640500Y268500D01*
D15*
X810000Y275000D03*
D26*
X812845Y277845D02*
X856710Y277845D01*
X812845Y277845D02*
X810000Y275000D01*
D15*
X670500Y430500D03*
D16*
X635600Y430500D01*
X635000Y429900D01*
D15*
X670000Y445500D03*
D16*
X667100Y442600D01*
X635000Y442600D01*
D21*
X651829Y452500D03*
D16*
X649029Y455300D01*
X635000Y455300D01*
D15*
X440000Y687500D03*
D16*
X440000Y703612D01*
D15*
X440000Y703612D03*
D21*
X665000Y470000D03*
D16*
X663000Y468000D01*
X635000Y468000D01*
D21*
X660237Y196472D03*
D16*
X660209Y196500D01*
X648000Y196500D01*
D21*
X648000Y196500D03*
X615000Y482500D03*
D16*
X615000Y419000D01*
X617000Y417000D02*
X617000Y414000D01*
X617000Y417000D02*
X615000Y419000D01*
D21*
X617000Y414000D03*
X664171Y283000D03*
D16*
X664171Y241171D01*
X660000Y237000D02*
X660000Y235500D01*
D21*
X660000Y235500D03*
D16*
X660000Y237000D02*
X664171Y241171D01*
D21*
X620000Y490000D03*
D16*
X620000Y423500D01*
X622500Y421000D02*
X622500Y420500D01*
X622500Y421000D02*
X620000Y423500D01*
D21*
X622500Y420500D03*
X669500Y277000D03*
D16*
X669500Y235000D01*
X662500Y228000D01*
D21*
X662500Y228000D03*
X647000Y237500D03*
D16*
X647000Y241175D01*
X653826Y279826D02*
X654671Y280671D01*
X653826Y248001D02*
X647000Y241175D01*
X653826Y248001D02*
X653826Y279826D01*
X654671Y280671D02*
X654671Y281500D01*
D21*
X654671Y281500D03*
X651329Y231000D03*
D16*
X652829Y232500D01*
X652829Y235935D01*
X659342Y285435D02*
X659000Y285777D01*
X659000Y289000D02*
X658500Y289500D01*
X659000Y289000D02*
X659000Y285777D01*
X659342Y242448D02*
X652829Y235935D01*
X659342Y242448D02*
X659342Y285435D01*
D21*
X658500Y289500D03*
X563500Y409000D03*
D16*
X564000Y408500D02*
X576500Y408500D01*
X564000Y408500D02*
X563500Y409000D01*
D21*
X576500Y408500D03*
M02*
