G04 EAGLE Gerber RS-274X export*
G75*
%MOMM*%
%FSLAX34Y34*%
%LPD*%
%INTop Copper*%
%IPPOS*%
%AMOC8*
5,1,8,0,0,1.08239X$1,22.5*%
G01*
%ADD10R,1.000000X1.100000*%
%ADD11R,1.100000X1.000000*%
%ADD12C,1.000000*%
%ADD13R,1.400000X1.200000*%
%ADD14R,0.762000X1.524000*%
%ADD15R,1.400000X1.600000*%
%ADD16R,1.800000X1.600000*%
%ADD17R,0.550000X1.200000*%
%ADD18R,1.500000X0.500000*%
%ADD19R,0.500000X1.500000*%
%ADD20R,1.600000X1.400000*%
%ADD21R,3.000000X1.400000*%
%ADD22R,0.812800X1.524000*%
%ADD23R,3.124200X1.905000*%
%ADD24R,1.470000X1.524000*%
%ADD25C,0.600000*%
%ADD26R,1.900000X1.100000*%
%ADD27C,1.219200*%
%ADD28C,5.842000*%
%ADD29R,1.200000X1.400000*%
%ADD30R,1.270000X2.540000*%
%ADD31R,2.032000X0.660400*%
%ADD32C,6.350000*%
%ADD33R,2.500000X0.500000*%
%ADD34R,2.500000X2.000000*%
%ADD35C,1.879600*%
%ADD36R,0.348000X1.397000*%
%ADD37R,1.320800X0.558800*%
%ADD38R,0.558800X2.311400*%
%ADD39R,2.311400X0.558800*%
%ADD40R,0.600000X1.350000*%
%ADD41R,1.200000X2.000000*%
%ADD42R,0.600000X0.420000*%
%ADD43C,0.420000*%
%ADD44R,0.700000X1.100000*%
%ADD45R,1.140000X1.830000*%
%ADD46R,0.860000X2.800000*%
%ADD47R,0.700000X3.330000*%
%ADD48R,0.900000X0.930000*%
%ADD49R,1.050000X0.780000*%
%ADD50R,1.000000X2.500000*%
%ADD51R,2.500000X6.000000*%
%ADD52R,0.600000X1.200000*%
%ADD53R,2.781300X2.781300*%
%ADD54C,9.000000*%
%ADD55R,1.473200X0.355600*%
%ADD56R,1.676400X0.355600*%
%ADD57C,0.127000*%
%ADD58C,0.635000*%
%ADD59C,0.177800*%
%ADD60C,0.150000*%
%ADD61C,0.604000*%
%ADD62C,0.254000*%
%ADD63C,0.609600*%
%ADD64C,0.406400*%
%ADD65C,1.016000*%
%ADD66C,0.508000*%
%ADD67C,0.304800*%
%ADD68C,0.812800*%
%ADD69C,1.270000*%
%ADD70C,0.152400*%

G36*
X185042Y329373D02*
X185042Y329373D01*
X185084Y329371D01*
X185151Y329393D01*
X185221Y329405D01*
X185257Y329427D01*
X185298Y329440D01*
X185371Y329494D01*
X185414Y329520D01*
X185427Y329536D01*
X185448Y329552D01*
X197763Y341866D01*
X265000Y341866D01*
X265042Y341873D01*
X265084Y341871D01*
X265151Y341893D01*
X265221Y341905D01*
X265257Y341927D01*
X265298Y341940D01*
X265371Y341994D01*
X265414Y342020D01*
X265427Y342036D01*
X265448Y342052D01*
X305448Y382052D01*
X305473Y382086D01*
X305504Y382115D01*
X305536Y382178D01*
X305577Y382236D01*
X305587Y382277D01*
X305607Y382315D01*
X305620Y382404D01*
X305633Y382453D01*
X305630Y382474D01*
X305634Y382500D01*
X305634Y515000D01*
X305627Y515042D01*
X305629Y515084D01*
X305607Y515151D01*
X305595Y515221D01*
X305573Y515257D01*
X305560Y515298D01*
X305506Y515371D01*
X305480Y515414D01*
X305464Y515427D01*
X305448Y515448D01*
X295448Y525448D01*
X295414Y525473D01*
X295385Y525504D01*
X295322Y525536D01*
X295264Y525577D01*
X295223Y525587D01*
X295185Y525607D01*
X295096Y525620D01*
X295047Y525633D01*
X295026Y525630D01*
X295000Y525634D01*
X273000Y525634D01*
X272958Y525627D01*
X272916Y525629D01*
X272849Y525607D01*
X272779Y525595D01*
X272743Y525573D01*
X272702Y525560D01*
X272629Y525506D01*
X272586Y525480D01*
X272573Y525464D01*
X272552Y525448D01*
X267552Y520448D01*
X267527Y520414D01*
X267496Y520385D01*
X267464Y520322D01*
X267423Y520264D01*
X267413Y520223D01*
X267393Y520185D01*
X267380Y520096D01*
X267368Y520047D01*
X267370Y520026D01*
X267366Y520000D01*
X267366Y373263D01*
X254737Y360634D01*
X177500Y360634D01*
X177458Y360627D01*
X177416Y360629D01*
X177349Y360607D01*
X177279Y360595D01*
X177243Y360573D01*
X177202Y360560D01*
X177129Y360506D01*
X177086Y360480D01*
X177073Y360464D01*
X177052Y360448D01*
X169552Y352948D01*
X169527Y352914D01*
X169496Y352885D01*
X169464Y352822D01*
X169423Y352764D01*
X169413Y352723D01*
X169393Y352685D01*
X169380Y352596D01*
X169368Y352547D01*
X169370Y352526D01*
X169366Y352500D01*
X169366Y335000D01*
X169373Y334958D01*
X169371Y334916D01*
X169393Y334849D01*
X169405Y334779D01*
X169427Y334743D01*
X169440Y334702D01*
X169494Y334629D01*
X169520Y334586D01*
X169536Y334573D01*
X169552Y334552D01*
X174552Y329552D01*
X174586Y329527D01*
X174615Y329496D01*
X174678Y329464D01*
X174736Y329423D01*
X174777Y329413D01*
X174815Y329393D01*
X174904Y329380D01*
X174953Y329368D01*
X174974Y329370D01*
X175000Y329366D01*
X185000Y329366D01*
X185042Y329373D01*
G37*
G36*
X580090Y504254D02*
X580090Y504254D01*
X580181Y504261D01*
X580211Y504273D01*
X580243Y504279D01*
X580323Y504321D01*
X580407Y504357D01*
X580439Y504383D01*
X580460Y504394D01*
X580482Y504417D01*
X580538Y504462D01*
X585538Y509462D01*
X585591Y509536D01*
X585651Y509605D01*
X585663Y509635D01*
X585682Y509661D01*
X585709Y509748D01*
X585743Y509833D01*
X585747Y509874D01*
X585754Y509897D01*
X585753Y509929D01*
X585761Y510000D01*
X585761Y590000D01*
X585747Y590090D01*
X585739Y590181D01*
X585727Y590211D01*
X585722Y590243D01*
X585679Y590323D01*
X585643Y590407D01*
X585617Y590439D01*
X585606Y590460D01*
X585583Y590482D01*
X585538Y590538D01*
X580538Y595538D01*
X580464Y595591D01*
X580395Y595651D01*
X580365Y595663D01*
X580339Y595682D01*
X580252Y595709D01*
X580167Y595743D01*
X580126Y595747D01*
X580103Y595754D01*
X580071Y595753D01*
X580000Y595761D01*
X560000Y595761D01*
X559910Y595747D01*
X559819Y595739D01*
X559789Y595727D01*
X559757Y595722D01*
X559677Y595679D01*
X559593Y595643D01*
X559561Y595617D01*
X559540Y595606D01*
X559518Y595583D01*
X559462Y595538D01*
X554462Y590538D01*
X554409Y590464D01*
X554349Y590395D01*
X554337Y590365D01*
X554318Y590339D01*
X554291Y590252D01*
X554257Y590167D01*
X554253Y590126D01*
X554246Y590103D01*
X554247Y590071D01*
X554239Y590000D01*
X554239Y537000D01*
X554254Y536910D01*
X554261Y536819D01*
X554273Y536789D01*
X554279Y536757D01*
X554321Y536677D01*
X554357Y536593D01*
X554383Y536561D01*
X554394Y536540D01*
X554417Y536518D01*
X554445Y536482D01*
X554446Y536482D01*
X554446Y536481D01*
X554462Y536462D01*
X561739Y529185D01*
X561739Y520315D01*
X549462Y508038D01*
X549409Y507964D01*
X549349Y507895D01*
X549337Y507865D01*
X549318Y507839D01*
X549291Y507752D01*
X549257Y507667D01*
X549253Y507626D01*
X549246Y507603D01*
X549247Y507571D01*
X549239Y507500D01*
X549239Y505000D01*
X549242Y504980D01*
X549240Y504961D01*
X549262Y504859D01*
X549279Y504757D01*
X549288Y504740D01*
X549292Y504720D01*
X549345Y504631D01*
X549394Y504540D01*
X549408Y504526D01*
X549418Y504509D01*
X549497Y504442D01*
X549572Y504371D01*
X549590Y504362D01*
X549605Y504349D01*
X549701Y504310D01*
X549795Y504267D01*
X549815Y504265D01*
X549833Y504257D01*
X550000Y504239D01*
X580000Y504239D01*
X580090Y504254D01*
G37*
G36*
X527590Y564254D02*
X527590Y564254D01*
X527681Y564261D01*
X527711Y564273D01*
X527743Y564279D01*
X527823Y564321D01*
X527907Y564357D01*
X527939Y564383D01*
X527960Y564394D01*
X527982Y564417D01*
X528038Y564462D01*
X531538Y567962D01*
X531591Y568036D01*
X531651Y568105D01*
X531663Y568135D01*
X531682Y568161D01*
X531709Y568248D01*
X531743Y568333D01*
X531747Y568374D01*
X531754Y568397D01*
X531753Y568429D01*
X531761Y568500D01*
X531761Y574685D01*
X543038Y585962D01*
X543091Y586036D01*
X543151Y586105D01*
X543163Y586135D01*
X543182Y586161D01*
X543209Y586248D01*
X543243Y586333D01*
X543247Y586374D01*
X543254Y586397D01*
X543253Y586429D01*
X543261Y586500D01*
X543261Y590000D01*
X543247Y590090D01*
X543239Y590181D01*
X543227Y590211D01*
X543222Y590243D01*
X543179Y590323D01*
X543143Y590407D01*
X543117Y590439D01*
X543106Y590460D01*
X543083Y590482D01*
X543038Y590538D01*
X538038Y595538D01*
X537964Y595591D01*
X537895Y595651D01*
X537865Y595663D01*
X537839Y595682D01*
X537752Y595709D01*
X537667Y595743D01*
X537626Y595747D01*
X537603Y595754D01*
X537571Y595753D01*
X537500Y595761D01*
X500000Y595761D01*
X499910Y595747D01*
X499819Y595739D01*
X499789Y595727D01*
X499757Y595722D01*
X499677Y595679D01*
X499593Y595643D01*
X499561Y595617D01*
X499540Y595606D01*
X499518Y595583D01*
X499462Y595538D01*
X496962Y593038D01*
X496909Y592964D01*
X496849Y592895D01*
X496837Y592865D01*
X496818Y592839D01*
X496791Y592752D01*
X496757Y592667D01*
X496753Y592626D01*
X496746Y592603D01*
X496747Y592571D01*
X496739Y592500D01*
X496739Y567500D01*
X496754Y567410D01*
X496761Y567319D01*
X496773Y567289D01*
X496779Y567257D01*
X496821Y567177D01*
X496857Y567093D01*
X496883Y567061D01*
X496894Y567040D01*
X496917Y567018D01*
X496962Y566962D01*
X499462Y564462D01*
X499536Y564409D01*
X499605Y564349D01*
X499635Y564337D01*
X499661Y564318D01*
X499748Y564291D01*
X499833Y564257D01*
X499874Y564253D01*
X499897Y564246D01*
X499929Y564247D01*
X500000Y564239D01*
X527500Y564239D01*
X527590Y564254D01*
G37*
G36*
X265042Y164373D02*
X265042Y164373D01*
X265084Y164371D01*
X265151Y164393D01*
X265221Y164405D01*
X265257Y164427D01*
X265298Y164440D01*
X265371Y164494D01*
X265414Y164520D01*
X265427Y164536D01*
X265448Y164552D01*
X274773Y173877D01*
X274798Y173911D01*
X274829Y173940D01*
X274861Y174003D01*
X274902Y174061D01*
X274912Y174102D01*
X274932Y174140D01*
X274945Y174229D01*
X274958Y174278D01*
X274955Y174299D01*
X274959Y174325D01*
X274959Y174731D01*
X275000Y174731D01*
X275065Y174742D01*
X275131Y174744D01*
X275174Y174762D01*
X275221Y174770D01*
X275278Y174804D01*
X275338Y174829D01*
X275373Y174861D01*
X275414Y174885D01*
X275456Y174936D01*
X275504Y174980D01*
X275526Y175022D01*
X275555Y175059D01*
X275576Y175121D01*
X275607Y175180D01*
X275615Y175234D01*
X275627Y175271D01*
X275626Y175311D01*
X275634Y175365D01*
X275634Y176635D01*
X275623Y176700D01*
X275621Y176765D01*
X275603Y176809D01*
X275595Y176856D01*
X275561Y176913D01*
X275536Y176973D01*
X275505Y177008D01*
X275480Y177049D01*
X275429Y177090D01*
X275385Y177139D01*
X275343Y177161D01*
X275306Y177190D01*
X275244Y177211D01*
X275185Y177241D01*
X275131Y177250D01*
X275094Y177262D01*
X275054Y177261D01*
X275000Y177269D01*
X274959Y177269D01*
X274959Y178175D01*
X274952Y178217D01*
X274954Y178259D01*
X274932Y178326D01*
X274920Y178396D01*
X274898Y178432D01*
X274885Y178473D01*
X274831Y178546D01*
X274805Y178589D01*
X274789Y178602D01*
X274773Y178623D01*
X267948Y185448D01*
X267914Y185473D01*
X267885Y185504D01*
X267822Y185536D01*
X267764Y185577D01*
X267723Y185587D01*
X267685Y185607D01*
X267596Y185620D01*
X267547Y185633D01*
X267526Y185630D01*
X267500Y185634D01*
X230000Y185634D01*
X229958Y185627D01*
X229916Y185629D01*
X229849Y185607D01*
X229779Y185595D01*
X229743Y185573D01*
X229702Y185560D01*
X229629Y185506D01*
X229586Y185480D01*
X229573Y185464D01*
X229552Y185448D01*
X222237Y178134D01*
X170000Y178134D01*
X169935Y178123D01*
X169869Y178121D01*
X169826Y178103D01*
X169779Y178095D01*
X169722Y178061D01*
X169662Y178036D01*
X169627Y178005D01*
X169586Y177980D01*
X169545Y177929D01*
X169496Y177885D01*
X169474Y177843D01*
X169445Y177806D01*
X169424Y177744D01*
X169393Y177685D01*
X169385Y177631D01*
X169373Y177594D01*
X169374Y177554D01*
X169366Y177500D01*
X169366Y172500D01*
X169377Y172435D01*
X169379Y172369D01*
X169397Y172326D01*
X169405Y172279D01*
X169439Y172222D01*
X169464Y172162D01*
X169495Y172127D01*
X169520Y172086D01*
X169571Y172045D01*
X169615Y171996D01*
X169657Y171974D01*
X169694Y171945D01*
X169756Y171924D01*
X169815Y171893D01*
X169869Y171885D01*
X169906Y171873D01*
X169946Y171874D01*
X170000Y171866D01*
X249737Y171866D01*
X257052Y164552D01*
X257086Y164527D01*
X257115Y164496D01*
X257178Y164464D01*
X257236Y164423D01*
X257277Y164413D01*
X257315Y164393D01*
X257404Y164380D01*
X257453Y164368D01*
X257474Y164370D01*
X257500Y164366D01*
X265000Y164366D01*
X265042Y164373D01*
G37*
G36*
X542590Y511754D02*
X542590Y511754D01*
X542681Y511761D01*
X542711Y511773D01*
X542743Y511779D01*
X542823Y511821D01*
X542907Y511857D01*
X542939Y511883D01*
X542960Y511894D01*
X542982Y511917D01*
X543038Y511962D01*
X550538Y519462D01*
X550591Y519536D01*
X550651Y519605D01*
X550663Y519635D01*
X550682Y519661D01*
X550709Y519748D01*
X550743Y519833D01*
X550747Y519874D01*
X550754Y519897D01*
X550753Y519929D01*
X550761Y520000D01*
X550761Y587500D01*
X550750Y587571D01*
X550748Y587642D01*
X550730Y587691D01*
X550722Y587743D01*
X550688Y587806D01*
X550663Y587873D01*
X550631Y587914D01*
X550606Y587960D01*
X550555Y588009D01*
X550510Y588065D01*
X550466Y588094D01*
X550428Y588130D01*
X550363Y588160D01*
X550303Y588198D01*
X550252Y588211D01*
X550205Y588233D01*
X550134Y588241D01*
X550064Y588259D01*
X550012Y588254D01*
X549961Y588260D01*
X549890Y588245D01*
X549819Y588239D01*
X549771Y588219D01*
X549720Y588208D01*
X549659Y588171D01*
X549593Y588143D01*
X549537Y588098D01*
X549509Y588082D01*
X549494Y588064D01*
X549462Y588038D01*
X534462Y573038D01*
X534409Y572964D01*
X534349Y572895D01*
X534337Y572865D01*
X534318Y572839D01*
X534291Y572752D01*
X534257Y572667D01*
X534253Y572626D01*
X534246Y572603D01*
X534247Y572571D01*
X534239Y572500D01*
X534239Y515000D01*
X534254Y514910D01*
X534261Y514819D01*
X534273Y514789D01*
X534279Y514757D01*
X534321Y514677D01*
X534357Y514593D01*
X534383Y514561D01*
X534394Y514540D01*
X534417Y514518D01*
X534462Y514462D01*
X536962Y511962D01*
X537036Y511909D01*
X537105Y511849D01*
X537135Y511837D01*
X537161Y511818D01*
X537248Y511791D01*
X537333Y511757D01*
X537374Y511753D01*
X537397Y511746D01*
X537429Y511747D01*
X537500Y511739D01*
X542500Y511739D01*
X542590Y511754D01*
G37*
G36*
X732347Y140514D02*
X732347Y140514D01*
X732396Y140515D01*
X732464Y140541D01*
X732536Y140558D01*
X732578Y140584D01*
X732624Y140601D01*
X732681Y140648D01*
X732743Y140686D01*
X732775Y140724D01*
X732813Y140756D01*
X732852Y140818D01*
X732898Y140875D01*
X732916Y140921D01*
X732942Y140963D01*
X732959Y141034D01*
X732985Y141103D01*
X732992Y141176D01*
X732997Y141200D01*
X732996Y141217D01*
X732999Y141250D01*
X732999Y142001D01*
X733000Y142001D01*
X733024Y142005D01*
X733049Y142002D01*
X733144Y142025D01*
X733241Y142041D01*
X733262Y142052D01*
X733286Y142058D01*
X733370Y142109D01*
X733456Y142156D01*
X733473Y142173D01*
X733494Y142186D01*
X733556Y142262D01*
X733623Y142334D01*
X733633Y142356D01*
X733649Y142375D01*
X733683Y142466D01*
X733724Y142556D01*
X733726Y142580D01*
X733735Y142603D01*
X733749Y142750D01*
X733749Y157000D01*
X733746Y157018D01*
X733748Y157033D01*
X733734Y157090D01*
X733733Y157096D01*
X733724Y157193D01*
X733714Y157216D01*
X733710Y157241D01*
X733664Y157327D01*
X733623Y157416D01*
X733602Y157441D01*
X733595Y157456D01*
X733576Y157473D01*
X733530Y157530D01*
X720030Y171030D01*
X719950Y171087D01*
X719875Y171149D01*
X719852Y171157D01*
X719831Y171172D01*
X719738Y171200D01*
X719647Y171235D01*
X719614Y171238D01*
X719598Y171243D01*
X719573Y171242D01*
X719500Y171249D01*
X697500Y171249D01*
X697476Y171245D01*
X697451Y171248D01*
X697356Y171226D01*
X697259Y171210D01*
X697238Y171198D01*
X697214Y171192D01*
X697130Y171141D01*
X697044Y171095D01*
X697027Y171077D01*
X697006Y171064D01*
X696944Y170988D01*
X696877Y170917D01*
X696867Y170894D01*
X696852Y170875D01*
X696817Y170784D01*
X696776Y170694D01*
X696774Y170670D01*
X696765Y170647D01*
X696751Y170500D01*
X696751Y169503D01*
X696755Y169479D01*
X696752Y169454D01*
X696775Y169359D01*
X696790Y169262D01*
X696802Y169241D01*
X696808Y169217D01*
X696859Y169133D01*
X696905Y169047D01*
X696923Y169030D01*
X696936Y169009D01*
X697012Y168947D01*
X697084Y168880D01*
X697106Y168870D01*
X697125Y168854D01*
X697216Y168820D01*
X697306Y168779D01*
X697330Y168777D01*
X697353Y168768D01*
X697500Y168754D01*
X706386Y168754D01*
X706386Y167022D01*
X706213Y166375D01*
X705878Y165796D01*
X705405Y165323D01*
X704826Y164988D01*
X704179Y164815D01*
X698434Y164815D01*
X698361Y164803D01*
X698288Y164801D01*
X698242Y164784D01*
X698193Y164776D01*
X698128Y164741D01*
X698060Y164715D01*
X698021Y164684D01*
X697978Y164661D01*
X697928Y164607D01*
X697871Y164560D01*
X697845Y164518D01*
X697811Y164483D01*
X697781Y164416D01*
X697742Y164353D01*
X697731Y164305D01*
X697710Y164260D01*
X697703Y164187D01*
X697686Y164116D01*
X697691Y164067D01*
X697686Y164017D01*
X697703Y163946D01*
X697710Y163873D01*
X697730Y163828D01*
X697742Y163780D01*
X697780Y163717D01*
X697811Y163650D01*
X697857Y163594D01*
X697870Y163572D01*
X697883Y163562D01*
X697904Y163536D01*
X720470Y140970D01*
X720550Y140913D01*
X720625Y140852D01*
X720648Y140843D01*
X720669Y140828D01*
X720762Y140800D01*
X720853Y140765D01*
X720886Y140762D01*
X720902Y140757D01*
X720927Y140758D01*
X721000Y140751D01*
X731690Y140751D01*
X731720Y140720D01*
X731780Y140677D01*
X731833Y140627D01*
X731878Y140607D01*
X731918Y140578D01*
X731989Y140557D01*
X732056Y140526D01*
X732105Y140522D01*
X732152Y140507D01*
X732225Y140510D01*
X732298Y140502D01*
X732347Y140514D01*
G37*
G36*
X728430Y354377D02*
X728430Y354377D01*
X728495Y354379D01*
X728539Y354397D01*
X728586Y354405D01*
X728642Y354439D01*
X728703Y354464D01*
X728738Y354495D01*
X728779Y354520D01*
X728820Y354571D01*
X728869Y354615D01*
X728891Y354657D01*
X728920Y354694D01*
X728941Y354756D01*
X728971Y354815D01*
X728980Y354869D01*
X728992Y354906D01*
X728991Y354946D01*
X728999Y355000D01*
X728999Y355001D01*
X729635Y355001D01*
X729700Y355013D01*
X729765Y355014D01*
X729809Y355032D01*
X729856Y355041D01*
X729913Y355074D01*
X729973Y355099D01*
X730008Y355131D01*
X730049Y355155D01*
X730090Y355206D01*
X730139Y355250D01*
X730161Y355292D01*
X730190Y355329D01*
X730211Y355391D01*
X730241Y355450D01*
X730250Y355504D01*
X730262Y355541D01*
X730261Y355581D01*
X730269Y355635D01*
X730269Y362865D01*
X730262Y362907D01*
X730264Y362949D01*
X730242Y363016D01*
X730229Y363086D01*
X730208Y363122D01*
X730195Y363163D01*
X730141Y363236D01*
X730115Y363279D01*
X730099Y363292D01*
X730083Y363314D01*
X712948Y380448D01*
X712914Y380473D01*
X712885Y380504D01*
X712822Y380536D01*
X712764Y380577D01*
X712723Y380587D01*
X712685Y380607D01*
X712596Y380620D01*
X712547Y380633D01*
X712526Y380630D01*
X712500Y380634D01*
X700543Y380634D01*
X700478Y380623D01*
X700412Y380621D01*
X700369Y380603D01*
X700322Y380595D01*
X700265Y380561D01*
X700205Y380536D01*
X700170Y380505D01*
X700129Y380480D01*
X700087Y380429D01*
X700039Y380385D01*
X700017Y380343D01*
X699988Y380306D01*
X699967Y380244D01*
X699936Y380185D01*
X699928Y380131D01*
X699916Y380094D01*
X699917Y380054D01*
X699909Y380000D01*
X699909Y379119D01*
X695000Y379119D01*
X694935Y379108D01*
X694869Y379106D01*
X694826Y379088D01*
X694779Y379079D01*
X694722Y379046D01*
X694662Y379021D01*
X694627Y378989D01*
X694586Y378965D01*
X694545Y378914D01*
X694496Y378870D01*
X694474Y378828D01*
X694445Y378791D01*
X694424Y378729D01*
X694393Y378670D01*
X694385Y378616D01*
X694373Y378579D01*
X694373Y378562D01*
X694373Y378561D01*
X694373Y378536D01*
X694366Y378485D01*
X694366Y377500D01*
X694373Y377458D01*
X694371Y377416D01*
X694393Y377349D01*
X694405Y377279D01*
X694427Y377243D01*
X694440Y377202D01*
X694494Y377129D01*
X694520Y377086D01*
X694536Y377073D01*
X694552Y377052D01*
X694836Y376767D01*
X694871Y376742D01*
X694900Y376711D01*
X694963Y376679D01*
X695021Y376638D01*
X695062Y376628D01*
X695100Y376608D01*
X695189Y376595D01*
X695238Y376583D01*
X695259Y376585D01*
X695285Y376581D01*
X699909Y376581D01*
X699909Y374213D01*
X699736Y373567D01*
X699375Y372943D01*
X699374Y372942D01*
X699373Y372939D01*
X699359Y372916D01*
X699350Y372891D01*
X699328Y372859D01*
X699312Y372796D01*
X699286Y372735D01*
X699285Y372710D01*
X699283Y372705D01*
X699283Y372684D01*
X699273Y372642D01*
X699279Y372577D01*
X699276Y372511D01*
X699285Y372483D01*
X699285Y372480D01*
X699290Y372468D01*
X699291Y372466D01*
X699296Y372419D01*
X699325Y372360D01*
X699345Y372297D01*
X699378Y372253D01*
X699395Y372218D01*
X699424Y372191D01*
X699457Y372146D01*
X717052Y354552D01*
X717086Y354527D01*
X717115Y354496D01*
X717178Y354464D01*
X717236Y354423D01*
X717277Y354413D01*
X717315Y354393D01*
X717404Y354380D01*
X717453Y354368D01*
X717474Y354370D01*
X717500Y354366D01*
X728365Y354366D01*
X728430Y354377D01*
G37*
%LPC*%
G36*
X720959Y356269D02*
X720959Y356269D01*
X720959Y360335D01*
X721132Y360981D01*
X721467Y361560D01*
X721940Y362033D01*
X722519Y362368D01*
X723165Y362541D01*
X727731Y362541D01*
X727731Y356269D01*
X720959Y356269D01*
G37*
%LPD*%
%LPC*%
G36*
X724959Y143499D02*
X724959Y143499D01*
X724959Y147334D01*
X725132Y147981D01*
X725467Y148560D01*
X725940Y149033D01*
X726519Y149368D01*
X727166Y149541D01*
X731501Y149541D01*
X731501Y143499D01*
X724959Y143499D01*
G37*
%LPD*%
G36*
X757508Y324494D02*
X757508Y324494D01*
X757515Y324493D01*
X757605Y324514D01*
X757697Y324532D01*
X757703Y324537D01*
X757711Y324539D01*
X757859Y324641D01*
X760359Y327141D01*
X760360Y327144D01*
X760362Y327145D01*
X760415Y327226D01*
X760470Y327308D01*
X760470Y327311D01*
X760472Y327313D01*
X760489Y327409D01*
X760507Y327505D01*
X760507Y327508D01*
X760507Y327510D01*
X760486Y327607D01*
X760466Y327701D01*
X760464Y327703D01*
X760464Y327706D01*
X760407Y327786D01*
X760351Y327866D01*
X760349Y327867D01*
X760348Y327869D01*
X760265Y327921D01*
X760182Y327973D01*
X760180Y327974D01*
X760177Y327975D01*
X760000Y328007D01*
X752500Y328007D01*
X752497Y328007D01*
X752495Y328007D01*
X752400Y327987D01*
X752304Y327968D01*
X752301Y327966D01*
X752299Y327966D01*
X752218Y327910D01*
X752138Y327855D01*
X752136Y327853D01*
X752134Y327851D01*
X752081Y327768D01*
X752028Y327687D01*
X752028Y327684D01*
X752027Y327682D01*
X752010Y327586D01*
X751993Y327490D01*
X751993Y327487D01*
X751993Y327485D01*
X752015Y327391D01*
X752036Y327294D01*
X752038Y327292D01*
X752039Y327289D01*
X752141Y327141D01*
X754641Y324641D01*
X754648Y324637D01*
X754652Y324631D01*
X754731Y324582D01*
X754808Y324530D01*
X754816Y324529D01*
X754823Y324525D01*
X755000Y324493D01*
X757500Y324493D01*
X757508Y324494D01*
G37*
D10*
X639420Y543900D03*
X639420Y526900D03*
D11*
X758700Y102320D03*
X775700Y102320D03*
D10*
X316950Y706900D03*
X316950Y689900D03*
D11*
X537100Y636700D03*
X554100Y636700D03*
D12*
X910200Y76920D03*
X899300Y718120D03*
D13*
X762370Y69800D03*
X762370Y39800D03*
D14*
X183750Y658760D03*
X183750Y714640D03*
X221850Y658760D03*
X221850Y714640D03*
D11*
X499400Y215000D03*
X516400Y215000D03*
X499400Y235500D03*
X516400Y235500D03*
D10*
X291600Y111900D03*
X291600Y128900D03*
D11*
X499400Y255900D03*
X516400Y255900D03*
D10*
X107300Y220600D03*
X107300Y237600D03*
X274600Y73400D03*
X274600Y56400D03*
D11*
X443900Y489900D03*
X426900Y489900D03*
X443100Y469600D03*
X426100Y469600D03*
D10*
X202700Y98400D03*
X202700Y81400D03*
D15*
X191600Y234000D03*
X163600Y234000D03*
D11*
X126600Y161500D03*
X143600Y161500D03*
X126600Y144000D03*
X143600Y144000D03*
D10*
X180400Y98600D03*
X180400Y81600D03*
D13*
X221000Y42700D03*
X221000Y72700D03*
X251000Y42700D03*
X251000Y72700D03*
D16*
X131500Y222600D03*
X131500Y250600D03*
D17*
X838200Y690799D03*
X847700Y690799D03*
X857200Y690799D03*
X857200Y716801D03*
X838200Y716801D03*
D18*
X482700Y589600D03*
X482700Y581600D03*
X482700Y573600D03*
X482700Y565600D03*
X482700Y557600D03*
X482700Y549600D03*
X482700Y541600D03*
X482700Y533600D03*
X482700Y525600D03*
X482700Y517600D03*
X482700Y509600D03*
D19*
X500700Y491600D03*
X508700Y491600D03*
X516700Y491600D03*
X524700Y491600D03*
X532700Y491600D03*
X540700Y491600D03*
X548700Y491600D03*
X556700Y491600D03*
X564700Y491600D03*
X572700Y491600D03*
X580700Y491600D03*
D18*
X598700Y509600D03*
X598700Y517600D03*
X598700Y525600D03*
X598700Y533600D03*
X598700Y541600D03*
X598700Y549600D03*
X598700Y557600D03*
X598700Y565600D03*
X598700Y573600D03*
X598700Y581600D03*
X598700Y589600D03*
D19*
X580700Y607600D03*
X572700Y607600D03*
X564700Y607600D03*
X556700Y607600D03*
X548700Y607600D03*
X540700Y607600D03*
X532700Y607600D03*
X524700Y607600D03*
X516700Y607600D03*
X508700Y607600D03*
X500700Y607600D03*
D10*
X646500Y490800D03*
X646500Y507800D03*
X540600Y452200D03*
X540600Y469200D03*
D11*
X441800Y561200D03*
X458800Y561200D03*
D10*
X623700Y543800D03*
X623700Y526800D03*
D20*
X239900Y408600D03*
X239900Y380600D03*
D10*
X168500Y316400D03*
X168500Y299400D03*
D21*
X179500Y464500D03*
X131500Y464500D03*
D17*
X207300Y317601D03*
X197800Y317601D03*
X188300Y317601D03*
X188300Y291599D03*
X207300Y291599D03*
D10*
X234000Y292100D03*
X234000Y309100D03*
D22*
X172507Y400200D03*
X149800Y400200D03*
X126915Y400200D03*
D23*
X149800Y340790D03*
D10*
X202500Y428800D03*
X202500Y411800D03*
X202500Y390300D03*
X202500Y373300D03*
D20*
X258300Y321800D03*
X258300Y293800D03*
D24*
X188300Y589370D03*
X188300Y543830D03*
D25*
X44500Y637400D02*
X30500Y637400D01*
X30500Y655400D01*
X44500Y655400D01*
X44500Y637400D01*
X44500Y643100D02*
X30500Y643100D01*
X30500Y648800D02*
X44500Y648800D01*
X44500Y654500D02*
X30500Y654500D01*
X30500Y523400D02*
X44500Y523400D01*
X30500Y523400D02*
X30500Y541400D01*
X44500Y541400D01*
X44500Y523400D01*
X44500Y529100D02*
X30500Y529100D01*
X30500Y534800D02*
X44500Y534800D01*
X44500Y540500D02*
X30500Y540500D01*
X91500Y637400D02*
X105500Y637400D01*
X91500Y637400D02*
X91500Y655400D01*
X105500Y655400D01*
X105500Y637400D01*
X105500Y643100D02*
X91500Y643100D01*
X91500Y648800D02*
X105500Y648800D01*
X105500Y654500D02*
X91500Y654500D01*
X91500Y523400D02*
X105500Y523400D01*
X91500Y523400D02*
X91500Y541400D01*
X105500Y541400D01*
X105500Y523400D01*
X105500Y529100D02*
X91500Y529100D01*
X91500Y534800D02*
X105500Y534800D01*
X105500Y540500D02*
X91500Y540500D01*
D26*
X447000Y541800D03*
X410000Y518800D03*
X447000Y518800D03*
X410000Y541800D03*
D11*
X397700Y558000D03*
X414700Y558000D03*
D10*
X388100Y535800D03*
X388100Y518800D03*
D27*
X855314Y493745D02*
X867506Y493745D01*
X867506Y472155D02*
X855314Y472155D01*
X855314Y450565D02*
X867506Y450565D01*
X867506Y428975D02*
X855314Y428975D01*
X855314Y407385D02*
X867506Y407385D01*
X867506Y385795D02*
X855314Y385795D01*
X855314Y364205D02*
X867506Y364205D01*
X867506Y342615D02*
X855314Y342615D01*
X855314Y321025D02*
X867506Y321025D01*
X867506Y299435D02*
X855314Y299435D01*
X855314Y277845D02*
X867506Y277845D01*
X867506Y256255D02*
X855314Y256255D01*
X898494Y493745D02*
X910686Y493745D01*
X910686Y472155D02*
X898494Y472155D01*
X898494Y450565D02*
X910686Y450565D01*
X910686Y428975D02*
X898494Y428975D01*
X898494Y407385D02*
X910686Y407385D01*
X910686Y385795D02*
X898494Y385795D01*
X898494Y364205D02*
X910686Y364205D01*
X910686Y342615D02*
X898494Y342615D01*
X898494Y321025D02*
X910686Y321025D01*
X910686Y299435D02*
X898494Y299435D01*
X898494Y277845D02*
X910686Y277845D01*
X910686Y256255D02*
X898494Y256255D01*
D28*
X883000Y608934D03*
X883000Y141066D03*
D10*
X271500Y115100D03*
X271500Y98100D03*
X89400Y424100D03*
X89400Y407100D03*
D29*
X58100Y424800D03*
X28100Y424800D03*
D10*
X90300Y324100D03*
X90300Y307100D03*
D29*
X58100Y341400D03*
X28100Y341400D03*
D11*
X765900Y123200D03*
X782900Y123200D03*
D13*
X794000Y69600D03*
X794000Y39600D03*
D11*
X600600Y721400D03*
X617600Y721400D03*
D10*
X812500Y703400D03*
X812500Y720400D03*
D11*
X499600Y195100D03*
X516600Y195100D03*
D10*
X337700Y540900D03*
X337700Y557900D03*
X296300Y540900D03*
X296300Y557900D03*
X314500Y540800D03*
X314500Y557800D03*
X275400Y586700D03*
X275400Y569700D03*
D11*
X750000Y142000D03*
X733000Y142000D03*
D10*
X347500Y220000D03*
X347500Y237000D03*
D30*
X407900Y711000D03*
X407900Y654000D03*
X382500Y711000D03*
X382500Y654000D03*
X357100Y711000D03*
X357100Y654000D03*
D31*
X787792Y377850D03*
X787792Y390550D03*
X787792Y403250D03*
X787792Y415950D03*
X787792Y428650D03*
X787792Y441350D03*
X787792Y454050D03*
X787792Y466750D03*
X687208Y466750D03*
X687208Y454050D03*
X687208Y441350D03*
X687208Y428650D03*
X687208Y415950D03*
X687208Y403250D03*
X687208Y390550D03*
X687208Y377850D03*
X787792Y479450D03*
X787792Y492150D03*
X687208Y479450D03*
X687208Y492150D03*
D11*
X746000Y355000D03*
X729000Y355000D03*
X572500Y439000D03*
X589500Y439000D03*
D32*
X50000Y50000D03*
X950000Y50000D03*
X950000Y700000D03*
X50000Y700000D03*
D33*
X75000Y167500D03*
X75000Y175500D03*
X75000Y151500D03*
X75000Y159500D03*
D34*
X20000Y122500D03*
X20000Y212500D03*
X75000Y122500D03*
X75000Y212500D03*
D33*
X75000Y183500D03*
D35*
X227500Y515000D03*
X52000Y392000D03*
X50000Y305000D03*
X122500Y682500D03*
D36*
X252250Y123440D03*
X245750Y123440D03*
X239250Y123440D03*
X232750Y123440D03*
X226250Y123440D03*
X219750Y123440D03*
X213250Y123440D03*
X200250Y123440D03*
X206750Y123440D03*
X193750Y123440D03*
X187250Y123440D03*
X180750Y123440D03*
X174250Y123440D03*
X167750Y123440D03*
X252250Y196560D03*
X245750Y196560D03*
X239250Y196560D03*
X232750Y196560D03*
X226250Y196560D03*
X219750Y196560D03*
X213250Y196560D03*
X206750Y196560D03*
X200250Y196560D03*
X193750Y196560D03*
X187250Y196560D03*
X180750Y196560D03*
X174250Y196560D03*
X167750Y196560D03*
D10*
X282500Y176000D03*
X282500Y159000D03*
D37*
X272660Y682253D03*
X272660Y699652D03*
X252340Y699652D03*
X252340Y680348D03*
D10*
X295000Y721000D03*
X295000Y704000D03*
X785000Y549500D03*
X785000Y566500D03*
X766000Y540000D03*
X766000Y557000D03*
X748000Y557000D03*
X748000Y574000D03*
X730000Y543000D03*
X730000Y560000D03*
D11*
X669000Y579000D03*
X652000Y579000D03*
X698500Y564000D03*
X681500Y564000D03*
D10*
X709000Y530500D03*
X709000Y547500D03*
X693000Y517500D03*
X693000Y534500D03*
D38*
X638650Y622788D03*
X651350Y622788D03*
X664050Y622788D03*
X676750Y622788D03*
X689450Y622788D03*
X702150Y622788D03*
X714850Y622788D03*
X727550Y622788D03*
X740250Y622788D03*
X752950Y622788D03*
X765650Y622788D03*
X778350Y622788D03*
X778350Y713212D03*
X765650Y713212D03*
X752950Y713212D03*
X740250Y713212D03*
X727550Y713212D03*
X714850Y713212D03*
X702150Y713212D03*
X689450Y713212D03*
X676750Y713212D03*
X664050Y713212D03*
X651350Y713212D03*
X638650Y713212D03*
D39*
X782712Y170150D03*
X782712Y182850D03*
X782712Y195550D03*
X782712Y208250D03*
X782712Y220950D03*
X782712Y233650D03*
X782712Y246350D03*
X782712Y259050D03*
X782712Y271750D03*
X782712Y284450D03*
X782712Y297150D03*
X782712Y309850D03*
X692288Y309850D03*
X692288Y297150D03*
X692288Y284450D03*
X692288Y271750D03*
X692288Y259050D03*
X692288Y246350D03*
X692288Y233650D03*
X692288Y220950D03*
X692288Y208250D03*
X692288Y195550D03*
X692288Y182850D03*
X692288Y170150D03*
D12*
X635000Y429900D03*
X635000Y442600D03*
X635000Y455300D03*
X635000Y468000D03*
D11*
X690000Y114000D03*
X707000Y114000D03*
X679000Y134500D03*
X696000Y134500D03*
D40*
X685000Y77500D03*
X695000Y77500D03*
X705000Y77500D03*
X715000Y77500D03*
D41*
X728000Y40750D03*
X672000Y40750D03*
D11*
X589500Y397500D03*
X572500Y397500D03*
X589500Y418500D03*
X572500Y418500D03*
D10*
X310000Y191500D03*
X310000Y208500D03*
X310000Y226000D03*
X310000Y209000D03*
X656000Y134000D03*
X656000Y117000D03*
D42*
X640500Y188500D03*
D43*
X639600Y182000D02*
X641400Y182000D01*
X641400Y175500D02*
X639600Y175500D01*
X658600Y175500D02*
X660400Y175500D01*
X660400Y182000D02*
X658600Y182000D01*
X658600Y188500D02*
X660400Y188500D01*
D11*
X572500Y460000D03*
X589500Y460000D03*
D10*
X637500Y401000D03*
X637500Y384000D03*
D11*
X685500Y354500D03*
X668500Y354500D03*
D10*
X485000Y658500D03*
X485000Y641500D03*
D44*
X399800Y18750D03*
X388800Y18750D03*
X377800Y18750D03*
X366800Y18750D03*
X355800Y18750D03*
X344800Y18750D03*
X333800Y18750D03*
X322800Y18750D03*
D45*
X438600Y18900D03*
D46*
X312000Y23750D03*
D47*
X440800Y131400D03*
X311200Y131400D03*
D48*
X417700Y143400D03*
D49*
X375050Y144150D03*
D50*
G36*
X593394Y280717D02*
X586323Y273646D01*
X568646Y291323D01*
X575717Y298394D01*
X593394Y280717D01*
G37*
G36*
X611354Y298677D02*
X604283Y291606D01*
X586606Y309283D01*
X593677Y316354D01*
X611354Y298677D01*
G37*
D51*
G36*
X584131Y318547D02*
X566453Y300869D01*
X524027Y343295D01*
X541705Y360973D01*
X584131Y318547D01*
G37*
D52*
X606550Y253000D03*
X593850Y253000D03*
X581150Y253000D03*
X568450Y253000D03*
X568450Y197000D03*
X581150Y197000D03*
X593850Y197000D03*
X606550Y197000D03*
D35*
X122500Y45000D03*
D53*
X616040Y100000D03*
X483960Y100000D03*
D54*
X550000Y100000D03*
D55*
X389306Y327000D03*
X389306Y320500D03*
X389306Y314000D03*
X389306Y307500D03*
X389306Y301000D03*
X389306Y294500D03*
X389306Y288000D03*
X445694Y288000D03*
X445694Y294500D03*
X445694Y301000D03*
X445694Y307500D03*
X445694Y314000D03*
X445694Y320500D03*
X445694Y327000D03*
D56*
X389306Y264500D03*
X389306Y258000D03*
X389306Y251500D03*
X389306Y245000D03*
X389306Y238500D03*
X389306Y232000D03*
X389306Y225500D03*
X445694Y225500D03*
X445694Y232000D03*
X445694Y238500D03*
X445694Y245000D03*
X445694Y251500D03*
X445694Y258000D03*
X445694Y264500D03*
D10*
X477500Y269000D03*
X477500Y286000D03*
X477500Y326000D03*
X477500Y309000D03*
D57*
X314500Y567500D02*
X357000Y610000D01*
X314500Y567500D02*
X314500Y557800D01*
X357000Y610000D02*
X380000Y610000D01*
X470200Y589600D02*
X482700Y589600D01*
X470200Y589600D02*
X458800Y601000D01*
D58*
X458000Y608000D03*
X380000Y610000D03*
D57*
X458000Y608000D02*
X458800Y607200D01*
X458800Y601000D01*
X382500Y658500D02*
X421000Y697000D01*
X382500Y658500D02*
X382500Y654000D01*
D59*
X382500Y639000D01*
X380000Y636500D01*
D57*
X380000Y610000D01*
X635500Y729000D02*
X661000Y729000D01*
X664050Y725950D02*
X664050Y713212D01*
X664050Y725950D02*
X661000Y729000D01*
D60*
X635500Y729000D02*
X632500Y726000D01*
X553000Y697000D02*
X421000Y697000D01*
X553000Y697000D02*
X570000Y680000D01*
X622500Y680000D01*
X632500Y690000D01*
X632500Y726000D01*
D57*
X407900Y711000D02*
X407900Y700400D01*
X481800Y582500D02*
X482700Y581600D01*
X481800Y582500D02*
X470000Y582500D01*
X450000Y602500D01*
X450000Y629000D02*
X450500Y629500D01*
X450000Y629000D02*
X450000Y602500D01*
D58*
X450500Y629500D03*
X422750Y628489D03*
D57*
X423750Y627489D01*
X423750Y616250D01*
X407500Y600000D01*
X367500Y600000D01*
X337700Y570200D01*
X337700Y557900D01*
X450500Y629500D02*
X450500Y687000D01*
X450000Y687500D01*
D61*
X450000Y687500D03*
X450000Y705000D03*
D57*
X445500Y700500D01*
X428000Y700500D01*
X417500Y711000D02*
X407900Y711000D01*
X417500Y711000D02*
X428000Y700500D01*
X382500Y711000D02*
X382000Y710500D01*
X377500Y706000D01*
X377500Y697500D01*
X365000Y685000D01*
X335000Y685000D01*
X296300Y646300D02*
X296300Y557900D01*
X296300Y646300D02*
X335000Y685000D01*
X471400Y573600D02*
X482700Y573600D01*
X471400Y573600D02*
X444500Y600500D01*
X431000Y690388D02*
X433612Y693000D01*
D58*
X431000Y690388D03*
X431500Y708000D03*
D57*
X431500Y716000D02*
X420000Y727500D01*
X387500Y727500D01*
X382000Y722000D02*
X382000Y710500D01*
X431500Y708000D02*
X431500Y716000D01*
X387500Y727500D02*
X382000Y722000D01*
X747401Y653599D02*
X752950Y648050D01*
D60*
X752950Y622788D01*
D57*
X444500Y600500D02*
X444500Y677549D01*
X658505Y653599D02*
X747401Y653599D01*
X445000Y693000D02*
X433612Y693000D01*
X445000Y693000D02*
X551500Y693000D01*
X569500Y675000D01*
X637104Y675000D01*
X658505Y653599D01*
X445000Y678049D02*
X444500Y677549D01*
X445000Y678049D02*
X445000Y693000D01*
D62*
X548700Y607600D02*
X550000Y608900D01*
X550000Y632600D02*
X554100Y636700D01*
X550000Y632600D02*
X550000Y608900D01*
X482700Y557600D02*
X461400Y557600D01*
X458800Y560200D01*
X458800Y561200D01*
X540700Y492500D02*
X540700Y491600D01*
X540700Y492500D02*
X540700Y504300D01*
X540000Y505000D01*
D63*
X540000Y525000D01*
X540000Y557500D01*
X540000Y575000D01*
X548700Y583700D01*
D64*
X548700Y607600D01*
D62*
X494144Y557600D02*
X482700Y557600D01*
X494144Y557600D02*
X495791Y559247D01*
D63*
X538253Y559247D01*
D62*
X540000Y557500D01*
X207300Y317601D02*
X207300Y311300D01*
X201500Y305500D01*
X194500Y305500D01*
X188300Y311700D01*
X188300Y317601D01*
D64*
X149800Y340790D02*
X149800Y400200D01*
D65*
X149800Y340790D02*
X173290Y340790D01*
X185000Y352500D01*
X202500Y352500D01*
X240000Y352500D01*
X260000Y352500D01*
X282500Y375000D01*
D64*
X179210Y340790D02*
X149800Y340790D01*
X188300Y331700D02*
X188300Y317601D01*
X188300Y331700D02*
X179210Y340790D01*
D65*
X239900Y380600D02*
X240000Y380500D01*
X240000Y352500D01*
D64*
X169701Y317601D02*
X168500Y316400D01*
X169701Y317601D02*
X188300Y317601D01*
D66*
X149800Y315200D02*
X149800Y340790D01*
D64*
X149800Y315200D02*
X150000Y315000D01*
D66*
X150000Y280000D01*
D58*
X150000Y280000D03*
X150000Y263000D03*
D65*
X257500Y537500D02*
X257500Y600000D01*
X257500Y537500D02*
X282500Y512500D01*
D64*
X260800Y353300D02*
X260000Y352500D01*
D63*
X407900Y642900D02*
X407900Y654000D01*
X395000Y630000D02*
X387500Y630000D01*
D58*
X387500Y630000D03*
X257500Y629500D03*
D63*
X257500Y600000D01*
X395000Y630000D02*
X407900Y642900D01*
D62*
X554100Y636700D02*
X559200Y636700D01*
D67*
X562500Y640000D01*
X565500Y640000D01*
D58*
X565500Y640000D03*
X595973Y669500D03*
D65*
X282500Y480500D02*
X282500Y375000D01*
X282500Y480500D02*
X282500Y504500D01*
X282500Y512500D01*
D58*
X282500Y504500D03*
X555000Y525000D03*
D65*
X540000Y525000D01*
X290000Y492500D02*
X275000Y492500D01*
D58*
X290000Y492500D03*
X282500Y480500D03*
X542500Y525000D03*
D63*
X544000Y517500D02*
X544000Y575000D01*
D64*
X717500Y355000D02*
X729000Y355000D01*
X717500Y355000D02*
X695000Y377500D01*
D58*
X717000Y170500D03*
X720000Y370000D03*
D64*
X712500Y377500D01*
X695000Y377500D01*
X720000Y370000D02*
X732500Y357500D01*
D58*
X637500Y500500D03*
D64*
X202500Y373300D02*
X202500Y352500D01*
D59*
X732500Y141500D02*
X733000Y142000D01*
X731750Y140750D02*
X729250Y138250D01*
D67*
X544000Y575000D02*
X540000Y575000D01*
D59*
X687208Y377850D02*
X687558Y377500D01*
X695000Y377500D01*
D63*
X149800Y340790D02*
X103210Y340790D01*
X52000Y392000D01*
D66*
X150000Y263000D02*
X162000Y263000D01*
X177500Y247500D01*
X177500Y220000D01*
X172500Y215000D01*
X165000Y215000D02*
X160000Y210000D01*
X160000Y185000D01*
D64*
X232750Y180250D02*
X232750Y196560D01*
D66*
X172500Y215000D02*
X165000Y215000D01*
X160000Y185000D02*
X170000Y175000D01*
X227500Y175000D01*
D64*
X232750Y180250D01*
D62*
X260000Y88000D02*
X274600Y73400D01*
X260000Y88000D02*
X260000Y115500D01*
X260000Y167500D01*
X251500Y176000D01*
X247250Y180250D02*
X232750Y180250D01*
D67*
X540600Y469200D02*
X540600Y492400D01*
X540700Y492500D01*
D64*
X282500Y176000D02*
X257500Y176000D01*
X251500Y176000D01*
D62*
X247250Y180250D01*
D58*
X275000Y492500D03*
X532500Y525000D03*
D65*
X540000Y525000D01*
D62*
X252340Y670160D02*
X252340Y680348D01*
X252340Y670160D02*
X257500Y665000D01*
X257500Y629500D01*
D68*
X617600Y721400D02*
X631700Y735500D01*
X668500Y735500D01*
D64*
X676750Y727250D02*
X676750Y713212D01*
D63*
X676750Y727250D02*
X668500Y735500D01*
D68*
X617600Y721400D02*
X617500Y721500D01*
D61*
X601000Y709000D03*
X618000Y709000D03*
D63*
X812500Y720400D02*
X812500Y730000D01*
D68*
X807000Y735500D01*
X668500Y735500D01*
D63*
X617600Y721400D02*
X617600Y709400D01*
X618000Y709000D01*
D68*
X618500Y709247D02*
X598500Y709247D01*
D57*
X542500Y525000D02*
X540000Y525000D01*
X618000Y709000D02*
X618253Y709000D01*
X618500Y709247D01*
D63*
X601000Y709000D02*
X600753Y709247D01*
X598500Y709247D01*
D66*
X692288Y170150D02*
X716650Y170150D01*
X717000Y170500D01*
X720500Y170500D01*
X732500Y158500D01*
X732500Y141500D01*
X731750Y140750D01*
D62*
X646500Y490800D02*
X646500Y491000D01*
X646500Y491500D02*
X637500Y500500D01*
D57*
X646500Y491000D02*
X646500Y490500D01*
X646500Y491000D02*
X646500Y491500D01*
D64*
X732500Y141500D02*
X731000Y140000D01*
D68*
X715000Y172500D02*
X715000Y182500D01*
X715000Y172500D02*
X717000Y170500D01*
X715500Y182500D02*
X715000Y182500D01*
D61*
X715500Y182500D03*
D62*
X623000Y429000D02*
X603000Y429000D01*
X623000Y429000D02*
X632000Y420000D01*
X637500Y420000D01*
X640000Y420000D01*
X644500Y476000D02*
X646500Y478000D01*
X646500Y490500D01*
X644500Y424500D02*
X640000Y420000D01*
X644500Y424500D02*
X644500Y476000D01*
X603000Y429000D02*
X592500Y418500D01*
X589500Y418500D01*
X589000Y418000D01*
X589000Y398000D01*
X589500Y397500D01*
D64*
X310000Y191500D02*
X273000Y191500D01*
X257500Y176000D01*
D67*
X816099Y716801D02*
X838200Y716801D01*
X816099Y716801D02*
X812500Y720400D01*
D62*
X595973Y669500D02*
X496000Y669500D01*
X485000Y658500D01*
D57*
X637500Y420000D02*
X637500Y401000D01*
D62*
X89400Y407100D02*
X74300Y392000D01*
X52000Y392000D01*
D57*
X271100Y115500D02*
X271500Y115100D01*
X271100Y115500D02*
X260000Y115500D01*
D67*
X606550Y197000D02*
X606550Y207050D01*
D61*
X640000Y217500D03*
D64*
X617000Y217500D01*
X606550Y207050D01*
D62*
X459500Y327000D02*
X445694Y327000D01*
X459500Y327000D02*
X460000Y327500D01*
D61*
X460000Y327500D03*
X475000Y347500D03*
D62*
X482500Y355000D02*
X482500Y482500D01*
X482500Y355000D02*
X475000Y347500D01*
X482500Y482500D02*
X485000Y485000D01*
D61*
X485000Y485000D03*
D62*
X477500Y326000D02*
X460500Y326000D01*
X459500Y327000D01*
D57*
X495000Y347500D02*
X527500Y315000D01*
X495000Y347500D02*
X475000Y347500D01*
X527500Y220000D02*
X522500Y215000D01*
X516400Y215000D01*
X527500Y220000D02*
X527500Y315000D01*
D62*
X275400Y586700D02*
X275400Y594100D01*
X269500Y600000D01*
X257500Y600000D01*
X540500Y441500D02*
X540600Y441600D01*
D64*
X540600Y452200D01*
D58*
X540500Y441500D03*
X431000Y561500D03*
D64*
X525500Y637000D02*
X534500Y637000D01*
D58*
X525500Y637000D03*
D62*
X540700Y615700D02*
X540700Y607600D01*
X542500Y617500D02*
X542500Y630000D01*
X542500Y617500D02*
X540700Y615700D01*
X542500Y630000D02*
X535800Y636700D01*
X598300Y550000D02*
X598700Y549600D01*
D58*
X580000Y550000D03*
D62*
X580500Y550000D02*
X598300Y550000D01*
X580500Y550000D02*
X580000Y550000D01*
X548700Y508700D02*
X548700Y491600D01*
X548700Y508700D02*
X549000Y509000D01*
X549000Y509500D01*
X550000Y510500D01*
D58*
X550000Y510500D03*
X540000Y590000D03*
X501000Y569500D03*
D62*
X639420Y526900D02*
X639420Y519920D01*
X632000Y512500D01*
D58*
X632000Y512500D03*
D62*
X625000Y525500D02*
X623700Y526800D01*
X625000Y525500D02*
X625000Y518500D01*
X631000Y512500D01*
X632000Y512500D01*
D58*
X746000Y191000D03*
D68*
X746000Y158000D01*
D64*
X750000Y154000D02*
X750000Y142000D01*
X750000Y154000D02*
X746000Y158000D01*
X441800Y561200D02*
X431300Y561200D01*
D62*
X431000Y561500D01*
X442300Y561200D02*
X452500Y551000D01*
X442300Y561200D02*
X441800Y561200D01*
X452500Y551000D02*
X488500Y551000D01*
X388100Y541600D02*
X388100Y535800D01*
X388100Y541600D02*
X392500Y546000D01*
X396700Y557000D02*
X397700Y558000D01*
X396700Y557000D02*
X396700Y550200D01*
X392500Y546000D01*
D58*
X392500Y546000D03*
D62*
X428500Y561500D02*
X431000Y561500D01*
X428500Y561500D02*
X422500Y567500D01*
X402500Y567500D01*
X397700Y562700D01*
X397700Y558000D01*
X540000Y590000D02*
X540000Y605000D01*
D58*
X274000Y334500D03*
D64*
X197800Y330300D02*
X197800Y317601D01*
X273500Y335000D02*
X274000Y334500D01*
X273500Y335000D02*
X257500Y335000D01*
X202500Y335000D02*
X197800Y330300D01*
X202500Y335000D02*
X215000Y335000D01*
X232500Y335000D01*
X257500Y335000D01*
X258300Y334200D01*
X234000Y333500D02*
X234000Y309100D01*
X234000Y333500D02*
X232500Y335000D01*
D69*
X131500Y464500D02*
X131500Y481500D01*
X104000Y509000D01*
D65*
X98500Y532400D02*
X98500Y532900D01*
X38000Y532900D01*
X37500Y532400D01*
X37500Y514905D02*
X42500Y509905D01*
X37500Y514905D02*
X37500Y532400D01*
D58*
X42500Y509905D03*
X105000Y510000D03*
D65*
X104000Y509000D02*
X104000Y511000D01*
X105000Y510000D01*
D62*
X28100Y424800D02*
X28100Y341400D01*
X28100Y424800D02*
X28100Y495505D01*
X42500Y509905D01*
D65*
X130000Y463000D02*
X131500Y464500D01*
D69*
X130000Y463000D02*
X130000Y442500D01*
X117500Y430000D01*
D58*
X117500Y430000D03*
X230000Y430000D03*
D65*
X235410Y430000D02*
X241010Y424400D01*
X235410Y430000D02*
X230000Y430000D01*
D67*
X228800Y428800D01*
X202500Y428800D01*
D64*
X168500Y299400D02*
X168500Y291500D01*
X175000Y285000D01*
D58*
X175000Y285000D03*
D64*
X220000Y328500D02*
X220000Y330000D01*
X215000Y335000D01*
D62*
X175000Y285000D02*
X180000Y280000D01*
X195000Y280000D01*
X200000Y285000D01*
X200000Y297500D01*
X203944Y301444D01*
X203973Y301444D01*
X204529Y302000D01*
X211500Y302000D01*
X220000Y310500D01*
X220000Y328500D01*
D58*
X219500Y327000D03*
X122500Y96500D03*
D65*
X20400Y212508D02*
X20400Y225400D01*
X30000Y235000D01*
D58*
X30000Y235000D03*
X30000Y102500D03*
D64*
X29900Y102400D01*
X29900Y102500D01*
D58*
X85000Y235000D03*
X85000Y102500D03*
D64*
X84900Y102400D01*
D65*
X75500Y225500D02*
X85000Y235000D01*
X75500Y225500D02*
X75500Y212590D01*
X32300Y100100D02*
X119200Y100100D01*
X32300Y100100D02*
X29900Y102500D01*
D58*
X652500Y100000D03*
D63*
X651700Y99200D01*
D62*
X183750Y658760D02*
X183750Y660000D01*
X183750Y714640D02*
X167860Y714640D01*
X167500Y715000D01*
D58*
X167500Y715000D03*
X167500Y657500D03*
D62*
X172500Y657500D01*
X181250Y657500D01*
X183750Y660000D01*
D58*
X290000Y682500D03*
D64*
X356100Y655000D02*
X357100Y654000D01*
D58*
X340000Y655000D03*
D64*
X356100Y655000D01*
D58*
X525427Y657218D03*
D63*
X550000Y510500D02*
X565500Y510500D01*
X572000Y517000D01*
X575000Y511000D02*
X575000Y510500D01*
X575000Y511000D02*
X575000Y545000D01*
X580000Y550000D01*
D58*
X500000Y550000D03*
X514500Y510500D03*
X529000Y569500D03*
X568000Y550000D03*
X574500Y510500D03*
D63*
X572000Y517000D02*
X572000Y542000D01*
X572000Y549000D01*
X575000Y550000D02*
X577500Y550000D01*
D58*
X580500Y590000D03*
X594500Y611000D03*
D63*
X575000Y550000D02*
X568000Y550000D01*
X578000Y552500D02*
X580500Y550000D01*
X578000Y552500D02*
X575000Y552500D01*
X573500Y552500D01*
X570000Y552500D01*
D66*
X594500Y602929D02*
X594500Y611000D01*
X581571Y590000D02*
X580500Y590000D01*
X581571Y590000D02*
X594500Y602929D01*
X580500Y589000D02*
X568500Y577000D01*
X568500Y550000D01*
D63*
X528500Y569000D02*
X501000Y569000D01*
X559500Y510500D02*
X575000Y510500D01*
D66*
X580500Y589000D02*
X580500Y590000D01*
D58*
X781000Y318500D03*
D62*
X787792Y492150D02*
X787442Y492500D01*
D58*
X772500Y492500D03*
D64*
X787442Y492500D01*
D62*
X745500Y355500D02*
X746000Y355000D01*
D64*
X745500Y355500D02*
X745500Y366000D01*
D58*
X745500Y366000D03*
X728500Y341000D03*
X707000Y343000D03*
D63*
X726500Y343000D02*
X728500Y341000D01*
X726500Y343000D02*
X707000Y343000D01*
D58*
X432500Y636000D03*
X432500Y597500D03*
D63*
X432500Y636000D01*
D58*
X308500Y642500D03*
X308500Y619000D03*
D63*
X308500Y617000D02*
X308500Y643500D01*
X368500Y517500D02*
X368500Y467500D01*
D58*
X368500Y517500D03*
X368500Y467500D03*
D59*
X482700Y549600D02*
X487100Y549600D01*
X488500Y551000D01*
X568750Y553750D02*
X570000Y552500D01*
X575000Y552500D02*
X577500Y550000D01*
X575000Y545000D02*
X572000Y542000D01*
X540000Y606900D02*
X540700Y607600D01*
X540000Y606900D02*
X540000Y605000D01*
X575000Y511000D02*
X574500Y510500D01*
X308500Y642500D02*
X308500Y643500D01*
X568000Y553000D02*
X568750Y553750D01*
X568000Y553000D02*
X568000Y550000D01*
X501000Y569000D02*
X501000Y569500D01*
X308500Y617000D02*
X308500Y619000D01*
X568000Y550000D02*
X568500Y550000D01*
D65*
X22400Y120100D02*
X22400Y110100D01*
X30000Y102500D01*
X75400Y112100D02*
X75400Y122370D01*
X75400Y112100D02*
X85000Y102500D01*
D63*
X75000Y122500D02*
X75000Y151500D01*
D64*
X147500Y657500D02*
X122500Y682500D01*
X147500Y657500D02*
X172500Y657500D01*
D67*
X180600Y81400D02*
X202700Y81400D01*
X180600Y81400D02*
X180400Y81600D01*
X170900Y81600D01*
X202700Y81400D02*
X203900Y81400D01*
X213161Y90661D02*
X213161Y92500D01*
D58*
X213161Y92500D03*
D67*
X213161Y90661D02*
X203900Y81400D01*
X213161Y92500D02*
X213161Y104339D01*
X206750Y110750D02*
X206750Y123440D01*
X206750Y110750D02*
X213161Y104339D01*
D64*
X191600Y234000D02*
X191600Y249900D01*
X191500Y250000D01*
X191500Y251000D01*
D58*
X191500Y251000D03*
D67*
X191500Y217000D02*
X207500Y217000D01*
X213500Y211000D01*
X213500Y196810D01*
X213250Y196560D01*
D63*
X107300Y237600D02*
X87600Y237600D01*
X85000Y235000D01*
X107300Y237600D02*
X107300Y248700D01*
X107000Y249000D01*
X107000Y250000D01*
X107500Y250500D01*
D58*
X107500Y250500D03*
X207500Y234000D03*
D64*
X191600Y234000D01*
X191600Y217100D01*
X191500Y217000D01*
D58*
X191500Y217000D03*
D65*
X89500Y235900D02*
X30000Y235900D01*
D62*
X213250Y196560D02*
X213250Y183750D01*
X213000Y183500D01*
D58*
X213000Y183500D03*
X235500Y137500D03*
D62*
X236000Y137500D02*
X239250Y134250D01*
X236000Y137500D02*
X235500Y137500D01*
X239250Y134250D02*
X239250Y123440D01*
X232750Y134750D02*
X235500Y137500D01*
X232750Y134750D02*
X232750Y123440D01*
X207500Y124190D02*
X206750Y123440D01*
X207500Y124190D02*
X207500Y137500D01*
D58*
X207500Y137500D03*
X184702Y137202D03*
D62*
X184798Y137202D02*
X187500Y134500D01*
X184798Y137202D02*
X184702Y137202D01*
X187500Y134500D02*
X187500Y123690D01*
X187250Y123440D01*
D58*
X667000Y506000D03*
X681000Y533000D03*
D63*
X681000Y520000D01*
X675500Y514500D01*
D58*
X253500Y411000D03*
D63*
X667000Y506000D02*
X675500Y514500D01*
D58*
X501000Y580000D03*
X523500Y590000D03*
D64*
X786000Y501000D02*
X786000Y490000D01*
D58*
X765500Y309500D03*
D63*
X137400Y81600D02*
X122500Y96500D01*
X137400Y81600D02*
X170900Y81600D01*
D58*
X660000Y100000D03*
D64*
X356100Y647500D02*
X340000Y647500D01*
D58*
X340000Y647500D03*
D64*
X861410Y256255D02*
X904590Y256255D01*
D63*
X501000Y569500D02*
X501000Y589000D01*
X485000Y605000D01*
X501000Y590000D02*
X540000Y590000D01*
D58*
X485000Y605000D03*
X501000Y589500D03*
D63*
X574500Y510500D02*
X579500Y510500D01*
X592000Y498000D01*
D58*
X592000Y498000D03*
D67*
X548700Y491600D02*
X548700Y443700D01*
X546600Y441600D02*
X540600Y441600D01*
X546600Y441600D02*
X548700Y443700D01*
D58*
X169661Y81500D03*
D67*
X282500Y147500D02*
X282500Y159000D01*
D61*
X282500Y147500D03*
D66*
X573500Y552500D02*
X573500Y579500D01*
X576000Y582000D02*
X576000Y555000D01*
D58*
X234000Y322000D03*
D62*
X183750Y658760D02*
X183750Y714640D01*
D58*
X561500Y589000D03*
X561000Y545000D03*
D70*
X290000Y682500D02*
X272907Y682500D01*
X272660Y682253D01*
D62*
X714850Y696000D02*
X714850Y713212D01*
X714850Y696000D02*
X702500Y696000D01*
X702150Y696500D02*
X689000Y696500D01*
X688500Y697000D02*
X688500Y712262D01*
X688500Y697000D02*
X689000Y696500D01*
X688500Y712262D02*
X689450Y713212D01*
X702150Y713212D02*
X702150Y696500D01*
X727550Y696000D02*
X727550Y713212D01*
X727550Y696000D02*
X715000Y696000D01*
X709500Y696000D01*
X740000Y712962D02*
X740250Y713212D01*
X740000Y712962D02*
X740000Y696000D01*
D63*
X715000Y696000D01*
D61*
X689000Y696500D03*
X740000Y696000D03*
D63*
X715000Y696000D02*
X702500Y696000D01*
X688500Y696000D01*
D62*
X690000Y642500D02*
X689450Y641950D01*
X689450Y622788D01*
D61*
X690000Y642500D03*
X727500Y642500D03*
D62*
X727000Y642000D01*
X727000Y623338D01*
X727550Y622788D01*
D63*
X727500Y642500D02*
X714850Y642500D01*
X710000Y642500D01*
D64*
X702150Y642500D02*
X700000Y642500D01*
D63*
X690000Y642500D01*
D62*
X702150Y642500D02*
X702150Y622788D01*
X714850Y622788D02*
X714850Y642500D01*
D67*
X600600Y721400D02*
X599500Y722500D01*
X590000Y722500D01*
D61*
X590000Y722500D03*
X812500Y690000D03*
D63*
X812500Y703400D01*
D58*
X579500Y658500D03*
X609500Y658500D03*
D68*
X610000Y658400D02*
X577484Y658400D01*
D58*
X650500Y551500D03*
X680500Y545000D03*
D68*
X664855Y551000D02*
X651000Y551000D01*
X650500Y551500D01*
X670855Y545000D02*
X680500Y545000D01*
X670855Y545000D02*
X664855Y551000D01*
D63*
X680500Y545000D02*
X681000Y544500D01*
X681000Y533000D01*
D58*
X613000Y693000D03*
D68*
X615000Y692900D02*
X584484Y692900D01*
D58*
X587000Y693000D03*
D70*
X297400Y689900D02*
X290000Y682500D01*
X297400Y689900D02*
X316950Y689900D01*
D61*
X708500Y642500D03*
X708500Y696000D03*
D58*
X786000Y500500D03*
D57*
X20400Y212508D02*
X20000Y212500D01*
X702150Y696350D02*
X702150Y696500D01*
X702150Y696350D02*
X702500Y696000D01*
X708500Y696000D02*
X715000Y696000D01*
D63*
X710000Y642500D02*
X700000Y642500D01*
D57*
X708500Y642500D02*
X710000Y642500D01*
X614900Y693000D02*
X613000Y693000D01*
X614900Y693000D02*
X615000Y692900D01*
X787792Y492150D02*
X786000Y490358D01*
X786000Y490000D01*
X609600Y658400D02*
X609500Y658500D01*
X609600Y658400D02*
X610000Y658400D01*
X579500Y658500D02*
X579400Y658400D01*
X577484Y658400D01*
X537100Y636700D02*
X535800Y636700D01*
X534800Y636700D02*
X537100Y636700D01*
X534800Y636700D02*
X534500Y637000D01*
X561500Y584000D02*
X568500Y577000D01*
X561500Y584000D02*
X561500Y589000D01*
X576000Y551000D02*
X575000Y550000D01*
X576000Y551000D02*
X576000Y555000D01*
X568000Y550000D02*
X563000Y545000D01*
X561000Y545000D01*
X357100Y654000D02*
X356100Y653000D01*
X356100Y647500D01*
X234000Y333500D02*
X234000Y322000D01*
X75500Y212590D02*
X75000Y212500D01*
X30000Y235000D02*
X30000Y235900D01*
X169761Y81600D02*
X169661Y81500D01*
X169761Y81600D02*
X170900Y81600D01*
X75400Y122370D02*
X75000Y122500D01*
X22600Y120100D02*
X20000Y122500D01*
X22400Y120100D02*
X22600Y120100D01*
D63*
X514500Y510500D02*
X514500Y535500D01*
X500000Y550000D01*
D64*
X487500Y550000D01*
X487100Y549600D01*
D68*
X241010Y424400D02*
X241010Y409710D01*
X239900Y408600D01*
X242300Y411000D01*
X253500Y411000D01*
X431000Y596000D02*
X432500Y597500D01*
X431000Y596000D02*
X431000Y561500D01*
D63*
X746000Y355000D02*
X746000Y345000D01*
X742000Y341000D01*
X728500Y341000D01*
D58*
X259000Y309500D03*
D64*
X258300Y321800D02*
X258300Y334200D01*
X258800Y321200D02*
X258800Y308800D01*
D61*
X601000Y732000D03*
D67*
X601000Y722500D01*
X781000Y318500D02*
X781000Y311562D01*
X782712Y309850D01*
X778938Y309500D02*
X765500Y309500D01*
X778938Y309500D02*
X781000Y311562D01*
D58*
X746000Y159000D03*
X706500Y351000D03*
X733500Y336000D03*
D63*
X707000Y343000D02*
X706500Y343500D01*
X706500Y351000D01*
X729500Y339500D02*
X733500Y335500D01*
D68*
X746000Y238500D02*
X746000Y191000D01*
X746000Y238500D02*
X746000Y278918D01*
X745959Y278959D01*
D61*
X745500Y279000D03*
X745500Y491500D03*
D63*
X745500Y366000D01*
D57*
X733500Y336000D02*
X733500Y335500D01*
D62*
X571500Y438000D02*
X571500Y442500D01*
D61*
X571500Y449500D03*
D62*
X571500Y442500D01*
D64*
X652500Y100000D02*
X677500Y100000D01*
X685000Y92500D01*
D57*
X762370Y39000D02*
X778000Y39000D01*
X780000Y39000D01*
X794000Y39000D01*
X794000Y39600D01*
D61*
X778000Y39000D03*
X740000Y39500D03*
X715000Y39500D03*
X684500Y39500D03*
X659500Y39500D03*
D58*
X673000Y501000D03*
D63*
X681000Y509000D02*
X681000Y520000D01*
D64*
X685000Y92500D02*
X685000Y77500D01*
D63*
X672000Y40750D02*
X670750Y39500D01*
X659500Y39500D01*
X672000Y40750D02*
X673250Y39500D01*
X684500Y39500D01*
X715000Y39500D02*
X726750Y39500D01*
X728000Y40750D01*
X729500Y39250D02*
X739750Y39250D01*
X729500Y39250D02*
X728000Y40750D01*
X739750Y39250D02*
X740000Y39500D01*
X715000Y39500D02*
X684500Y39500D01*
D64*
X656000Y103500D02*
X656000Y117000D01*
X656000Y103500D02*
X652500Y100000D01*
X740000Y39500D02*
X761870Y39500D01*
X762370Y39000D01*
X763170Y39000D02*
X780000Y39000D01*
X778000Y39000D02*
X794000Y39000D01*
D70*
X685000Y40000D02*
X685000Y77500D01*
X685000Y40000D02*
X684500Y39500D01*
D64*
X611400Y549600D02*
X598700Y549600D01*
D62*
X611400Y549600D02*
X611500Y549500D01*
D61*
X611500Y549500D03*
D63*
X650500Y551500D02*
X650750Y551750D01*
D61*
X645000Y557500D03*
D63*
X650750Y551750D01*
X676000Y543000D02*
X676000Y515500D01*
X681000Y509000D02*
X673000Y501000D01*
X670000Y504000D02*
X678000Y512000D01*
D58*
X704000Y422000D03*
X726000Y427000D03*
D63*
X721000Y422000D02*
X704000Y422000D01*
X721000Y422000D02*
X726000Y427000D01*
D58*
X707000Y240000D03*
X729500Y240000D03*
D63*
X707000Y240000D01*
D64*
X812500Y690000D02*
X824000Y701500D01*
X852200Y701500D01*
X857200Y696500D02*
X857200Y690799D01*
X857200Y696500D02*
X852200Y701500D01*
D67*
X571500Y459000D02*
X571500Y449500D01*
X571500Y459000D02*
X572500Y460000D01*
D62*
X703000Y354500D02*
X706500Y351000D01*
X703000Y354500D02*
X685500Y354500D01*
D57*
X572500Y439000D02*
X572500Y441500D01*
X571500Y442500D01*
X675500Y514500D02*
X678000Y512000D01*
X675500Y514500D02*
X675500Y515000D01*
X676000Y515500D01*
X259000Y309500D02*
X259000Y309000D01*
X258800Y308800D01*
D63*
X652500Y100000D02*
X660000Y100000D01*
X729500Y240000D02*
X744500Y240000D01*
X746000Y238500D01*
D61*
X303000Y144500D03*
X448500Y144000D03*
D64*
X441750Y144000D01*
X311000Y144500D02*
X303000Y144500D01*
D61*
X377000Y220000D03*
X347500Y249500D03*
D63*
X347500Y237000D01*
D61*
X463500Y238500D03*
X355000Y249500D03*
D63*
X347500Y249500D02*
X347000Y249500D01*
X347500Y249500D02*
X355500Y249500D01*
D67*
X568450Y253000D02*
X568450Y265950D01*
X568500Y266000D01*
X568000Y266500D01*
D61*
X568000Y266500D03*
D64*
X550000Y154500D02*
X550000Y100000D01*
X550000Y154500D02*
X550500Y155000D01*
X550500Y156500D01*
D61*
X550500Y156500D03*
D58*
X707500Y215000D03*
X728500Y215000D03*
D63*
X744000Y215000D02*
X707500Y215000D01*
X712500Y234500D02*
X707000Y240000D01*
X712500Y220000D02*
X707500Y215000D01*
X712500Y220000D02*
X712500Y234500D01*
D67*
X382500Y225500D02*
X377000Y220000D01*
X382500Y225500D02*
X389306Y225500D01*
D61*
X379000Y282500D03*
D67*
X385000Y288000D02*
X389306Y288000D01*
X385000Y288000D02*
X379500Y282500D01*
X379000Y282500D01*
D61*
X461500Y294500D03*
D62*
X461500Y295000D01*
X459000Y295000D02*
X459000Y300000D01*
X459000Y312500D01*
X459000Y317000D01*
X455500Y320500D02*
X445694Y320500D01*
X455500Y320500D02*
X459000Y317000D01*
X457500Y314000D02*
X459000Y312500D01*
X457500Y314000D02*
X445694Y314000D01*
X458000Y301000D02*
X459000Y300000D01*
X458000Y301000D02*
X445694Y301000D01*
X459000Y295000D02*
X461500Y295000D01*
X459000Y295000D02*
X446194Y295000D01*
X445694Y294500D01*
X389306Y288000D02*
X380500Y288000D01*
X377000Y291500D01*
X377000Y301000D01*
X377000Y305500D01*
X379000Y307500D01*
X389306Y307500D01*
X389306Y301000D02*
X377000Y301000D01*
D61*
X378500Y331000D03*
D62*
X382500Y327000D02*
X389306Y327000D01*
X382500Y327000D02*
X378500Y331000D01*
X458000Y238500D02*
X463500Y238500D01*
X459000Y237500D02*
X459000Y250000D01*
X459000Y255500D01*
X456500Y258000D01*
X445694Y258000D01*
X457500Y251500D02*
X459000Y250000D01*
X457500Y251500D02*
X445694Y251500D01*
X458000Y238500D02*
X459000Y237500D01*
X458000Y238500D02*
X445694Y238500D01*
D61*
X404000Y262500D03*
X374000Y252500D03*
D62*
X377500Y245000D02*
X389306Y245000D01*
X377500Y245000D02*
X374000Y248500D01*
X374000Y252500D01*
X389306Y264500D02*
X402000Y264500D01*
X404000Y262500D01*
X475000Y297500D02*
X477500Y295000D01*
X477500Y286000D01*
D61*
X475000Y297500D03*
D62*
X477500Y300000D02*
X477500Y309000D01*
X477500Y300000D02*
X475000Y297500D01*
D67*
X600600Y721400D02*
X600600Y731600D01*
X601000Y732000D01*
D63*
X344800Y30441D02*
X344800Y18750D01*
X344800Y30441D02*
X344292Y30500D01*
X342000Y30500D01*
D61*
X342000Y30500D03*
X350500Y30500D03*
D63*
X344292Y30500D01*
X312000Y23750D02*
X307750Y19500D01*
X303000Y19500D01*
X303000Y20000D01*
D61*
X303000Y20000D03*
D63*
X438600Y18900D02*
X448600Y18900D01*
X449000Y18500D01*
X449000Y19000D01*
D61*
X449000Y19000D03*
D64*
X311000Y118500D02*
X303000Y118500D01*
D61*
X303000Y118500D03*
D64*
X441250Y118500D02*
X448500Y118500D01*
D61*
X448500Y118500D03*
D70*
X311200Y131400D02*
X311000Y131600D01*
X311000Y144500D01*
D62*
X418300Y144000D02*
X448500Y144000D01*
X418300Y144000D02*
X417700Y143400D01*
D64*
X274000Y323000D02*
X274000Y334500D01*
X274000Y323000D02*
X347500Y249500D01*
D65*
X105000Y510000D02*
X98500Y516500D01*
X98500Y532400D01*
X122500Y96800D02*
X122500Y96500D01*
X122500Y96800D02*
X119200Y100100D01*
D62*
X598700Y557600D02*
X598702Y557583D01*
X598706Y557566D01*
X598713Y557550D01*
X598723Y557536D01*
X598736Y557523D01*
X598750Y557513D01*
X598766Y557506D01*
X598783Y557502D01*
X598800Y557500D01*
X638420Y553580D02*
X638420Y544900D01*
X634500Y557500D02*
X598800Y557500D01*
X634500Y557500D02*
X638420Y553580D01*
X638420Y544900D02*
X639420Y543900D01*
D68*
X238401Y291599D02*
X207300Y291599D01*
D63*
X238401Y291599D02*
X240000Y290000D01*
D68*
X254500Y290000D01*
D63*
X258300Y293800D01*
X207500Y280000D02*
X199500Y272000D01*
D62*
X207500Y280000D02*
X207300Y280200D01*
D63*
X207300Y291599D01*
D59*
X234000Y292100D02*
X237900Y292100D01*
X238401Y291599D01*
D64*
X310000Y226000D02*
X311500Y227500D01*
D68*
X309600Y242500D02*
X258300Y293800D01*
X309600Y242500D02*
X310000Y242500D01*
X310000Y242000D02*
X318500Y242000D01*
X330000Y230500D01*
X330000Y227500D01*
X337500Y220000D01*
X347500Y220000D01*
D67*
X310000Y226000D02*
X310000Y242000D01*
D62*
X516400Y235500D02*
X516400Y255900D01*
X517400Y254900D01*
X480500Y267500D02*
X478750Y265750D01*
X477500Y264500D01*
X495000Y267500D02*
X500000Y272500D01*
X495000Y267500D02*
X480500Y267500D01*
D61*
X500000Y272500D03*
X517500Y272500D03*
D62*
X517500Y236600D01*
X516400Y235500D01*
D63*
X69500Y305000D02*
X65000Y305000D01*
X50000Y305000D01*
X102500Y272000D02*
X199500Y272000D01*
X102500Y272000D02*
X69500Y305000D01*
D62*
X88300Y305100D02*
X90300Y307100D01*
X88300Y305100D02*
X65100Y305100D01*
X65000Y305000D01*
X445694Y264500D02*
X477500Y264500D01*
X477500Y269000D02*
X479000Y269000D01*
X480500Y267500D01*
D63*
X445000Y205500D02*
X378500Y205500D01*
X445000Y205500D02*
X478000Y238500D01*
X478000Y265000D01*
X478750Y265750D01*
X376500Y207500D02*
X365000Y207500D01*
D57*
X516400Y232200D02*
X516400Y235500D01*
D63*
X366800Y26800D02*
X366800Y18750D01*
X366800Y26800D02*
X367500Y27500D01*
X365000Y30000D01*
D61*
X365000Y30000D03*
X365000Y210000D03*
D63*
X365000Y207500D01*
D61*
X372000Y30000D03*
D63*
X366800Y24800D02*
X366800Y18750D01*
X366800Y24800D02*
X372000Y30000D01*
D61*
X372500Y210500D03*
D63*
X376500Y207500D02*
X378500Y205500D01*
X376500Y207500D02*
X373500Y210500D01*
X372500Y210500D01*
D57*
X292329Y129629D02*
X291600Y128900D01*
X292329Y129629D02*
X292329Y154829D01*
X319500Y182000D01*
X310000Y225000D02*
X310000Y226000D01*
X310000Y225000D02*
X299500Y214500D01*
X299500Y202500D01*
X302500Y199500D01*
X316500Y199500D01*
X319500Y196500D01*
X319500Y182000D01*
D63*
X375500Y206500D02*
X376500Y207500D01*
X354000Y206500D02*
X347500Y213000D01*
X347500Y220000D01*
X354000Y206500D02*
X375500Y206500D01*
D69*
X188300Y515000D02*
X188300Y543830D01*
X188300Y515000D02*
X188300Y490800D01*
X179500Y482000D02*
X179500Y464500D01*
X179500Y482000D02*
X188300Y490800D01*
X179500Y464500D02*
X179500Y459500D01*
X127500Y407500D01*
D65*
X127500Y400785D01*
X126915Y400200D01*
D68*
X188300Y515000D02*
X227500Y515000D01*
D67*
X200250Y100850D02*
X202700Y98400D01*
X200250Y100850D02*
X200250Y120000D01*
X200250Y123440D01*
D68*
X148100Y234000D02*
X131500Y250600D01*
X148100Y234000D02*
X163600Y234000D01*
D64*
X152500Y222900D01*
X152500Y180000D01*
X200250Y132250D01*
X200250Y120000D01*
D59*
X126600Y161500D02*
X114000Y161500D01*
X100000Y175500D01*
X75000Y175500D01*
X124100Y144000D02*
X126600Y144000D01*
X124100Y144000D02*
X100600Y167500D01*
X75000Y167500D01*
X251000Y79000D02*
X251000Y72700D01*
X219750Y110250D02*
X219750Y123440D01*
X219750Y110250D02*
X251000Y79000D01*
X221000Y72700D02*
X221000Y103000D01*
X213250Y110750D02*
X213250Y123440D01*
X213250Y110750D02*
X221000Y103000D01*
D67*
X180400Y98600D02*
X180400Y123090D01*
X180750Y123440D01*
D57*
X296300Y536700D02*
X296300Y540900D01*
X296300Y536700D02*
X314000Y519000D01*
X314000Y300500D01*
X376000Y238500D02*
X389306Y238500D01*
X376000Y238500D02*
X314000Y300500D01*
X318500Y522800D02*
X314500Y526800D01*
X314500Y540800D01*
X318500Y522800D02*
X318500Y311500D01*
D61*
X326894Y303000D03*
X334000Y311000D03*
D57*
X423000Y244500D02*
X435500Y232000D01*
X445694Y232000D01*
X326894Y303000D02*
X326894Y303106D01*
X318500Y311500D01*
X334000Y311000D02*
X374500Y270500D01*
X406500Y270500D01*
X423000Y254000D01*
X423000Y244500D01*
X428329Y222171D02*
X399000Y251500D01*
X389306Y251500D01*
X394330Y27115D02*
X414615Y27115D01*
X394330Y27115D02*
X388800Y21585D01*
X388800Y18750D01*
X414615Y27115D02*
X456500Y69000D01*
D61*
X451500Y200500D03*
X432000Y222171D03*
D57*
X428329Y222171D01*
X456500Y195500D02*
X456500Y69000D01*
X456500Y195500D02*
X451500Y200500D01*
X385830Y30115D02*
X377800Y22085D01*
X377800Y18750D01*
X412615Y30115D02*
X453714Y71214D01*
X412615Y30115D02*
X385830Y30115D01*
X453714Y71214D02*
X453714Y189000D01*
X446194Y225000D02*
X445694Y225500D01*
X446194Y225000D02*
X446194Y215694D01*
X442699Y212199D01*
X431301Y212199D02*
X430750Y212750D01*
X431301Y212199D02*
X442699Y212199D01*
X431000Y213000D02*
X430750Y212750D01*
D61*
X430750Y212750D03*
X450829Y193000D03*
D57*
X450829Y191885D01*
X453714Y189000D01*
X389806Y232500D02*
X389306Y232000D01*
X389806Y232500D02*
X413000Y232500D01*
X355800Y18750D02*
X355800Y16700D01*
X362500Y10000D02*
X407000Y10000D01*
X462000Y65000D01*
X462000Y203500D01*
X441000Y218500D02*
X440000Y217500D01*
X428000Y217500D01*
D61*
X441000Y218500D03*
X465000Y206500D03*
D57*
X462000Y203500D01*
X428000Y217500D02*
X413000Y232500D01*
X355800Y16700D02*
X362500Y10000D01*
X499400Y255900D02*
X499400Y261400D01*
X505000Y267000D01*
X505000Y320500D01*
X489500Y336000D01*
X417000Y336000D01*
X401500Y320500D02*
X389306Y320500D01*
X401500Y320500D02*
X417000Y336000D01*
X333800Y18750D02*
X334500Y18050D01*
X334500Y12500D01*
X340000Y7000D01*
X408500Y7000D01*
X464500Y63000D01*
X464500Y142000D01*
X508000Y185500D01*
X508000Y247000D01*
X499400Y255600D01*
X499400Y255900D01*
X499600Y214800D02*
X499600Y195100D01*
X499600Y214800D02*
X499400Y215000D01*
X393400Y162500D02*
X375050Y144150D01*
X393400Y162500D02*
X448000Y162500D01*
X448500Y162500D01*
D61*
X448000Y162500D03*
X468000Y165500D03*
D57*
X497600Y195100D02*
X499600Y195100D01*
X497600Y195100D02*
X468000Y165500D01*
X326500Y327136D02*
X326500Y517700D01*
X337700Y528900D01*
X326500Y327136D02*
X339636Y314000D01*
X389306Y314000D01*
X337700Y528900D02*
X337700Y540900D01*
D63*
X90500Y193500D02*
X80500Y183500D01*
X75000Y183500D01*
X90500Y193500D02*
X98500Y193500D01*
X107500Y202500D01*
X107300Y202700D01*
X107300Y220600D01*
X129500Y220600D01*
X131500Y222600D01*
D59*
X271500Y98100D02*
X271500Y93000D01*
X282500Y42700D02*
X251000Y42700D01*
D57*
X285000Y84600D02*
X271500Y98100D01*
X285000Y45200D02*
X282500Y42700D01*
X285000Y45200D02*
X285000Y84600D01*
D59*
X274600Y56400D02*
X234700Y56400D01*
X221000Y42700D01*
D57*
X409900Y489900D02*
X426900Y489900D01*
X409900Y489900D02*
X374500Y454500D01*
X352000Y454500D01*
X342500Y445000D01*
X342500Y325000D01*
X290000Y247500D02*
X288000Y247500D01*
X252250Y211750D01*
D61*
X290000Y247500D03*
X347000Y320500D03*
D57*
X342500Y325000D01*
X252250Y211750D02*
X252250Y196560D01*
X424000Y467500D02*
X426100Y469600D01*
X395000Y467500D02*
X377500Y450000D01*
X355000Y450000D01*
X349500Y444500D01*
X395000Y467500D02*
X424000Y467500D01*
X247500Y212000D02*
X231500Y212000D01*
X247500Y212000D02*
X284000Y248500D01*
X284000Y253000D01*
D61*
X284000Y253000D03*
X349500Y328000D03*
D57*
X349500Y444500D01*
X226250Y206750D02*
X226250Y196560D01*
X226250Y206750D02*
X231500Y212000D01*
D59*
X174250Y140279D02*
X153515Y161015D01*
X174250Y140279D02*
X174250Y123440D01*
X153515Y161015D02*
X144086Y161015D01*
D70*
X143600Y161500D01*
D59*
X143600Y144000D02*
X147600Y140000D01*
X162500Y140000D01*
X167750Y134750D02*
X167750Y123440D01*
X167750Y134750D02*
X162500Y140000D01*
D70*
X861410Y493745D02*
X878000Y477155D01*
X878000Y447000D02*
X871000Y440000D01*
X860500Y440000D01*
X813550Y390550D02*
X787792Y390550D01*
X878000Y447000D02*
X878000Y477155D01*
D57*
X651350Y672650D02*
X651350Y713212D01*
X651350Y672650D02*
X664000Y660000D01*
X765500Y660000D01*
X815500Y610000D01*
D61*
X831500Y510748D03*
D57*
X815500Y526748D02*
X815500Y610000D01*
X815500Y526748D02*
X831500Y510748D01*
X840000Y417000D02*
X813550Y390550D01*
X840000Y435500D02*
X844500Y440000D01*
X860500Y440000D01*
X840000Y435500D02*
X840000Y417000D01*
X725000Y436500D02*
X717150Y428650D01*
X687208Y428650D01*
X725000Y436500D02*
X725000Y509500D01*
X730000Y514500D02*
X730000Y543000D01*
X730000Y514500D02*
X725000Y509500D01*
D70*
X787792Y403250D02*
X788542Y402500D01*
D57*
X638650Y678850D02*
X638650Y713212D01*
X660500Y657000D02*
X764000Y657000D01*
X660500Y657000D02*
X638650Y678850D01*
X764000Y657000D02*
X811500Y609500D01*
X811500Y518500D01*
X824000Y506000D01*
D61*
X824000Y506000D03*
D57*
X849655Y472155D02*
X861410Y472155D01*
X849655Y472155D02*
X840000Y462500D01*
X840000Y445000D02*
X835000Y440000D01*
X835000Y420000D01*
X817500Y402500D01*
X788542Y402500D01*
X840000Y445000D02*
X840000Y462500D01*
D58*
X833500Y453000D03*
D57*
X640000Y621438D02*
X638650Y622788D01*
X640000Y621438D02*
X640000Y609000D01*
X649500Y599500D01*
X772000Y599500D01*
X795500Y576000D01*
X754000Y431000D02*
X770000Y415000D01*
X786842Y415000D01*
X787792Y415950D01*
X795500Y540000D02*
X795500Y576000D01*
X833500Y453000D02*
X831500Y451000D01*
X831500Y423500D01*
X824000Y416000D01*
X787842Y416000D02*
X787792Y415950D01*
X787842Y416000D02*
X824000Y416000D01*
X754000Y498500D02*
X795500Y540000D01*
X754000Y498500D02*
X754000Y431000D01*
D58*
X825000Y429500D03*
D70*
X788071Y428929D02*
X787792Y428650D01*
D57*
X651350Y612650D02*
X651350Y622788D01*
X651350Y612650D02*
X661500Y602500D01*
X774000Y602500D01*
X799000Y577500D01*
X787642Y428500D02*
X763000Y428500D01*
X787642Y428500D02*
X787792Y428650D01*
X788642Y429500D02*
X825000Y429500D01*
X788642Y429500D02*
X788071Y428929D01*
X763000Y428500D02*
X758000Y433500D01*
X758000Y497267D02*
X799000Y538267D01*
X799000Y577500D01*
X758000Y497267D02*
X758000Y433500D01*
D58*
X833277Y462223D03*
D57*
X767500Y620938D02*
X765650Y622788D01*
X767500Y620938D02*
X767500Y614000D01*
X802500Y579000D01*
X802500Y536500D01*
X762000Y496000D01*
X762000Y445500D01*
X766150Y441350D02*
X787792Y441350D01*
X766150Y441350D02*
X762000Y445500D01*
X827500Y456446D02*
X833277Y462223D01*
X827500Y448500D02*
X820350Y441350D01*
X787792Y441350D01*
X827500Y448500D02*
X827500Y456446D01*
D58*
X820500Y453000D03*
D57*
X778350Y608150D02*
X778350Y622788D01*
X778350Y608150D02*
X806000Y580500D01*
X806000Y535000D01*
X765500Y494500D01*
X787506Y454336D02*
X787792Y454050D01*
X787506Y454336D02*
X769950Y454336D01*
X765500Y458786D02*
X765500Y494500D01*
X765500Y458786D02*
X769950Y454336D01*
X788842Y453000D02*
X820500Y453000D01*
X788842Y453000D02*
X787792Y454050D01*
D70*
X787792Y466750D02*
X804250Y466750D01*
X915000Y507500D02*
X921000Y501500D01*
X845000Y507500D02*
X804250Y466750D01*
X845000Y507500D02*
X915000Y507500D01*
X913065Y450565D02*
X904590Y450565D01*
X921000Y458500D02*
X921000Y501500D01*
X921000Y458500D02*
X913065Y450565D01*
D57*
X778350Y657150D02*
X778350Y713212D01*
X778350Y657150D02*
X824500Y611000D01*
X824500Y550500D01*
X856500Y518500D01*
X924000Y518500D01*
X933500Y509000D01*
X933500Y452065D01*
X932000Y450565D01*
D61*
X932000Y450565D03*
D70*
X817500Y375000D02*
X817500Y270000D01*
X806550Y259050D01*
X855000Y407385D02*
X861410Y407385D01*
X855000Y407385D02*
X849885Y407385D01*
X817500Y375000D01*
D57*
X806550Y259050D02*
X782712Y259050D01*
X859000Y522500D02*
X828700Y552800D01*
X859000Y522500D02*
X926500Y522500D01*
X938500Y510500D01*
X938500Y419000D01*
X916000Y396500D01*
X883500Y396500D01*
X872500Y407500D01*
X855115Y407500D01*
X855000Y407385D01*
X793401Y647099D02*
X793401Y655500D01*
X793401Y647099D02*
X828700Y611800D01*
X828700Y552800D01*
X828700Y690799D02*
X838200Y690799D01*
X828700Y690799D02*
X793401Y655500D01*
D70*
X834205Y364205D02*
X861410Y364205D01*
X827500Y357500D02*
X827500Y257500D01*
X803650Y233650D01*
X827500Y357500D02*
X834205Y364205D01*
D57*
X803650Y233650D02*
X782712Y233650D01*
D70*
X861295Y342500D02*
X861410Y342615D01*
X861295Y342500D02*
X840000Y342500D01*
X832500Y335000D01*
X832500Y252500D01*
X801000Y221000D01*
D57*
X782762Y221000D01*
X782712Y220950D01*
D70*
X843525Y321025D02*
X861410Y321025D01*
X843525Y321025D02*
X838000Y315500D01*
X838000Y243000D01*
X803500Y208500D01*
D57*
X782962Y208500D01*
X782712Y208250D01*
X664050Y622788D02*
X664050Y643550D01*
X670000Y649500D01*
X739500Y649500D01*
X744000Y645000D01*
D61*
X744000Y645000D03*
X799500Y650500D03*
D57*
X882500Y334115D02*
X869410Y321025D01*
X861410Y321025D01*
X882500Y334115D02*
X882500Y369000D01*
X888500Y375000D01*
X917500Y375000D01*
X944000Y401500D01*
X944000Y511500D01*
X832500Y614000D02*
X799500Y647000D01*
X799500Y650500D01*
X832500Y614000D02*
X832500Y556000D01*
X861500Y527000D01*
X928500Y527000D01*
X944000Y511500D01*
D70*
X807500Y287500D02*
X806950Y286950D01*
D58*
X810000Y290000D03*
D70*
X806950Y286950D02*
X805000Y285000D01*
X807500Y287500D02*
X810000Y290000D01*
D57*
X805000Y285000D02*
X783262Y285000D01*
X782712Y284450D01*
D70*
X760000Y320000D02*
X760000Y232500D01*
X904590Y407385D02*
X893975Y418000D01*
X777500Y337500D02*
X760000Y320000D01*
X777500Y337500D02*
X802500Y337500D01*
X810000Y345000D01*
X810000Y380000D01*
X848000Y418000D01*
X893975Y418000D01*
D57*
X760000Y232500D02*
X760000Y204000D01*
X768450Y195550D02*
X782712Y195550D01*
X768450Y195550D02*
X760000Y204000D01*
D62*
X621500Y541600D02*
X598700Y541600D01*
X621500Y541600D02*
X622200Y542300D01*
X623700Y543800D01*
X646500Y515247D02*
X646500Y507800D01*
X646500Y515247D02*
X648706Y517453D01*
X648706Y533347D01*
X646553Y535500D02*
X629000Y535500D01*
X622200Y542300D01*
X646553Y535500D02*
X648706Y533347D01*
D57*
X525000Y446000D02*
X524500Y446000D01*
D58*
X524500Y446000D03*
X489000Y445888D03*
D57*
X489000Y440888D01*
X532200Y491100D02*
X532700Y491600D01*
X532200Y491100D02*
X532200Y453200D01*
X525000Y446000D01*
X489000Y440888D02*
X628500Y301388D01*
X680000Y195550D02*
X692288Y195550D01*
X628500Y257500D02*
X628500Y301388D01*
X643500Y242500D02*
X660500Y242500D01*
X669500Y233500D01*
X669500Y206050D01*
X680000Y195550D01*
X643500Y242500D02*
X628500Y257500D01*
X517700Y608600D02*
X517700Y638700D01*
X526455Y647455D01*
X517700Y608600D02*
X516700Y607600D01*
X648545Y647455D02*
X658000Y638000D01*
X648545Y647455D02*
X526455Y647455D01*
D60*
X658000Y638000D02*
X658000Y611500D01*
X663599Y605901D01*
X730901Y605901D02*
X742500Y617500D01*
X740250Y619750D01*
X740250Y622788D01*
X730901Y605901D02*
X663599Y605901D01*
D57*
X516700Y607600D02*
X516700Y619800D01*
X495000Y641500D02*
X485000Y641500D01*
X495000Y641500D02*
X516700Y619800D01*
D69*
X67400Y616500D02*
X37500Y646400D01*
X161170Y616500D02*
X188300Y589370D01*
X161170Y616500D02*
X67400Y616500D01*
D64*
X202500Y411800D02*
X202500Y390300D01*
X202200Y390000D01*
X182500Y390000D01*
X172507Y399993D01*
X172507Y400200D01*
D57*
X508200Y491100D02*
X508700Y491600D01*
D58*
X649000Y265500D03*
X647000Y248000D03*
D57*
X660500Y248000D02*
X673750Y234750D01*
X660500Y248000D02*
X647000Y248000D01*
X508200Y434800D02*
X508200Y491100D01*
X649000Y268000D02*
X649000Y265500D01*
X649000Y268000D02*
X642500Y274500D01*
X642500Y300500D01*
X508200Y434800D01*
X673750Y234750D02*
X673750Y216250D01*
X692038Y208500D02*
X692288Y208250D01*
X692038Y208500D02*
X681500Y208500D01*
X673750Y216250D01*
X676750Y642678D02*
X676500Y642928D01*
X676750Y642678D02*
X676750Y622788D01*
D61*
X676500Y642928D03*
X677500Y665500D03*
D57*
X679000Y664000D02*
X725500Y664000D01*
X679000Y664000D02*
X677500Y665500D01*
X725500Y664000D02*
X759500Y698000D01*
X759500Y725500D01*
X761500Y727500D01*
X787000Y727500D01*
X802500Y712000D01*
X823500Y712000D02*
X827000Y708500D01*
X848899Y708500D01*
X857200Y716801D01*
X823500Y712000D02*
X802500Y712000D01*
X524700Y491600D02*
X524700Y457200D01*
X517500Y450000D01*
X517500Y434550D01*
X524700Y491600D02*
X525000Y491900D01*
X650000Y278500D02*
X656750Y271750D01*
X692288Y271750D01*
X650000Y278500D02*
X650000Y302050D01*
X517500Y434550D01*
D70*
X917050Y511950D02*
X926000Y503000D01*
X809792Y479950D02*
X788292Y479950D01*
X787792Y479450D01*
X839500Y511950D02*
X917050Y511950D01*
X926000Y441000D02*
X913975Y428975D01*
X904590Y428975D01*
X926000Y441000D02*
X926000Y503000D01*
D57*
X765650Y664850D02*
X765650Y713212D01*
X765650Y664850D02*
X820000Y610500D01*
X820000Y532000D01*
X839500Y512500D01*
X839500Y511950D01*
X839500Y509658D02*
X809792Y479950D01*
X839500Y509658D02*
X839500Y511950D01*
D62*
X482700Y541600D02*
X447200Y541600D01*
X447000Y541800D01*
X441300Y547500D01*
X428700Y547500D02*
X418200Y558000D01*
X414700Y558000D01*
X428700Y547500D02*
X441300Y547500D01*
X421300Y518800D02*
X410000Y518800D01*
X421300Y518800D02*
X431500Y529000D01*
X467600Y533600D02*
X482700Y533600D01*
X463000Y529000D02*
X431500Y529000D01*
X463000Y529000D02*
X467600Y533600D01*
X410000Y518800D02*
X388100Y518800D01*
D58*
X658973Y539973D03*
X535922Y622636D03*
D57*
X532700Y619414D01*
X532700Y607600D01*
X655250Y510750D02*
X658000Y513500D01*
X658000Y539973D01*
X658973Y539973D01*
X711500Y310000D02*
X711500Y266500D01*
X704050Y259050D02*
X692288Y259050D01*
X704050Y259050D02*
X711500Y266500D01*
X655250Y442250D02*
X655250Y510750D01*
X655250Y442250D02*
X654500Y441500D01*
X654500Y342500D01*
X681000Y316000D02*
X705500Y316000D01*
X711500Y310000D01*
X681000Y316000D02*
X654500Y342500D01*
D58*
X651027Y541973D03*
X525000Y622500D03*
D57*
X525000Y607900D01*
X524700Y607600D01*
X661500Y533000D02*
X661500Y509000D01*
X661500Y533000D02*
X665000Y536500D01*
X661500Y509000D02*
X658000Y505500D01*
X665000Y536500D02*
X665000Y541500D01*
X661500Y545000D01*
X654054Y545000D02*
X651027Y541973D01*
X654054Y545000D02*
X661500Y545000D01*
X715000Y311500D02*
X715000Y254000D01*
X707000Y246000D01*
X692638Y246000D01*
X692288Y246350D01*
X658000Y344500D02*
X658000Y505500D01*
X658000Y344500D02*
X682500Y320000D01*
X706500Y320000D01*
X715000Y311500D01*
X468556Y503556D02*
X459600Y494600D01*
X472600Y517600D02*
X482700Y517600D01*
X468556Y513556D02*
X468556Y503556D01*
X468556Y513556D02*
X472600Y517600D01*
X459600Y494600D02*
X459600Y477100D01*
X452100Y469600D02*
X443100Y469600D01*
X452100Y469600D02*
X459600Y477100D01*
X462500Y505000D02*
X462500Y517500D01*
X470600Y525600D01*
X482700Y525600D01*
X447400Y489900D02*
X443900Y489900D01*
X447400Y489900D02*
X462500Y505000D01*
D62*
X89400Y424100D02*
X88700Y424800D01*
X58100Y424800D01*
X73100Y341300D02*
X90300Y324100D01*
X73100Y341300D02*
X58200Y341300D01*
X58100Y341400D01*
D60*
X775700Y102320D02*
X775700Y71700D01*
X773500Y69500D01*
X762670Y69500D01*
X762370Y69800D01*
X793500Y112600D02*
X782900Y123200D01*
X793500Y112600D02*
X793500Y70100D01*
X794000Y69600D01*
D57*
X275400Y559600D02*
X275400Y569700D01*
X275400Y559600D02*
X285500Y549500D01*
X507500Y608800D02*
X507500Y616000D01*
X507500Y608800D02*
X508700Y607600D01*
X416500Y615112D02*
X416500Y622112D01*
X416500Y615112D02*
X405214Y603826D01*
D58*
X416500Y622112D03*
X466429Y622429D03*
D57*
X501071Y622429D01*
X507500Y616000D01*
X322500Y315500D02*
X380000Y258000D01*
X389306Y258000D01*
X323500Y549500D02*
X285500Y549500D01*
X323500Y549500D02*
X325500Y547500D01*
X325500Y525000D01*
X322500Y522000D01*
X322500Y315500D01*
X325500Y547500D02*
X325500Y568500D01*
X360826Y603826D02*
X405214Y603826D01*
X360826Y603826D02*
X325500Y568500D01*
X711050Y390550D02*
X739000Y418500D01*
X711050Y390550D02*
X687208Y390550D01*
X739000Y418500D02*
X739000Y493500D01*
X785000Y539500D02*
X785000Y549500D01*
X785000Y539500D02*
X739000Y493500D01*
X735500Y421500D02*
X716500Y402500D01*
X687958Y402500D01*
X687208Y403250D01*
X735500Y421500D02*
X735500Y509500D01*
X766000Y540000D01*
X732500Y424000D02*
X724450Y415950D01*
X687208Y415950D01*
X732500Y424000D02*
X732500Y512000D01*
X748000Y527500D02*
X748000Y557000D01*
X748000Y527500D02*
X732500Y512000D01*
X701500Y579000D02*
X669000Y579000D01*
X720750Y447750D02*
X714350Y441350D01*
X687208Y441350D01*
X720750Y447750D02*
X720750Y559750D01*
X701500Y579000D01*
X494500Y439500D02*
X632500Y301500D01*
X494500Y439500D02*
X494500Y497800D01*
X482700Y509600D01*
X632500Y301500D02*
X632500Y268500D01*
X642000Y259000D02*
X660000Y259000D01*
X686500Y232500D01*
X691138Y232500D01*
X692288Y233650D01*
X642000Y259000D02*
X632500Y268500D01*
D58*
X640500Y268500D03*
X640500Y254000D03*
D57*
X500700Y437771D02*
X500700Y491600D01*
X500700Y437771D02*
X547471Y391000D01*
X547500Y391000D01*
X637500Y271500D02*
X640500Y268500D01*
X637500Y271500D02*
X637500Y301000D01*
X547500Y391000D01*
X640500Y254000D02*
X660000Y254000D01*
X677500Y236500D01*
X677500Y222500D01*
X679000Y221000D01*
X692238Y221000D02*
X692288Y220950D01*
X692238Y221000D02*
X679000Y221000D01*
X513944Y451473D02*
X516700Y454229D01*
X513944Y451473D02*
X513944Y451444D01*
X512500Y450000D01*
X512500Y434971D01*
X646000Y301471D01*
X516700Y454229D02*
X516700Y491600D01*
X692288Y284450D02*
X699550Y284450D01*
X708000Y276000D01*
X708000Y268500D02*
X704500Y265000D01*
X658000Y265000D01*
X646000Y277000D01*
X646000Y301471D01*
X708000Y276000D02*
X708000Y268500D01*
D70*
X822500Y264500D02*
X822500Y367500D01*
X822500Y264500D02*
X804500Y246500D01*
X861115Y385500D02*
X861410Y385795D01*
X861115Y385500D02*
X840500Y385500D01*
X822500Y367500D01*
D57*
X804500Y246500D02*
X782862Y246500D01*
X782712Y246350D01*
D58*
X810000Y275000D03*
D70*
X806500Y271500D01*
D57*
X782962Y271500D01*
X782712Y271750D01*
X847700Y683700D02*
X847700Y690799D01*
X836500Y672500D02*
X836500Y558000D01*
X863000Y531500D01*
X931000Y531500D01*
X949500Y513000D01*
X836500Y672500D02*
X847700Y683700D01*
X949500Y513000D02*
X949500Y317500D01*
X920500Y288500D02*
X884000Y288500D01*
X873345Y277845D01*
X861410Y277845D01*
X920500Y288500D02*
X949500Y317500D01*
X787792Y355292D02*
X787792Y377850D01*
X787792Y355292D02*
X760000Y327500D01*
X669000Y429000D02*
X670500Y430500D01*
X669000Y429000D02*
X669000Y370500D01*
D58*
X670500Y430500D03*
D70*
X755500Y327500D02*
X756472Y327500D01*
D60*
X756472Y194528D01*
X768500Y182500D01*
X782362Y182500D01*
X782712Y182850D01*
X760000Y327500D02*
X755500Y327500D01*
D57*
X635000Y429900D02*
X629600Y429900D01*
X620500Y439000D01*
X572700Y477300D02*
X572700Y491600D01*
X572700Y477300D02*
X580500Y469500D01*
X580500Y454000D01*
X589500Y445000D01*
X589500Y439000D02*
X620500Y439000D01*
X589500Y439000D02*
X589500Y445000D01*
X669000Y370500D02*
X676500Y363000D01*
X676500Y336500D01*
X685500Y327500D01*
X760000Y327500D01*
D58*
X670000Y445500D03*
D57*
X670000Y487500D01*
X674650Y492150D01*
X687208Y492150D01*
X580900Y491400D02*
X580700Y491600D01*
X581500Y490800D02*
X629700Y442600D01*
X635000Y442600D01*
X589500Y460000D02*
X589500Y471500D01*
X581500Y479500D01*
X581500Y490800D01*
X580900Y491400D01*
X598700Y509600D02*
X600000Y508300D01*
X600000Y481000D01*
X650329Y453000D02*
X650500Y452829D01*
X650500Y371000D01*
X681650Y309850D02*
X692288Y309850D01*
X681650Y309850D02*
X650500Y341000D01*
X625700Y455300D02*
X600000Y481000D01*
X625700Y455300D02*
X635000Y455300D01*
D61*
X650329Y453000D03*
D57*
X637500Y384000D02*
X650500Y371000D01*
X650500Y341000D01*
D70*
X252500Y699812D02*
X252340Y699652D01*
X252500Y699812D02*
X252500Y710000D01*
X247500Y715000D01*
X222210Y715000D01*
X221850Y714640D01*
X221850Y658760D01*
D57*
X440000Y596000D02*
X470500Y565500D01*
D58*
X440000Y687500D03*
X440000Y707612D03*
D57*
X440000Y715000D01*
X422500Y732500D01*
X370000Y732500D01*
X357100Y719600D02*
X357100Y711000D01*
X440000Y687500D02*
X440000Y596000D01*
X357100Y719600D02*
X370000Y732500D01*
X470500Y565500D02*
X482600Y565500D01*
D70*
X304000Y730000D02*
X295000Y721000D01*
X304000Y730000D02*
X335000Y730000D01*
X354000Y711000D01*
X357100Y711000D01*
D57*
X482700Y565600D02*
X482600Y565500D01*
X708000Y564000D02*
X717500Y554500D01*
X708000Y564000D02*
X698500Y564000D01*
X687208Y454050D02*
X713050Y454050D01*
X717500Y458500D02*
X717500Y554500D01*
X717500Y458500D02*
X713050Y454050D01*
X709000Y471500D02*
X709000Y530500D01*
X709000Y471500D02*
X705000Y467500D01*
X687958Y467500D01*
X687208Y466750D01*
X687208Y479450D02*
X699344Y479450D01*
X702500Y482606D01*
X702500Y507500D01*
X693000Y517000D01*
X693000Y517500D01*
X556700Y607600D02*
X556700Y621700D01*
X570000Y635000D01*
X608500Y635000D01*
X647500Y596000D01*
X785000Y580500D02*
X785000Y566500D01*
X785000Y580500D02*
X769500Y596000D01*
X647500Y596000D01*
X565000Y607900D02*
X564700Y607600D01*
X565000Y607900D02*
X565000Y622500D01*
X572500Y630000D01*
X610000Y630000D01*
X766000Y580000D02*
X766000Y557000D01*
X766000Y580000D02*
X753000Y593000D01*
X647000Y593000D02*
X610000Y630000D01*
X647000Y593000D02*
X753000Y593000D01*
X572700Y607600D02*
X572700Y619800D01*
X572500Y620000D01*
X577500Y625000D01*
X611500Y625000D01*
X646500Y590000D01*
X732000Y590000D02*
X748000Y574000D01*
X732000Y590000D02*
X646500Y590000D01*
X580700Y607600D02*
X580700Y618200D01*
X582500Y620000D01*
X612500Y620000D01*
X703000Y587000D02*
X730000Y560000D01*
X703000Y587000D02*
X645500Y587000D01*
X612500Y620000D01*
X598700Y589600D02*
X635900Y589600D01*
X646500Y579000D02*
X652000Y579000D01*
X646500Y579000D02*
X635900Y589600D01*
X653500Y564000D02*
X681500Y564000D01*
X653500Y564000D02*
X635900Y581600D01*
X598700Y581600D01*
X701500Y555000D02*
X709000Y547500D01*
X701500Y555000D02*
X675000Y555000D01*
X669000Y561000D01*
X653000Y561000D01*
X598800Y573700D02*
X598700Y573600D01*
X640300Y573700D02*
X653000Y561000D01*
X640300Y573700D02*
X598800Y573700D01*
X598700Y565600D02*
X643900Y565600D01*
X652000Y557500D01*
X667500Y557500D01*
X673300Y551700D01*
X693000Y545500D02*
X693000Y534500D01*
X693000Y545500D02*
X686800Y551700D01*
X673300Y551700D01*
D70*
X277008Y704000D02*
X272660Y699652D01*
X277008Y704000D02*
X295000Y704000D01*
X296000Y705000D01*
X315050Y705000D02*
X316950Y706900D01*
X315050Y705000D02*
X296000Y705000D01*
D57*
X598700Y517600D02*
X599300Y517000D01*
X605000Y517000D01*
X609000Y513000D01*
D61*
X665000Y470000D03*
D57*
X609000Y481000D02*
X609000Y513000D01*
X753000Y185500D02*
X768500Y170000D01*
X782562Y170000D01*
X782712Y170150D01*
X635000Y468000D02*
X622000Y468000D01*
X609000Y481000D01*
X662500Y467500D02*
X665000Y470000D01*
X662500Y467500D02*
X662500Y360500D01*
X668500Y354500D01*
X668500Y339000D01*
X709500Y323500D02*
X753000Y280000D01*
X709500Y323500D02*
X684000Y323500D01*
X753000Y280000D02*
X753000Y185500D01*
X684000Y323500D02*
X668500Y339000D01*
X705000Y95000D02*
X705000Y77500D01*
X705000Y95000D02*
X698500Y101500D01*
X698500Y132000D02*
X696000Y134500D01*
X698500Y132000D02*
X698500Y101500D01*
X696000Y134500D02*
X692588Y134500D01*
X659500Y167588D01*
X659500Y175500D01*
X715000Y106000D02*
X715000Y77500D01*
X715000Y106000D02*
X707000Y114000D01*
X709000Y116000D02*
X709000Y138000D01*
X709000Y116000D02*
X707000Y114000D01*
X709000Y138000D02*
X694500Y152500D01*
X679500Y152500D01*
X669000Y163000D01*
X669000Y187709D01*
D61*
X660237Y196472D03*
X648000Y196500D03*
D57*
X646000Y196500D01*
X640500Y191000D01*
X660237Y196472D02*
X669000Y187709D01*
X640500Y188500D02*
X640500Y191000D01*
X599300Y525000D02*
X598700Y525600D01*
X599300Y525000D02*
X607500Y525000D01*
X611000Y521500D01*
X611000Y516500D02*
X614500Y513000D01*
X611000Y516500D02*
X611000Y521500D01*
X614500Y483000D02*
X615000Y482500D01*
D61*
X615000Y482500D03*
D57*
X614500Y483000D02*
X614500Y513000D01*
D61*
X617000Y414000D03*
D57*
X617000Y358500D01*
X664000Y311500D01*
X664000Y283500D01*
X664171Y283329D01*
X664171Y283000D01*
D61*
X664171Y283000D03*
X656500Y225000D03*
D57*
X656500Y209000D01*
X694500Y156500D02*
X748000Y103000D01*
X758020Y103000D02*
X758700Y102320D01*
X758020Y103000D02*
X748000Y103000D01*
X694500Y156500D02*
X680500Y156500D01*
X672460Y193040D02*
X656500Y209000D01*
X672460Y164540D02*
X680500Y156500D01*
X672460Y164540D02*
X672460Y193040D01*
D60*
X765600Y123500D02*
X765900Y123200D01*
D57*
X765600Y123500D02*
X765000Y123500D01*
X500700Y607600D02*
X493300Y615000D01*
X462500Y615000D02*
X457500Y620000D01*
X457500Y685000D01*
X460000Y687500D01*
X462500Y615000D02*
X493300Y615000D01*
D61*
X460000Y687500D03*
X460000Y705000D03*
D57*
X552500Y705000D01*
X590000Y742500D01*
X857500Y742500D01*
X882500Y717500D02*
X882500Y687000D01*
X955000Y614500D01*
X955000Y257500D02*
X912500Y215000D01*
X857500Y215000D01*
X766000Y123500D01*
X765600Y123500D01*
X882500Y717500D02*
X857500Y742500D01*
X955000Y614500D02*
X955000Y257500D01*
D67*
X695000Y95000D02*
X695000Y77500D01*
X690000Y100000D02*
X690000Y114000D01*
X690000Y100000D02*
X695000Y95000D01*
X690000Y114000D02*
X679000Y125000D01*
X679000Y134500D01*
D64*
X319000Y209000D02*
X311000Y209000D01*
X672500Y134500D02*
X679000Y134500D01*
X672500Y134500D02*
X671000Y134500D01*
X656000Y149500D01*
X649500Y156000D01*
X656000Y149500D02*
X656000Y134000D01*
D67*
X659500Y182000D02*
X650000Y182000D01*
X640500Y182000D01*
D66*
X650000Y182000D02*
X650000Y156500D01*
D57*
X311000Y209000D02*
X310000Y209000D01*
D68*
X649500Y156000D02*
X650000Y156500D01*
D61*
X445500Y172500D03*
X542000Y174000D03*
D68*
X544500Y176000D02*
X617918Y176000D01*
X544500Y176000D02*
X542500Y174000D01*
X542000Y174000D01*
X617918Y176000D02*
X637459Y156459D01*
X355000Y173000D02*
X319000Y209000D01*
X637459Y156459D02*
X650541Y156459D01*
X672500Y134500D01*
D61*
X550500Y174500D03*
X436500Y172500D03*
D68*
X445000Y173000D02*
X355000Y173000D01*
X445000Y173000D02*
X445500Y172500D01*
D60*
X564700Y482100D02*
X564700Y491600D01*
X564700Y482100D02*
X560200Y477600D01*
X560200Y432000D01*
X572500Y420500D02*
X572500Y418500D01*
D70*
X645500Y224500D02*
X645500Y204500D01*
X634000Y193000D01*
D61*
X645500Y224500D03*
X654671Y281500D03*
D57*
X659786Y286615D01*
X634000Y193000D02*
X634000Y177500D01*
X636000Y175500D01*
X640500Y175500D01*
X572500Y419700D02*
X560200Y432000D01*
X572500Y419700D02*
X572500Y418500D01*
X581000Y410000D01*
X581000Y389000D01*
X659786Y310214D01*
X659786Y286615D01*
X568450Y197000D02*
X568450Y191550D01*
X574000Y186000D01*
X583500Y186000D01*
X587500Y190000D01*
X587500Y209000D01*
X603000Y224500D01*
X645500Y224500D01*
D60*
X556700Y480100D02*
X556700Y491600D01*
X556700Y480100D02*
X556200Y479600D01*
X556200Y411300D01*
D57*
X654000Y202329D02*
X654000Y194000D01*
X654000Y202329D02*
X651329Y205000D01*
X651329Y230000D02*
X650829Y230500D01*
X651329Y230000D02*
X651329Y205000D01*
D61*
X650829Y230500D03*
X655000Y289000D03*
D57*
X655000Y309000D01*
X572500Y395500D02*
X572500Y397500D01*
X654000Y194000D02*
X659500Y188500D01*
X570000Y397500D02*
X556200Y411300D01*
X570000Y397500D02*
X572500Y397500D01*
X575500Y394500D01*
X575500Y388500D01*
X655000Y309000D01*
X581150Y209650D02*
X581150Y197000D01*
X581150Y209650D02*
X601500Y230000D01*
X650329Y230000D02*
X650829Y230500D01*
X650329Y230000D02*
X601500Y230000D01*
X291600Y111900D02*
X287700Y108000D01*
X322800Y18750D02*
X322800Y10300D01*
X317500Y5000D01*
X307500Y5000D01*
X290000Y110300D02*
X291600Y111900D01*
X290000Y22500D02*
X307500Y5000D01*
X290000Y22500D02*
X290000Y110300D01*
X399800Y18750D02*
X405050Y24000D01*
X416500Y24000D01*
X459500Y67000D01*
X459500Y209500D01*
X485500Y235500D02*
X499400Y235500D01*
X485500Y235500D02*
X459500Y209500D01*
D62*
X593850Y253000D02*
X593850Y273189D01*
X581020Y286020D01*
X606550Y296411D02*
X606550Y253000D01*
X606550Y296411D02*
X598980Y303980D01*
D64*
X581150Y253000D02*
X581150Y234650D01*
X483960Y137460D01*
X483960Y100000D01*
D57*
X557000Y265000D02*
X564500Y272500D01*
X577000Y272500D02*
X587500Y262000D01*
X587500Y242500D01*
X594829Y235171D01*
X657829Y235171D01*
X663000Y230000D01*
X663000Y230500D01*
X662500Y231000D01*
D61*
X662500Y231000D03*
X670000Y277500D03*
D57*
X669000Y278500D02*
X669000Y312500D01*
X669000Y278500D02*
X670000Y277500D01*
X669000Y312500D02*
X621829Y359671D01*
X621829Y421342D01*
D61*
X620671Y422500D03*
X620739Y477761D03*
D57*
X620739Y511261D01*
X613786Y518214D02*
X613786Y530214D01*
X613786Y518214D02*
X620739Y511261D01*
X613786Y530214D02*
X610500Y533500D01*
X577000Y272500D02*
X564500Y272500D01*
X598800Y533500D02*
X610500Y533500D01*
X620671Y422500D02*
X621829Y421342D01*
X557000Y235500D02*
X516600Y195100D01*
X557000Y235500D02*
X557000Y265000D01*
M02*
