G04 EAGLE Gerber RS-274X export*
G75*
%MOMM*%
%FSLAX34Y34*%
%LPD*%
%INBottom Copper*%
%IPPOS*%
%AMOC8*
5,1,8,0,0,1.08239X$1,22.5*%
G01*
%ADD10C,1.219200*%
%ADD11C,5.842000*%
%ADD12C,6.350000*%
%ADD13C,1.879600*%
%ADD14C,1.000000*%
%ADD15R,2.781300X2.781300*%
%ADD16C,0.635000*%
%ADD17C,0.127000*%
%ADD18C,0.604000*%
%ADD19C,0.508000*%
%ADD20C,0.609600*%
%ADD21C,1.016000*%
%ADD22C,0.812800*%
%ADD23C,0.304800*%
%ADD24C,0.406400*%
%ADD25C,0.254000*%
%ADD26C,0.177800*%
%ADD27C,0.152400*%

G36*
X995020Y4242D02*
X995020Y4242D01*
X995039Y4240D01*
X995141Y4262D01*
X995243Y4279D01*
X995260Y4288D01*
X995280Y4292D01*
X995369Y4345D01*
X995460Y4394D01*
X995474Y4408D01*
X995491Y4418D01*
X995558Y4497D01*
X995630Y4572D01*
X995638Y4590D01*
X995651Y4605D01*
X995690Y4701D01*
X995733Y4795D01*
X995735Y4815D01*
X995743Y4833D01*
X995761Y5000D01*
X995761Y745000D01*
X995758Y745020D01*
X995760Y745039D01*
X995738Y745141D01*
X995722Y745243D01*
X995712Y745260D01*
X995708Y745280D01*
X995655Y745369D01*
X995606Y745460D01*
X995592Y745474D01*
X995582Y745491D01*
X995503Y745558D01*
X995428Y745630D01*
X995410Y745638D01*
X995395Y745651D01*
X995299Y745690D01*
X995205Y745733D01*
X995185Y745735D01*
X995167Y745743D01*
X995000Y745761D01*
X5000Y745761D01*
X4980Y745758D01*
X4961Y745760D01*
X4859Y745738D01*
X4757Y745722D01*
X4740Y745712D01*
X4720Y745708D01*
X4631Y745655D01*
X4540Y745606D01*
X4526Y745592D01*
X4509Y745582D01*
X4442Y745503D01*
X4371Y745428D01*
X4362Y745410D01*
X4349Y745395D01*
X4310Y745299D01*
X4267Y745205D01*
X4265Y745185D01*
X4257Y745167D01*
X4239Y745000D01*
X4239Y5000D01*
X4242Y4980D01*
X4240Y4961D01*
X4262Y4859D01*
X4279Y4757D01*
X4288Y4740D01*
X4292Y4720D01*
X4345Y4631D01*
X4394Y4540D01*
X4408Y4526D01*
X4418Y4509D01*
X4497Y4442D01*
X4572Y4371D01*
X4590Y4362D01*
X4605Y4349D01*
X4701Y4310D01*
X4795Y4267D01*
X4815Y4265D01*
X4833Y4257D01*
X5000Y4239D01*
X995000Y4239D01*
X995020Y4242D01*
G37*
%LPC*%
G36*
X717109Y162648D02*
X717109Y162648D01*
X717095Y162650D01*
X717081Y162655D01*
X716915Y162673D01*
X716484Y162673D01*
X715608Y163036D01*
X715577Y163044D01*
X715510Y163069D01*
X714593Y163311D01*
X714250Y163571D01*
X714238Y163578D01*
X714228Y163588D01*
X714081Y163669D01*
X713683Y163834D01*
X713013Y164504D01*
X712986Y164523D01*
X712935Y164572D01*
X712180Y165146D01*
X711963Y165518D01*
X711954Y165529D01*
X711949Y165542D01*
X711844Y165673D01*
X711539Y165977D01*
X711177Y166853D01*
X711160Y166881D01*
X711131Y166946D01*
X710653Y167765D01*
X710595Y168192D01*
X710591Y168205D01*
X710591Y168220D01*
X710544Y168381D01*
X710379Y168778D01*
X710379Y169727D01*
X710374Y169758D01*
X710372Y169829D01*
X709945Y172975D01*
X710354Y174530D01*
X710356Y174545D01*
X710361Y174558D01*
X710379Y174724D01*
X710379Y176528D01*
X710365Y176618D01*
X710357Y176709D01*
X710345Y176739D01*
X710340Y176771D01*
X710297Y176852D01*
X710261Y176935D01*
X710235Y176968D01*
X710224Y176988D01*
X710201Y177010D01*
X710156Y177066D01*
X709039Y178183D01*
X707879Y180984D01*
X707879Y184016D01*
X709039Y186817D01*
X710156Y187934D01*
X710200Y187994D01*
X710237Y188033D01*
X710243Y188047D01*
X710269Y188077D01*
X710281Y188107D01*
X710300Y188133D01*
X710327Y188220D01*
X710361Y188305D01*
X710365Y188346D01*
X710372Y188368D01*
X710371Y188401D01*
X710379Y188472D01*
X710379Y224666D01*
X710376Y224686D01*
X710378Y224705D01*
X710356Y224807D01*
X710340Y224909D01*
X710330Y224926D01*
X710326Y224946D01*
X710273Y225035D01*
X710224Y225126D01*
X710210Y225140D01*
X710200Y225157D01*
X710121Y225224D01*
X710046Y225296D01*
X710028Y225304D01*
X710013Y225317D01*
X709917Y225356D01*
X709823Y225399D01*
X709803Y225401D01*
X709785Y225409D01*
X709618Y225427D01*
X679709Y225427D01*
X679619Y225413D01*
X679528Y225405D01*
X679499Y225393D01*
X679467Y225388D01*
X679386Y225345D01*
X679302Y225309D01*
X679270Y225283D01*
X679249Y225272D01*
X679227Y225249D01*
X679171Y225204D01*
X666894Y212927D01*
X643607Y212927D01*
X643517Y212913D01*
X643426Y212905D01*
X643396Y212893D01*
X643364Y212888D01*
X643283Y212845D01*
X643199Y212809D01*
X643192Y212803D01*
X641106Y211939D01*
X638894Y211939D01*
X636800Y212806D01*
X636788Y212817D01*
X636758Y212829D01*
X636732Y212848D01*
X636645Y212875D01*
X636560Y212909D01*
X636519Y212913D01*
X636497Y212920D01*
X636465Y212919D01*
X636393Y212927D01*
X635606Y212927D01*
X632927Y215606D01*
X632927Y219394D01*
X635606Y222073D01*
X636393Y222073D01*
X636483Y222087D01*
X636574Y222095D01*
X636604Y222107D01*
X636636Y222112D01*
X636717Y222155D01*
X636801Y222191D01*
X636808Y222197D01*
X638894Y223061D01*
X639178Y223061D01*
X639198Y223064D01*
X639217Y223062D01*
X639319Y223084D01*
X639421Y223100D01*
X639438Y223110D01*
X639458Y223114D01*
X639547Y223167D01*
X639638Y223216D01*
X639652Y223230D01*
X639669Y223240D01*
X639736Y223319D01*
X639808Y223394D01*
X639816Y223412D01*
X639829Y223427D01*
X639868Y223523D01*
X639911Y223617D01*
X639913Y223637D01*
X639921Y223655D01*
X639939Y223822D01*
X639939Y225606D01*
X640786Y227650D01*
X642101Y228965D01*
X642154Y229039D01*
X642214Y229109D01*
X642226Y229139D01*
X642245Y229165D01*
X642272Y229252D01*
X642306Y229337D01*
X642310Y229378D01*
X642317Y229400D01*
X642316Y229432D01*
X642324Y229504D01*
X642324Y239490D01*
X644531Y241697D01*
X644557Y241734D01*
X644591Y241765D01*
X644629Y241833D01*
X644674Y241897D01*
X644688Y241940D01*
X644710Y241981D01*
X644724Y242057D01*
X644747Y242132D01*
X644745Y242178D01*
X644754Y242223D01*
X644742Y242300D01*
X644740Y242378D01*
X644724Y242421D01*
X644718Y242466D01*
X644683Y242535D01*
X644656Y242609D01*
X644627Y242644D01*
X644606Y242685D01*
X644551Y242740D01*
X644502Y242801D01*
X644463Y242825D01*
X644431Y242858D01*
X644311Y242924D01*
X644295Y242934D01*
X644290Y242935D01*
X644284Y242938D01*
X643762Y243154D01*
X642154Y244762D01*
X641284Y246863D01*
X641284Y247523D01*
X641281Y247543D01*
X641283Y247562D01*
X641261Y247664D01*
X641245Y247766D01*
X641235Y247783D01*
X641231Y247803D01*
X641178Y247892D01*
X641129Y247983D01*
X641115Y247997D01*
X641105Y248014D01*
X641026Y248081D01*
X640951Y248153D01*
X640933Y248161D01*
X640918Y248174D01*
X640822Y248213D01*
X640728Y248256D01*
X640708Y248258D01*
X640690Y248266D01*
X640523Y248284D01*
X639363Y248284D01*
X637262Y249154D01*
X635654Y250762D01*
X634784Y252863D01*
X634784Y255137D01*
X635654Y257238D01*
X637101Y258685D01*
X637154Y258759D01*
X637214Y258828D01*
X637226Y258858D01*
X637245Y258884D01*
X637272Y258971D01*
X637306Y259056D01*
X637310Y259097D01*
X637317Y259119D01*
X637316Y259152D01*
X637324Y259223D01*
X637324Y263277D01*
X637310Y263367D01*
X637302Y263458D01*
X637290Y263488D01*
X637285Y263520D01*
X637242Y263601D01*
X637206Y263684D01*
X637180Y263717D01*
X637169Y263737D01*
X637146Y263759D01*
X637101Y263815D01*
X635654Y265262D01*
X634784Y267363D01*
X634784Y269637D01*
X635654Y271738D01*
X637262Y273346D01*
X639363Y274216D01*
X641637Y274216D01*
X643738Y273346D01*
X645346Y271738D01*
X645607Y271105D01*
X645618Y271088D01*
X645624Y271069D01*
X645682Y270984D01*
X645737Y270896D01*
X645752Y270884D01*
X645764Y270867D01*
X645847Y270806D01*
X645927Y270740D01*
X645945Y270732D01*
X645961Y270720D01*
X646060Y270688D01*
X646156Y270651D01*
X646176Y270650D01*
X646195Y270644D01*
X646299Y270645D01*
X646402Y270641D01*
X646421Y270646D01*
X646441Y270647D01*
X646602Y270693D01*
X647863Y271216D01*
X649889Y271216D01*
X649909Y271219D01*
X649928Y271217D01*
X650030Y271239D01*
X650132Y271255D01*
X650149Y271265D01*
X650169Y271269D01*
X650258Y271322D01*
X650349Y271371D01*
X650363Y271385D01*
X650380Y271395D01*
X650447Y271474D01*
X650519Y271549D01*
X650527Y271567D01*
X650540Y271582D01*
X650579Y271678D01*
X650622Y271772D01*
X650624Y271792D01*
X650632Y271810D01*
X650650Y271977D01*
X650650Y277341D01*
X650636Y277431D01*
X650628Y277522D01*
X650616Y277552D01*
X650611Y277584D01*
X650568Y277665D01*
X650532Y277749D01*
X650506Y277781D01*
X650495Y277801D01*
X650472Y277824D01*
X650427Y277880D01*
X649957Y278350D01*
X649110Y280394D01*
X649110Y282606D01*
X649957Y284650D01*
X650183Y284876D01*
X650195Y284892D01*
X650210Y284905D01*
X650266Y284992D01*
X650327Y285076D01*
X650333Y285095D01*
X650343Y285112D01*
X650369Y285212D01*
X650399Y285311D01*
X650399Y285331D01*
X650403Y285350D01*
X650395Y285453D01*
X650393Y285557D01*
X650386Y285576D01*
X650384Y285595D01*
X650362Y285649D01*
X650344Y285710D01*
X649439Y287894D01*
X649439Y290106D01*
X650286Y292150D01*
X651850Y293714D01*
X653894Y294561D01*
X656106Y294561D01*
X658150Y293714D01*
X659714Y292150D01*
X660561Y290106D01*
X660561Y289023D01*
X660575Y288933D01*
X660583Y288842D01*
X660595Y288812D01*
X660600Y288780D01*
X660643Y288699D01*
X660679Y288615D01*
X660705Y288583D01*
X660716Y288562D01*
X660739Y288540D01*
X660784Y288484D01*
X661038Y288230D01*
X661134Y288161D01*
X661227Y288092D01*
X661233Y288090D01*
X661238Y288086D01*
X661350Y288052D01*
X661461Y288016D01*
X661467Y288016D01*
X661473Y288014D01*
X661590Y288017D01*
X661707Y288018D01*
X661714Y288020D01*
X661719Y288020D01*
X661736Y288027D01*
X661868Y288065D01*
X663065Y288561D01*
X665277Y288561D01*
X667321Y287714D01*
X668885Y286150D01*
X669732Y284106D01*
X669732Y283822D01*
X669735Y283802D01*
X669733Y283783D01*
X669755Y283681D01*
X669771Y283579D01*
X669781Y283562D01*
X669785Y283542D01*
X669838Y283453D01*
X669887Y283362D01*
X669901Y283348D01*
X669911Y283331D01*
X669990Y283264D01*
X670065Y283192D01*
X670083Y283184D01*
X670098Y283171D01*
X670194Y283132D01*
X670288Y283089D01*
X670308Y283087D01*
X670326Y283079D01*
X670493Y283061D01*
X671106Y283061D01*
X673150Y282214D01*
X674714Y280650D01*
X675561Y278606D01*
X675561Y276394D01*
X674714Y274350D01*
X673150Y272786D01*
X672146Y272370D01*
X672046Y272308D01*
X671946Y272248D01*
X671942Y272244D01*
X671937Y272240D01*
X671862Y272150D01*
X671786Y272061D01*
X671784Y272056D01*
X671780Y272051D01*
X671738Y271942D01*
X671694Y271833D01*
X671693Y271826D01*
X671692Y271821D01*
X671691Y271803D01*
X671676Y271667D01*
X671676Y238685D01*
X669593Y236601D01*
X669592Y236601D01*
X667552Y234561D01*
X667484Y234466D01*
X667414Y234373D01*
X667413Y234367D01*
X667409Y234361D01*
X667374Y234249D01*
X667338Y234139D01*
X667338Y234132D01*
X667337Y234126D01*
X667340Y234010D01*
X667341Y233893D01*
X667343Y233886D01*
X667343Y233881D01*
X667349Y233863D01*
X667387Y233732D01*
X668061Y232106D01*
X668061Y229894D01*
X667498Y228536D01*
X667476Y228442D01*
X667448Y228349D01*
X667448Y228322D01*
X667442Y228297D01*
X667451Y228200D01*
X667454Y228103D01*
X667463Y228078D01*
X667465Y228052D01*
X667505Y227963D01*
X667538Y227872D01*
X667555Y227851D01*
X667565Y227827D01*
X667631Y227756D01*
X667692Y227680D01*
X667714Y227666D01*
X667732Y227646D01*
X667817Y227599D01*
X667899Y227547D01*
X667924Y227540D01*
X667947Y227528D01*
X668043Y227510D01*
X668138Y227487D01*
X668164Y227489D01*
X668189Y227484D01*
X668286Y227498D01*
X668383Y227506D01*
X668407Y227516D01*
X668433Y227520D01*
X668520Y227564D01*
X668609Y227602D01*
X668635Y227622D01*
X668652Y227631D01*
X668675Y227655D01*
X668740Y227707D01*
X675606Y234573D01*
X709618Y234573D01*
X709638Y234576D01*
X709657Y234574D01*
X709759Y234596D01*
X709861Y234612D01*
X709878Y234622D01*
X709898Y234626D01*
X709987Y234679D01*
X710078Y234728D01*
X710092Y234742D01*
X710109Y234752D01*
X710176Y234831D01*
X710248Y234906D01*
X710256Y234924D01*
X710269Y234939D01*
X710308Y235035D01*
X710351Y235129D01*
X710353Y235149D01*
X710361Y235167D01*
X710379Y235334D01*
X710379Y363528D01*
X710365Y363618D01*
X710357Y363709D01*
X710345Y363739D01*
X710340Y363771D01*
X710297Y363852D01*
X710261Y363935D01*
X710235Y363968D01*
X710224Y363988D01*
X710201Y364010D01*
X710183Y364032D01*
X710179Y364040D01*
X710174Y364044D01*
X710156Y364066D01*
X708539Y365683D01*
X707379Y368484D01*
X707379Y476528D01*
X707365Y476618D01*
X707357Y476709D01*
X707345Y476739D01*
X707340Y476771D01*
X707297Y476851D01*
X707261Y476935D01*
X707235Y476968D01*
X707224Y476988D01*
X707201Y477010D01*
X707156Y477066D01*
X669621Y514601D01*
X669547Y514654D01*
X669478Y514714D01*
X669448Y514726D01*
X669422Y514745D01*
X669335Y514772D01*
X669250Y514806D01*
X669209Y514810D01*
X669187Y514817D01*
X669154Y514816D01*
X669083Y514824D01*
X654543Y514824D01*
X654453Y514810D01*
X654362Y514802D01*
X654332Y514790D01*
X654300Y514785D01*
X654220Y514742D01*
X654136Y514706D01*
X654104Y514680D01*
X654083Y514669D01*
X654061Y514646D01*
X654005Y514601D01*
X643312Y503908D01*
X643259Y503834D01*
X643199Y503765D01*
X643187Y503734D01*
X643168Y503708D01*
X643141Y503621D01*
X643107Y503536D01*
X643103Y503496D01*
X643096Y503473D01*
X643097Y503441D01*
X643089Y503370D01*
X643089Y502095D01*
X643092Y502076D01*
X643090Y502057D01*
X643099Y502012D01*
X643100Y501965D01*
X643123Y501885D01*
X643128Y501852D01*
X643138Y501835D01*
X643139Y501829D01*
X643142Y501816D01*
X643144Y501813D01*
X643147Y501804D01*
X643216Y501637D01*
X643216Y499363D01*
X642346Y497262D01*
X640738Y495654D01*
X638637Y494784D01*
X636363Y494784D01*
X634262Y495654D01*
X632654Y497262D01*
X631784Y499363D01*
X631784Y501637D01*
X631853Y501804D01*
X631864Y501851D01*
X631883Y501891D01*
X631885Y501909D01*
X631893Y501928D01*
X631902Y502011D01*
X631909Y502043D01*
X631908Y502062D01*
X631911Y502095D01*
X631911Y507112D01*
X632762Y509166D01*
X634441Y510845D01*
X638121Y514525D01*
X638163Y514583D01*
X638212Y514635D01*
X638234Y514682D01*
X638265Y514724D01*
X638286Y514793D01*
X638316Y514858D01*
X638322Y514910D01*
X638337Y514960D01*
X638335Y515031D01*
X638343Y515102D01*
X638332Y515153D01*
X638331Y515205D01*
X638306Y515273D01*
X638291Y515343D01*
X638264Y515388D01*
X638246Y515436D01*
X638201Y515492D01*
X638165Y515554D01*
X638125Y515588D01*
X638092Y515628D01*
X638032Y515667D01*
X637978Y515714D01*
X637929Y515733D01*
X637886Y515761D01*
X637816Y515779D01*
X637750Y515806D01*
X637678Y515814D01*
X637647Y515822D01*
X637624Y515820D01*
X637583Y515824D01*
X516631Y515824D01*
X516541Y515810D01*
X516450Y515802D01*
X516420Y515790D01*
X516388Y515785D01*
X516307Y515742D01*
X516223Y515706D01*
X516191Y515680D01*
X516171Y515669D01*
X516148Y515646D01*
X516147Y515645D01*
X516145Y515644D01*
X516143Y515642D01*
X516092Y515601D01*
X489716Y489225D01*
X489704Y489208D01*
X489689Y489196D01*
X489633Y489109D01*
X489572Y489025D01*
X489566Y489006D01*
X489556Y488989D01*
X489530Y488889D01*
X489500Y488790D01*
X489501Y488770D01*
X489496Y488751D01*
X489504Y488648D01*
X489506Y488544D01*
X489513Y488525D01*
X489515Y488505D01*
X489555Y488410D01*
X489591Y488313D01*
X489603Y488297D01*
X489611Y488279D01*
X489714Y488151D01*
X490561Y486106D01*
X490561Y483894D01*
X489714Y481850D01*
X488150Y480286D01*
X486106Y479439D01*
X483894Y479439D01*
X481849Y480286D01*
X481836Y480296D01*
X481823Y480311D01*
X481736Y480367D01*
X481652Y480428D01*
X481633Y480433D01*
X481616Y480444D01*
X481516Y480470D01*
X481417Y480500D01*
X481397Y480499D01*
X481378Y480504D01*
X481275Y480496D01*
X481171Y480494D01*
X481152Y480487D01*
X481133Y480485D01*
X481038Y480445D01*
X480940Y480409D01*
X480925Y480397D01*
X480906Y480389D01*
X480775Y480284D01*
X472315Y471824D01*
X276185Y471824D01*
X266824Y481185D01*
X266824Y502815D01*
X268907Y504899D01*
X268908Y504899D01*
X275101Y511092D01*
X275101Y511093D01*
X277185Y513176D01*
X460869Y513176D01*
X460959Y513190D01*
X461050Y513198D01*
X461080Y513210D01*
X461112Y513215D01*
X461193Y513258D01*
X461277Y513294D01*
X461309Y513320D01*
X461329Y513331D01*
X461352Y513354D01*
X461408Y513399D01*
X486185Y538176D01*
X645274Y538176D01*
X645319Y538183D01*
X645365Y538181D01*
X645440Y538203D01*
X645517Y538215D01*
X645557Y538237D01*
X645601Y538250D01*
X645665Y538294D01*
X645734Y538331D01*
X645766Y538364D01*
X645803Y538390D01*
X645850Y538452D01*
X645903Y538509D01*
X645923Y538551D01*
X645950Y538587D01*
X645974Y538661D01*
X646007Y538732D01*
X646012Y538778D01*
X646026Y538821D01*
X646026Y538899D01*
X646034Y538976D01*
X646024Y539021D01*
X646024Y539067D01*
X645986Y539199D01*
X645982Y539217D01*
X645979Y539221D01*
X645977Y539228D01*
X645311Y540836D01*
X645311Y543110D01*
X646181Y545211D01*
X647789Y546819D01*
X649890Y547689D01*
X652164Y547689D01*
X652817Y547418D01*
X652930Y547392D01*
X653044Y547363D01*
X653050Y547364D01*
X653056Y547362D01*
X653173Y547373D01*
X653289Y547382D01*
X653295Y547385D01*
X653301Y547385D01*
X653408Y547433D01*
X653515Y547479D01*
X653521Y547483D01*
X653526Y547485D01*
X653539Y547498D01*
X653646Y547583D01*
X655628Y549566D01*
X655681Y549640D01*
X655741Y549709D01*
X655753Y549739D01*
X655772Y549765D01*
X655799Y549852D01*
X655833Y549937D01*
X655837Y549978D01*
X655844Y550000D01*
X655843Y550033D01*
X655851Y550104D01*
X655851Y552342D01*
X655848Y552361D01*
X655850Y552378D01*
X655835Y552446D01*
X655829Y552523D01*
X655817Y552553D01*
X655811Y552585D01*
X655801Y552605D01*
X655798Y552619D01*
X655766Y552672D01*
X655733Y552750D01*
X655707Y552782D01*
X655696Y552802D01*
X655677Y552821D01*
X655672Y552830D01*
X655663Y552837D01*
X655628Y552881D01*
X616434Y592074D01*
X616361Y592127D01*
X616291Y592187D01*
X616261Y592199D01*
X616235Y592218D01*
X616148Y592245D01*
X616063Y592279D01*
X616022Y592283D01*
X616000Y592290D01*
X615967Y592289D01*
X615896Y592297D01*
X550712Y592297D01*
X526448Y616561D01*
X526374Y616614D01*
X526304Y616674D01*
X526274Y616686D01*
X526248Y616705D01*
X526161Y616732D01*
X526076Y616766D01*
X526035Y616770D01*
X526013Y616777D01*
X525981Y616776D01*
X525909Y616784D01*
X523863Y616784D01*
X521762Y617654D01*
X520154Y619262D01*
X519284Y621363D01*
X519284Y623637D01*
X520154Y625738D01*
X521762Y627346D01*
X523863Y628216D01*
X526137Y628216D01*
X528238Y627346D01*
X529871Y625713D01*
X529908Y625686D01*
X529939Y625652D01*
X530007Y625615D01*
X530070Y625569D01*
X530114Y625556D01*
X530155Y625533D01*
X530231Y625520D01*
X530305Y625497D01*
X530351Y625498D01*
X530397Y625490D01*
X530473Y625501D01*
X530551Y625503D01*
X530595Y625519D01*
X530640Y625526D01*
X530709Y625561D01*
X530782Y625588D01*
X530818Y625616D01*
X530859Y625637D01*
X530914Y625693D01*
X530974Y625741D01*
X530999Y625780D01*
X531031Y625813D01*
X531050Y625848D01*
X532684Y627481D01*
X534785Y628352D01*
X537059Y628352D01*
X539160Y627481D01*
X540768Y625874D01*
X541638Y623773D01*
X541638Y621499D01*
X540768Y619398D01*
X539585Y618216D01*
X539573Y618200D01*
X539558Y618187D01*
X539502Y618100D01*
X539441Y618016D01*
X539436Y617997D01*
X539425Y617980D01*
X539400Y617880D01*
X539369Y617781D01*
X539370Y617761D01*
X539365Y617742D01*
X539373Y617639D01*
X539375Y617535D01*
X539382Y617516D01*
X539384Y617496D01*
X539424Y617402D01*
X539460Y617304D01*
X539472Y617288D01*
X539480Y617270D01*
X539585Y617139D01*
X554566Y602158D01*
X554640Y602105D01*
X554710Y602045D01*
X554740Y602033D01*
X554766Y602014D01*
X554853Y601988D01*
X554938Y601953D01*
X554979Y601949D01*
X555001Y601942D01*
X555033Y601943D01*
X555105Y601935D01*
X613387Y601935D01*
X613458Y601946D01*
X613529Y601948D01*
X613578Y601966D01*
X613630Y601975D01*
X613693Y602008D01*
X613760Y602033D01*
X613801Y602065D01*
X613847Y602090D01*
X613896Y602142D01*
X613952Y602186D01*
X613980Y602230D01*
X614016Y602268D01*
X614047Y602333D01*
X614085Y602393D01*
X614098Y602444D01*
X614120Y602491D01*
X614128Y602562D01*
X614145Y602632D01*
X614141Y602684D01*
X614147Y602736D01*
X614132Y602806D01*
X614126Y602877D01*
X614106Y602925D01*
X614095Y602976D01*
X614058Y603038D01*
X614030Y603103D01*
X613985Y603159D01*
X613969Y603187D01*
X613951Y603202D01*
X613925Y603234D01*
X584866Y632294D01*
X582901Y634259D01*
X582809Y634480D01*
X582785Y634519D01*
X582769Y634562D01*
X582721Y634623D01*
X582680Y634689D01*
X582644Y634718D01*
X582615Y634754D01*
X582550Y634796D01*
X582490Y634846D01*
X582447Y634862D01*
X582409Y634887D01*
X582333Y634906D01*
X582260Y634934D01*
X582215Y634936D01*
X582170Y634947D01*
X582092Y634941D01*
X582015Y634945D01*
X581971Y634932D01*
X581925Y634928D01*
X581853Y634898D01*
X581778Y634876D01*
X581741Y634850D01*
X581698Y634832D01*
X581592Y634746D01*
X581576Y634736D01*
X581573Y634732D01*
X581567Y634727D01*
X581241Y634401D01*
X578814Y633395D01*
X564186Y633395D01*
X561759Y634401D01*
X559901Y636259D01*
X558895Y638686D01*
X558895Y641314D01*
X559901Y643741D01*
X561759Y645599D01*
X564186Y646605D01*
X574449Y646605D01*
X574539Y646619D01*
X574630Y646627D01*
X574660Y646639D01*
X574692Y646644D01*
X574772Y646687D01*
X574856Y646723D01*
X574888Y646749D01*
X574909Y646760D01*
X574931Y646783D01*
X574987Y646828D01*
X584866Y656706D01*
X592236Y664077D01*
X592248Y664093D01*
X592264Y664105D01*
X592319Y664192D01*
X592380Y664277D01*
X592386Y664296D01*
X592397Y664312D01*
X592422Y664413D01*
X592452Y664512D01*
X592452Y664532D01*
X592457Y664551D01*
X592449Y664654D01*
X592446Y664758D01*
X592439Y664776D01*
X592437Y664796D01*
X592397Y664891D01*
X592361Y664989D01*
X592349Y665004D01*
X592341Y665022D01*
X592236Y665153D01*
X591127Y666262D01*
X590257Y668363D01*
X590257Y670637D01*
X591127Y672738D01*
X592735Y674346D01*
X592925Y674424D01*
X593025Y674486D01*
X593125Y674546D01*
X593129Y674551D01*
X593134Y674554D01*
X593209Y674644D01*
X593285Y674733D01*
X593287Y674739D01*
X593291Y674743D01*
X593333Y674852D01*
X593377Y674961D01*
X593378Y674968D01*
X593379Y674973D01*
X593380Y674991D01*
X593395Y675128D01*
X593395Y709814D01*
X594401Y712241D01*
X596259Y714099D01*
X596972Y714395D01*
X597028Y714429D01*
X597088Y714455D01*
X597153Y714507D01*
X597181Y714524D01*
X597194Y714539D01*
X597219Y714560D01*
X597259Y714599D01*
X599686Y715605D01*
X619314Y715605D01*
X621741Y714599D01*
X623599Y712741D01*
X624605Y710314D01*
X624605Y707686D01*
X623599Y705259D01*
X621741Y703401D01*
X619314Y702395D01*
X607366Y702395D01*
X607346Y702392D01*
X607327Y702394D01*
X607225Y702372D01*
X607123Y702356D01*
X607106Y702346D01*
X607086Y702342D01*
X606997Y702289D01*
X606906Y702240D01*
X606892Y702226D01*
X606875Y702216D01*
X606808Y702137D01*
X606736Y702062D01*
X606728Y702044D01*
X606715Y702029D01*
X606676Y701933D01*
X606633Y701839D01*
X606631Y701819D01*
X606623Y701801D01*
X606605Y701634D01*
X606605Y661186D01*
X605599Y658759D01*
X595328Y648487D01*
X595275Y648413D01*
X595215Y648344D01*
X595203Y648314D01*
X595184Y648287D01*
X595157Y648200D01*
X595123Y648116D01*
X595119Y648075D01*
X595112Y648052D01*
X595113Y648020D01*
X595105Y647949D01*
X595105Y641051D01*
X595119Y640961D01*
X595127Y640870D01*
X595139Y640840D01*
X595144Y640808D01*
X595187Y640728D01*
X595223Y640644D01*
X595249Y640612D01*
X595260Y640591D01*
X595283Y640569D01*
X595328Y640513D01*
X674599Y561241D01*
X675605Y558814D01*
X675605Y534202D01*
X675619Y534112D01*
X675627Y534021D01*
X675639Y533991D01*
X675644Y533959D01*
X675676Y533900D01*
X675676Y530417D01*
X675690Y530327D01*
X675698Y530236D01*
X675710Y530206D01*
X675715Y530174D01*
X675758Y530093D01*
X675794Y530010D01*
X675820Y529977D01*
X675831Y529957D01*
X675854Y529935D01*
X675899Y529879D01*
X719210Y486568D01*
X721461Y484317D01*
X722621Y481516D01*
X722621Y379686D01*
X722635Y379596D01*
X722643Y379505D01*
X722655Y379475D01*
X722660Y379443D01*
X722703Y379362D01*
X722739Y379278D01*
X722765Y379246D01*
X722776Y379226D01*
X722799Y379203D01*
X722844Y379147D01*
X723176Y378815D01*
X723176Y378429D01*
X723191Y378338D01*
X723198Y378246D01*
X723212Y378209D01*
X723215Y378187D01*
X723231Y378158D01*
X723256Y378089D01*
X727555Y369492D01*
X727577Y369460D01*
X727593Y369425D01*
X727697Y369294D01*
X728176Y368815D01*
X728176Y368429D01*
X728191Y368338D01*
X728198Y368246D01*
X728212Y368209D01*
X728215Y368187D01*
X728231Y368158D01*
X728256Y368089D01*
X728429Y367744D01*
X728215Y367102D01*
X728209Y367064D01*
X728194Y367028D01*
X728176Y366861D01*
X728176Y366185D01*
X727903Y365912D01*
X727849Y365837D01*
X727789Y365766D01*
X727772Y365730D01*
X727759Y365712D01*
X727750Y365681D01*
X727719Y365614D01*
X727597Y365248D01*
X726992Y364945D01*
X726960Y364923D01*
X726925Y364907D01*
X726794Y364803D01*
X725844Y363853D01*
X725791Y363779D01*
X725731Y363709D01*
X725719Y363679D01*
X725700Y363653D01*
X725673Y363566D01*
X725639Y363481D01*
X725635Y363440D01*
X725628Y363418D01*
X725629Y363386D01*
X725621Y363314D01*
X725621Y170862D01*
X725626Y170830D01*
X725628Y170759D01*
X725755Y169819D01*
X725646Y169403D01*
X725644Y169389D01*
X725639Y169376D01*
X725621Y169209D01*
X725621Y168778D01*
X725258Y167902D01*
X725250Y167871D01*
X725225Y167805D01*
X724983Y166887D01*
X724723Y166545D01*
X724716Y166532D01*
X724706Y166522D01*
X724625Y166375D01*
X724461Y165977D01*
X723790Y165307D01*
X723771Y165281D01*
X723722Y165229D01*
X723148Y164474D01*
X722776Y164257D01*
X722765Y164248D01*
X722752Y164243D01*
X722621Y164138D01*
X722317Y163834D01*
X721441Y163471D01*
X721413Y163454D01*
X721349Y163425D01*
X720529Y162947D01*
X720102Y162889D01*
X720089Y162885D01*
X720075Y162885D01*
X719914Y162838D01*
X719516Y162673D01*
X718567Y162673D01*
X718536Y162668D01*
X718465Y162666D01*
X717525Y162539D01*
X717109Y162648D01*
G37*
%LPD*%
G36*
X471042Y474373D02*
X471042Y474373D01*
X471084Y474371D01*
X471151Y474393D01*
X471221Y474405D01*
X471257Y474427D01*
X471298Y474440D01*
X471371Y474494D01*
X471414Y474520D01*
X471427Y474536D01*
X471448Y474552D01*
X515263Y518366D01*
X653237Y518366D01*
X654052Y517552D01*
X654086Y517527D01*
X654115Y517496D01*
X654178Y517464D01*
X654236Y517423D01*
X654277Y517413D01*
X654315Y517393D01*
X654404Y517380D01*
X654453Y517368D01*
X654474Y517370D01*
X654500Y517366D01*
X670000Y517366D01*
X670042Y517373D01*
X670084Y517371D01*
X670151Y517393D01*
X670221Y517405D01*
X670257Y517427D01*
X670298Y517440D01*
X670371Y517494D01*
X670414Y517520D01*
X670427Y517536D01*
X670448Y517552D01*
X672948Y520052D01*
X672973Y520086D01*
X673004Y520115D01*
X673036Y520178D01*
X673077Y520236D01*
X673087Y520277D01*
X673107Y520315D01*
X673120Y520404D01*
X673133Y520453D01*
X673130Y520474D01*
X673134Y520500D01*
X673134Y532500D01*
X673127Y532542D01*
X673129Y532584D01*
X673107Y532651D01*
X673095Y532721D01*
X673073Y532757D01*
X673060Y532798D01*
X673006Y532871D01*
X672980Y532914D01*
X672964Y532927D01*
X672948Y532948D01*
X670448Y535448D01*
X670414Y535473D01*
X670385Y535504D01*
X670322Y535536D01*
X670264Y535577D01*
X670223Y535587D01*
X670185Y535607D01*
X670096Y535620D01*
X670047Y535633D01*
X670026Y535630D01*
X670000Y535634D01*
X487500Y535634D01*
X487458Y535627D01*
X487416Y535629D01*
X487349Y535607D01*
X487279Y535595D01*
X487243Y535573D01*
X487202Y535560D01*
X487129Y535506D01*
X487086Y535480D01*
X487073Y535464D01*
X487052Y535448D01*
X462237Y510634D01*
X278500Y510634D01*
X278458Y510627D01*
X278416Y510629D01*
X278349Y510607D01*
X278279Y510595D01*
X278243Y510573D01*
X278202Y510560D01*
X278129Y510506D01*
X278086Y510480D01*
X278073Y510464D01*
X278052Y510448D01*
X269552Y501948D01*
X269527Y501914D01*
X269496Y501885D01*
X269464Y501822D01*
X269423Y501764D01*
X269413Y501723D01*
X269393Y501685D01*
X269380Y501596D01*
X269368Y501547D01*
X269370Y501526D01*
X269366Y501500D01*
X269366Y482500D01*
X269373Y482458D01*
X269371Y482416D01*
X269393Y482349D01*
X269405Y482279D01*
X269427Y482243D01*
X269440Y482202D01*
X269494Y482129D01*
X269520Y482086D01*
X269536Y482073D01*
X269552Y482052D01*
X277052Y474552D01*
X277086Y474527D01*
X277115Y474496D01*
X277178Y474464D01*
X277236Y474423D01*
X277277Y474413D01*
X277315Y474393D01*
X277404Y474380D01*
X277453Y474368D01*
X277474Y474370D01*
X277500Y474366D01*
X471000Y474366D01*
X471042Y474373D01*
G37*
%LPC*%
G36*
X853596Y420338D02*
X853596Y420338D01*
X850422Y421653D01*
X847992Y424083D01*
X847311Y425727D01*
X847249Y425827D01*
X847189Y425927D01*
X847185Y425931D01*
X847181Y425936D01*
X847092Y426011D01*
X847002Y426087D01*
X846997Y426089D01*
X846992Y426093D01*
X846884Y426135D01*
X846774Y426179D01*
X846767Y426180D01*
X846762Y426181D01*
X846744Y426182D01*
X846608Y426197D01*
X830096Y426197D01*
X830006Y426183D01*
X829915Y426175D01*
X829885Y426163D01*
X829853Y426158D01*
X829772Y426115D01*
X829689Y426079D01*
X829656Y426053D01*
X829636Y426042D01*
X829614Y426019D01*
X829558Y425974D01*
X828238Y424654D01*
X826137Y423784D01*
X823863Y423784D01*
X821762Y424654D01*
X820154Y426262D01*
X819284Y428363D01*
X819284Y430637D01*
X820154Y432738D01*
X821762Y434346D01*
X823863Y435216D01*
X826137Y435216D01*
X828238Y434346D01*
X829558Y433026D01*
X829632Y432973D01*
X829701Y432913D01*
X829731Y432901D01*
X829757Y432882D01*
X829844Y432855D01*
X829929Y432821D01*
X829970Y432817D01*
X829992Y432810D01*
X830025Y432811D01*
X830096Y432803D01*
X847043Y432803D01*
X847157Y432822D01*
X847273Y432839D01*
X847279Y432841D01*
X847285Y432842D01*
X847388Y432897D01*
X847493Y432950D01*
X847497Y432955D01*
X847503Y432958D01*
X847582Y433042D01*
X847665Y433126D01*
X847669Y433132D01*
X847672Y433136D01*
X847680Y433153D01*
X847746Y433273D01*
X847992Y433867D01*
X849523Y435398D01*
X849564Y435456D01*
X849614Y435508D01*
X849636Y435555D01*
X849666Y435597D01*
X849687Y435666D01*
X849717Y435731D01*
X849723Y435783D01*
X849738Y435833D01*
X849737Y435904D01*
X849744Y435975D01*
X849733Y436026D01*
X849732Y436078D01*
X849707Y436146D01*
X849692Y436216D01*
X849666Y436261D01*
X849648Y436309D01*
X849603Y436365D01*
X849566Y436427D01*
X849526Y436461D01*
X849494Y436501D01*
X849434Y436540D01*
X849379Y436587D01*
X849331Y436606D01*
X849287Y436634D01*
X849218Y436652D01*
X849151Y436679D01*
X849080Y436687D01*
X849048Y436695D01*
X849025Y436693D01*
X848984Y436697D01*
X836132Y436697D01*
X824745Y448085D01*
X824728Y448096D01*
X824716Y448112D01*
X824628Y448168D01*
X824545Y448228D01*
X824526Y448234D01*
X824509Y448245D01*
X824408Y448270D01*
X824310Y448301D01*
X824290Y448300D01*
X824270Y448305D01*
X824167Y448297D01*
X824064Y448294D01*
X824045Y448287D01*
X824025Y448286D01*
X823930Y448245D01*
X823833Y448210D01*
X823817Y448197D01*
X823799Y448189D01*
X823774Y448169D01*
X821637Y447284D01*
X819363Y447284D01*
X817262Y448154D01*
X815654Y449762D01*
X814784Y451863D01*
X814784Y454137D01*
X815654Y456238D01*
X817262Y457846D01*
X819363Y458716D01*
X821637Y458716D01*
X823738Y457846D01*
X825058Y456526D01*
X825132Y456473D01*
X825201Y456413D01*
X825231Y456401D01*
X825257Y456382D01*
X825344Y456355D01*
X825429Y456321D01*
X825470Y456317D01*
X825492Y456310D01*
X825525Y456311D01*
X825596Y456303D01*
X825868Y456303D01*
X827052Y455119D01*
X827089Y455092D01*
X827120Y455058D01*
X827162Y455036D01*
X827192Y455009D01*
X827220Y454998D01*
X827251Y454975D01*
X827295Y454962D01*
X827336Y454940D01*
X827388Y454930D01*
X827421Y454917D01*
X827452Y454914D01*
X827487Y454903D01*
X827532Y454904D01*
X827578Y454896D01*
X827655Y454907D01*
X827732Y454909D01*
X827776Y454925D01*
X827821Y454932D01*
X827890Y454967D01*
X827963Y454994D01*
X827999Y455023D01*
X828040Y455043D01*
X828049Y455052D01*
X828051Y455054D01*
X828085Y455089D01*
X828095Y455099D01*
X828156Y455148D01*
X828180Y455186D01*
X828212Y455219D01*
X828218Y455229D01*
X828221Y455232D01*
X828227Y455245D01*
X828278Y455339D01*
X828289Y455355D01*
X828290Y455359D01*
X828293Y455366D01*
X828654Y456238D01*
X829378Y456962D01*
X829390Y456978D01*
X829406Y456990D01*
X829462Y457078D01*
X829522Y457161D01*
X829528Y457180D01*
X829539Y457197D01*
X829564Y457298D01*
X829594Y457397D01*
X829594Y457416D01*
X829599Y457436D01*
X829591Y457539D01*
X829588Y457642D01*
X829581Y457661D01*
X829580Y457681D01*
X829539Y457776D01*
X829504Y457873D01*
X829491Y457889D01*
X829483Y457907D01*
X829378Y458038D01*
X828431Y458985D01*
X827561Y461086D01*
X827561Y463360D01*
X828431Y465461D01*
X830039Y467069D01*
X832140Y467939D01*
X834414Y467939D01*
X836515Y467069D01*
X837835Y465749D01*
X837908Y465696D01*
X837978Y465636D01*
X838008Y465624D01*
X838034Y465605D01*
X838121Y465578D01*
X838206Y465544D01*
X838247Y465540D01*
X838269Y465533D01*
X838302Y465534D01*
X838373Y465526D01*
X847891Y465526D01*
X847962Y465537D01*
X848034Y465539D01*
X848083Y465557D01*
X848134Y465566D01*
X848197Y465599D01*
X848265Y465624D01*
X848305Y465656D01*
X848351Y465681D01*
X848401Y465733D01*
X848457Y465777D01*
X848485Y465821D01*
X848521Y465859D01*
X848551Y465924D01*
X848590Y465984D01*
X848602Y466035D01*
X848624Y466082D01*
X848632Y466153D01*
X848650Y466223D01*
X848646Y466275D01*
X848651Y466326D01*
X848636Y466397D01*
X848631Y466468D01*
X848610Y466516D01*
X848599Y466567D01*
X848562Y466628D01*
X848534Y466694D01*
X848489Y466750D01*
X848473Y466778D01*
X848455Y466793D01*
X848430Y466825D01*
X847992Y467263D01*
X847476Y468509D01*
X847414Y468609D01*
X847354Y468709D01*
X847350Y468713D01*
X847346Y468718D01*
X847256Y468793D01*
X847167Y468869D01*
X847161Y468871D01*
X847157Y468875D01*
X847048Y468917D01*
X846939Y468961D01*
X846932Y468962D01*
X846927Y468963D01*
X846909Y468964D01*
X846772Y468979D01*
X841030Y468979D01*
X820824Y489185D01*
X820824Y500996D01*
X820810Y501086D01*
X820802Y501177D01*
X820790Y501207D01*
X820785Y501239D01*
X820742Y501320D01*
X820706Y501404D01*
X820680Y501436D01*
X820669Y501456D01*
X820646Y501479D01*
X820601Y501535D01*
X819286Y502850D01*
X818439Y504894D01*
X818439Y507106D01*
X819286Y509150D01*
X820850Y510714D01*
X822894Y511561D01*
X825179Y511561D01*
X825249Y511544D01*
X825269Y511546D01*
X825289Y511543D01*
X825391Y511558D01*
X825494Y511567D01*
X825513Y511575D01*
X825532Y511578D01*
X825624Y511625D01*
X825719Y511667D01*
X825734Y511681D01*
X825752Y511690D01*
X825824Y511764D01*
X825900Y511833D01*
X825910Y511851D01*
X825924Y511865D01*
X826005Y512012D01*
X826786Y513898D01*
X828350Y515462D01*
X830394Y516309D01*
X832606Y516309D01*
X834650Y515462D01*
X836214Y513898D01*
X837061Y511854D01*
X837061Y509642D01*
X836214Y507598D01*
X835592Y506976D01*
X835580Y506960D01*
X835565Y506947D01*
X835509Y506860D01*
X835448Y506776D01*
X835443Y506757D01*
X835432Y506740D01*
X835406Y506640D01*
X835376Y506541D01*
X835377Y506521D01*
X835372Y506502D01*
X835380Y506399D01*
X835382Y506295D01*
X835389Y506276D01*
X835391Y506257D01*
X835431Y506162D01*
X835467Y506064D01*
X835479Y506048D01*
X835487Y506030D01*
X835592Y505899D01*
X844347Y497144D01*
X844421Y497091D01*
X844491Y497031D01*
X844521Y497019D01*
X844547Y497000D01*
X844634Y496973D01*
X844719Y496939D01*
X844760Y496935D01*
X844782Y496928D01*
X844814Y496929D01*
X844886Y496921D01*
X846772Y496921D01*
X846887Y496940D01*
X847003Y496957D01*
X847009Y496959D01*
X847015Y496960D01*
X847118Y497015D01*
X847223Y497068D01*
X847227Y497073D01*
X847233Y497076D01*
X847312Y497160D01*
X847395Y497244D01*
X847399Y497250D01*
X847402Y497254D01*
X847410Y497271D01*
X847476Y497391D01*
X847992Y498637D01*
X850422Y501067D01*
X853596Y502382D01*
X869224Y502382D01*
X872398Y501067D01*
X874828Y498637D01*
X876143Y495463D01*
X876143Y492027D01*
X874828Y488853D01*
X872398Y486423D01*
X869224Y485108D01*
X853596Y485108D01*
X850422Y486423D01*
X847992Y488853D01*
X847476Y490099D01*
X847414Y490199D01*
X847354Y490299D01*
X847350Y490303D01*
X847346Y490308D01*
X847256Y490383D01*
X847167Y490459D01*
X847161Y490461D01*
X847157Y490465D01*
X847048Y490507D01*
X846939Y490551D01*
X846932Y490552D01*
X846927Y490553D01*
X846909Y490554D01*
X846772Y490569D01*
X841940Y490569D01*
X839856Y492653D01*
X829725Y502784D01*
X829709Y502796D01*
X829696Y502811D01*
X829609Y502867D01*
X829525Y502928D01*
X829506Y502933D01*
X829489Y502944D01*
X829389Y502970D01*
X829290Y503000D01*
X829270Y502999D01*
X829251Y503004D01*
X829148Y502996D01*
X829044Y502994D01*
X829025Y502987D01*
X829005Y502985D01*
X828911Y502945D01*
X828813Y502909D01*
X828797Y502897D01*
X828779Y502889D01*
X828648Y502784D01*
X827399Y501535D01*
X827346Y501461D01*
X827286Y501391D01*
X827274Y501361D01*
X827255Y501335D01*
X827228Y501248D01*
X827194Y501163D01*
X827190Y501122D01*
X827183Y501100D01*
X827184Y501068D01*
X827176Y500996D01*
X827176Y492131D01*
X827190Y492041D01*
X827198Y491950D01*
X827210Y491920D01*
X827215Y491888D01*
X827258Y491807D01*
X827294Y491723D01*
X827320Y491691D01*
X827331Y491671D01*
X827354Y491648D01*
X827399Y491592D01*
X843437Y475554D01*
X843511Y475501D01*
X843581Y475441D01*
X843611Y475429D01*
X843637Y475410D01*
X843724Y475383D01*
X843809Y475349D01*
X843850Y475345D01*
X843872Y475338D01*
X843904Y475339D01*
X843976Y475331D01*
X846772Y475331D01*
X846887Y475350D01*
X847003Y475367D01*
X847009Y475369D01*
X847015Y475370D01*
X847118Y475425D01*
X847223Y475478D01*
X847227Y475483D01*
X847233Y475486D01*
X847312Y475570D01*
X847395Y475654D01*
X847399Y475660D01*
X847402Y475664D01*
X847410Y475681D01*
X847476Y475801D01*
X847992Y477047D01*
X850422Y479477D01*
X853596Y480792D01*
X869224Y480792D01*
X872398Y479477D01*
X872898Y478977D01*
X872956Y478936D01*
X873008Y478886D01*
X873055Y478864D01*
X873097Y478834D01*
X873166Y478813D01*
X873231Y478783D01*
X873283Y478777D01*
X873333Y478762D01*
X873404Y478763D01*
X873475Y478756D01*
X873526Y478767D01*
X873578Y478768D01*
X873646Y478793D01*
X873716Y478808D01*
X873761Y478834D01*
X873809Y478852D01*
X873865Y478897D01*
X873927Y478934D01*
X873961Y478974D01*
X874001Y479006D01*
X874040Y479066D01*
X874087Y479121D01*
X874106Y479169D01*
X874134Y479213D01*
X874152Y479282D01*
X874179Y479349D01*
X874187Y479420D01*
X874195Y479451D01*
X874193Y479475D01*
X874197Y479516D01*
X874197Y481368D01*
X889132Y496303D01*
X889696Y496303D01*
X889811Y496322D01*
X889927Y496339D01*
X889933Y496341D01*
X889939Y496342D01*
X890042Y496397D01*
X890147Y496450D01*
X890151Y496455D01*
X890157Y496458D01*
X890236Y496542D01*
X890319Y496626D01*
X890323Y496632D01*
X890326Y496636D01*
X890334Y496653D01*
X890400Y496773D01*
X891172Y498637D01*
X893602Y501067D01*
X896776Y502382D01*
X912404Y502382D01*
X915578Y501067D01*
X918008Y498637D01*
X919323Y495463D01*
X919323Y492027D01*
X918008Y488853D01*
X915578Y486423D01*
X912404Y485108D01*
X896776Y485108D01*
X893602Y486423D01*
X891636Y488389D01*
X891620Y488400D01*
X891607Y488416D01*
X891520Y488472D01*
X891436Y488532D01*
X891417Y488538D01*
X891401Y488549D01*
X891300Y488574D01*
X891201Y488605D01*
X891181Y488604D01*
X891162Y488609D01*
X891059Y488601D01*
X890955Y488598D01*
X890937Y488591D01*
X890917Y488590D01*
X890822Y488550D01*
X890724Y488514D01*
X890709Y488501D01*
X890690Y488494D01*
X890559Y488389D01*
X881026Y478855D01*
X880973Y478781D01*
X880913Y478712D01*
X880901Y478681D01*
X880882Y478655D01*
X880855Y478568D01*
X880821Y478483D01*
X880817Y478442D01*
X880810Y478420D01*
X880811Y478388D01*
X880803Y478317D01*
X880803Y466632D01*
X873078Y458907D01*
X873060Y458907D01*
X873011Y458889D01*
X872960Y458881D01*
X872897Y458847D01*
X872829Y458822D01*
X872789Y458790D01*
X872743Y458765D01*
X872693Y458714D01*
X872637Y458669D01*
X872609Y458625D01*
X872573Y458587D01*
X872543Y458522D01*
X872504Y458462D01*
X872492Y458411D01*
X872470Y458364D01*
X872462Y458293D01*
X872444Y458223D01*
X872448Y458171D01*
X872442Y458120D01*
X872458Y458049D01*
X872463Y457978D01*
X872484Y457930D01*
X872495Y457879D01*
X872532Y457818D01*
X872560Y457752D01*
X872604Y457696D01*
X872621Y457668D01*
X872639Y457653D01*
X872664Y457621D01*
X874828Y455457D01*
X875233Y454480D01*
X875284Y454397D01*
X875330Y454311D01*
X875349Y454293D01*
X875362Y454271D01*
X875437Y454209D01*
X875508Y454142D01*
X875532Y454131D01*
X875552Y454114D01*
X875643Y454079D01*
X875731Y454038D01*
X875757Y454035D01*
X875781Y454026D01*
X875879Y454022D01*
X875975Y454011D01*
X876001Y454017D01*
X876027Y454015D01*
X876121Y454043D01*
X876216Y454063D01*
X876238Y454077D01*
X876263Y454084D01*
X876343Y454139D01*
X876427Y454189D01*
X876444Y454209D01*
X876465Y454224D01*
X876524Y454302D01*
X876587Y454376D01*
X876597Y454401D01*
X876612Y454422D01*
X876642Y454514D01*
X876679Y454604D01*
X876682Y454637D01*
X876688Y454655D01*
X876688Y454688D01*
X876697Y454771D01*
X876697Y458868D01*
X878855Y461026D01*
X889634Y471805D01*
X889687Y471879D01*
X889747Y471948D01*
X889759Y471979D01*
X889778Y472005D01*
X889805Y472092D01*
X889839Y472177D01*
X889843Y472218D01*
X889850Y472240D01*
X889849Y472272D01*
X889857Y472343D01*
X889857Y473873D01*
X891172Y477047D01*
X893602Y479477D01*
X896776Y480792D01*
X912404Y480792D01*
X915578Y479477D01*
X918008Y477047D01*
X919323Y473873D01*
X919323Y470437D01*
X918008Y467263D01*
X915578Y464833D01*
X912404Y463518D01*
X896776Y463518D01*
X893602Y464833D01*
X893341Y465094D01*
X893325Y465105D01*
X893312Y465121D01*
X893225Y465177D01*
X893141Y465237D01*
X893122Y465243D01*
X893106Y465254D01*
X893005Y465279D01*
X892906Y465310D01*
X892886Y465309D01*
X892867Y465314D01*
X892764Y465306D01*
X892660Y465303D01*
X892642Y465296D01*
X892622Y465295D01*
X892527Y465255D01*
X892429Y465219D01*
X892414Y465206D01*
X892395Y465199D01*
X892264Y465094D01*
X883526Y456355D01*
X883473Y456281D01*
X883413Y456212D01*
X883401Y456181D01*
X883382Y456155D01*
X883355Y456068D01*
X883321Y455983D01*
X883317Y455942D01*
X883310Y455920D01*
X883311Y455888D01*
X883303Y455817D01*
X883303Y443632D01*
X876368Y436697D01*
X873836Y436697D01*
X873765Y436686D01*
X873693Y436684D01*
X873644Y436666D01*
X873593Y436658D01*
X873530Y436624D01*
X873462Y436599D01*
X873422Y436567D01*
X873376Y436542D01*
X873326Y436490D01*
X873270Y436446D01*
X873242Y436402D01*
X873206Y436364D01*
X873176Y436299D01*
X873137Y436239D01*
X873125Y436188D01*
X873103Y436141D01*
X873095Y436070D01*
X873077Y436000D01*
X873081Y435948D01*
X873076Y435897D01*
X873091Y435826D01*
X873096Y435755D01*
X873117Y435707D01*
X873128Y435656D01*
X873165Y435595D01*
X873193Y435529D01*
X873237Y435473D01*
X873254Y435445D01*
X873272Y435430D01*
X873297Y435398D01*
X874828Y433867D01*
X876143Y430693D01*
X876143Y427257D01*
X874828Y424083D01*
X872398Y421653D01*
X869224Y420338D01*
X853596Y420338D01*
G37*
%LPD*%
%LPC*%
G36*
X363888Y24411D02*
X363888Y24411D01*
X361834Y25262D01*
X360262Y26834D01*
X359411Y28888D01*
X359411Y211112D01*
X360262Y213166D01*
X361834Y214738D01*
X363888Y215589D01*
X366112Y215589D01*
X368169Y214737D01*
X368283Y214710D01*
X368396Y214682D01*
X368402Y214682D01*
X368408Y214681D01*
X368524Y214692D01*
X368641Y214701D01*
X368647Y214703D01*
X368653Y214704D01*
X368760Y214751D01*
X368867Y214797D01*
X368873Y214802D01*
X368878Y214804D01*
X368891Y214816D01*
X368998Y214902D01*
X369334Y215238D01*
X371388Y216089D01*
X373612Y216089D01*
X375666Y215238D01*
X377238Y213666D01*
X378089Y211612D01*
X378089Y209388D01*
X377238Y207334D01*
X370812Y200908D01*
X370759Y200834D01*
X370699Y200765D01*
X370687Y200734D01*
X370668Y200708D01*
X370641Y200621D01*
X370607Y200536D01*
X370603Y200496D01*
X370596Y200473D01*
X370597Y200441D01*
X370589Y200370D01*
X370589Y38630D01*
X370603Y38540D01*
X370611Y38449D01*
X370623Y38419D01*
X370628Y38388D01*
X370671Y38307D01*
X370707Y38223D01*
X370733Y38191D01*
X370744Y38170D01*
X370767Y38148D01*
X370812Y38092D01*
X373352Y35552D01*
X373405Y35514D01*
X373452Y35468D01*
X373525Y35428D01*
X373551Y35409D01*
X373570Y35403D01*
X373599Y35387D01*
X375166Y34738D01*
X376738Y33166D01*
X377589Y31112D01*
X377589Y28888D01*
X376738Y26834D01*
X375166Y25262D01*
X373112Y24411D01*
X369888Y24411D01*
X368291Y25073D01*
X368202Y25094D01*
X368116Y25122D01*
X368083Y25122D01*
X368052Y25129D01*
X367961Y25120D01*
X367870Y25120D01*
X367830Y25108D01*
X367807Y25106D01*
X367778Y25093D01*
X367709Y25073D01*
X366112Y24411D01*
X363888Y24411D01*
G37*
%LPD*%
%LPC*%
G36*
X446894Y156939D02*
X446894Y156939D01*
X444850Y157786D01*
X443286Y159350D01*
X442439Y161394D01*
X442439Y163606D01*
X442744Y164343D01*
X442755Y164387D01*
X442774Y164429D01*
X442783Y164506D01*
X442801Y164582D01*
X442796Y164628D01*
X442801Y164673D01*
X442785Y164750D01*
X442777Y164827D01*
X442759Y164869D01*
X442749Y164914D01*
X442709Y164981D01*
X442677Y165052D01*
X442646Y165086D01*
X442623Y165125D01*
X442564Y165176D01*
X442511Y165233D01*
X442471Y165255D01*
X442436Y165285D01*
X442364Y165314D01*
X442296Y165351D01*
X442250Y165360D01*
X442208Y165377D01*
X442072Y165392D01*
X442054Y165395D01*
X442049Y165394D01*
X442041Y165395D01*
X435186Y165395D01*
X432759Y166401D01*
X430901Y168259D01*
X429895Y170686D01*
X429895Y173314D01*
X430901Y175741D01*
X432759Y177599D01*
X435186Y178605D01*
X442626Y178605D01*
X442745Y178624D01*
X442866Y178643D01*
X442868Y178644D01*
X442869Y178644D01*
X442875Y178648D01*
X443018Y178713D01*
X443824Y179197D01*
X443831Y179203D01*
X443840Y179207D01*
X443971Y179311D01*
X444259Y179599D01*
X444969Y179893D01*
X444997Y179911D01*
X445069Y179944D01*
X445728Y180339D01*
X446131Y180399D01*
X446140Y180402D01*
X446149Y180402D01*
X446310Y180449D01*
X446686Y180605D01*
X447455Y180605D01*
X447487Y180610D01*
X447567Y180613D01*
X448327Y180726D01*
X448722Y180627D01*
X448731Y180627D01*
X448740Y180623D01*
X448907Y180605D01*
X551814Y180605D01*
X554241Y179599D01*
X556099Y177741D01*
X557105Y175314D01*
X557105Y172686D01*
X556099Y170259D01*
X554241Y168401D01*
X551814Y167395D01*
X474322Y167395D01*
X474302Y167392D01*
X474283Y167394D01*
X474181Y167372D01*
X474079Y167356D01*
X474062Y167346D01*
X474042Y167342D01*
X473953Y167289D01*
X473862Y167240D01*
X473848Y167226D01*
X473831Y167216D01*
X473764Y167137D01*
X473692Y167062D01*
X473684Y167044D01*
X473671Y167029D01*
X473632Y166933D01*
X473589Y166839D01*
X473587Y166819D01*
X473579Y166801D01*
X473561Y166634D01*
X473561Y164394D01*
X472714Y162350D01*
X471150Y160786D01*
X469106Y159939D01*
X466894Y159939D01*
X464850Y160786D01*
X463535Y162101D01*
X463461Y162154D01*
X463391Y162214D01*
X463361Y162226D01*
X463335Y162245D01*
X463248Y162272D01*
X463163Y162306D01*
X463122Y162310D01*
X463100Y162317D01*
X463068Y162316D01*
X462996Y162324D01*
X460631Y162324D01*
X460541Y162310D01*
X460450Y162302D01*
X460420Y162290D01*
X460388Y162285D01*
X460307Y162242D01*
X460223Y162206D01*
X460191Y162180D01*
X460171Y162169D01*
X460148Y162146D01*
X460092Y162101D01*
X457315Y159324D01*
X453004Y159324D01*
X452914Y159310D01*
X452823Y159302D01*
X452793Y159290D01*
X452761Y159285D01*
X452680Y159242D01*
X452596Y159206D01*
X452564Y159180D01*
X452544Y159169D01*
X452521Y159146D01*
X452465Y159101D01*
X451150Y157786D01*
X449106Y156939D01*
X446894Y156939D01*
G37*
%LPD*%
%LPC*%
G36*
X256363Y623784D02*
X256363Y623784D01*
X254262Y624654D01*
X252654Y626262D01*
X251784Y628363D01*
X251784Y630637D01*
X252654Y632738D01*
X254262Y634346D01*
X256363Y635216D01*
X258637Y635216D01*
X258804Y635147D01*
X258867Y635132D01*
X258928Y635107D01*
X259011Y635098D01*
X259043Y635091D01*
X259062Y635092D01*
X259095Y635089D01*
X384698Y635089D01*
X384763Y635099D01*
X384828Y635100D01*
X384908Y635123D01*
X384941Y635128D01*
X384958Y635138D01*
X384989Y635147D01*
X386363Y635716D01*
X388637Y635716D01*
X390738Y634846D01*
X392346Y633238D01*
X393216Y631137D01*
X393216Y628863D01*
X392346Y626762D01*
X390738Y625154D01*
X390571Y625085D01*
X390515Y625051D01*
X390455Y625025D01*
X390390Y624973D01*
X390362Y624956D01*
X390350Y624941D01*
X390324Y624920D01*
X390166Y624762D01*
X388112Y623911D01*
X259095Y623911D01*
X259030Y623901D01*
X258965Y623900D01*
X258885Y623877D01*
X258852Y623872D01*
X258835Y623862D01*
X258804Y623853D01*
X258637Y623784D01*
X256363Y623784D01*
G37*
%LPD*%
%LPC*%
G36*
X633500Y422359D02*
X633500Y422359D01*
X630728Y423507D01*
X628607Y425628D01*
X627459Y428400D01*
X627459Y431400D01*
X628607Y434172D01*
X630148Y435712D01*
X630159Y435728D01*
X630175Y435740D01*
X630231Y435828D01*
X630291Y435911D01*
X630297Y435930D01*
X630308Y435947D01*
X630333Y436048D01*
X630363Y436147D01*
X630363Y436166D01*
X630368Y436186D01*
X630360Y436289D01*
X630357Y436392D01*
X630350Y436411D01*
X630349Y436431D01*
X630308Y436526D01*
X630273Y436623D01*
X630260Y436639D01*
X630252Y436657D01*
X630148Y436788D01*
X628607Y438328D01*
X627459Y441100D01*
X627459Y444100D01*
X628607Y446872D01*
X630148Y448412D01*
X630159Y448428D01*
X630175Y448440D01*
X630231Y448528D01*
X630291Y448611D01*
X630297Y448630D01*
X630308Y448647D01*
X630333Y448748D01*
X630363Y448847D01*
X630363Y448866D01*
X630368Y448886D01*
X630360Y448989D01*
X630357Y449092D01*
X630350Y449111D01*
X630349Y449131D01*
X630308Y449226D01*
X630273Y449323D01*
X630260Y449339D01*
X630252Y449357D01*
X630148Y449488D01*
X628607Y451028D01*
X627459Y453800D01*
X627459Y456800D01*
X628607Y459572D01*
X630148Y461112D01*
X630159Y461128D01*
X630175Y461140D01*
X630231Y461228D01*
X630291Y461311D01*
X630297Y461330D01*
X630308Y461347D01*
X630333Y461448D01*
X630363Y461547D01*
X630363Y461566D01*
X630368Y461586D01*
X630360Y461689D01*
X630357Y461792D01*
X630350Y461811D01*
X630349Y461831D01*
X630308Y461926D01*
X630273Y462023D01*
X630260Y462039D01*
X630252Y462057D01*
X630148Y462188D01*
X628607Y463728D01*
X627459Y466500D01*
X627459Y469500D01*
X628607Y472272D01*
X630728Y474393D01*
X633500Y475541D01*
X636500Y475541D01*
X639272Y474393D01*
X641393Y472272D01*
X641652Y471646D01*
X641714Y471546D01*
X641773Y471446D01*
X641778Y471442D01*
X641782Y471437D01*
X641872Y471362D01*
X641960Y471286D01*
X641966Y471284D01*
X641971Y471280D01*
X642079Y471238D01*
X642189Y471194D01*
X642196Y471193D01*
X642201Y471192D01*
X642219Y471191D01*
X642355Y471176D01*
X658959Y471176D01*
X659074Y471195D01*
X659190Y471212D01*
X659196Y471214D01*
X659202Y471215D01*
X659305Y471270D01*
X659410Y471323D01*
X659414Y471328D01*
X659420Y471331D01*
X659499Y471415D01*
X659582Y471499D01*
X659586Y471505D01*
X659589Y471509D01*
X659597Y471526D01*
X659663Y471646D01*
X660286Y473150D01*
X661850Y474714D01*
X663894Y475561D01*
X666106Y475561D01*
X668150Y474714D01*
X669714Y473150D01*
X670561Y471106D01*
X670561Y468894D01*
X669714Y466850D01*
X668150Y465286D01*
X666106Y464439D01*
X663894Y464439D01*
X663104Y464766D01*
X663041Y464781D01*
X662980Y464806D01*
X662897Y464815D01*
X662865Y464822D01*
X662846Y464821D01*
X662813Y464824D01*
X642355Y464824D01*
X642241Y464805D01*
X642124Y464788D01*
X642119Y464786D01*
X642112Y464785D01*
X642010Y464730D01*
X641905Y464677D01*
X641901Y464672D01*
X641895Y464669D01*
X641815Y464585D01*
X641733Y464501D01*
X641729Y464495D01*
X641726Y464491D01*
X641718Y464474D01*
X641652Y464354D01*
X641393Y463728D01*
X639852Y462188D01*
X639841Y462172D01*
X639825Y462160D01*
X639769Y462072D01*
X639709Y461989D01*
X639703Y461970D01*
X639692Y461953D01*
X639667Y461852D01*
X639637Y461753D01*
X639637Y461734D01*
X639632Y461714D01*
X639640Y461611D01*
X639643Y461508D01*
X639650Y461489D01*
X639651Y461469D01*
X639692Y461374D01*
X639727Y461277D01*
X639740Y461261D01*
X639748Y461243D01*
X639852Y461112D01*
X641393Y459572D01*
X641652Y458946D01*
X641714Y458846D01*
X641773Y458746D01*
X641778Y458742D01*
X641782Y458737D01*
X641872Y458662D01*
X641960Y458586D01*
X641966Y458584D01*
X641971Y458580D01*
X642079Y458538D01*
X642189Y458494D01*
X642196Y458493D01*
X642201Y458492D01*
X642219Y458491D01*
X642355Y458476D01*
X648866Y458476D01*
X648931Y458486D01*
X648997Y458487D01*
X649076Y458510D01*
X649109Y458515D01*
X649126Y458525D01*
X649158Y458534D01*
X649223Y458561D01*
X651435Y458561D01*
X653479Y457714D01*
X655043Y456150D01*
X655890Y454106D01*
X655890Y451894D01*
X655043Y449850D01*
X653479Y448286D01*
X651435Y447439D01*
X649223Y447439D01*
X647179Y448286D01*
X645615Y449850D01*
X644868Y451654D01*
X644806Y451754D01*
X644746Y451854D01*
X644741Y451858D01*
X644738Y451863D01*
X644648Y451938D01*
X644559Y452014D01*
X644553Y452016D01*
X644548Y452020D01*
X644440Y452062D01*
X644331Y452106D01*
X644323Y452107D01*
X644319Y452108D01*
X644301Y452109D01*
X644164Y452124D01*
X642355Y452124D01*
X642241Y452105D01*
X642124Y452088D01*
X642119Y452086D01*
X642112Y452085D01*
X642010Y452030D01*
X641905Y451977D01*
X641901Y451972D01*
X641895Y451969D01*
X641815Y451885D01*
X641733Y451801D01*
X641729Y451795D01*
X641726Y451791D01*
X641718Y451774D01*
X641652Y451654D01*
X641393Y451028D01*
X639852Y449488D01*
X639841Y449472D01*
X639825Y449460D01*
X639769Y449372D01*
X639709Y449289D01*
X639703Y449270D01*
X639692Y449253D01*
X639667Y449152D01*
X639637Y449053D01*
X639637Y449034D01*
X639632Y449014D01*
X639640Y448911D01*
X639643Y448808D01*
X639650Y448789D01*
X639651Y448769D01*
X639692Y448674D01*
X639727Y448577D01*
X639740Y448561D01*
X639748Y448543D01*
X639852Y448412D01*
X641393Y446872D01*
X641652Y446246D01*
X641714Y446146D01*
X641773Y446046D01*
X641778Y446042D01*
X641782Y446037D01*
X641872Y445962D01*
X641960Y445886D01*
X641966Y445884D01*
X641971Y445880D01*
X642079Y445838D01*
X642189Y445794D01*
X642196Y445793D01*
X642201Y445792D01*
X642219Y445791D01*
X642355Y445776D01*
X663523Y445776D01*
X663543Y445779D01*
X663562Y445777D01*
X663664Y445799D01*
X663766Y445815D01*
X663783Y445825D01*
X663803Y445829D01*
X663892Y445882D01*
X663983Y445931D01*
X663997Y445945D01*
X664014Y445955D01*
X664081Y446034D01*
X664153Y446109D01*
X664161Y446127D01*
X664174Y446142D01*
X664213Y446238D01*
X664256Y446332D01*
X664258Y446352D01*
X664266Y446370D01*
X664284Y446537D01*
X664284Y446637D01*
X665154Y448738D01*
X666762Y450346D01*
X668863Y451216D01*
X671137Y451216D01*
X673238Y450346D01*
X674846Y448738D01*
X675716Y446637D01*
X675716Y444363D01*
X674846Y442262D01*
X673238Y440654D01*
X671137Y439784D01*
X669091Y439784D01*
X669001Y439770D01*
X668910Y439762D01*
X668880Y439750D01*
X668848Y439745D01*
X668767Y439702D01*
X668683Y439666D01*
X668651Y439640D01*
X668631Y439629D01*
X668608Y439606D01*
X668552Y439561D01*
X668415Y439424D01*
X642355Y439424D01*
X642241Y439405D01*
X642124Y439388D01*
X642119Y439386D01*
X642112Y439385D01*
X642010Y439330D01*
X641905Y439277D01*
X641901Y439272D01*
X641895Y439269D01*
X641815Y439185D01*
X641733Y439101D01*
X641729Y439095D01*
X641726Y439091D01*
X641718Y439074D01*
X641652Y438954D01*
X641393Y438328D01*
X639852Y436788D01*
X639841Y436772D01*
X639825Y436760D01*
X639769Y436672D01*
X639709Y436589D01*
X639703Y436570D01*
X639692Y436553D01*
X639667Y436452D01*
X639637Y436353D01*
X639637Y436334D01*
X639632Y436314D01*
X639640Y436211D01*
X639643Y436108D01*
X639650Y436089D01*
X639651Y436069D01*
X639692Y435974D01*
X639727Y435877D01*
X639740Y435861D01*
X639748Y435843D01*
X639852Y435712D01*
X641393Y434172D01*
X641403Y434146D01*
X641465Y434046D01*
X641525Y433946D01*
X641530Y433942D01*
X641533Y433937D01*
X641623Y433862D01*
X641712Y433786D01*
X641718Y433784D01*
X641722Y433780D01*
X641831Y433738D01*
X641940Y433694D01*
X641947Y433693D01*
X641952Y433692D01*
X641970Y433691D01*
X642107Y433676D01*
X665277Y433676D01*
X665367Y433690D01*
X665458Y433698D01*
X665488Y433710D01*
X665520Y433715D01*
X665601Y433758D01*
X665684Y433794D01*
X665717Y433820D01*
X665737Y433831D01*
X665759Y433854D01*
X665815Y433899D01*
X667262Y435346D01*
X669363Y436216D01*
X671637Y436216D01*
X673738Y435346D01*
X675346Y433738D01*
X676216Y431637D01*
X676216Y429363D01*
X675346Y427262D01*
X673738Y425654D01*
X671637Y424784D01*
X669363Y424784D01*
X667262Y425654D01*
X665815Y427101D01*
X665741Y427154D01*
X665672Y427214D01*
X665642Y427226D01*
X665616Y427245D01*
X665529Y427272D01*
X665444Y427306D01*
X665403Y427310D01*
X665381Y427317D01*
X665348Y427316D01*
X665277Y427324D01*
X642604Y427324D01*
X642489Y427305D01*
X642373Y427288D01*
X642367Y427286D01*
X642361Y427285D01*
X642258Y427230D01*
X642154Y427177D01*
X642149Y427172D01*
X642144Y427169D01*
X642064Y427085D01*
X641981Y427001D01*
X641978Y426995D01*
X641974Y426991D01*
X641966Y426974D01*
X641900Y426854D01*
X641393Y425628D01*
X639272Y423507D01*
X636500Y422359D01*
X633500Y422359D01*
G37*
%LPD*%
%LPC*%
G36*
X288894Y241939D02*
X288894Y241939D01*
X286850Y242786D01*
X285286Y244350D01*
X284439Y246394D01*
X284439Y246678D01*
X284436Y246698D01*
X284438Y246717D01*
X284416Y246819D01*
X284400Y246921D01*
X284390Y246938D01*
X284386Y246958D01*
X284333Y247047D01*
X284284Y247138D01*
X284270Y247152D01*
X284260Y247169D01*
X284181Y247236D01*
X284106Y247308D01*
X284088Y247316D01*
X284073Y247329D01*
X283977Y247368D01*
X283883Y247411D01*
X283863Y247413D01*
X283845Y247421D01*
X283678Y247439D01*
X282894Y247439D01*
X280850Y248286D01*
X279286Y249850D01*
X278439Y251894D01*
X278439Y254106D01*
X279286Y256150D01*
X280850Y257714D01*
X282894Y258561D01*
X284754Y258561D01*
X284844Y258575D01*
X284935Y258583D01*
X284965Y258595D01*
X284997Y258600D01*
X285078Y258643D01*
X285162Y258679D01*
X285194Y258705D01*
X285214Y258716D01*
X285237Y258739D01*
X285293Y258784D01*
X323731Y297222D01*
X323743Y297239D01*
X323758Y297251D01*
X323815Y297338D01*
X323875Y297422D01*
X323881Y297441D01*
X323891Y297458D01*
X323917Y297558D01*
X323947Y297657D01*
X323947Y297677D01*
X323951Y297696D01*
X323943Y297799D01*
X323941Y297903D01*
X323934Y297922D01*
X323932Y297942D01*
X323892Y298036D01*
X323856Y298134D01*
X323844Y298150D01*
X323836Y298168D01*
X323731Y298299D01*
X322180Y299850D01*
X321333Y301894D01*
X321333Y304106D01*
X322180Y306150D01*
X323744Y307714D01*
X325788Y308561D01*
X327648Y308561D01*
X327738Y308575D01*
X327829Y308583D01*
X327859Y308595D01*
X327891Y308600D01*
X327972Y308643D01*
X328056Y308679D01*
X328088Y308705D01*
X328109Y308716D01*
X328131Y308739D01*
X328187Y308784D01*
X328331Y308928D01*
X328399Y309022D01*
X328469Y309116D01*
X328471Y309122D01*
X328474Y309127D01*
X328509Y309239D01*
X328545Y309350D01*
X328545Y309357D01*
X328547Y309363D01*
X328544Y309479D01*
X328543Y309596D01*
X328540Y309603D01*
X328540Y309608D01*
X328534Y309626D01*
X328496Y309757D01*
X328439Y309894D01*
X328439Y312106D01*
X329286Y314150D01*
X330850Y315714D01*
X332894Y316561D01*
X335110Y316561D01*
X335145Y316552D01*
X335187Y316533D01*
X335264Y316525D01*
X335340Y316507D01*
X335386Y316511D01*
X335431Y316506D01*
X335507Y316523D01*
X335585Y316530D01*
X335627Y316549D01*
X335672Y316558D01*
X335739Y316598D01*
X335810Y316630D01*
X335844Y316661D01*
X335883Y316684D01*
X335933Y316744D01*
X335991Y316796D01*
X336013Y316836D01*
X336043Y316871D01*
X336072Y316944D01*
X336109Y317012D01*
X336118Y317057D01*
X336135Y317100D01*
X336150Y317235D01*
X336153Y317254D01*
X336152Y317259D01*
X336153Y317266D01*
X336153Y320750D01*
X343716Y328313D01*
X343769Y328387D01*
X343829Y328457D01*
X343841Y328487D01*
X343860Y328513D01*
X343887Y328600D01*
X343921Y328685D01*
X343925Y328726D01*
X343932Y328748D01*
X343931Y328780D01*
X343939Y328852D01*
X343939Y329106D01*
X344786Y331150D01*
X346350Y332714D01*
X348394Y333561D01*
X350606Y333561D01*
X352650Y332714D01*
X354214Y331150D01*
X355061Y329106D01*
X355061Y326894D01*
X354214Y324850D01*
X352648Y323284D01*
X352647Y323284D01*
X352562Y323225D01*
X352474Y323170D01*
X352461Y323155D01*
X352445Y323143D01*
X352384Y323061D01*
X352317Y322981D01*
X352310Y322962D01*
X352298Y322946D01*
X352266Y322848D01*
X352229Y322751D01*
X352228Y322731D01*
X352222Y322712D01*
X352223Y322608D01*
X352219Y322505D01*
X352224Y322486D01*
X352224Y322466D01*
X352271Y322305D01*
X352561Y321606D01*
X352561Y319394D01*
X351714Y317350D01*
X350150Y315786D01*
X348106Y314939D01*
X346937Y314939D01*
X346917Y314936D01*
X346898Y314938D01*
X346796Y314916D01*
X346694Y314900D01*
X346677Y314890D01*
X346657Y314886D01*
X346568Y314833D01*
X346477Y314784D01*
X346463Y314770D01*
X346446Y314760D01*
X346379Y314681D01*
X346307Y314606D01*
X346299Y314588D01*
X346286Y314573D01*
X346247Y314477D01*
X346204Y314383D01*
X346202Y314363D01*
X346194Y314345D01*
X346176Y314178D01*
X346176Y305685D01*
X293466Y252975D01*
X293454Y252959D01*
X293439Y252946D01*
X293383Y252859D01*
X293322Y252775D01*
X293317Y252756D01*
X293306Y252739D01*
X293280Y252639D01*
X293250Y252540D01*
X293251Y252520D01*
X293246Y252501D01*
X293254Y252398D01*
X293256Y252294D01*
X293263Y252275D01*
X293265Y252255D01*
X293305Y252161D01*
X293341Y252063D01*
X293353Y252047D01*
X293361Y252029D01*
X293466Y251898D01*
X294714Y250650D01*
X295561Y248606D01*
X295561Y246394D01*
X294714Y244350D01*
X293150Y242786D01*
X291106Y241939D01*
X288894Y241939D01*
G37*
%LPD*%
%LPC*%
G36*
X601081Y83553D02*
X601081Y83553D01*
X599593Y85041D01*
X599593Y114959D01*
X601081Y116447D01*
X630999Y116447D01*
X632487Y114959D01*
X632487Y85041D01*
X630999Y83553D01*
X601081Y83553D01*
G37*
%LPD*%
%LPC*%
G36*
X469001Y83553D02*
X469001Y83553D01*
X467513Y85041D01*
X467513Y114959D01*
X469001Y116447D01*
X498919Y116447D01*
X500407Y114959D01*
X500407Y85041D01*
X498919Y83553D01*
X469001Y83553D01*
G37*
%LPD*%
%LPC*%
G36*
X438863Y681784D02*
X438863Y681784D01*
X436762Y682654D01*
X435154Y684262D01*
X434859Y684976D01*
X434848Y684993D01*
X434843Y685012D01*
X434784Y685097D01*
X434729Y685185D01*
X434714Y685198D01*
X434703Y685214D01*
X434620Y685275D01*
X434540Y685342D01*
X434521Y685349D01*
X434505Y685361D01*
X434407Y685393D01*
X434310Y685430D01*
X434290Y685431D01*
X434271Y685437D01*
X434168Y685436D01*
X434064Y685440D01*
X434045Y685435D01*
X434025Y685435D01*
X433864Y685388D01*
X432137Y684672D01*
X429863Y684672D01*
X427762Y685542D01*
X426154Y687150D01*
X425284Y689251D01*
X425284Y691525D01*
X426154Y693626D01*
X427762Y695234D01*
X427854Y695272D01*
X427953Y695333D01*
X428054Y695393D01*
X428058Y695398D01*
X428063Y695401D01*
X428137Y695490D01*
X428214Y695580D01*
X428216Y695586D01*
X428220Y695591D01*
X428262Y695699D01*
X428306Y695808D01*
X428307Y695816D01*
X428308Y695820D01*
X428309Y695839D01*
X428324Y695975D01*
X428324Y702777D01*
X428310Y702867D01*
X428302Y702958D01*
X428290Y702988D01*
X428285Y703020D01*
X428242Y703101D01*
X428206Y703184D01*
X428180Y703217D01*
X428169Y703237D01*
X428146Y703259D01*
X428101Y703315D01*
X426654Y704762D01*
X425784Y706863D01*
X425784Y709137D01*
X426654Y711238D01*
X428262Y712846D01*
X430363Y713716D01*
X432637Y713716D01*
X434738Y712846D01*
X435406Y712178D01*
X435422Y712166D01*
X435434Y712150D01*
X435522Y712094D01*
X435605Y712034D01*
X435624Y712028D01*
X435641Y712017D01*
X435742Y711992D01*
X435841Y711962D01*
X435861Y711962D01*
X435880Y711957D01*
X435983Y711965D01*
X436086Y711968D01*
X436105Y711975D01*
X436125Y711976D01*
X436220Y712017D01*
X436317Y712052D01*
X436333Y712065D01*
X436351Y712073D01*
X436482Y712178D01*
X436762Y712458D01*
X438863Y713328D01*
X441137Y713328D01*
X443238Y712458D01*
X444846Y710850D01*
X445329Y709682D01*
X445353Y709643D01*
X445369Y709600D01*
X445418Y709539D01*
X445459Y709473D01*
X445494Y709444D01*
X445523Y709408D01*
X445588Y709366D01*
X445648Y709316D01*
X445691Y709300D01*
X445730Y709275D01*
X445805Y709256D01*
X445878Y709228D01*
X445924Y709226D01*
X445968Y709215D01*
X446046Y709221D01*
X446124Y709217D01*
X446168Y709230D01*
X446214Y709234D01*
X446285Y709264D01*
X446360Y709286D01*
X446398Y709312D01*
X446440Y709330D01*
X446547Y709415D01*
X446562Y709426D01*
X446565Y709430D01*
X446571Y709435D01*
X446850Y709714D01*
X448894Y710561D01*
X451106Y710561D01*
X453150Y709714D01*
X454462Y708402D01*
X454478Y708391D01*
X454490Y708375D01*
X454578Y708319D01*
X454661Y708259D01*
X454680Y708253D01*
X454697Y708242D01*
X454798Y708217D01*
X454897Y708186D01*
X454916Y708187D01*
X454936Y708182D01*
X455039Y708190D01*
X455142Y708193D01*
X455161Y708200D01*
X455181Y708201D01*
X455276Y708242D01*
X455373Y708277D01*
X455389Y708290D01*
X455407Y708298D01*
X455538Y708402D01*
X456850Y709714D01*
X458894Y710561D01*
X461106Y710561D01*
X463150Y709714D01*
X464714Y708150D01*
X465561Y706106D01*
X465561Y703894D01*
X464714Y701850D01*
X463399Y700535D01*
X463353Y700471D01*
X463332Y700449D01*
X463328Y700441D01*
X463286Y700391D01*
X463274Y700361D01*
X463255Y700335D01*
X463228Y700248D01*
X463194Y700163D01*
X463190Y700122D01*
X463183Y700100D01*
X463184Y700068D01*
X463176Y699996D01*
X463176Y692504D01*
X463190Y692414D01*
X463198Y692323D01*
X463210Y692293D01*
X463215Y692261D01*
X463258Y692180D01*
X463294Y692096D01*
X463320Y692064D01*
X463331Y692044D01*
X463354Y692021D01*
X463399Y691965D01*
X464714Y690650D01*
X465561Y688606D01*
X465561Y686394D01*
X464714Y684350D01*
X463150Y682786D01*
X461106Y681939D01*
X458894Y681939D01*
X456850Y682786D01*
X455538Y684098D01*
X455522Y684109D01*
X455510Y684125D01*
X455422Y684181D01*
X455339Y684241D01*
X455320Y684247D01*
X455303Y684258D01*
X455202Y684283D01*
X455103Y684314D01*
X455084Y684313D01*
X455064Y684318D01*
X454961Y684310D01*
X454858Y684307D01*
X454839Y684300D01*
X454819Y684299D01*
X454724Y684258D01*
X454627Y684223D01*
X454611Y684210D01*
X454593Y684202D01*
X454462Y684098D01*
X453150Y682786D01*
X451106Y681939D01*
X448894Y681939D01*
X446850Y682786D01*
X445648Y683988D01*
X445632Y684000D01*
X445619Y684015D01*
X445532Y684071D01*
X445448Y684132D01*
X445429Y684137D01*
X445412Y684148D01*
X445312Y684174D01*
X445213Y684204D01*
X445193Y684203D01*
X445174Y684208D01*
X445071Y684200D01*
X444967Y684198D01*
X444948Y684191D01*
X444929Y684189D01*
X444834Y684149D01*
X444736Y684113D01*
X444721Y684101D01*
X444702Y684093D01*
X444571Y683988D01*
X443238Y682654D01*
X441137Y681784D01*
X438863Y681784D01*
G37*
%LPD*%
%LPC*%
G36*
X615894Y408439D02*
X615894Y408439D01*
X613850Y409286D01*
X612286Y410850D01*
X611439Y412894D01*
X611439Y415106D01*
X612113Y416732D01*
X612139Y416845D01*
X612168Y416959D01*
X612167Y416965D01*
X612169Y416971D01*
X612158Y417088D01*
X612149Y417204D01*
X612146Y417210D01*
X612146Y417216D01*
X612098Y417324D01*
X612052Y417430D01*
X612048Y417436D01*
X612046Y417441D01*
X612033Y417454D01*
X611948Y417561D01*
X611824Y417685D01*
X611824Y477496D01*
X611810Y477586D01*
X611802Y477677D01*
X611790Y477707D01*
X611785Y477739D01*
X611742Y477820D01*
X611706Y477904D01*
X611680Y477936D01*
X611669Y477956D01*
X611646Y477979D01*
X611601Y478035D01*
X610286Y479350D01*
X609439Y481394D01*
X609439Y483606D01*
X610286Y485650D01*
X611850Y487214D01*
X613894Y488061D01*
X616106Y488061D01*
X618150Y487214D01*
X619714Y485650D01*
X620484Y483791D01*
X620546Y483692D01*
X620606Y483592D01*
X620610Y483588D01*
X620614Y483582D01*
X620703Y483508D01*
X620792Y483432D01*
X620798Y483429D01*
X620803Y483425D01*
X620911Y483384D01*
X621021Y483340D01*
X621028Y483339D01*
X621033Y483337D01*
X621051Y483336D01*
X621187Y483321D01*
X621845Y483321D01*
X623889Y482475D01*
X625454Y480911D01*
X626300Y478867D01*
X626300Y476655D01*
X625454Y474611D01*
X623889Y473046D01*
X622646Y472531D01*
X622546Y472470D01*
X622446Y472410D01*
X622442Y472405D01*
X622437Y472402D01*
X622362Y472312D01*
X622286Y472223D01*
X622284Y472217D01*
X622280Y472212D01*
X622238Y472104D01*
X622194Y471995D01*
X622193Y471987D01*
X622192Y471983D01*
X622191Y471964D01*
X622176Y471828D01*
X622176Y428404D01*
X622195Y428289D01*
X622212Y428173D01*
X622214Y428168D01*
X622215Y428162D01*
X622270Y428059D01*
X622323Y427954D01*
X622328Y427950D01*
X622331Y427944D01*
X622415Y427864D01*
X622499Y427782D01*
X622505Y427778D01*
X622509Y427775D01*
X622526Y427767D01*
X622646Y427701D01*
X623821Y427214D01*
X625385Y425650D01*
X626232Y423606D01*
X626232Y421394D01*
X625385Y419350D01*
X623821Y417786D01*
X622501Y417239D01*
X622484Y417229D01*
X622465Y417223D01*
X622380Y417164D01*
X622292Y417110D01*
X622279Y417094D01*
X622263Y417083D01*
X622202Y417000D01*
X622135Y416920D01*
X622128Y416901D01*
X622116Y416885D01*
X622084Y416787D01*
X622047Y416690D01*
X622046Y416671D01*
X622040Y416652D01*
X622041Y416548D01*
X622037Y416445D01*
X622042Y416426D01*
X622042Y416406D01*
X622089Y416245D01*
X622561Y415106D01*
X622561Y412894D01*
X621714Y410850D01*
X620150Y409286D01*
X618106Y408439D01*
X615894Y408439D01*
G37*
%LPD*%
%LPC*%
G36*
X449723Y187439D02*
X449723Y187439D01*
X447679Y188286D01*
X446115Y189850D01*
X445268Y191894D01*
X445268Y193425D01*
X445254Y193515D01*
X445246Y193606D01*
X445234Y193636D01*
X445229Y193668D01*
X445186Y193749D01*
X445150Y193833D01*
X445124Y193865D01*
X445113Y193885D01*
X445090Y193908D01*
X445045Y193964D01*
X432043Y206966D01*
X431969Y207019D01*
X431899Y207079D01*
X431869Y207091D01*
X431843Y207110D01*
X431756Y207137D01*
X431671Y207171D01*
X431630Y207175D01*
X431608Y207182D01*
X431576Y207181D01*
X431504Y207189D01*
X429644Y207189D01*
X427600Y208036D01*
X426036Y209600D01*
X425189Y211644D01*
X425189Y213856D01*
X426036Y215900D01*
X427683Y217547D01*
X427695Y217563D01*
X427710Y217576D01*
X427766Y217663D01*
X427827Y217747D01*
X427833Y217766D01*
X427843Y217783D01*
X427869Y217883D01*
X427899Y217982D01*
X427899Y218002D01*
X427903Y218021D01*
X427895Y218124D01*
X427893Y218228D01*
X427886Y218247D01*
X427884Y218267D01*
X427844Y218361D01*
X427808Y218459D01*
X427796Y218475D01*
X427788Y218493D01*
X427683Y218624D01*
X427286Y219021D01*
X426439Y221065D01*
X426439Y223277D01*
X427286Y225321D01*
X428850Y226885D01*
X430894Y227732D01*
X433106Y227732D01*
X435150Y226885D01*
X436714Y225321D01*
X437334Y223824D01*
X437345Y223807D01*
X437350Y223788D01*
X437409Y223703D01*
X437464Y223615D01*
X437479Y223603D01*
X437490Y223586D01*
X437573Y223525D01*
X437653Y223458D01*
X437672Y223451D01*
X437688Y223439D01*
X437786Y223407D01*
X437883Y223370D01*
X437903Y223369D01*
X437922Y223363D01*
X438025Y223364D01*
X438129Y223360D01*
X438148Y223365D01*
X438168Y223366D01*
X438329Y223412D01*
X439894Y224061D01*
X442106Y224061D01*
X444150Y223214D01*
X445714Y221650D01*
X446561Y219606D01*
X446561Y217746D01*
X446575Y217656D01*
X446583Y217565D01*
X446595Y217535D01*
X446600Y217503D01*
X446643Y217422D01*
X446679Y217338D01*
X446705Y217306D01*
X446716Y217286D01*
X446739Y217263D01*
X446784Y217207D01*
X454592Y209399D01*
X454666Y209346D01*
X454736Y209286D01*
X454766Y209274D01*
X454792Y209255D01*
X454879Y209228D01*
X454964Y209194D01*
X455005Y209190D01*
X455027Y209183D01*
X455059Y209184D01*
X455131Y209176D01*
X459581Y209176D01*
X459696Y209195D01*
X459812Y209212D01*
X459817Y209214D01*
X459824Y209215D01*
X459927Y209270D01*
X460031Y209323D01*
X460035Y209328D01*
X460041Y209331D01*
X460121Y209415D01*
X460203Y209499D01*
X460207Y209505D01*
X460210Y209509D01*
X460218Y209526D01*
X460284Y209646D01*
X460286Y209650D01*
X461850Y211214D01*
X463894Y212061D01*
X466106Y212061D01*
X468150Y211214D01*
X469714Y209650D01*
X470561Y207606D01*
X470561Y205394D01*
X469714Y203350D01*
X468150Y201786D01*
X466106Y200939D01*
X463894Y200939D01*
X461850Y201786D01*
X461035Y202601D01*
X460961Y202654D01*
X460891Y202714D01*
X460861Y202726D01*
X460835Y202745D01*
X460748Y202772D01*
X460663Y202806D01*
X460622Y202810D01*
X460600Y202817D01*
X460568Y202816D01*
X460496Y202824D01*
X457695Y202824D01*
X457650Y202817D01*
X457604Y202819D01*
X457530Y202797D01*
X457453Y202785D01*
X457412Y202763D01*
X457368Y202750D01*
X457304Y202706D01*
X457235Y202669D01*
X457204Y202636D01*
X457166Y202610D01*
X457119Y202547D01*
X457066Y202491D01*
X457047Y202449D01*
X457019Y202413D01*
X456995Y202339D01*
X456962Y202268D01*
X456957Y202222D01*
X456943Y202179D01*
X456944Y202101D01*
X456935Y202024D01*
X456945Y201979D01*
X456945Y201933D01*
X456983Y201801D01*
X456987Y201783D01*
X456990Y201779D01*
X456992Y201772D01*
X457061Y201606D01*
X457061Y199394D01*
X456214Y197350D01*
X455748Y196884D01*
X455680Y196789D01*
X455610Y196695D01*
X455608Y196689D01*
X455604Y196684D01*
X455570Y196573D01*
X455534Y196461D01*
X455534Y196455D01*
X455532Y196449D01*
X455535Y196332D01*
X455536Y196215D01*
X455538Y196208D01*
X455538Y196203D01*
X455545Y196186D01*
X455583Y196054D01*
X456390Y194106D01*
X456390Y191894D01*
X455543Y189850D01*
X453979Y188286D01*
X451935Y187439D01*
X449723Y187439D01*
G37*
%LPD*%
%LPC*%
G36*
X951523Y701523D02*
X951523Y701523D01*
X951523Y734291D01*
X951685Y734291D01*
X955038Y733960D01*
X958342Y733303D01*
X961566Y732325D01*
X964679Y731036D01*
X967650Y729448D01*
X970452Y727576D01*
X973056Y725438D01*
X975438Y723056D01*
X977576Y720452D01*
X979448Y717650D01*
X981036Y714679D01*
X982325Y711566D01*
X983303Y708342D01*
X983960Y705038D01*
X984291Y701685D01*
X984291Y701523D01*
X951523Y701523D01*
G37*
%LPD*%
%LPC*%
G36*
X951523Y51523D02*
X951523Y51523D01*
X951523Y84291D01*
X951685Y84291D01*
X955038Y83960D01*
X958342Y83303D01*
X961566Y82325D01*
X964679Y81036D01*
X967650Y79448D01*
X970452Y77576D01*
X973056Y75438D01*
X975438Y73056D01*
X977576Y70452D01*
X979448Y67650D01*
X981036Y64679D01*
X982325Y61566D01*
X983303Y58342D01*
X983960Y55038D01*
X984291Y51685D01*
X984291Y51523D01*
X951523Y51523D01*
G37*
%LPD*%
%LPC*%
G36*
X51523Y51523D02*
X51523Y51523D01*
X51523Y84291D01*
X51685Y84291D01*
X55038Y83960D01*
X58342Y83303D01*
X61566Y82325D01*
X64679Y81036D01*
X67650Y79448D01*
X70452Y77576D01*
X73056Y75438D01*
X75438Y73056D01*
X77576Y70452D01*
X79448Y67650D01*
X81036Y64679D01*
X82325Y61566D01*
X83303Y58342D01*
X83960Y55038D01*
X84291Y51685D01*
X84291Y51523D01*
X51523Y51523D01*
G37*
%LPD*%
%LPC*%
G36*
X51523Y701523D02*
X51523Y701523D01*
X51523Y734291D01*
X51685Y734291D01*
X55038Y733960D01*
X58342Y733303D01*
X61566Y732325D01*
X64679Y731036D01*
X67650Y729448D01*
X70452Y727576D01*
X73056Y725438D01*
X75438Y723056D01*
X77576Y720452D01*
X79448Y717650D01*
X81036Y714679D01*
X82325Y711566D01*
X83303Y708342D01*
X83960Y705038D01*
X84291Y701685D01*
X84291Y701523D01*
X51523Y701523D01*
G37*
%LPD*%
%LPC*%
G36*
X15709Y701523D02*
X15709Y701523D01*
X15709Y701685D01*
X16040Y705038D01*
X16697Y708342D01*
X17675Y711566D01*
X18964Y714679D01*
X20552Y717650D01*
X22424Y720452D01*
X24562Y723056D01*
X26944Y725438D01*
X29548Y727576D01*
X32350Y729448D01*
X35321Y731036D01*
X38434Y732325D01*
X41658Y733303D01*
X44962Y733960D01*
X48315Y734291D01*
X48477Y734291D01*
X48477Y701523D01*
X15709Y701523D01*
G37*
%LPD*%
%LPC*%
G36*
X15709Y51523D02*
X15709Y51523D01*
X15709Y51685D01*
X16040Y55038D01*
X16697Y58342D01*
X17675Y61566D01*
X18964Y64679D01*
X20552Y67650D01*
X22424Y70452D01*
X24562Y73056D01*
X26944Y75438D01*
X29548Y77576D01*
X32350Y79448D01*
X35321Y81036D01*
X38434Y82325D01*
X41658Y83303D01*
X44962Y83960D01*
X48315Y84291D01*
X48477Y84291D01*
X48477Y51523D01*
X15709Y51523D01*
G37*
%LPD*%
%LPC*%
G36*
X915709Y701523D02*
X915709Y701523D01*
X915709Y701685D01*
X916040Y705038D01*
X916697Y708342D01*
X917675Y711566D01*
X918964Y714679D01*
X920552Y717650D01*
X922424Y720452D01*
X924562Y723056D01*
X926944Y725438D01*
X929548Y727576D01*
X932350Y729448D01*
X935321Y731036D01*
X938434Y732325D01*
X941658Y733303D01*
X944962Y733960D01*
X948315Y734291D01*
X948477Y734291D01*
X948477Y701523D01*
X915709Y701523D01*
G37*
%LPD*%
%LPC*%
G36*
X51523Y15709D02*
X51523Y15709D01*
X51523Y48477D01*
X84291Y48477D01*
X84291Y48315D01*
X83960Y44962D01*
X83303Y41658D01*
X82325Y38434D01*
X81036Y35321D01*
X79448Y32350D01*
X77576Y29548D01*
X75438Y26944D01*
X73056Y24562D01*
X70452Y22424D01*
X67650Y20552D01*
X64679Y18964D01*
X61566Y17675D01*
X58342Y16697D01*
X55038Y16040D01*
X51685Y15709D01*
X51523Y15709D01*
G37*
%LPD*%
%LPC*%
G36*
X51523Y665709D02*
X51523Y665709D01*
X51523Y698477D01*
X84291Y698477D01*
X84291Y698315D01*
X83960Y694962D01*
X83303Y691658D01*
X82325Y688434D01*
X81036Y685321D01*
X79448Y682350D01*
X77576Y679548D01*
X75438Y676944D01*
X73056Y674562D01*
X70452Y672424D01*
X67650Y670552D01*
X64679Y668964D01*
X61566Y667675D01*
X58342Y666697D01*
X55038Y666040D01*
X51685Y665709D01*
X51523Y665709D01*
G37*
%LPD*%
%LPC*%
G36*
X951523Y665709D02*
X951523Y665709D01*
X951523Y698477D01*
X984291Y698477D01*
X984291Y698315D01*
X983960Y694962D01*
X983303Y691658D01*
X982325Y688434D01*
X981036Y685321D01*
X979448Y682350D01*
X977576Y679548D01*
X975438Y676944D01*
X973056Y674562D01*
X970452Y672424D01*
X967650Y670552D01*
X964679Y668964D01*
X961566Y667675D01*
X958342Y666697D01*
X955038Y666040D01*
X951685Y665709D01*
X951523Y665709D01*
G37*
%LPD*%
%LPC*%
G36*
X951523Y15709D02*
X951523Y15709D01*
X951523Y48477D01*
X984291Y48477D01*
X984291Y48315D01*
X983960Y44962D01*
X983303Y41658D01*
X982325Y38434D01*
X981036Y35321D01*
X979448Y32350D01*
X977576Y29548D01*
X975438Y26944D01*
X973056Y24562D01*
X970452Y22424D01*
X967650Y20552D01*
X964679Y18964D01*
X961566Y17675D01*
X958342Y16697D01*
X955038Y16040D01*
X951685Y15709D01*
X951523Y15709D01*
G37*
%LPD*%
%LPC*%
G36*
X915709Y51523D02*
X915709Y51523D01*
X915709Y51685D01*
X916040Y55038D01*
X916697Y58342D01*
X917675Y61566D01*
X918964Y64679D01*
X920552Y67650D01*
X922424Y70452D01*
X924562Y73056D01*
X926944Y75438D01*
X929548Y77576D01*
X932350Y79448D01*
X935321Y81036D01*
X938434Y82325D01*
X941658Y83303D01*
X944962Y83960D01*
X948315Y84291D01*
X948477Y84291D01*
X948477Y51523D01*
X915709Y51523D01*
G37*
%LPD*%
%LPC*%
G36*
X948315Y15709D02*
X948315Y15709D01*
X944962Y16040D01*
X941658Y16697D01*
X938434Y17675D01*
X935321Y18964D01*
X932350Y20552D01*
X929548Y22424D01*
X926944Y24562D01*
X924562Y26944D01*
X922424Y29548D01*
X920552Y32350D01*
X918964Y35321D01*
X917675Y38434D01*
X916697Y41658D01*
X916040Y44962D01*
X915709Y48315D01*
X915709Y48477D01*
X948477Y48477D01*
X948477Y15709D01*
X948315Y15709D01*
G37*
%LPD*%
%LPC*%
G36*
X48315Y665709D02*
X48315Y665709D01*
X44962Y666040D01*
X41658Y666697D01*
X38434Y667675D01*
X35321Y668964D01*
X32350Y670552D01*
X29548Y672424D01*
X26944Y674562D01*
X24562Y676944D01*
X22424Y679548D01*
X20552Y682350D01*
X18964Y685321D01*
X17675Y688434D01*
X16697Y691658D01*
X16040Y694962D01*
X15709Y698315D01*
X15709Y698477D01*
X48477Y698477D01*
X48477Y665709D01*
X48315Y665709D01*
G37*
%LPD*%
%LPC*%
G36*
X948315Y665709D02*
X948315Y665709D01*
X944962Y666040D01*
X941658Y666697D01*
X938434Y667675D01*
X935321Y668964D01*
X932350Y670552D01*
X929548Y672424D01*
X926944Y674562D01*
X924562Y676944D01*
X922424Y679548D01*
X920552Y682350D01*
X918964Y685321D01*
X917675Y688434D01*
X916697Y691658D01*
X916040Y694962D01*
X915709Y698315D01*
X915709Y698477D01*
X948477Y698477D01*
X948477Y665709D01*
X948315Y665709D01*
G37*
%LPD*%
%LPC*%
G36*
X48315Y15709D02*
X48315Y15709D01*
X44962Y16040D01*
X41658Y16697D01*
X38434Y17675D01*
X35321Y18964D01*
X32350Y20552D01*
X29548Y22424D01*
X26944Y24562D01*
X24562Y26944D01*
X22424Y29548D01*
X20552Y32350D01*
X18964Y35321D01*
X17675Y38434D01*
X16697Y41658D01*
X16040Y44962D01*
X15709Y48315D01*
X15709Y48477D01*
X48477Y48477D01*
X48477Y15709D01*
X48315Y15709D01*
G37*
%LPD*%
%LPC*%
G36*
X808863Y284284D02*
X808863Y284284D01*
X806762Y285154D01*
X805154Y286762D01*
X804284Y288863D01*
X804284Y291137D01*
X805154Y293238D01*
X806762Y294846D01*
X808863Y295716D01*
X810730Y295716D01*
X810820Y295730D01*
X810911Y295738D01*
X810940Y295750D01*
X810972Y295755D01*
X811053Y295798D01*
X811137Y295834D01*
X811169Y295860D01*
X811190Y295871D01*
X811212Y295894D01*
X811268Y295939D01*
X818067Y302738D01*
X846825Y302738D01*
X846940Y302757D01*
X847056Y302774D01*
X847062Y302776D01*
X847068Y302777D01*
X847170Y302832D01*
X847275Y302885D01*
X847280Y302890D01*
X847285Y302893D01*
X847365Y302977D01*
X847447Y303061D01*
X847451Y303067D01*
X847455Y303071D01*
X847462Y303088D01*
X847528Y303208D01*
X847992Y304327D01*
X850422Y306757D01*
X853596Y308072D01*
X869224Y308072D01*
X872398Y306757D01*
X874828Y304327D01*
X876143Y301153D01*
X876143Y297717D01*
X874828Y294543D01*
X872398Y292113D01*
X869224Y290798D01*
X853596Y290798D01*
X850422Y292113D01*
X847992Y294543D01*
X847528Y295662D01*
X847467Y295762D01*
X847407Y295862D01*
X847402Y295866D01*
X847399Y295871D01*
X847309Y295946D01*
X847220Y296022D01*
X847214Y296024D01*
X847209Y296028D01*
X847101Y296070D01*
X846992Y296114D01*
X846984Y296115D01*
X846980Y296116D01*
X846961Y296117D01*
X846825Y296132D01*
X821118Y296132D01*
X821028Y296118D01*
X820937Y296110D01*
X820908Y296098D01*
X820876Y296093D01*
X820795Y296050D01*
X820711Y296014D01*
X820679Y295988D01*
X820658Y295977D01*
X820636Y295954D01*
X820580Y295909D01*
X815939Y291268D01*
X815886Y291194D01*
X815826Y291125D01*
X815814Y291094D01*
X815795Y291068D01*
X815768Y290981D01*
X815734Y290896D01*
X815730Y290855D01*
X815723Y290833D01*
X815724Y290801D01*
X815716Y290730D01*
X815716Y288863D01*
X814846Y286762D01*
X813238Y285154D01*
X811137Y284284D01*
X808863Y284284D01*
G37*
%LPD*%
%LPC*%
G36*
X853596Y269208D02*
X853596Y269208D01*
X850422Y270523D01*
X847992Y272953D01*
X847528Y274072D01*
X847467Y274172D01*
X847407Y274272D01*
X847402Y274276D01*
X847399Y274281D01*
X847309Y274356D01*
X847220Y274432D01*
X847214Y274434D01*
X847209Y274438D01*
X847101Y274480D01*
X846992Y274524D01*
X846984Y274525D01*
X846980Y274526D01*
X846961Y274527D01*
X846825Y274542D01*
X816477Y274542D01*
X816457Y274539D01*
X816438Y274541D01*
X816336Y274519D01*
X816234Y274503D01*
X816217Y274493D01*
X816197Y274489D01*
X816108Y274436D01*
X816017Y274387D01*
X816003Y274373D01*
X815986Y274363D01*
X815919Y274284D01*
X815847Y274209D01*
X815839Y274191D01*
X815826Y274176D01*
X815787Y274080D01*
X815744Y273986D01*
X815742Y273966D01*
X815734Y273948D01*
X815728Y273893D01*
X814846Y271762D01*
X813238Y270154D01*
X811137Y269284D01*
X808863Y269284D01*
X806762Y270154D01*
X805154Y271762D01*
X804284Y273863D01*
X804284Y276137D01*
X805154Y278238D01*
X806762Y279846D01*
X808863Y280716D01*
X810730Y280716D01*
X810820Y280730D01*
X810911Y280738D01*
X810940Y280750D01*
X810972Y280755D01*
X811053Y280798D01*
X811137Y280834D01*
X811169Y280860D01*
X811190Y280871D01*
X811212Y280894D01*
X811268Y280939D01*
X811477Y281148D01*
X846825Y281148D01*
X846940Y281167D01*
X847056Y281184D01*
X847062Y281186D01*
X847068Y281187D01*
X847170Y281242D01*
X847275Y281295D01*
X847280Y281300D01*
X847285Y281303D01*
X847365Y281387D01*
X847447Y281471D01*
X847451Y281477D01*
X847455Y281481D01*
X847462Y281498D01*
X847528Y281618D01*
X847992Y282737D01*
X850422Y285167D01*
X853596Y286482D01*
X869224Y286482D01*
X872398Y285167D01*
X874828Y282737D01*
X876143Y279563D01*
X876143Y276127D01*
X874828Y272953D01*
X872398Y270523D01*
X869224Y269208D01*
X853596Y269208D01*
G37*
%LPD*%
%LPC*%
G36*
X415363Y616396D02*
X415363Y616396D01*
X413262Y617266D01*
X411654Y618874D01*
X410784Y620975D01*
X410784Y623249D01*
X411654Y625350D01*
X413262Y626958D01*
X415363Y627828D01*
X416273Y627828D01*
X416293Y627831D01*
X416312Y627829D01*
X416414Y627851D01*
X416516Y627867D01*
X416533Y627877D01*
X416553Y627881D01*
X416642Y627934D01*
X416733Y627983D01*
X416747Y627997D01*
X416764Y628007D01*
X416831Y628086D01*
X416903Y628161D01*
X416911Y628179D01*
X416924Y628194D01*
X416963Y628290D01*
X417006Y628384D01*
X417008Y628404D01*
X417016Y628422D01*
X417034Y628589D01*
X417034Y629626D01*
X417904Y631727D01*
X419512Y633335D01*
X421613Y634205D01*
X423887Y634205D01*
X425988Y633335D01*
X427435Y631888D01*
X427509Y631835D01*
X427578Y631775D01*
X427608Y631763D01*
X427634Y631744D01*
X427721Y631717D01*
X427806Y631683D01*
X427847Y631679D01*
X427869Y631672D01*
X427902Y631673D01*
X427973Y631665D01*
X444701Y631665D01*
X444816Y631684D01*
X444932Y631701D01*
X444938Y631703D01*
X444944Y631704D01*
X445046Y631759D01*
X445152Y631812D01*
X445156Y631817D01*
X445161Y631820D01*
X445241Y631904D01*
X445324Y631988D01*
X445327Y631994D01*
X445331Y631998D01*
X445339Y632015D01*
X445405Y632135D01*
X445654Y632738D01*
X447262Y634346D01*
X449363Y635216D01*
X451637Y635216D01*
X453738Y634346D01*
X455346Y632738D01*
X456216Y630637D01*
X456216Y628363D01*
X455509Y626657D01*
X455499Y626613D01*
X455479Y626571D01*
X455471Y626494D01*
X455453Y626418D01*
X455457Y626372D01*
X455452Y626326D01*
X455469Y626250D01*
X455476Y626173D01*
X455495Y626131D01*
X455504Y626086D01*
X455544Y626019D01*
X455576Y625948D01*
X455607Y625914D01*
X455631Y625875D01*
X455690Y625824D01*
X455742Y625767D01*
X455783Y625745D01*
X455818Y625715D01*
X455890Y625686D01*
X455958Y625648D01*
X456003Y625640D01*
X456046Y625623D01*
X456182Y625608D01*
X456200Y625605D01*
X456205Y625606D01*
X456212Y625605D01*
X461206Y625605D01*
X461296Y625619D01*
X461387Y625627D01*
X461417Y625639D01*
X461449Y625644D01*
X461530Y625687D01*
X461613Y625723D01*
X461646Y625749D01*
X461666Y625760D01*
X461688Y625783D01*
X461744Y625828D01*
X463191Y627275D01*
X465292Y628145D01*
X467566Y628145D01*
X469667Y627275D01*
X471275Y625667D01*
X472145Y623566D01*
X472145Y621292D01*
X471275Y619191D01*
X469667Y617583D01*
X467566Y616713D01*
X465292Y616713D01*
X463191Y617583D01*
X461744Y619030D01*
X461670Y619083D01*
X461601Y619143D01*
X461571Y619155D01*
X461545Y619174D01*
X461458Y619201D01*
X461373Y619235D01*
X461332Y619239D01*
X461310Y619246D01*
X461277Y619245D01*
X461206Y619253D01*
X422011Y619253D01*
X421896Y619234D01*
X421780Y619217D01*
X421775Y619214D01*
X421768Y619213D01*
X421666Y619159D01*
X421561Y619106D01*
X421556Y619101D01*
X421551Y619098D01*
X421471Y619014D01*
X421389Y618930D01*
X421385Y618924D01*
X421382Y618920D01*
X421374Y618903D01*
X421373Y618902D01*
X419738Y617266D01*
X417637Y616396D01*
X415363Y616396D01*
G37*
%LPD*%
%LPC*%
G36*
X884523Y610457D02*
X884523Y610457D01*
X884523Y640685D01*
X884560Y640685D01*
X887664Y640379D01*
X890724Y639770D01*
X893709Y638865D01*
X896592Y637671D01*
X899343Y636200D01*
X901937Y634467D01*
X904348Y632488D01*
X906554Y630282D01*
X908533Y627871D01*
X910266Y625277D01*
X911737Y622526D01*
X912931Y619643D01*
X913836Y616658D01*
X914445Y613598D01*
X914751Y610494D01*
X914751Y610457D01*
X884523Y610457D01*
G37*
%LPD*%
%LPC*%
G36*
X884523Y142589D02*
X884523Y142589D01*
X884523Y172817D01*
X884560Y172817D01*
X887664Y172511D01*
X890724Y171902D01*
X893709Y170997D01*
X896592Y169803D01*
X899343Y168332D01*
X901937Y166599D01*
X904348Y164620D01*
X906554Y162414D01*
X908533Y160003D01*
X910266Y157409D01*
X911737Y154658D01*
X912931Y151775D01*
X913836Y148790D01*
X914445Y145730D01*
X914751Y142626D01*
X914751Y142589D01*
X884523Y142589D01*
G37*
%LPD*%
%LPC*%
G36*
X851249Y610457D02*
X851249Y610457D01*
X851249Y610494D01*
X851555Y613598D01*
X852164Y616658D01*
X853069Y619643D01*
X854263Y622526D01*
X855734Y625277D01*
X857467Y627871D01*
X859446Y630282D01*
X861652Y632488D01*
X864063Y634467D01*
X866657Y636200D01*
X869408Y637671D01*
X872291Y638865D01*
X875276Y639770D01*
X878336Y640379D01*
X881440Y640685D01*
X881477Y640685D01*
X881477Y610457D01*
X851249Y610457D01*
G37*
%LPD*%
%LPC*%
G36*
X884523Y109315D02*
X884523Y109315D01*
X884523Y139543D01*
X914751Y139543D01*
X914751Y139506D01*
X914445Y136402D01*
X913836Y133342D01*
X912931Y130357D01*
X911737Y127474D01*
X910266Y124723D01*
X908533Y122129D01*
X906554Y119718D01*
X904348Y117512D01*
X901937Y115533D01*
X899343Y113800D01*
X896592Y112329D01*
X893709Y111135D01*
X890724Y110230D01*
X887664Y109621D01*
X884560Y109315D01*
X884523Y109315D01*
G37*
%LPD*%
%LPC*%
G36*
X851249Y142589D02*
X851249Y142589D01*
X851249Y142626D01*
X851555Y145730D01*
X852164Y148790D01*
X853069Y151775D01*
X854263Y154658D01*
X855734Y157409D01*
X857467Y160003D01*
X859446Y162414D01*
X861652Y164620D01*
X864063Y166599D01*
X866657Y168332D01*
X869408Y169803D01*
X872291Y170997D01*
X875276Y171902D01*
X878336Y172511D01*
X881440Y172817D01*
X881477Y172817D01*
X881477Y142589D01*
X851249Y142589D01*
G37*
%LPD*%
%LPC*%
G36*
X884523Y577183D02*
X884523Y577183D01*
X884523Y607411D01*
X914751Y607411D01*
X914751Y607374D01*
X914445Y604270D01*
X913836Y601210D01*
X912931Y598225D01*
X911737Y595342D01*
X910266Y592591D01*
X908533Y589997D01*
X906554Y587586D01*
X904348Y585380D01*
X901937Y583401D01*
X899343Y581668D01*
X896592Y580197D01*
X893709Y579003D01*
X890724Y578098D01*
X887664Y577489D01*
X884560Y577183D01*
X884523Y577183D01*
G37*
%LPD*%
%LPC*%
G36*
X881440Y577183D02*
X881440Y577183D01*
X878336Y577489D01*
X875276Y578098D01*
X872291Y579003D01*
X869408Y580197D01*
X866657Y581668D01*
X864063Y583401D01*
X861652Y585380D01*
X859446Y587586D01*
X857467Y589997D01*
X855734Y592591D01*
X854263Y595342D01*
X853069Y598225D01*
X852164Y601210D01*
X851555Y604270D01*
X851249Y607374D01*
X851249Y607411D01*
X881477Y607411D01*
X881477Y577183D01*
X881440Y577183D01*
G37*
%LPD*%
%LPC*%
G36*
X881440Y109315D02*
X881440Y109315D01*
X878336Y109621D01*
X875276Y110230D01*
X872291Y111135D01*
X869408Y112329D01*
X866657Y113800D01*
X864063Y115533D01*
X861652Y117512D01*
X859446Y119718D01*
X857467Y122129D01*
X855734Y124723D01*
X854263Y127474D01*
X853069Y130357D01*
X852164Y133342D01*
X851555Y136402D01*
X851249Y139506D01*
X851249Y139543D01*
X881477Y139543D01*
X881477Y109315D01*
X881440Y109315D01*
G37*
%LPD*%
%LPC*%
G36*
X456863Y602284D02*
X456863Y602284D01*
X454762Y603154D01*
X453154Y604762D01*
X452495Y606354D01*
X452433Y606454D01*
X452373Y606554D01*
X452369Y606558D01*
X452365Y606563D01*
X452275Y606638D01*
X452187Y606714D01*
X452181Y606716D01*
X452176Y606720D01*
X452068Y606762D01*
X451958Y606806D01*
X451951Y606807D01*
X451946Y606808D01*
X451928Y606809D01*
X451792Y606824D01*
X385223Y606824D01*
X385133Y606810D01*
X385042Y606802D01*
X385012Y606790D01*
X384980Y606785D01*
X384899Y606742D01*
X384816Y606706D01*
X384783Y606680D01*
X384763Y606669D01*
X384741Y606646D01*
X384685Y606601D01*
X383238Y605154D01*
X381137Y604284D01*
X378863Y604284D01*
X376762Y605154D01*
X375154Y606762D01*
X374284Y608863D01*
X374284Y611137D01*
X375154Y613238D01*
X376762Y614846D01*
X378863Y615716D01*
X381137Y615716D01*
X383238Y614846D01*
X384685Y613399D01*
X384759Y613346D01*
X384828Y613286D01*
X384858Y613274D01*
X384884Y613255D01*
X384971Y613228D01*
X385056Y613194D01*
X385097Y613190D01*
X385119Y613183D01*
X385152Y613184D01*
X385223Y613176D01*
X455408Y613176D01*
X455473Y613186D01*
X455538Y613187D01*
X455618Y613210D01*
X455651Y613215D01*
X455668Y613225D01*
X455699Y613234D01*
X456863Y613716D01*
X459137Y613716D01*
X461238Y612846D01*
X462846Y611238D01*
X463716Y609137D01*
X463716Y606863D01*
X462846Y604762D01*
X461238Y603154D01*
X459137Y602284D01*
X456863Y602284D01*
G37*
%LPD*%
%LPC*%
G36*
X896776Y441928D02*
X896776Y441928D01*
X893602Y443243D01*
X891172Y445673D01*
X889857Y448847D01*
X889857Y452283D01*
X891172Y455457D01*
X893602Y457887D01*
X896776Y459202D01*
X912404Y459202D01*
X915578Y457887D01*
X918008Y455457D01*
X918472Y454338D01*
X918533Y454238D01*
X918593Y454138D01*
X918598Y454134D01*
X918601Y454129D01*
X918691Y454054D01*
X918780Y453978D01*
X918786Y453976D01*
X918791Y453972D01*
X918899Y453930D01*
X919008Y453886D01*
X919016Y453885D01*
X919020Y453884D01*
X919039Y453883D01*
X919175Y453868D01*
X927123Y453868D01*
X927213Y453882D01*
X927304Y453890D01*
X927334Y453902D01*
X927366Y453907D01*
X927447Y453950D01*
X927531Y453986D01*
X927563Y454012D01*
X927583Y454023D01*
X927606Y454046D01*
X927662Y454091D01*
X928850Y455279D01*
X930894Y456126D01*
X933106Y456126D01*
X935150Y455279D01*
X936714Y453715D01*
X937561Y451671D01*
X937561Y449459D01*
X936714Y447415D01*
X935150Y445851D01*
X933106Y445004D01*
X930894Y445004D01*
X928850Y445851D01*
X927662Y447039D01*
X927588Y447092D01*
X927518Y447152D01*
X927488Y447164D01*
X927462Y447183D01*
X927375Y447210D01*
X927290Y447244D01*
X927249Y447248D01*
X927227Y447255D01*
X927195Y447254D01*
X927123Y447262D01*
X919175Y447262D01*
X919060Y447243D01*
X918944Y447226D01*
X918938Y447224D01*
X918932Y447223D01*
X918830Y447168D01*
X918725Y447115D01*
X918720Y447110D01*
X918715Y447107D01*
X918635Y447023D01*
X918553Y446939D01*
X918549Y446933D01*
X918545Y446929D01*
X918538Y446912D01*
X918472Y446792D01*
X918008Y445673D01*
X915578Y443243D01*
X912404Y441928D01*
X896776Y441928D01*
G37*
%LPD*%
%LPC*%
G36*
X80694Y576699D02*
X80694Y576699D01*
X76026Y578633D01*
X72453Y582206D01*
X70519Y586874D01*
X70519Y591926D01*
X72453Y596594D01*
X76026Y600167D01*
X80694Y602101D01*
X85746Y602101D01*
X90414Y600167D01*
X93987Y596594D01*
X95921Y591926D01*
X95921Y586874D01*
X93987Y582206D01*
X90414Y578633D01*
X85746Y576699D01*
X80694Y576699D01*
G37*
%LPD*%
%LPC*%
G36*
X34974Y576699D02*
X34974Y576699D01*
X30306Y578633D01*
X26733Y582206D01*
X24799Y586874D01*
X24799Y591926D01*
X26733Y596594D01*
X30306Y600167D01*
X34974Y602101D01*
X40026Y602101D01*
X44694Y600167D01*
X48267Y596594D01*
X50201Y591926D01*
X50201Y586874D01*
X48267Y582206D01*
X44694Y578633D01*
X40026Y576699D01*
X34974Y576699D01*
G37*
%LPD*%
%LPC*%
G36*
X742894Y639439D02*
X742894Y639439D01*
X740850Y640286D01*
X739286Y641850D01*
X738439Y643894D01*
X738439Y646106D01*
X739286Y648150D01*
X740850Y649714D01*
X742894Y650561D01*
X744754Y650561D01*
X744844Y650575D01*
X744935Y650583D01*
X744965Y650595D01*
X744997Y650600D01*
X745078Y650643D01*
X745162Y650679D01*
X745194Y650705D01*
X745214Y650716D01*
X745237Y650739D01*
X745293Y650784D01*
X748185Y653676D01*
X794496Y653676D01*
X794586Y653690D01*
X794677Y653698D01*
X794707Y653710D01*
X794739Y653715D01*
X794820Y653758D01*
X794904Y653794D01*
X794936Y653820D01*
X794956Y653831D01*
X794979Y653854D01*
X795035Y653899D01*
X796350Y655214D01*
X798394Y656061D01*
X800606Y656061D01*
X802650Y655214D01*
X804214Y653650D01*
X805061Y651606D01*
X805061Y649394D01*
X804214Y647350D01*
X802650Y645786D01*
X800606Y644939D01*
X798394Y644939D01*
X796350Y645786D01*
X795035Y647101D01*
X794961Y647154D01*
X794891Y647214D01*
X794861Y647226D01*
X794835Y647245D01*
X794748Y647272D01*
X794663Y647306D01*
X794622Y647310D01*
X794600Y647317D01*
X794568Y647316D01*
X794496Y647324D01*
X751131Y647324D01*
X751041Y647310D01*
X750950Y647302D01*
X750920Y647290D01*
X750888Y647285D01*
X750807Y647242D01*
X750723Y647206D01*
X750691Y647180D01*
X750671Y647169D01*
X750648Y647146D01*
X750592Y647101D01*
X749784Y646293D01*
X749731Y646219D01*
X749671Y646149D01*
X749659Y646119D01*
X749640Y646093D01*
X749613Y646006D01*
X749579Y645921D01*
X749575Y645880D01*
X749568Y645858D01*
X749569Y645826D01*
X749561Y645754D01*
X749561Y643894D01*
X748714Y641850D01*
X747150Y640286D01*
X745106Y639439D01*
X742894Y639439D01*
G37*
%LPD*%
%LPC*%
G36*
X49625Y380061D02*
X49625Y380061D01*
X45237Y381879D01*
X41879Y385237D01*
X40061Y389625D01*
X40061Y394375D01*
X41879Y398763D01*
X45237Y402121D01*
X49625Y403939D01*
X54375Y403939D01*
X58763Y402121D01*
X62121Y398763D01*
X63939Y394375D01*
X63939Y389625D01*
X62121Y385237D01*
X58763Y381879D01*
X54375Y380061D01*
X49625Y380061D01*
G37*
%LPD*%
%LPC*%
G36*
X47625Y293061D02*
X47625Y293061D01*
X43237Y294879D01*
X39879Y298237D01*
X38061Y302625D01*
X38061Y307375D01*
X39879Y311763D01*
X43237Y315121D01*
X47625Y316939D01*
X52375Y316939D01*
X56763Y315121D01*
X60121Y311763D01*
X61939Y307375D01*
X61939Y302625D01*
X60121Y298237D01*
X56763Y294879D01*
X52375Y293061D01*
X47625Y293061D01*
G37*
%LPD*%
%LPC*%
G36*
X225125Y503061D02*
X225125Y503061D01*
X220737Y504879D01*
X217379Y508237D01*
X215561Y512625D01*
X215561Y517375D01*
X217379Y521763D01*
X220737Y525121D01*
X225125Y526939D01*
X229875Y526939D01*
X234263Y525121D01*
X237621Y521763D01*
X239439Y517375D01*
X239439Y512625D01*
X237621Y508237D01*
X234263Y504879D01*
X229875Y503061D01*
X225125Y503061D01*
G37*
%LPD*%
%LPC*%
G36*
X896776Y398748D02*
X896776Y398748D01*
X893602Y400063D01*
X891172Y402493D01*
X889857Y405667D01*
X889857Y409103D01*
X891172Y412277D01*
X893602Y414707D01*
X896776Y416022D01*
X912404Y416022D01*
X915578Y414707D01*
X918008Y412277D01*
X919323Y409103D01*
X919323Y405667D01*
X918008Y402493D01*
X915578Y400063D01*
X912404Y398748D01*
X896776Y398748D01*
G37*
%LPD*%
%LPC*%
G36*
X853596Y355568D02*
X853596Y355568D01*
X850422Y356883D01*
X847992Y359313D01*
X846677Y362487D01*
X846677Y365923D01*
X847992Y369097D01*
X850422Y371527D01*
X853596Y372842D01*
X869224Y372842D01*
X872398Y371527D01*
X874828Y369097D01*
X876143Y365923D01*
X876143Y362487D01*
X874828Y359313D01*
X872398Y356883D01*
X869224Y355568D01*
X853596Y355568D01*
G37*
%LPD*%
%LPC*%
G36*
X853596Y398748D02*
X853596Y398748D01*
X850422Y400063D01*
X847992Y402493D01*
X846677Y405667D01*
X846677Y409103D01*
X847992Y412277D01*
X850422Y414707D01*
X853596Y416022D01*
X869224Y416022D01*
X872398Y414707D01*
X874828Y412277D01*
X876143Y409103D01*
X876143Y405667D01*
X874828Y402493D01*
X872398Y400063D01*
X869224Y398748D01*
X853596Y398748D01*
G37*
%LPD*%
%LPC*%
G36*
X896776Y420338D02*
X896776Y420338D01*
X893602Y421653D01*
X891172Y424083D01*
X889857Y427257D01*
X889857Y430693D01*
X891172Y433867D01*
X893602Y436297D01*
X896776Y437612D01*
X912404Y437612D01*
X915578Y436297D01*
X918008Y433867D01*
X919323Y430693D01*
X919323Y427257D01*
X918008Y424083D01*
X915578Y421653D01*
X912404Y420338D01*
X896776Y420338D01*
G37*
%LPD*%
%LPC*%
G36*
X853596Y377158D02*
X853596Y377158D01*
X850422Y378473D01*
X847992Y380903D01*
X846677Y384077D01*
X846677Y387513D01*
X847992Y390687D01*
X850422Y393117D01*
X853596Y394432D01*
X869224Y394432D01*
X872398Y393117D01*
X874828Y390687D01*
X876143Y387513D01*
X876143Y384077D01*
X874828Y380903D01*
X872398Y378473D01*
X869224Y377158D01*
X853596Y377158D01*
G37*
%LPD*%
%LPC*%
G36*
X853596Y312388D02*
X853596Y312388D01*
X850422Y313703D01*
X847992Y316133D01*
X846677Y319307D01*
X846677Y322743D01*
X847992Y325917D01*
X850422Y328347D01*
X853596Y329662D01*
X869224Y329662D01*
X872398Y328347D01*
X874828Y325917D01*
X876143Y322743D01*
X876143Y319307D01*
X874828Y316133D01*
X872398Y313703D01*
X869224Y312388D01*
X853596Y312388D01*
G37*
%LPD*%
%LPC*%
G36*
X853596Y333978D02*
X853596Y333978D01*
X850422Y335293D01*
X847992Y337723D01*
X846677Y340897D01*
X846677Y344333D01*
X847992Y347507D01*
X850422Y349937D01*
X853596Y351252D01*
X869224Y351252D01*
X872398Y349937D01*
X874828Y347507D01*
X876143Y344333D01*
X876143Y340897D01*
X874828Y337723D01*
X872398Y335293D01*
X869224Y333978D01*
X853596Y333978D01*
G37*
%LPD*%
%LPC*%
G36*
X487863Y440172D02*
X487863Y440172D01*
X485762Y441042D01*
X484154Y442650D01*
X483284Y444751D01*
X483284Y447025D01*
X484154Y449126D01*
X485762Y450734D01*
X487863Y451604D01*
X490137Y451604D01*
X492238Y450734D01*
X493573Y449399D01*
X493647Y449346D01*
X493716Y449286D01*
X493746Y449274D01*
X493772Y449255D01*
X493859Y449228D01*
X493944Y449194D01*
X493985Y449190D01*
X494007Y449183D01*
X494040Y449184D01*
X494111Y449176D01*
X519277Y449176D01*
X519367Y449190D01*
X519458Y449198D01*
X519488Y449210D01*
X519520Y449215D01*
X519601Y449258D01*
X519684Y449294D01*
X519717Y449320D01*
X519737Y449331D01*
X519759Y449354D01*
X519815Y449399D01*
X521262Y450846D01*
X523363Y451716D01*
X525637Y451716D01*
X527738Y450846D01*
X529346Y449238D01*
X530216Y447137D01*
X530216Y444863D01*
X529346Y442762D01*
X527738Y441154D01*
X525637Y440284D01*
X523363Y440284D01*
X521262Y441154D01*
X519815Y442601D01*
X519741Y442654D01*
X519672Y442714D01*
X519642Y442726D01*
X519616Y442745D01*
X519529Y442772D01*
X519444Y442806D01*
X519403Y442810D01*
X519381Y442817D01*
X519348Y442816D01*
X519277Y442824D01*
X494335Y442824D01*
X494245Y442810D01*
X494154Y442802D01*
X494124Y442790D01*
X494092Y442785D01*
X494011Y442742D01*
X493928Y442706D01*
X493895Y442680D01*
X493875Y442669D01*
X493853Y442646D01*
X493797Y442601D01*
X492238Y441042D01*
X490137Y440172D01*
X487863Y440172D01*
G37*
%LPD*%
%LPC*%
G36*
X458894Y321939D02*
X458894Y321939D01*
X456850Y322786D01*
X455286Y324350D01*
X454439Y326394D01*
X454439Y328606D01*
X455286Y330650D01*
X455966Y331330D01*
X456019Y331404D01*
X456079Y331474D01*
X456091Y331504D01*
X456110Y331530D01*
X456137Y331617D01*
X456171Y331702D01*
X456175Y331743D01*
X456182Y331765D01*
X456181Y331797D01*
X456189Y331869D01*
X456189Y334078D01*
X469216Y347106D01*
X469269Y347179D01*
X469329Y347249D01*
X469341Y347279D01*
X469360Y347305D01*
X469387Y347392D01*
X469421Y347477D01*
X469425Y347518D01*
X469432Y347540D01*
X469431Y347573D01*
X469439Y347644D01*
X469439Y348606D01*
X470286Y350650D01*
X471850Y352214D01*
X473894Y353061D01*
X476106Y353061D01*
X478150Y352214D01*
X479714Y350650D01*
X480561Y348606D01*
X480561Y346394D01*
X479714Y344350D01*
X478150Y342786D01*
X476106Y341939D01*
X475144Y341939D01*
X475054Y341925D01*
X474963Y341917D01*
X474933Y341905D01*
X474901Y341900D01*
X474820Y341857D01*
X474736Y341821D01*
X474704Y341795D01*
X474684Y341784D01*
X474661Y341761D01*
X474606Y341716D01*
X464665Y331776D01*
X464653Y331760D01*
X464638Y331747D01*
X464582Y331660D01*
X464521Y331576D01*
X464516Y331557D01*
X464505Y331540D01*
X464479Y331440D01*
X464449Y331341D01*
X464450Y331321D01*
X464445Y331302D01*
X464453Y331199D01*
X464455Y331095D01*
X464462Y331076D01*
X464464Y331056D01*
X464504Y330961D01*
X464540Y330864D01*
X464552Y330848D01*
X464560Y330830D01*
X464665Y330699D01*
X464714Y330650D01*
X465561Y328606D01*
X465561Y326394D01*
X464714Y324350D01*
X463150Y322786D01*
X461106Y321939D01*
X458894Y321939D01*
G37*
%LPD*%
%LPC*%
G36*
X148863Y257284D02*
X148863Y257284D01*
X146762Y258154D01*
X145154Y259762D01*
X144284Y261863D01*
X144284Y264137D01*
X144861Y265530D01*
X144876Y265594D01*
X144901Y265655D01*
X144910Y265737D01*
X144917Y265770D01*
X144916Y265789D01*
X144919Y265821D01*
X144919Y277179D01*
X144909Y277243D01*
X144908Y277309D01*
X144885Y277389D01*
X144880Y277421D01*
X144870Y277439D01*
X144861Y277470D01*
X144284Y278863D01*
X144284Y281137D01*
X145154Y283238D01*
X146762Y284846D01*
X148863Y285716D01*
X151137Y285716D01*
X153238Y284846D01*
X154846Y283238D01*
X155716Y281137D01*
X155716Y278863D01*
X155139Y277470D01*
X155124Y277406D01*
X155099Y277345D01*
X155090Y277263D01*
X155083Y277230D01*
X155084Y277211D01*
X155081Y277179D01*
X155081Y265821D01*
X155091Y265757D01*
X155092Y265691D01*
X155115Y265611D01*
X155120Y265579D01*
X155130Y265561D01*
X155139Y265530D01*
X155716Y264137D01*
X155716Y261863D01*
X154846Y259762D01*
X153238Y258154D01*
X151137Y257284D01*
X148863Y257284D01*
G37*
%LPD*%
%LPC*%
G36*
X675394Y637367D02*
X675394Y637367D01*
X673350Y638214D01*
X671786Y639778D01*
X670939Y641822D01*
X670939Y644034D01*
X671786Y646078D01*
X673350Y647642D01*
X673354Y647644D01*
X673453Y647705D01*
X673554Y647765D01*
X673558Y647770D01*
X673563Y647773D01*
X673638Y647863D01*
X673714Y647952D01*
X673716Y647958D01*
X673720Y647963D01*
X673762Y648071D01*
X673806Y648180D01*
X673807Y648188D01*
X673808Y648193D01*
X673809Y648211D01*
X673824Y648347D01*
X673824Y660996D01*
X673810Y661086D01*
X673802Y661177D01*
X673790Y661207D01*
X673785Y661239D01*
X673742Y661320D01*
X673706Y661404D01*
X673680Y661436D01*
X673669Y661456D01*
X673646Y661479D01*
X673601Y661535D01*
X672786Y662350D01*
X671939Y664394D01*
X671939Y666606D01*
X672786Y668650D01*
X674350Y670214D01*
X676394Y671061D01*
X678606Y671061D01*
X680650Y670214D01*
X682214Y668650D01*
X683061Y666606D01*
X683061Y664394D01*
X682214Y662350D01*
X680650Y660786D01*
X680646Y660784D01*
X680547Y660723D01*
X680446Y660663D01*
X680442Y660658D01*
X680437Y660655D01*
X680362Y660565D01*
X680286Y660476D01*
X680284Y660470D01*
X680280Y660465D01*
X680238Y660357D01*
X680194Y660248D01*
X680193Y660240D01*
X680192Y660235D01*
X680191Y660217D01*
X680176Y660081D01*
X680176Y647432D01*
X680190Y647342D01*
X680198Y647251D01*
X680210Y647221D01*
X680215Y647189D01*
X680258Y647108D01*
X680294Y647024D01*
X680320Y646992D01*
X680331Y646972D01*
X680354Y646949D01*
X680399Y646893D01*
X681214Y646078D01*
X682061Y644034D01*
X682061Y641822D01*
X681214Y639778D01*
X679650Y638214D01*
X677606Y637367D01*
X675394Y637367D01*
G37*
%LPD*%
%LPC*%
G36*
X498894Y266939D02*
X498894Y266939D01*
X496850Y267786D01*
X495286Y269350D01*
X494439Y271394D01*
X494439Y273606D01*
X495286Y275650D01*
X496850Y277214D01*
X498894Y278061D01*
X501106Y278061D01*
X503150Y277214D01*
X503830Y276534D01*
X503904Y276481D01*
X503974Y276421D01*
X504004Y276409D01*
X504030Y276390D01*
X504117Y276363D01*
X504202Y276329D01*
X504243Y276325D01*
X504265Y276318D01*
X504297Y276319D01*
X504369Y276311D01*
X513131Y276311D01*
X513221Y276325D01*
X513312Y276333D01*
X513342Y276345D01*
X513374Y276350D01*
X513455Y276393D01*
X513539Y276429D01*
X513571Y276455D01*
X513591Y276466D01*
X513614Y276489D01*
X513670Y276534D01*
X514350Y277214D01*
X516394Y278061D01*
X518606Y278061D01*
X520650Y277214D01*
X522214Y275650D01*
X523061Y273606D01*
X523061Y271394D01*
X522214Y269350D01*
X520650Y267786D01*
X518606Y266939D01*
X516394Y266939D01*
X514350Y267786D01*
X513670Y268466D01*
X513596Y268519D01*
X513526Y268579D01*
X513496Y268591D01*
X513470Y268610D01*
X513383Y268637D01*
X513298Y268671D01*
X513257Y268675D01*
X513235Y268682D01*
X513203Y268681D01*
X513131Y268689D01*
X504369Y268689D01*
X504279Y268675D01*
X504188Y268667D01*
X504158Y268655D01*
X504126Y268650D01*
X504045Y268607D01*
X503961Y268571D01*
X503929Y268545D01*
X503909Y268534D01*
X503886Y268511D01*
X503830Y268466D01*
X503150Y267786D01*
X501106Y266939D01*
X498894Y266939D01*
G37*
%LPD*%
%LPC*%
G36*
X659130Y190911D02*
X659130Y190911D01*
X657087Y191758D01*
X655743Y193101D01*
X655669Y193154D01*
X655600Y193214D01*
X655570Y193226D01*
X655543Y193245D01*
X655456Y193272D01*
X655372Y193306D01*
X655331Y193310D01*
X655308Y193317D01*
X655276Y193316D01*
X655205Y193324D01*
X653004Y193324D01*
X652914Y193310D01*
X652823Y193302D01*
X652793Y193290D01*
X652761Y193285D01*
X652680Y193242D01*
X652596Y193206D01*
X652564Y193180D01*
X652544Y193169D01*
X652521Y193146D01*
X652465Y193101D01*
X651150Y191786D01*
X649106Y190939D01*
X646894Y190939D01*
X644850Y191786D01*
X643286Y193350D01*
X642439Y195394D01*
X642439Y197606D01*
X643286Y199650D01*
X644850Y201214D01*
X646894Y202061D01*
X649106Y202061D01*
X651150Y201214D01*
X652465Y199899D01*
X652539Y199846D01*
X652609Y199786D01*
X652639Y199774D01*
X652665Y199755D01*
X652752Y199728D01*
X652837Y199694D01*
X652878Y199690D01*
X652900Y199683D01*
X652932Y199684D01*
X653004Y199676D01*
X655261Y199676D01*
X655351Y199690D01*
X655442Y199698D01*
X655472Y199710D01*
X655504Y199715D01*
X655584Y199758D01*
X655668Y199794D01*
X655700Y199820D01*
X655721Y199831D01*
X655743Y199854D01*
X655799Y199899D01*
X657087Y201186D01*
X659130Y202033D01*
X661343Y202033D01*
X663386Y201186D01*
X664951Y199622D01*
X665797Y197578D01*
X665797Y195366D01*
X664951Y193322D01*
X663386Y191758D01*
X661343Y190911D01*
X659130Y190911D01*
G37*
%LPD*%
%LPC*%
G36*
X48600Y182459D02*
X48600Y182459D01*
X46012Y183531D01*
X44031Y185512D01*
X42959Y188100D01*
X42959Y190900D01*
X44031Y193488D01*
X46012Y195469D01*
X48600Y196541D01*
X51400Y196541D01*
X53988Y195469D01*
X55969Y193488D01*
X57041Y190900D01*
X57041Y188100D01*
X55969Y185512D01*
X53988Y183531D01*
X51400Y182459D01*
X48600Y182459D01*
G37*
%LPD*%
%LPC*%
G36*
X48600Y138459D02*
X48600Y138459D01*
X46012Y139531D01*
X44031Y141512D01*
X42959Y144100D01*
X42959Y146900D01*
X44031Y149488D01*
X46012Y151469D01*
X48600Y152541D01*
X51400Y152541D01*
X53988Y151469D01*
X55969Y149488D01*
X57041Y146900D01*
X57041Y144100D01*
X55969Y141512D01*
X53988Y139531D01*
X51400Y138459D01*
X48600Y138459D01*
G37*
%LPD*%
G36*
X720042Y361873D02*
X720042Y361873D01*
X720084Y361871D01*
X720151Y361893D01*
X720221Y361905D01*
X720257Y361927D01*
X720298Y361940D01*
X720371Y361994D01*
X720414Y362020D01*
X720427Y362036D01*
X720448Y362052D01*
X725448Y367052D01*
X725492Y367114D01*
X725543Y367172D01*
X725556Y367206D01*
X725577Y367236D01*
X725596Y367310D01*
X725623Y367381D01*
X725623Y367418D01*
X725633Y367453D01*
X725625Y367529D01*
X725625Y367605D01*
X725613Y367645D01*
X725609Y367676D01*
X725589Y367717D01*
X725567Y367784D01*
X720567Y377784D01*
X720548Y377809D01*
X720536Y377838D01*
X720482Y377898D01*
X720433Y377963D01*
X720406Y377981D01*
X720385Y378004D01*
X720313Y378041D01*
X720245Y378085D01*
X720214Y378092D01*
X720185Y378107D01*
X720071Y378124D01*
X720026Y378134D01*
X720014Y378132D01*
X720000Y378134D01*
X717500Y378134D01*
X717458Y378127D01*
X717416Y378129D01*
X717349Y378107D01*
X717279Y378095D01*
X717243Y378073D01*
X717202Y378060D01*
X717129Y378006D01*
X717086Y377980D01*
X717073Y377964D01*
X717052Y377948D01*
X712052Y372948D01*
X712027Y372914D01*
X711996Y372885D01*
X711964Y372822D01*
X711923Y372764D01*
X711913Y372723D01*
X711893Y372685D01*
X711880Y372596D01*
X711868Y372547D01*
X711870Y372526D01*
X711866Y372500D01*
X711866Y367500D01*
X711873Y367458D01*
X711871Y367416D01*
X711893Y367349D01*
X711905Y367279D01*
X711927Y367243D01*
X711940Y367202D01*
X711994Y367129D01*
X712020Y367086D01*
X712036Y367073D01*
X712052Y367052D01*
X717052Y362052D01*
X717086Y362027D01*
X717115Y361996D01*
X717178Y361964D01*
X717236Y361923D01*
X717277Y361913D01*
X717315Y361893D01*
X717404Y361880D01*
X717453Y361868D01*
X717474Y361870D01*
X717500Y361866D01*
X720000Y361866D01*
X720042Y361873D01*
G37*
%LPC*%
G36*
X906113Y322548D02*
X906113Y322548D01*
X906113Y329662D01*
X911537Y329662D01*
X913205Y329330D01*
X914777Y328679D01*
X916192Y327734D01*
X917395Y326531D01*
X918340Y325116D01*
X918991Y323544D01*
X919189Y322548D01*
X906113Y322548D01*
G37*
%LPD*%
%LPC*%
G36*
X862933Y257778D02*
X862933Y257778D01*
X862933Y264892D01*
X868357Y264892D01*
X870025Y264560D01*
X871597Y263909D01*
X873012Y262964D01*
X874215Y261761D01*
X875160Y260346D01*
X875811Y258774D01*
X876009Y257778D01*
X862933Y257778D01*
G37*
%LPD*%
%LPC*%
G36*
X906113Y387318D02*
X906113Y387318D01*
X906113Y394432D01*
X911537Y394432D01*
X913205Y394100D01*
X914777Y393449D01*
X916192Y392504D01*
X917395Y391301D01*
X918340Y389886D01*
X918991Y388314D01*
X919189Y387318D01*
X906113Y387318D01*
G37*
%LPD*%
%LPC*%
G36*
X906113Y365728D02*
X906113Y365728D01*
X906113Y372842D01*
X911537Y372842D01*
X913205Y372510D01*
X914777Y371859D01*
X916192Y370914D01*
X917395Y369711D01*
X918340Y368296D01*
X918991Y366724D01*
X919189Y365728D01*
X906113Y365728D01*
G37*
%LPD*%
%LPC*%
G36*
X906113Y300958D02*
X906113Y300958D01*
X906113Y308072D01*
X911537Y308072D01*
X913205Y307740D01*
X914777Y307089D01*
X916192Y306144D01*
X917395Y304941D01*
X918340Y303526D01*
X918991Y301954D01*
X919189Y300958D01*
X906113Y300958D01*
G37*
%LPD*%
%LPC*%
G36*
X906113Y344138D02*
X906113Y344138D01*
X906113Y351252D01*
X911537Y351252D01*
X913205Y350920D01*
X914777Y350269D01*
X916192Y349324D01*
X917395Y348121D01*
X918340Y346706D01*
X918991Y345134D01*
X919189Y344138D01*
X906113Y344138D01*
G37*
%LPD*%
%LPC*%
G36*
X906113Y279368D02*
X906113Y279368D01*
X906113Y286482D01*
X911537Y286482D01*
X913205Y286150D01*
X914777Y285499D01*
X916192Y284554D01*
X917395Y283351D01*
X918340Y281936D01*
X918991Y280364D01*
X919189Y279368D01*
X906113Y279368D01*
G37*
%LPD*%
%LPC*%
G36*
X906113Y257778D02*
X906113Y257778D01*
X906113Y264892D01*
X911537Y264892D01*
X913205Y264560D01*
X914777Y263909D01*
X916192Y262964D01*
X917395Y261761D01*
X918340Y260346D01*
X918991Y258774D01*
X919189Y257778D01*
X906113Y257778D01*
G37*
%LPD*%
%LPC*%
G36*
X846811Y257778D02*
X846811Y257778D01*
X847009Y258774D01*
X847660Y260346D01*
X848605Y261761D01*
X849808Y262964D01*
X851223Y263909D01*
X852795Y264560D01*
X854463Y264892D01*
X859887Y264892D01*
X859887Y257778D01*
X846811Y257778D01*
G37*
%LPD*%
%LPC*%
G36*
X889991Y257778D02*
X889991Y257778D01*
X890189Y258774D01*
X890840Y260346D01*
X891785Y261761D01*
X892988Y262964D01*
X894403Y263909D01*
X895975Y264560D01*
X897643Y264892D01*
X903067Y264892D01*
X903067Y257778D01*
X889991Y257778D01*
G37*
%LPD*%
%LPC*%
G36*
X889991Y387318D02*
X889991Y387318D01*
X890189Y388314D01*
X890840Y389886D01*
X891785Y391301D01*
X892988Y392504D01*
X894403Y393449D01*
X895975Y394100D01*
X897643Y394432D01*
X903067Y394432D01*
X903067Y387318D01*
X889991Y387318D01*
G37*
%LPD*%
%LPC*%
G36*
X889991Y279368D02*
X889991Y279368D01*
X890189Y280364D01*
X890840Y281936D01*
X891785Y283351D01*
X892988Y284554D01*
X894403Y285499D01*
X895975Y286150D01*
X897643Y286482D01*
X903067Y286482D01*
X903067Y279368D01*
X889991Y279368D01*
G37*
%LPD*%
%LPC*%
G36*
X889991Y300958D02*
X889991Y300958D01*
X890189Y301954D01*
X890840Y303526D01*
X891785Y304941D01*
X892988Y306144D01*
X894403Y307089D01*
X895975Y307740D01*
X897643Y308072D01*
X903067Y308072D01*
X903067Y300958D01*
X889991Y300958D01*
G37*
%LPD*%
%LPC*%
G36*
X889991Y365728D02*
X889991Y365728D01*
X890189Y366724D01*
X890840Y368296D01*
X891785Y369711D01*
X892988Y370914D01*
X894403Y371859D01*
X895975Y372510D01*
X897643Y372842D01*
X903067Y372842D01*
X903067Y365728D01*
X889991Y365728D01*
G37*
%LPD*%
%LPC*%
G36*
X889991Y344138D02*
X889991Y344138D01*
X890189Y345134D01*
X890840Y346706D01*
X891785Y348121D01*
X892988Y349324D01*
X894403Y350269D01*
X895975Y350920D01*
X897643Y351252D01*
X903067Y351252D01*
X903067Y344138D01*
X889991Y344138D01*
G37*
%LPD*%
%LPC*%
G36*
X889991Y322548D02*
X889991Y322548D01*
X890189Y323544D01*
X890840Y325116D01*
X891785Y326531D01*
X892988Y327734D01*
X894403Y328679D01*
X895975Y329330D01*
X897643Y329662D01*
X903067Y329662D01*
X903067Y322548D01*
X889991Y322548D01*
G37*
%LPD*%
%LPC*%
G36*
X906113Y269208D02*
X906113Y269208D01*
X906113Y276322D01*
X919189Y276322D01*
X918991Y275326D01*
X918340Y273754D01*
X917395Y272339D01*
X916192Y271136D01*
X914777Y270191D01*
X913205Y269540D01*
X911537Y269208D01*
X906113Y269208D01*
G37*
%LPD*%
%LPC*%
G36*
X906113Y377158D02*
X906113Y377158D01*
X906113Y384272D01*
X919189Y384272D01*
X918991Y383276D01*
X918340Y381704D01*
X917395Y380289D01*
X916192Y379086D01*
X914777Y378141D01*
X913205Y377490D01*
X911537Y377158D01*
X906113Y377158D01*
G37*
%LPD*%
%LPC*%
G36*
X906113Y355568D02*
X906113Y355568D01*
X906113Y362682D01*
X919189Y362682D01*
X918991Y361686D01*
X918340Y360114D01*
X917395Y358699D01*
X916192Y357496D01*
X914777Y356551D01*
X913205Y355900D01*
X911537Y355568D01*
X906113Y355568D01*
G37*
%LPD*%
%LPC*%
G36*
X906113Y333978D02*
X906113Y333978D01*
X906113Y341092D01*
X919189Y341092D01*
X918991Y340096D01*
X918340Y338524D01*
X917395Y337109D01*
X916192Y335906D01*
X914777Y334961D01*
X913205Y334310D01*
X911537Y333978D01*
X906113Y333978D01*
G37*
%LPD*%
%LPC*%
G36*
X906113Y290798D02*
X906113Y290798D01*
X906113Y297912D01*
X919189Y297912D01*
X918991Y296916D01*
X918340Y295344D01*
X917395Y293929D01*
X916192Y292726D01*
X914777Y291781D01*
X913205Y291130D01*
X911537Y290798D01*
X906113Y290798D01*
G37*
%LPD*%
%LPC*%
G36*
X906113Y312388D02*
X906113Y312388D01*
X906113Y319502D01*
X919189Y319502D01*
X918991Y318506D01*
X918340Y316934D01*
X917395Y315519D01*
X916192Y314316D01*
X914777Y313371D01*
X913205Y312720D01*
X911537Y312388D01*
X906113Y312388D01*
G37*
%LPD*%
%LPC*%
G36*
X862933Y247618D02*
X862933Y247618D01*
X862933Y254732D01*
X876009Y254732D01*
X875811Y253736D01*
X875160Y252164D01*
X874215Y250749D01*
X873012Y249546D01*
X871597Y248601D01*
X870025Y247950D01*
X868357Y247618D01*
X862933Y247618D01*
G37*
%LPD*%
%LPC*%
G36*
X906113Y247618D02*
X906113Y247618D01*
X906113Y254732D01*
X919189Y254732D01*
X918991Y253736D01*
X918340Y252164D01*
X917395Y250749D01*
X916192Y249546D01*
X914777Y248601D01*
X913205Y247950D01*
X911537Y247618D01*
X906113Y247618D01*
G37*
%LPD*%
%LPC*%
G36*
X897643Y269208D02*
X897643Y269208D01*
X895975Y269540D01*
X894403Y270191D01*
X892988Y271136D01*
X891785Y272339D01*
X890840Y273754D01*
X890189Y275326D01*
X889991Y276322D01*
X903067Y276322D01*
X903067Y269208D01*
X897643Y269208D01*
G37*
%LPD*%
%LPC*%
G36*
X854463Y247618D02*
X854463Y247618D01*
X852795Y247950D01*
X851223Y248601D01*
X849808Y249546D01*
X848605Y250749D01*
X847660Y252164D01*
X847009Y253736D01*
X846811Y254732D01*
X859887Y254732D01*
X859887Y247618D01*
X854463Y247618D01*
G37*
%LPD*%
%LPC*%
G36*
X897643Y247618D02*
X897643Y247618D01*
X895975Y247950D01*
X894403Y248601D01*
X892988Y249546D01*
X891785Y250749D01*
X890840Y252164D01*
X890189Y253736D01*
X889991Y254732D01*
X903067Y254732D01*
X903067Y247618D01*
X897643Y247618D01*
G37*
%LPD*%
%LPC*%
G36*
X897643Y377158D02*
X897643Y377158D01*
X895975Y377490D01*
X894403Y378141D01*
X892988Y379086D01*
X891785Y380289D01*
X890840Y381704D01*
X890189Y383276D01*
X889991Y384272D01*
X903067Y384272D01*
X903067Y377158D01*
X897643Y377158D01*
G37*
%LPD*%
%LPC*%
G36*
X897643Y312388D02*
X897643Y312388D01*
X895975Y312720D01*
X894403Y313371D01*
X892988Y314316D01*
X891785Y315519D01*
X890840Y316934D01*
X890189Y318506D01*
X889991Y319502D01*
X903067Y319502D01*
X903067Y312388D01*
X897643Y312388D01*
G37*
%LPD*%
%LPC*%
G36*
X897643Y355568D02*
X897643Y355568D01*
X895975Y355900D01*
X894403Y356551D01*
X892988Y357496D01*
X891785Y358699D01*
X890840Y360114D01*
X890189Y361686D01*
X889991Y362682D01*
X903067Y362682D01*
X903067Y355568D01*
X897643Y355568D01*
G37*
%LPD*%
%LPC*%
G36*
X897643Y333978D02*
X897643Y333978D01*
X895975Y334310D01*
X894403Y334961D01*
X892988Y335906D01*
X891785Y337109D01*
X890840Y338524D01*
X890189Y340096D01*
X889991Y341092D01*
X903067Y341092D01*
X903067Y333978D01*
X897643Y333978D01*
G37*
%LPD*%
%LPC*%
G36*
X897643Y290798D02*
X897643Y290798D01*
X895975Y291130D01*
X894403Y291781D01*
X892988Y292726D01*
X891785Y293929D01*
X890840Y295344D01*
X890189Y296916D01*
X889991Y297912D01*
X903067Y297912D01*
X903067Y290798D01*
X897643Y290798D01*
G37*
%LPD*%
%LPC*%
G36*
X124023Y46523D02*
X124023Y46523D01*
X124023Y56846D01*
X125296Y56645D01*
X127083Y56064D01*
X128757Y55211D01*
X130278Y54106D01*
X131606Y52778D01*
X132711Y51257D01*
X133564Y49583D01*
X134145Y47796D01*
X134346Y46523D01*
X124023Y46523D01*
G37*
%LPD*%
%LPC*%
G36*
X124023Y684023D02*
X124023Y684023D01*
X124023Y694346D01*
X125296Y694145D01*
X127083Y693564D01*
X128757Y692711D01*
X130278Y691606D01*
X131606Y690278D01*
X132711Y688757D01*
X133564Y687083D01*
X134145Y685296D01*
X134346Y684023D01*
X124023Y684023D01*
G37*
%LPD*%
%LPC*%
G36*
X124023Y680977D02*
X124023Y680977D01*
X134346Y680977D01*
X134145Y679704D01*
X133564Y677917D01*
X132711Y676243D01*
X131606Y674722D01*
X130278Y673394D01*
X128757Y672289D01*
X127083Y671436D01*
X125296Y670855D01*
X124023Y670654D01*
X124023Y680977D01*
G37*
%LPD*%
%LPC*%
G36*
X124023Y43477D02*
X124023Y43477D01*
X134346Y43477D01*
X134145Y42204D01*
X133564Y40417D01*
X132711Y38743D01*
X131606Y37222D01*
X130278Y35894D01*
X128757Y34789D01*
X127083Y33936D01*
X125296Y33355D01*
X124023Y33154D01*
X124023Y43477D01*
G37*
%LPD*%
%LPC*%
G36*
X110654Y46523D02*
X110654Y46523D01*
X110855Y47796D01*
X111436Y49583D01*
X112289Y51257D01*
X113394Y52778D01*
X114722Y54106D01*
X116243Y55211D01*
X117917Y56064D01*
X119704Y56645D01*
X120977Y56846D01*
X120977Y46523D01*
X110654Y46523D01*
G37*
%LPD*%
%LPC*%
G36*
X110654Y684023D02*
X110654Y684023D01*
X110855Y685296D01*
X111436Y687083D01*
X112289Y688757D01*
X113394Y690278D01*
X114722Y691606D01*
X116243Y692711D01*
X117917Y693564D01*
X119704Y694145D01*
X120977Y694346D01*
X120977Y684023D01*
X110654Y684023D01*
G37*
%LPD*%
%LPC*%
G36*
X119704Y33355D02*
X119704Y33355D01*
X117917Y33936D01*
X116243Y34789D01*
X114722Y35894D01*
X113394Y37222D01*
X112289Y38743D01*
X111436Y40417D01*
X110855Y42204D01*
X110654Y43477D01*
X120977Y43477D01*
X120977Y33154D01*
X119704Y33355D01*
G37*
%LPD*%
%LPC*%
G36*
X119704Y670855D02*
X119704Y670855D01*
X117917Y671436D01*
X116243Y672289D01*
X114722Y673394D01*
X113394Y674722D01*
X112289Y676243D01*
X111436Y677917D01*
X110855Y679704D01*
X110654Y680977D01*
X120977Y680977D01*
X120977Y670654D01*
X119704Y670855D01*
G37*
%LPD*%
%LPC*%
G36*
X904589Y385794D02*
X904589Y385794D01*
X904589Y385796D01*
X904591Y385796D01*
X904591Y385794D01*
X904589Y385794D01*
G37*
%LPD*%
%LPC*%
G36*
X882999Y608933D02*
X882999Y608933D01*
X882999Y608935D01*
X883001Y608935D01*
X883001Y608933D01*
X882999Y608933D01*
G37*
%LPD*%
%LPC*%
G36*
X904589Y342614D02*
X904589Y342614D01*
X904589Y342616D01*
X904591Y342616D01*
X904591Y342614D01*
X904589Y342614D01*
G37*
%LPD*%
%LPC*%
G36*
X904589Y364204D02*
X904589Y364204D01*
X904589Y364206D01*
X904591Y364206D01*
X904591Y364204D01*
X904589Y364204D01*
G37*
%LPD*%
%LPC*%
G36*
X122499Y682499D02*
X122499Y682499D01*
X122499Y682501D01*
X122501Y682501D01*
X122501Y682499D01*
X122499Y682499D01*
G37*
%LPD*%
%LPC*%
G36*
X904589Y321024D02*
X904589Y321024D01*
X904589Y321026D01*
X904591Y321026D01*
X904591Y321024D01*
X904589Y321024D01*
G37*
%LPD*%
%LPC*%
G36*
X904589Y256254D02*
X904589Y256254D01*
X904589Y256256D01*
X904591Y256256D01*
X904591Y256254D01*
X904589Y256254D01*
G37*
%LPD*%
%LPC*%
G36*
X949999Y49999D02*
X949999Y49999D01*
X949999Y50001D01*
X950001Y50001D01*
X950001Y49999D01*
X949999Y49999D01*
G37*
%LPD*%
%LPC*%
G36*
X49999Y49999D02*
X49999Y49999D01*
X49999Y50001D01*
X50001Y50001D01*
X50001Y49999D01*
X49999Y49999D01*
G37*
%LPD*%
%LPC*%
G36*
X861409Y256254D02*
X861409Y256254D01*
X861409Y256256D01*
X861411Y256256D01*
X861411Y256254D01*
X861409Y256254D01*
G37*
%LPD*%
%LPC*%
G36*
X904589Y299434D02*
X904589Y299434D01*
X904589Y299436D01*
X904591Y299436D01*
X904591Y299434D01*
X904589Y299434D01*
G37*
%LPD*%
%LPC*%
G36*
X949999Y699999D02*
X949999Y699999D01*
X949999Y700001D01*
X950001Y700001D01*
X950001Y699999D01*
X949999Y699999D01*
G37*
%LPD*%
%LPC*%
G36*
X49999Y699999D02*
X49999Y699999D01*
X49999Y700001D01*
X50001Y700001D01*
X50001Y699999D01*
X49999Y699999D01*
G37*
%LPD*%
%LPC*%
G36*
X122499Y44999D02*
X122499Y44999D01*
X122499Y45001D01*
X122501Y45001D01*
X122501Y44999D01*
X122499Y44999D01*
G37*
%LPD*%
%LPC*%
G36*
X904589Y277844D02*
X904589Y277844D01*
X904589Y277846D01*
X904591Y277846D01*
X904591Y277844D01*
X904589Y277844D01*
G37*
%LPD*%
%LPC*%
G36*
X882999Y141065D02*
X882999Y141065D01*
X882999Y141067D01*
X883001Y141067D01*
X883001Y141065D01*
X882999Y141065D01*
G37*
%LPD*%
D10*
X855314Y493745D02*
X867506Y493745D01*
X867506Y472155D02*
X855314Y472155D01*
X855314Y450565D02*
X867506Y450565D01*
X867506Y428975D02*
X855314Y428975D01*
X855314Y407385D02*
X867506Y407385D01*
X867506Y385795D02*
X855314Y385795D01*
X855314Y364205D02*
X867506Y364205D01*
X867506Y342615D02*
X855314Y342615D01*
X855314Y321025D02*
X867506Y321025D01*
X867506Y299435D02*
X855314Y299435D01*
X855314Y277845D02*
X867506Y277845D01*
X867506Y256255D02*
X855314Y256255D01*
X898494Y493745D02*
X910686Y493745D01*
X910686Y472155D02*
X898494Y472155D01*
X898494Y450565D02*
X910686Y450565D01*
X910686Y428975D02*
X898494Y428975D01*
X898494Y407385D02*
X910686Y407385D01*
X910686Y385795D02*
X898494Y385795D01*
X898494Y364205D02*
X910686Y364205D01*
X910686Y342615D02*
X898494Y342615D01*
X898494Y321025D02*
X910686Y321025D01*
X910686Y299435D02*
X898494Y299435D01*
X898494Y277845D02*
X910686Y277845D01*
X910686Y256255D02*
X898494Y256255D01*
D11*
X883000Y608934D03*
X883000Y141066D03*
D12*
X50000Y50000D03*
X950000Y50000D03*
X950000Y700000D03*
X50000Y700000D03*
D13*
X227500Y515000D03*
X52000Y392000D03*
X50000Y305000D03*
X122500Y682500D03*
D14*
X635000Y429900D03*
X635000Y442600D03*
X635000Y455300D03*
X635000Y468000D03*
D13*
X122500Y45000D03*
D15*
X616040Y100000D03*
X483960Y100000D03*
D16*
X458000Y608000D03*
D17*
X456000Y610000D01*
X380000Y610000D01*
D16*
X380000Y610000D03*
X450500Y629500D03*
X422750Y628489D03*
D17*
X449489Y628489D02*
X450500Y629500D01*
X449489Y628489D02*
X422750Y628489D01*
D18*
X450000Y687500D03*
D17*
X450000Y705000D01*
D18*
X450000Y705000D03*
D16*
X431000Y690388D03*
X431500Y708000D03*
D17*
X431500Y690888D01*
X431000Y690388D01*
D16*
X150000Y280000D03*
D19*
X150000Y263000D01*
D16*
X150000Y263000D03*
X387500Y630000D03*
D20*
X387000Y629500D01*
X257500Y629500D01*
D16*
X257500Y629500D03*
X565500Y640000D03*
X595973Y669500D03*
X282500Y504500D03*
X555000Y525000D03*
D21*
X554500Y524500D01*
X497000Y524500D01*
X477000Y504500D01*
X282500Y504500D01*
X555000Y525000D02*
X560000Y525000D01*
D16*
X290000Y492500D03*
D21*
X480000Y492500D02*
X502500Y515000D01*
X480000Y492500D02*
X290000Y492500D01*
X282500Y480500D02*
X459500Y480500D01*
D16*
X282500Y480500D03*
X542500Y525000D03*
D21*
X665548Y529453D02*
X715000Y480000D01*
X661298Y525203D02*
X659000Y527500D01*
X715000Y480000D02*
X715000Y370000D01*
X718000Y369500D02*
X718000Y230000D01*
X718000Y183500D01*
X718000Y170294D01*
D16*
X717000Y170500D03*
X720000Y370000D03*
D21*
X718000Y183500D02*
X716500Y183500D01*
X715500Y182500D01*
D16*
X637500Y500500D03*
X275000Y492500D03*
X532500Y525000D03*
D21*
X556095Y523905D02*
X660000Y523905D01*
X556095Y523905D02*
X555000Y525000D01*
D18*
X601000Y709000D03*
D22*
X600000Y708500D02*
X600000Y677500D01*
X600000Y662500D01*
X588500Y651000D01*
X577500Y640000D01*
X565500Y640000D01*
D18*
X618000Y709000D03*
D20*
X665548Y529453D02*
X661298Y525203D01*
X665548Y529453D02*
X669000Y532905D01*
D22*
X669000Y557500D01*
X588500Y638000D01*
X588500Y651000D01*
X601000Y709000D02*
X618000Y709000D01*
D20*
X502500Y519000D02*
X502500Y515000D01*
X502500Y519000D02*
X497000Y524500D01*
X600500Y708500D02*
X601000Y709000D01*
X600500Y708500D02*
X600000Y708500D01*
X659000Y527500D02*
X637500Y506000D01*
X637500Y500500D01*
D17*
X715000Y370000D02*
X720000Y370000D01*
D18*
X715500Y182500D03*
D21*
X717700Y172500D02*
X718000Y170294D01*
D23*
X595973Y669500D02*
X600000Y673527D01*
X600000Y677500D01*
D24*
X677500Y230000D02*
X718000Y230000D01*
X677500Y230000D02*
X665000Y217500D01*
X640000Y217500D01*
X637500Y217500D01*
D18*
X640000Y217500D03*
X460000Y327500D03*
X475000Y347500D03*
X485000Y485000D03*
D25*
X485000Y487500D01*
X480000Y492500D01*
X475000Y347500D02*
X460000Y332500D01*
X460000Y327500D01*
D16*
X540500Y441500D03*
X431000Y561500D03*
X525500Y637000D03*
X580000Y550000D03*
D25*
X567500Y550000D01*
D16*
X550000Y510500D03*
D25*
X545500Y510500D01*
X540500Y505500D01*
D16*
X540000Y590000D03*
X501000Y569500D03*
X632000Y512500D03*
D25*
X631500Y513000D01*
X623500Y513000D01*
D16*
X746000Y191000D03*
D25*
X746000Y150500D02*
X749000Y147500D01*
X746000Y150500D02*
X746000Y191000D01*
X749000Y148066D02*
X749000Y147500D01*
D16*
X392500Y546000D03*
D24*
X370000Y467500D02*
X370000Y325000D01*
D16*
X274000Y334500D03*
D24*
X370000Y325000D02*
X370000Y314500D01*
D16*
X42500Y509905D03*
D21*
X104905Y509905D01*
X105000Y510000D01*
D16*
X105000Y510000D03*
X117500Y430000D03*
X230000Y430000D03*
D21*
X117500Y430000D01*
D16*
X175000Y285000D03*
X219500Y327000D03*
X122500Y96500D03*
D24*
X118000Y101000D01*
X86500Y101000D01*
D16*
X30000Y235000D03*
D24*
X17500Y222500D01*
X17500Y115000D01*
X30000Y102500D01*
D16*
X30000Y102500D03*
X85000Y235000D03*
D24*
X85000Y102500D01*
D16*
X85000Y102500D03*
X652500Y100000D03*
X167500Y715000D03*
D25*
X167500Y657500D01*
D16*
X167500Y657500D03*
X290000Y682500D03*
D25*
X265000Y657500D01*
X167500Y657500D01*
D16*
X340000Y655000D03*
D24*
X312500Y682500D01*
X290000Y682500D01*
D16*
X525427Y657218D03*
D25*
X525500Y657145D01*
X525500Y637000D01*
D16*
X500000Y550000D03*
X514500Y510500D03*
X529000Y569500D03*
X568000Y550000D03*
X574500Y510500D03*
X580500Y590000D03*
X594500Y611000D03*
X781000Y318500D03*
D25*
X781000Y326500D01*
X777500Y330000D01*
D16*
X772500Y492500D03*
X745500Y366000D03*
D24*
X882800Y253200D02*
X883000Y253192D01*
X883000Y141066D01*
X882800Y253200D02*
X882800Y256200D01*
X882800Y253200D02*
X879745Y256255D01*
D16*
X728500Y341000D03*
X707000Y343000D03*
X432500Y636000D03*
X432500Y597500D03*
X308500Y642500D03*
X308500Y619000D03*
X368500Y517500D03*
X368500Y467500D03*
D26*
X747000Y190000D02*
X789500Y190000D01*
X747000Y190000D02*
X746000Y191000D01*
X855755Y256255D02*
X861410Y256255D01*
X855755Y256255D02*
X789500Y190000D01*
X781000Y318500D02*
X773500Y318500D01*
X765500Y310500D01*
X777500Y330000D02*
X739500Y330000D01*
X728500Y341000D01*
X707000Y343000D02*
X707000Y349500D01*
X705000Y351500D01*
X623500Y513000D02*
X577000Y513000D01*
X574500Y510500D01*
X500000Y550000D02*
X500000Y568500D01*
X501000Y569500D01*
X529000Y569500D02*
X540000Y580500D01*
X540000Y590000D01*
X560000Y590000D01*
X580500Y590000D01*
X772500Y492500D02*
X773500Y491500D01*
D25*
X392500Y546000D02*
X368500Y522000D01*
X368500Y517500D01*
X368500Y467500D02*
X480000Y467500D01*
X513500Y509500D02*
X514500Y510500D01*
X513500Y509500D02*
X513500Y501000D01*
X480000Y467500D01*
X514500Y510500D02*
X550000Y510500D01*
X370000Y467500D02*
X368500Y467500D01*
X230000Y337500D02*
X219500Y327000D01*
X230000Y337500D02*
X230000Y430000D01*
X227000Y334500D02*
X219500Y327000D01*
X227000Y334500D02*
X274000Y334500D01*
X217000Y327000D02*
X175000Y285000D01*
X217000Y327000D02*
X219500Y327000D01*
X175000Y285000D02*
X174231Y284231D01*
X174231Y276212D01*
X147760Y249740D01*
X133019Y235000D01*
X85000Y235000D01*
X30000Y235000D01*
X30000Y102500D02*
X82500Y102500D01*
X85000Y102500D01*
X86500Y101000D01*
X122500Y96500D02*
X127500Y91500D01*
X274000Y234500D02*
X274000Y334500D01*
X700566Y148066D02*
X808000Y148066D01*
X876277Y147789D02*
X883000Y141066D01*
X876277Y147789D02*
X875800Y148066D01*
X749000Y148066D01*
X432500Y597000D02*
X432500Y597500D01*
X432500Y636000D02*
X429000Y636000D01*
X410000Y655000D01*
X340000Y655000D01*
X308500Y642500D02*
X290000Y661000D01*
X290000Y682500D01*
X525500Y666000D02*
X525500Y657291D01*
X525427Y657218D01*
X525500Y666000D02*
X582500Y723000D01*
D16*
X213161Y92500D03*
D23*
X202161Y81500D01*
X169000Y81500D01*
D16*
X191500Y251000D03*
D24*
X152500Y251000D01*
X149019Y251000D01*
X147760Y249740D01*
D16*
X107500Y250500D03*
D20*
X152000Y250500D01*
X152500Y251000D01*
D16*
X207500Y234000D03*
D24*
X208000Y234500D02*
X274000Y234500D01*
X208000Y234500D02*
X207500Y234000D01*
D16*
X191500Y217000D03*
X213000Y183500D03*
D25*
X213500Y183500D02*
X235500Y161500D01*
X213500Y183500D02*
X213000Y183500D01*
X235500Y161500D02*
X235500Y137500D01*
D16*
X235500Y137500D03*
X207500Y137500D03*
D25*
X235500Y137500D01*
X207500Y137500D02*
X185000Y137500D01*
X184702Y137202D01*
D16*
X184702Y137202D03*
D26*
X540500Y441500D02*
X540500Y505500D01*
D16*
X667000Y506000D03*
X681000Y533000D03*
X253500Y411000D03*
D22*
X883000Y141066D02*
X946500Y77566D01*
X946500Y53500D01*
X950000Y50000D01*
X918638Y644572D02*
X950000Y678134D01*
X918638Y644572D02*
X883000Y608934D01*
X950000Y678134D02*
X950000Y700000D01*
X67500Y682500D02*
X50000Y700000D01*
X67500Y682500D02*
X122500Y682500D01*
X82500Y82500D02*
X50000Y50000D01*
X82500Y82500D02*
X82500Y102500D01*
D24*
X651277Y490277D02*
X667000Y506000D01*
X651277Y490277D02*
X635723Y490277D01*
X630500Y495500D01*
X630500Y511000D02*
X632000Y512500D01*
X630500Y511000D02*
X630500Y495500D01*
D16*
X501000Y580000D03*
X523500Y590000D03*
X765500Y309500D03*
X660000Y100000D03*
X340000Y647500D03*
X485000Y605000D03*
X501000Y589500D03*
X592000Y498000D03*
X169661Y81500D03*
D18*
X282500Y147500D03*
D16*
X234000Y322000D03*
X561500Y589000D03*
X561000Y545000D03*
D18*
X689000Y696500D03*
X740000Y696000D03*
D25*
X727500Y696000D01*
X689500Y696000D01*
X689000Y696500D01*
D18*
X690000Y642500D03*
X727500Y642500D03*
X590000Y722500D03*
D23*
X590000Y723000D01*
D18*
X812500Y690000D03*
D20*
X880800Y621700D01*
X883000Y614554D02*
X883000Y608934D01*
X883000Y614554D02*
X880800Y621700D01*
D16*
X579500Y658500D03*
X609500Y658500D03*
X650500Y551500D03*
X680500Y545000D03*
X613000Y693000D03*
X587000Y693000D03*
D18*
X708500Y642500D03*
X708500Y696000D03*
D16*
X786000Y500500D03*
D20*
X620000Y722500D02*
X590000Y722500D01*
X630000Y712500D02*
X630000Y700000D01*
X626500Y696500D01*
X623000Y693000D02*
X613000Y693000D01*
X630000Y712500D02*
X620000Y722500D01*
X727500Y696000D02*
X727500Y642500D01*
X740000Y696000D02*
X806500Y696000D01*
X812500Y690000D01*
X689000Y696500D02*
X626500Y696500D01*
X623000Y693000D01*
X652500Y100000D02*
X660000Y100000D01*
X613000Y662000D02*
X613000Y693000D01*
X613000Y662000D02*
X609500Y658500D01*
X579500Y658500D02*
X579500Y685500D01*
X587000Y693000D01*
X904590Y385795D02*
X904590Y364205D01*
X904590Y342615D01*
X904590Y321025D01*
X904590Y299435D01*
X904590Y277845D01*
X904590Y256255D01*
X879745Y256255D01*
X882800Y256200D02*
X856765Y256200D01*
X861410Y256255D01*
X771532Y491532D02*
X772500Y492500D01*
X780500Y500500D02*
X786000Y500500D01*
X780500Y500500D02*
X772500Y492500D01*
X755000Y492500D02*
X745500Y483000D01*
X745500Y477500D01*
X745500Y427500D01*
X745500Y366000D01*
X540000Y590000D02*
X523500Y590000D01*
D17*
X566000Y550000D02*
X561000Y545000D01*
X566000Y550000D02*
X567500Y550000D01*
X561000Y545000D02*
X561000Y589000D01*
X560000Y590000D01*
X501000Y580000D02*
X501000Y569500D01*
X501000Y580000D02*
X501000Y589500D01*
X485500Y605000D01*
X485000Y605000D01*
D16*
X259000Y309500D03*
D18*
X601000Y732000D03*
D25*
X589500Y723000D02*
X582500Y723000D01*
X589500Y723000D02*
X590000Y722500D01*
D16*
X746000Y159000D03*
X706500Y351000D03*
X733500Y336000D03*
D18*
X745500Y279000D03*
D22*
X745500Y289500D01*
X765500Y309500D01*
D18*
X745500Y491500D03*
D22*
X755000Y492500D02*
X772500Y492500D01*
D18*
X571500Y449500D03*
D25*
X567500Y445500D01*
X544500Y445500D01*
X540500Y441500D01*
D18*
X778000Y39000D03*
D17*
X939000Y39000D02*
X950000Y50000D01*
D23*
X700566Y148066D02*
X652500Y100000D01*
D18*
X740000Y39500D03*
X715000Y39500D03*
X684500Y39500D03*
X659500Y39500D03*
D16*
X673000Y501000D03*
D18*
X611500Y549500D03*
D25*
X611500Y551500D01*
X610500Y552500D01*
X610000Y552500D01*
D18*
X645000Y557500D03*
D20*
X642500Y560000D01*
X640000Y560000D01*
D16*
X704000Y422000D03*
X726000Y427000D03*
X707000Y240000D03*
X729500Y240000D03*
D18*
X303000Y144500D03*
X448500Y144000D03*
X377000Y220000D03*
X347500Y249500D03*
X463500Y238500D03*
D20*
X377500Y219500D02*
X377000Y220000D01*
X347500Y249500D01*
D24*
X356500Y301000D02*
X370000Y314500D01*
X356500Y301000D02*
X347500Y292000D01*
X347500Y249500D01*
X303000Y205000D01*
X303000Y144500D01*
D18*
X355000Y249500D03*
D22*
X122500Y45000D02*
X55000Y45000D01*
X50000Y50000D01*
D18*
X568000Y266500D03*
D23*
X540000Y238500D01*
X463500Y238500D01*
D18*
X550500Y156500D03*
D24*
X461500Y156500D01*
X448500Y144000D01*
D16*
X707500Y215000D03*
X728500Y215000D03*
D18*
X379000Y282500D03*
X461500Y294500D03*
X378500Y331000D03*
X404000Y262500D03*
X374000Y252500D03*
X475000Y297500D03*
D23*
X378500Y331000D02*
X376000Y331000D01*
X370000Y325000D01*
X360500Y301000D02*
X379000Y282500D01*
X360500Y301000D02*
X356500Y301000D01*
X379000Y282500D02*
X391000Y294500D01*
X461500Y294500D01*
X464500Y297500D01*
X475000Y297500D01*
X371000Y249500D02*
X355000Y249500D01*
X371000Y249500D02*
X374000Y252500D01*
X384000Y262500D01*
X404000Y262500D01*
X355000Y249500D02*
X347500Y249500D01*
X374000Y252500D02*
X374000Y277500D01*
X379000Y282500D01*
X404000Y262500D02*
X428000Y238500D01*
X463500Y238500D01*
X303000Y144500D02*
X285500Y144500D01*
X282500Y147500D01*
X245500Y147500D02*
X235500Y137500D01*
X245500Y147500D02*
X282500Y147500D01*
X213161Y92500D02*
X207500Y98161D01*
X207500Y137500D01*
X590000Y722500D02*
X599500Y732000D01*
X601000Y732000D01*
X726500Y427500D02*
X726000Y427000D01*
X726500Y427500D02*
X745500Y427500D01*
X745500Y477500D02*
X745500Y491500D01*
X704000Y422000D02*
X673000Y453000D01*
X673000Y501000D01*
X703000Y150500D02*
X700566Y148066D01*
X703000Y150500D02*
X746000Y150500D01*
D18*
X342000Y30500D03*
X350500Y30500D03*
D20*
X342000Y30500D01*
D18*
X303000Y20000D03*
D20*
X303000Y29500D01*
D18*
X449000Y19000D03*
D20*
X446500Y16500D01*
D18*
X303000Y118500D03*
X448500Y118500D03*
D22*
X446500Y16500D02*
X364500Y16500D01*
X350500Y30500D01*
X342000Y30500D02*
X304000Y30500D01*
X303000Y29500D01*
D18*
X500000Y272500D03*
D25*
X517500Y272500D01*
D18*
X517500Y272500D03*
X365000Y30000D03*
D20*
X365000Y36000D01*
D18*
X365000Y210000D03*
D20*
X365000Y203000D02*
X365000Y36000D01*
X365000Y203000D02*
X365000Y210000D01*
D18*
X372000Y30000D03*
D20*
X371000Y30000D01*
X365000Y36000D01*
D18*
X372500Y210500D03*
D20*
X365000Y203000D01*
D18*
X326894Y303000D03*
D17*
X333500Y309606D01*
X333500Y311000D01*
X334000Y311000D01*
D18*
X334000Y311000D03*
X451500Y200500D03*
D17*
X432500Y219500D01*
X432500Y222171D01*
X432000Y222171D01*
D18*
X432000Y222171D03*
X430750Y212750D03*
D17*
X450829Y192671D01*
X450829Y193000D01*
D18*
X450829Y193000D03*
X441000Y218500D03*
D17*
X453500Y206000D02*
X465000Y206000D01*
X465000Y206500D01*
D18*
X465000Y206500D03*
D17*
X453500Y206000D02*
X441000Y218500D01*
D18*
X448000Y162500D03*
D17*
X456000Y162500D02*
X459000Y165500D01*
X456000Y162500D02*
X448000Y162500D01*
D18*
X468000Y165500D03*
D17*
X459000Y165500D01*
D18*
X290000Y247500D03*
D17*
X290000Y254000D02*
X343000Y307000D01*
X290000Y254000D02*
X290000Y247500D01*
X343000Y316500D02*
X347000Y320500D01*
X343000Y316500D02*
X343000Y307000D01*
D18*
X347000Y320500D03*
X284000Y253000D03*
D17*
X339329Y308329D01*
X339329Y319435D01*
X347894Y328000D02*
X349500Y328000D01*
X347894Y328000D02*
X339329Y319435D01*
D18*
X349500Y328000D03*
X831500Y510748D03*
D17*
X831500Y505500D01*
X843255Y493745D01*
X861410Y493745D01*
D18*
X824000Y506000D03*
D17*
X824000Y490500D01*
X842345Y472155D02*
X861410Y472155D01*
X842345Y472155D02*
X824000Y490500D01*
D27*
X835935Y450565D02*
X861410Y450565D01*
X835935Y450565D02*
X833500Y453000D01*
D16*
X833500Y453000D03*
D27*
X858910Y428975D02*
X861410Y428975D01*
X858910Y428975D02*
X858385Y429500D01*
X825000Y429500D01*
D16*
X825000Y429500D03*
X833277Y462223D03*
D27*
X871723Y462223D01*
X903845Y493000D02*
X904590Y493745D01*
X903845Y493000D02*
X890500Y493000D01*
X877500Y480000D01*
X877500Y468000D02*
X871723Y462223D01*
X877500Y468000D02*
X877500Y480000D01*
D16*
X820500Y453000D03*
D27*
X824500Y453000D01*
X837500Y440000D01*
X875000Y440000D01*
X894655Y472155D02*
X904590Y472155D01*
X894655Y472155D02*
X880000Y457500D01*
X880000Y445000D01*
X875000Y440000D01*
X904590Y450565D02*
X932000Y450565D01*
D18*
X932000Y450565D03*
X744000Y645000D03*
D17*
X749500Y650500D02*
X799500Y650500D01*
X749500Y650500D02*
X744000Y645000D01*
D18*
X799500Y650500D03*
D16*
X810000Y290000D03*
D27*
X819435Y299435D02*
X861410Y299435D01*
X819435Y299435D02*
X810000Y290000D01*
D16*
X524500Y446000D03*
X489000Y445888D03*
D17*
X489112Y446000D02*
X524500Y446000D01*
X489112Y446000D02*
X489000Y445888D01*
D16*
X649000Y265500D03*
D17*
X649000Y261000D01*
X647000Y259000D01*
X647000Y248000D01*
D16*
X647000Y248000D03*
D18*
X676500Y642928D03*
D17*
X677000Y643428D02*
X677000Y665000D01*
X677000Y643428D02*
X676500Y642928D01*
X677000Y665000D02*
X677500Y665500D01*
D18*
X677500Y665500D03*
D16*
X658973Y539973D03*
D17*
X661973Y542973D02*
X661973Y554973D01*
X661973Y542973D02*
X658973Y539973D01*
X661973Y554973D02*
X618187Y598759D01*
X553474Y598759D01*
X535866Y616366D01*
X535922Y616422D02*
X535922Y622636D01*
D16*
X535922Y622636D03*
D17*
X535922Y616422D02*
X535866Y616366D01*
D16*
X651027Y541973D03*
X525000Y622500D03*
D17*
X552027Y595473D01*
X659027Y553973D02*
X659027Y548473D01*
X652527Y541973D01*
X651027Y541973D01*
X659027Y553973D02*
X617527Y595473D01*
X552027Y595473D01*
D16*
X416500Y622112D03*
D17*
X416183Y622429D01*
X466429Y622429D01*
D16*
X466429Y622429D03*
X640500Y268500D03*
X640500Y254000D03*
D17*
X640500Y268500D01*
D16*
X810000Y275000D03*
D27*
X812845Y277845D02*
X861410Y277845D01*
X812845Y277845D02*
X810000Y275000D01*
D16*
X670500Y430500D03*
D17*
X635600Y430500D01*
X635000Y429900D01*
D16*
X670000Y445500D03*
D17*
X667100Y442600D01*
X635000Y442600D01*
D18*
X650329Y453000D03*
D17*
X648029Y455300D01*
X635000Y455300D01*
D16*
X440000Y687500D03*
D17*
X440000Y707612D01*
D16*
X440000Y707612D03*
D18*
X665000Y470000D03*
D17*
X663000Y468000D01*
X635000Y468000D01*
D18*
X660237Y196472D03*
D17*
X660209Y196500D01*
X648000Y196500D01*
D18*
X648000Y196500D03*
X615000Y482500D03*
D17*
X615000Y419000D01*
X617000Y417000D02*
X617000Y414000D01*
X617000Y417000D02*
X615000Y419000D01*
D18*
X617000Y414000D03*
X664171Y283000D03*
D17*
X664171Y241171D01*
X656500Y233500D02*
X656500Y225000D01*
D18*
X656500Y225000D03*
D17*
X656500Y233500D02*
X664171Y241171D01*
D18*
X460000Y687500D03*
D17*
X460000Y705000D01*
X459500Y705500D01*
D18*
X460000Y705000D03*
X445500Y172500D03*
D22*
X448000Y174000D01*
X542000Y174000D01*
D18*
X542000Y174000D03*
X550500Y174500D03*
X436500Y172500D03*
D22*
X436500Y172000D02*
X448500Y172000D01*
X538500Y174000D02*
X550500Y174000D01*
D18*
X645500Y224500D03*
D17*
X645500Y238175D01*
X653826Y279826D02*
X654671Y280671D01*
X653826Y246501D02*
X645500Y238175D01*
X653826Y246501D02*
X653826Y279826D01*
X654671Y280671D02*
X654671Y281500D01*
D18*
X654671Y281500D03*
X650829Y230500D03*
D17*
X650829Y233935D02*
X659342Y242448D01*
X650829Y233935D02*
X650829Y230500D01*
X659342Y285435D02*
X655777Y289000D01*
X655000Y289000D01*
X659342Y285435D02*
X659342Y242448D01*
D18*
X655000Y289000D03*
X662500Y231000D03*
D17*
X662500Y234000D02*
X668500Y240000D01*
X662500Y234000D02*
X662500Y231000D01*
X668500Y277000D02*
X669000Y277500D01*
X670000Y277500D01*
D18*
X670000Y277500D03*
X620671Y422500D03*
D17*
X619000Y424171D01*
X619000Y477000D01*
X619761Y477761D01*
X620739Y477761D01*
D18*
X620739Y477761D03*
D17*
X668500Y277000D02*
X668500Y240000D01*
M02*
