M48
;GenerationSoftware,Autodesk,EAGLE,9.2.2*%
;CreationDate,2020-03-14T20:44:30Z*%
FMAT,2
ICI,OFF
METRIC,TZ,000.000
T10C0.350
T9C0.381
T8C0.508
T7C0.813
T6C0.900
T5C1.016
T4C1.854
T3C2.032
T2C3.200
T1C3.302
%
G90
M71
T1
X88300Y60893
X88300Y14107
T2
X5000Y5000
X95000Y5000
X95000Y70000
X5000Y70000
T3
X3750Y58940
X8322Y58940
T4
X48396Y10000
X61604Y10000
T5
X5200Y39200
X22750Y51500
X12250Y68250
X5000Y30500
X12250Y4500
T6
X5000Y18950
X5000Y14550
T7
X90459Y25625
X90459Y27784
X90459Y29943
X90459Y32102
X90459Y34262
X90459Y38580
X90459Y40739
X90459Y42898
X90459Y45056
X90459Y47215
X90459Y49374
X86141Y25625
X86141Y27784
X86141Y29943
X86141Y32102
X86141Y34262
X86141Y36421
X86141Y38580
X86141Y40739
X86141Y42898
X86141Y45056
X86141Y47215
X86141Y49374
X90459Y36421
T8
X63500Y46800
X63500Y45530
X63500Y44260
X63500Y42990
T9
X23000Y43000
X17500Y28500
X21950Y32700
X12250Y9650
X3000Y23500
X3000Y10250
X8500Y23500
X8500Y10250
X65250Y10000
X16750Y71500
X16750Y65750
X29000Y68250
X34000Y65500
X52543Y65722
X50000Y55000
X51450Y51050
X52900Y56950
X56800Y55000
X57450Y51050
X58050Y59000
X59450Y61100
X78100Y31850
X77250Y49250
X74550Y36600
X72850Y34100
X70700Y34300
X43250Y63600
X43250Y59750
X30850Y64250
X30850Y61900
X36850Y51750
X36850Y46750
X21316Y9250
X19150Y25100
X10750Y25050
X20750Y23400
X19150Y21700
X21300Y18350
X23550Y13750
X20750Y13750
X18470Y13720
X66700Y50600
X68100Y53300
X25350Y41100
X50100Y58000
X52350Y59000
X76550Y30950
X66000Y10000
X34000Y64750
X48500Y60500
X50100Y58950
X59200Y49800
X16966Y8150
X38000Y61000
X23400Y32200
X56150Y58900
X56100Y54500
X45050Y62950
X42275Y62849
X43100Y69039
X43150Y70800
X15000Y28000
X15000Y26300
X57950Y65850
X60950Y65850
X65050Y55150
X68050Y54500
X61300Y69300
X58700Y69300
X38750Y63000
X25750Y62950
X78600Y50050
X25900Y30950
X56550Y64000
X74600Y15900
X70650Y35100
X73350Y33600
X59597Y66950
X28250Y50450
X55500Y52500
X29000Y49250
X28250Y48050
X54250Y52500
X71700Y17050
X72000Y37000
X67300Y50100
X63750Y50050
X27500Y49250
X70400Y42200
X72600Y42700
X70700Y24000
X72950Y24000
X45800Y60800
X53250Y52500
X54050Y44150
X43100Y56150
X52550Y63700
X58000Y55000
X55000Y51050
X54000Y59000
X70750Y21500
X72850Y21500
X50100Y56950
X63200Y51250
X74600Y19100
X39250Y54600
X27400Y33450
X4250Y50990
X10500Y51000
X11750Y43000
X44000Y70761
X44000Y68750
X67000Y44550
X67050Y43050
X81000Y27500
X64050Y25400
X64050Y26850
X46643Y62243
X41650Y62211
X52500Y62250
X65103Y54197
X53592Y62264
X65897Y53997
X64700Y24800
X64900Y26550
X48900Y44589
X52450Y44600
X81000Y29000
X82050Y45300
X83328Y46222
X82500Y42950
X83350Y45300
T10
X28400Y25300
X34950Y32800
X83150Y51075
X82400Y50600
X34700Y32050
X29000Y24750
X46800Y16550
X44800Y16250
X93200Y45056
X74400Y64500
X79950Y65050
X46500Y20650
X44100Y21850
X45083Y19300
X43075Y21275
X43200Y22217
X67650Y64293
X67750Y66550
X45150Y20050
X33400Y31100
X32689Y30300
X37250Y21050
X37200Y3000
X36500Y21000
X36500Y3000
X51750Y27250
X50000Y27250
X44850Y11850
X30300Y11850
X65033Y45300
X44900Y1900
X30300Y2000
X66500Y47000
X66024Y19647
X64800Y19650
X61500Y48250
X61700Y41400
X66417Y28300
X65650Y22500
X46000Y68750
X46000Y70500
X44550Y17250
X54200Y17400
X55050Y17450
X43650Y17250
X64550Y22450
X65467Y28150
X65083Y23050
X65500Y28900
X66250Y23100
X67000Y27750
X62067Y42250
X62074Y47776
X35050Y3050
X34200Y3050
X47500Y29750
X37400Y25250
X40400Y26250
X37850Y33100
X46150Y29450
X37900Y28250
X55050Y15650
X56800Y26650
X35500Y24950
X46350Y23850
X34750Y24950
X37700Y22000
X48500Y48500
X47500Y34750
X46000Y32750
X64000Y21750
X71550Y18250
X61800Y70900
X60100Y70900
X44850Y14400
X64500Y55750
X61150Y54950
X65950Y3950
X68450Y3950
X71500Y3950
X74000Y3950
X77800Y3900
X57150Y44950
X74550Y49150
X74550Y27900
X60100Y73200
X70850Y69600
X70850Y64250
X81250Y69000
X59000Y72250
X72750Y64250
X69000Y64250
X45000Y70500
X45000Y68750
X74000Y69600
X68900Y69650
X28250Y14750
X30300Y14450
M30