G04 EAGLE Gerber RS-274X export*
G75*
%MOMM*%
%FSLAX34Y34*%
%LPD*%
%IN*%
%IPPOS*%
%AMOC8*
5,1,8,0,0,1.08239X$1,22.5*%
G01*
%ADD10C,0.254000*%


D10*
X0Y0D02*
X1000000Y0D01*
X1000000Y750000D01*
X0Y750000D01*
X0Y0D01*
X47660Y588956D02*
X47583Y588073D01*
X47429Y587199D01*
X47199Y586342D01*
X46896Y585508D01*
X46521Y584704D01*
X46077Y583936D01*
X45568Y583209D01*
X44998Y582529D01*
X44371Y581902D01*
X43691Y581332D01*
X42964Y580823D01*
X42196Y580379D01*
X41392Y580004D01*
X40558Y579701D01*
X39701Y579471D01*
X38827Y579317D01*
X37944Y579240D01*
X37056Y579240D01*
X36173Y579317D01*
X35299Y579471D01*
X34442Y579701D01*
X33608Y580004D01*
X32804Y580379D01*
X32036Y580823D01*
X31309Y581332D01*
X30629Y581902D01*
X30002Y582529D01*
X29432Y583209D01*
X28923Y583936D01*
X28479Y584704D01*
X28104Y585508D01*
X27801Y586342D01*
X27571Y587199D01*
X27417Y588073D01*
X27340Y588956D01*
X27340Y589844D01*
X27417Y590727D01*
X27571Y591601D01*
X27801Y592458D01*
X28104Y593292D01*
X28479Y594096D01*
X28923Y594864D01*
X29432Y595591D01*
X30002Y596271D01*
X30629Y596898D01*
X31309Y597468D01*
X32036Y597977D01*
X32804Y598421D01*
X33608Y598796D01*
X34442Y599099D01*
X35299Y599329D01*
X36173Y599483D01*
X37056Y599560D01*
X37944Y599560D01*
X38827Y599483D01*
X39701Y599329D01*
X40558Y599099D01*
X41392Y598796D01*
X42196Y598421D01*
X42964Y597977D01*
X43691Y597468D01*
X44371Y596898D01*
X44998Y596271D01*
X45568Y595591D01*
X46077Y594864D01*
X46521Y594096D01*
X46896Y593292D01*
X47199Y592458D01*
X47429Y591601D01*
X47583Y590727D01*
X47660Y589844D01*
X47660Y588956D01*
X93380Y588956D02*
X93303Y588073D01*
X93149Y587199D01*
X92919Y586342D01*
X92616Y585508D01*
X92241Y584704D01*
X91797Y583936D01*
X91288Y583209D01*
X90718Y582529D01*
X90091Y581902D01*
X89411Y581332D01*
X88684Y580823D01*
X87916Y580379D01*
X87112Y580004D01*
X86278Y579701D01*
X85421Y579471D01*
X84547Y579317D01*
X83664Y579240D01*
X82776Y579240D01*
X81893Y579317D01*
X81019Y579471D01*
X80162Y579701D01*
X79328Y580004D01*
X78524Y580379D01*
X77756Y580823D01*
X77029Y581332D01*
X76349Y581902D01*
X75722Y582529D01*
X75152Y583209D01*
X74643Y583936D01*
X74199Y584704D01*
X73824Y585508D01*
X73521Y586342D01*
X73291Y587199D01*
X73137Y588073D01*
X73060Y588956D01*
X73060Y589844D01*
X73137Y590727D01*
X73291Y591601D01*
X73521Y592458D01*
X73824Y593292D01*
X74199Y594096D01*
X74643Y594864D01*
X75152Y595591D01*
X75722Y596271D01*
X76349Y596898D01*
X77029Y597468D01*
X77756Y597977D01*
X78524Y598421D01*
X79328Y598796D01*
X80162Y599099D01*
X81019Y599329D01*
X81893Y599483D01*
X82776Y599560D01*
X83664Y599560D01*
X84547Y599483D01*
X85421Y599329D01*
X86278Y599099D01*
X87112Y598796D01*
X87916Y598421D01*
X88684Y597977D01*
X89411Y597468D01*
X90091Y596898D01*
X90718Y596271D01*
X91288Y595591D01*
X91797Y594864D01*
X92241Y594096D01*
X92616Y593292D01*
X92919Y592458D01*
X93149Y591601D01*
X93303Y590727D01*
X93380Y589844D01*
X93380Y588956D01*
X54500Y189205D02*
X54423Y188620D01*
X54270Y188050D01*
X54045Y187505D01*
X53750Y186995D01*
X53391Y186527D01*
X52973Y186109D01*
X52505Y185750D01*
X51995Y185455D01*
X51450Y185230D01*
X50880Y185077D01*
X50295Y185000D01*
X49705Y185000D01*
X49120Y185077D01*
X48550Y185230D01*
X48005Y185455D01*
X47495Y185750D01*
X47027Y186109D01*
X46609Y186527D01*
X46250Y186995D01*
X45955Y187505D01*
X45730Y188050D01*
X45577Y188620D01*
X45500Y189205D01*
X45500Y189795D01*
X45577Y190380D01*
X45730Y190950D01*
X45955Y191495D01*
X46250Y192005D01*
X46609Y192473D01*
X47027Y192891D01*
X47495Y193250D01*
X48005Y193545D01*
X48550Y193770D01*
X49120Y193923D01*
X49705Y194000D01*
X50295Y194000D01*
X50880Y193923D01*
X51450Y193770D01*
X51995Y193545D01*
X52505Y193250D01*
X52973Y192891D01*
X53391Y192473D01*
X53750Y192005D01*
X54045Y191495D01*
X54270Y190950D01*
X54423Y190380D01*
X54500Y189795D01*
X54500Y189205D01*
X54500Y145205D02*
X54423Y144620D01*
X54270Y144050D01*
X54045Y143505D01*
X53750Y142995D01*
X53391Y142527D01*
X52973Y142109D01*
X52505Y141750D01*
X51995Y141455D01*
X51450Y141230D01*
X50880Y141077D01*
X50295Y141000D01*
X49705Y141000D01*
X49120Y141077D01*
X48550Y141230D01*
X48005Y141455D01*
X47495Y141750D01*
X47027Y142109D01*
X46609Y142527D01*
X46250Y142995D01*
X45955Y143505D01*
X45730Y144050D01*
X45577Y144620D01*
X45500Y145205D01*
X45500Y145795D01*
X45577Y146380D01*
X45730Y146950D01*
X45955Y147495D01*
X46250Y148005D01*
X46609Y148473D01*
X47027Y148891D01*
X47495Y149250D01*
X48005Y149545D01*
X48550Y149770D01*
X49120Y149923D01*
X49705Y150000D01*
X50295Y150000D01*
X50880Y149923D01*
X51450Y149770D01*
X51995Y149545D01*
X52505Y149250D01*
X52973Y148891D01*
X53391Y148473D01*
X53750Y148005D01*
X54045Y147495D01*
X54270Y146950D01*
X54423Y146380D01*
X54500Y145795D01*
X54500Y145205D01*
M02*
