G04 EAGLE Gerber RS-274X export*
G75*
%MOMM*%
%FSLAX34Y34*%
%LPD*%
%INSilkscreen Top*%
%IPPOS*%
%AMOC8*
5,1,8,0,0,1.08239X$1,22.5*%
G01*
%ADD10C,0.127000*%
%ADD11C,0.076200*%
%ADD12C,0.050800*%
%ADD13C,0.203200*%
%ADD14R,0.381000X0.762000*%
%ADD15R,0.762000X0.381000*%
%ADD16C,0.254000*%
%ADD17C,0.101600*%
%ADD18C,0.254000*%
%ADD19C,0.152400*%
%ADD20C,0.177800*%
%ADD21R,0.127000X0.508000*%
%ADD22C,0.718400*%
%ADD23C,0.400000*%
%ADD24C,0.025400*%
%ADD25C,0.200000*%
%ADD26C,0.508000*%

G36*
X691357Y727184D02*
X691357Y727184D01*
X691359Y727183D01*
X691402Y727203D01*
X691446Y727221D01*
X691446Y727223D01*
X691448Y727224D01*
X691481Y727309D01*
X691481Y729849D01*
X691480Y729851D01*
X691481Y729853D01*
X691461Y729896D01*
X691443Y729940D01*
X691441Y729940D01*
X691440Y729942D01*
X691355Y729975D01*
X687545Y729975D01*
X687543Y729974D01*
X687541Y729975D01*
X687498Y729955D01*
X687454Y729937D01*
X687454Y729935D01*
X687452Y729934D01*
X687419Y729849D01*
X687419Y727309D01*
X687420Y727307D01*
X687419Y727305D01*
X687439Y727262D01*
X687457Y727218D01*
X687459Y727218D01*
X687460Y727216D01*
X687545Y727183D01*
X691355Y727183D01*
X691357Y727184D01*
G37*
G36*
X754946Y606063D02*
X754946Y606063D01*
X754946Y606065D01*
X754948Y606066D01*
X754981Y606151D01*
X754981Y608691D01*
X754980Y608693D01*
X754981Y608695D01*
X754961Y608738D01*
X754943Y608782D01*
X754941Y608782D01*
X754940Y608784D01*
X754855Y608817D01*
X751045Y608817D01*
X751043Y608816D01*
X751041Y608817D01*
X750998Y608797D01*
X750954Y608779D01*
X750954Y608777D01*
X750952Y608776D01*
X750919Y608691D01*
X750919Y606151D01*
X750920Y606149D01*
X750919Y606147D01*
X750939Y606104D01*
X750957Y606060D01*
X750959Y606060D01*
X750960Y606058D01*
X751045Y606025D01*
X754855Y606025D01*
X754857Y606026D01*
X754859Y606025D01*
X754902Y606045D01*
X754946Y606063D01*
G37*
G36*
X458142Y298970D02*
X458142Y298970D01*
X458144Y298969D01*
X458187Y298989D01*
X458231Y299007D01*
X458231Y299009D01*
X458233Y299010D01*
X458266Y299095D01*
X458266Y302905D01*
X458265Y302907D01*
X458266Y302909D01*
X458246Y302952D01*
X458228Y302996D01*
X458226Y302996D01*
X458225Y302998D01*
X458140Y303031D01*
X455600Y303031D01*
X455598Y303030D01*
X455596Y303031D01*
X455553Y303011D01*
X455509Y302993D01*
X455509Y302991D01*
X455507Y302990D01*
X455474Y302905D01*
X455474Y299095D01*
X455475Y299093D01*
X455474Y299091D01*
X455494Y299048D01*
X455512Y299004D01*
X455514Y299004D01*
X455515Y299002D01*
X455600Y298969D01*
X458140Y298969D01*
X458142Y298970D01*
G37*
G36*
X799351Y282420D02*
X799351Y282420D01*
X799353Y282419D01*
X799396Y282439D01*
X799440Y282457D01*
X799440Y282459D01*
X799442Y282460D01*
X799475Y282545D01*
X799475Y286355D01*
X799474Y286357D01*
X799475Y286359D01*
X799455Y286402D01*
X799437Y286446D01*
X799435Y286446D01*
X799434Y286448D01*
X799349Y286481D01*
X796809Y286481D01*
X796807Y286480D01*
X796805Y286481D01*
X796762Y286461D01*
X796718Y286443D01*
X796718Y286441D01*
X796716Y286440D01*
X796683Y286355D01*
X796683Y282545D01*
X796684Y282543D01*
X796683Y282541D01*
X796703Y282498D01*
X796721Y282454D01*
X796723Y282454D01*
X796724Y282452D01*
X796809Y282419D01*
X799349Y282419D01*
X799351Y282420D01*
G37*
G36*
X459158Y236470D02*
X459158Y236470D01*
X459160Y236469D01*
X459203Y236489D01*
X459247Y236507D01*
X459247Y236509D01*
X459249Y236510D01*
X459282Y236595D01*
X459282Y240405D01*
X459281Y240407D01*
X459282Y240409D01*
X459262Y240452D01*
X459244Y240496D01*
X459242Y240496D01*
X459241Y240498D01*
X459156Y240531D01*
X456616Y240531D01*
X456614Y240530D01*
X456612Y240531D01*
X456569Y240511D01*
X456525Y240493D01*
X456525Y240491D01*
X456523Y240490D01*
X456490Y240405D01*
X456490Y236595D01*
X456491Y236593D01*
X456490Y236591D01*
X456510Y236548D01*
X456528Y236504D01*
X456530Y236504D01*
X456531Y236502D01*
X456616Y236469D01*
X459156Y236469D01*
X459158Y236470D01*
G37*
G36*
X678193Y218920D02*
X678193Y218920D01*
X678195Y218919D01*
X678238Y218939D01*
X678282Y218957D01*
X678282Y218959D01*
X678284Y218960D01*
X678317Y219045D01*
X678317Y222855D01*
X678316Y222857D01*
X678317Y222859D01*
X678297Y222902D01*
X678279Y222946D01*
X678277Y222946D01*
X678276Y222948D01*
X678191Y222981D01*
X675651Y222981D01*
X675649Y222980D01*
X675647Y222981D01*
X675604Y222961D01*
X675560Y222943D01*
X675560Y222941D01*
X675558Y222940D01*
X675525Y222855D01*
X675525Y219045D01*
X675526Y219043D01*
X675525Y219041D01*
X675545Y218998D01*
X675563Y218954D01*
X675565Y218954D01*
X675566Y218952D01*
X675651Y218919D01*
X678191Y218919D01*
X678193Y218920D01*
G37*
D10*
X366635Y364635D02*
X366635Y378377D01*
X373506Y378377D01*
X375796Y376086D01*
X375796Y373796D01*
X373506Y371506D01*
X375796Y369216D01*
X375796Y366925D01*
X373506Y364635D01*
X366635Y364635D01*
X366635Y371506D02*
X373506Y371506D01*
X382737Y364635D02*
X387318Y364635D01*
X389608Y366925D01*
X389608Y371506D01*
X387318Y373796D01*
X382737Y373796D01*
X380447Y371506D01*
X380447Y366925D01*
X382737Y364635D01*
X396549Y373796D02*
X401129Y373796D01*
X403420Y371506D01*
X403420Y364635D01*
X396549Y364635D01*
X394259Y366925D01*
X396549Y369216D01*
X403420Y369216D01*
X408070Y373796D02*
X408070Y364635D01*
X408070Y369216D02*
X412651Y373796D01*
X414941Y373796D01*
X428741Y378377D02*
X428741Y364635D01*
X421870Y364635D01*
X419580Y366925D01*
X419580Y371506D01*
X421870Y373796D01*
X428741Y373796D01*
X447204Y373796D02*
X447204Y364635D01*
X447204Y369216D02*
X451784Y373796D01*
X454075Y373796D01*
X461004Y364635D02*
X465584Y364635D01*
X461004Y364635D02*
X458714Y366925D01*
X458714Y371506D01*
X461004Y373796D01*
X465584Y373796D01*
X467875Y371506D01*
X467875Y369216D01*
X458714Y369216D01*
X472525Y373796D02*
X477106Y364635D01*
X481686Y373796D01*
X500149Y376086D02*
X500149Y366925D01*
X500149Y376086D02*
X502439Y378377D01*
X507020Y378377D01*
X509310Y376086D01*
X509310Y366925D01*
X507020Y364635D01*
X502439Y364635D01*
X500149Y366925D01*
X509310Y376086D01*
X513961Y376086D02*
X516251Y378377D01*
X520832Y378377D01*
X523122Y376086D01*
X523122Y373796D01*
X520832Y371506D01*
X518541Y371506D01*
X520832Y371506D02*
X523122Y369216D01*
X523122Y366925D01*
X520832Y364635D01*
X516251Y364635D01*
X513961Y366925D01*
X527772Y364635D02*
X527772Y378377D01*
X527772Y364635D02*
X534643Y364635D01*
X536934Y366925D01*
X536934Y371506D01*
X534643Y373796D01*
X527772Y373796D01*
X366135Y408635D02*
X366135Y422377D01*
X370716Y417796D01*
X375296Y422377D01*
X375296Y408635D01*
X379947Y417796D02*
X382237Y417796D01*
X382237Y408635D01*
X379947Y408635D02*
X384527Y408635D01*
X382237Y422377D02*
X382237Y424667D01*
X389155Y422377D02*
X389155Y408635D01*
X389155Y413216D02*
X396025Y408635D01*
X389155Y413216D02*
X396025Y417796D01*
X402955Y408635D02*
X407535Y408635D01*
X402955Y408635D02*
X400664Y410925D01*
X400664Y415506D01*
X402955Y417796D01*
X407535Y417796D01*
X409826Y415506D01*
X409826Y413216D01*
X400664Y413216D01*
X435159Y422377D02*
X437449Y420086D01*
X435159Y422377D02*
X430578Y422377D01*
X428288Y420086D01*
X428288Y410925D01*
X430578Y408635D01*
X435159Y408635D01*
X437449Y410925D01*
X437449Y415506D01*
X432869Y415506D01*
X444390Y408635D02*
X448971Y408635D01*
X451261Y410925D01*
X451261Y415506D01*
X448971Y417796D01*
X444390Y417796D01*
X442100Y415506D01*
X442100Y410925D01*
X444390Y408635D01*
X455912Y408635D02*
X455912Y417796D01*
X455912Y413216D02*
X460492Y417796D01*
X462782Y417796D01*
X469712Y408635D02*
X474292Y408635D01*
X469712Y408635D02*
X467421Y410925D01*
X467421Y415506D01*
X469712Y417796D01*
X474292Y417796D01*
X476583Y415506D01*
X476583Y413216D01*
X467421Y413216D01*
X368425Y387135D02*
X366135Y389425D01*
X368425Y387135D02*
X370716Y387135D01*
X373006Y389425D01*
X373006Y400877D01*
X370716Y400877D02*
X375296Y400877D01*
X382237Y396296D02*
X386818Y396296D01*
X389108Y394006D01*
X389108Y387135D01*
X382237Y387135D01*
X379947Y389425D01*
X382237Y391716D01*
X389108Y391716D01*
X393759Y389425D02*
X393759Y396296D01*
X393759Y389425D02*
X396049Y387135D01*
X402920Y387135D01*
X402920Y384845D02*
X402920Y396296D01*
X402920Y384845D02*
X400629Y382554D01*
X398339Y382554D01*
X421382Y387135D02*
X421382Y400877D01*
X421382Y394006D02*
X430543Y394006D01*
X430543Y400877D02*
X430543Y387135D01*
X437484Y396296D02*
X442065Y396296D01*
X444355Y394006D01*
X444355Y387135D01*
X437484Y387135D01*
X435194Y389425D01*
X437484Y391716D01*
X444355Y391716D01*
X449006Y396296D02*
X449006Y387135D01*
X449006Y396296D02*
X451296Y396296D01*
X453586Y394006D01*
X453586Y387135D01*
X453586Y394006D02*
X455877Y396296D01*
X458167Y394006D01*
X458167Y387135D01*
X462817Y400877D02*
X465108Y400877D01*
X465108Y387135D01*
X467398Y387135D02*
X462817Y387135D01*
X472025Y396296D02*
X474316Y396296D01*
X474316Y387135D01*
X476606Y387135D02*
X472025Y387135D01*
X474316Y400877D02*
X474316Y403167D01*
X481233Y396296D02*
X481233Y387135D01*
X481233Y396296D02*
X488104Y396296D01*
X490394Y394006D01*
X490394Y387135D01*
X13122Y374665D02*
X13122Y364327D01*
X20875Y364327D01*
X18291Y369496D01*
X18291Y372080D01*
X20875Y374665D01*
X26044Y374665D01*
X28629Y372080D01*
X28629Y366911D01*
X26044Y364327D01*
X23460Y379763D02*
X13122Y379763D01*
X23460Y379763D02*
X28629Y384932D01*
X23460Y390101D01*
X13122Y390101D01*
X15706Y395199D02*
X26044Y395199D01*
X15706Y395199D02*
X13122Y397783D01*
X13122Y402953D01*
X15706Y405537D01*
X26044Y405537D01*
X28629Y402953D01*
X28629Y397783D01*
X26044Y395199D01*
X15706Y405537D01*
X13122Y279411D02*
X15706Y276827D01*
X13122Y279411D02*
X13122Y284580D01*
X15706Y287165D01*
X18291Y287165D01*
X20875Y284580D01*
X20875Y281996D01*
X20875Y284580D02*
X23460Y287165D01*
X26044Y287165D01*
X28629Y284580D01*
X28629Y279411D01*
X26044Y276827D01*
X23460Y292263D02*
X13122Y292263D01*
X23460Y292263D02*
X28629Y297432D01*
X23460Y302601D01*
X13122Y302601D01*
X15706Y307699D02*
X13122Y310283D01*
X13122Y315453D01*
X15706Y318037D01*
X18291Y318037D01*
X20875Y315453D01*
X20875Y312868D01*
X20875Y315453D02*
X23460Y318037D01*
X26044Y318037D01*
X28629Y315453D01*
X28629Y310283D01*
X26044Y307699D01*
X213135Y538304D02*
X213135Y548642D01*
X213135Y538304D02*
X218304Y533135D01*
X223473Y538304D01*
X223473Y548642D01*
X228571Y533135D02*
X233740Y533135D01*
X231156Y533135D02*
X231156Y548642D01*
X233740Y548642D02*
X228571Y548642D01*
X238862Y548642D02*
X238862Y533135D01*
X249200Y533135D02*
X238862Y548642D01*
X249200Y548642D02*
X249200Y533135D01*
X110973Y718558D02*
X108389Y721142D01*
X103220Y721142D01*
X100635Y718558D01*
X100635Y708220D01*
X103220Y705635D01*
X108389Y705635D01*
X110973Y708220D01*
X110973Y713389D01*
X105804Y713389D01*
X116071Y721142D02*
X116071Y705635D01*
X126409Y705635D02*
X116071Y721142D01*
X126409Y721142D02*
X126409Y705635D01*
X131507Y705635D02*
X131507Y721142D01*
X131507Y705635D02*
X139261Y705635D01*
X141845Y708220D01*
X141845Y718558D01*
X139261Y721142D01*
X131507Y721142D01*
X425635Y675635D02*
X430804Y675635D01*
X428220Y675635D02*
X428220Y691142D01*
X430804Y691142D02*
X425635Y691142D01*
X443679Y691142D02*
X446264Y688558D01*
X443679Y691142D02*
X438510Y691142D01*
X435926Y688558D01*
X435926Y685973D01*
X438510Y683389D01*
X443679Y683389D01*
X446264Y680804D01*
X446264Y678220D01*
X443679Y675635D01*
X438510Y675635D01*
X435926Y678220D01*
X451362Y675635D02*
X451362Y691142D01*
X459115Y691142D01*
X461700Y688558D01*
X461700Y683389D01*
X459115Y680804D01*
X451362Y680804D01*
X425635Y730973D02*
X430804Y736142D01*
X430804Y720635D01*
X425635Y720635D02*
X435973Y720635D01*
X253304Y31142D02*
X253304Y15635D01*
X248135Y31142D02*
X258473Y31142D01*
X263571Y31142D02*
X273909Y15635D01*
X263571Y15635D02*
X273909Y31142D01*
X205635Y31142D02*
X205635Y15635D01*
X205635Y31142D02*
X213389Y31142D01*
X215973Y28558D01*
X215973Y23389D01*
X213389Y20804D01*
X205635Y20804D01*
X210804Y20804D02*
X215973Y15635D01*
X231409Y15635D02*
X221071Y31142D01*
X231409Y31142D02*
X221071Y15635D01*
X366635Y433135D02*
X366635Y446877D01*
X366635Y440006D02*
X375796Y440006D01*
X375796Y446877D02*
X375796Y433135D01*
X380447Y433135D02*
X380447Y446877D01*
X387318Y446877D01*
X389608Y444586D01*
X389608Y440006D01*
X387318Y437716D01*
X380447Y437716D01*
X394259Y444586D02*
X396549Y446877D01*
X401129Y446877D01*
X403420Y444586D01*
X403420Y442296D01*
X401129Y440006D01*
X403420Y437716D01*
X403420Y435425D01*
X401129Y433135D01*
X396549Y433135D01*
X394259Y435425D01*
X394259Y437716D01*
X396549Y440006D01*
X394259Y442296D01*
X394259Y444586D01*
X396549Y440006D02*
X401129Y440006D01*
X408070Y446877D02*
X417232Y446877D01*
X408070Y446877D02*
X408070Y440006D01*
X412651Y442296D01*
X414941Y442296D01*
X417232Y440006D01*
X417232Y435425D01*
X414941Y433135D01*
X410361Y433135D01*
X408070Y435425D01*
X421882Y433135D02*
X421882Y446877D01*
X421882Y433135D02*
X428753Y433135D01*
X431043Y435425D01*
X431043Y444586D01*
X428753Y446877D01*
X421882Y446877D01*
X435694Y442296D02*
X437984Y442296D01*
X437984Y433135D01*
X435694Y433135D02*
X440274Y433135D01*
X437984Y446877D02*
X437984Y449167D01*
X444902Y433135D02*
X451773Y433135D01*
X454063Y435425D01*
X451773Y437716D01*
X447192Y437716D01*
X444902Y440006D01*
X447192Y442296D01*
X454063Y442296D01*
X458714Y446877D02*
X458714Y433135D01*
X458714Y437716D02*
X465584Y433135D01*
X458714Y437716D02*
X465584Y442296D01*
D11*
X681881Y22719D02*
X681881Y16449D01*
X681881Y22719D02*
X683449Y24287D01*
X686584Y24287D01*
X688152Y22719D01*
X688152Y16449D01*
X686584Y14881D01*
X683449Y14881D01*
X681881Y16449D01*
X685016Y18016D02*
X688152Y14881D01*
X691236Y16449D02*
X691236Y24287D01*
X691236Y16449D02*
X692804Y14881D01*
X695939Y14881D01*
X697507Y16449D01*
X697507Y24287D01*
X700591Y14881D02*
X703727Y14881D01*
X702159Y14881D02*
X702159Y24287D01*
X700591Y24287D02*
X703727Y24287D01*
X706828Y14881D02*
X709964Y14881D01*
X708396Y14881D02*
X708396Y24287D01*
X706828Y24287D02*
X709964Y24287D01*
X717768Y24287D02*
X719336Y22719D01*
X717768Y24287D02*
X714633Y24287D01*
X713065Y22719D01*
X713065Y16449D01*
X714633Y14881D01*
X717768Y14881D01*
X719336Y16449D01*
X655838Y426381D02*
X655838Y433753D01*
X653381Y433753D02*
X658296Y433753D01*
X660865Y433753D02*
X665780Y433753D01*
X660865Y433753D02*
X660865Y426381D01*
X665780Y426381D01*
X663323Y430067D02*
X660865Y430067D01*
X652881Y439381D02*
X652881Y446753D01*
X656567Y446753D01*
X657796Y445525D01*
X657796Y443067D01*
X656567Y441838D01*
X652881Y441838D01*
X660365Y446753D02*
X665280Y446753D01*
X660365Y446753D02*
X660365Y439381D01*
X665280Y439381D01*
X662823Y443067D02*
X660365Y443067D01*
X652881Y452881D02*
X652881Y460253D01*
X652881Y452881D02*
X656567Y452881D01*
X657796Y454110D01*
X657796Y459025D01*
X656567Y460253D01*
X652881Y460253D01*
X664051Y460253D02*
X665280Y459025D01*
X664051Y460253D02*
X661594Y460253D01*
X660365Y459025D01*
X660365Y454110D01*
X661594Y452881D01*
X664051Y452881D01*
X665280Y454110D01*
X657796Y471525D02*
X656567Y472753D01*
X654110Y472753D01*
X652881Y471525D01*
X652881Y470296D01*
X654110Y469067D01*
X656567Y469067D01*
X657796Y467838D01*
X657796Y466610D01*
X656567Y465381D01*
X654110Y465381D01*
X652881Y466610D01*
X664051Y472753D02*
X665280Y471525D01*
X664051Y472753D02*
X661594Y472753D01*
X660365Y471525D01*
X660365Y466610D01*
X661594Y465381D01*
X664051Y465381D01*
X665280Y466610D01*
X834381Y43525D02*
X834381Y38610D01*
X834381Y43525D02*
X835610Y44753D01*
X838067Y44753D01*
X839296Y43525D01*
X839296Y38610D01*
X838067Y37381D01*
X835610Y37381D01*
X834381Y38610D01*
X839296Y43525D01*
X841865Y43525D02*
X843094Y44753D01*
X845551Y44753D01*
X846780Y43525D01*
X846780Y42296D01*
X845551Y41067D01*
X844323Y41067D01*
X845551Y41067D02*
X846780Y39838D01*
X846780Y38610D01*
X845551Y37381D01*
X843094Y37381D01*
X841865Y38610D01*
X849349Y37381D02*
X854264Y44753D01*
X856833Y42296D02*
X859291Y44753D01*
X859291Y37381D01*
X861748Y37381D02*
X856833Y37381D01*
X864318Y44753D02*
X869232Y44753D01*
X864318Y44753D02*
X864318Y41067D01*
X866775Y42296D01*
X868004Y42296D01*
X869232Y41067D01*
X869232Y38610D01*
X868004Y37381D01*
X865546Y37381D01*
X864318Y38610D01*
X871802Y37381D02*
X876717Y44753D01*
X879286Y37381D02*
X884201Y37381D01*
X879286Y37381D02*
X884201Y42296D01*
X884201Y43525D01*
X882972Y44753D01*
X880515Y44753D01*
X879286Y43525D01*
X886770Y43525D02*
X886770Y38610D01*
X886770Y43525D02*
X887999Y44753D01*
X890456Y44753D01*
X891685Y43525D01*
X891685Y38610D01*
X890456Y37381D01*
X887999Y37381D01*
X886770Y38610D01*
X891685Y43525D01*
X894254Y37381D02*
X899169Y37381D01*
X894254Y37381D02*
X899169Y42296D01*
X899169Y43525D01*
X897940Y44753D01*
X895483Y44753D01*
X894254Y43525D01*
X901738Y43525D02*
X901738Y38610D01*
X901738Y43525D02*
X902967Y44753D01*
X905425Y44753D01*
X906653Y43525D01*
X906653Y38610D01*
X905425Y37381D01*
X902967Y37381D01*
X901738Y38610D01*
X906653Y43525D01*
X531152Y24719D02*
X529584Y26287D01*
X526449Y26287D01*
X524881Y24719D01*
X524881Y18449D01*
X526449Y16881D01*
X529584Y16881D01*
X531152Y18449D01*
X534236Y16881D02*
X534236Y26287D01*
X538939Y26287D01*
X540507Y24719D01*
X540507Y21584D01*
X538939Y20016D01*
X534236Y20016D01*
X537372Y20016D02*
X540507Y16881D01*
X543591Y23152D02*
X546727Y26287D01*
X546727Y16881D01*
X549862Y16881D02*
X543591Y16881D01*
X552947Y16881D02*
X559217Y16881D01*
X552947Y16881D02*
X559217Y23152D01*
X559217Y24719D01*
X557650Y26287D01*
X554514Y26287D01*
X552947Y24719D01*
X562302Y16881D02*
X568572Y16881D01*
X562302Y16881D02*
X568572Y23152D01*
X568572Y24719D01*
X567005Y26287D01*
X563869Y26287D01*
X562302Y24719D01*
X571657Y26287D02*
X577928Y26287D01*
X571657Y26287D02*
X571657Y21584D01*
X574792Y23152D01*
X576360Y23152D01*
X577928Y21584D01*
X577928Y18449D01*
X576360Y16881D01*
X573225Y16881D01*
X571657Y18449D01*
X363881Y42449D02*
X363881Y47152D01*
X363881Y42449D02*
X365449Y40881D01*
X370152Y40881D01*
X370152Y47152D01*
X377939Y50287D02*
X379507Y48719D01*
X377939Y50287D02*
X374804Y50287D01*
X373236Y48719D01*
X373236Y47152D01*
X374804Y45584D01*
X377939Y45584D01*
X379507Y44016D01*
X379507Y42449D01*
X377939Y40881D01*
X374804Y40881D01*
X373236Y42449D01*
X382591Y40881D02*
X382591Y50287D01*
X382591Y40881D02*
X387294Y40881D01*
X388862Y42449D01*
X388862Y48719D01*
X387294Y50287D01*
X382591Y50287D01*
D12*
X640469Y561455D02*
X639537Y562387D01*
X637673Y562387D01*
X636741Y561455D01*
X636741Y557726D01*
X637673Y556794D01*
X639537Y556794D01*
X640469Y557726D01*
X642354Y560523D02*
X644218Y562387D01*
X644218Y556794D01*
X642354Y556794D02*
X646083Y556794D01*
X737841Y106287D02*
X737841Y100694D01*
X737841Y106287D02*
X740637Y106287D01*
X741569Y105355D01*
X741569Y103490D01*
X740637Y102558D01*
X737841Y102558D01*
X739705Y102558D02*
X741569Y100694D01*
X743454Y100694D02*
X747183Y100694D01*
X743454Y100694D02*
X747183Y104423D01*
X747183Y105355D01*
X746250Y106287D01*
X744386Y106287D01*
X743454Y105355D01*
X311964Y718824D02*
X311964Y724417D01*
X314760Y724417D01*
X315693Y723485D01*
X315693Y721620D01*
X314760Y720688D01*
X311964Y720688D01*
X313828Y720688D02*
X315693Y718824D01*
X317577Y723485D02*
X318509Y724417D01*
X320373Y724417D01*
X321306Y723485D01*
X321306Y722553D01*
X320373Y721620D01*
X319441Y721620D01*
X320373Y721620D02*
X321306Y720688D01*
X321306Y719756D01*
X320373Y718824D01*
X318509Y718824D01*
X317577Y719756D01*
X543037Y650167D02*
X543969Y649235D01*
X543037Y650167D02*
X541173Y650167D01*
X540241Y649235D01*
X540241Y645506D01*
X541173Y644574D01*
X543037Y644574D01*
X543969Y645506D01*
X545854Y644574D02*
X549583Y644574D01*
X545854Y644574D02*
X549583Y648303D01*
X549583Y649235D01*
X548650Y650167D01*
X546786Y650167D01*
X545854Y649235D01*
D13*
X755545Y48263D02*
X769195Y48263D01*
X767133Y53213D02*
X762370Y48450D01*
X757608Y53213D01*
D12*
X759258Y9228D02*
X764851Y9228D01*
X764851Y12956D01*
X759258Y14841D02*
X759258Y18569D01*
X759258Y14841D02*
X764851Y14841D01*
X764851Y18569D01*
X762055Y16705D02*
X762055Y14841D01*
X764851Y20454D02*
X759258Y20454D01*
X764851Y20454D02*
X764851Y23250D01*
X763919Y24182D01*
X760190Y24182D01*
X759258Y23250D01*
X759258Y20454D01*
X761123Y26067D02*
X759258Y27931D01*
X764851Y27931D01*
X764851Y26067D02*
X764851Y29796D01*
D13*
X215200Y661300D02*
X190100Y661300D01*
X177400Y671300D02*
X177400Y702100D01*
X190400Y712100D02*
X215200Y712100D01*
X228200Y702100D02*
X228200Y671300D01*
X190100Y686700D02*
X190104Y687012D01*
X190115Y687323D01*
X190134Y687634D01*
X190161Y687945D01*
X190196Y688255D01*
X190237Y688563D01*
X190287Y688871D01*
X190344Y689178D01*
X190409Y689483D01*
X190481Y689786D01*
X190560Y690087D01*
X190647Y690387D01*
X190741Y690684D01*
X190842Y690979D01*
X190951Y691271D01*
X191067Y691560D01*
X191190Y691847D01*
X191319Y692130D01*
X191456Y692410D01*
X191600Y692687D01*
X191750Y692960D01*
X191907Y693229D01*
X192070Y693494D01*
X192240Y693756D01*
X192417Y694013D01*
X192599Y694265D01*
X192788Y694513D01*
X192983Y694757D01*
X193183Y694995D01*
X193390Y695229D01*
X193602Y695457D01*
X193820Y695680D01*
X194043Y695898D01*
X194271Y696110D01*
X194505Y696317D01*
X194743Y696517D01*
X194987Y696712D01*
X195235Y696901D01*
X195487Y697083D01*
X195744Y697260D01*
X196006Y697430D01*
X196271Y697593D01*
X196540Y697750D01*
X196813Y697900D01*
X197090Y698044D01*
X197370Y698181D01*
X197653Y698310D01*
X197940Y698433D01*
X198229Y698549D01*
X198521Y698658D01*
X198816Y698759D01*
X199113Y698853D01*
X199413Y698940D01*
X199714Y699019D01*
X200017Y699091D01*
X200322Y699156D01*
X200629Y699213D01*
X200937Y699263D01*
X201245Y699304D01*
X201555Y699339D01*
X201866Y699366D01*
X202177Y699385D01*
X202488Y699396D01*
X202800Y699400D01*
X203112Y699396D01*
X203423Y699385D01*
X203734Y699366D01*
X204045Y699339D01*
X204355Y699304D01*
X204663Y699263D01*
X204971Y699213D01*
X205278Y699156D01*
X205583Y699091D01*
X205886Y699019D01*
X206187Y698940D01*
X206487Y698853D01*
X206784Y698759D01*
X207079Y698658D01*
X207371Y698549D01*
X207660Y698433D01*
X207947Y698310D01*
X208230Y698181D01*
X208510Y698044D01*
X208787Y697900D01*
X209060Y697750D01*
X209329Y697593D01*
X209594Y697430D01*
X209856Y697260D01*
X210113Y697083D01*
X210365Y696901D01*
X210613Y696712D01*
X210857Y696517D01*
X211095Y696317D01*
X211329Y696110D01*
X211557Y695898D01*
X211780Y695680D01*
X211998Y695457D01*
X212210Y695229D01*
X212417Y694995D01*
X212617Y694757D01*
X212812Y694513D01*
X213001Y694265D01*
X213183Y694013D01*
X213360Y693756D01*
X213530Y693494D01*
X213693Y693229D01*
X213850Y692960D01*
X214000Y692687D01*
X214144Y692410D01*
X214281Y692130D01*
X214410Y691847D01*
X214533Y691560D01*
X214649Y691271D01*
X214758Y690979D01*
X214859Y690684D01*
X214953Y690387D01*
X215040Y690087D01*
X215119Y689786D01*
X215191Y689483D01*
X215256Y689178D01*
X215313Y688871D01*
X215363Y688563D01*
X215404Y688255D01*
X215439Y687945D01*
X215466Y687634D01*
X215485Y687323D01*
X215496Y687012D01*
X215500Y686700D01*
X215496Y686388D01*
X215485Y686077D01*
X215466Y685766D01*
X215439Y685455D01*
X215404Y685145D01*
X215363Y684837D01*
X215313Y684529D01*
X215256Y684222D01*
X215191Y683917D01*
X215119Y683614D01*
X215040Y683313D01*
X214953Y683013D01*
X214859Y682716D01*
X214758Y682421D01*
X214649Y682129D01*
X214533Y681840D01*
X214410Y681553D01*
X214281Y681270D01*
X214144Y680990D01*
X214000Y680713D01*
X213850Y680440D01*
X213693Y680171D01*
X213530Y679906D01*
X213360Y679644D01*
X213183Y679387D01*
X213001Y679135D01*
X212812Y678887D01*
X212617Y678643D01*
X212417Y678405D01*
X212210Y678171D01*
X211998Y677943D01*
X211780Y677720D01*
X211557Y677502D01*
X211329Y677290D01*
X211095Y677083D01*
X210857Y676883D01*
X210613Y676688D01*
X210365Y676499D01*
X210113Y676317D01*
X209856Y676140D01*
X209594Y675970D01*
X209329Y675807D01*
X209060Y675650D01*
X208787Y675500D01*
X208510Y675356D01*
X208230Y675219D01*
X207947Y675090D01*
X207660Y674967D01*
X207371Y674851D01*
X207079Y674742D01*
X206784Y674641D01*
X206487Y674547D01*
X206187Y674460D01*
X205886Y674381D01*
X205583Y674309D01*
X205278Y674244D01*
X204971Y674187D01*
X204663Y674137D01*
X204355Y674096D01*
X204045Y674061D01*
X203734Y674034D01*
X203423Y674015D01*
X203112Y674004D01*
X202800Y674000D01*
X202488Y674004D01*
X202177Y674015D01*
X201866Y674034D01*
X201555Y674061D01*
X201245Y674096D01*
X200937Y674137D01*
X200629Y674187D01*
X200322Y674244D01*
X200017Y674309D01*
X199714Y674381D01*
X199413Y674460D01*
X199113Y674547D01*
X198816Y674641D01*
X198521Y674742D01*
X198229Y674851D01*
X197940Y674967D01*
X197653Y675090D01*
X197370Y675219D01*
X197090Y675356D01*
X196813Y675500D01*
X196540Y675650D01*
X196271Y675807D01*
X196006Y675970D01*
X195744Y676140D01*
X195487Y676317D01*
X195235Y676499D01*
X194987Y676688D01*
X194743Y676883D01*
X194505Y677083D01*
X194271Y677290D01*
X194043Y677502D01*
X193820Y677720D01*
X193602Y677943D01*
X193390Y678171D01*
X193183Y678405D01*
X192983Y678643D01*
X192788Y678887D01*
X192599Y679135D01*
X192417Y679387D01*
X192240Y679644D01*
X192070Y679906D01*
X191907Y680171D01*
X191750Y680440D01*
X191600Y680713D01*
X191456Y680990D01*
X191319Y681270D01*
X191190Y681553D01*
X191067Y681840D01*
X190951Y682129D01*
X190842Y682421D01*
X190741Y682716D01*
X190647Y683013D01*
X190560Y683313D01*
X190481Y683614D01*
X190409Y683917D01*
X190344Y684222D01*
X190287Y684529D01*
X190237Y684837D01*
X190196Y685145D01*
X190161Y685455D01*
X190134Y685766D01*
X190115Y686077D01*
X190104Y686388D01*
X190100Y686700D01*
D12*
X159946Y698839D02*
X159014Y699771D01*
X157150Y699771D01*
X156218Y698839D01*
X156218Y697907D01*
X157150Y696974D01*
X159014Y696974D01*
X159946Y696042D01*
X159946Y695110D01*
X159014Y694178D01*
X157150Y694178D01*
X156218Y695110D01*
X161831Y697907D02*
X163695Y699771D01*
X163695Y694178D01*
X161831Y694178D02*
X165559Y694178D01*
D14*
X507900Y215000D03*
D12*
X528264Y215874D02*
X528264Y221467D01*
X531060Y221467D01*
X531993Y220535D01*
X531993Y218670D01*
X531060Y217738D01*
X528264Y217738D01*
X530128Y217738D02*
X531993Y215874D01*
X533877Y219603D02*
X535741Y221467D01*
X535741Y215874D01*
X533877Y215874D02*
X537606Y215874D01*
X539490Y215874D02*
X543219Y215874D01*
X539490Y215874D02*
X543219Y219603D01*
X543219Y220535D01*
X542287Y221467D01*
X540422Y221467D01*
X539490Y220535D01*
D14*
X507900Y235500D03*
D12*
X528664Y236874D02*
X528664Y242467D01*
X531460Y242467D01*
X532393Y241535D01*
X532393Y239670D01*
X531460Y238738D01*
X528664Y238738D01*
X530528Y238738D02*
X532393Y236874D01*
X534277Y240603D02*
X536141Y242467D01*
X536141Y236874D01*
X534277Y236874D02*
X538006Y236874D01*
X541754Y241535D02*
X543619Y242467D01*
X541754Y241535D02*
X539890Y239670D01*
X539890Y237806D01*
X540822Y236874D01*
X542687Y236874D01*
X543619Y237806D01*
X543619Y238738D01*
X542687Y239670D01*
X539890Y239670D01*
D15*
X291600Y120400D03*
D12*
X268264Y128274D02*
X268264Y133867D01*
X271060Y133867D01*
X271993Y132935D01*
X271993Y131070D01*
X271060Y130138D01*
X268264Y130138D01*
X270128Y130138D02*
X271993Y128274D01*
X273877Y132003D02*
X275741Y133867D01*
X275741Y128274D01*
X273877Y128274D02*
X277606Y128274D01*
X279490Y133867D02*
X283219Y133867D01*
X283219Y132935D01*
X279490Y129206D01*
X279490Y128274D01*
D14*
X507900Y255900D03*
D12*
X529764Y256774D02*
X529764Y262367D01*
X532560Y262367D01*
X533493Y261435D01*
X533493Y259570D01*
X532560Y258638D01*
X529764Y258638D01*
X531628Y258638D02*
X533493Y256774D01*
X535377Y260503D02*
X537241Y262367D01*
X537241Y256774D01*
X535377Y256774D02*
X539106Y256774D01*
X540990Y261435D02*
X541922Y262367D01*
X543787Y262367D01*
X544719Y261435D01*
X544719Y260503D01*
X543787Y259570D01*
X544719Y258638D01*
X544719Y257706D01*
X543787Y256774D01*
X541922Y256774D01*
X540990Y257706D01*
X540990Y258638D01*
X541922Y259570D01*
X540990Y260503D01*
X540990Y261435D01*
X541922Y259570D02*
X543787Y259570D01*
X90163Y252735D02*
X89231Y253667D01*
X87366Y253667D01*
X86434Y252735D01*
X86434Y249006D01*
X87366Y248074D01*
X89231Y248074D01*
X90163Y249006D01*
X92047Y251803D02*
X93912Y253667D01*
X93912Y248074D01*
X95776Y248074D02*
X92047Y248074D01*
X97661Y251803D02*
X99525Y253667D01*
X99525Y248074D01*
X97661Y248074D02*
X101389Y248074D01*
X284241Y68567D02*
X284241Y62974D01*
X284241Y68567D02*
X287037Y68567D01*
X287969Y67635D01*
X287969Y65770D01*
X287037Y64838D01*
X284241Y64838D01*
X286105Y64838D02*
X287969Y62974D01*
X291718Y67635D02*
X293583Y68567D01*
X291718Y67635D02*
X289854Y65770D01*
X289854Y63906D01*
X290786Y62974D01*
X292650Y62974D01*
X293583Y63906D01*
X293583Y64838D01*
X292650Y65770D01*
X289854Y65770D01*
X455434Y488474D02*
X455434Y494067D01*
X458231Y494067D01*
X459163Y493135D01*
X459163Y491270D01*
X458231Y490338D01*
X455434Y490338D01*
X457299Y490338D02*
X459163Y488474D01*
X461047Y492203D02*
X462912Y494067D01*
X462912Y488474D01*
X464776Y488474D02*
X461047Y488474D01*
X466661Y489406D02*
X467593Y488474D01*
X469457Y488474D01*
X470389Y489406D01*
X470389Y493135D01*
X469457Y494067D01*
X467593Y494067D01*
X466661Y493135D01*
X466661Y492203D01*
X467593Y491270D01*
X470389Y491270D01*
X454734Y472367D02*
X454734Y466774D01*
X454734Y472367D02*
X457531Y472367D01*
X458463Y471435D01*
X458463Y469570D01*
X457531Y468638D01*
X454734Y468638D01*
X456599Y468638D02*
X458463Y466774D01*
X460347Y466774D02*
X464076Y466774D01*
X460347Y466774D02*
X464076Y470503D01*
X464076Y471435D01*
X463144Y472367D01*
X461280Y472367D01*
X460347Y471435D01*
X465961Y471435D02*
X465961Y467706D01*
X465961Y471435D02*
X466893Y472367D01*
X468757Y472367D01*
X469689Y471435D01*
X469689Y467706D01*
X468757Y466774D01*
X466893Y466774D01*
X465961Y467706D01*
X469689Y471435D01*
X189501Y95463D02*
X188569Y94531D01*
X188569Y92666D01*
X189501Y91734D01*
X193230Y91734D01*
X194162Y92666D01*
X194162Y94531D01*
X193230Y95463D01*
X190434Y97347D02*
X188569Y99212D01*
X194162Y99212D01*
X194162Y101076D02*
X194162Y97347D01*
X189501Y104825D02*
X188569Y106689D01*
X189501Y104825D02*
X191366Y102961D01*
X193230Y102961D01*
X194162Y103893D01*
X194162Y105757D01*
X193230Y106689D01*
X192298Y106689D01*
X191366Y105757D01*
X191366Y102961D01*
D13*
X153470Y226380D02*
X153470Y241620D01*
D12*
X172031Y256777D02*
X172963Y255845D01*
X172031Y256777D02*
X170166Y256777D01*
X169234Y255845D01*
X169234Y252116D01*
X170166Y251184D01*
X172031Y251184D01*
X172963Y252116D01*
X174847Y254913D02*
X176712Y256777D01*
X176712Y251184D01*
X178576Y251184D02*
X174847Y251184D01*
X180461Y256777D02*
X184189Y256777D01*
X184189Y255845D01*
X180461Y252116D01*
X180461Y251184D01*
X126934Y186967D02*
X126934Y181374D01*
X126934Y186967D02*
X129731Y186967D01*
X130663Y186035D01*
X130663Y184170D01*
X129731Y183238D01*
X126934Y183238D01*
X128799Y183238D02*
X130663Y181374D01*
X132547Y181374D02*
X136276Y181374D01*
X132547Y181374D02*
X136276Y185103D01*
X136276Y186035D01*
X135344Y186967D01*
X133480Y186967D01*
X132547Y186035D01*
X138161Y185103D02*
X140025Y186967D01*
X140025Y181374D01*
X138161Y181374D02*
X141889Y181374D01*
X126434Y177467D02*
X126434Y171874D01*
X126434Y177467D02*
X129231Y177467D01*
X130163Y176535D01*
X130163Y174670D01*
X129231Y173738D01*
X126434Y173738D01*
X128299Y173738D02*
X130163Y171874D01*
X132047Y171874D02*
X135776Y171874D01*
X132047Y171874D02*
X135776Y175603D01*
X135776Y176535D01*
X134844Y177467D01*
X132980Y177467D01*
X132047Y176535D01*
X137661Y171874D02*
X141389Y171874D01*
X137661Y171874D02*
X141389Y175603D01*
X141389Y176535D01*
X140457Y177467D01*
X138593Y177467D01*
X137661Y176535D01*
X167201Y95163D02*
X166269Y94231D01*
X166269Y92366D01*
X167201Y91434D01*
X170930Y91434D01*
X171862Y92366D01*
X171862Y94231D01*
X170930Y95163D01*
X171862Y97047D02*
X171862Y100776D01*
X168134Y100776D02*
X171862Y97047D01*
X168134Y100776D02*
X167201Y100776D01*
X166269Y99844D01*
X166269Y97980D01*
X167201Y97047D01*
X167201Y102661D02*
X170930Y102661D01*
X167201Y102661D02*
X166269Y103593D01*
X166269Y105457D01*
X167201Y106389D01*
X170930Y106389D01*
X171862Y105457D01*
X171862Y103593D01*
X170930Y102661D01*
X167201Y106389D01*
D13*
X214175Y64238D02*
X227825Y64238D01*
X221000Y64050D02*
X216238Y59288D01*
X221000Y64050D02*
X225763Y59288D01*
D12*
X211221Y46728D02*
X205628Y46728D01*
X211221Y46728D02*
X211221Y50456D01*
X205628Y52341D02*
X205628Y56069D01*
X205628Y52341D02*
X211221Y52341D01*
X211221Y56069D01*
X208425Y54205D02*
X208425Y52341D01*
X211221Y57954D02*
X205628Y57954D01*
X211221Y57954D02*
X211221Y60750D01*
X210289Y61682D01*
X206560Y61682D01*
X205628Y60750D01*
X205628Y57954D01*
X205628Y63567D02*
X205628Y67296D01*
X205628Y63567D02*
X208425Y63567D01*
X207493Y65431D01*
X207493Y66363D01*
X208425Y67296D01*
X210289Y67296D01*
X211221Y66363D01*
X211221Y64499D01*
X210289Y63567D01*
D13*
X244175Y64238D02*
X257825Y64238D01*
X251000Y64050D02*
X246238Y59288D01*
X251000Y64050D02*
X255763Y59288D01*
D12*
X241221Y46728D02*
X235628Y46728D01*
X241221Y46728D02*
X241221Y50456D01*
X235628Y52341D02*
X235628Y56069D01*
X235628Y52341D02*
X241221Y52341D01*
X241221Y56069D01*
X238425Y54205D02*
X238425Y52341D01*
X241221Y57954D02*
X235628Y57954D01*
X241221Y57954D02*
X241221Y60750D01*
X240289Y61682D01*
X236560Y61682D01*
X235628Y60750D01*
X235628Y57954D01*
X236560Y65431D02*
X235628Y67296D01*
X236560Y65431D02*
X238425Y63567D01*
X240289Y63567D01*
X241221Y64499D01*
X241221Y66363D01*
X240289Y67296D01*
X239357Y67296D01*
X238425Y66363D01*
X238425Y63567D01*
X125741Y263184D02*
X125741Y268777D01*
X129469Y268777D01*
X127605Y265980D02*
X125741Y265980D01*
X131354Y263184D02*
X135083Y263184D01*
X131354Y263184D02*
X135083Y266913D01*
X135083Y267845D01*
X134150Y268777D01*
X132286Y268777D01*
X131354Y267845D01*
D13*
X861924Y699506D02*
X861924Y708094D01*
X833476Y708094D02*
X833476Y699506D01*
X845016Y711904D02*
X850384Y711904D01*
D12*
X842841Y728740D02*
X842841Y733401D01*
X842841Y728740D02*
X843773Y727808D01*
X845637Y727808D01*
X846569Y728740D01*
X846569Y733401D01*
X850318Y732469D02*
X852182Y733401D01*
X850318Y732469D02*
X848454Y730604D01*
X848454Y728740D01*
X849386Y727808D01*
X851250Y727808D01*
X852182Y728740D01*
X852182Y729672D01*
X851250Y730604D01*
X848454Y730604D01*
D13*
X496700Y597600D02*
X492700Y593600D01*
X496700Y597600D02*
X584700Y597600D01*
X588700Y593600D01*
X588700Y505600D01*
X584700Y501600D01*
X496700Y501600D01*
X492700Y505600D01*
X492700Y593600D01*
D16*
X497873Y589600D02*
X497875Y589706D01*
X497881Y589811D01*
X497891Y589917D01*
X497905Y590021D01*
X497922Y590126D01*
X497944Y590229D01*
X497969Y590332D01*
X497999Y590433D01*
X498032Y590534D01*
X498068Y590633D01*
X498109Y590730D01*
X498153Y590827D01*
X498201Y590921D01*
X498252Y591014D01*
X498306Y591104D01*
X498364Y591193D01*
X498425Y591279D01*
X498490Y591363D01*
X498557Y591444D01*
X498628Y591523D01*
X498701Y591599D01*
X498777Y591672D01*
X498856Y591743D01*
X498937Y591810D01*
X499021Y591875D01*
X499107Y591936D01*
X499196Y591994D01*
X499287Y592048D01*
X499379Y592099D01*
X499473Y592147D01*
X499570Y592191D01*
X499667Y592232D01*
X499766Y592268D01*
X499867Y592301D01*
X499968Y592331D01*
X500071Y592356D01*
X500174Y592378D01*
X500279Y592395D01*
X500383Y592409D01*
X500489Y592419D01*
X500594Y592425D01*
X500700Y592427D01*
X500806Y592425D01*
X500911Y592419D01*
X501017Y592409D01*
X501121Y592395D01*
X501226Y592378D01*
X501329Y592356D01*
X501432Y592331D01*
X501533Y592301D01*
X501634Y592268D01*
X501733Y592232D01*
X501830Y592191D01*
X501927Y592147D01*
X502021Y592099D01*
X502114Y592048D01*
X502204Y591994D01*
X502293Y591936D01*
X502379Y591875D01*
X502463Y591810D01*
X502544Y591743D01*
X502623Y591672D01*
X502699Y591599D01*
X502772Y591523D01*
X502843Y591444D01*
X502910Y591363D01*
X502975Y591279D01*
X503036Y591193D01*
X503094Y591104D01*
X503148Y591013D01*
X503199Y590921D01*
X503247Y590827D01*
X503291Y590730D01*
X503332Y590633D01*
X503368Y590534D01*
X503401Y590433D01*
X503431Y590332D01*
X503456Y590229D01*
X503478Y590126D01*
X503495Y590021D01*
X503509Y589917D01*
X503519Y589811D01*
X503525Y589706D01*
X503527Y589600D01*
X503525Y589494D01*
X503519Y589389D01*
X503509Y589283D01*
X503495Y589179D01*
X503478Y589074D01*
X503456Y588971D01*
X503431Y588868D01*
X503401Y588767D01*
X503368Y588666D01*
X503332Y588567D01*
X503291Y588470D01*
X503247Y588373D01*
X503199Y588279D01*
X503148Y588186D01*
X503094Y588096D01*
X503036Y588007D01*
X502975Y587921D01*
X502910Y587837D01*
X502843Y587756D01*
X502772Y587677D01*
X502699Y587601D01*
X502623Y587528D01*
X502544Y587457D01*
X502463Y587390D01*
X502379Y587325D01*
X502293Y587264D01*
X502204Y587206D01*
X502113Y587152D01*
X502021Y587101D01*
X501927Y587053D01*
X501830Y587009D01*
X501733Y586968D01*
X501634Y586932D01*
X501533Y586899D01*
X501432Y586869D01*
X501329Y586844D01*
X501226Y586822D01*
X501121Y586805D01*
X501017Y586791D01*
X500911Y586781D01*
X500806Y586775D01*
X500700Y586773D01*
X500594Y586775D01*
X500489Y586781D01*
X500383Y586791D01*
X500279Y586805D01*
X500174Y586822D01*
X500071Y586844D01*
X499968Y586869D01*
X499867Y586899D01*
X499766Y586932D01*
X499667Y586968D01*
X499570Y587009D01*
X499473Y587053D01*
X499379Y587101D01*
X499286Y587152D01*
X499196Y587206D01*
X499107Y587264D01*
X499021Y587325D01*
X498937Y587390D01*
X498856Y587457D01*
X498777Y587528D01*
X498701Y587601D01*
X498628Y587677D01*
X498557Y587756D01*
X498490Y587837D01*
X498425Y587921D01*
X498364Y588007D01*
X498306Y588096D01*
X498252Y588187D01*
X498201Y588279D01*
X498153Y588373D01*
X498109Y588470D01*
X498068Y588567D01*
X498032Y588666D01*
X497999Y588767D01*
X497969Y588868D01*
X497944Y588971D01*
X497922Y589074D01*
X497905Y589179D01*
X497891Y589283D01*
X497881Y589389D01*
X497875Y589494D01*
X497873Y589600D01*
D17*
X476853Y608983D02*
X476853Y616610D01*
X476853Y608983D02*
X478378Y607458D01*
X481429Y607458D01*
X482954Y608983D01*
X482954Y616610D01*
X486208Y613559D02*
X489259Y616610D01*
X489259Y607458D01*
X492309Y607458D02*
X486208Y607458D01*
D12*
X653941Y496967D02*
X653941Y491374D01*
X653941Y496967D02*
X656737Y496967D01*
X657669Y496035D01*
X657669Y494170D01*
X656737Y493238D01*
X653941Y493238D01*
X655805Y493238D02*
X657669Y491374D01*
X662350Y491374D02*
X662350Y496967D01*
X659554Y494170D01*
X663283Y494170D01*
X524069Y463935D02*
X523137Y464867D01*
X521273Y464867D01*
X520341Y463935D01*
X520341Y460206D01*
X521273Y459274D01*
X523137Y459274D01*
X524069Y460206D01*
X525954Y463935D02*
X526886Y464867D01*
X528750Y464867D01*
X529683Y463935D01*
X529683Y463003D01*
X528750Y462070D01*
X529683Y461138D01*
X529683Y460206D01*
X528750Y459274D01*
X526886Y459274D01*
X525954Y460206D01*
X525954Y461138D01*
X526886Y462070D01*
X525954Y463003D01*
X525954Y463935D01*
X526886Y462070D02*
X528750Y462070D01*
X448669Y575235D02*
X447737Y576167D01*
X445873Y576167D01*
X444941Y575235D01*
X444941Y571506D01*
X445873Y570574D01*
X447737Y570574D01*
X448669Y571506D01*
X450554Y571506D02*
X451486Y570574D01*
X453350Y570574D01*
X454283Y571506D01*
X454283Y575235D01*
X453350Y576167D01*
X451486Y576167D01*
X450554Y575235D01*
X450554Y574303D01*
X451486Y573370D01*
X454283Y573370D01*
X619331Y564167D02*
X620263Y563235D01*
X619331Y564167D02*
X617466Y564167D01*
X616534Y563235D01*
X616534Y559506D01*
X617466Y558574D01*
X619331Y558574D01*
X620263Y559506D01*
X622147Y562303D02*
X624012Y564167D01*
X624012Y558574D01*
X625876Y558574D02*
X622147Y558574D01*
X627761Y559506D02*
X627761Y563235D01*
X628693Y564167D01*
X630557Y564167D01*
X631489Y563235D01*
X631489Y559506D01*
X630557Y558574D01*
X628693Y558574D01*
X627761Y559506D01*
X631489Y563235D01*
D13*
X247520Y370470D02*
X232280Y370470D01*
D12*
X254579Y389731D02*
X255511Y390663D01*
X254579Y389731D02*
X254579Y387866D01*
X255511Y386934D01*
X259240Y386934D01*
X260172Y387866D01*
X260172Y389731D01*
X259240Y390663D01*
X256444Y392547D02*
X254579Y394412D01*
X260172Y394412D01*
X260172Y396276D02*
X260172Y392547D01*
X260172Y398161D02*
X260172Y401889D01*
X260172Y398161D02*
X256444Y401889D01*
X255511Y401889D01*
X254579Y400957D01*
X254579Y399093D01*
X255511Y398161D01*
X177301Y303463D02*
X176369Y302531D01*
X176369Y300666D01*
X177301Y299734D01*
X181030Y299734D01*
X181962Y300666D01*
X181962Y302531D01*
X181030Y303463D01*
X178234Y305347D02*
X176369Y307212D01*
X181962Y307212D01*
X181962Y309076D02*
X181962Y305347D01*
X177301Y310961D02*
X176369Y311893D01*
X176369Y313757D01*
X177301Y314689D01*
X178234Y314689D01*
X179166Y313757D01*
X179166Y312825D01*
X179166Y313757D02*
X180098Y314689D01*
X181030Y314689D01*
X181962Y313757D01*
X181962Y311893D01*
X181030Y310961D01*
D17*
X123000Y474000D02*
X123000Y497000D01*
X171000Y497000D01*
X188000Y480000D01*
X188000Y474000D01*
X188000Y455000D02*
X188000Y449000D01*
X171000Y432000D01*
X123000Y432000D01*
X123000Y455000D01*
X126000Y474000D02*
X126241Y474718D01*
X126500Y475431D01*
X126776Y476136D01*
X127069Y476835D01*
X127379Y477527D01*
X127706Y478210D01*
X128049Y478886D01*
X128409Y479553D01*
X128785Y480211D01*
X129177Y480859D01*
X129585Y481498D01*
X130008Y482126D01*
X130447Y482744D01*
X130900Y483351D01*
X131369Y483947D01*
X131851Y484531D01*
X132348Y485103D01*
X132859Y485663D01*
X133383Y486210D01*
X133920Y486745D01*
X134471Y487266D01*
X135034Y487773D01*
X135609Y488266D01*
X136196Y488746D01*
X136794Y489210D01*
X137404Y489660D01*
X138025Y490095D01*
X138656Y490515D01*
X139297Y490919D01*
X139947Y491307D01*
X140608Y491679D01*
X141276Y492035D01*
X141954Y492375D01*
X142640Y492698D01*
X143333Y493004D01*
X144033Y493293D01*
X144741Y493564D01*
X145454Y493819D01*
X146174Y494056D01*
X146900Y494275D01*
X147630Y494476D01*
X148365Y494660D01*
X149105Y494825D01*
X149848Y494972D01*
X150595Y495101D01*
X151345Y495212D01*
X152097Y495305D01*
X152851Y495379D01*
X153607Y495434D01*
X154364Y495471D01*
X155121Y495490D01*
X155879Y495490D01*
X156636Y495471D01*
X157393Y495434D01*
X158149Y495379D01*
X158903Y495305D01*
X159655Y495212D01*
X160405Y495101D01*
X161152Y494972D01*
X161895Y494825D01*
X162635Y494660D01*
X163370Y494476D01*
X164100Y494275D01*
X164826Y494056D01*
X165546Y493819D01*
X166259Y493564D01*
X166967Y493293D01*
X167667Y493004D01*
X168360Y492698D01*
X169046Y492375D01*
X169724Y492035D01*
X170392Y491679D01*
X171053Y491307D01*
X171703Y490919D01*
X172344Y490515D01*
X172975Y490095D01*
X173596Y489660D01*
X174206Y489210D01*
X174804Y488746D01*
X175391Y488266D01*
X175966Y487773D01*
X176529Y487266D01*
X177080Y486745D01*
X177617Y486210D01*
X178141Y485663D01*
X178652Y485103D01*
X179149Y484531D01*
X179631Y483947D01*
X180100Y483351D01*
X180553Y482744D01*
X180992Y482126D01*
X181415Y481498D01*
X181823Y480859D01*
X182215Y480211D01*
X182591Y479553D01*
X182951Y478886D01*
X183294Y478210D01*
X183621Y477527D01*
X183931Y476835D01*
X184224Y476136D01*
X184500Y475431D01*
X184759Y474718D01*
X185000Y474000D01*
X185000Y455000D02*
X184759Y454282D01*
X184500Y453569D01*
X184224Y452864D01*
X183931Y452165D01*
X183621Y451473D01*
X183294Y450790D01*
X182951Y450114D01*
X182591Y449447D01*
X182215Y448789D01*
X181823Y448141D01*
X181415Y447502D01*
X180992Y446874D01*
X180553Y446256D01*
X180100Y445649D01*
X179631Y445053D01*
X179149Y444469D01*
X178652Y443897D01*
X178141Y443337D01*
X177617Y442790D01*
X177080Y442255D01*
X176529Y441734D01*
X175966Y441227D01*
X175391Y440734D01*
X174804Y440254D01*
X174206Y439790D01*
X173596Y439340D01*
X172975Y438905D01*
X172344Y438485D01*
X171703Y438081D01*
X171053Y437693D01*
X170392Y437321D01*
X169724Y436965D01*
X169046Y436625D01*
X168360Y436302D01*
X167667Y435996D01*
X166967Y435707D01*
X166259Y435436D01*
X165546Y435181D01*
X164826Y434944D01*
X164100Y434725D01*
X163370Y434524D01*
X162635Y434340D01*
X161895Y434175D01*
X161152Y434028D01*
X160405Y433899D01*
X159655Y433788D01*
X158903Y433695D01*
X158149Y433621D01*
X157393Y433566D01*
X156636Y433529D01*
X155879Y433510D01*
X155121Y433510D01*
X154364Y433529D01*
X153607Y433566D01*
X152851Y433621D01*
X152097Y433695D01*
X151345Y433788D01*
X150595Y433899D01*
X149848Y434028D01*
X149105Y434175D01*
X148365Y434340D01*
X147630Y434524D01*
X146900Y434725D01*
X146174Y434944D01*
X145454Y435181D01*
X144741Y435436D01*
X144033Y435707D01*
X143333Y435996D01*
X142640Y436302D01*
X141954Y436625D01*
X141276Y436965D01*
X140608Y437321D01*
X139947Y437693D01*
X139297Y438081D01*
X138656Y438485D01*
X138025Y438905D01*
X137404Y439340D01*
X136794Y439790D01*
X136196Y440254D01*
X135609Y440734D01*
X135034Y441227D01*
X134471Y441734D01*
X133920Y442255D01*
X133383Y442790D01*
X132859Y443337D01*
X132348Y443897D01*
X131851Y444469D01*
X131369Y445053D01*
X130900Y445649D01*
X130447Y446256D01*
X130008Y446874D01*
X129585Y447502D01*
X129177Y448141D01*
X128785Y448789D01*
X128409Y449447D01*
X128049Y450114D01*
X127706Y450790D01*
X127379Y451473D01*
X127069Y452165D01*
X126776Y452864D01*
X126500Y453569D01*
X126241Y454282D01*
X126000Y455000D01*
D12*
X151063Y503705D02*
X150131Y504637D01*
X148266Y504637D01*
X147334Y503705D01*
X147334Y499976D01*
X148266Y499044D01*
X150131Y499044D01*
X151063Y499976D01*
X152947Y502773D02*
X154812Y504637D01*
X154812Y499044D01*
X156676Y499044D02*
X152947Y499044D01*
X161357Y499044D02*
X161357Y504637D01*
X158561Y501840D01*
X162289Y501840D01*
D13*
X185100Y308894D02*
X185100Y300306D01*
X210500Y300306D02*
X210500Y308894D01*
X200484Y297512D02*
X195116Y297512D01*
D18*
X213802Y314760D03*
D12*
X186105Y280761D02*
X186105Y276100D01*
X187037Y275168D01*
X188901Y275168D01*
X189833Y276100D01*
X189833Y280761D01*
X191718Y278897D02*
X193582Y280761D01*
X193582Y275168D01*
X191718Y275168D02*
X195446Y275168D01*
X197331Y276100D02*
X197331Y279829D01*
X198263Y280761D01*
X200127Y280761D01*
X201059Y279829D01*
X201059Y276100D01*
X200127Y275168D01*
X198263Y275168D01*
X197331Y276100D01*
X201059Y279829D01*
X228531Y281631D02*
X229463Y280699D01*
X228531Y281631D02*
X226666Y281631D01*
X225734Y280699D01*
X225734Y276970D01*
X226666Y276038D01*
X228531Y276038D01*
X229463Y276970D01*
X231347Y279767D02*
X233212Y281631D01*
X233212Y276038D01*
X235076Y276038D02*
X231347Y276038D01*
X236961Y281631D02*
X240689Y281631D01*
X236961Y281631D02*
X236961Y278834D01*
X238825Y279767D01*
X239757Y279767D01*
X240689Y278834D01*
X240689Y276970D01*
X239757Y276038D01*
X237893Y276038D01*
X236961Y276970D01*
D13*
X117034Y353490D02*
X117034Y386510D01*
X182566Y386510D01*
X182566Y353490D01*
X117034Y353490D01*
D12*
X112083Y342166D02*
X112083Y337505D01*
X113015Y336573D01*
X114879Y336573D01*
X115811Y337505D01*
X115811Y342166D01*
X117696Y337505D02*
X118628Y336573D01*
X120492Y336573D01*
X121424Y337505D01*
X121424Y341234D01*
X120492Y342166D01*
X118628Y342166D01*
X117696Y341234D01*
X117696Y340302D01*
X118628Y339369D01*
X121424Y339369D01*
X212369Y414941D02*
X217962Y414941D01*
X212369Y414941D02*
X212369Y417737D01*
X213301Y418669D01*
X215166Y418669D01*
X216098Y417737D01*
X216098Y414941D01*
X216098Y416805D02*
X217962Y418669D01*
X214234Y420554D02*
X212369Y422418D01*
X217962Y422418D01*
X217962Y420554D02*
X217962Y424282D01*
X217462Y373634D02*
X211869Y373634D01*
X211869Y376431D01*
X212801Y377363D01*
X214666Y377363D01*
X215598Y376431D01*
X215598Y373634D01*
X215598Y375499D02*
X217462Y377363D01*
X217462Y382044D02*
X211869Y382044D01*
X214666Y379247D01*
X214666Y382976D01*
X216530Y384861D02*
X217462Y385793D01*
X217462Y387657D01*
X216530Y388589D01*
X212801Y388589D01*
X211869Y387657D01*
X211869Y385793D01*
X212801Y384861D01*
X213734Y384861D01*
X214666Y385793D01*
X214666Y388589D01*
D13*
X250680Y283670D02*
X265920Y283670D01*
D12*
X254263Y279145D02*
X253331Y280077D01*
X251466Y280077D01*
X250534Y279145D01*
X250534Y275416D01*
X251466Y274484D01*
X253331Y274484D01*
X254263Y275416D01*
X256147Y274484D02*
X259876Y274484D01*
X256147Y274484D02*
X259876Y278213D01*
X259876Y279145D01*
X258944Y280077D01*
X257080Y280077D01*
X256147Y279145D01*
X261761Y278213D02*
X263625Y280077D01*
X263625Y274484D01*
X261761Y274484D02*
X265489Y274484D01*
D13*
X202800Y589600D02*
X198300Y589600D01*
X202800Y589600D02*
X202800Y543600D01*
X198300Y543600D01*
X178300Y543600D02*
X173800Y543600D01*
X173800Y589600D01*
X178300Y589600D01*
X178300Y556600D02*
X198300Y556600D01*
D12*
X205059Y578488D02*
X210652Y578488D01*
X210652Y581284D01*
X209720Y582216D01*
X205991Y582216D01*
X205059Y581284D01*
X205059Y578488D01*
X210652Y584101D02*
X210652Y587829D01*
X210652Y584101D02*
X206924Y587829D01*
X205991Y587829D01*
X205059Y586897D01*
X205059Y585033D01*
X205991Y584101D01*
D13*
X135500Y544400D02*
X135500Y634400D01*
X2500Y634400D02*
X2500Y614400D01*
X2500Y564400D01*
X2500Y544400D01*
X2500Y614400D02*
X37500Y614400D01*
X38078Y614367D01*
X38655Y614320D01*
X39231Y614260D01*
X39805Y614185D01*
X40377Y614097D01*
X40946Y613994D01*
X41514Y613878D01*
X42078Y613749D01*
X42639Y613605D01*
X43196Y613449D01*
X43749Y613278D01*
X44298Y613095D01*
X44842Y612898D01*
X45382Y612688D01*
X45916Y612466D01*
X46445Y612230D01*
X46968Y611982D01*
X47485Y611721D01*
X47995Y611447D01*
X48498Y611162D01*
X48995Y610864D01*
X49484Y610555D01*
X49965Y610233D01*
X50439Y609900D01*
X50904Y609556D01*
X51361Y609201D01*
X51810Y608835D01*
X52249Y608458D01*
X52679Y608070D01*
X53099Y607672D01*
X53510Y607265D01*
X53911Y606847D01*
X54302Y606420D01*
X54682Y605983D01*
X55051Y605538D01*
X55410Y605083D01*
X55758Y604620D01*
X56094Y604149D01*
X56419Y603670D01*
X56732Y603183D01*
X57033Y602689D01*
X57322Y602188D01*
X57599Y601679D01*
X57864Y601164D01*
X58116Y600643D01*
X58356Y600116D01*
X58582Y599584D01*
X58796Y599046D01*
X58997Y598503D01*
X59184Y597955D01*
X59359Y597403D01*
X59520Y596847D01*
X59667Y596287D01*
X59801Y595724D01*
X59921Y595158D01*
X60027Y594589D01*
X60120Y594018D01*
X60199Y593444D01*
X60264Y592869D01*
X60315Y592292D01*
X60352Y591715D01*
X60375Y591136D01*
X60384Y590557D01*
X60379Y589979D01*
X60360Y589400D01*
X60379Y588821D01*
X60384Y588243D01*
X60375Y587664D01*
X60352Y587085D01*
X60315Y586508D01*
X60264Y585931D01*
X60199Y585356D01*
X60120Y584782D01*
X60027Y584211D01*
X59921Y583642D01*
X59801Y583076D01*
X59667Y582513D01*
X59520Y581953D01*
X59359Y581397D01*
X59184Y580845D01*
X58997Y580297D01*
X58796Y579754D01*
X58582Y579216D01*
X58356Y578684D01*
X58116Y578157D01*
X57864Y577636D01*
X57599Y577121D01*
X57322Y576612D01*
X57033Y576111D01*
X56732Y575617D01*
X56419Y575130D01*
X56094Y574651D01*
X55758Y574180D01*
X55410Y573717D01*
X55051Y573262D01*
X54682Y572817D01*
X54302Y572380D01*
X53911Y571953D01*
X53510Y571535D01*
X53099Y571128D01*
X52679Y570730D01*
X52249Y570342D01*
X51810Y569965D01*
X51361Y569599D01*
X50904Y569244D01*
X50439Y568900D01*
X49965Y568567D01*
X49484Y568245D01*
X48995Y567936D01*
X48498Y567638D01*
X47995Y567353D01*
X47485Y567079D01*
X46968Y566818D01*
X46445Y566570D01*
X45916Y566334D01*
X45382Y566112D01*
X44842Y565902D01*
X44298Y565705D01*
X43749Y565522D01*
X43196Y565351D01*
X42639Y565195D01*
X42078Y565051D01*
X41514Y564922D01*
X40946Y564806D01*
X40377Y564703D01*
X39805Y564615D01*
X39231Y564540D01*
X38655Y564480D01*
X38078Y564433D01*
X37500Y564400D01*
X2500Y564400D01*
X2500Y634400D02*
X17500Y634400D01*
X57500Y634400D02*
X78500Y634400D01*
X119500Y634400D02*
X135500Y634400D01*
X135500Y544400D02*
X118500Y544400D01*
X78500Y544400D02*
X57500Y544400D01*
X17500Y544400D02*
X2500Y544400D01*
X422500Y513300D02*
X434500Y513300D01*
X402500Y527300D02*
X402500Y533300D01*
X422500Y547300D02*
X434500Y547300D01*
X454500Y533300D02*
X454500Y527300D01*
D12*
X423141Y511001D02*
X423141Y510069D01*
X425005Y508204D01*
X426869Y510069D01*
X426869Y511001D01*
X425005Y508204D02*
X425005Y505408D01*
X428754Y505408D02*
X432482Y505408D01*
X428754Y505408D02*
X432482Y509137D01*
X432482Y510069D01*
X431550Y511001D01*
X429686Y511001D01*
X428754Y510069D01*
X390569Y572535D02*
X389637Y573467D01*
X387773Y573467D01*
X386841Y572535D01*
X386841Y568806D01*
X387773Y567874D01*
X389637Y567874D01*
X390569Y568806D01*
X392454Y572535D02*
X393386Y573467D01*
X395250Y573467D01*
X396183Y572535D01*
X396183Y571603D01*
X395250Y570670D01*
X394318Y570670D01*
X395250Y570670D02*
X396183Y569738D01*
X396183Y568806D01*
X395250Y567874D01*
X393386Y567874D01*
X392454Y568806D01*
X376137Y551067D02*
X377069Y550135D01*
X376137Y551067D02*
X374273Y551067D01*
X373341Y550135D01*
X373341Y546406D01*
X374273Y545474D01*
X376137Y545474D01*
X377069Y546406D01*
X381750Y545474D02*
X381750Y551067D01*
X378954Y548270D01*
X382683Y548270D01*
D19*
X1077310Y550260D02*
X1077310Y199740D01*
X1002380Y639414D02*
X1002380Y651860D01*
X1002380Y639414D02*
X1002380Y578454D01*
X1002380Y555340D01*
X1002380Y194660D01*
X1002380Y171546D01*
X1002380Y110586D01*
X1002380Y98140D01*
X980790Y565500D02*
X980790Y651860D01*
D12*
X980790Y565500D02*
X980790Y184500D01*
D19*
X980790Y98140D01*
X813150Y565500D02*
X813150Y651860D01*
X813150Y565500D02*
X813150Y184500D01*
X813150Y98140D01*
X848710Y184500D02*
X848710Y565500D01*
X813150Y651860D02*
X949040Y651860D01*
X1002380Y651860D01*
X890620Y565500D02*
X813150Y565500D01*
X890620Y565500D02*
X938880Y565500D01*
X949040Y565500D01*
X980790Y565500D01*
X949040Y565500D02*
X949040Y592424D01*
X949040Y625444D01*
X949040Y651860D01*
X949040Y625444D02*
X957930Y625444D01*
X957930Y592424D02*
X949040Y592424D01*
X957930Y592424D02*
X957930Y625444D01*
X938880Y575660D02*
X890620Y575660D01*
X890620Y565500D01*
X938880Y565500D02*
X938880Y575660D01*
X1002380Y555340D02*
X1072230Y555340D01*
X1006190Y580994D02*
X1006190Y636874D01*
X1003650Y639414D02*
X1002380Y639414D01*
X1003650Y639414D02*
X1003750Y639412D01*
X1003849Y639406D01*
X1003949Y639396D01*
X1004047Y639383D01*
X1004146Y639365D01*
X1004243Y639344D01*
X1004339Y639319D01*
X1004435Y639290D01*
X1004529Y639257D01*
X1004622Y639221D01*
X1004713Y639181D01*
X1004803Y639137D01*
X1004891Y639090D01*
X1004977Y639040D01*
X1005061Y638986D01*
X1005143Y638929D01*
X1005222Y638869D01*
X1005300Y638805D01*
X1005374Y638739D01*
X1005446Y638670D01*
X1005515Y638598D01*
X1005581Y638524D01*
X1005645Y638446D01*
X1005705Y638367D01*
X1005762Y638285D01*
X1005816Y638201D01*
X1005866Y638115D01*
X1005913Y638027D01*
X1005957Y637937D01*
X1005997Y637846D01*
X1006033Y637753D01*
X1006066Y637659D01*
X1006095Y637563D01*
X1006120Y637467D01*
X1006141Y637370D01*
X1006159Y637271D01*
X1006172Y637173D01*
X1006182Y637073D01*
X1006188Y636974D01*
X1006190Y636874D01*
X1003650Y578454D02*
X1002380Y578454D01*
X1003650Y578454D02*
X1003750Y578456D01*
X1003849Y578462D01*
X1003949Y578472D01*
X1004047Y578485D01*
X1004146Y578503D01*
X1004243Y578524D01*
X1004339Y578549D01*
X1004435Y578578D01*
X1004529Y578611D01*
X1004622Y578647D01*
X1004713Y578687D01*
X1004803Y578731D01*
X1004891Y578778D01*
X1004977Y578828D01*
X1005061Y578882D01*
X1005143Y578939D01*
X1005222Y578999D01*
X1005300Y579063D01*
X1005374Y579129D01*
X1005446Y579198D01*
X1005515Y579270D01*
X1005581Y579344D01*
X1005645Y579422D01*
X1005705Y579501D01*
X1005762Y579583D01*
X1005816Y579667D01*
X1005866Y579753D01*
X1005913Y579841D01*
X1005957Y579931D01*
X1005997Y580022D01*
X1006033Y580115D01*
X1006066Y580209D01*
X1006095Y580305D01*
X1006120Y580401D01*
X1006141Y580498D01*
X1006159Y580597D01*
X1006172Y580695D01*
X1006182Y580795D01*
X1006188Y580894D01*
X1006190Y580994D01*
X1072230Y555340D02*
X1072370Y555338D01*
X1072510Y555332D01*
X1072650Y555323D01*
X1072789Y555309D01*
X1072928Y555292D01*
X1073066Y555271D01*
X1073204Y555246D01*
X1073341Y555217D01*
X1073477Y555185D01*
X1073612Y555148D01*
X1073746Y555108D01*
X1073879Y555065D01*
X1074011Y555017D01*
X1074142Y554967D01*
X1074271Y554912D01*
X1074398Y554854D01*
X1074524Y554793D01*
X1074648Y554728D01*
X1074770Y554659D01*
X1074890Y554588D01*
X1075008Y554513D01*
X1075125Y554435D01*
X1075239Y554353D01*
X1075350Y554269D01*
X1075459Y554181D01*
X1075566Y554091D01*
X1075671Y553997D01*
X1075772Y553901D01*
X1075871Y553802D01*
X1075967Y553701D01*
X1076061Y553596D01*
X1076151Y553489D01*
X1076239Y553380D01*
X1076323Y553269D01*
X1076405Y553155D01*
X1076483Y553038D01*
X1076558Y552920D01*
X1076629Y552800D01*
X1076698Y552678D01*
X1076763Y552554D01*
X1076824Y552428D01*
X1076882Y552301D01*
X1076937Y552172D01*
X1076987Y552041D01*
X1077035Y551909D01*
X1077078Y551776D01*
X1077118Y551642D01*
X1077155Y551507D01*
X1077187Y551371D01*
X1077216Y551234D01*
X1077241Y551096D01*
X1077262Y550958D01*
X1077279Y550819D01*
X1077293Y550680D01*
X1077302Y550540D01*
X1077308Y550400D01*
X1077310Y550260D01*
X1002380Y98140D02*
X949040Y98140D01*
X813150Y98140D01*
X813150Y184500D02*
X890620Y184500D01*
X938880Y184500D01*
X949040Y184500D01*
X980790Y184500D01*
X949040Y184500D02*
X949040Y157576D01*
X949040Y124556D01*
X949040Y98140D01*
X938880Y174340D02*
X890620Y174340D01*
X890620Y184500D01*
X938880Y184500D02*
X938880Y174340D01*
X949040Y124556D02*
X957930Y124556D01*
X957930Y157576D02*
X949040Y157576D01*
X957930Y157576D02*
X957930Y124556D01*
X1002380Y194660D02*
X1072230Y194660D01*
X1006190Y169006D02*
X1006190Y113126D01*
X1003650Y171546D02*
X1002380Y171546D01*
X1003650Y171546D02*
X1003750Y171544D01*
X1003849Y171538D01*
X1003949Y171528D01*
X1004047Y171515D01*
X1004146Y171497D01*
X1004243Y171476D01*
X1004339Y171451D01*
X1004435Y171422D01*
X1004529Y171389D01*
X1004622Y171353D01*
X1004713Y171313D01*
X1004803Y171269D01*
X1004891Y171222D01*
X1004977Y171172D01*
X1005061Y171118D01*
X1005143Y171061D01*
X1005222Y171001D01*
X1005300Y170937D01*
X1005374Y170871D01*
X1005446Y170802D01*
X1005515Y170730D01*
X1005581Y170656D01*
X1005645Y170578D01*
X1005705Y170499D01*
X1005762Y170417D01*
X1005816Y170333D01*
X1005866Y170247D01*
X1005913Y170159D01*
X1005957Y170069D01*
X1005997Y169978D01*
X1006033Y169885D01*
X1006066Y169791D01*
X1006095Y169695D01*
X1006120Y169599D01*
X1006141Y169502D01*
X1006159Y169403D01*
X1006172Y169305D01*
X1006182Y169205D01*
X1006188Y169106D01*
X1006190Y169006D01*
X1003650Y110586D02*
X1002380Y110586D01*
X1003650Y110586D02*
X1003750Y110588D01*
X1003849Y110594D01*
X1003949Y110604D01*
X1004047Y110617D01*
X1004146Y110635D01*
X1004243Y110656D01*
X1004339Y110681D01*
X1004435Y110710D01*
X1004529Y110743D01*
X1004622Y110779D01*
X1004713Y110819D01*
X1004803Y110863D01*
X1004891Y110910D01*
X1004977Y110960D01*
X1005061Y111014D01*
X1005143Y111071D01*
X1005222Y111131D01*
X1005300Y111195D01*
X1005374Y111261D01*
X1005446Y111330D01*
X1005515Y111402D01*
X1005581Y111476D01*
X1005645Y111554D01*
X1005705Y111633D01*
X1005762Y111715D01*
X1005816Y111799D01*
X1005866Y111885D01*
X1005913Y111973D01*
X1005957Y112063D01*
X1005997Y112154D01*
X1006033Y112247D01*
X1006066Y112341D01*
X1006095Y112437D01*
X1006120Y112533D01*
X1006141Y112630D01*
X1006159Y112729D01*
X1006172Y112827D01*
X1006182Y112927D01*
X1006188Y113026D01*
X1006190Y113126D01*
X1072230Y194660D02*
X1072370Y194662D01*
X1072510Y194668D01*
X1072650Y194677D01*
X1072789Y194691D01*
X1072928Y194708D01*
X1073066Y194729D01*
X1073204Y194754D01*
X1073341Y194783D01*
X1073477Y194815D01*
X1073612Y194852D01*
X1073746Y194892D01*
X1073879Y194935D01*
X1074011Y194983D01*
X1074142Y195033D01*
X1074271Y195088D01*
X1074398Y195146D01*
X1074524Y195207D01*
X1074648Y195272D01*
X1074770Y195341D01*
X1074890Y195412D01*
X1075008Y195487D01*
X1075125Y195565D01*
X1075239Y195647D01*
X1075350Y195731D01*
X1075459Y195819D01*
X1075566Y195909D01*
X1075671Y196003D01*
X1075772Y196099D01*
X1075871Y196198D01*
X1075967Y196299D01*
X1076061Y196404D01*
X1076151Y196511D01*
X1076239Y196620D01*
X1076323Y196731D01*
X1076405Y196845D01*
X1076483Y196962D01*
X1076558Y197080D01*
X1076629Y197200D01*
X1076698Y197322D01*
X1076763Y197446D01*
X1076824Y197572D01*
X1076882Y197699D01*
X1076937Y197828D01*
X1076987Y197959D01*
X1077035Y198091D01*
X1077078Y198224D01*
X1077118Y198358D01*
X1077155Y198493D01*
X1077187Y198629D01*
X1077216Y198766D01*
X1077241Y198904D01*
X1077262Y199042D01*
X1077279Y199181D01*
X1077293Y199320D01*
X1077302Y199460D01*
X1077308Y199600D01*
X1077310Y199740D01*
D12*
X997300Y375000D02*
X997300Y397860D01*
X997300Y375000D02*
X997300Y352140D01*
X997300Y375000D02*
X970630Y375000D01*
X987140Y378810D02*
X997300Y375000D01*
X987140Y378810D02*
X987140Y371190D01*
X997300Y375000D01*
D20*
X860004Y511917D02*
X854665Y517256D01*
X870681Y517256D01*
X870681Y511917D02*
X870681Y522595D01*
X896575Y513584D02*
X901914Y508246D01*
X896575Y513584D02*
X912591Y513584D01*
X912591Y508246D02*
X912591Y518923D01*
X899245Y524617D02*
X896575Y527287D01*
X896575Y532625D01*
X899245Y535295D01*
X901914Y535295D01*
X904583Y532625D01*
X904583Y529956D01*
X904583Y532625D02*
X907252Y535295D01*
X909922Y535295D01*
X912591Y532625D01*
X912591Y527287D01*
X909922Y524617D01*
X913861Y212853D02*
X913861Y202176D01*
X903184Y212853D01*
X900515Y212853D01*
X897845Y210184D01*
X897845Y204845D01*
X900515Y202176D01*
X897845Y226555D02*
X913861Y226555D01*
X905853Y218547D02*
X897845Y226555D01*
X905853Y229225D02*
X905853Y218547D01*
X860004Y202176D02*
X854665Y207514D01*
X870681Y207514D01*
X870681Y202176D02*
X870681Y212853D01*
X870681Y218547D02*
X870681Y229225D01*
X860004Y229225D02*
X870681Y218547D01*
X860004Y229225D02*
X857335Y229225D01*
X854665Y226555D01*
X854665Y221217D01*
X857335Y218547D01*
X831229Y660209D02*
X831229Y676225D01*
X839237Y676225D01*
X841906Y673555D01*
X841906Y668217D01*
X839237Y665548D01*
X831229Y665548D01*
X847601Y660209D02*
X847601Y676225D01*
X847601Y660209D02*
X858278Y660209D01*
X863972Y670886D02*
X869311Y676225D01*
X869311Y660209D01*
X874649Y660209D02*
X863972Y660209D01*
D12*
X248234Y108467D02*
X248234Y102874D01*
X248234Y108467D02*
X251031Y108467D01*
X251963Y107535D01*
X251963Y105670D01*
X251031Y104738D01*
X248234Y104738D01*
X250099Y104738D02*
X251963Y102874D01*
X253847Y108467D02*
X257576Y108467D01*
X253847Y108467D02*
X253847Y105670D01*
X255712Y106603D01*
X256644Y106603D01*
X257576Y105670D01*
X257576Y103806D01*
X256644Y102874D01*
X254780Y102874D01*
X253847Y103806D01*
X259461Y102874D02*
X263189Y102874D01*
X259461Y102874D02*
X263189Y106603D01*
X263189Y107535D01*
X262257Y108467D01*
X260393Y108467D01*
X259461Y107535D01*
X104362Y407434D02*
X98769Y407434D01*
X98769Y410231D01*
X99701Y411163D01*
X101566Y411163D01*
X102498Y410231D01*
X102498Y407434D01*
X102498Y409299D02*
X104362Y411163D01*
X104362Y413047D02*
X104362Y416776D01*
X100634Y416776D02*
X104362Y413047D01*
X100634Y416776D02*
X99701Y416776D01*
X98769Y415844D01*
X98769Y413980D01*
X99701Y413047D01*
X99701Y418661D02*
X98769Y419593D01*
X98769Y421457D01*
X99701Y422389D01*
X100634Y422389D01*
X101566Y421457D01*
X101566Y420525D01*
X101566Y421457D02*
X102498Y422389D01*
X103430Y422389D01*
X104362Y421457D01*
X104362Y419593D01*
X103430Y418661D01*
D13*
X36563Y417975D02*
X36563Y431625D01*
X36750Y424800D02*
X41513Y420038D01*
X36750Y424800D02*
X41513Y429563D01*
D12*
X32128Y415026D02*
X32128Y409433D01*
X35856Y409433D01*
X37741Y415026D02*
X41469Y415026D01*
X37741Y415026D02*
X37741Y409433D01*
X41469Y409433D01*
X39605Y412229D02*
X37741Y412229D01*
X43354Y409433D02*
X43354Y415026D01*
X43354Y409433D02*
X46150Y409433D01*
X47082Y410365D01*
X47082Y414094D01*
X46150Y415026D01*
X43354Y415026D01*
X48967Y414094D02*
X49899Y415026D01*
X51763Y415026D01*
X52696Y414094D01*
X52696Y413162D01*
X51763Y412229D01*
X50831Y412229D01*
X51763Y412229D02*
X52696Y411297D01*
X52696Y410365D01*
X51763Y409433D01*
X49899Y409433D01*
X48967Y410365D01*
X99669Y307434D02*
X105262Y307434D01*
X99669Y307434D02*
X99669Y310231D01*
X100601Y311163D01*
X102466Y311163D01*
X103398Y310231D01*
X103398Y307434D01*
X103398Y309299D02*
X105262Y311163D01*
X105262Y313047D02*
X105262Y316776D01*
X101534Y316776D02*
X105262Y313047D01*
X101534Y316776D02*
X100601Y316776D01*
X99669Y315844D01*
X99669Y313980D01*
X100601Y313047D01*
X99669Y321457D02*
X105262Y321457D01*
X102466Y318661D02*
X99669Y321457D01*
X102466Y322389D02*
X102466Y318661D01*
D13*
X36563Y334575D02*
X36563Y348225D01*
X36750Y341400D02*
X41513Y336638D01*
X36750Y341400D02*
X41513Y346163D01*
D12*
X32128Y331626D02*
X32128Y326033D01*
X35856Y326033D01*
X37741Y331626D02*
X41469Y331626D01*
X37741Y331626D02*
X37741Y326033D01*
X41469Y326033D01*
X39605Y328829D02*
X37741Y328829D01*
X43354Y326033D02*
X43354Y331626D01*
X43354Y326033D02*
X46150Y326033D01*
X47082Y326965D01*
X47082Y330694D01*
X46150Y331626D01*
X43354Y331626D01*
X51763Y331626D02*
X51763Y326033D01*
X48967Y328829D02*
X51763Y331626D01*
X52696Y328829D02*
X48967Y328829D01*
X740734Y125667D02*
X740734Y120074D01*
X740734Y125667D02*
X743531Y125667D01*
X744463Y124735D01*
X744463Y122870D01*
X743531Y121938D01*
X740734Y121938D01*
X742599Y121938D02*
X744463Y120074D01*
X746347Y125667D02*
X750076Y125667D01*
X746347Y125667D02*
X746347Y122870D01*
X748212Y123803D01*
X749144Y123803D01*
X750076Y122870D01*
X750076Y121006D01*
X749144Y120074D01*
X747280Y120074D01*
X746347Y121006D01*
X751961Y124735D02*
X752893Y125667D01*
X754757Y125667D01*
X755689Y124735D01*
X755689Y123803D01*
X754757Y122870D01*
X753825Y122870D01*
X754757Y122870D02*
X755689Y121938D01*
X755689Y121006D01*
X754757Y120074D01*
X752893Y120074D01*
X751961Y121006D01*
D13*
X787175Y48063D02*
X800825Y48063D01*
X798763Y53013D02*
X794000Y48250D01*
X789238Y53013D01*
D12*
X791774Y8628D02*
X797367Y8628D01*
X797367Y12356D01*
X791774Y14241D02*
X791774Y17969D01*
X791774Y14241D02*
X797367Y14241D01*
X797367Y17969D01*
X794571Y16105D02*
X794571Y14241D01*
X797367Y19854D02*
X791774Y19854D01*
X797367Y19854D02*
X797367Y22650D01*
X796435Y23582D01*
X792706Y23582D01*
X791774Y22650D01*
X791774Y19854D01*
X797367Y25467D02*
X797367Y29196D01*
X793639Y29196D02*
X797367Y25467D01*
X793639Y29196D02*
X792706Y29196D01*
X791774Y28263D01*
X791774Y26399D01*
X792706Y25467D01*
X609969Y736435D02*
X609037Y737367D01*
X607173Y737367D01*
X606241Y736435D01*
X606241Y732706D01*
X607173Y731774D01*
X609037Y731774D01*
X609969Y732706D01*
X611854Y737367D02*
X615583Y737367D01*
X611854Y737367D02*
X611854Y734570D01*
X613718Y735503D01*
X614650Y735503D01*
X615583Y734570D01*
X615583Y732706D01*
X614650Y731774D01*
X612786Y731774D01*
X611854Y732706D01*
X823537Y734631D02*
X824469Y733699D01*
X823537Y734631D02*
X821673Y734631D01*
X820741Y733699D01*
X820741Y729970D01*
X821673Y729038D01*
X823537Y729038D01*
X824469Y729970D01*
X828218Y733699D02*
X830082Y734631D01*
X828218Y733699D02*
X826354Y731834D01*
X826354Y729970D01*
X827286Y729038D01*
X829150Y729038D01*
X830082Y729970D01*
X830082Y730902D01*
X829150Y731834D01*
X826354Y731834D01*
D14*
X508100Y195100D03*
D12*
X528464Y196474D02*
X528464Y202067D01*
X531260Y202067D01*
X532193Y201135D01*
X532193Y199270D01*
X531260Y198338D01*
X528464Y198338D01*
X530328Y198338D02*
X532193Y196474D01*
X534077Y202067D02*
X537806Y202067D01*
X534077Y202067D02*
X534077Y199270D01*
X535941Y200203D01*
X536873Y200203D01*
X537806Y199270D01*
X537806Y197406D01*
X536873Y196474D01*
X535009Y196474D01*
X534077Y197406D01*
X542487Y196474D02*
X542487Y202067D01*
X539690Y199270D01*
X543419Y199270D01*
D15*
X337700Y549400D03*
D12*
X339826Y568264D02*
X334233Y568264D01*
X334233Y571060D01*
X335165Y571993D01*
X337030Y571993D01*
X337962Y571060D01*
X337962Y568264D01*
X337962Y570128D02*
X339826Y571993D01*
X334233Y573877D02*
X334233Y577606D01*
X334233Y573877D02*
X337030Y573877D01*
X336098Y575741D01*
X336098Y576673D01*
X337030Y577606D01*
X338894Y577606D01*
X339826Y576673D01*
X339826Y574809D01*
X338894Y573877D01*
X334233Y579490D02*
X334233Y583219D01*
X334233Y579490D02*
X337030Y579490D01*
X336098Y581354D01*
X336098Y582287D01*
X337030Y583219D01*
X338894Y583219D01*
X339826Y582287D01*
X339826Y580422D01*
X338894Y579490D01*
D15*
X296300Y549400D03*
D12*
X298926Y568264D02*
X293333Y568264D01*
X293333Y571060D01*
X294265Y571993D01*
X296130Y571993D01*
X297062Y571060D01*
X297062Y568264D01*
X297062Y570128D02*
X298926Y571993D01*
X293333Y573877D02*
X293333Y577606D01*
X293333Y573877D02*
X296130Y573877D01*
X295198Y575741D01*
X295198Y576673D01*
X296130Y577606D01*
X297994Y577606D01*
X298926Y576673D01*
X298926Y574809D01*
X297994Y573877D01*
X294265Y581354D02*
X293333Y583219D01*
X294265Y581354D02*
X296130Y579490D01*
X297994Y579490D01*
X298926Y580422D01*
X298926Y582287D01*
X297994Y583219D01*
X297062Y583219D01*
X296130Y582287D01*
X296130Y579490D01*
D15*
X314500Y549300D03*
D12*
X316626Y568164D02*
X311033Y568164D01*
X311033Y570960D01*
X311965Y571893D01*
X313830Y571893D01*
X314762Y570960D01*
X314762Y568164D01*
X314762Y570028D02*
X316626Y571893D01*
X311033Y573777D02*
X311033Y577506D01*
X311033Y573777D02*
X313830Y573777D01*
X312898Y575641D01*
X312898Y576573D01*
X313830Y577506D01*
X315694Y577506D01*
X316626Y576573D01*
X316626Y574709D01*
X315694Y573777D01*
X311033Y579390D02*
X311033Y583119D01*
X311965Y583119D01*
X315694Y579390D01*
X316626Y579390D01*
D15*
X275400Y578200D03*
D12*
X284769Y570505D02*
X290362Y570505D01*
X284769Y570505D02*
X284769Y573301D01*
X285701Y574233D01*
X287566Y574233D01*
X288498Y573301D01*
X288498Y570505D01*
X288498Y572369D02*
X290362Y574233D01*
X284769Y576118D02*
X284769Y579846D01*
X284769Y576118D02*
X287566Y576118D01*
X286634Y577982D01*
X286634Y578914D01*
X287566Y579846D01*
X289430Y579846D01*
X290362Y578914D01*
X290362Y577050D01*
X289430Y576118D01*
X285701Y581731D02*
X284769Y582663D01*
X284769Y584527D01*
X285701Y585459D01*
X286634Y585459D01*
X287566Y584527D01*
X288498Y585459D01*
X289430Y585459D01*
X290362Y584527D01*
X290362Y582663D01*
X289430Y581731D01*
X288498Y581731D01*
X287566Y582663D01*
X286634Y581731D01*
X285701Y581731D01*
X287566Y582663D02*
X287566Y584527D01*
X762937Y143131D02*
X763869Y142199D01*
X762937Y143131D02*
X761073Y143131D01*
X760141Y142199D01*
X760141Y138470D01*
X761073Y137538D01*
X762937Y137538D01*
X763869Y138470D01*
X765754Y143131D02*
X769482Y143131D01*
X769482Y142199D01*
X765754Y138470D01*
X765754Y137538D01*
X332965Y226563D02*
X332033Y225631D01*
X332033Y223766D01*
X332965Y222834D01*
X336694Y222834D01*
X337626Y223766D01*
X337626Y225631D01*
X336694Y226563D01*
X333898Y228447D02*
X332033Y230312D01*
X337626Y230312D01*
X337626Y232176D02*
X337626Y228447D01*
X336694Y234061D02*
X337626Y234993D01*
X337626Y236857D01*
X336694Y237789D01*
X332965Y237789D01*
X332033Y236857D01*
X332033Y234993D01*
X332965Y234061D01*
X333898Y234061D01*
X334830Y234993D01*
X334830Y237789D01*
D10*
X415520Y710440D02*
X415520Y719330D01*
D12*
X338930Y729748D02*
X337998Y730680D01*
X338930Y729748D02*
X339862Y729748D01*
X340794Y730680D01*
X340794Y735341D01*
X339862Y735341D02*
X341726Y735341D01*
X343611Y729748D02*
X347339Y729748D01*
X343611Y729748D02*
X347339Y733477D01*
X347339Y734409D01*
X346407Y735341D01*
X344543Y735341D01*
X343611Y734409D01*
D19*
X700162Y496214D02*
X700162Y373786D01*
X774838Y496214D02*
X774836Y496336D01*
X774830Y496458D01*
X774820Y496580D01*
X774807Y496701D01*
X774789Y496822D01*
X774768Y496942D01*
X774742Y497062D01*
X774713Y497180D01*
X774681Y497298D01*
X774644Y497415D01*
X774604Y497530D01*
X774560Y497644D01*
X774512Y497756D01*
X774461Y497867D01*
X774406Y497976D01*
X774348Y498084D01*
X774286Y498189D01*
X774221Y498292D01*
X774153Y498394D01*
X774081Y498493D01*
X774007Y498589D01*
X773929Y498684D01*
X773848Y498775D01*
X773765Y498865D01*
X773679Y498951D01*
X773589Y499034D01*
X773498Y499115D01*
X773403Y499193D01*
X773307Y499267D01*
X773208Y499339D01*
X773106Y499407D01*
X773003Y499472D01*
X772898Y499534D01*
X772790Y499592D01*
X772681Y499647D01*
X772570Y499698D01*
X772458Y499746D01*
X772344Y499790D01*
X772229Y499830D01*
X772112Y499867D01*
X771994Y499899D01*
X771876Y499928D01*
X771756Y499954D01*
X771636Y499975D01*
X771515Y499993D01*
X771394Y500006D01*
X771272Y500016D01*
X771150Y500022D01*
X771028Y500024D01*
X700162Y373786D02*
X700164Y373664D01*
X700170Y373542D01*
X700180Y373420D01*
X700193Y373299D01*
X700211Y373178D01*
X700232Y373058D01*
X700258Y372938D01*
X700287Y372820D01*
X700319Y372702D01*
X700356Y372585D01*
X700396Y372470D01*
X700440Y372356D01*
X700488Y372244D01*
X700539Y372133D01*
X700594Y372024D01*
X700652Y371916D01*
X700714Y371811D01*
X700779Y371708D01*
X700847Y371606D01*
X700919Y371507D01*
X700993Y371411D01*
X701071Y371316D01*
X701152Y371225D01*
X701235Y371135D01*
X701321Y371049D01*
X701411Y370966D01*
X701502Y370885D01*
X701597Y370807D01*
X701693Y370733D01*
X701792Y370661D01*
X701894Y370593D01*
X701997Y370528D01*
X702102Y370466D01*
X702210Y370408D01*
X702319Y370353D01*
X702430Y370302D01*
X702542Y370254D01*
X702656Y370210D01*
X702771Y370170D01*
X702888Y370133D01*
X703006Y370101D01*
X703124Y370072D01*
X703244Y370046D01*
X703364Y370025D01*
X703485Y370007D01*
X703606Y369994D01*
X703728Y369984D01*
X703850Y369978D01*
X703972Y369976D01*
X700162Y496214D02*
X700164Y496336D01*
X700170Y496458D01*
X700180Y496580D01*
X700193Y496701D01*
X700211Y496822D01*
X700232Y496942D01*
X700258Y497062D01*
X700287Y497180D01*
X700319Y497298D01*
X700356Y497415D01*
X700396Y497530D01*
X700440Y497644D01*
X700488Y497756D01*
X700539Y497867D01*
X700594Y497976D01*
X700652Y498084D01*
X700714Y498189D01*
X700779Y498292D01*
X700847Y498394D01*
X700919Y498493D01*
X700993Y498589D01*
X701071Y498684D01*
X701152Y498775D01*
X701235Y498865D01*
X701321Y498951D01*
X701411Y499034D01*
X701502Y499115D01*
X701597Y499193D01*
X701693Y499267D01*
X701792Y499339D01*
X701894Y499407D01*
X701997Y499472D01*
X702102Y499534D01*
X702210Y499592D01*
X702319Y499647D01*
X702430Y499698D01*
X702542Y499746D01*
X702656Y499790D01*
X702771Y499830D01*
X702888Y499867D01*
X703006Y499899D01*
X703124Y499928D01*
X703244Y499954D01*
X703364Y499975D01*
X703485Y499993D01*
X703606Y500006D01*
X703728Y500016D01*
X703850Y500022D01*
X703972Y500024D01*
X774838Y373786D02*
X774836Y373664D01*
X774830Y373542D01*
X774820Y373420D01*
X774807Y373299D01*
X774789Y373178D01*
X774768Y373058D01*
X774742Y372938D01*
X774713Y372820D01*
X774681Y372702D01*
X774644Y372585D01*
X774604Y372470D01*
X774560Y372356D01*
X774512Y372244D01*
X774461Y372133D01*
X774406Y372024D01*
X774348Y371916D01*
X774286Y371811D01*
X774221Y371708D01*
X774153Y371606D01*
X774081Y371507D01*
X774007Y371411D01*
X773929Y371316D01*
X773848Y371225D01*
X773765Y371135D01*
X773679Y371049D01*
X773589Y370966D01*
X773498Y370885D01*
X773403Y370807D01*
X773307Y370733D01*
X773208Y370661D01*
X773106Y370593D01*
X773003Y370528D01*
X772898Y370466D01*
X772790Y370408D01*
X772681Y370353D01*
X772570Y370302D01*
X772458Y370254D01*
X772344Y370210D01*
X772229Y370170D01*
X772112Y370133D01*
X771994Y370101D01*
X771876Y370072D01*
X771756Y370046D01*
X771636Y370025D01*
X771515Y370007D01*
X771394Y369994D01*
X771272Y369984D01*
X771150Y369978D01*
X771028Y369976D01*
X774838Y373786D02*
X774838Y496214D01*
X771028Y500024D02*
X703972Y500024D01*
X703972Y369976D02*
X771028Y369976D01*
D12*
X771282Y370230D02*
X771282Y499770D01*
D19*
X750200Y369976D02*
X750196Y370285D01*
X750185Y370594D01*
X750166Y370903D01*
X750140Y371211D01*
X750106Y371519D01*
X750065Y371825D01*
X750016Y372131D01*
X749960Y372435D01*
X749896Y372737D01*
X749825Y373038D01*
X749747Y373338D01*
X749662Y373635D01*
X749569Y373930D01*
X749469Y374223D01*
X749362Y374513D01*
X749248Y374800D01*
X749127Y375085D01*
X748999Y375367D01*
X748865Y375645D01*
X748723Y375920D01*
X748575Y376192D01*
X748420Y376459D01*
X748259Y376723D01*
X748092Y376983D01*
X747918Y377239D01*
X747738Y377491D01*
X747552Y377738D01*
X747360Y377980D01*
X747162Y378218D01*
X746959Y378451D01*
X746749Y378679D01*
X746535Y378901D01*
X746315Y379119D01*
X746089Y379331D01*
X745859Y379537D01*
X745624Y379738D01*
X745384Y379933D01*
X745139Y380122D01*
X744890Y380305D01*
X744636Y380482D01*
X744378Y380652D01*
X744116Y380817D01*
X743850Y380975D01*
X743580Y381126D01*
X743307Y381271D01*
X743030Y381409D01*
X742750Y381540D01*
X742467Y381664D01*
X742181Y381782D01*
X741892Y381892D01*
X741601Y381996D01*
X741307Y382092D01*
X741011Y382181D01*
X740712Y382263D01*
X740412Y382338D01*
X740110Y382405D01*
X739807Y382465D01*
X739502Y382517D01*
X739196Y382562D01*
X738889Y382600D01*
X738581Y382630D01*
X738273Y382652D01*
X737964Y382668D01*
X737655Y382675D01*
X737345Y382675D01*
X737036Y382668D01*
X736727Y382652D01*
X736419Y382630D01*
X736111Y382600D01*
X735804Y382562D01*
X735498Y382517D01*
X735193Y382465D01*
X734890Y382405D01*
X734588Y382338D01*
X734288Y382263D01*
X733989Y382181D01*
X733693Y382092D01*
X733399Y381996D01*
X733108Y381892D01*
X732819Y381782D01*
X732533Y381664D01*
X732250Y381540D01*
X731970Y381409D01*
X731693Y381271D01*
X731420Y381126D01*
X731150Y380975D01*
X730884Y380817D01*
X730622Y380652D01*
X730364Y380482D01*
X730110Y380305D01*
X729861Y380122D01*
X729616Y379933D01*
X729376Y379738D01*
X729141Y379537D01*
X728911Y379331D01*
X728685Y379119D01*
X728465Y378901D01*
X728251Y378679D01*
X728041Y378451D01*
X727838Y378218D01*
X727640Y377980D01*
X727448Y377738D01*
X727262Y377491D01*
X727082Y377239D01*
X726908Y376983D01*
X726741Y376723D01*
X726580Y376459D01*
X726425Y376192D01*
X726277Y375920D01*
X726135Y375645D01*
X726001Y375367D01*
X725873Y375085D01*
X725752Y374800D01*
X725638Y374513D01*
X725531Y374223D01*
X725431Y373930D01*
X725338Y373635D01*
X725253Y373338D01*
X725175Y373038D01*
X725104Y372737D01*
X725040Y372435D01*
X724984Y372131D01*
X724935Y371825D01*
X724894Y371519D01*
X724860Y371211D01*
X724834Y370903D01*
X724815Y370594D01*
X724804Y370285D01*
X724800Y369976D01*
D21*
X775473Y377850D03*
X775473Y390550D03*
X775473Y403250D03*
X775473Y415950D03*
X775473Y428650D03*
X775473Y441350D03*
X775473Y454050D03*
X775473Y466750D03*
X699527Y377850D03*
X699527Y390550D03*
X699527Y403250D03*
X699527Y415950D03*
X699527Y428650D03*
X699527Y441350D03*
X699527Y454050D03*
X699527Y466750D03*
X699527Y479450D03*
X699527Y492150D03*
X775473Y479450D03*
X775473Y492150D03*
D17*
X762198Y363420D02*
X762198Y355793D01*
X763723Y354268D01*
X766774Y354268D01*
X768299Y355793D01*
X768299Y363420D01*
X776129Y363420D02*
X776129Y354268D01*
X771553Y358844D02*
X776129Y363420D01*
X777654Y358844D02*
X771553Y358844D01*
D12*
X756063Y344699D02*
X755131Y345631D01*
X753266Y345631D01*
X752334Y344699D01*
X752334Y340970D01*
X753266Y340038D01*
X755131Y340038D01*
X756063Y340970D01*
X757947Y340038D02*
X761676Y340038D01*
X757947Y340038D02*
X761676Y343767D01*
X761676Y344699D01*
X760744Y345631D01*
X758880Y345631D01*
X757947Y344699D01*
X763561Y340038D02*
X767289Y340038D01*
X763561Y340038D02*
X767289Y343767D01*
X767289Y344699D01*
X766357Y345631D01*
X764493Y345631D01*
X763561Y344699D01*
X599141Y436374D02*
X599141Y441967D01*
X601937Y441967D01*
X602869Y441035D01*
X602869Y439170D01*
X601937Y438238D01*
X599141Y438238D01*
X601005Y438238D02*
X602869Y436374D01*
X604754Y441967D02*
X608483Y441967D01*
X604754Y441967D02*
X604754Y439170D01*
X606618Y440103D01*
X607550Y440103D01*
X608483Y439170D01*
X608483Y437306D01*
X607550Y436374D01*
X605686Y436374D01*
X604754Y437306D01*
D13*
X58000Y205500D02*
X37000Y205500D01*
X83000Y198500D02*
X83000Y189500D01*
X83000Y145500D02*
X83000Y136500D01*
X58000Y129500D02*
X37000Y129500D01*
D17*
X-14008Y107048D02*
X-25702Y107048D01*
X-25702Y112895D01*
X-23753Y114844D01*
X-21804Y114844D01*
X-19855Y112895D01*
X-17906Y114844D01*
X-15957Y114844D01*
X-14008Y112895D01*
X-14008Y107048D01*
X-19855Y107048D02*
X-19855Y112895D01*
X-25702Y120691D02*
X-25702Y124589D01*
X-25702Y120691D02*
X-23753Y118742D01*
X-15957Y118742D01*
X-14008Y120691D01*
X-14008Y124589D01*
X-15957Y126538D01*
X-23753Y126538D01*
X-25702Y124589D01*
X-21804Y130436D02*
X-14008Y130436D01*
X-21804Y130436D02*
X-25702Y134334D01*
X-21804Y138232D01*
X-14008Y138232D01*
X-19855Y138232D02*
X-19855Y130436D01*
X-14008Y142130D02*
X-25702Y142130D01*
X-25702Y147977D01*
X-23753Y149926D01*
X-19855Y149926D01*
X-17906Y147977D01*
X-17906Y142130D01*
X-17906Y146028D02*
X-14008Y149926D01*
X-14008Y153824D02*
X-25702Y153824D01*
X-14008Y153824D02*
X-14008Y159671D01*
X-15957Y161620D01*
X-23753Y161620D01*
X-25702Y159671D01*
X-25702Y153824D01*
X-25702Y177212D02*
X-25702Y185008D01*
X-25702Y177212D02*
X-14008Y177212D01*
X-14008Y185008D01*
X-19855Y181110D02*
X-19855Y177212D01*
X-25702Y188906D02*
X-14008Y188906D01*
X-14008Y194753D01*
X-15957Y196702D01*
X-23753Y196702D01*
X-25702Y194753D01*
X-25702Y188906D01*
X-25702Y206447D02*
X-23753Y208396D01*
X-25702Y206447D02*
X-25702Y202549D01*
X-23753Y200600D01*
X-15957Y200600D01*
X-14008Y202549D01*
X-14008Y206447D01*
X-15957Y208396D01*
X-19855Y208396D01*
X-19855Y204498D01*
X-25702Y212294D02*
X-25702Y220090D01*
X-25702Y212294D02*
X-14008Y212294D01*
X-14008Y220090D01*
X-19855Y216192D02*
X-19855Y212294D01*
D19*
X47662Y230364D02*
X48764Y229262D01*
X49865Y229262D01*
X50967Y230364D01*
X50967Y235872D01*
X52068Y235872D02*
X49865Y235872D01*
X58451Y235872D02*
X58451Y229262D01*
X55146Y232567D02*
X58451Y235872D01*
X59553Y232567D02*
X55146Y232567D01*
D13*
X240200Y521350D02*
X233850Y527700D01*
X221150Y527700D01*
X214800Y521350D01*
X214800Y508650D01*
X221150Y502300D01*
X233850Y502300D01*
X240200Y508650D01*
X240200Y521350D01*
D10*
X252935Y515410D02*
X253740Y514605D01*
X254545Y514605D01*
X255350Y515410D01*
X255350Y519435D01*
X254545Y519435D02*
X256155Y519435D01*
X258548Y519435D02*
X261768Y519435D01*
X258548Y519435D02*
X258548Y517020D01*
X260158Y517825D01*
X260963Y517825D01*
X261768Y517020D01*
X261768Y515410D01*
X260963Y514605D01*
X259353Y514605D01*
X258548Y515410D01*
D13*
X64700Y398350D02*
X58350Y404700D01*
X45650Y404700D01*
X39300Y398350D01*
X39300Y385650D01*
X45650Y379300D01*
X58350Y379300D01*
X64700Y385650D01*
X64700Y398350D01*
D12*
X72054Y392156D02*
X72986Y391224D01*
X73918Y391224D01*
X74850Y392156D01*
X74850Y396817D01*
X73918Y396817D02*
X75783Y396817D01*
X79531Y395885D02*
X81396Y396817D01*
X79531Y395885D02*
X77667Y394020D01*
X77667Y392156D01*
X78599Y391224D01*
X80463Y391224D01*
X81396Y392156D01*
X81396Y393088D01*
X80463Y394020D01*
X77667Y394020D01*
D13*
X56350Y317700D02*
X62700Y311350D01*
X56350Y317700D02*
X43650Y317700D01*
X37300Y311350D01*
X37300Y298650D01*
X43650Y292300D01*
X56350Y292300D01*
X62700Y298650D01*
X62700Y311350D01*
D12*
X70054Y307656D02*
X70986Y306724D01*
X71918Y306724D01*
X72850Y307656D01*
X72850Y312317D01*
X71918Y312317D02*
X73783Y312317D01*
X75667Y312317D02*
X79396Y312317D01*
X79396Y311385D01*
X75667Y307656D01*
X75667Y306724D01*
D13*
X135200Y688850D02*
X128850Y695200D01*
X116150Y695200D01*
X109800Y688850D01*
X109800Y676150D01*
X116150Y669800D01*
X128850Y669800D01*
X135200Y676150D01*
X135200Y688850D01*
D10*
X111240Y697105D02*
X110435Y697910D01*
X111240Y697105D02*
X112045Y697105D01*
X112850Y697910D01*
X112850Y701935D01*
X112045Y701935D02*
X113655Y701935D01*
X116048Y701130D02*
X116853Y701935D01*
X118463Y701935D01*
X119268Y701130D01*
X119268Y700325D01*
X118463Y699520D01*
X119268Y698715D01*
X119268Y697910D01*
X118463Y697105D01*
X116853Y697105D01*
X116048Y697910D01*
X116048Y698715D01*
X116853Y699520D01*
X116048Y700325D01*
X116048Y701130D01*
X116853Y699520D02*
X118463Y699520D01*
D19*
X158000Y189250D02*
X158000Y130750D01*
X262000Y130750D02*
X262000Y189250D01*
D22*
X260000Y196000D03*
D19*
X262000Y130750D02*
X256000Y130750D01*
X164000Y130750D02*
X158000Y130750D01*
X256000Y189250D02*
X262000Y189250D01*
X164000Y189250D02*
X158000Y189250D01*
D12*
X264641Y157909D02*
X264641Y153249D01*
X265573Y152317D01*
X267437Y152317D01*
X268369Y153249D01*
X268369Y157909D01*
X270254Y157909D02*
X273983Y157909D01*
X273983Y156977D01*
X270254Y153249D01*
X270254Y152317D01*
X294131Y170467D02*
X295063Y169535D01*
X294131Y170467D02*
X292266Y170467D01*
X291334Y169535D01*
X291334Y165806D01*
X292266Y164874D01*
X294131Y164874D01*
X295063Y165806D01*
X296947Y164874D02*
X300676Y164874D01*
X296947Y164874D02*
X300676Y168603D01*
X300676Y169535D01*
X299744Y170467D01*
X297880Y170467D01*
X296947Y169535D01*
X302561Y169535D02*
X303493Y170467D01*
X305357Y170467D01*
X306289Y169535D01*
X306289Y168603D01*
X305357Y167670D01*
X304425Y167670D01*
X305357Y167670D02*
X306289Y166738D01*
X306289Y165806D01*
X305357Y164874D01*
X303493Y164874D01*
X302561Y165806D01*
D19*
X255388Y686444D02*
X255388Y693556D01*
X260722Y705240D02*
X264278Y705240D01*
X269612Y693556D02*
X269612Y690254D01*
X264278Y674760D02*
X260722Y674760D01*
X272660Y670950D02*
X272760Y670948D01*
X272859Y670942D01*
X272959Y670932D01*
X273057Y670919D01*
X273156Y670901D01*
X273253Y670880D01*
X273349Y670855D01*
X273445Y670826D01*
X273539Y670793D01*
X273632Y670757D01*
X273723Y670717D01*
X273813Y670673D01*
X273901Y670626D01*
X273987Y670576D01*
X274071Y670522D01*
X274153Y670465D01*
X274232Y670405D01*
X274310Y670341D01*
X274384Y670275D01*
X274456Y670206D01*
X274525Y670134D01*
X274591Y670060D01*
X274655Y669982D01*
X274715Y669903D01*
X274772Y669821D01*
X274826Y669737D01*
X274876Y669651D01*
X274923Y669563D01*
X274967Y669473D01*
X275007Y669382D01*
X275043Y669289D01*
X275076Y669195D01*
X275105Y669099D01*
X275130Y669003D01*
X275151Y668906D01*
X275169Y668807D01*
X275182Y668709D01*
X275192Y668609D01*
X275198Y668510D01*
X275200Y668410D01*
X275198Y668310D01*
X275192Y668211D01*
X275182Y668111D01*
X275169Y668013D01*
X275151Y667914D01*
X275130Y667817D01*
X275105Y667721D01*
X275076Y667625D01*
X275043Y667531D01*
X275007Y667438D01*
X274967Y667347D01*
X274923Y667257D01*
X274876Y667169D01*
X274826Y667083D01*
X274772Y666999D01*
X274715Y666917D01*
X274655Y666838D01*
X274591Y666760D01*
X274525Y666686D01*
X274456Y666614D01*
X274384Y666545D01*
X274310Y666479D01*
X274232Y666415D01*
X274153Y666355D01*
X274071Y666298D01*
X273987Y666244D01*
X273901Y666194D01*
X273813Y666147D01*
X273723Y666103D01*
X273632Y666063D01*
X273539Y666027D01*
X273445Y665994D01*
X273349Y665965D01*
X273253Y665940D01*
X273156Y665919D01*
X273057Y665901D01*
X272959Y665888D01*
X272859Y665878D01*
X272760Y665872D01*
X272660Y665870D01*
X272560Y665872D01*
X272461Y665878D01*
X272361Y665888D01*
X272263Y665901D01*
X272164Y665919D01*
X272067Y665940D01*
X271971Y665965D01*
X271875Y665994D01*
X271781Y666027D01*
X271688Y666063D01*
X271597Y666103D01*
X271507Y666147D01*
X271419Y666194D01*
X271333Y666244D01*
X271249Y666298D01*
X271167Y666355D01*
X271088Y666415D01*
X271010Y666479D01*
X270936Y666545D01*
X270864Y666614D01*
X270795Y666686D01*
X270729Y666760D01*
X270665Y666838D01*
X270605Y666917D01*
X270548Y666999D01*
X270494Y667083D01*
X270444Y667169D01*
X270397Y667257D01*
X270353Y667347D01*
X270313Y667438D01*
X270277Y667531D01*
X270244Y667625D01*
X270215Y667721D01*
X270190Y667817D01*
X270169Y667914D01*
X270151Y668013D01*
X270138Y668111D01*
X270128Y668211D01*
X270122Y668310D01*
X270120Y668410D01*
X270122Y668510D01*
X270128Y668609D01*
X270138Y668709D01*
X270151Y668807D01*
X270169Y668906D01*
X270190Y669003D01*
X270215Y669099D01*
X270244Y669195D01*
X270277Y669289D01*
X270313Y669382D01*
X270353Y669473D01*
X270397Y669563D01*
X270444Y669651D01*
X270494Y669737D01*
X270548Y669821D01*
X270605Y669903D01*
X270665Y669982D01*
X270729Y670060D01*
X270795Y670134D01*
X270864Y670206D01*
X270936Y670275D01*
X271010Y670341D01*
X271088Y670405D01*
X271167Y670465D01*
X271249Y670522D01*
X271333Y670576D01*
X271419Y670626D01*
X271507Y670673D01*
X271597Y670717D01*
X271688Y670757D01*
X271781Y670793D01*
X271875Y670826D01*
X271971Y670855D01*
X272067Y670880D01*
X272164Y670901D01*
X272263Y670919D01*
X272361Y670932D01*
X272461Y670942D01*
X272560Y670948D01*
X272660Y670950D01*
D12*
X248488Y667531D02*
X248488Y661175D01*
X249759Y659904D01*
X252301Y659904D01*
X253572Y661175D01*
X253572Y667531D01*
X255972Y664988D02*
X258514Y667531D01*
X258514Y659904D01*
X255972Y659904D02*
X261057Y659904D01*
X263456Y664988D02*
X265998Y667531D01*
X265998Y659904D01*
X263456Y659904D02*
X268541Y659904D01*
X289641Y732874D02*
X289641Y738467D01*
X292437Y738467D01*
X293369Y737535D01*
X293369Y735670D01*
X292437Y734738D01*
X289641Y734738D01*
X291505Y734738D02*
X293369Y732874D01*
X295254Y738467D02*
X298983Y738467D01*
X298983Y737535D01*
X295254Y733806D01*
X295254Y732874D01*
X781533Y575141D02*
X787126Y575141D01*
X781533Y575141D02*
X781533Y577937D01*
X782465Y578869D01*
X784330Y578869D01*
X785262Y577937D01*
X785262Y575141D01*
X785262Y577005D02*
X787126Y578869D01*
X782465Y580754D02*
X781533Y581686D01*
X781533Y583550D01*
X782465Y584483D01*
X783398Y584483D01*
X784330Y583550D01*
X785262Y584483D01*
X786194Y584483D01*
X787126Y583550D01*
X787126Y581686D01*
X786194Y580754D01*
X785262Y580754D01*
X784330Y581686D01*
X783398Y580754D01*
X782465Y580754D01*
X784330Y581686D02*
X784330Y583550D01*
X768126Y565641D02*
X762533Y565641D01*
X762533Y568437D01*
X763465Y569369D01*
X765330Y569369D01*
X766262Y568437D01*
X766262Y565641D01*
X766262Y567505D02*
X768126Y569369D01*
X767194Y571254D02*
X768126Y572186D01*
X768126Y574050D01*
X767194Y574983D01*
X763465Y574983D01*
X762533Y574050D01*
X762533Y572186D01*
X763465Y571254D01*
X764398Y571254D01*
X765330Y572186D01*
X765330Y574983D01*
X750126Y582334D02*
X744533Y582334D01*
X744533Y585131D01*
X745465Y586063D01*
X747330Y586063D01*
X748262Y585131D01*
X748262Y582334D01*
X748262Y584199D02*
X750126Y586063D01*
X746398Y587947D02*
X744533Y589812D01*
X750126Y589812D01*
X750126Y591676D02*
X750126Y587947D01*
X749194Y593561D02*
X745465Y593561D01*
X744533Y594493D01*
X744533Y596357D01*
X745465Y597289D01*
X749194Y597289D01*
X750126Y596357D01*
X750126Y594493D01*
X749194Y593561D01*
X745465Y597289D01*
X732126Y568334D02*
X726533Y568334D01*
X726533Y571131D01*
X727465Y572063D01*
X729330Y572063D01*
X730262Y571131D01*
X730262Y568334D01*
X730262Y570199D02*
X732126Y572063D01*
X728398Y573947D02*
X726533Y575812D01*
X732126Y575812D01*
X732126Y577676D02*
X732126Y573947D01*
X728398Y579561D02*
X726533Y581425D01*
X732126Y581425D01*
X732126Y579561D02*
X732126Y583289D01*
X679834Y583631D02*
X679834Y578038D01*
X679834Y583631D02*
X682631Y583631D01*
X683563Y582699D01*
X683563Y580834D01*
X682631Y579902D01*
X679834Y579902D01*
X681699Y579902D02*
X683563Y578038D01*
X685447Y581767D02*
X687312Y583631D01*
X687312Y578038D01*
X689176Y578038D02*
X685447Y578038D01*
X691061Y582699D02*
X691993Y583631D01*
X693857Y583631D01*
X694789Y582699D01*
X694789Y581767D01*
X693857Y580834D01*
X692925Y580834D01*
X693857Y580834D02*
X694789Y579902D01*
X694789Y578970D01*
X693857Y578038D01*
X691993Y578038D01*
X691061Y578970D01*
X698834Y578131D02*
X698834Y572538D01*
X698834Y578131D02*
X701631Y578131D01*
X702563Y577199D01*
X702563Y575334D01*
X701631Y574402D01*
X698834Y574402D01*
X700699Y574402D02*
X702563Y572538D01*
X704447Y572538D02*
X708176Y572538D01*
X704447Y572538D02*
X708176Y576267D01*
X708176Y577199D01*
X707244Y578131D01*
X705380Y578131D01*
X704447Y577199D01*
X710061Y578131D02*
X713789Y578131D01*
X710061Y578131D02*
X710061Y575334D01*
X711925Y576267D01*
X712857Y576267D01*
X713789Y575334D01*
X713789Y573470D01*
X712857Y572538D01*
X710993Y572538D01*
X710061Y573470D01*
X718334Y529631D02*
X718334Y524038D01*
X718334Y529631D02*
X721131Y529631D01*
X722063Y528699D01*
X722063Y526834D01*
X721131Y525902D01*
X718334Y525902D01*
X720199Y525902D02*
X722063Y524038D01*
X723947Y524038D02*
X727676Y524038D01*
X723947Y524038D02*
X727676Y527767D01*
X727676Y528699D01*
X726744Y529631D01*
X724880Y529631D01*
X723947Y528699D01*
X731425Y528699D02*
X733289Y529631D01*
X731425Y528699D02*
X729561Y526834D01*
X729561Y524970D01*
X730493Y524038D01*
X732357Y524038D01*
X733289Y524970D01*
X733289Y525902D01*
X732357Y526834D01*
X729561Y526834D01*
X703834Y516631D02*
X703834Y511038D01*
X703834Y516631D02*
X706631Y516631D01*
X707563Y515699D01*
X707563Y513834D01*
X706631Y512902D01*
X703834Y512902D01*
X705699Y512902D02*
X707563Y511038D01*
X709447Y511038D02*
X713176Y511038D01*
X709447Y511038D02*
X713176Y514767D01*
X713176Y515699D01*
X712244Y516631D01*
X710380Y516631D01*
X709447Y515699D01*
X715061Y516631D02*
X718789Y516631D01*
X718789Y515699D01*
X715061Y511970D01*
X715061Y511038D01*
D11*
X633646Y628503D02*
X641612Y636468D01*
X641612Y628503D02*
X633646Y636468D01*
X637629Y636468D02*
X637629Y628503D01*
X641612Y632486D02*
X633646Y632486D01*
D19*
X787748Y628884D02*
X787748Y707116D01*
X784446Y707116D01*
X629252Y707116D02*
X629252Y628884D01*
X632554Y628884D01*
X784446Y628884D02*
X787748Y628884D01*
X632554Y707116D02*
X629252Y707116D01*
D11*
X641612Y636468D02*
X633646Y628503D01*
X633646Y636468D02*
X641612Y628503D01*
X637629Y628503D02*
X637629Y636468D01*
X641612Y632486D02*
X633646Y632486D01*
X603615Y634022D02*
X603615Y643979D01*
X603615Y634022D02*
X605606Y632031D01*
X609589Y632031D01*
X611580Y634022D01*
X611580Y643979D01*
X615309Y632031D02*
X623274Y632031D01*
X615309Y632031D02*
X623274Y639996D01*
X623274Y641988D01*
X621283Y643979D01*
X617300Y643979D01*
X615309Y641988D01*
X769032Y173112D02*
X776997Y165146D01*
X769032Y165146D02*
X776997Y173112D01*
X776997Y169129D02*
X769032Y169129D01*
X773014Y173112D02*
X773014Y165146D01*
D19*
X776616Y319248D02*
X698384Y319248D01*
X698384Y315946D01*
X698384Y160752D02*
X776616Y160752D01*
X776616Y164054D01*
X776616Y315946D02*
X776616Y319248D01*
X698384Y164054D02*
X698384Y160752D01*
D11*
X769032Y173112D02*
X776997Y165146D01*
X769032Y165146D02*
X776997Y173112D01*
X776997Y169129D02*
X769032Y169129D01*
X773014Y173112D02*
X773014Y165146D01*
D12*
X775188Y155564D02*
X775188Y147514D01*
X776798Y145904D01*
X780018Y145904D01*
X781628Y147514D01*
X781628Y155564D01*
X784543Y153954D02*
X786153Y155564D01*
X789373Y155564D01*
X790983Y153954D01*
X790983Y152344D01*
X789373Y150734D01*
X787763Y150734D01*
X789373Y150734D02*
X790983Y149124D01*
X790983Y147514D01*
X789373Y145904D01*
X786153Y145904D01*
X784543Y147514D01*
D10*
X626110Y464190D02*
X626110Y471810D01*
X626110Y464190D02*
X628650Y461650D01*
X626110Y459110D01*
X626110Y451490D01*
X628650Y448950D01*
X626110Y446410D01*
X626110Y438790D01*
X628650Y436250D01*
X626110Y433710D01*
X626110Y426090D01*
X643890Y426090D02*
X643890Y433710D01*
X641350Y436250D01*
X643890Y438790D01*
X643890Y446410D01*
X641350Y448950D01*
X643890Y451490D01*
X643890Y459110D01*
X641350Y461650D01*
X643890Y464190D01*
X643890Y471810D01*
X638810Y476890D01*
X631190Y476890D02*
X626110Y471810D01*
X631190Y476890D02*
X638810Y476890D01*
X643890Y426090D02*
X638810Y421010D01*
X631190Y421010D01*
X626110Y426090D01*
D12*
X625606Y477914D02*
X624674Y478846D01*
X625606Y477914D02*
X626538Y477914D01*
X627470Y478846D01*
X627470Y483507D01*
X626538Y483507D02*
X628403Y483507D01*
X630287Y478846D02*
X631219Y477914D01*
X633083Y477914D01*
X634016Y478846D01*
X634016Y482575D01*
X633083Y483507D01*
X631219Y483507D01*
X630287Y482575D01*
X630287Y481643D01*
X631219Y480710D01*
X634016Y480710D01*
X716334Y117467D02*
X716334Y111874D01*
X716334Y117467D02*
X719131Y117467D01*
X720063Y116535D01*
X720063Y114670D01*
X719131Y113738D01*
X716334Y113738D01*
X718199Y113738D02*
X720063Y111874D01*
X721947Y115603D02*
X723812Y117467D01*
X723812Y111874D01*
X725676Y111874D02*
X721947Y111874D01*
X730357Y111874D02*
X730357Y117467D01*
X727561Y114670D01*
X731289Y114670D01*
X705334Y132374D02*
X705334Y137967D01*
X708131Y137967D01*
X709063Y137035D01*
X709063Y135170D01*
X708131Y134238D01*
X705334Y134238D01*
X707199Y134238D02*
X709063Y132374D01*
X710947Y136103D02*
X712812Y137967D01*
X712812Y132374D01*
X714676Y132374D02*
X710947Y132374D01*
X716561Y137967D02*
X720289Y137967D01*
X716561Y137967D02*
X716561Y135170D01*
X718425Y136103D01*
X719357Y136103D01*
X720289Y135170D01*
X720289Y133306D01*
X719357Y132374D01*
X717493Y132374D01*
X716561Y133306D01*
D23*
X673586Y80500D02*
X673588Y80575D01*
X673594Y80649D01*
X673604Y80723D01*
X673617Y80796D01*
X673635Y80869D01*
X673656Y80940D01*
X673681Y81011D01*
X673710Y81080D01*
X673743Y81147D01*
X673779Y81212D01*
X673818Y81276D01*
X673860Y81337D01*
X673906Y81396D01*
X673955Y81453D01*
X674007Y81506D01*
X674061Y81557D01*
X674118Y81606D01*
X674178Y81650D01*
X674240Y81692D01*
X674304Y81731D01*
X674370Y81766D01*
X674437Y81797D01*
X674507Y81825D01*
X674577Y81849D01*
X674649Y81870D01*
X674722Y81886D01*
X674795Y81899D01*
X674870Y81908D01*
X674944Y81913D01*
X675019Y81914D01*
X675093Y81911D01*
X675168Y81904D01*
X675241Y81893D01*
X675315Y81879D01*
X675387Y81860D01*
X675458Y81838D01*
X675528Y81812D01*
X675597Y81782D01*
X675663Y81749D01*
X675728Y81712D01*
X675791Y81672D01*
X675852Y81628D01*
X675910Y81582D01*
X675966Y81532D01*
X676019Y81480D01*
X676070Y81425D01*
X676117Y81367D01*
X676161Y81307D01*
X676202Y81244D01*
X676240Y81180D01*
X676274Y81114D01*
X676305Y81045D01*
X676332Y80976D01*
X676355Y80905D01*
X676374Y80833D01*
X676390Y80760D01*
X676402Y80686D01*
X676410Y80612D01*
X676414Y80537D01*
X676414Y80463D01*
X676410Y80388D01*
X676402Y80314D01*
X676390Y80240D01*
X676374Y80167D01*
X676355Y80095D01*
X676332Y80024D01*
X676305Y79955D01*
X676274Y79886D01*
X676240Y79820D01*
X676202Y79756D01*
X676161Y79693D01*
X676117Y79633D01*
X676070Y79575D01*
X676019Y79520D01*
X675966Y79468D01*
X675910Y79418D01*
X675852Y79372D01*
X675791Y79328D01*
X675728Y79288D01*
X675663Y79251D01*
X675597Y79218D01*
X675528Y79188D01*
X675458Y79162D01*
X675387Y79140D01*
X675315Y79121D01*
X675241Y79107D01*
X675168Y79096D01*
X675093Y79089D01*
X675019Y79086D01*
X674944Y79087D01*
X674870Y79092D01*
X674795Y79101D01*
X674722Y79114D01*
X674649Y79130D01*
X674577Y79151D01*
X674507Y79175D01*
X674437Y79203D01*
X674370Y79234D01*
X674304Y79269D01*
X674240Y79308D01*
X674178Y79350D01*
X674118Y79394D01*
X674061Y79443D01*
X674007Y79494D01*
X673955Y79547D01*
X673906Y79604D01*
X673860Y79663D01*
X673818Y79724D01*
X673779Y79788D01*
X673743Y79853D01*
X673710Y79920D01*
X673681Y79989D01*
X673656Y80060D01*
X673635Y80131D01*
X673617Y80204D01*
X673604Y80277D01*
X673594Y80351D01*
X673588Y80425D01*
X673586Y80500D01*
D16*
X685000Y31500D02*
X715000Y31500D01*
X670000Y57500D02*
X670000Y74000D01*
X722500Y74000D02*
X730000Y74000D01*
X730000Y57500D01*
X677500Y74000D02*
X670000Y74000D01*
D11*
X645140Y59291D02*
X643911Y60520D01*
X645140Y59291D02*
X646368Y59291D01*
X647597Y60520D01*
X647597Y66663D01*
X646368Y66663D02*
X648826Y66663D01*
X651395Y64206D02*
X653853Y66663D01*
X653853Y59291D01*
X656310Y59291D02*
X651395Y59291D01*
X658879Y60520D02*
X658879Y65435D01*
X660108Y66663D01*
X662565Y66663D01*
X663794Y65435D01*
X663794Y60520D01*
X662565Y59291D01*
X660108Y59291D01*
X658879Y60520D01*
X663794Y65435D01*
D12*
X600334Y394038D02*
X600334Y399631D01*
X603131Y399631D01*
X604063Y398699D01*
X604063Y396834D01*
X603131Y395902D01*
X600334Y395902D01*
X602199Y395902D02*
X604063Y394038D01*
X605947Y394038D02*
X609676Y394038D01*
X605947Y394038D02*
X609676Y397767D01*
X609676Y398699D01*
X608744Y399631D01*
X606880Y399631D01*
X605947Y398699D01*
X611561Y398699D02*
X612493Y399631D01*
X614357Y399631D01*
X615289Y398699D01*
X615289Y397767D01*
X614357Y396834D01*
X615289Y395902D01*
X615289Y394970D01*
X614357Y394038D01*
X612493Y394038D01*
X611561Y394970D01*
X611561Y395902D01*
X612493Y396834D01*
X611561Y397767D01*
X611561Y398699D01*
X612493Y396834D02*
X614357Y396834D01*
X599334Y415038D02*
X599334Y420631D01*
X602131Y420631D01*
X603063Y419699D01*
X603063Y417834D01*
X602131Y416902D01*
X599334Y416902D01*
X601199Y416902D02*
X603063Y415038D01*
X604947Y415038D02*
X608676Y415038D01*
X604947Y415038D02*
X608676Y418767D01*
X608676Y419699D01*
X607744Y420631D01*
X605880Y420631D01*
X604947Y419699D01*
X610561Y415970D02*
X611493Y415038D01*
X613357Y415038D01*
X614289Y415970D01*
X614289Y419699D01*
X613357Y420631D01*
X611493Y420631D01*
X610561Y419699D01*
X610561Y418767D01*
X611493Y417834D01*
X614289Y417834D01*
X283834Y202631D02*
X283834Y197038D01*
X283834Y202631D02*
X286631Y202631D01*
X287563Y201699D01*
X287563Y199834D01*
X286631Y198902D01*
X283834Y198902D01*
X285699Y198902D02*
X287563Y197038D01*
X289447Y201699D02*
X290380Y202631D01*
X292244Y202631D01*
X293176Y201699D01*
X293176Y200767D01*
X292244Y199834D01*
X291312Y199834D01*
X292244Y199834D02*
X293176Y198902D01*
X293176Y197970D01*
X292244Y197038D01*
X290380Y197038D01*
X289447Y197970D01*
X295061Y197970D02*
X295061Y201699D01*
X295993Y202631D01*
X297857Y202631D01*
X298789Y201699D01*
X298789Y197970D01*
X297857Y197038D01*
X295993Y197038D01*
X295061Y197970D01*
X298789Y201699D01*
X285334Y219874D02*
X285334Y225467D01*
X288131Y225467D01*
X289063Y224535D01*
X289063Y222670D01*
X288131Y221738D01*
X285334Y221738D01*
X287199Y221738D02*
X289063Y219874D01*
X290947Y224535D02*
X291880Y225467D01*
X293744Y225467D01*
X294676Y224535D01*
X294676Y223603D01*
X293744Y222670D01*
X292812Y222670D01*
X293744Y222670D02*
X294676Y221738D01*
X294676Y220806D01*
X293744Y219874D01*
X291880Y219874D01*
X290947Y220806D01*
X296561Y223603D02*
X298425Y225467D01*
X298425Y219874D01*
X296561Y219874D02*
X300289Y219874D01*
X667631Y119467D02*
X668563Y118535D01*
X667631Y119467D02*
X665766Y119467D01*
X664834Y118535D01*
X664834Y114806D01*
X665766Y113874D01*
X667631Y113874D01*
X668563Y114806D01*
X670447Y117603D02*
X672312Y119467D01*
X672312Y113874D01*
X674176Y113874D02*
X670447Y113874D01*
X676061Y118535D02*
X676993Y119467D01*
X678857Y119467D01*
X679789Y118535D01*
X679789Y117603D01*
X678857Y116670D01*
X679789Y115738D01*
X679789Y114806D01*
X678857Y113874D01*
X676993Y113874D01*
X676061Y114806D01*
X676061Y115738D01*
X676993Y116670D01*
X676061Y117603D01*
X676061Y118535D01*
X676993Y116670D02*
X678857Y116670D01*
D19*
X632474Y188604D02*
X632472Y188550D01*
X632466Y188496D01*
X632457Y188442D01*
X632443Y188389D01*
X632426Y188338D01*
X632405Y188287D01*
X632381Y188239D01*
X632353Y188192D01*
X632322Y188147D01*
X632288Y188105D01*
X632251Y188065D01*
X632211Y188028D01*
X632169Y187994D01*
X632124Y187963D01*
X632077Y187935D01*
X632029Y187911D01*
X631978Y187890D01*
X631927Y187873D01*
X631874Y187859D01*
X631820Y187850D01*
X631766Y187844D01*
X631712Y187842D01*
X631658Y187844D01*
X631604Y187850D01*
X631550Y187859D01*
X631497Y187873D01*
X631446Y187890D01*
X631395Y187911D01*
X631347Y187935D01*
X631300Y187963D01*
X631255Y187994D01*
X631213Y188028D01*
X631173Y188065D01*
X631136Y188105D01*
X631102Y188147D01*
X631071Y188192D01*
X631043Y188239D01*
X631019Y188287D01*
X630998Y188338D01*
X630981Y188389D01*
X630967Y188442D01*
X630958Y188496D01*
X630952Y188550D01*
X630950Y188604D01*
X630952Y188658D01*
X630958Y188712D01*
X630967Y188766D01*
X630981Y188819D01*
X630998Y188870D01*
X631019Y188921D01*
X631043Y188969D01*
X631071Y189016D01*
X631102Y189061D01*
X631136Y189103D01*
X631173Y189143D01*
X631213Y189180D01*
X631255Y189214D01*
X631300Y189245D01*
X631347Y189273D01*
X631395Y189297D01*
X631446Y189318D01*
X631497Y189335D01*
X631550Y189349D01*
X631604Y189358D01*
X631658Y189364D01*
X631712Y189366D01*
X631766Y189364D01*
X631820Y189358D01*
X631874Y189349D01*
X631927Y189335D01*
X631978Y189318D01*
X632029Y189297D01*
X632077Y189273D01*
X632124Y189245D01*
X632169Y189214D01*
X632211Y189180D01*
X632251Y189143D01*
X632288Y189103D01*
X632322Y189061D01*
X632353Y189016D01*
X632381Y188969D01*
X632405Y188921D01*
X632426Y188870D01*
X632443Y188819D01*
X632457Y188766D01*
X632466Y188712D01*
X632472Y188658D01*
X632474Y188604D01*
X641872Y169808D02*
X658128Y169808D01*
X658128Y194192D02*
X641872Y194192D01*
X632474Y188604D02*
X632472Y188550D01*
X632466Y188496D01*
X632457Y188442D01*
X632443Y188389D01*
X632426Y188338D01*
X632405Y188287D01*
X632381Y188239D01*
X632353Y188192D01*
X632322Y188147D01*
X632288Y188105D01*
X632251Y188065D01*
X632211Y188028D01*
X632169Y187994D01*
X632124Y187963D01*
X632077Y187935D01*
X632029Y187911D01*
X631978Y187890D01*
X631927Y187873D01*
X631874Y187859D01*
X631820Y187850D01*
X631766Y187844D01*
X631712Y187842D01*
X631658Y187844D01*
X631604Y187850D01*
X631550Y187859D01*
X631497Y187873D01*
X631446Y187890D01*
X631395Y187911D01*
X631347Y187935D01*
X631300Y187963D01*
X631255Y187994D01*
X631213Y188028D01*
X631173Y188065D01*
X631136Y188105D01*
X631102Y188147D01*
X631071Y188192D01*
X631043Y188239D01*
X631019Y188287D01*
X630998Y188338D01*
X630981Y188389D01*
X630967Y188442D01*
X630958Y188496D01*
X630952Y188550D01*
X630950Y188604D01*
X630952Y188658D01*
X630958Y188712D01*
X630967Y188766D01*
X630981Y188819D01*
X630998Y188870D01*
X631019Y188921D01*
X631043Y188969D01*
X631071Y189016D01*
X631102Y189061D01*
X631136Y189103D01*
X631173Y189143D01*
X631213Y189180D01*
X631255Y189214D01*
X631300Y189245D01*
X631347Y189273D01*
X631395Y189297D01*
X631446Y189318D01*
X631497Y189335D01*
X631550Y189349D01*
X631604Y189358D01*
X631658Y189364D01*
X631712Y189366D01*
X631766Y189364D01*
X631820Y189358D01*
X631874Y189349D01*
X631927Y189335D01*
X631978Y189318D01*
X632029Y189297D01*
X632077Y189273D01*
X632124Y189245D01*
X632169Y189214D01*
X632211Y189180D01*
X632251Y189143D01*
X632288Y189103D01*
X632322Y189061D01*
X632353Y189016D01*
X632381Y188969D01*
X632405Y188921D01*
X632426Y188870D01*
X632443Y188819D01*
X632457Y188766D01*
X632466Y188712D01*
X632472Y188658D01*
X632474Y188604D01*
D12*
X631488Y202514D02*
X631488Y208954D01*
X633098Y210564D01*
X636318Y210564D01*
X637928Y208954D01*
X637928Y202514D01*
X636318Y200904D01*
X633098Y200904D01*
X631488Y202514D01*
X634708Y204124D02*
X637928Y200904D01*
X640843Y207344D02*
X644063Y210564D01*
X644063Y200904D01*
X640843Y200904D02*
X647283Y200904D01*
D24*
X651427Y170355D02*
X654223Y170355D01*
X651427Y170355D02*
X651427Y171753D01*
X651893Y172219D01*
X652359Y172219D01*
X652825Y171753D01*
X653291Y172219D01*
X653757Y172219D01*
X654223Y171753D01*
X654223Y170355D01*
X652825Y170355D02*
X652825Y171753D01*
X651427Y174560D02*
X651893Y175026D01*
X651427Y174560D02*
X651427Y173628D01*
X651893Y173162D01*
X652359Y173162D01*
X652825Y173628D01*
X652825Y174560D01*
X653291Y175026D01*
X653757Y175026D01*
X654223Y174560D01*
X654223Y173628D01*
X653757Y173162D01*
X651427Y177366D02*
X651893Y177832D01*
X651427Y177366D02*
X651427Y176434D01*
X651893Y175968D01*
X652359Y175968D01*
X652825Y176434D01*
X652825Y177366D01*
X653291Y177832D01*
X653757Y177832D01*
X654223Y177366D01*
X654223Y176434D01*
X653757Y175968D01*
X652359Y178775D02*
X651427Y179707D01*
X654223Y179707D01*
X654223Y178775D02*
X654223Y180639D01*
X651893Y181581D02*
X651427Y182047D01*
X651427Y182979D01*
X651893Y183445D01*
X652359Y183445D01*
X652825Y182979D01*
X652825Y182513D01*
X652825Y182979D02*
X653291Y183445D01*
X653757Y183445D01*
X654223Y182979D01*
X654223Y182047D01*
X653757Y181581D01*
X651893Y184388D02*
X651427Y184854D01*
X651427Y185786D01*
X651893Y186252D01*
X652359Y186252D01*
X652825Y185786D01*
X653291Y186252D01*
X653757Y186252D01*
X654223Y185786D01*
X654223Y184854D01*
X653757Y184388D01*
X653291Y184388D01*
X652825Y184854D01*
X652359Y184388D01*
X651893Y184388D01*
X652825Y184854D02*
X652825Y185786D01*
X651427Y187194D02*
X654223Y187194D01*
X654223Y188592D01*
X653757Y189058D01*
X651893Y189058D01*
X651427Y188592D01*
X651427Y187194D01*
X651427Y190001D02*
X654223Y190001D01*
X653291Y190933D01*
X654223Y191865D01*
X651427Y191865D01*
X652825Y192807D02*
X652825Y194672D01*
X651427Y195614D02*
X651427Y197478D01*
X651893Y197478D01*
X653757Y195614D01*
X654223Y195614D01*
X652825Y198420D02*
X652825Y200285D01*
X654223Y201227D02*
X651427Y201227D01*
X651427Y203091D01*
X652825Y202159D02*
X652825Y201227D01*
D12*
X599334Y457874D02*
X599334Y463467D01*
X602131Y463467D01*
X603063Y462535D01*
X603063Y460670D01*
X602131Y459738D01*
X599334Y459738D01*
X601199Y459738D02*
X603063Y457874D01*
X604947Y462535D02*
X605880Y463467D01*
X607744Y463467D01*
X608676Y462535D01*
X608676Y461603D01*
X607744Y460670D01*
X606812Y460670D01*
X607744Y460670D02*
X608676Y459738D01*
X608676Y458806D01*
X607744Y457874D01*
X605880Y457874D01*
X604947Y458806D01*
X610561Y462535D02*
X611493Y463467D01*
X613357Y463467D01*
X614289Y462535D01*
X614289Y461603D01*
X613357Y460670D01*
X612425Y460670D01*
X613357Y460670D02*
X614289Y459738D01*
X614289Y458806D01*
X613357Y457874D01*
X611493Y457874D01*
X610561Y458806D01*
X614834Y389967D02*
X614834Y384374D01*
X614834Y389967D02*
X617631Y389967D01*
X618563Y389035D01*
X618563Y387170D01*
X617631Y386238D01*
X614834Y386238D01*
X616699Y386238D02*
X618563Y384374D01*
X620447Y389035D02*
X621380Y389967D01*
X623244Y389967D01*
X624176Y389035D01*
X624176Y388103D01*
X623244Y387170D01*
X622312Y387170D01*
X623244Y387170D02*
X624176Y386238D01*
X624176Y385306D01*
X623244Y384374D01*
X621380Y384374D01*
X620447Y385306D01*
X628857Y384374D02*
X628857Y389967D01*
X626061Y387170D01*
X629789Y387170D01*
X641834Y356631D02*
X641834Y351038D01*
X641834Y356631D02*
X644631Y356631D01*
X645563Y355699D01*
X645563Y353834D01*
X644631Y352902D01*
X641834Y352902D01*
X643699Y352902D02*
X645563Y351038D01*
X647447Y355699D02*
X648380Y356631D01*
X650244Y356631D01*
X651176Y355699D01*
X651176Y354767D01*
X650244Y353834D01*
X649312Y353834D01*
X650244Y353834D02*
X651176Y352902D01*
X651176Y351970D01*
X650244Y351038D01*
X648380Y351038D01*
X647447Y351970D01*
X653061Y356631D02*
X656789Y356631D01*
X653061Y356631D02*
X653061Y353834D01*
X654925Y354767D01*
X655857Y354767D01*
X656789Y353834D01*
X656789Y351970D01*
X655857Y351038D01*
X653993Y351038D01*
X653061Y351970D01*
X499462Y642334D02*
X493869Y642334D01*
X493869Y645131D01*
X494801Y646063D01*
X496666Y646063D01*
X497598Y645131D01*
X497598Y642334D01*
X497598Y644199D02*
X499462Y646063D01*
X494801Y647947D02*
X493869Y648880D01*
X493869Y650744D01*
X494801Y651676D01*
X495734Y651676D01*
X496666Y650744D01*
X496666Y649812D01*
X496666Y650744D02*
X497598Y651676D01*
X498530Y651676D01*
X499462Y650744D01*
X499462Y648880D01*
X498530Y647947D01*
X494801Y655425D02*
X493869Y657289D01*
X494801Y655425D02*
X496666Y653561D01*
X498530Y653561D01*
X499462Y654493D01*
X499462Y656357D01*
X498530Y657289D01*
X497598Y657289D01*
X496666Y656357D01*
X496666Y653561D01*
D10*
X441500Y4750D02*
X310500Y4750D01*
X317240Y145250D02*
X367260Y145250D01*
X424740Y145250D02*
X434760Y145250D01*
D25*
X398800Y250D02*
X398802Y313D01*
X398808Y375D01*
X398818Y437D01*
X398831Y499D01*
X398849Y559D01*
X398870Y618D01*
X398895Y676D01*
X398924Y732D01*
X398956Y786D01*
X398991Y838D01*
X399029Y887D01*
X399071Y935D01*
X399115Y979D01*
X399163Y1021D01*
X399212Y1059D01*
X399264Y1094D01*
X399318Y1126D01*
X399374Y1155D01*
X399432Y1180D01*
X399491Y1201D01*
X399551Y1219D01*
X399613Y1232D01*
X399675Y1242D01*
X399737Y1248D01*
X399800Y1250D01*
X399863Y1248D01*
X399925Y1242D01*
X399987Y1232D01*
X400049Y1219D01*
X400109Y1201D01*
X400168Y1180D01*
X400226Y1155D01*
X400282Y1126D01*
X400336Y1094D01*
X400388Y1059D01*
X400437Y1021D01*
X400485Y979D01*
X400529Y935D01*
X400571Y887D01*
X400609Y838D01*
X400644Y786D01*
X400676Y732D01*
X400705Y676D01*
X400730Y618D01*
X400751Y559D01*
X400769Y499D01*
X400782Y437D01*
X400792Y375D01*
X400798Y313D01*
X400800Y250D01*
X400798Y187D01*
X400792Y125D01*
X400782Y63D01*
X400769Y1D01*
X400751Y-59D01*
X400730Y-118D01*
X400705Y-176D01*
X400676Y-232D01*
X400644Y-286D01*
X400609Y-338D01*
X400571Y-387D01*
X400529Y-435D01*
X400485Y-479D01*
X400437Y-521D01*
X400388Y-559D01*
X400336Y-594D01*
X400282Y-626D01*
X400226Y-655D01*
X400168Y-680D01*
X400109Y-701D01*
X400049Y-719D01*
X399987Y-732D01*
X399925Y-742D01*
X399863Y-748D01*
X399800Y-750D01*
X399737Y-748D01*
X399675Y-742D01*
X399613Y-732D01*
X399551Y-719D01*
X399491Y-701D01*
X399432Y-680D01*
X399374Y-655D01*
X399318Y-626D01*
X399264Y-594D01*
X399212Y-559D01*
X399163Y-521D01*
X399115Y-479D01*
X399071Y-435D01*
X399029Y-387D01*
X398991Y-338D01*
X398956Y-286D01*
X398924Y-232D01*
X398895Y-176D01*
X398870Y-118D01*
X398849Y-59D01*
X398831Y1D01*
X398818Y63D01*
X398808Y125D01*
X398802Y187D01*
X398800Y250D01*
D10*
X441500Y31750D02*
X441500Y60750D01*
X441500Y90750D02*
X441500Y111750D01*
D17*
X333403Y153996D02*
X331452Y155947D01*
X333403Y153996D02*
X335353Y153996D01*
X337304Y155947D01*
X337304Y165699D01*
X339254Y165699D02*
X335353Y165699D01*
X343154Y163748D02*
X345105Y165699D01*
X349006Y165699D01*
X350956Y163748D01*
X350956Y161798D01*
X349006Y159848D01*
X347055Y159848D01*
X349006Y159848D02*
X350956Y157897D01*
X350956Y155947D01*
X349006Y153996D01*
X345105Y153996D01*
X343154Y155947D01*
D12*
X524364Y353057D02*
X523705Y353716D01*
X524364Y353057D02*
X527000Y353057D01*
X527000Y355694D01*
X526341Y356353D01*
X527000Y353057D02*
X528977Y351080D01*
X528992Y356367D02*
X528992Y359004D01*
X532946Y355049D01*
X531628Y353731D02*
X534265Y356367D01*
D13*
X565910Y205442D02*
X609090Y205442D01*
X565910Y244558D02*
X565788Y244556D01*
X565666Y244550D01*
X565544Y244540D01*
X565423Y244527D01*
X565302Y244509D01*
X565182Y244488D01*
X565062Y244462D01*
X564944Y244433D01*
X564826Y244401D01*
X564709Y244364D01*
X564594Y244324D01*
X564480Y244280D01*
X564368Y244232D01*
X564257Y244181D01*
X564148Y244126D01*
X564040Y244068D01*
X563935Y244006D01*
X563832Y243941D01*
X563730Y243873D01*
X563631Y243801D01*
X563535Y243727D01*
X563440Y243649D01*
X563349Y243568D01*
X563259Y243485D01*
X563173Y243399D01*
X563090Y243309D01*
X563009Y243218D01*
X562931Y243123D01*
X562857Y243027D01*
X562785Y242928D01*
X562717Y242826D01*
X562652Y242723D01*
X562590Y242618D01*
X562532Y242510D01*
X562477Y242401D01*
X562426Y242290D01*
X562378Y242178D01*
X562334Y242064D01*
X562294Y241949D01*
X562257Y241832D01*
X562225Y241714D01*
X562196Y241596D01*
X562170Y241476D01*
X562149Y241356D01*
X562131Y241235D01*
X562118Y241114D01*
X562108Y240992D01*
X562102Y240870D01*
X562100Y240748D01*
X609090Y205442D02*
X609212Y205444D01*
X609334Y205450D01*
X609456Y205460D01*
X609577Y205473D01*
X609698Y205491D01*
X609818Y205512D01*
X609938Y205538D01*
X610056Y205567D01*
X610174Y205599D01*
X610291Y205636D01*
X610406Y205676D01*
X610520Y205720D01*
X610632Y205768D01*
X610743Y205819D01*
X610852Y205874D01*
X610960Y205932D01*
X611065Y205994D01*
X611168Y206059D01*
X611270Y206127D01*
X611369Y206199D01*
X611465Y206273D01*
X611560Y206351D01*
X611651Y206432D01*
X611741Y206515D01*
X611827Y206601D01*
X611910Y206691D01*
X611991Y206782D01*
X612069Y206877D01*
X612143Y206973D01*
X612215Y207072D01*
X612283Y207174D01*
X612348Y207277D01*
X612410Y207382D01*
X612468Y207490D01*
X612523Y207599D01*
X612574Y207710D01*
X612622Y207822D01*
X612666Y207936D01*
X612706Y208051D01*
X612743Y208168D01*
X612775Y208286D01*
X612804Y208404D01*
X612830Y208524D01*
X612851Y208644D01*
X612869Y208765D01*
X612882Y208886D01*
X612892Y209008D01*
X612898Y209130D01*
X612900Y209252D01*
X565910Y205442D02*
X565788Y205444D01*
X565666Y205450D01*
X565544Y205460D01*
X565423Y205473D01*
X565302Y205491D01*
X565182Y205512D01*
X565062Y205538D01*
X564944Y205567D01*
X564826Y205599D01*
X564709Y205636D01*
X564594Y205676D01*
X564480Y205720D01*
X564368Y205768D01*
X564257Y205819D01*
X564148Y205874D01*
X564040Y205932D01*
X563935Y205994D01*
X563832Y206059D01*
X563730Y206127D01*
X563631Y206199D01*
X563535Y206273D01*
X563440Y206351D01*
X563349Y206432D01*
X563259Y206515D01*
X563173Y206601D01*
X563090Y206691D01*
X563009Y206782D01*
X562931Y206877D01*
X562857Y206973D01*
X562785Y207072D01*
X562717Y207174D01*
X562652Y207277D01*
X562590Y207382D01*
X562532Y207490D01*
X562477Y207599D01*
X562426Y207710D01*
X562378Y207822D01*
X562334Y207936D01*
X562294Y208051D01*
X562257Y208168D01*
X562225Y208286D01*
X562196Y208404D01*
X562170Y208524D01*
X562149Y208644D01*
X562131Y208765D01*
X562118Y208886D01*
X562108Y209008D01*
X562102Y209130D01*
X562100Y209252D01*
X609090Y244558D02*
X609212Y244556D01*
X609334Y244550D01*
X609456Y244540D01*
X609577Y244527D01*
X609698Y244509D01*
X609818Y244488D01*
X609938Y244462D01*
X610056Y244433D01*
X610174Y244401D01*
X610291Y244364D01*
X610406Y244324D01*
X610520Y244280D01*
X610632Y244232D01*
X610743Y244181D01*
X610852Y244126D01*
X610960Y244068D01*
X611065Y244006D01*
X611168Y243941D01*
X611270Y243873D01*
X611369Y243801D01*
X611465Y243727D01*
X611560Y243649D01*
X611651Y243568D01*
X611741Y243485D01*
X611827Y243399D01*
X611910Y243309D01*
X611991Y243218D01*
X612069Y243123D01*
X612143Y243027D01*
X612215Y242928D01*
X612283Y242826D01*
X612348Y242723D01*
X612410Y242618D01*
X612468Y242510D01*
X612523Y242401D01*
X612574Y242290D01*
X612622Y242178D01*
X612666Y242064D01*
X612706Y241949D01*
X612743Y241832D01*
X612775Y241714D01*
X612804Y241596D01*
X612830Y241476D01*
X612851Y241356D01*
X612869Y241235D01*
X612882Y241114D01*
X612892Y240992D01*
X612898Y240870D01*
X612900Y240748D01*
X609090Y244558D02*
X565910Y244558D01*
X562100Y240748D02*
X562100Y209252D01*
X612900Y209252D02*
X612900Y219920D01*
X612900Y230080D01*
X612900Y240748D01*
X612900Y230080D02*
X612759Y230078D01*
X612618Y230072D01*
X612477Y230062D01*
X612336Y230049D01*
X612196Y230031D01*
X612057Y230009D01*
X611918Y229984D01*
X611779Y229955D01*
X611642Y229922D01*
X611506Y229885D01*
X611371Y229844D01*
X611236Y229800D01*
X611104Y229752D01*
X610972Y229700D01*
X610842Y229645D01*
X610714Y229586D01*
X610587Y229523D01*
X610463Y229457D01*
X610340Y229388D01*
X610219Y229315D01*
X610100Y229239D01*
X609983Y229159D01*
X609869Y229076D01*
X609756Y228991D01*
X609647Y228902D01*
X609539Y228810D01*
X609435Y228715D01*
X609333Y228617D01*
X609234Y228516D01*
X609137Y228413D01*
X609044Y228307D01*
X608954Y228199D01*
X608866Y228088D01*
X608782Y227975D01*
X608701Y227859D01*
X608623Y227741D01*
X608548Y227621D01*
X608477Y227499D01*
X608409Y227375D01*
X608345Y227249D01*
X608284Y227122D01*
X608227Y226993D01*
X608174Y226862D01*
X608124Y226730D01*
X608077Y226597D01*
X608035Y226462D01*
X607996Y226326D01*
X607961Y226189D01*
X607930Y226052D01*
X607903Y225913D01*
X607879Y225774D01*
X607860Y225634D01*
X607844Y225494D01*
X607832Y225353D01*
X607824Y225212D01*
X607820Y225071D01*
X607820Y224929D01*
X607824Y224788D01*
X607832Y224647D01*
X607844Y224506D01*
X607860Y224366D01*
X607879Y224226D01*
X607903Y224087D01*
X607930Y223948D01*
X607961Y223811D01*
X607996Y223674D01*
X608035Y223538D01*
X608077Y223403D01*
X608124Y223270D01*
X608174Y223138D01*
X608227Y223007D01*
X608284Y222878D01*
X608345Y222751D01*
X608409Y222625D01*
X608477Y222501D01*
X608548Y222379D01*
X608623Y222259D01*
X608701Y222141D01*
X608782Y222025D01*
X608866Y221912D01*
X608954Y221801D01*
X609044Y221693D01*
X609137Y221587D01*
X609234Y221484D01*
X609333Y221383D01*
X609435Y221285D01*
X609539Y221190D01*
X609647Y221098D01*
X609756Y221009D01*
X609869Y220924D01*
X609983Y220841D01*
X610100Y220761D01*
X610219Y220685D01*
X610340Y220612D01*
X610463Y220543D01*
X610587Y220477D01*
X610714Y220414D01*
X610842Y220355D01*
X610972Y220300D01*
X611104Y220248D01*
X611236Y220200D01*
X611371Y220156D01*
X611506Y220115D01*
X611642Y220078D01*
X611779Y220045D01*
X611918Y220016D01*
X612057Y219991D01*
X612196Y219969D01*
X612336Y219951D01*
X612477Y219938D01*
X612618Y219928D01*
X612759Y219922D01*
X612900Y219920D01*
X612900Y241002D02*
X562100Y241002D01*
D26*
X616710Y244050D03*
D12*
X617141Y231287D02*
X617141Y226626D01*
X618073Y225694D01*
X619937Y225694D01*
X620869Y226626D01*
X620869Y231287D01*
X622754Y231287D02*
X626483Y231287D01*
X622754Y231287D02*
X622754Y228490D01*
X624618Y229423D01*
X625550Y229423D01*
X626483Y228490D01*
X626483Y226626D01*
X625550Y225694D01*
X623686Y225694D01*
X622754Y226626D01*
D13*
X135200Y51350D02*
X128850Y57700D01*
X116150Y57700D01*
X109800Y51350D01*
X109800Y38650D01*
X116150Y32300D01*
X128850Y32300D01*
X135200Y38650D01*
X135200Y51350D01*
D10*
X111240Y59605D02*
X110435Y60410D01*
X111240Y59605D02*
X112045Y59605D01*
X112850Y60410D01*
X112850Y64435D01*
X112045Y64435D02*
X113655Y64435D01*
X116048Y62825D02*
X117658Y64435D01*
X117658Y59605D01*
X116048Y59605D02*
X119268Y59605D01*
X121661Y62825D02*
X123271Y64435D01*
X123271Y59605D01*
X121661Y59605D02*
X124881Y59605D01*
D13*
X588100Y163500D02*
X613500Y138100D01*
X588100Y163500D02*
X511900Y163500D01*
X486500Y138100D01*
X486500Y125400D01*
X613500Y125400D02*
X613500Y138100D01*
X613500Y74600D02*
X613500Y59360D01*
X486500Y59360D02*
X486500Y74600D01*
X518250Y44120D02*
X518884Y44891D01*
X519536Y45646D01*
X520207Y46385D01*
X520895Y47107D01*
X521601Y47812D01*
X522324Y48500D01*
X523064Y49169D01*
X523820Y49820D01*
X524592Y50453D01*
X525379Y51066D01*
X526181Y51660D01*
X526997Y52234D01*
X527827Y52788D01*
X528670Y53322D01*
X529526Y53834D01*
X530395Y54326D01*
X531275Y54796D01*
X532166Y55244D01*
X533069Y55670D01*
X533981Y56074D01*
X534903Y56456D01*
X535834Y56815D01*
X536774Y57151D01*
X537721Y57463D01*
X538676Y57753D01*
X539638Y58019D01*
X540606Y58261D01*
X541579Y58479D01*
X542558Y58674D01*
X543541Y58844D01*
X544528Y58990D01*
X545519Y59113D01*
X546512Y59210D01*
X547507Y59284D01*
X548504Y59332D01*
X549501Y59357D01*
X550499Y59357D01*
X551496Y59332D01*
X552493Y59284D01*
X553488Y59210D01*
X554481Y59113D01*
X555472Y58990D01*
X556459Y58844D01*
X557442Y58674D01*
X558421Y58479D01*
X559394Y58261D01*
X560362Y58019D01*
X561324Y57753D01*
X562279Y57463D01*
X563226Y57151D01*
X564166Y56815D01*
X565097Y56456D01*
X566019Y56074D01*
X566931Y55670D01*
X567834Y55244D01*
X568725Y54796D01*
X569605Y54326D01*
X570474Y53834D01*
X571330Y53322D01*
X572173Y52788D01*
X573003Y52234D01*
X573819Y51660D01*
X574621Y51066D01*
X575408Y50453D01*
X576180Y49820D01*
X576936Y49169D01*
X577676Y48500D01*
X578399Y47812D01*
X579105Y47107D01*
X579793Y46385D01*
X580464Y45646D01*
X581116Y44891D01*
X581750Y44120D01*
X582149Y43836D01*
X582555Y43563D01*
X582968Y43300D01*
X583386Y43046D01*
X583811Y42804D01*
X584242Y42571D01*
X584679Y42349D01*
X585120Y42138D01*
X585567Y41938D01*
X586018Y41749D01*
X586474Y41571D01*
X586934Y41404D01*
X587398Y41249D01*
X587866Y41104D01*
X588337Y40972D01*
X588812Y40851D01*
X589289Y40741D01*
X589768Y40643D01*
X590250Y40557D01*
X590734Y40483D01*
X591219Y40421D01*
X591706Y40371D01*
X592194Y40332D01*
X592683Y40306D01*
X593172Y40291D01*
X593662Y40288D01*
X594151Y40298D01*
X594640Y40319D01*
X595128Y40353D01*
X595616Y40398D01*
X596102Y40455D01*
X596587Y40524D01*
X597069Y40605D01*
X597550Y40698D01*
X598028Y40802D01*
X598504Y40918D01*
X598976Y41046D01*
X599445Y41185D01*
X599911Y41336D01*
X600373Y41498D01*
X600831Y41671D01*
X601284Y41856D01*
X601733Y42051D01*
X602177Y42258D01*
X602615Y42475D01*
X603048Y42703D01*
X603476Y42941D01*
X603897Y43190D01*
X604313Y43449D01*
X604722Y43718D01*
X605124Y43997D01*
X605519Y44286D01*
X605907Y44584D01*
X606288Y44892D01*
X606661Y45209D01*
X607026Y45535D01*
X607383Y45870D01*
X607731Y46213D01*
X608071Y46565D01*
X608403Y46925D01*
X608725Y47294D01*
X609039Y47670D01*
X609343Y48053D01*
X609638Y48444D01*
X609923Y48842D01*
X610198Y49247D01*
X610463Y49658D01*
X610718Y50076D01*
X610963Y50500D01*
X611197Y50929D01*
X611421Y51365D01*
X611634Y51805D01*
X611836Y52251D01*
X612027Y52702D01*
X612207Y53157D01*
X612376Y53616D01*
X612534Y54080D01*
X612680Y54547D01*
X612815Y55017D01*
X612938Y55491D01*
X613050Y55968D01*
X613150Y56447D01*
X613238Y56928D01*
X613314Y57412D01*
X613379Y57897D01*
X613431Y58384D01*
X613472Y58871D01*
X613500Y59360D01*
X518250Y44120D02*
X517875Y43826D01*
X517492Y43541D01*
X517102Y43266D01*
X516706Y43000D01*
X516303Y42744D01*
X515895Y42498D01*
X515480Y42262D01*
X515060Y42036D01*
X514634Y41821D01*
X514204Y41616D01*
X513768Y41421D01*
X513328Y41238D01*
X512883Y41065D01*
X512434Y40903D01*
X511982Y40752D01*
X511526Y40612D01*
X511066Y40483D01*
X510604Y40366D01*
X510139Y40260D01*
X509671Y40165D01*
X509202Y40082D01*
X508730Y40010D01*
X508257Y39950D01*
X507782Y39901D01*
X507306Y39864D01*
X506830Y39838D01*
X506353Y39825D01*
X505876Y39823D01*
X505399Y39832D01*
X504923Y39853D01*
X504447Y39886D01*
X503972Y39931D01*
X503498Y39987D01*
X503026Y40054D01*
X502555Y40133D01*
X502087Y40224D01*
X501621Y40326D01*
X501157Y40439D01*
X500697Y40564D01*
X500240Y40700D01*
X499786Y40847D01*
X499336Y41005D01*
X498889Y41174D01*
X498448Y41353D01*
X498010Y41544D01*
X497578Y41745D01*
X497150Y41957D01*
X496728Y42179D01*
X496311Y42411D01*
X495900Y42654D01*
X495495Y42906D01*
X495097Y43168D01*
X494705Y43440D01*
X494320Y43721D01*
X493941Y44012D01*
X493570Y44312D01*
X493207Y44621D01*
X492851Y44938D01*
X492503Y45264D01*
X492163Y45599D01*
X491831Y45942D01*
X491507Y46293D01*
X491193Y46651D01*
X490887Y47017D01*
X490590Y47391D01*
X490303Y47772D01*
X490025Y48159D01*
X489756Y48553D01*
X489497Y48954D01*
X489248Y49361D01*
X489009Y49774D01*
X488780Y50193D01*
X488562Y50617D01*
X488354Y51046D01*
X488156Y51480D01*
X487969Y51919D01*
X487793Y52362D01*
X487628Y52810D01*
X487473Y53261D01*
X487330Y53716D01*
X487198Y54175D01*
X487077Y54636D01*
X486968Y55101D01*
X486870Y55567D01*
X486783Y56037D01*
X486708Y56508D01*
X486644Y56980D01*
X486592Y57455D01*
X486552Y57930D01*
X486523Y58406D01*
X486506Y58883D01*
X486500Y59360D01*
D12*
X553834Y166254D02*
X553834Y171847D01*
X556631Y171847D01*
X557563Y170915D01*
X557563Y169983D01*
X556631Y169050D01*
X557563Y168118D01*
X557563Y167186D01*
X556631Y166254D01*
X553834Y166254D01*
X553834Y169050D02*
X556631Y169050D01*
X561312Y166254D02*
X561312Y171847D01*
X563176Y171847D02*
X559447Y171847D01*
X565061Y169983D02*
X566925Y171847D01*
X566925Y166254D01*
X565061Y166254D02*
X568789Y166254D01*
D19*
X440868Y280576D02*
X394132Y280576D01*
X440868Y280576D02*
X440868Y282862D01*
X440868Y334424D02*
X394132Y334424D01*
X394132Y332138D01*
X394132Y282862D02*
X394132Y280576D01*
X440868Y332138D02*
X440868Y334424D01*
D11*
X389270Y331716D02*
X381305Y339682D01*
X389270Y339682D02*
X381305Y331716D01*
X381305Y335699D02*
X389270Y335699D01*
X385288Y331716D02*
X385288Y339682D01*
X357615Y336522D02*
X357615Y346479D01*
X357615Y336522D02*
X359606Y334531D01*
X363589Y334531D01*
X365580Y336522D01*
X365580Y346479D01*
X369309Y344488D02*
X371300Y346479D01*
X375283Y346479D01*
X377274Y344488D01*
X377274Y342496D01*
X375283Y340505D01*
X377274Y338514D01*
X377274Y336522D01*
X375283Y334531D01*
X371300Y334531D01*
X369309Y336522D01*
X369309Y338514D01*
X371300Y340505D01*
X369309Y342496D01*
X369309Y344488D01*
X371300Y340505D02*
X375283Y340505D01*
D19*
X393624Y218076D02*
X441376Y218076D01*
X441376Y271924D02*
X393624Y271924D01*
D11*
X393497Y267530D02*
X401462Y259564D01*
X393497Y259564D02*
X401462Y267530D01*
X401462Y263547D02*
X393497Y263547D01*
X397480Y259564D02*
X397480Y267530D01*
X345115Y268522D02*
X345115Y278479D01*
X345115Y268522D02*
X347106Y266531D01*
X351089Y266531D01*
X353080Y268522D01*
X353080Y278479D01*
X356809Y274496D02*
X360792Y278479D01*
X360792Y266531D01*
X364774Y266531D02*
X356809Y266531D01*
X368503Y266531D02*
X376468Y266531D01*
X368503Y266531D02*
X376468Y274496D01*
X376468Y276488D01*
X374477Y278479D01*
X370494Y278479D01*
X368503Y276488D01*
D12*
X487369Y274631D02*
X488301Y275563D01*
X487369Y274631D02*
X487369Y272766D01*
X488301Y271834D01*
X492030Y271834D01*
X492962Y272766D01*
X492962Y274631D01*
X492030Y275563D01*
X492962Y277447D02*
X492962Y281176D01*
X489234Y281176D02*
X492962Y277447D01*
X489234Y281176D02*
X488301Y281176D01*
X487369Y280244D01*
X487369Y278380D01*
X488301Y277447D01*
X487369Y285857D02*
X492962Y285857D01*
X490166Y283061D02*
X487369Y285857D01*
X490166Y286789D02*
X490166Y283061D01*
X486869Y312631D02*
X487801Y313563D01*
X486869Y312631D02*
X486869Y310766D01*
X487801Y309834D01*
X491530Y309834D01*
X492462Y310766D01*
X492462Y312631D01*
X491530Y313563D01*
X492462Y315447D02*
X492462Y319176D01*
X488734Y319176D02*
X492462Y315447D01*
X488734Y319176D02*
X487801Y319176D01*
X486869Y318244D01*
X486869Y316380D01*
X487801Y315447D01*
X486869Y321061D02*
X486869Y324789D01*
X486869Y321061D02*
X489666Y321061D01*
X488734Y322925D01*
X488734Y323857D01*
X489666Y324789D01*
X491530Y324789D01*
X492462Y323857D01*
X492462Y321993D01*
X491530Y321061D01*
M02*
