G04 EAGLE Gerber RS-274X export*
G75*
%MOMM*%
%FSLAX34Y34*%
%LPD*%
%INSoldermask Bottom*%
%IPPOS*%
%AMOC8*
5,1,8,0,0,1.08239X$1,22.5*%
G01*
%ADD10C,2.235200*%
%ADD11C,1.422400*%
%ADD12C,6.045200*%
%ADD13C,6.553200*%
%ADD14C,1.103200*%
%ADD15C,2.082800*%
%ADD16C,1.203200*%
%ADD17R,2.984500X2.984500*%


D10*
X37500Y589400D03*
X83220Y589400D03*
D11*
X855314Y493745D02*
X867506Y493745D01*
X867506Y472155D02*
X855314Y472155D01*
X855314Y450565D02*
X867506Y450565D01*
X867506Y428975D02*
X855314Y428975D01*
X855314Y407385D02*
X867506Y407385D01*
X867506Y385795D02*
X855314Y385795D01*
X855314Y364205D02*
X867506Y364205D01*
X867506Y342615D02*
X855314Y342615D01*
X855314Y321025D02*
X867506Y321025D01*
X867506Y299435D02*
X855314Y299435D01*
X855314Y277845D02*
X867506Y277845D01*
X867506Y256255D02*
X855314Y256255D01*
X898494Y493745D02*
X910686Y493745D01*
X910686Y472155D02*
X898494Y472155D01*
X898494Y450565D02*
X910686Y450565D01*
X910686Y428975D02*
X898494Y428975D01*
X898494Y407385D02*
X910686Y407385D01*
X910686Y385795D02*
X898494Y385795D01*
X898494Y364205D02*
X910686Y364205D01*
X910686Y342615D02*
X898494Y342615D01*
X898494Y321025D02*
X910686Y321025D01*
X910686Y299435D02*
X898494Y299435D01*
X898494Y277845D02*
X910686Y277845D01*
X910686Y256255D02*
X898494Y256255D01*
D12*
X883000Y608934D03*
X883000Y141066D03*
D13*
X50000Y50000D03*
X950000Y50000D03*
X950000Y700000D03*
X50000Y700000D03*
D14*
X50000Y189500D03*
X50000Y145500D03*
D15*
X227500Y515000D03*
X52000Y392000D03*
X50000Y305000D03*
X122500Y682500D03*
D16*
X635000Y429900D03*
X635000Y442600D03*
X635000Y455300D03*
X635000Y468000D03*
D15*
X122500Y45000D03*
D17*
X616040Y100000D03*
X483960Y100000D03*
M02*
