G04 EAGLE Gerber RS-274X export*
G75*
%MOMM*%
%FSLAX34Y34*%
%LPD*%
%INSoldermask Top*%
%IPPOS*%
%AMOC8*
5,1,8,0,0,1.08239X$1,22.5*%
G01*
%ADD10R,1.203200X1.303200*%
%ADD11R,1.303200X1.203200*%
%ADD12C,1.203200*%
%ADD13R,1.603200X1.403200*%
%ADD14R,0.965200X1.727200*%
%ADD15R,1.603200X1.803200*%
%ADD16R,2.003200X1.803200*%
%ADD17R,0.753200X1.403200*%
%ADD18R,1.703200X0.703200*%
%ADD19R,0.703200X1.703200*%
%ADD20R,1.803200X1.603200*%
%ADD21R,3.203200X1.603200*%
%ADD22R,1.016000X1.727200*%
%ADD23R,3.327400X2.108200*%
%ADD24R,1.673200X1.727200*%
%ADD25C,0.793150*%
%ADD26C,2.235200*%
%ADD27R,2.103200X1.303200*%
%ADD28C,1.422400*%
%ADD29C,6.045200*%
%ADD30R,1.403200X1.603200*%
%ADD31R,1.473200X2.743200*%
%ADD32R,2.235200X0.863600*%
%ADD33C,6.553200*%
%ADD34R,2.703200X0.703200*%
%ADD35R,2.703200X2.203200*%
%ADD36C,1.103200*%
%ADD37C,2.082800*%
%ADD38R,0.551200X1.600200*%
%ADD39R,1.524000X0.762000*%
%ADD40R,0.762000X2.514600*%
%ADD41R,2.514600X0.762000*%
%ADD42R,0.803200X1.553200*%
%ADD43R,1.403200X2.203200*%
%ADD44R,0.803200X0.623200*%
%ADD45C,0.623200*%
%ADD46R,0.903200X1.303200*%
%ADD47R,1.343200X2.033200*%
%ADD48R,1.063200X3.003200*%
%ADD49R,0.903200X3.533200*%
%ADD50R,1.103200X1.133200*%
%ADD51R,1.253200X0.983200*%
%ADD52R,1.203200X2.703200*%
%ADD53R,2.703200X6.203200*%
%ADD54R,0.803200X1.403200*%
%ADD55R,2.984500X2.984500*%
%ADD56C,9.203200*%
%ADD57R,1.676400X0.558800*%
%ADD58R,1.879600X0.558800*%


D10*
X639420Y543900D03*
X639420Y526900D03*
D11*
X758700Y102320D03*
X775700Y102320D03*
D10*
X316950Y706900D03*
X316950Y689900D03*
D11*
X537100Y636700D03*
X554100Y636700D03*
D12*
X910200Y76920D03*
X899300Y718120D03*
D13*
X762370Y69800D03*
X762370Y39800D03*
D14*
X183750Y658760D03*
X183750Y714640D03*
X221850Y658760D03*
X221850Y714640D03*
D11*
X499400Y215000D03*
X516400Y215000D03*
X499400Y235500D03*
X516400Y235500D03*
D10*
X291600Y111900D03*
X291600Y128900D03*
D11*
X499400Y255900D03*
X516400Y255900D03*
D10*
X107300Y220600D03*
X107300Y237600D03*
X274600Y73400D03*
X274600Y56400D03*
D11*
X443900Y489900D03*
X426900Y489900D03*
X443100Y469600D03*
X426100Y469600D03*
D10*
X202700Y98400D03*
X202700Y81400D03*
D15*
X191600Y234000D03*
X163600Y234000D03*
D11*
X126600Y161500D03*
X143600Y161500D03*
X126600Y144000D03*
X143600Y144000D03*
D10*
X180400Y98600D03*
X180400Y81600D03*
D13*
X221000Y42700D03*
X221000Y72700D03*
X251000Y42700D03*
X251000Y72700D03*
D16*
X131500Y222600D03*
X131500Y250600D03*
D17*
X838200Y690799D03*
X847700Y690799D03*
X857200Y690799D03*
X857200Y716801D03*
X838200Y716801D03*
D18*
X482700Y589600D03*
X482700Y581600D03*
X482700Y573600D03*
X482700Y565600D03*
X482700Y557600D03*
X482700Y549600D03*
X482700Y541600D03*
X482700Y533600D03*
X482700Y525600D03*
X482700Y517600D03*
X482700Y509600D03*
D19*
X500700Y491600D03*
X508700Y491600D03*
X516700Y491600D03*
X524700Y491600D03*
X532700Y491600D03*
X540700Y491600D03*
X548700Y491600D03*
X556700Y491600D03*
X564700Y491600D03*
X572700Y491600D03*
X580700Y491600D03*
D18*
X598700Y509600D03*
X598700Y517600D03*
X598700Y525600D03*
X598700Y533600D03*
X598700Y541600D03*
X598700Y549600D03*
X598700Y557600D03*
X598700Y565600D03*
X598700Y573600D03*
X598700Y581600D03*
X598700Y589600D03*
D19*
X580700Y607600D03*
X572700Y607600D03*
X564700Y607600D03*
X556700Y607600D03*
X548700Y607600D03*
X540700Y607600D03*
X532700Y607600D03*
X524700Y607600D03*
X516700Y607600D03*
X508700Y607600D03*
X500700Y607600D03*
D10*
X646500Y490800D03*
X646500Y507800D03*
X540600Y452200D03*
X540600Y469200D03*
D11*
X441800Y561200D03*
X458800Y561200D03*
D10*
X623700Y543800D03*
X623700Y526800D03*
D20*
X239900Y408600D03*
X239900Y380600D03*
D10*
X168500Y316400D03*
X168500Y299400D03*
D21*
X179500Y464500D03*
X131500Y464500D03*
D17*
X207300Y317601D03*
X197800Y317601D03*
X188300Y317601D03*
X188300Y291599D03*
X207300Y291599D03*
D10*
X234000Y292100D03*
X234000Y309100D03*
D22*
X172507Y400200D03*
X149800Y400200D03*
X126915Y400200D03*
D23*
X149800Y340790D03*
D10*
X202500Y428800D03*
X202500Y411800D03*
X202500Y390300D03*
X202500Y373300D03*
D20*
X258300Y321800D03*
X258300Y293800D03*
D24*
X188300Y589370D03*
X188300Y543830D03*
D25*
X44550Y637350D02*
X30450Y637350D01*
X30450Y655450D01*
X44550Y655450D01*
X44550Y637350D01*
X44550Y644885D02*
X30450Y644885D01*
X30450Y652420D02*
X44550Y652420D01*
X44550Y523350D02*
X30450Y523350D01*
X30450Y541450D01*
X44550Y541450D01*
X44550Y523350D01*
X44550Y530885D02*
X30450Y530885D01*
X30450Y538420D02*
X44550Y538420D01*
X91450Y637350D02*
X105550Y637350D01*
X91450Y637350D02*
X91450Y655450D01*
X105550Y655450D01*
X105550Y637350D01*
X105550Y644885D02*
X91450Y644885D01*
X91450Y652420D02*
X105550Y652420D01*
X105550Y523350D02*
X91450Y523350D01*
X91450Y541450D01*
X105550Y541450D01*
X105550Y523350D01*
X105550Y530885D02*
X91450Y530885D01*
X91450Y538420D02*
X105550Y538420D01*
D26*
X37500Y589400D03*
X83220Y589400D03*
D27*
X447000Y541800D03*
X410000Y518800D03*
X447000Y518800D03*
X410000Y541800D03*
D11*
X397700Y558000D03*
X414700Y558000D03*
D10*
X388100Y535800D03*
X388100Y518800D03*
D28*
X855314Y493745D02*
X867506Y493745D01*
X867506Y472155D02*
X855314Y472155D01*
X855314Y450565D02*
X867506Y450565D01*
X867506Y428975D02*
X855314Y428975D01*
X855314Y407385D02*
X867506Y407385D01*
X867506Y385795D02*
X855314Y385795D01*
X855314Y364205D02*
X867506Y364205D01*
X867506Y342615D02*
X855314Y342615D01*
X855314Y321025D02*
X867506Y321025D01*
X867506Y299435D02*
X855314Y299435D01*
X855314Y277845D02*
X867506Y277845D01*
X867506Y256255D02*
X855314Y256255D01*
X898494Y493745D02*
X910686Y493745D01*
X910686Y472155D02*
X898494Y472155D01*
X898494Y450565D02*
X910686Y450565D01*
X910686Y428975D02*
X898494Y428975D01*
X898494Y407385D02*
X910686Y407385D01*
X910686Y385795D02*
X898494Y385795D01*
X898494Y364205D02*
X910686Y364205D01*
X910686Y342615D02*
X898494Y342615D01*
X898494Y321025D02*
X910686Y321025D01*
X910686Y299435D02*
X898494Y299435D01*
X898494Y277845D02*
X910686Y277845D01*
X910686Y256255D02*
X898494Y256255D01*
D29*
X883000Y608934D03*
X883000Y141066D03*
D10*
X271500Y115100D03*
X271500Y98100D03*
X89400Y424100D03*
X89400Y407100D03*
D30*
X58100Y424800D03*
X28100Y424800D03*
D10*
X90300Y324100D03*
X90300Y307100D03*
D30*
X58100Y341400D03*
X28100Y341400D03*
D11*
X765900Y123200D03*
X782900Y123200D03*
D13*
X794000Y69600D03*
X794000Y39600D03*
D11*
X600600Y721400D03*
X617600Y721400D03*
D10*
X812500Y703400D03*
X812500Y720400D03*
D11*
X499600Y195100D03*
X516600Y195100D03*
D10*
X337700Y540900D03*
X337700Y557900D03*
X296300Y540900D03*
X296300Y557900D03*
X314500Y540800D03*
X314500Y557800D03*
X275400Y586700D03*
X275400Y569700D03*
D11*
X750000Y142000D03*
X733000Y142000D03*
D10*
X347500Y220000D03*
X347500Y237000D03*
D31*
X407900Y711000D03*
X407900Y654000D03*
X382500Y711000D03*
X382500Y654000D03*
X357100Y711000D03*
X357100Y654000D03*
D32*
X787792Y377850D03*
X787792Y390550D03*
X787792Y403250D03*
X787792Y415950D03*
X787792Y428650D03*
X787792Y441350D03*
X787792Y454050D03*
X787792Y466750D03*
X687208Y466750D03*
X687208Y454050D03*
X687208Y441350D03*
X687208Y428650D03*
X687208Y415950D03*
X687208Y403250D03*
X687208Y390550D03*
X687208Y377850D03*
X787792Y479450D03*
X787792Y492150D03*
X687208Y479450D03*
X687208Y492150D03*
D11*
X746000Y355000D03*
X729000Y355000D03*
X572500Y439000D03*
X589500Y439000D03*
D33*
X50000Y50000D03*
X950000Y50000D03*
X950000Y700000D03*
X50000Y700000D03*
D34*
X75000Y167500D03*
X75000Y175500D03*
X75000Y151500D03*
X75000Y159500D03*
D35*
X20000Y122500D03*
X20000Y212500D03*
X75000Y122500D03*
X75000Y212500D03*
D34*
X75000Y183500D03*
D36*
X50000Y189500D03*
X50000Y145500D03*
D37*
X227500Y515000D03*
X52000Y392000D03*
X50000Y305000D03*
X122500Y682500D03*
D38*
X252250Y123440D03*
X245750Y123440D03*
X239250Y123440D03*
X232750Y123440D03*
X226250Y123440D03*
X219750Y123440D03*
X213250Y123440D03*
X200250Y123440D03*
X206750Y123440D03*
X193750Y123440D03*
X187250Y123440D03*
X180750Y123440D03*
X174250Y123440D03*
X167750Y123440D03*
X252250Y196560D03*
X245750Y196560D03*
X239250Y196560D03*
X232750Y196560D03*
X226250Y196560D03*
X219750Y196560D03*
X213250Y196560D03*
X206750Y196560D03*
X200250Y196560D03*
X193750Y196560D03*
X187250Y196560D03*
X180750Y196560D03*
X174250Y196560D03*
X167750Y196560D03*
D10*
X282500Y176000D03*
X282500Y159000D03*
D39*
X272660Y682253D03*
X272660Y699652D03*
X252340Y699652D03*
X252340Y680348D03*
D10*
X295000Y721000D03*
X295000Y704000D03*
X785000Y549500D03*
X785000Y566500D03*
X766000Y540000D03*
X766000Y557000D03*
X748000Y557000D03*
X748000Y574000D03*
X730000Y543000D03*
X730000Y560000D03*
D11*
X669000Y579000D03*
X652000Y579000D03*
X698500Y564000D03*
X681500Y564000D03*
D10*
X709000Y530500D03*
X709000Y547500D03*
X693000Y517500D03*
X693000Y534500D03*
D40*
X638650Y622788D03*
X651350Y622788D03*
X664050Y622788D03*
X676750Y622788D03*
X689450Y622788D03*
X702150Y622788D03*
X714850Y622788D03*
X727550Y622788D03*
X740250Y622788D03*
X752950Y622788D03*
X765650Y622788D03*
X778350Y622788D03*
X778350Y713212D03*
X765650Y713212D03*
X752950Y713212D03*
X740250Y713212D03*
X727550Y713212D03*
X714850Y713212D03*
X702150Y713212D03*
X689450Y713212D03*
X676750Y713212D03*
X664050Y713212D03*
X651350Y713212D03*
X638650Y713212D03*
D41*
X782712Y170150D03*
X782712Y182850D03*
X782712Y195550D03*
X782712Y208250D03*
X782712Y220950D03*
X782712Y233650D03*
X782712Y246350D03*
X782712Y259050D03*
X782712Y271750D03*
X782712Y284450D03*
X782712Y297150D03*
X782712Y309850D03*
X692288Y309850D03*
X692288Y297150D03*
X692288Y284450D03*
X692288Y271750D03*
X692288Y259050D03*
X692288Y246350D03*
X692288Y233650D03*
X692288Y220950D03*
X692288Y208250D03*
X692288Y195550D03*
X692288Y182850D03*
X692288Y170150D03*
D12*
X635000Y429900D03*
X635000Y442600D03*
X635000Y455300D03*
X635000Y468000D03*
D11*
X690000Y114000D03*
X707000Y114000D03*
X679000Y134500D03*
X696000Y134500D03*
D42*
X685000Y77500D03*
X695000Y77500D03*
X705000Y77500D03*
X715000Y77500D03*
D43*
X728000Y40750D03*
X672000Y40750D03*
D11*
X589500Y397500D03*
X572500Y397500D03*
X589500Y418500D03*
X572500Y418500D03*
D10*
X310000Y191500D03*
X310000Y208500D03*
X310000Y226000D03*
X310000Y209000D03*
X656000Y134000D03*
X656000Y117000D03*
D44*
X640500Y188500D03*
D45*
X639600Y182000D02*
X641400Y182000D01*
X641400Y175500D02*
X639600Y175500D01*
X658600Y175500D02*
X660400Y175500D01*
X660400Y182000D02*
X658600Y182000D01*
X658600Y188500D02*
X660400Y188500D01*
D11*
X572500Y460000D03*
X589500Y460000D03*
D10*
X637500Y401000D03*
X637500Y384000D03*
D11*
X685500Y354500D03*
X668500Y354500D03*
D10*
X485000Y658500D03*
X485000Y641500D03*
D46*
X399800Y18750D03*
X388800Y18750D03*
X377800Y18750D03*
X366800Y18750D03*
X355800Y18750D03*
X344800Y18750D03*
X333800Y18750D03*
X322800Y18750D03*
D47*
X438600Y18900D03*
D48*
X312000Y23750D03*
D49*
X440800Y131400D03*
X311200Y131400D03*
D50*
X417700Y143400D03*
D51*
X375050Y144150D03*
D52*
G36*
X594831Y280717D02*
X586323Y272209D01*
X567209Y291323D01*
X575717Y299831D01*
X594831Y280717D01*
G37*
G36*
X612791Y298677D02*
X604283Y290169D01*
X585169Y309283D01*
X593677Y317791D01*
X612791Y298677D01*
G37*
D53*
G36*
X585567Y318547D02*
X566453Y299433D01*
X522591Y343295D01*
X541705Y362409D01*
X585567Y318547D01*
G37*
D54*
X606550Y253000D03*
X593850Y253000D03*
X581150Y253000D03*
X568450Y253000D03*
X568450Y197000D03*
X581150Y197000D03*
X593850Y197000D03*
X606550Y197000D03*
D37*
X122500Y45000D03*
D55*
X616040Y100000D03*
X483960Y100000D03*
D56*
X550000Y100000D03*
D57*
X389306Y327000D03*
X389306Y320500D03*
X389306Y314000D03*
X389306Y307500D03*
X389306Y301000D03*
X389306Y294500D03*
X389306Y288000D03*
X445694Y288000D03*
X445694Y294500D03*
X445694Y301000D03*
X445694Y307500D03*
X445694Y314000D03*
X445694Y320500D03*
X445694Y327000D03*
D58*
X389306Y264500D03*
X389306Y258000D03*
X389306Y251500D03*
X389306Y245000D03*
X389306Y238500D03*
X389306Y232000D03*
X389306Y225500D03*
X445694Y225500D03*
X445694Y232000D03*
X445694Y238500D03*
X445694Y245000D03*
X445694Y251500D03*
X445694Y258000D03*
X445694Y264500D03*
D10*
X477500Y269000D03*
X477500Y286000D03*
X477500Y326000D03*
X477500Y309000D03*
M02*
