G04 EAGLE Gerber RS-274X export*
G75*
%MOMM*%
%FSLAX34Y34*%
%LPD*%
%INTop Copper*%
%IPPOS*%
%AMOC8*
5,1,8,0,0,1.08239X$1,22.5*%
G01*
%ADD10R,1.000000X1.100000*%
%ADD11R,1.100000X1.000000*%
%ADD12C,1.000000*%
%ADD13R,1.400000X1.200000*%
%ADD14R,0.762000X1.524000*%
%ADD15R,1.200000X0.600000*%
%ADD16R,0.900000X1.800000*%
%ADD17R,1.400000X2.000000*%
%ADD18R,1.527000X2.000000*%
%ADD19R,1.100000X1.800000*%
%ADD20R,1.400000X1.600000*%
%ADD21R,1.800000X1.600000*%
%ADD22R,0.550000X1.200000*%
%ADD23R,1.500000X0.500000*%
%ADD24R,0.500000X1.500000*%
%ADD25R,1.600000X1.400000*%
%ADD26R,3.000000X1.400000*%
%ADD27R,0.812800X1.524000*%
%ADD28R,3.124200X1.905000*%
%ADD29R,1.470000X1.524000*%
%ADD30C,0.600000*%
%ADD31R,1.900000X1.100000*%
%ADD32C,1.219200*%
%ADD33C,5.842000*%
%ADD34R,1.200000X1.400000*%
%ADD35R,1.270000X2.540000*%
%ADD36R,2.032000X0.660400*%
%ADD37C,6.350000*%
%ADD38R,2.500000X0.500000*%
%ADD39R,2.500000X2.000000*%
%ADD40C,1.879600*%
%ADD41R,0.348000X1.397000*%
%ADD42R,1.320800X0.558800*%
%ADD43R,0.558800X2.311400*%
%ADD44R,2.311400X0.558800*%
%ADD45R,0.600000X1.350000*%
%ADD46R,1.200000X2.000000*%
%ADD47R,0.600000X0.420000*%
%ADD48C,0.420000*%
%ADD49C,0.127000*%
%ADD50C,0.635000*%
%ADD51C,0.177800*%
%ADD52C,0.150000*%
%ADD53C,0.254000*%
%ADD54C,0.609600*%
%ADD55C,0.406400*%
%ADD56C,1.016000*%
%ADD57C,0.508000*%
%ADD58C,0.304800*%
%ADD59C,0.812800*%
%ADD60C,0.604000*%
%ADD61C,0.152400*%
%ADD62C,0.200000*%

G36*
X185042Y329373D02*
X185042Y329373D01*
X185084Y329371D01*
X185151Y329393D01*
X185221Y329405D01*
X185257Y329427D01*
X185298Y329440D01*
X185371Y329494D01*
X185414Y329520D01*
X185427Y329536D01*
X185448Y329552D01*
X197763Y341866D01*
X265000Y341866D01*
X265042Y341873D01*
X265084Y341871D01*
X265151Y341893D01*
X265221Y341905D01*
X265257Y341927D01*
X265298Y341940D01*
X265371Y341994D01*
X265414Y342020D01*
X265427Y342036D01*
X265448Y342052D01*
X305448Y382052D01*
X305473Y382086D01*
X305504Y382115D01*
X305536Y382178D01*
X305577Y382236D01*
X305587Y382277D01*
X305607Y382315D01*
X305620Y382404D01*
X305633Y382453D01*
X305630Y382474D01*
X305634Y382500D01*
X305634Y515000D01*
X305627Y515042D01*
X305629Y515084D01*
X305607Y515151D01*
X305595Y515221D01*
X305573Y515257D01*
X305560Y515298D01*
X305506Y515371D01*
X305480Y515414D01*
X305464Y515427D01*
X305448Y515448D01*
X295448Y525448D01*
X295414Y525473D01*
X295385Y525504D01*
X295322Y525536D01*
X295264Y525577D01*
X295223Y525587D01*
X295185Y525607D01*
X295096Y525620D01*
X295047Y525633D01*
X295026Y525630D01*
X295000Y525634D01*
X273000Y525634D01*
X272958Y525627D01*
X272916Y525629D01*
X272849Y525607D01*
X272779Y525595D01*
X272743Y525573D01*
X272702Y525560D01*
X272629Y525506D01*
X272586Y525480D01*
X272573Y525464D01*
X272552Y525448D01*
X267552Y520448D01*
X267527Y520414D01*
X267496Y520385D01*
X267464Y520322D01*
X267423Y520264D01*
X267413Y520223D01*
X267393Y520185D01*
X267380Y520096D01*
X267368Y520047D01*
X267370Y520026D01*
X267366Y520000D01*
X267366Y373263D01*
X254737Y360634D01*
X177500Y360634D01*
X177458Y360627D01*
X177416Y360629D01*
X177349Y360607D01*
X177279Y360595D01*
X177243Y360573D01*
X177202Y360560D01*
X177129Y360506D01*
X177086Y360480D01*
X177073Y360464D01*
X177052Y360448D01*
X169552Y352948D01*
X169527Y352914D01*
X169496Y352885D01*
X169464Y352822D01*
X169423Y352764D01*
X169413Y352723D01*
X169393Y352685D01*
X169380Y352596D01*
X169368Y352547D01*
X169370Y352526D01*
X169366Y352500D01*
X169366Y335000D01*
X169373Y334958D01*
X169371Y334916D01*
X169393Y334849D01*
X169405Y334779D01*
X169427Y334743D01*
X169440Y334702D01*
X169494Y334629D01*
X169520Y334586D01*
X169536Y334573D01*
X169552Y334552D01*
X174552Y329552D01*
X174586Y329527D01*
X174615Y329496D01*
X174678Y329464D01*
X174736Y329423D01*
X174777Y329413D01*
X174815Y329393D01*
X174904Y329380D01*
X174953Y329368D01*
X174974Y329370D01*
X175000Y329366D01*
X185000Y329366D01*
X185042Y329373D01*
G37*
G36*
X580090Y504254D02*
X580090Y504254D01*
X580181Y504261D01*
X580211Y504273D01*
X580243Y504279D01*
X580323Y504321D01*
X580407Y504357D01*
X580439Y504383D01*
X580460Y504394D01*
X580482Y504417D01*
X580538Y504462D01*
X585538Y509462D01*
X585591Y509536D01*
X585651Y509605D01*
X585663Y509635D01*
X585682Y509661D01*
X585709Y509748D01*
X585743Y509833D01*
X585747Y509874D01*
X585754Y509897D01*
X585753Y509929D01*
X585761Y510000D01*
X585761Y590000D01*
X585747Y590090D01*
X585739Y590181D01*
X585727Y590211D01*
X585722Y590243D01*
X585679Y590323D01*
X585643Y590407D01*
X585617Y590439D01*
X585606Y590460D01*
X585583Y590482D01*
X585538Y590538D01*
X580538Y595538D01*
X580464Y595591D01*
X580395Y595651D01*
X580365Y595663D01*
X580339Y595682D01*
X580252Y595709D01*
X580167Y595743D01*
X580126Y595747D01*
X580103Y595754D01*
X580071Y595753D01*
X580000Y595761D01*
X560000Y595761D01*
X559910Y595747D01*
X559819Y595739D01*
X559789Y595727D01*
X559757Y595722D01*
X559677Y595679D01*
X559593Y595643D01*
X559561Y595617D01*
X559540Y595606D01*
X559518Y595583D01*
X559462Y595538D01*
X554462Y590538D01*
X554409Y590464D01*
X554349Y590395D01*
X554337Y590365D01*
X554318Y590339D01*
X554291Y590252D01*
X554257Y590167D01*
X554253Y590126D01*
X554246Y590103D01*
X554247Y590071D01*
X554239Y590000D01*
X554239Y537000D01*
X554254Y536910D01*
X554261Y536819D01*
X554273Y536789D01*
X554279Y536757D01*
X554321Y536677D01*
X554357Y536593D01*
X554383Y536561D01*
X554394Y536540D01*
X554417Y536518D01*
X554445Y536482D01*
X554446Y536482D01*
X554446Y536481D01*
X554462Y536462D01*
X561739Y529185D01*
X561739Y520315D01*
X549462Y508038D01*
X549409Y507964D01*
X549349Y507895D01*
X549337Y507865D01*
X549318Y507839D01*
X549291Y507752D01*
X549257Y507667D01*
X549253Y507626D01*
X549246Y507603D01*
X549247Y507571D01*
X549239Y507500D01*
X549239Y505000D01*
X549242Y504980D01*
X549240Y504961D01*
X549262Y504859D01*
X549279Y504757D01*
X549288Y504740D01*
X549292Y504720D01*
X549345Y504631D01*
X549394Y504540D01*
X549408Y504526D01*
X549418Y504509D01*
X549497Y504442D01*
X549572Y504371D01*
X549590Y504362D01*
X549605Y504349D01*
X549701Y504310D01*
X549795Y504267D01*
X549815Y504265D01*
X549833Y504257D01*
X550000Y504239D01*
X580000Y504239D01*
X580090Y504254D01*
G37*
G36*
X527590Y564254D02*
X527590Y564254D01*
X527681Y564261D01*
X527711Y564273D01*
X527743Y564279D01*
X527823Y564321D01*
X527907Y564357D01*
X527939Y564383D01*
X527960Y564394D01*
X527982Y564417D01*
X528038Y564462D01*
X531538Y567962D01*
X531591Y568036D01*
X531651Y568105D01*
X531663Y568135D01*
X531682Y568161D01*
X531709Y568248D01*
X531743Y568333D01*
X531747Y568374D01*
X531754Y568397D01*
X531753Y568429D01*
X531761Y568500D01*
X531761Y574685D01*
X543038Y585962D01*
X543091Y586036D01*
X543151Y586105D01*
X543163Y586135D01*
X543182Y586161D01*
X543209Y586248D01*
X543243Y586333D01*
X543247Y586374D01*
X543254Y586397D01*
X543253Y586429D01*
X543261Y586500D01*
X543261Y590000D01*
X543247Y590090D01*
X543239Y590181D01*
X543227Y590211D01*
X543222Y590243D01*
X543179Y590323D01*
X543143Y590407D01*
X543117Y590439D01*
X543106Y590460D01*
X543083Y590482D01*
X543038Y590538D01*
X538038Y595538D01*
X537964Y595591D01*
X537895Y595651D01*
X537865Y595663D01*
X537839Y595682D01*
X537752Y595709D01*
X537667Y595743D01*
X537626Y595747D01*
X537603Y595754D01*
X537571Y595753D01*
X537500Y595761D01*
X500000Y595761D01*
X499910Y595747D01*
X499819Y595739D01*
X499789Y595727D01*
X499757Y595722D01*
X499677Y595679D01*
X499593Y595643D01*
X499561Y595617D01*
X499540Y595606D01*
X499518Y595583D01*
X499462Y595538D01*
X496962Y593038D01*
X496909Y592964D01*
X496849Y592895D01*
X496837Y592865D01*
X496818Y592839D01*
X496791Y592752D01*
X496757Y592667D01*
X496753Y592626D01*
X496746Y592603D01*
X496747Y592571D01*
X496739Y592500D01*
X496739Y567500D01*
X496754Y567410D01*
X496761Y567319D01*
X496773Y567289D01*
X496779Y567257D01*
X496821Y567177D01*
X496857Y567093D01*
X496883Y567061D01*
X496894Y567040D01*
X496917Y567018D01*
X496962Y566962D01*
X499462Y564462D01*
X499536Y564409D01*
X499605Y564349D01*
X499635Y564337D01*
X499661Y564318D01*
X499748Y564291D01*
X499833Y564257D01*
X499874Y564253D01*
X499897Y564246D01*
X499929Y564247D01*
X500000Y564239D01*
X527500Y564239D01*
X527590Y564254D01*
G37*
G36*
X265042Y164373D02*
X265042Y164373D01*
X265084Y164371D01*
X265151Y164393D01*
X265221Y164405D01*
X265257Y164427D01*
X265298Y164440D01*
X265371Y164494D01*
X265414Y164520D01*
X265427Y164536D01*
X265448Y164552D01*
X274773Y173877D01*
X274798Y173911D01*
X274829Y173940D01*
X274861Y174003D01*
X274902Y174061D01*
X274912Y174102D01*
X274932Y174140D01*
X274945Y174229D01*
X274958Y174278D01*
X274955Y174299D01*
X274959Y174325D01*
X274959Y174731D01*
X275000Y174731D01*
X275065Y174742D01*
X275131Y174744D01*
X275174Y174762D01*
X275221Y174770D01*
X275278Y174804D01*
X275338Y174829D01*
X275373Y174861D01*
X275414Y174885D01*
X275456Y174936D01*
X275504Y174980D01*
X275526Y175022D01*
X275555Y175059D01*
X275576Y175121D01*
X275607Y175180D01*
X275615Y175234D01*
X275627Y175271D01*
X275626Y175311D01*
X275634Y175365D01*
X275634Y176635D01*
X275623Y176700D01*
X275621Y176765D01*
X275603Y176809D01*
X275595Y176856D01*
X275561Y176913D01*
X275536Y176973D01*
X275505Y177008D01*
X275480Y177049D01*
X275429Y177090D01*
X275385Y177139D01*
X275343Y177161D01*
X275306Y177190D01*
X275244Y177211D01*
X275185Y177241D01*
X275131Y177250D01*
X275094Y177262D01*
X275054Y177261D01*
X275000Y177269D01*
X274959Y177269D01*
X274959Y178175D01*
X274952Y178217D01*
X274954Y178259D01*
X274932Y178326D01*
X274920Y178396D01*
X274898Y178432D01*
X274885Y178473D01*
X274831Y178546D01*
X274805Y178589D01*
X274789Y178602D01*
X274773Y178623D01*
X267948Y185448D01*
X267914Y185473D01*
X267885Y185504D01*
X267822Y185536D01*
X267764Y185577D01*
X267723Y185587D01*
X267685Y185607D01*
X267596Y185620D01*
X267547Y185633D01*
X267526Y185630D01*
X267500Y185634D01*
X230000Y185634D01*
X229958Y185627D01*
X229916Y185629D01*
X229849Y185607D01*
X229779Y185595D01*
X229743Y185573D01*
X229702Y185560D01*
X229629Y185506D01*
X229586Y185480D01*
X229573Y185464D01*
X229552Y185448D01*
X222237Y178134D01*
X170000Y178134D01*
X169935Y178123D01*
X169869Y178121D01*
X169826Y178103D01*
X169779Y178095D01*
X169722Y178061D01*
X169662Y178036D01*
X169627Y178005D01*
X169586Y177980D01*
X169545Y177929D01*
X169496Y177885D01*
X169474Y177843D01*
X169445Y177806D01*
X169424Y177744D01*
X169393Y177685D01*
X169385Y177631D01*
X169373Y177594D01*
X169374Y177554D01*
X169366Y177500D01*
X169366Y172500D01*
X169377Y172435D01*
X169379Y172369D01*
X169397Y172326D01*
X169405Y172279D01*
X169439Y172222D01*
X169464Y172162D01*
X169495Y172127D01*
X169520Y172086D01*
X169571Y172045D01*
X169615Y171996D01*
X169657Y171974D01*
X169694Y171945D01*
X169756Y171924D01*
X169815Y171893D01*
X169869Y171885D01*
X169906Y171873D01*
X169946Y171874D01*
X170000Y171866D01*
X249737Y171866D01*
X257052Y164552D01*
X257086Y164527D01*
X257115Y164496D01*
X257178Y164464D01*
X257236Y164423D01*
X257277Y164413D01*
X257315Y164393D01*
X257404Y164380D01*
X257453Y164368D01*
X257474Y164370D01*
X257500Y164366D01*
X265000Y164366D01*
X265042Y164373D01*
G37*
G36*
X542590Y511754D02*
X542590Y511754D01*
X542681Y511761D01*
X542711Y511773D01*
X542743Y511779D01*
X542823Y511821D01*
X542907Y511857D01*
X542939Y511883D01*
X542960Y511894D01*
X542982Y511917D01*
X543038Y511962D01*
X550538Y519462D01*
X550591Y519536D01*
X550651Y519605D01*
X550663Y519635D01*
X550682Y519661D01*
X550709Y519748D01*
X550743Y519833D01*
X550747Y519874D01*
X550754Y519897D01*
X550753Y519929D01*
X550761Y520000D01*
X550761Y587500D01*
X550750Y587571D01*
X550748Y587642D01*
X550730Y587691D01*
X550722Y587743D01*
X550688Y587806D01*
X550663Y587873D01*
X550631Y587914D01*
X550606Y587960D01*
X550555Y588009D01*
X550510Y588065D01*
X550466Y588094D01*
X550428Y588130D01*
X550363Y588160D01*
X550303Y588198D01*
X550252Y588211D01*
X550205Y588233D01*
X550134Y588241D01*
X550064Y588259D01*
X550012Y588254D01*
X549961Y588260D01*
X549890Y588245D01*
X549819Y588239D01*
X549771Y588219D01*
X549720Y588208D01*
X549659Y588171D01*
X549593Y588143D01*
X549537Y588098D01*
X549509Y588082D01*
X549494Y588064D01*
X549462Y588038D01*
X534462Y573038D01*
X534409Y572964D01*
X534349Y572895D01*
X534337Y572865D01*
X534318Y572839D01*
X534291Y572752D01*
X534257Y572667D01*
X534253Y572626D01*
X534246Y572603D01*
X534247Y572571D01*
X534239Y572500D01*
X534239Y515000D01*
X534254Y514910D01*
X534261Y514819D01*
X534273Y514789D01*
X534279Y514757D01*
X534321Y514677D01*
X534357Y514593D01*
X534383Y514561D01*
X534394Y514540D01*
X534417Y514518D01*
X534462Y514462D01*
X536962Y511962D01*
X537036Y511909D01*
X537105Y511849D01*
X537135Y511837D01*
X537161Y511818D01*
X537248Y511791D01*
X537333Y511757D01*
X537374Y511753D01*
X537397Y511746D01*
X537429Y511747D01*
X537500Y511739D01*
X542500Y511739D01*
X542590Y511754D01*
G37*
G36*
X732347Y140514D02*
X732347Y140514D01*
X732396Y140515D01*
X732464Y140541D01*
X732536Y140558D01*
X732578Y140584D01*
X732624Y140601D01*
X732681Y140648D01*
X732743Y140686D01*
X732775Y140724D01*
X732813Y140756D01*
X732852Y140818D01*
X732898Y140875D01*
X732916Y140921D01*
X732942Y140963D01*
X732959Y141034D01*
X732985Y141103D01*
X732992Y141176D01*
X732997Y141200D01*
X732996Y141217D01*
X732999Y141250D01*
X732999Y142001D01*
X733000Y142001D01*
X733024Y142005D01*
X733049Y142002D01*
X733144Y142025D01*
X733241Y142041D01*
X733262Y142052D01*
X733286Y142058D01*
X733370Y142109D01*
X733456Y142156D01*
X733473Y142173D01*
X733494Y142186D01*
X733556Y142262D01*
X733623Y142334D01*
X733633Y142356D01*
X733649Y142375D01*
X733683Y142466D01*
X733724Y142556D01*
X733726Y142580D01*
X733735Y142603D01*
X733749Y142750D01*
X733749Y157000D01*
X733746Y157018D01*
X733748Y157033D01*
X733734Y157090D01*
X733733Y157096D01*
X733724Y157193D01*
X733714Y157216D01*
X733710Y157241D01*
X733664Y157327D01*
X733623Y157416D01*
X733602Y157441D01*
X733595Y157456D01*
X733576Y157473D01*
X733530Y157530D01*
X720030Y171030D01*
X719950Y171087D01*
X719875Y171149D01*
X719852Y171157D01*
X719831Y171172D01*
X719738Y171200D01*
X719647Y171235D01*
X719614Y171238D01*
X719598Y171243D01*
X719573Y171242D01*
X719500Y171249D01*
X697500Y171249D01*
X697476Y171245D01*
X697451Y171248D01*
X697356Y171226D01*
X697259Y171210D01*
X697238Y171198D01*
X697214Y171192D01*
X697130Y171141D01*
X697044Y171095D01*
X697027Y171077D01*
X697006Y171064D01*
X696944Y170988D01*
X696877Y170917D01*
X696867Y170894D01*
X696852Y170875D01*
X696817Y170784D01*
X696776Y170694D01*
X696774Y170670D01*
X696765Y170647D01*
X696751Y170500D01*
X696751Y169503D01*
X696755Y169479D01*
X696752Y169454D01*
X696775Y169359D01*
X696790Y169262D01*
X696802Y169241D01*
X696808Y169217D01*
X696859Y169133D01*
X696905Y169047D01*
X696923Y169030D01*
X696936Y169009D01*
X697012Y168947D01*
X697084Y168880D01*
X697106Y168870D01*
X697125Y168854D01*
X697216Y168820D01*
X697306Y168779D01*
X697330Y168777D01*
X697353Y168768D01*
X697500Y168754D01*
X706386Y168754D01*
X706386Y167022D01*
X706213Y166375D01*
X705878Y165796D01*
X705405Y165323D01*
X704826Y164988D01*
X704179Y164815D01*
X698434Y164815D01*
X698361Y164803D01*
X698288Y164801D01*
X698242Y164784D01*
X698193Y164776D01*
X698128Y164741D01*
X698060Y164715D01*
X698021Y164684D01*
X697978Y164661D01*
X697928Y164607D01*
X697871Y164560D01*
X697845Y164518D01*
X697811Y164483D01*
X697781Y164416D01*
X697742Y164353D01*
X697731Y164305D01*
X697710Y164260D01*
X697703Y164187D01*
X697686Y164116D01*
X697691Y164067D01*
X697686Y164017D01*
X697703Y163946D01*
X697710Y163873D01*
X697730Y163828D01*
X697742Y163780D01*
X697780Y163717D01*
X697811Y163650D01*
X697857Y163594D01*
X697870Y163572D01*
X697883Y163562D01*
X697904Y163536D01*
X720470Y140970D01*
X720550Y140913D01*
X720625Y140852D01*
X720648Y140843D01*
X720669Y140828D01*
X720762Y140800D01*
X720853Y140765D01*
X720886Y140762D01*
X720902Y140757D01*
X720927Y140758D01*
X721000Y140751D01*
X731690Y140751D01*
X731720Y140720D01*
X731780Y140677D01*
X731833Y140627D01*
X731878Y140607D01*
X731918Y140578D01*
X731989Y140557D01*
X732056Y140526D01*
X732105Y140522D01*
X732152Y140507D01*
X732225Y140510D01*
X732298Y140502D01*
X732347Y140514D01*
G37*
G36*
X728430Y354377D02*
X728430Y354377D01*
X728495Y354379D01*
X728539Y354397D01*
X728586Y354405D01*
X728642Y354439D01*
X728703Y354464D01*
X728738Y354495D01*
X728779Y354520D01*
X728820Y354571D01*
X728869Y354615D01*
X728891Y354657D01*
X728920Y354694D01*
X728941Y354756D01*
X728971Y354815D01*
X728980Y354869D01*
X728992Y354906D01*
X728991Y354946D01*
X728999Y355000D01*
X728999Y355001D01*
X729635Y355001D01*
X729700Y355013D01*
X729765Y355014D01*
X729809Y355032D01*
X729856Y355041D01*
X729913Y355074D01*
X729973Y355099D01*
X730008Y355131D01*
X730049Y355155D01*
X730090Y355206D01*
X730139Y355250D01*
X730161Y355292D01*
X730190Y355329D01*
X730211Y355391D01*
X730241Y355450D01*
X730250Y355504D01*
X730262Y355541D01*
X730261Y355581D01*
X730269Y355635D01*
X730269Y362865D01*
X730262Y362907D01*
X730264Y362949D01*
X730242Y363016D01*
X730229Y363086D01*
X730208Y363122D01*
X730195Y363163D01*
X730141Y363236D01*
X730115Y363279D01*
X730099Y363292D01*
X730083Y363314D01*
X712948Y380448D01*
X712914Y380473D01*
X712885Y380504D01*
X712822Y380536D01*
X712764Y380577D01*
X712723Y380587D01*
X712685Y380607D01*
X712596Y380620D01*
X712547Y380633D01*
X712526Y380630D01*
X712500Y380634D01*
X700543Y380634D01*
X700478Y380623D01*
X700412Y380621D01*
X700369Y380603D01*
X700322Y380595D01*
X700265Y380561D01*
X700205Y380536D01*
X700170Y380505D01*
X700129Y380480D01*
X700087Y380429D01*
X700039Y380385D01*
X700017Y380343D01*
X699988Y380306D01*
X699967Y380244D01*
X699936Y380185D01*
X699928Y380131D01*
X699916Y380094D01*
X699917Y380054D01*
X699909Y380000D01*
X699909Y379119D01*
X695000Y379119D01*
X694935Y379108D01*
X694869Y379106D01*
X694826Y379088D01*
X694779Y379079D01*
X694722Y379046D01*
X694662Y379021D01*
X694627Y378989D01*
X694586Y378965D01*
X694545Y378914D01*
X694496Y378870D01*
X694474Y378828D01*
X694445Y378791D01*
X694424Y378729D01*
X694393Y378670D01*
X694385Y378616D01*
X694373Y378579D01*
X694373Y378562D01*
X694373Y378561D01*
X694373Y378536D01*
X694366Y378485D01*
X694366Y377500D01*
X694373Y377458D01*
X694371Y377416D01*
X694393Y377349D01*
X694405Y377279D01*
X694427Y377243D01*
X694440Y377202D01*
X694494Y377129D01*
X694520Y377086D01*
X694536Y377073D01*
X694552Y377052D01*
X694836Y376767D01*
X694871Y376742D01*
X694900Y376711D01*
X694963Y376679D01*
X695021Y376638D01*
X695062Y376628D01*
X695100Y376608D01*
X695189Y376595D01*
X695238Y376583D01*
X695259Y376585D01*
X695285Y376581D01*
X699909Y376581D01*
X699909Y374213D01*
X699736Y373567D01*
X699375Y372943D01*
X699374Y372942D01*
X699373Y372939D01*
X699359Y372916D01*
X699350Y372891D01*
X699328Y372859D01*
X699312Y372796D01*
X699286Y372735D01*
X699285Y372710D01*
X699283Y372705D01*
X699283Y372684D01*
X699273Y372642D01*
X699279Y372577D01*
X699276Y372511D01*
X699285Y372483D01*
X699285Y372480D01*
X699290Y372468D01*
X699291Y372466D01*
X699296Y372419D01*
X699325Y372360D01*
X699345Y372297D01*
X699378Y372253D01*
X699395Y372218D01*
X699424Y372191D01*
X699457Y372146D01*
X717052Y354552D01*
X717086Y354527D01*
X717115Y354496D01*
X717178Y354464D01*
X717236Y354423D01*
X717277Y354413D01*
X717315Y354393D01*
X717404Y354380D01*
X717453Y354368D01*
X717474Y354370D01*
X717500Y354366D01*
X728365Y354366D01*
X728430Y354377D01*
G37*
%LPC*%
G36*
X720959Y356269D02*
X720959Y356269D01*
X720959Y360335D01*
X721132Y360981D01*
X721467Y361560D01*
X721940Y362033D01*
X722519Y362368D01*
X723165Y362541D01*
X727731Y362541D01*
X727731Y356269D01*
X720959Y356269D01*
G37*
%LPD*%
%LPC*%
G36*
X724959Y143499D02*
X724959Y143499D01*
X724959Y147334D01*
X725132Y147981D01*
X725467Y148560D01*
X725940Y149033D01*
X726519Y149368D01*
X727166Y149541D01*
X731501Y149541D01*
X731501Y143499D01*
X724959Y143499D01*
G37*
%LPD*%
G36*
X757508Y324494D02*
X757508Y324494D01*
X757515Y324493D01*
X757605Y324514D01*
X757697Y324532D01*
X757703Y324537D01*
X757711Y324539D01*
X757859Y324641D01*
X760359Y327141D01*
X760360Y327144D01*
X760362Y327145D01*
X760415Y327226D01*
X760470Y327308D01*
X760470Y327311D01*
X760472Y327313D01*
X760489Y327409D01*
X760507Y327505D01*
X760507Y327508D01*
X760507Y327510D01*
X760486Y327607D01*
X760466Y327701D01*
X760464Y327703D01*
X760464Y327706D01*
X760407Y327786D01*
X760351Y327866D01*
X760349Y327867D01*
X760348Y327869D01*
X760265Y327921D01*
X760182Y327973D01*
X760180Y327974D01*
X760177Y327975D01*
X760000Y328007D01*
X752500Y328007D01*
X752497Y328007D01*
X752495Y328007D01*
X752400Y327987D01*
X752304Y327968D01*
X752301Y327966D01*
X752299Y327966D01*
X752218Y327910D01*
X752138Y327855D01*
X752136Y327853D01*
X752134Y327851D01*
X752081Y327768D01*
X752028Y327687D01*
X752028Y327684D01*
X752027Y327682D01*
X752010Y327586D01*
X751993Y327490D01*
X751993Y327487D01*
X751993Y327485D01*
X752015Y327391D01*
X752036Y327294D01*
X752038Y327292D01*
X752039Y327289D01*
X752141Y327141D01*
X754641Y324641D01*
X754648Y324637D01*
X754652Y324631D01*
X754731Y324582D01*
X754808Y324530D01*
X754816Y324529D01*
X754823Y324525D01*
X755000Y324493D01*
X757500Y324493D01*
X757508Y324494D01*
G37*
D10*
X639420Y543900D03*
X639420Y526900D03*
D11*
X773200Y106820D03*
X790200Y106820D03*
D10*
X314450Y710400D03*
X314450Y693400D03*
D11*
X537100Y636700D03*
X554100Y636700D03*
D12*
X910200Y76920D03*
X899300Y718120D03*
D13*
X762370Y69800D03*
X762370Y39800D03*
D14*
X183750Y658760D03*
X183750Y714640D03*
X221850Y658760D03*
X221850Y714640D03*
D11*
X489900Y343500D03*
X506900Y343500D03*
X337900Y339500D03*
X320900Y339500D03*
X489400Y362400D03*
X506400Y362400D03*
D15*
X427200Y353300D03*
X427200Y366000D03*
X427200Y378700D03*
X427200Y391400D03*
X427200Y404100D03*
X427200Y416800D03*
X427200Y429500D03*
X371200Y429500D03*
X371200Y416800D03*
X371200Y404100D03*
X371200Y391400D03*
X371200Y378700D03*
X371200Y366000D03*
X371200Y353300D03*
D11*
X489400Y381900D03*
X506400Y381900D03*
D16*
X546300Y309200D03*
X521300Y309200D03*
X503800Y309200D03*
X488800Y309200D03*
X471300Y309200D03*
X446300Y309200D03*
X421300Y309200D03*
X397100Y309200D03*
X380100Y309200D03*
D17*
X623560Y99200D03*
D18*
X342710Y87700D03*
D19*
X348600Y309200D03*
D16*
X571300Y309200D03*
D10*
X107300Y220600D03*
X107300Y237600D03*
X274600Y73400D03*
X274600Y56400D03*
X475100Y473900D03*
X475100Y456900D03*
X459600Y473900D03*
X459600Y456900D03*
X202700Y98400D03*
X202700Y81400D03*
D20*
X191600Y234000D03*
X163600Y234000D03*
D11*
X126600Y161500D03*
X143600Y161500D03*
X126600Y144000D03*
X143600Y144000D03*
D10*
X180400Y98600D03*
X180400Y81600D03*
D13*
X221000Y42700D03*
X221000Y72700D03*
X251000Y42700D03*
X251000Y72700D03*
D21*
X131500Y222600D03*
X131500Y250600D03*
D22*
X497700Y668799D03*
X507200Y668799D03*
X516700Y668799D03*
X516700Y694801D03*
X497700Y694801D03*
D23*
X482700Y589600D03*
X482700Y581600D03*
X482700Y573600D03*
X482700Y565600D03*
X482700Y557600D03*
X482700Y549600D03*
X482700Y541600D03*
X482700Y533600D03*
X482700Y525600D03*
X482700Y517600D03*
X482700Y509600D03*
D24*
X500700Y491600D03*
X508700Y491600D03*
X516700Y491600D03*
X524700Y491600D03*
X532700Y491600D03*
X540700Y491600D03*
X548700Y491600D03*
X556700Y491600D03*
X564700Y491600D03*
X572700Y491600D03*
X580700Y491600D03*
D23*
X598700Y509600D03*
X598700Y517600D03*
X598700Y525600D03*
X598700Y533600D03*
X598700Y541600D03*
X598700Y549600D03*
X598700Y557600D03*
X598700Y565600D03*
X598700Y573600D03*
X598700Y581600D03*
X598700Y589600D03*
D24*
X580700Y607600D03*
X572700Y607600D03*
X564700Y607600D03*
X556700Y607600D03*
X548700Y607600D03*
X540700Y607600D03*
X532700Y607600D03*
X524700Y607600D03*
X516700Y607600D03*
X508700Y607600D03*
X500700Y607600D03*
D10*
X646500Y490800D03*
X646500Y507800D03*
X540600Y452200D03*
X540600Y469200D03*
D11*
X441800Y561200D03*
X458800Y561200D03*
D10*
X623700Y543800D03*
X623700Y526800D03*
D25*
X239900Y408600D03*
X239900Y380600D03*
D10*
X168500Y316400D03*
X168500Y299400D03*
D26*
X179500Y464500D03*
X131500Y464500D03*
D22*
X207300Y317601D03*
X197800Y317601D03*
X188300Y317601D03*
X188300Y291599D03*
X207300Y291599D03*
D10*
X234000Y292100D03*
X234000Y309100D03*
D27*
X172507Y400200D03*
X149800Y400200D03*
X126915Y400200D03*
D28*
X149800Y340790D03*
D10*
X202500Y428800D03*
X202500Y411800D03*
X202500Y390300D03*
X202500Y373300D03*
D25*
X258300Y321800D03*
X258300Y293800D03*
D29*
X188300Y589370D03*
X188300Y543830D03*
D30*
X49600Y637400D02*
X35600Y637400D01*
X35600Y655400D01*
X49600Y655400D01*
X49600Y637400D01*
X49600Y643100D02*
X35600Y643100D01*
X35600Y648800D02*
X49600Y648800D01*
X49600Y654500D02*
X35600Y654500D01*
X35600Y523400D02*
X49600Y523400D01*
X35600Y523400D02*
X35600Y541400D01*
X49600Y541400D01*
X49600Y523400D01*
X49600Y529100D02*
X35600Y529100D01*
X35600Y534800D02*
X49600Y534800D01*
X49600Y540500D02*
X35600Y540500D01*
X96600Y637400D02*
X110600Y637400D01*
X96600Y637400D02*
X96600Y655400D01*
X110600Y655400D01*
X110600Y637400D01*
X110600Y643100D02*
X96600Y643100D01*
X96600Y648800D02*
X110600Y648800D01*
X110600Y654500D02*
X96600Y654500D01*
X96600Y523400D02*
X110600Y523400D01*
X96600Y523400D02*
X96600Y541400D01*
X110600Y541400D01*
X110600Y523400D01*
X110600Y529100D02*
X96600Y529100D01*
X96600Y534800D02*
X110600Y534800D01*
X110600Y540500D02*
X96600Y540500D01*
D31*
X447000Y541800D03*
X410000Y518800D03*
X447000Y518800D03*
X410000Y541800D03*
D11*
X397700Y558000D03*
X414700Y558000D03*
D10*
X388100Y535800D03*
X388100Y518800D03*
D32*
X850614Y493745D02*
X862806Y493745D01*
X862806Y472155D02*
X850614Y472155D01*
X850614Y450565D02*
X862806Y450565D01*
X862806Y428975D02*
X850614Y428975D01*
X850614Y407385D02*
X862806Y407385D01*
X862806Y385795D02*
X850614Y385795D01*
X850614Y364205D02*
X862806Y364205D01*
X862806Y342615D02*
X850614Y342615D01*
X850614Y321025D02*
X862806Y321025D01*
X862806Y299435D02*
X850614Y299435D01*
X850614Y277845D02*
X862806Y277845D01*
X862806Y256255D02*
X850614Y256255D01*
X893794Y493745D02*
X905986Y493745D01*
X905986Y472155D02*
X893794Y472155D01*
X893794Y450565D02*
X905986Y450565D01*
X905986Y428975D02*
X893794Y428975D01*
X893794Y407385D02*
X905986Y407385D01*
X905986Y385795D02*
X893794Y385795D01*
X893794Y364205D02*
X905986Y364205D01*
X905986Y342615D02*
X893794Y342615D01*
X893794Y321025D02*
X905986Y321025D01*
X905986Y299435D02*
X893794Y299435D01*
X893794Y277845D02*
X905986Y277845D01*
X905986Y256255D02*
X893794Y256255D01*
D33*
X878300Y608934D03*
X878300Y141066D03*
D10*
X296000Y73100D03*
X296000Y56100D03*
X89400Y424100D03*
X89400Y407100D03*
D34*
X58100Y424800D03*
X28100Y424800D03*
D10*
X90300Y379100D03*
X90300Y362100D03*
D34*
X58100Y381400D03*
X28100Y381400D03*
D11*
X773400Y127200D03*
X790400Y127200D03*
D13*
X794000Y69600D03*
X794000Y39600D03*
D11*
X600600Y721400D03*
X617600Y721400D03*
D10*
X812500Y703400D03*
X812500Y720400D03*
X355600Y540900D03*
X355600Y557900D03*
X318700Y540900D03*
X318700Y557900D03*
X299300Y540900D03*
X299300Y557900D03*
X336500Y540800D03*
X336500Y557800D03*
X275400Y586700D03*
X275400Y569700D03*
D11*
X750000Y142000D03*
X733000Y142000D03*
X443000Y353000D03*
X460000Y353000D03*
D10*
X307500Y299000D03*
X307500Y316000D03*
X285000Y309000D03*
X285000Y326000D03*
D35*
X407900Y711000D03*
X407900Y654000D03*
X382500Y711000D03*
X382500Y654000D03*
X357100Y711000D03*
X357100Y654000D03*
D36*
X787792Y377850D03*
X787792Y390550D03*
X787792Y403250D03*
X787792Y415950D03*
X787792Y428650D03*
X787792Y441350D03*
X787792Y454050D03*
X787792Y466750D03*
X687208Y466750D03*
X687208Y454050D03*
X687208Y441350D03*
X687208Y428650D03*
X687208Y415950D03*
X687208Y403250D03*
X687208Y390550D03*
X687208Y377850D03*
X787792Y479450D03*
X787792Y492150D03*
X687208Y479450D03*
X687208Y492150D03*
D11*
X746000Y355000D03*
X729000Y355000D03*
X601000Y443000D03*
X584000Y443000D03*
D37*
X50000Y50000D03*
X950000Y50000D03*
X950000Y700000D03*
X50000Y700000D03*
D38*
X80000Y167500D03*
X80000Y175500D03*
X80000Y151500D03*
X80000Y159500D03*
D39*
X25000Y122500D03*
X25000Y212500D03*
X80000Y122500D03*
X80000Y212500D03*
D38*
X80000Y183500D03*
D40*
X227500Y515000D03*
X117500Y302500D03*
X257500Y255000D03*
X122500Y682500D03*
D41*
X252250Y123440D03*
X245750Y123440D03*
X239250Y123440D03*
X232750Y123440D03*
X226250Y123440D03*
X219750Y123440D03*
X213250Y123440D03*
X200250Y123440D03*
X206750Y123440D03*
X193750Y123440D03*
X187250Y123440D03*
X180750Y123440D03*
X174250Y123440D03*
X167750Y123440D03*
X252250Y196560D03*
X245750Y196560D03*
X239250Y196560D03*
X232750Y196560D03*
X226250Y196560D03*
X219750Y196560D03*
X213250Y196560D03*
X206750Y196560D03*
X200250Y196560D03*
X193750Y196560D03*
X187250Y196560D03*
X180750Y196560D03*
X174250Y196560D03*
X167750Y196560D03*
D10*
X282500Y176000D03*
X282500Y159000D03*
D42*
X272660Y682253D03*
X272660Y699652D03*
X252340Y699652D03*
X252340Y680348D03*
D10*
X295000Y721000D03*
X295000Y704000D03*
X785000Y549500D03*
X785000Y566500D03*
X766000Y540000D03*
X766000Y557000D03*
X748000Y557000D03*
X748000Y574000D03*
X730000Y543000D03*
X730000Y560000D03*
D11*
X669000Y579000D03*
X652000Y579000D03*
X698500Y564000D03*
X681500Y564000D03*
D10*
X709000Y530500D03*
X709000Y547500D03*
X693000Y517500D03*
X693000Y534500D03*
D43*
X638650Y622788D03*
X651350Y622788D03*
X664050Y622788D03*
X676750Y622788D03*
X689450Y622788D03*
X702150Y622788D03*
X714850Y622788D03*
X727550Y622788D03*
X740250Y622788D03*
X752950Y622788D03*
X765650Y622788D03*
X778350Y622788D03*
X778350Y713212D03*
X765650Y713212D03*
X752950Y713212D03*
X740250Y713212D03*
X727550Y713212D03*
X714850Y713212D03*
X702150Y713212D03*
X689450Y713212D03*
X676750Y713212D03*
X664050Y713212D03*
X651350Y713212D03*
X638650Y713212D03*
D44*
X782712Y170150D03*
X782712Y182850D03*
X782712Y195550D03*
X782712Y208250D03*
X782712Y220950D03*
X782712Y233650D03*
X782712Y246350D03*
X782712Y259050D03*
X782712Y271750D03*
X782712Y284450D03*
X782712Y297150D03*
X782712Y309850D03*
X692288Y309850D03*
X692288Y297150D03*
X692288Y284450D03*
X692288Y271750D03*
X692288Y259050D03*
X692288Y246350D03*
X692288Y233650D03*
X692288Y220950D03*
X692288Y208250D03*
X692288Y195550D03*
X692288Y182850D03*
X692288Y170150D03*
D12*
X635000Y429900D03*
X635000Y442600D03*
X635000Y455300D03*
X635000Y468000D03*
D11*
X686500Y114000D03*
X703500Y114000D03*
X672000Y134500D03*
X689000Y134500D03*
D45*
X685000Y77500D03*
X695000Y77500D03*
X705000Y77500D03*
X715000Y77500D03*
D46*
X728000Y40750D03*
X672000Y40750D03*
D11*
X598500Y397000D03*
X581500Y397000D03*
X594000Y421500D03*
X577000Y421500D03*
D10*
X310500Y191500D03*
X310500Y208500D03*
X310000Y226000D03*
X310000Y209000D03*
X650000Y133500D03*
X650000Y116500D03*
D47*
X640500Y188500D03*
D48*
X639600Y182000D02*
X641400Y182000D01*
X641400Y175500D02*
X639600Y175500D01*
X658600Y175500D02*
X660400Y175500D01*
X660400Y182000D02*
X658600Y182000D01*
X658600Y188500D02*
X660400Y188500D01*
D49*
X336500Y557800D02*
X336500Y561500D01*
X377500Y602500D01*
X380000Y605000D01*
X470200Y589600D02*
X482700Y589600D01*
X470200Y589600D02*
X458800Y601000D01*
D50*
X458000Y606000D03*
X369000Y605000D03*
D49*
X371500Y602500D02*
X377500Y602500D01*
X371500Y602500D02*
X369000Y605000D01*
X458000Y606000D02*
X458800Y605200D01*
X458800Y601000D01*
X472000Y697000D02*
X490000Y715000D01*
X472000Y697000D02*
X421000Y697000D01*
X382500Y658500D01*
X382500Y654000D01*
D51*
X380000Y651500D01*
D49*
X380000Y605000D01*
X635500Y729000D02*
X661000Y729000D01*
X664050Y725950D02*
X664050Y713212D01*
X664050Y725950D02*
X661000Y729000D01*
D52*
X635500Y729000D02*
X632500Y726000D01*
X520000Y715000D02*
X490000Y715000D01*
X520000Y715000D02*
X555000Y680000D01*
X622500Y680000D01*
X632500Y690000D01*
X632500Y726000D01*
D49*
X317500Y611989D02*
X317500Y559100D01*
X317500Y660000D02*
X337500Y680000D01*
X387500Y680000D01*
X407900Y700400D02*
X407900Y711000D01*
X317500Y660000D02*
X317500Y611989D01*
X387500Y680000D02*
X407900Y700400D01*
X317500Y559100D02*
X318700Y557900D01*
X481800Y582500D02*
X482700Y581600D01*
X481800Y582500D02*
X470000Y582500D01*
X451000Y601500D01*
X451000Y610500D01*
D50*
X451000Y610500D03*
X372750Y611989D03*
D49*
X317500Y611989D01*
X382000Y710500D02*
X382500Y711000D01*
X382000Y710500D02*
X377500Y706000D01*
X377500Y697500D01*
X365000Y685000D01*
X335000Y685000D01*
X299300Y649300D02*
X299300Y557900D01*
X299300Y649300D02*
X335000Y685000D01*
X471400Y573600D02*
X482700Y573600D01*
X471400Y573600D02*
X445000Y600000D01*
X445000Y662500D01*
X465000Y682500D02*
X476000Y693500D01*
X465000Y682500D02*
X445000Y662500D01*
X434112Y693500D02*
X476000Y693500D01*
X434112Y693500D02*
X431000Y690388D01*
D50*
X431000Y690388D03*
X431500Y704000D03*
D49*
X431500Y716000D02*
X420000Y727500D01*
X387500Y727500D01*
X382000Y722000D02*
X382000Y710500D01*
X431500Y716000D02*
X431500Y704000D01*
X387500Y727500D02*
X382000Y722000D01*
X748401Y653599D02*
X753000Y649000D01*
D52*
X752950Y648950D01*
X752950Y622788D01*
X492500Y710000D02*
X465000Y682500D01*
D49*
X658505Y653599D02*
X748401Y653599D01*
X517000Y710000D02*
X492500Y710000D01*
X517000Y710000D02*
X552000Y675000D01*
X637104Y675000D01*
X658505Y653599D01*
D53*
X550000Y608900D02*
X548700Y607600D01*
X550000Y632600D02*
X554100Y636700D01*
X550000Y632600D02*
X550000Y608900D01*
X482700Y557600D02*
X461400Y557600D01*
X458800Y560200D01*
X458800Y561200D01*
X540700Y492500D02*
X540700Y491600D01*
X540700Y492500D02*
X540700Y504300D01*
X540000Y505000D01*
D54*
X540000Y525000D01*
X540000Y557500D01*
X540000Y575000D01*
X548700Y583700D01*
D55*
X548700Y607600D01*
D53*
X494144Y557600D02*
X482700Y557600D01*
X494144Y557600D02*
X495791Y559247D01*
D54*
X538253Y559247D01*
D53*
X540000Y557500D01*
X207300Y317601D02*
X207300Y311300D01*
X201500Y305500D01*
X194500Y305500D01*
X188300Y311700D01*
X188300Y317601D01*
D55*
X149800Y385000D02*
X149800Y400200D01*
X149800Y385000D02*
X149800Y340790D01*
D53*
X111500Y385000D02*
X89400Y407100D01*
X111500Y385000D02*
X149800Y385000D01*
D56*
X149800Y340790D02*
X173290Y340790D01*
X185000Y352500D01*
X202500Y352500D01*
X240000Y352500D01*
X260000Y352500D01*
X282500Y375000D01*
D55*
X179210Y340790D02*
X149800Y340790D01*
X188300Y331700D02*
X188300Y317601D01*
X188300Y331700D02*
X179210Y340790D01*
D56*
X239900Y380600D02*
X240000Y380500D01*
X240000Y352500D01*
D55*
X169701Y317601D02*
X168500Y316400D01*
X169701Y317601D02*
X188300Y317601D01*
D57*
X149800Y315200D02*
X149800Y340790D01*
D55*
X149800Y315200D02*
X150000Y315000D01*
D57*
X150000Y280000D01*
D50*
X150000Y280000D03*
X150000Y266500D03*
D56*
X257500Y537500D02*
X257500Y600000D01*
X257500Y537500D02*
X282500Y512500D01*
D53*
X275400Y586700D02*
X275400Y600000D01*
X257500Y600000D01*
D55*
X260800Y353300D02*
X371200Y353300D01*
X260800Y353300D02*
X260000Y352500D01*
D54*
X407900Y642900D02*
X407900Y654000D01*
X395000Y630000D02*
X387500Y630000D01*
D50*
X387500Y630000D03*
X257500Y629500D03*
D54*
X257500Y600000D01*
X395000Y630000D02*
X407900Y642900D01*
D53*
X554100Y636700D02*
X559200Y636700D01*
D58*
X562500Y640000D01*
X565500Y640000D01*
D50*
X565500Y640000D03*
X507473Y697500D03*
D58*
X500399Y697500D01*
D53*
X497700Y694801D01*
D56*
X282500Y480500D02*
X282500Y375000D01*
X282500Y480500D02*
X282500Y504500D01*
X282500Y512500D01*
D50*
X282500Y504500D03*
X555000Y525000D03*
D56*
X540000Y525000D01*
X290000Y492500D02*
X275000Y492500D01*
D50*
X290000Y492500D03*
X282500Y480500D03*
X542500Y525000D03*
D54*
X544000Y517500D02*
X544000Y575000D01*
D55*
X717500Y355000D02*
X729000Y355000D01*
X717500Y355000D02*
X695000Y377500D01*
D50*
X717000Y170500D03*
X720000Y370000D03*
D55*
X712500Y377500D01*
X695000Y377500D01*
X720000Y370000D02*
X732500Y357500D01*
D50*
X637500Y499500D03*
D55*
X202500Y373300D02*
X202500Y352500D01*
D51*
X732500Y141500D02*
X733000Y142000D01*
X731750Y140750D02*
X729250Y138250D01*
D58*
X544000Y575000D02*
X540000Y575000D01*
D51*
X687208Y377850D02*
X687558Y377500D01*
X695000Y377500D01*
D54*
X149800Y334800D02*
X117500Y302500D01*
D55*
X149800Y334800D02*
X149800Y340790D01*
D51*
X274600Y73400D02*
X295700Y73400D01*
X296000Y73100D01*
D57*
X158500Y266500D02*
X150000Y266500D01*
X158500Y266500D02*
X177500Y247500D01*
X177500Y220000D01*
X172500Y215000D01*
X165000Y215000D02*
X160000Y210000D01*
X160000Y185000D01*
D55*
X232750Y180250D02*
X232750Y196560D01*
D57*
X172500Y215000D02*
X165000Y215000D01*
X160000Y185000D02*
X170000Y175000D01*
X227500Y175000D01*
D55*
X232750Y180250D01*
D53*
X260000Y88000D02*
X274600Y73400D01*
X260000Y88000D02*
X260000Y167500D01*
X251500Y176000D01*
X247250Y180250D02*
X232750Y180250D01*
D58*
X540600Y469200D02*
X540600Y492400D01*
X540700Y492500D01*
D55*
X282500Y176000D02*
X257500Y176000D01*
X251500Y176000D01*
D53*
X247250Y180250D01*
D50*
X275000Y492500D03*
X532500Y525000D03*
D56*
X540000Y525000D01*
D53*
X252340Y670160D02*
X252340Y680348D01*
X252340Y670160D02*
X257500Y665000D01*
X257500Y629500D01*
D59*
X617600Y721400D02*
X631700Y735500D01*
X668500Y735500D01*
D55*
X676750Y727250D02*
X676750Y713212D01*
D54*
X676750Y727250D02*
X668500Y735500D01*
D59*
X617600Y721400D02*
X617500Y721500D01*
D60*
X601000Y709000D03*
X618000Y709000D03*
D54*
X812500Y720400D02*
X812500Y730000D01*
D59*
X807000Y735500D01*
X668500Y735500D01*
D54*
X617600Y721400D02*
X617600Y709400D01*
X618000Y709000D01*
D59*
X618500Y709247D02*
X598500Y709247D01*
D49*
X542500Y525000D02*
X540000Y525000D01*
X618000Y709000D02*
X618253Y709000D01*
X618500Y709247D01*
D54*
X601000Y709000D02*
X600753Y709247D01*
X598500Y709247D01*
D57*
X692288Y170150D02*
X716650Y170150D01*
X717000Y170500D01*
X720500Y170500D01*
X732500Y158500D01*
X732500Y141500D01*
X731750Y140750D01*
D53*
X646500Y490800D02*
X646500Y491000D01*
X646500Y490500D02*
X637500Y499500D01*
D49*
X646500Y491000D02*
X646500Y490500D01*
D55*
X732500Y141500D02*
X731000Y140000D01*
D59*
X715000Y172500D02*
X715000Y182500D01*
X715000Y172500D02*
X717000Y170500D01*
X715500Y182500D02*
X715000Y182500D01*
D60*
X715500Y182500D03*
D53*
X623000Y429000D02*
X603000Y429000D01*
X623000Y429000D02*
X632000Y420000D01*
X640000Y420000D01*
X646000Y477500D02*
X646500Y478000D01*
X646500Y490500D01*
X646000Y426000D02*
X640000Y420000D01*
X646000Y426000D02*
X646000Y477500D01*
X603000Y429000D02*
X595500Y421500D01*
X594000Y421500D01*
X596000Y419500D01*
X596000Y399500D01*
X598500Y397000D01*
D55*
X310500Y191500D02*
X273000Y191500D01*
X257500Y176000D01*
D53*
X540500Y441500D02*
X540600Y441600D01*
X540600Y452200D01*
D50*
X540500Y441500D03*
X431000Y561500D03*
D58*
X525500Y637000D02*
X534500Y637000D01*
D50*
X525500Y637000D03*
D53*
X540700Y615700D02*
X540700Y607600D01*
X542500Y617500D02*
X542500Y630000D01*
X542500Y617500D02*
X540700Y615700D01*
X542500Y630000D02*
X535800Y636700D01*
X598300Y550000D02*
X598700Y549600D01*
D50*
X580000Y550000D03*
D53*
X580500Y550000D02*
X598300Y550000D01*
X580500Y550000D02*
X580000Y550000D01*
X548700Y508700D02*
X548700Y491600D01*
X548700Y508700D02*
X549000Y509000D01*
X549000Y509500D01*
X550000Y510500D01*
D50*
X550000Y510500D03*
X540000Y590000D03*
X501000Y569500D03*
D53*
X639420Y526900D02*
X639420Y519920D01*
X632000Y512500D01*
D50*
X632000Y512500D03*
D53*
X625000Y525500D02*
X623700Y526800D01*
X625000Y525500D02*
X625000Y518500D01*
X631000Y512500D01*
X632000Y512500D01*
D50*
X746000Y191000D03*
D59*
X746000Y158000D01*
D55*
X750000Y154000D02*
X750000Y142000D01*
X750000Y154000D02*
X746000Y158000D01*
D53*
X441800Y561200D02*
X431300Y561200D01*
X431000Y561500D01*
X442300Y561200D02*
X452500Y551000D01*
X442300Y561200D02*
X441800Y561200D01*
X452500Y551000D02*
X488500Y551000D01*
X388100Y541600D02*
X388100Y535800D01*
X388100Y541600D02*
X392500Y546000D01*
X396700Y557000D02*
X397700Y558000D01*
X396700Y557000D02*
X396700Y550200D01*
X392500Y546000D01*
D50*
X392500Y546000D03*
D53*
X428500Y561500D02*
X431000Y561500D01*
X428500Y561500D02*
X422500Y567500D01*
X402500Y567500D01*
X397700Y562700D01*
X397700Y558000D01*
X540000Y590000D02*
X540000Y605000D01*
D55*
X503800Y324700D02*
X503800Y309200D01*
D53*
X503800Y324700D02*
X503500Y325000D01*
D50*
X503500Y325000D03*
X422000Y325500D03*
D55*
X422000Y309900D01*
D53*
X421300Y309200D01*
X460000Y353000D02*
X460000Y363500D01*
D50*
X460000Y363500D03*
D55*
X427200Y429500D02*
X426700Y430000D01*
X410000Y430000D01*
D50*
X410000Y430000D03*
X284500Y338500D03*
D49*
X284500Y326500D01*
X285000Y326000D01*
D55*
X197800Y330300D02*
X197800Y317601D01*
X271000Y338500D02*
X284500Y338500D01*
X271000Y338500D02*
X267500Y335000D01*
X202500Y335000D02*
X197800Y330300D01*
X202500Y335000D02*
X215000Y335000D01*
X232500Y335000D01*
X257500Y335000D01*
X267500Y335000D01*
X258300Y334200D02*
X257500Y335000D01*
X234000Y333500D02*
X234000Y309100D01*
X234000Y333500D02*
X232500Y335000D01*
D56*
X131500Y464500D02*
X131500Y504500D01*
X109250Y526750D01*
X103600Y532400D01*
X42600Y532400D01*
X42600Y529900D01*
X42500Y530000D01*
D50*
X42500Y509905D03*
X105000Y510000D03*
D56*
X105000Y512500D02*
X109250Y516750D01*
X105000Y512500D02*
X105000Y510000D01*
X109250Y516750D02*
X109250Y526750D01*
X42500Y530000D02*
X42500Y509905D01*
D53*
X28100Y424800D02*
X28100Y381400D01*
X28100Y424800D02*
X28100Y495505D01*
X42500Y509905D01*
D56*
X130000Y463000D02*
X131500Y464500D01*
X130000Y463000D02*
X130000Y442500D01*
X117500Y430000D01*
D50*
X117500Y430000D03*
X230000Y430000D03*
D56*
X235410Y430000D02*
X241010Y424400D01*
X235410Y430000D02*
X230000Y430000D01*
D58*
X228800Y428800D01*
X202500Y428800D01*
D55*
X168500Y299400D02*
X168500Y291500D01*
X175000Y285000D01*
D50*
X175000Y285000D03*
D55*
X220000Y328500D02*
X220000Y330000D01*
X215000Y335000D01*
D53*
X175000Y285000D02*
X180000Y280000D01*
X195000Y280000D01*
X200000Y285000D01*
X200000Y297500D01*
X203944Y301444D01*
X203973Y301444D01*
X204529Y302000D01*
X211500Y302000D01*
X220000Y310500D01*
X220000Y328500D01*
D50*
X219500Y327000D03*
X302500Y87500D03*
X122500Y96500D03*
D56*
X29900Y217500D02*
X29900Y234900D01*
D55*
X30000Y235000D01*
D50*
X30000Y235000D03*
X30000Y102500D03*
D55*
X29900Y102400D01*
X29900Y102500D01*
D50*
X85000Y235000D03*
X85000Y102500D03*
D55*
X84900Y102400D01*
D56*
X85000Y213700D02*
X85000Y235000D01*
X122500Y95900D02*
X36500Y95900D01*
X29900Y102500D01*
D57*
X122500Y95900D02*
X122700Y96100D01*
D54*
X322700Y87700D02*
X342710Y87700D01*
X322700Y87700D02*
X322500Y87500D01*
D50*
X322500Y87500D03*
X652500Y100000D03*
D54*
X651700Y99200D01*
X623560Y99200D01*
D53*
X183750Y658760D02*
X183750Y660000D01*
X183750Y714640D02*
X167860Y714640D01*
X167500Y715000D01*
D50*
X167500Y715000D03*
X167500Y657500D03*
D53*
X172500Y657500D01*
X181250Y657500D01*
X183750Y660000D01*
D50*
X290000Y682500D03*
D55*
X356100Y655000D02*
X357100Y654000D01*
D50*
X340000Y655000D03*
D55*
X356100Y655000D01*
D53*
X516700Y659200D02*
X516700Y668799D01*
X516700Y659200D02*
X515218Y657718D01*
X514927Y657718D01*
D50*
X514927Y657718D03*
D54*
X550000Y510500D02*
X565500Y510500D01*
X572000Y517000D01*
X575000Y511000D02*
X575000Y510500D01*
X575000Y511000D02*
X575000Y545000D01*
X580000Y550000D01*
D50*
X500000Y550000D03*
X514500Y510500D03*
X529000Y569500D03*
X568000Y550000D03*
X574500Y510500D03*
D54*
X572000Y517000D02*
X572000Y542000D01*
X572000Y549000D01*
X575000Y550000D02*
X577500Y550000D01*
D50*
X580500Y590000D03*
X594500Y611000D03*
D54*
X575000Y550000D02*
X568000Y550000D01*
X578000Y552500D02*
X580500Y550000D01*
X578000Y552500D02*
X575000Y552500D01*
X573500Y552500D01*
X570000Y552500D01*
D57*
X594500Y602929D02*
X594500Y611000D01*
X581571Y590000D02*
X580500Y590000D01*
X581571Y590000D02*
X594500Y602929D01*
X580500Y589000D02*
X568500Y577000D01*
X568500Y550000D01*
D54*
X528500Y569000D02*
X501000Y569000D01*
X559500Y510500D02*
X575000Y510500D01*
D57*
X580500Y589000D02*
X580500Y590000D01*
D50*
X781000Y318500D03*
D53*
X787792Y492150D02*
X787442Y492500D01*
D50*
X772500Y492500D03*
D55*
X787442Y492500D01*
D53*
X745500Y355500D02*
X746000Y355000D01*
D55*
X745500Y355500D02*
X745500Y366000D01*
D50*
X745500Y366000D03*
X728500Y341000D03*
X704500Y347000D03*
D54*
X726500Y343000D02*
X728500Y341000D01*
X726500Y343000D02*
X708500Y343000D01*
X704500Y347000D01*
D50*
X432500Y630000D03*
X432500Y597500D03*
D54*
X432500Y630000D01*
D50*
X308500Y642500D03*
X308500Y619000D03*
D54*
X308500Y617000D02*
X308500Y643500D01*
X368500Y517500D02*
X368500Y467500D01*
D50*
X368500Y517500D03*
X368500Y467500D03*
D51*
X482700Y549600D02*
X487100Y549600D01*
X488500Y551000D01*
X568750Y553750D02*
X570000Y552500D01*
X575000Y552500D02*
X577500Y550000D01*
X575000Y545000D02*
X572000Y542000D01*
X540000Y606900D02*
X540700Y607600D01*
X540000Y606900D02*
X540000Y605000D01*
X575000Y511000D02*
X574500Y510500D01*
X308500Y642500D02*
X308500Y643500D01*
X568000Y553000D02*
X568750Y553750D01*
X568000Y553000D02*
X568000Y550000D01*
X501000Y569000D02*
X501000Y569500D01*
X308500Y617000D02*
X308500Y619000D01*
X568000Y550000D02*
X568500Y550000D01*
D56*
X30000Y112500D02*
X30000Y102500D01*
X30000Y112500D02*
X22400Y120100D01*
X82400Y120100D02*
X82400Y105100D01*
X85000Y102500D01*
X84900Y213600D02*
X85000Y213700D01*
D54*
X80000Y151500D02*
X80000Y122500D01*
D55*
X147500Y657500D02*
X122500Y682500D01*
X147500Y657500D02*
X172500Y657500D01*
D58*
X180600Y81400D02*
X202700Y81400D01*
X180600Y81400D02*
X180400Y81600D01*
X170900Y81600D01*
X202700Y81400D02*
X203900Y81400D01*
X213161Y90661D02*
X213161Y92500D01*
D50*
X213161Y92500D03*
D58*
X213161Y90661D02*
X203900Y81400D01*
X213161Y92500D02*
X213161Y104339D01*
X206750Y110750D02*
X206750Y123440D01*
X206750Y110750D02*
X213161Y104339D01*
D55*
X191600Y234000D02*
X191600Y249900D01*
X191500Y250000D01*
X191500Y251000D01*
D50*
X191500Y251000D03*
D58*
X191500Y217000D02*
X207500Y217000D01*
X213500Y211000D01*
X213500Y196810D01*
X213250Y196560D01*
D54*
X107300Y237600D02*
X87600Y237600D01*
X85000Y235000D01*
X107300Y237600D02*
X107300Y248700D01*
X107000Y249000D01*
X107000Y250000D01*
X107500Y250500D01*
D50*
X107500Y250500D03*
X207500Y234000D03*
D55*
X191600Y234000D01*
X191600Y217100D01*
X191500Y217000D01*
D50*
X191500Y217000D03*
D56*
X89500Y235900D02*
X30000Y235900D01*
D53*
X213250Y196560D02*
X213250Y183750D01*
X213000Y183500D01*
D50*
X213000Y183500D03*
X235500Y137500D03*
D53*
X236000Y137500D02*
X239250Y134250D01*
X236000Y137500D02*
X235500Y137500D01*
X239250Y134250D02*
X239250Y123440D01*
X232750Y134750D02*
X235500Y137500D01*
X232750Y134750D02*
X232750Y123440D01*
X207500Y124190D02*
X206750Y123440D01*
X207500Y124190D02*
X207500Y137500D01*
D50*
X207500Y137500D03*
X184702Y137202D03*
D53*
X184798Y137202D02*
X187500Y134500D01*
X184798Y137202D02*
X184702Y137202D01*
X187500Y134500D02*
X187500Y123690D01*
X187250Y123440D01*
D50*
X667000Y506000D03*
X681000Y533000D03*
D54*
X681000Y520000D01*
X667000Y506000D01*
D50*
X253500Y411000D03*
X501000Y580000D03*
X523500Y590000D03*
D55*
X786000Y501000D02*
X786000Y490000D01*
D50*
X765500Y309500D03*
D55*
X137400Y81600D02*
X122500Y96500D01*
X137400Y81600D02*
X170900Y81600D01*
D54*
X342710Y87700D02*
X359710Y87700D01*
D50*
X359500Y87500D03*
X608500Y99000D03*
D54*
X608560Y99200D02*
X623560Y99200D01*
D55*
X356100Y647500D02*
X340000Y647500D01*
D50*
X340000Y647500D03*
D55*
X899890Y385795D02*
X899890Y256255D01*
X856710Y256255D01*
D54*
X501000Y569500D02*
X501000Y589000D01*
X485000Y605000D01*
X501000Y590000D02*
X540000Y590000D01*
D50*
X485000Y605000D03*
X501000Y589500D03*
D54*
X574500Y510500D02*
X579500Y510500D01*
X592000Y498000D01*
D50*
X592000Y498000D03*
D58*
X548700Y491600D02*
X548700Y443700D01*
X546600Y441600D02*
X540600Y441600D01*
X546600Y441600D02*
X548700Y443700D01*
D50*
X169661Y81500D03*
D58*
X282500Y147500D02*
X282500Y159000D01*
D60*
X282500Y147500D03*
D57*
X573500Y552500D02*
X573500Y579500D01*
X576000Y582000D02*
X576000Y555000D01*
D50*
X234000Y322000D03*
D53*
X183750Y658760D02*
X183750Y714640D01*
D50*
X561500Y589000D03*
X561000Y545000D03*
D61*
X290000Y682500D02*
X272907Y682500D01*
X272660Y682253D01*
D53*
X714850Y696000D02*
X714850Y713212D01*
X714850Y696000D02*
X702500Y696000D01*
X702150Y696500D02*
X689000Y696500D01*
X688500Y697000D02*
X688500Y712262D01*
X688500Y697000D02*
X689000Y696500D01*
X688500Y712262D02*
X689450Y713212D01*
X702150Y713212D02*
X702150Y696500D01*
X727550Y696000D02*
X727550Y713212D01*
X727550Y696000D02*
X715000Y696000D01*
X709500Y696000D01*
X740000Y712962D02*
X740250Y713212D01*
X740000Y712962D02*
X740000Y696000D01*
D54*
X715000Y696000D01*
D60*
X689000Y696500D03*
X740000Y696000D03*
D54*
X715000Y696000D02*
X702500Y696000D01*
X688500Y696000D01*
D53*
X690000Y642500D02*
X689450Y641950D01*
X689450Y622788D01*
D60*
X690000Y642500D03*
X727500Y642500D03*
D53*
X727000Y642000D01*
X727000Y623338D01*
X727550Y622788D01*
D54*
X727500Y642500D02*
X714850Y642500D01*
X710000Y642500D01*
D55*
X702150Y642500D02*
X700000Y642500D01*
D54*
X690000Y642500D01*
D53*
X702150Y642500D02*
X702150Y622788D01*
X714850Y622788D02*
X714850Y642500D01*
D58*
X600600Y721400D02*
X599500Y722500D01*
X590000Y722500D01*
D60*
X590000Y722500D03*
X812500Y690000D03*
D54*
X812500Y703400D01*
D50*
X579500Y658500D03*
X609500Y658500D03*
D59*
X610000Y658400D02*
X577484Y658400D01*
D50*
X652000Y552500D03*
X680500Y545000D03*
D54*
X663355Y552500D02*
X652000Y552500D01*
X670855Y545000D02*
X680500Y545000D01*
X670855Y545000D02*
X663355Y552500D01*
X680500Y545000D02*
X681000Y544500D01*
X681000Y533000D01*
D50*
X613000Y693000D03*
D59*
X615000Y692900D02*
X584484Y692900D01*
D50*
X587000Y693000D03*
D61*
X300900Y693400D02*
X290000Y682500D01*
X300900Y693400D02*
X314450Y693400D01*
D60*
X708500Y642500D03*
X708500Y696000D03*
D50*
X786000Y500500D03*
D49*
X25000Y212600D02*
X25000Y212500D01*
X25000Y212600D02*
X29900Y217500D01*
X702150Y696350D02*
X702150Y696500D01*
X702150Y696350D02*
X702500Y696000D01*
X708500Y696000D02*
X715000Y696000D01*
D54*
X710000Y642500D02*
X700000Y642500D01*
D49*
X708500Y642500D02*
X710000Y642500D01*
X614900Y693000D02*
X613000Y693000D01*
X614900Y693000D02*
X615000Y692900D01*
X787792Y492150D02*
X786000Y490358D01*
X786000Y490000D01*
X609600Y658400D02*
X609500Y658500D01*
X609600Y658400D02*
X610000Y658400D01*
X579500Y658500D02*
X579400Y658400D01*
X577484Y658400D01*
X537100Y636700D02*
X535800Y636700D01*
X534800Y636700D02*
X537100Y636700D01*
X534800Y636700D02*
X534500Y637000D01*
X561500Y584000D02*
X568500Y577000D01*
X561500Y584000D02*
X561500Y589000D01*
X576000Y551000D02*
X575000Y550000D01*
X576000Y551000D02*
X576000Y555000D01*
X568000Y550000D02*
X563000Y545000D01*
X561000Y545000D01*
X357100Y654000D02*
X356100Y653000D01*
X356100Y647500D01*
X234000Y333500D02*
X234000Y322000D01*
X359700Y87700D02*
X359500Y87500D01*
X359700Y87700D02*
X359710Y87700D01*
X81100Y213600D02*
X80000Y212500D01*
X81100Y213600D02*
X84900Y213600D01*
X30000Y235000D02*
X30000Y235900D01*
X169761Y81600D02*
X169661Y81500D01*
X169761Y81600D02*
X170900Y81600D01*
X82400Y120100D02*
X80000Y122500D01*
X25000Y122500D02*
X22600Y120100D01*
X22400Y120100D01*
D54*
X514500Y510500D02*
X514500Y535500D01*
X500000Y550000D01*
D55*
X487500Y550000D01*
X487100Y549600D01*
D59*
X241010Y424400D02*
X241010Y409710D01*
X239900Y408600D01*
X242300Y411000D01*
X253500Y411000D01*
X431000Y596000D02*
X432500Y597500D01*
X431000Y596000D02*
X431000Y561500D01*
D54*
X746000Y355000D02*
X746000Y345000D01*
X742000Y341000D01*
X728500Y341000D01*
D50*
X259000Y309500D03*
D55*
X258300Y321800D02*
X258300Y334200D01*
X258800Y321200D02*
X258800Y308800D01*
D60*
X601000Y732000D03*
D58*
X601000Y722500D01*
X781000Y318500D02*
X781000Y311562D01*
X782712Y309850D01*
X778938Y309500D02*
X765500Y309500D01*
X778938Y309500D02*
X781000Y311562D01*
D50*
X746000Y159000D03*
X699500Y352000D03*
X733500Y336000D03*
D54*
X703500Y348000D02*
X699500Y352000D01*
X729500Y339500D02*
X733500Y335500D01*
D59*
X746000Y278918D02*
X746000Y191000D01*
X746000Y278918D02*
X745959Y278959D01*
D60*
X745500Y279000D03*
X745500Y491500D03*
D54*
X745500Y366000D01*
D49*
X259000Y309500D02*
X258800Y308800D01*
X733500Y335500D02*
X733500Y336000D01*
D53*
X575000Y443000D02*
X572000Y446000D01*
D60*
X572000Y446000D03*
D53*
X575000Y443000D02*
X584000Y443000D01*
D55*
X652500Y100000D02*
X677500Y100000D01*
X685000Y92500D01*
D49*
X762370Y39800D02*
X762370Y39000D01*
X778000Y39000D01*
X780000Y39000D01*
X794000Y39000D01*
X794000Y39600D01*
D60*
X778000Y39000D03*
X740000Y39500D03*
X715000Y39500D03*
X684500Y39500D03*
X659500Y39500D03*
D50*
X673000Y501000D03*
D54*
X681000Y509000D01*
X681000Y520000D01*
D55*
X685000Y92500D02*
X685000Y77500D01*
D54*
X672000Y40750D02*
X670750Y39500D01*
X659500Y39500D01*
X672000Y40750D02*
X673250Y39500D01*
X684500Y39500D01*
X715000Y39500D02*
X726750Y39500D01*
X728000Y40750D01*
X729500Y39250D02*
X739750Y39250D01*
X729500Y39250D02*
X728000Y40750D01*
X739750Y39250D02*
X740000Y39500D01*
X715000Y39500D02*
X684500Y39500D01*
D55*
X650000Y102500D02*
X650000Y116500D01*
X650000Y102500D02*
X652500Y100000D01*
X740000Y39500D02*
X761870Y39500D01*
X762370Y39000D01*
X762370Y39800D02*
X763170Y39000D01*
X780000Y39000D01*
X778000Y39000D02*
X794000Y39000D01*
D61*
X685000Y40000D02*
X685000Y77500D01*
X685000Y40000D02*
X684500Y39500D01*
D53*
X598800Y557500D02*
X598783Y557502D01*
X598766Y557506D01*
X598750Y557513D01*
X598736Y557523D01*
X598723Y557536D01*
X598713Y557550D01*
X598706Y557566D01*
X598702Y557583D01*
X598700Y557600D01*
X638420Y553580D02*
X638420Y544900D01*
X634500Y557500D02*
X598800Y557500D01*
X634500Y557500D02*
X638420Y553580D01*
X638420Y544900D02*
X639420Y543900D01*
D54*
X471500Y309000D02*
X471500Y296500D01*
X459500Y284500D01*
D62*
X471300Y309200D02*
X471300Y361300D01*
X482500Y372500D02*
X505000Y372500D01*
X506400Y373900D01*
X506400Y381900D01*
X482500Y372500D02*
X471300Y361300D01*
X506400Y362400D02*
X506400Y381900D01*
X506400Y362400D02*
X506900Y361900D01*
X506900Y343500D01*
D57*
X471300Y317200D02*
X443000Y345500D01*
X443000Y353000D01*
D55*
X471300Y317200D02*
X471300Y309200D01*
D49*
X309500Y284500D02*
X308250Y285750D01*
X307500Y286500D02*
X307500Y299000D01*
X307500Y286500D02*
X308250Y285750D01*
D54*
X238401Y291599D02*
X207300Y291599D01*
X238401Y291599D02*
X240000Y290000D01*
X254500Y290000D01*
X258300Y293800D01*
X267600Y284500D01*
X302000Y284500D01*
X309500Y284500D01*
X365000Y284500D02*
X459500Y284500D01*
D53*
X90300Y285300D02*
X90300Y362100D01*
X90300Y285300D02*
X90000Y285000D01*
X102000Y273000D01*
X200500Y273000D02*
X207500Y280000D01*
X207300Y280200D01*
X207300Y291599D01*
X200500Y273000D02*
X102000Y273000D01*
D55*
X371200Y429500D02*
X388000Y429500D01*
X410000Y407500D02*
X410000Y385000D01*
D50*
X410000Y385000D03*
X410500Y358500D03*
D55*
X410000Y407500D02*
X388000Y429500D01*
D53*
X320900Y339500D02*
X320900Y334100D01*
X330000Y325000D01*
X357500Y325000D01*
X365000Y317500D01*
X365000Y284500D01*
D54*
X471300Y309200D02*
X471500Y309000D01*
X362500Y284500D02*
X309500Y284500D01*
X362500Y284500D02*
X365000Y284500D01*
D51*
X237900Y292100D02*
X234000Y292100D01*
X237900Y292100D02*
X238401Y291599D01*
D55*
X410500Y357000D02*
X410500Y358500D01*
X410500Y357000D02*
X414200Y353300D01*
X427200Y353300D01*
X427500Y353000D01*
X443000Y353000D01*
X258300Y255800D02*
X257500Y255000D01*
X258300Y255800D02*
X258300Y293800D01*
D49*
X308250Y285750D02*
X361250Y285750D01*
X362500Y284500D01*
D55*
X311500Y261000D02*
X311500Y227500D01*
X310000Y226000D01*
D60*
X311500Y261000D03*
X302500Y277000D03*
D55*
X302500Y284000D01*
X302000Y284500D01*
D56*
X188300Y515000D02*
X188300Y543830D01*
X188300Y515000D02*
X188300Y490800D01*
X179500Y482000D02*
X179500Y464500D01*
X179500Y482000D02*
X188300Y490800D01*
X179500Y464500D02*
X127500Y412500D01*
X127500Y400785D01*
X126915Y400200D01*
D59*
X188300Y515000D02*
X227500Y515000D01*
D58*
X200250Y100850D02*
X202700Y98400D01*
X200250Y100850D02*
X200250Y120000D01*
X200250Y123440D01*
D59*
X148100Y234000D02*
X131500Y250600D01*
X148100Y234000D02*
X163600Y234000D01*
D55*
X152500Y222900D01*
X152500Y180000D01*
X200250Y132250D01*
X200250Y120000D01*
D51*
X126600Y161500D02*
X114000Y161500D01*
X100000Y175500D01*
X80000Y175500D01*
X124100Y144000D02*
X126600Y144000D01*
X124100Y144000D02*
X100600Y167500D01*
X80000Y167500D01*
X251000Y79000D02*
X251000Y72700D01*
X219750Y110250D02*
X219750Y123440D01*
X219750Y110250D02*
X251000Y79000D01*
X221000Y72700D02*
X221000Y103000D01*
X213250Y110750D02*
X213250Y123440D01*
X213250Y110750D02*
X221000Y103000D01*
D58*
X180400Y98600D02*
X180400Y123090D01*
X180750Y123440D01*
D49*
X299300Y533200D02*
X299300Y540900D01*
X299300Y533200D02*
X312500Y520000D01*
X312500Y403500D01*
X357000Y359000D01*
X380000Y359000D01*
X384000Y363000D01*
X384000Y372000D02*
X377000Y379000D01*
X376700Y378700D01*
X371200Y378700D01*
X384000Y372000D02*
X384000Y363000D01*
X336500Y532500D02*
X336500Y540800D01*
X336500Y532500D02*
X323500Y519500D01*
X323500Y425500D01*
X358000Y391000D01*
X370800Y391000D01*
X371200Y391400D01*
X546300Y326200D02*
X546300Y309200D01*
X525000Y347500D02*
X525000Y385000D01*
X506000Y404000D01*
X445800Y404000D01*
X445700Y404100D01*
X427200Y404100D01*
X525000Y347500D02*
X546300Y326200D01*
X521300Y309200D02*
X521300Y383700D01*
X448900Y391400D02*
X427200Y391400D01*
X513500Y391500D02*
X521300Y383700D01*
X513500Y391500D02*
X449000Y391500D01*
X448900Y391400D01*
X427200Y378700D02*
X425700Y377200D01*
X411200Y377200D01*
X389000Y355000D01*
X389000Y298500D02*
X395000Y292500D01*
X437500Y292500D01*
X446300Y301300D02*
X446300Y309200D01*
X389000Y298500D02*
X389000Y355000D01*
X446300Y301300D02*
X437500Y292500D01*
X397000Y309300D02*
X397000Y356000D01*
X397000Y309300D02*
X397100Y309200D01*
X397000Y356000D02*
X407000Y366000D01*
X427200Y366000D01*
X451600Y381900D02*
X489400Y381900D01*
X435700Y366000D02*
X427200Y366000D01*
X435700Y366000D02*
X451600Y381900D01*
X489900Y310300D02*
X488800Y309200D01*
X489900Y310300D02*
X489900Y343500D01*
D52*
X488800Y309200D02*
X488800Y298700D01*
X495000Y292500D01*
X552500Y292500D01*
X557500Y297500D01*
X557500Y322500D01*
D49*
X530000Y350000D01*
X530000Y385000D01*
X507500Y407500D02*
X467500Y407500D01*
X432500Y442500D01*
X362500Y442500D01*
X507500Y407500D02*
X530000Y385000D01*
X362500Y442500D02*
X355600Y449400D01*
X355600Y540900D01*
X380100Y319900D02*
X380100Y309200D01*
X360000Y340000D02*
X340000Y340000D01*
X339200Y340800D01*
X337900Y339500D01*
X360000Y340000D02*
X380100Y319900D01*
X484900Y362400D02*
X489400Y362400D01*
X484900Y362400D02*
X480000Y357500D01*
X480000Y295000D01*
X487500Y287500D01*
X560000Y287500D01*
X572500Y300000D01*
X571300Y301200D01*
X571300Y309200D01*
X371200Y366000D02*
X359000Y366000D01*
X318000Y407000D01*
X318000Y540200D01*
X318700Y540900D01*
D54*
X90000Y193500D02*
X79900Y183400D01*
X90000Y193500D02*
X98500Y193500D01*
X107500Y202500D01*
X107300Y202700D01*
X107300Y220600D01*
X129500Y220600D01*
X131500Y222600D01*
D49*
X80000Y183500D02*
X79900Y183400D01*
D51*
X296000Y56100D02*
X296000Y51000D01*
X287700Y42700D02*
X251000Y42700D01*
X287700Y42700D02*
X296000Y51000D01*
X274600Y56400D02*
X234700Y56400D01*
X221000Y42700D01*
D49*
X475100Y449900D02*
X475100Y456900D01*
X583786Y340947D02*
X583786Y295553D01*
X583786Y340947D02*
X544000Y380733D01*
X544000Y381000D01*
D51*
X252250Y209750D02*
X252250Y196560D01*
X252250Y209750D02*
X258944Y216444D01*
X258973Y216444D01*
D61*
X312529Y270000D01*
D49*
X558233Y270000D01*
X583786Y295553D01*
X544000Y381000D02*
X475100Y449900D01*
D61*
X310250Y274750D02*
X250500Y215000D01*
D49*
X580000Y297500D02*
X580000Y340000D01*
X475000Y445000D01*
D61*
X250500Y215000D02*
X230000Y215000D01*
D51*
X226250Y211250D02*
X226250Y196560D01*
X226250Y211250D02*
X230000Y215000D01*
D49*
X557250Y274750D02*
X580000Y297500D01*
X557250Y274750D02*
X310250Y274750D01*
X470500Y445000D02*
X475000Y445000D01*
X470500Y445000D02*
X459600Y455900D01*
X459600Y456900D01*
D51*
X153515Y161015D02*
X174250Y140279D01*
X174250Y123440D01*
X153515Y161015D02*
X144086Y161015D01*
D61*
X143600Y161500D01*
D51*
X143600Y144000D02*
X147600Y140000D01*
X162500Y140000D01*
X167750Y134750D02*
X167750Y123440D01*
X167750Y134750D02*
X162500Y140000D01*
D61*
X856710Y493745D02*
X875000Y475455D01*
X875000Y445000D02*
X870000Y440000D01*
X860500Y440000D01*
X811050Y390550D02*
X787792Y390550D01*
X875000Y445000D02*
X875000Y475455D01*
D49*
X651350Y672650D02*
X651350Y713212D01*
X651350Y672650D02*
X664000Y660000D01*
X765500Y660000D01*
X831500Y594000D01*
D60*
X831500Y510748D03*
D49*
X831500Y594000D01*
X840000Y419500D02*
X811050Y390550D01*
X840000Y435000D02*
X845000Y440000D01*
X860500Y440000D01*
X840000Y435000D02*
X840000Y419500D01*
X725000Y452000D02*
X701650Y428650D01*
X687208Y428650D01*
X725000Y452000D02*
X725000Y509500D01*
X730000Y514500D02*
X730000Y543000D01*
X730000Y514500D02*
X725000Y509500D01*
D61*
X787792Y403250D02*
X788542Y402500D01*
D49*
X638650Y678850D02*
X638650Y713212D01*
X660500Y657000D02*
X764500Y657000D01*
X660500Y657000D02*
X638650Y678850D01*
X764500Y657000D02*
X824000Y597500D01*
X824000Y506000D01*
D60*
X824000Y506000D03*
D49*
X849655Y472155D02*
X856710Y472155D01*
X849655Y472155D02*
X840000Y462500D01*
X840000Y440000D02*
X835000Y435000D01*
X835000Y420000D01*
X817500Y402500D01*
X788542Y402500D01*
X840000Y440000D02*
X840000Y462500D01*
D50*
X833500Y453000D03*
D49*
X640000Y621438D02*
X638650Y622788D01*
X640000Y621438D02*
X640000Y609000D01*
X649500Y599500D01*
X772000Y599500D01*
X795500Y576000D01*
X754000Y431000D02*
X770000Y415000D01*
X786842Y415000D01*
X787792Y415950D01*
X795500Y540000D02*
X795500Y576000D01*
X833500Y453000D02*
X831500Y451000D01*
X831500Y423500D01*
X824000Y416000D01*
X787842Y416000D02*
X787792Y415950D01*
X787842Y416000D02*
X824000Y416000D01*
X754000Y498500D02*
X795500Y540000D01*
X754000Y498500D02*
X754000Y431000D01*
D50*
X825000Y429500D03*
D61*
X788071Y428929D02*
X787792Y428650D01*
D49*
X651350Y612650D02*
X651350Y622788D01*
X651350Y612650D02*
X661500Y602500D01*
X774000Y602500D01*
X799000Y577500D01*
X787642Y428500D02*
X763000Y428500D01*
X787642Y428500D02*
X787792Y428650D01*
X788642Y429500D02*
X825000Y429500D01*
X788642Y429500D02*
X788071Y428929D01*
X763000Y428500D02*
X758000Y433500D01*
X758000Y497267D02*
X799000Y538267D01*
X799000Y577500D01*
X758000Y497267D02*
X758000Y433500D01*
D50*
X833277Y462223D03*
D49*
X767500Y620938D02*
X765650Y622788D01*
X767500Y620938D02*
X767500Y614000D01*
X802500Y579000D01*
X802500Y536500D01*
X762000Y496000D01*
X762000Y445500D01*
X766150Y441350D02*
X787792Y441350D01*
X766150Y441350D02*
X762000Y445500D01*
X827500Y456446D02*
X833277Y462223D01*
X827500Y448500D02*
X820350Y441350D01*
X787792Y441350D01*
X827500Y448500D02*
X827500Y456446D01*
D50*
X820500Y453000D03*
D49*
X778350Y608150D02*
X778350Y622788D01*
X778350Y608150D02*
X806000Y580500D01*
X806000Y535000D01*
X765500Y494500D01*
X787506Y454336D02*
X787792Y454050D01*
X787506Y454336D02*
X769950Y454336D01*
X765500Y458786D02*
X765500Y494500D01*
X765500Y458786D02*
X769950Y454336D01*
X788842Y453000D02*
X820500Y453000D01*
X788842Y453000D02*
X787792Y454050D01*
D61*
X787792Y466750D02*
X804250Y466750D01*
X915000Y507500D02*
X922500Y500000D01*
X845000Y507500D02*
X804250Y466750D01*
X845000Y507500D02*
X915000Y507500D01*
X913065Y450565D02*
X899890Y450565D01*
X922500Y460000D02*
X922500Y500000D01*
X922500Y460000D02*
X913065Y450565D01*
D49*
X778350Y657150D02*
X778350Y713212D01*
X778350Y657150D02*
X842500Y593000D01*
X842500Y520500D01*
X847500Y515500D01*
X917500Y515500D01*
X932000Y501000D01*
X932000Y450565D01*
D60*
X932000Y450565D03*
D61*
X817500Y375000D02*
X817500Y270000D01*
X806550Y259050D01*
X849885Y407385D02*
X856710Y407385D01*
X849885Y407385D02*
X817500Y375000D01*
D49*
X806550Y259050D02*
X782712Y259050D01*
D61*
X834205Y364205D02*
X856710Y364205D01*
X827500Y357500D02*
X827500Y257500D01*
X803650Y233650D01*
X827500Y357500D02*
X834205Y364205D01*
D49*
X803650Y233650D02*
X782712Y233650D01*
D61*
X856595Y342500D02*
X856710Y342615D01*
X856595Y342500D02*
X840000Y342500D01*
X832500Y335000D01*
X832500Y252500D01*
X801000Y221000D01*
D49*
X782762Y221000D01*
X782712Y220950D01*
D61*
X843525Y321025D02*
X856710Y321025D01*
X843525Y321025D02*
X838000Y315500D01*
X838000Y243000D01*
X803500Y208500D01*
D49*
X782962Y208500D01*
X782712Y208250D01*
D61*
X806950Y286950D02*
X807500Y287500D01*
D50*
X810000Y290000D03*
D61*
X806950Y286950D02*
X805000Y285000D01*
X807500Y287500D02*
X810000Y290000D01*
D49*
X805000Y285000D02*
X783262Y285000D01*
X782712Y284450D01*
D61*
X760000Y320000D02*
X760000Y232500D01*
X899890Y407385D02*
X889775Y417500D01*
X777500Y337500D02*
X760000Y320000D01*
X777500Y337500D02*
X802500Y337500D01*
X810000Y345000D01*
X810000Y380000D01*
X847500Y417500D01*
X889775Y417500D01*
D49*
X760000Y232500D02*
X760000Y204000D01*
X768450Y195550D02*
X782712Y195550D01*
X768450Y195550D02*
X760000Y204000D01*
D53*
X621500Y541600D02*
X598700Y541600D01*
X621500Y541600D02*
X622200Y542300D01*
X623700Y543800D01*
X646500Y515247D02*
X646500Y507800D01*
X646500Y515247D02*
X648706Y517453D01*
X648706Y533347D01*
X646553Y535500D02*
X629000Y535500D01*
X622200Y542300D01*
X646553Y535500D02*
X648706Y533347D01*
D49*
X525000Y446000D02*
X524500Y446000D01*
D50*
X524500Y446000D03*
X489000Y445888D03*
D49*
X489000Y440888D01*
X532700Y453700D02*
X532700Y491600D01*
X532700Y453700D02*
X525000Y446000D01*
X489000Y440888D02*
X628500Y301388D01*
X680000Y195550D02*
X692288Y195550D01*
X628500Y257500D02*
X628500Y301388D01*
X643500Y242500D02*
X660500Y242500D01*
X669500Y233500D01*
X669500Y206050D01*
X680000Y195550D01*
X643500Y242500D02*
X628500Y257500D01*
X517700Y608600D02*
X517700Y638700D01*
X526455Y647455D01*
X517700Y608600D02*
X516700Y607600D01*
X648545Y647455D02*
X658000Y638000D01*
X648545Y647455D02*
X526455Y647455D01*
D52*
X658000Y638000D02*
X658000Y611500D01*
X663599Y605901D01*
X730901Y605901D02*
X742500Y617500D01*
X740250Y619750D01*
X740250Y622788D01*
X730901Y605901D02*
X663599Y605901D01*
D56*
X76500Y612500D02*
X42600Y646400D01*
X165170Y612500D02*
X188300Y589370D01*
X165170Y612500D02*
X76500Y612500D01*
D55*
X202500Y411800D02*
X202500Y390300D01*
X202200Y390000D01*
X182500Y390000D01*
X172507Y399993D01*
X172507Y400200D01*
D49*
X508200Y491100D02*
X508700Y491600D01*
D50*
X520000Y547500D03*
X506000Y639500D03*
D49*
X518000Y651500D01*
D50*
X649000Y265500D03*
X647000Y248000D03*
D49*
X662500Y248000D02*
X673750Y236750D01*
X662500Y248000D02*
X647000Y248000D01*
X508200Y437800D02*
X508200Y491100D01*
X649000Y268000D02*
X649000Y265500D01*
X649000Y268000D02*
X642500Y274500D01*
X642500Y303500D01*
X508200Y437800D01*
X508700Y491600D02*
X508700Y501200D01*
X512500Y505000D01*
X517500Y505000D01*
X520000Y507500D01*
X520000Y547500D01*
X663550Y623288D02*
X663550Y637950D01*
X663550Y623288D02*
X664050Y622788D01*
X650000Y651500D02*
X518000Y651500D01*
X650000Y651500D02*
X663550Y637950D01*
X673750Y236750D02*
X673750Y216250D01*
X692038Y208500D02*
X692288Y208250D01*
X692038Y208500D02*
X681500Y208500D01*
X673750Y216250D01*
D52*
X676750Y622788D02*
X676750Y630250D01*
X637699Y669301D01*
D49*
X522699Y694801D02*
X516700Y694801D01*
X548199Y669301D02*
X637699Y669301D01*
X548199Y669301D02*
X522699Y694801D01*
D50*
X506088Y649000D03*
X530000Y547500D03*
D49*
X507200Y664200D02*
X507200Y668799D01*
X506088Y663088D02*
X506088Y649000D01*
X506088Y663088D02*
X507200Y664200D01*
X524700Y491600D02*
X524700Y457200D01*
X517500Y450000D01*
X517500Y440050D01*
X524700Y491600D02*
X525000Y491900D01*
X525000Y535000D01*
X530000Y540000D01*
X530000Y547500D01*
X650000Y278500D02*
X656750Y271750D01*
X692288Y271750D01*
X650000Y278500D02*
X650000Y307550D01*
X517500Y440050D01*
D61*
X915550Y511950D02*
X926000Y501500D01*
X809792Y479950D02*
X788292Y479950D01*
X787792Y479450D01*
X839500Y511950D02*
X915550Y511950D01*
X926000Y441000D02*
X913975Y428975D01*
X899890Y428975D01*
X926000Y441000D02*
X926000Y501500D01*
D49*
X765650Y664850D02*
X765650Y713212D01*
X765650Y664850D02*
X837500Y593000D01*
X837500Y514500D01*
X839500Y512500D01*
X839500Y511950D01*
X839500Y509658D02*
X809792Y479950D01*
X839500Y509658D02*
X839500Y511950D01*
D53*
X482700Y541600D02*
X447200Y541600D01*
X447000Y541800D01*
X441300Y547500D01*
X428700Y547500D02*
X418200Y558000D01*
X414700Y558000D01*
X428700Y547500D02*
X441300Y547500D01*
X421300Y518800D02*
X410000Y518800D01*
X421300Y518800D02*
X430000Y527500D01*
X467600Y533600D02*
X482700Y533600D01*
X461500Y527500D02*
X430000Y527500D01*
X461500Y527500D02*
X467600Y533600D01*
X410000Y518800D02*
X388100Y518800D01*
D50*
X658973Y539973D03*
X535922Y622636D03*
D49*
X532700Y619414D01*
X532700Y607600D01*
D50*
X527500Y667500D03*
D49*
X527500Y675000D01*
X523000Y679500D01*
X502000Y679500D01*
X497500Y675000D01*
X497700Y674800D01*
X497700Y668799D01*
X656500Y528000D02*
X658000Y529500D01*
X656500Y528000D02*
X656500Y363500D01*
X711500Y308500D01*
X658000Y529500D02*
X658000Y539973D01*
X658973Y539973D01*
X711500Y308500D02*
X711500Y266500D01*
X704050Y259050D02*
X692288Y259050D01*
X704050Y259050D02*
X711500Y266500D01*
D50*
X651027Y542973D03*
X525000Y622500D03*
D49*
X525000Y607900D01*
X524700Y607600D01*
X660000Y525000D02*
X660000Y366500D01*
X715000Y311500D01*
X661500Y526500D02*
X661500Y533000D01*
X665000Y536500D01*
X661500Y526500D02*
X660000Y525000D01*
X665000Y536500D02*
X665000Y541500D01*
X661000Y545500D01*
X653554Y545500D02*
X651027Y542973D01*
X653554Y545500D02*
X661000Y545500D01*
X715000Y311500D02*
X715000Y254000D01*
X707000Y246000D01*
X692638Y246000D01*
X692288Y246350D01*
X459600Y473900D02*
X459600Y489600D01*
X465000Y495000D02*
X465500Y495500D01*
X465000Y495000D02*
X459600Y489600D01*
X472600Y517600D02*
X482700Y517600D01*
X468556Y513556D02*
X468556Y498556D01*
X468556Y513556D02*
X472600Y517600D01*
X468556Y498556D02*
X465500Y495500D01*
X475100Y473900D02*
X466200Y465000D01*
X465772Y465000D01*
X465705Y465067D01*
X453495Y465067D01*
X453428Y465000D01*
X452500Y465000D01*
X447500Y470000D02*
X447500Y485000D01*
X465000Y502500D01*
X465000Y520000D01*
X470600Y525600D01*
X482700Y525600D01*
X447500Y470000D02*
X452500Y465000D01*
D53*
X89400Y424100D02*
X88700Y424800D01*
X58100Y424800D01*
X88000Y381400D02*
X90300Y379100D01*
X88000Y381400D02*
X58100Y381400D01*
D52*
X790200Y106820D02*
X790200Y86200D01*
X773500Y69500D01*
X762670Y69500D01*
X762370Y69800D01*
X803500Y114100D02*
X790400Y127200D01*
X803500Y79100D02*
X794000Y69600D01*
X803500Y79100D02*
X803500Y114100D01*
D49*
X275400Y559600D02*
X275400Y569700D01*
X275400Y559600D02*
X285500Y549500D01*
X344000Y549500D01*
X344500Y549500D01*
X344000Y549500D02*
X346000Y551500D01*
X346000Y562691D01*
X405921Y622612D01*
X507500Y616000D02*
X507500Y608800D01*
X346000Y548000D02*
X344500Y549500D01*
X358400Y404100D02*
X371200Y404100D01*
X346000Y416500D02*
X346000Y548000D01*
X346000Y416500D02*
X358400Y404100D01*
X508700Y607600D02*
X507500Y608800D01*
X418000Y622612D02*
X405921Y622612D01*
D50*
X418000Y622612D03*
X450929Y622429D03*
D49*
X501071Y622429D01*
X507500Y616000D01*
X500700Y607600D02*
X499700Y607600D01*
X491150Y616150D01*
X409000Y616500D02*
X355000Y562500D01*
X355000Y558500D01*
X355600Y557900D01*
X409000Y616500D02*
X423500Y616500D01*
D50*
X423500Y616500D03*
X458000Y616000D03*
D49*
X491000Y616000D02*
X491150Y616150D01*
X491000Y616000D02*
X458000Y616000D01*
X699500Y390500D02*
X739000Y430000D01*
X699500Y390500D02*
X699450Y390550D01*
X687208Y390550D01*
X739000Y430000D02*
X739000Y493500D01*
X785000Y539500D02*
X785000Y549500D01*
X785000Y539500D02*
X739000Y493500D01*
X734000Y436500D02*
X700000Y402500D01*
X687958Y402500D01*
X687208Y403250D01*
X734000Y436500D02*
X734000Y508000D01*
X766000Y540000D01*
X729500Y442000D02*
X703450Y415950D01*
X687208Y415950D01*
X729500Y442000D02*
X729500Y509000D01*
X748000Y527500D02*
X748000Y557000D01*
X748000Y527500D02*
X729500Y509000D01*
X701500Y579000D02*
X669000Y579000D01*
X720750Y454250D02*
X707500Y441000D01*
X707150Y441350D01*
X687208Y441350D01*
X720750Y454250D02*
X720750Y559750D01*
X701500Y579000D01*
X494500Y441000D02*
X632500Y303000D01*
X494500Y441000D02*
X494500Y497800D01*
X482700Y509600D01*
X632500Y303000D02*
X632500Y268500D01*
X642000Y259000D02*
X660000Y259000D01*
X686500Y232500D01*
X691138Y232500D01*
X692288Y233650D01*
X642000Y259000D02*
X632500Y268500D01*
D50*
X640500Y268500D03*
X640500Y254000D03*
D49*
X500700Y440271D02*
X500700Y491600D01*
X500700Y440271D02*
X547471Y393500D01*
X547500Y393500D01*
X637500Y271500D02*
X640500Y268500D01*
X637500Y271500D02*
X637500Y303500D01*
X547500Y393500D01*
X640500Y254000D02*
X661000Y254000D01*
X677500Y237500D01*
X677500Y222500D01*
X679000Y221000D01*
X692238Y221000D02*
X692288Y220950D01*
X692238Y221000D02*
X679000Y221000D01*
X513944Y451473D02*
X516700Y454229D01*
X513944Y451473D02*
X513944Y451444D01*
X512500Y450000D01*
X512500Y438971D02*
X517742Y433729D01*
X512500Y438971D02*
X512500Y450000D01*
X517742Y433729D02*
X517771Y433729D01*
X646000Y305500D01*
X516700Y454229D02*
X516700Y491600D01*
X692288Y284450D02*
X699550Y284450D01*
X708000Y276000D01*
X707500Y275500D01*
X707500Y268000D02*
X704500Y265000D01*
X658000Y265000D01*
X646000Y277000D01*
X646000Y305500D01*
X707500Y275500D02*
X707500Y268000D01*
X348600Y309200D02*
X341800Y316000D01*
X307500Y316000D01*
X291500Y309000D02*
X285000Y309000D01*
X298500Y316000D02*
X307500Y316000D01*
X298500Y316000D02*
X291500Y309000D01*
D61*
X855915Y385000D02*
X856710Y385795D01*
X822500Y367500D02*
X822500Y264500D01*
X804500Y246500D01*
X840000Y385000D02*
X855915Y385000D01*
X840000Y385000D02*
X822500Y367500D01*
D49*
X804500Y246500D02*
X782862Y246500D01*
X782712Y246350D01*
D50*
X810000Y275000D03*
D61*
X806500Y271500D01*
D49*
X782962Y271500D01*
X782712Y271750D01*
X572700Y482300D02*
X572700Y491600D01*
X787792Y377850D02*
X787792Y355292D01*
X760000Y327500D01*
X670000Y430000D02*
X670500Y430500D01*
X670000Y430000D02*
X670000Y369413D01*
D50*
X670500Y430500D03*
D61*
X711913Y327500D02*
X755500Y327500D01*
X756472Y327500D01*
X711913Y327500D02*
X670000Y369413D01*
D52*
X756472Y327500D02*
X756472Y194528D01*
X768500Y182500D01*
X782362Y182500D01*
X782712Y182850D01*
X760000Y327500D02*
X755500Y327500D01*
D49*
X635000Y429900D02*
X629600Y429900D01*
X616500Y443000D01*
X601000Y443000D01*
X601000Y454000D01*
X572700Y482300D01*
D50*
X670000Y445500D03*
D49*
X670000Y487500D01*
X674650Y492150D01*
X687208Y492150D01*
X629700Y442600D02*
X580700Y491600D01*
X629700Y442600D02*
X635000Y442600D01*
X600000Y508300D02*
X598700Y509600D01*
X600000Y508300D02*
X600000Y481000D01*
X652500Y452500D02*
X652500Y361500D01*
X692288Y321712D02*
X692288Y309850D01*
X692288Y321712D02*
X652500Y361500D01*
X625700Y455300D02*
X600000Y481000D01*
X625700Y455300D02*
X635000Y455300D01*
X651829Y452500D02*
X652500Y452500D01*
D60*
X651829Y452500D03*
D61*
X252500Y699812D02*
X252340Y699652D01*
X252500Y699812D02*
X252500Y710000D01*
X247500Y715000D01*
X222210Y715000D01*
X221850Y714640D01*
X221850Y658760D01*
D49*
X440000Y596000D02*
X470500Y565500D01*
D50*
X440000Y687500D03*
X440000Y703612D03*
D49*
X440000Y715000D01*
X422500Y732500D01*
X370000Y732500D01*
X357100Y719600D02*
X357100Y711000D01*
X440000Y687500D02*
X440000Y596000D01*
X357100Y719600D02*
X370000Y732500D01*
X470500Y565500D02*
X482600Y565500D01*
D61*
X304000Y730000D02*
X295000Y721000D01*
X304000Y730000D02*
X335000Y730000D01*
X354000Y711000D01*
X357100Y711000D01*
D49*
X482700Y565600D02*
X482600Y565500D01*
X708000Y564000D02*
X717500Y554500D01*
X708000Y564000D02*
X698500Y564000D01*
X709050Y454050D02*
X687208Y454050D01*
X717500Y462500D02*
X717500Y554500D01*
X717500Y462500D02*
X709050Y454050D01*
X709000Y471500D02*
X709000Y530500D01*
X709000Y471500D02*
X705000Y467500D01*
X687958Y467500D01*
X687208Y466750D01*
X687208Y479450D02*
X699344Y479450D01*
X702500Y482606D01*
X702500Y507500D01*
X693000Y517000D01*
X693000Y517500D01*
X556700Y607600D02*
X556700Y621700D01*
X570000Y635000D01*
X594000Y635000D01*
X633000Y596000D01*
X785000Y580500D02*
X785000Y566500D01*
X785000Y580500D02*
X769500Y596000D01*
X633000Y596000D01*
X565000Y607900D02*
X564700Y607600D01*
X565000Y607900D02*
X565000Y622500D01*
X572500Y630000D01*
X593500Y630000D01*
X766000Y580000D02*
X766000Y557000D01*
X766000Y580000D02*
X753500Y592500D01*
X631000Y592500D02*
X593500Y630000D01*
X631000Y592500D02*
X753500Y592500D01*
X572700Y607600D02*
X572700Y619800D01*
X572500Y620000D01*
X577500Y625000D01*
X594000Y625000D01*
X629500Y589500D01*
X732500Y589500D02*
X748000Y574000D01*
X732500Y589500D02*
X629500Y589500D01*
X580700Y607600D02*
X580700Y618200D01*
X582500Y620000D01*
X595000Y620000D01*
X703500Y586500D02*
X730000Y560000D01*
X703500Y586500D02*
X628500Y586500D01*
X595000Y620000D01*
X598700Y589600D02*
X613400Y589600D01*
X624000Y579000D02*
X652000Y579000D01*
X624000Y579000D02*
X613400Y589600D01*
X647000Y564000D02*
X681500Y564000D01*
X647000Y564000D02*
X637000Y574000D01*
X623500Y574000D01*
X615900Y581600D01*
X598700Y581600D01*
X701500Y555000D02*
X709000Y547500D01*
X701500Y555000D02*
X675000Y555000D01*
X669000Y561000D01*
X644500Y561000D01*
X598800Y573700D02*
X598700Y573600D01*
X635500Y570000D02*
X644500Y561000D01*
X620000Y570000D02*
X616300Y573700D01*
X598800Y573700D01*
X620000Y570000D02*
X635500Y570000D01*
X634400Y565600D02*
X598700Y565600D01*
X634400Y565600D02*
X642500Y557500D01*
X667500Y557500D01*
X673300Y551700D01*
X693000Y545500D02*
X693000Y534500D01*
X693000Y545500D02*
X686800Y551700D01*
X673300Y551700D01*
D61*
X277008Y704000D02*
X272660Y699652D01*
X277008Y704000D02*
X295000Y704000D01*
X296000Y705000D01*
X302500Y705000D01*
X307900Y710400D01*
X314450Y710400D01*
D49*
X598700Y517600D02*
X599300Y517000D01*
X606500Y517000D01*
X609000Y514500D01*
D60*
X665000Y470000D03*
D49*
X609000Y481000D02*
X609000Y514500D01*
X665000Y470000D02*
X665000Y368000D01*
X753000Y185500D02*
X768500Y170000D01*
X782562Y170000D01*
X782712Y170150D01*
X753000Y280000D02*
X665000Y368000D01*
X753000Y280000D02*
X753000Y185500D01*
X635000Y468000D02*
X622000Y468000D01*
X609000Y481000D01*
X705000Y95000D02*
X705000Y77500D01*
X705000Y95000D02*
X695000Y105000D01*
X695000Y128500D02*
X689000Y134500D01*
X695000Y128500D02*
X695000Y105000D01*
X689000Y134500D02*
X689000Y138088D01*
X659500Y167588D01*
X659500Y175500D01*
X715000Y102500D02*
X715000Y77500D01*
X715000Y102500D02*
X703500Y114000D01*
X703500Y139000D01*
X690000Y152500D01*
X679000Y152500D01*
X669500Y162000D01*
X669500Y187209D01*
D60*
X660237Y196472D03*
X648000Y196500D03*
D49*
X646000Y196500D01*
X640500Y191000D01*
X660237Y196472D02*
X669500Y187209D01*
X640500Y188500D02*
X640500Y191000D01*
X599300Y525000D02*
X598700Y525600D01*
X599300Y525000D02*
X610000Y525000D01*
X611500Y523500D01*
X611500Y516000D02*
X614500Y513000D01*
X611500Y516000D02*
X611500Y523500D01*
X614500Y483000D02*
X615000Y482500D01*
D60*
X615000Y482500D03*
D49*
X614500Y483000D02*
X614500Y513000D01*
D60*
X617000Y414000D03*
D49*
X617000Y358500D01*
X664000Y311500D01*
X664000Y283500D01*
X664171Y283329D01*
X664171Y283000D01*
D60*
X664171Y283000D03*
X660000Y235500D03*
D49*
X660000Y234000D01*
X657500Y231500D01*
X743000Y123000D02*
X759000Y107000D01*
X773020Y107000D02*
X773200Y106820D01*
X773020Y107000D02*
X759000Y107000D01*
X657500Y208000D02*
X657500Y231500D01*
X680500Y156500D02*
X692000Y156500D01*
X725500Y123000D01*
X743000Y123000D01*
X672460Y193040D02*
X657500Y208000D01*
X672460Y164540D02*
X680500Y156500D01*
X672460Y164540D02*
X672460Y193040D01*
X608900Y533600D02*
X598700Y533600D01*
X608900Y533600D02*
X615000Y527500D01*
X615000Y517500D01*
X620000Y512500D01*
D60*
X620000Y490000D03*
X622500Y420500D03*
D49*
X623000Y420000D01*
X620000Y490000D02*
X620000Y512500D01*
X623000Y420000D02*
X623000Y358500D01*
X669500Y312000D02*
X669500Y277000D01*
D60*
X669500Y277000D03*
X662500Y228000D03*
D49*
X669500Y312000D02*
X623000Y358500D01*
X662500Y228000D02*
X665000Y225500D01*
X744500Y126500D02*
X772700Y126500D01*
D52*
X773400Y127200D01*
D49*
X744500Y126500D02*
X726000Y126500D01*
X692500Y160000D01*
X683000Y160000D01*
X676000Y167000D01*
X676000Y194000D01*
X665000Y205000D01*
X665000Y225500D01*
D58*
X695000Y95000D02*
X695000Y77500D01*
X686500Y103500D02*
X686500Y114000D01*
X686500Y103500D02*
X695000Y95000D01*
X686500Y114000D02*
X672000Y128500D01*
X672000Y134500D01*
X650000Y156500D02*
X649500Y156000D01*
D59*
X641000Y147500D01*
X353000Y147500D02*
X332000Y168500D01*
X332000Y200500D01*
X323500Y209000D01*
X353000Y147500D02*
X641000Y147500D01*
D55*
X323500Y209000D02*
X311000Y209000D01*
X310500Y208500D01*
X671000Y134500D02*
X672000Y134500D01*
X671000Y134500D02*
X650000Y155500D01*
X650000Y133500D01*
X650000Y155500D02*
X649500Y156000D01*
D58*
X650000Y182000D02*
X659500Y182000D01*
X650000Y182000D02*
X640500Y182000D01*
D57*
X650000Y182000D02*
X650000Y156500D01*
D52*
X566700Y489600D02*
X564700Y491600D01*
X566700Y489600D02*
X566700Y439800D01*
X574000Y432500D01*
D61*
X645500Y230500D02*
X634000Y219000D01*
X645500Y230500D02*
X645500Y236000D01*
X647000Y237500D01*
D60*
X647000Y237500D03*
X654671Y281500D03*
D49*
X653286Y282885D01*
X653286Y308997D01*
X570000Y392283D01*
X570000Y410000D01*
X577000Y417000D01*
X577000Y421500D01*
X577000Y429500D02*
X574000Y432500D01*
X577000Y429500D02*
X577000Y421500D01*
X634000Y219000D02*
X634000Y177500D01*
X636000Y175500D01*
X640500Y175500D01*
D52*
X556700Y476800D02*
X556700Y491600D01*
X556700Y476800D02*
X563500Y470000D01*
X563500Y409000D01*
D49*
X651000Y230000D02*
X653714Y227286D01*
X653714Y207500D02*
X653714Y206874D01*
X653714Y207500D02*
X653714Y227286D01*
X651000Y230000D02*
X651000Y230671D01*
X651329Y231000D01*
D60*
X651329Y231000D03*
X658500Y289500D03*
D49*
X658500Y309500D01*
X581500Y386500D02*
X581500Y397000D01*
X581500Y386500D02*
X658500Y309500D01*
D60*
X563500Y409000D03*
X576500Y408500D03*
D49*
X579000Y408500D02*
X581500Y406000D01*
X579000Y408500D02*
X576500Y408500D01*
X581500Y406000D02*
X581500Y397000D01*
X653714Y206874D02*
X653714Y194286D01*
X659500Y188500D01*
M02*
