G04 EAGLE Gerber RS-274X export*
G75*
%MOMM*%
%FSLAX34Y34*%
%LPD*%
%INSoldermask Top*%
%IPPOS*%
%AMOC8*
5,1,8,0,0,1.08239X$1,22.5*%
G01*
%ADD10R,1.203200X1.303200*%
%ADD11R,1.303200X1.203200*%
%ADD12C,1.203200*%
%ADD13R,1.603200X1.403200*%
%ADD14R,0.965200X1.727200*%
%ADD15R,1.403200X0.803200*%
%ADD16R,1.103200X2.003200*%
%ADD17R,1.603200X2.203200*%
%ADD18R,1.730200X2.203200*%
%ADD19R,1.303200X2.003200*%
%ADD20C,1.753200*%
%ADD21R,1.603200X1.803200*%
%ADD22R,2.003200X1.803200*%
%ADD23R,0.753200X1.403200*%
%ADD24R,1.703200X0.703200*%
%ADD25R,0.703200X1.703200*%
%ADD26R,1.803200X1.603200*%
%ADD27R,3.203200X1.603200*%
%ADD28R,1.016000X1.727200*%
%ADD29R,3.327400X2.108200*%
%ADD30R,1.673200X1.727200*%
%ADD31C,0.793150*%
%ADD32C,2.235200*%
%ADD33R,2.103200X1.303200*%
%ADD34C,1.422400*%
%ADD35C,6.045200*%
%ADD36R,1.403200X1.603200*%
%ADD37R,1.473200X2.743200*%
%ADD38R,2.235200X0.863600*%
%ADD39C,6.553200*%
%ADD40R,2.703200X0.703200*%
%ADD41R,2.703200X2.203200*%
%ADD42C,1.103200*%
%ADD43C,2.082800*%
%ADD44R,0.551200X1.600200*%
%ADD45R,1.524000X0.762000*%
%ADD46R,0.762000X2.514600*%


D10*
X639420Y543900D03*
X639420Y526900D03*
X559320Y469300D03*
X559320Y452300D03*
X314450Y710400D03*
X314450Y693400D03*
D11*
X537100Y636700D03*
X554100Y636700D03*
D12*
X910200Y76920D03*
X899300Y718120D03*
D13*
X583870Y423300D03*
X583870Y393300D03*
D14*
X183750Y658760D03*
X183750Y714640D03*
X221850Y658760D03*
X221850Y714640D03*
D11*
X489900Y343500D03*
X506900Y343500D03*
X337900Y339500D03*
X320900Y339500D03*
X489400Y362400D03*
X506400Y362400D03*
D15*
X427200Y353300D03*
X427200Y366000D03*
X427200Y378700D03*
X427200Y391400D03*
X427200Y404100D03*
X427200Y416800D03*
X427200Y429500D03*
X371200Y429500D03*
X371200Y416800D03*
X371200Y404100D03*
X371200Y391400D03*
X371200Y378700D03*
X371200Y366000D03*
X371200Y353300D03*
D11*
X489400Y381900D03*
X506400Y381900D03*
D16*
X546300Y309200D03*
X521300Y309200D03*
X503800Y309200D03*
X488800Y309200D03*
X471300Y309200D03*
X446300Y309200D03*
X421300Y309200D03*
X397100Y309200D03*
X380100Y309200D03*
D17*
X623560Y99200D03*
D18*
X342710Y87700D03*
D19*
X348600Y309200D03*
D16*
X571300Y309200D03*
D20*
X598000Y66200D03*
X355400Y66200D03*
D10*
X107300Y220600D03*
X107300Y237600D03*
X274600Y73400D03*
X274600Y56400D03*
X475100Y473900D03*
X475100Y456900D03*
X459600Y473900D03*
X459600Y456900D03*
X202700Y98400D03*
X202700Y81400D03*
D21*
X191600Y234000D03*
X163600Y234000D03*
D11*
X126600Y161500D03*
X143600Y161500D03*
X126600Y144000D03*
X143600Y144000D03*
D10*
X180400Y98600D03*
X180400Y81600D03*
D13*
X221000Y42700D03*
X221000Y72700D03*
X251000Y42700D03*
X251000Y72700D03*
D22*
X131500Y222600D03*
X131500Y250600D03*
D23*
X497700Y668799D03*
X507200Y668799D03*
X516700Y668799D03*
X516700Y694801D03*
X497700Y694801D03*
D24*
X482700Y589600D03*
X482700Y581600D03*
X482700Y573600D03*
X482700Y565600D03*
X482700Y557600D03*
X482700Y549600D03*
X482700Y541600D03*
X482700Y533600D03*
X482700Y525600D03*
X482700Y517600D03*
X482700Y509600D03*
D25*
X500700Y491600D03*
X508700Y491600D03*
X516700Y491600D03*
X524700Y491600D03*
X532700Y491600D03*
X540700Y491600D03*
X548700Y491600D03*
X556700Y491600D03*
X564700Y491600D03*
X572700Y491600D03*
X580700Y491600D03*
D24*
X598700Y509600D03*
X598700Y517600D03*
X598700Y525600D03*
X598700Y533600D03*
X598700Y541600D03*
X598700Y549600D03*
X598700Y557600D03*
X598700Y565600D03*
X598700Y573600D03*
X598700Y581600D03*
X598700Y589600D03*
D25*
X580700Y607600D03*
X572700Y607600D03*
X564700Y607600D03*
X556700Y607600D03*
X548700Y607600D03*
X540700Y607600D03*
X532700Y607600D03*
X524700Y607600D03*
X516700Y607600D03*
X508700Y607600D03*
X500700Y607600D03*
D11*
X641200Y498000D03*
X624200Y498000D03*
D10*
X540600Y452200D03*
X540600Y469200D03*
D11*
X441800Y561200D03*
X458800Y561200D03*
D10*
X623700Y543800D03*
X623700Y526800D03*
D26*
X239900Y408600D03*
X239900Y380600D03*
D10*
X168500Y316400D03*
X168500Y299400D03*
D27*
X179500Y464500D03*
X131500Y464500D03*
D23*
X207300Y317601D03*
X197800Y317601D03*
X188300Y317601D03*
X188300Y291599D03*
X207300Y291599D03*
D10*
X234000Y292100D03*
X234000Y309100D03*
D28*
X172507Y400200D03*
X149800Y400200D03*
X126915Y400200D03*
D29*
X149800Y340790D03*
D10*
X202500Y428800D03*
X202500Y411800D03*
X202500Y390300D03*
X202500Y373300D03*
D26*
X258300Y321800D03*
X258300Y293800D03*
D30*
X188300Y589370D03*
X188300Y543830D03*
D31*
X49650Y637350D02*
X35550Y637350D01*
X35550Y655450D01*
X49650Y655450D01*
X49650Y637350D01*
X49650Y644885D02*
X35550Y644885D01*
X35550Y652420D02*
X49650Y652420D01*
X49650Y523350D02*
X35550Y523350D01*
X35550Y541450D01*
X49650Y541450D01*
X49650Y523350D01*
X49650Y530885D02*
X35550Y530885D01*
X35550Y538420D02*
X49650Y538420D01*
X96550Y637350D02*
X110650Y637350D01*
X96550Y637350D02*
X96550Y655450D01*
X110650Y655450D01*
X110650Y637350D01*
X110650Y644885D02*
X96550Y644885D01*
X96550Y652420D02*
X110650Y652420D01*
X110650Y523350D02*
X96550Y523350D01*
X96550Y541450D01*
X110650Y541450D01*
X110650Y523350D01*
X110650Y530885D02*
X96550Y530885D01*
X96550Y538420D02*
X110650Y538420D01*
D32*
X42600Y589400D03*
X88320Y589400D03*
D33*
X447000Y541800D03*
X410000Y518800D03*
X447000Y518800D03*
X410000Y541800D03*
D11*
X397700Y558000D03*
X414700Y558000D03*
D10*
X388100Y535800D03*
X388100Y518800D03*
D34*
X850614Y493745D02*
X862806Y493745D01*
X862806Y472155D02*
X850614Y472155D01*
X850614Y450565D02*
X862806Y450565D01*
X862806Y428975D02*
X850614Y428975D01*
X850614Y407385D02*
X862806Y407385D01*
X862806Y385795D02*
X850614Y385795D01*
X850614Y364205D02*
X862806Y364205D01*
X862806Y342615D02*
X850614Y342615D01*
X850614Y321025D02*
X862806Y321025D01*
X862806Y299435D02*
X850614Y299435D01*
X850614Y277845D02*
X862806Y277845D01*
X862806Y256255D02*
X850614Y256255D01*
X893794Y493745D02*
X905986Y493745D01*
X905986Y472155D02*
X893794Y472155D01*
X893794Y450565D02*
X905986Y450565D01*
X905986Y428975D02*
X893794Y428975D01*
X893794Y407385D02*
X905986Y407385D01*
X905986Y385795D02*
X893794Y385795D01*
X893794Y364205D02*
X905986Y364205D01*
X905986Y342615D02*
X893794Y342615D01*
X893794Y321025D02*
X905986Y321025D01*
X905986Y299435D02*
X893794Y299435D01*
X893794Y277845D02*
X905986Y277845D01*
X905986Y256255D02*
X893794Y256255D01*
D35*
X878300Y608934D03*
X878300Y141066D03*
D10*
X296000Y73100D03*
X296000Y56100D03*
X89400Y424100D03*
X89400Y407100D03*
D36*
X58100Y424800D03*
X28100Y424800D03*
D10*
X90300Y379100D03*
X90300Y362100D03*
D36*
X58100Y381400D03*
X28100Y381400D03*
D10*
X578200Y469600D03*
X578200Y452600D03*
D13*
X609500Y423100D03*
X609500Y393100D03*
D11*
X600600Y721400D03*
X617600Y721400D03*
D10*
X812500Y703400D03*
X812500Y720400D03*
X355600Y540900D03*
X355600Y557900D03*
X318700Y540900D03*
X318700Y557900D03*
X299300Y540900D03*
X299300Y557900D03*
X336500Y540800D03*
X336500Y557800D03*
X275400Y586700D03*
X275400Y569700D03*
D11*
X746000Y180000D03*
X729000Y180000D03*
X443000Y353000D03*
X460000Y353000D03*
D10*
X307500Y299000D03*
X307500Y316000D03*
X285000Y309000D03*
X285000Y326000D03*
D37*
X407900Y711000D03*
X407900Y654000D03*
X382500Y711000D03*
X382500Y654000D03*
X357100Y711000D03*
X357100Y654000D03*
D38*
X787792Y377850D03*
X787792Y390550D03*
X787792Y403250D03*
X787792Y415950D03*
X787792Y428650D03*
X787792Y441350D03*
X787792Y454050D03*
X787792Y466750D03*
X687208Y466750D03*
X687208Y454050D03*
X687208Y441350D03*
X687208Y428650D03*
X687208Y415950D03*
X687208Y403250D03*
X687208Y390550D03*
X687208Y377850D03*
X787792Y479450D03*
X787792Y492150D03*
X687208Y479450D03*
X687208Y492150D03*
X787792Y202850D03*
X787792Y215550D03*
X787792Y228250D03*
X787792Y240950D03*
X787792Y253650D03*
X787792Y266350D03*
X787792Y279050D03*
X787792Y291750D03*
X687208Y291750D03*
X687208Y279050D03*
X687208Y266350D03*
X687208Y253650D03*
X687208Y240950D03*
X687208Y228250D03*
X687208Y215550D03*
X687208Y202850D03*
X787792Y304450D03*
X787792Y317150D03*
X687208Y304450D03*
X687208Y317150D03*
D11*
X746000Y355000D03*
X729000Y355000D03*
D10*
X599500Y469000D03*
X599500Y452000D03*
D39*
X50000Y50000D03*
X950000Y50000D03*
X950000Y700000D03*
X50000Y700000D03*
D40*
X80000Y167500D03*
X80000Y175500D03*
X80000Y151500D03*
X80000Y159500D03*
D41*
X25000Y122500D03*
X25000Y212500D03*
X80000Y122500D03*
X80000Y212500D03*
D40*
X80000Y183500D03*
D42*
X55000Y189500D03*
X55000Y145500D03*
D43*
X227500Y515000D03*
X117500Y302500D03*
X257500Y255000D03*
X122500Y682500D03*
D44*
X252250Y123440D03*
X245750Y123440D03*
X239250Y123440D03*
X232750Y123440D03*
X226250Y123440D03*
X219750Y123440D03*
X213250Y123440D03*
X200250Y123440D03*
X206750Y123440D03*
X193750Y123440D03*
X187250Y123440D03*
X180750Y123440D03*
X174250Y123440D03*
X167750Y123440D03*
X252250Y196560D03*
X245750Y196560D03*
X239250Y196560D03*
X232750Y196560D03*
X226250Y196560D03*
X219750Y196560D03*
X213250Y196560D03*
X206750Y196560D03*
X200250Y196560D03*
X193750Y196560D03*
X187250Y196560D03*
X180750Y196560D03*
X174250Y196560D03*
X167750Y196560D03*
D43*
X640000Y422500D03*
X640000Y447900D03*
X640000Y473300D03*
D10*
X282500Y176000D03*
X282500Y159000D03*
D45*
X272660Y682253D03*
X272660Y699652D03*
X252340Y699652D03*
X252340Y680348D03*
D10*
X295000Y721000D03*
X295000Y704000D03*
X779000Y546000D03*
X779000Y563000D03*
X763000Y545500D03*
X763000Y562500D03*
X746000Y545500D03*
X746000Y562500D03*
X730000Y545000D03*
X730000Y562000D03*
D11*
X669000Y579000D03*
X652000Y579000D03*
X698500Y564000D03*
X681500Y564000D03*
D10*
X709000Y530500D03*
X709000Y547500D03*
X693000Y522500D03*
X693000Y539500D03*
D46*
X638650Y622788D03*
X651350Y622788D03*
X664050Y622788D03*
X676750Y622788D03*
X689450Y622788D03*
X702150Y622788D03*
X714850Y622788D03*
X727550Y622788D03*
X740250Y622788D03*
X752950Y622788D03*
X765650Y622788D03*
X778350Y622788D03*
X778350Y713212D03*
X765650Y713212D03*
X752950Y713212D03*
X740250Y713212D03*
X727550Y713212D03*
X714850Y713212D03*
X702150Y713212D03*
X689450Y713212D03*
X676750Y713212D03*
X664050Y713212D03*
X651350Y713212D03*
X638650Y713212D03*
M02*
